<svg width="279" height="285" viewBox="0 0 279 285" fill="none" xmlns="http://www.w3.org/2000/svg">
<path d="M116.136 270.922C75.9679 264.011 37.5043 245.969 16.4645 210.909C-4.6398 175.742 -3.92838 132.622 9.96344 94.0029C24.0739 54.7761 50.7478 19.8973 90.0322 6.39291C129.945 -7.32767 173.833 1.92636 208.784 25.6562C243.192 49.0173 263.909 86.6152 269.145 128C274.652 171.519 269.009 218.986 237.028 248.858C205.471 278.334 158.608 278.23 116.136 270.922Z" fill="#F576A6"/>
<path opacity="0.4" d="M162.363 13.5153C202.614 20.4404 241.079 38.5065 262.107 73.5446C283.204 108.698 282.51 151.833 268.596 190.51C254.46 229.806 227.761 264.681 188.496 278.178C148.587 291.897 104.677 282.651 69.6862 258.896C35.2657 235.527 14.5297 197.91 9.28708 156.48C3.76592 112.85 9.4436 65.3892 41.3905 35.5501C72.9028 6.117 119.75 6.18383 162.363 13.5153Z" stroke="white" stroke-width="0.857863"/>
</svg>
