<svg width="315" height="321" viewBox="0 0 315 321" fill="none" xmlns="http://www.w3.org/2000/svg">
<path d="M131.135 316.403C85.7793 308.613 42.3481 288.274 18.5909 248.752C-5.23904 209.109 -4.43573 160.501 11.2502 116.967C27.1831 72.7476 57.3019 33.4297 101.66 18.2066C146.728 2.73972 196.284 13.1715 235.749 39.9216C274.601 66.2559 297.993 108.639 303.906 155.291C310.124 204.349 303.752 257.856 267.64 291.531C232.008 324.759 179.092 324.641 131.135 316.403Z" fill="#587EE0"/>
<path opacity="0.4" d="M183.364 305.966C228.803 298.161 272.236 277.798 295.981 238.298C319.803 198.669 319.017 150.046 303.309 106.454C287.351 62.1661 257.207 22.8513 212.869 7.6355C167.804 -7.82935 118.226 2.59406 78.7212 29.37C39.8569 55.7116 16.4455 98.1143 10.5266 144.811C4.29428 193.98 10.7007 247.481 46.7778 281.123C82.3657 314.307 135.265 314.227 183.364 305.966Z" stroke="white" stroke-width="0.857863"/>
</svg>
