<svg width="320" height="432" viewBox="0 0 320 432" fill="none" xmlns="http://www.w3.org/2000/svg">
<path fill-rule="evenodd" clip-rule="evenodd" d="M87.1252 356.151C56.9233 373.482 30.0708 411.637 -2.97465 403.786C-36.2283 395.886 -34.8672 348.24 -55.5226 322.26C-74.5745 298.297 -115.208 288.903 -118.626 258.321C-122.042 227.755 -86.9713 205.844 -71.6389 178.056C-54.6644 147.291 -57.1079 100.76 -24.1058 87.0127C8.93918 73.248 39.8281 107.134 72.9109 117.845C101.128 126.98 133.905 125.426 155.29 145.093C177.78 165.777 190.258 195.81 191.041 226.488C191.807 256.547 179.007 286.214 159.509 310.544C141.393 333.148 112.487 341.596 87.1252 356.151Z" fill="#262234"/>
<path d="M54.0441 34.4819C49.1044 39.908 43.9498 45.5428 37.292 49.0906C27.6273 54.5167 11.5196 55.3514 5.07656 44.708C2.7141 40.9515 2.28425 36.3602 4.21717 32.1862C7.86825 24.2558 17.3183 21.5427 22.6875 15.0732C28.4863 8.39492 34.7148 0.673227 44.3795 0.0471408C53.8293 -0.578946 65.2118 5.05582 64.997 15.4906C64.7822 23.2123 58.769 29.2645 54.0441 34.4819Z" fill="#373249"/>
<path d="M314.199 365.1C318.054 372.845 322.047 380.915 323.083 389.69C324.891 402.549 318.838 420.352 304.289 422.621C299.116 423.518 293.858 421.954 290.084 418.017C282.904 410.559 283.999 399.132 279.177 390.46C274.311 381.232 268.478 371.077 271.972 360.34C275.373 349.835 286.527 340.006 297.962 344.851C306.399 348.496 310.481 357.68 314.199 365.1Z" fill="#252234"/>
</svg>
