<svg width="320" height="982" viewBox="0 0 320 982" fill="none" xmlns="http://www.w3.org/2000/svg">
<path d="M293.287 0.474503C298.03 1.2787 302.571 3.37817 305.056 7.45784C307.548 11.55 307.464 16.5677 305.824 21.0615C304.157 25.6261 301.008 29.6847 296.369 31.2561C291.656 32.8527 286.474 31.7758 282.347 29.0145C278.284 26.2962 275.837 21.9211 275.219 17.1054C274.569 12.0414 275.235 6.51805 279.011 3.04193C282.738 -0.387983 288.271 -0.375833 293.287 0.474503Z" fill="#F0A53B"/>
<path d="M40.4975 261.631C43.1344 267.237 44.2261 273.61 41.6631 279.312C39.0922 285.031 33.6205 288.734 27.5638 290.402C21.4117 292.095 14.7092 291.843 9.58816 288.142C4.38515 284.381 1.71772 278.106 1.64589 271.67C1.57517 265.333 4.48488 259.449 9.22003 255.158C14.1993 250.646 20.6464 247.174 27.1839 248.527C33.6345 249.862 37.7094 255.703 40.4975 261.631Z" fill="#587EE0"/>
<path d="M329.498 443.631C332.134 449.237 333.226 455.61 330.663 461.312C328.092 467.031 322.62 470.734 316.564 472.402C310.412 474.095 303.709 473.843 298.588 470.142C293.385 466.381 290.718 460.106 290.646 453.67C290.575 447.333 293.485 441.449 298.22 437.158C303.199 432.646 309.646 429.174 316.184 430.527C322.634 431.862 326.709 437.703 329.498 443.631Z" fill="#EB5D19"/>
<path d="M279.051 774.624C274.002 775.784 268.6 775.547 264.395 772.441C260.177 769.326 258.121 764.198 257.832 758.953C257.539 753.625 258.933 748.192 262.866 744.663C266.862 741.078 272.463 740.011 277.736 741.093C282.927 742.159 287.22 745.58 289.887 750.211C292.691 755.08 294.386 760.964 292.121 766.067C289.886 771.102 284.39 773.396 279.051 774.624Z" fill="#373249"/>
<path d="M105.365 578.775C108.827 586.137 110.26 594.505 106.895 601.991C103.52 609.5 96.3351 614.363 88.3825 616.552C80.3048 618.775 71.5044 618.444 64.7804 613.585C57.9488 608.647 54.4464 600.407 54.3521 591.956C54.2592 583.637 58.0797 575.911 64.297 570.276C70.8349 564.352 79.3 559.793 87.8838 561.569C96.3535 563.322 101.704 570.992 105.365 578.775Z" fill="#F576A6"/>
<path d="M387.985 901.928C382.036 896.687 372.882 895.745 365.382 897.936C353.465 901.507 344.713 911.435 335.075 918.633C325.436 925.831 314.004 929.988 302.736 933.937C293.432 937.206 278.378 939.516 275.512 950.916C273.248 960.016 283.556 962.411 290.3 961.516C295.667 960.819 300.786 958.979 305.858 957.372C312.471 955.359 319.06 953.463 325.673 951.45C338.618 947.609 351.423 943.859 364.368 940.018C373.832 937.146 384.188 933.491 389.759 924.839C394.384 917.806 394.86 907.968 387.985 901.928Z" fill="#4FB096"/>
<path opacity="0.4" d="M276.246 960.81L276.246 960.81C272.504 958.952 270.466 956.423 269.772 953.809C269.078 951.193 269.711 948.423 271.446 946.041L271.449 946.037C273.538 943.094 276.968 940.891 281.037 939.131C285.1 937.372 289.751 936.074 294.237 934.911C300.379 933.349 306.49 931.804 312.602 930.258C318.713 928.713 324.825 927.168 330.968 925.605L330.97 925.605C334.104 924.79 337.235 923.995 340.368 923.2L340.37 923.199C343.502 922.405 346.635 921.609 349.771 920.794L349.775 920.793C350.501 920.597 351.226 920.398 351.952 920.199C356.04 919.078 360.15 917.95 364.551 917.368L364.552 917.368C367.789 916.933 372.001 917.015 375.262 917.963C376.894 918.437 378.246 919.117 379.128 920.018C379.992 920.902 380.419 922.013 380.198 923.433C379.908 925.25 378.842 926.765 377.217 928.065C375.588 929.368 373.421 930.435 370.99 931.351C368.563 932.265 365.897 933.02 363.281 933.709C362.491 933.917 361.705 934.12 360.932 934.319C359.151 934.777 357.438 935.219 355.905 935.671C345.306 938.797 334.506 942.087 325.907 947.379C323.759 948.701 321.693 950.135 319.632 951.582C319.4 951.744 319.169 951.907 318.937 952.07C317.105 953.358 315.271 954.647 313.369 955.879C309.089 958.651 304.486 961.116 298.895 962.551C291.843 964.319 282.756 964.05 276.246 960.81Z" stroke="white" stroke-width="0.857863"/>
</svg>
