<svg width="233" height="239" viewBox="0 0 233 239" fill="none" xmlns="http://www.w3.org/2000/svg">
<path d="M135.72 3.42532C169.366 9.23065 201.585 24.3862 219.209 53.8363C236.887 83.3765 236.291 119.598 224.654 152.038C212.835 184.988 190.492 214.286 157.586 225.63C124.153 237.155 87.3908 229.382 58.1143 209.449C29.2928 189.825 11.9401 158.243 7.55357 123.48C2.94092 86.9239 7.66778 47.0521 34.4566 21.959C60.8894 -2.80075 100.144 -2.71305 135.72 3.42532Z" fill="#4FB096"/>
<path opacity="0.4" d="M97.7809 11.8481C64.0512 17.6423 31.8315 32.7562 14.2197 62.0572C-3.45081 91.4558 -2.87184 127.535 8.78606 159.892C20.631 192.769 42.9994 221.937 75.8859 233.224C109.315 244.698 146.099 236.966 175.415 217.094C204.249 197.548 221.622 166.083 226.014 131.426C230.641 94.9167 225.88 55.2235 199.126 30.2726C172.737 5.66255 133.499 5.71234 97.7809 11.8481Z" stroke="white" stroke-width="0.857863"/>
</svg>
