<svg width="1463" height="690" viewBox="0 0 1463 690" fill="none" xmlns="http://www.w3.org/2000/svg">
<path d="M62.6957 417.259C66.158 424.62 67.5915 432.988 64.2262 440.474C60.8506 447.983 53.6661 452.846 45.7136 455.035C37.6359 457.259 28.8354 456.928 22.1114 452.068C15.2798 447.13 11.7775 438.891 11.6831 430.44C11.5903 422.12 15.4108 414.394 21.6281 408.76C28.1659 402.835 36.6311 398.276 45.2148 400.053C53.6845 401.806 59.0349 409.475 62.6957 417.259Z" fill="#587EE0"/>
<path d="M751.521 683.729C746.472 684.89 741.07 684.652 736.865 681.547C732.647 678.432 730.591 673.303 730.302 668.058C730.009 662.73 731.403 657.297 735.336 653.769C739.332 650.183 744.933 649.116 750.206 650.199C755.397 651.264 759.689 654.685 762.357 659.316C765.161 664.185 766.856 670.07 764.591 675.172C762.356 680.207 756.86 682.502 751.521 683.729Z" fill="#4FB096"/>
<path d="M1448.36 609.775C1451.83 617.137 1453.26 625.505 1449.9 632.991C1446.52 640.5 1439.34 645.363 1431.38 647.552C1423.3 649.775 1414.5 649.444 1407.78 644.585C1400.95 639.647 1397.45 631.407 1397.35 622.956C1397.26 614.637 1401.08 606.911 1407.3 601.276C1413.83 595.352 1422.3 590.793 1430.88 592.569C1439.35 594.322 1444.7 601.992 1448.36 609.775Z" fill="#F576A6"/>
<path d="M1186.29 0.474503C1191.03 1.2787 1195.57 3.37817 1198.06 7.45784C1200.55 11.55 1200.46 16.5677 1198.82 21.0615C1197.16 25.6261 1194.01 29.6847 1189.37 31.2561C1184.66 32.8527 1179.47 31.7758 1175.35 29.0145C1171.28 26.2962 1168.84 21.9211 1168.22 17.1054C1167.57 12.0414 1168.24 6.51805 1172.01 3.04193C1175.74 -0.387983 1181.27 -0.375833 1186.29 0.474503Z" fill="#F0A53B"/>
</svg>
