<svg width="415" height="421" viewBox="0 0 415 421" fill="none" xmlns="http://www.w3.org/2000/svg">
<path d="M169.704 385.261C113.084 375.536 58.8659 350.145 29.2082 300.807C-0.540283 251.317 0.462585 190.635 20.0444 136.288C39.9344 81.0849 77.5338 32.0009 132.909 12.9966C189.17 -6.31204 251.034 6.71091 300.301 40.1053C348.802 72.9807 378.004 125.891 385.386 184.131C393.148 245.374 385.193 312.172 340.113 354.212C295.631 395.692 229.573 395.545 169.704 385.261Z" fill="#EB5D19"/>
<path opacity="0.4" d="M237.081 6.6654C298.528 17.2345 357.289 44.8139 389.419 98.3379C421.652 152.034 420.583 217.905 399.339 276.945C377.757 336.924 336.982 390.19 276.988 410.807C216.018 431.76 148.95 417.635 95.5158 381.368C42.9391 345.682 11.2717 288.24 3.26576 224.989C-5.16116 158.412 3.49422 85.9242 52.3169 40.3339C100.481 -4.64106 172.056 -4.51917 237.081 6.6654Z" stroke="white" stroke-width="0.857863"/>
</svg>
