<svg width="337" height="341" viewBox="0 0 337 341" fill="none" xmlns="http://www.w3.org/2000/svg">
<path d="M198.722 31.5671C243.781 39.3075 286.929 59.5149 310.531 98.7817C334.205 138.169 333.407 186.464 317.823 229.717C301.995 273.651 272.073 312.715 228.004 327.84C183.231 343.207 133.999 332.842 94.7918 306.265C56.1938 280.101 32.955 237.991 27.0805 191.64C20.9033 142.899 27.2335 89.7362 63.1092 56.2786C98.5082 23.2657 151.078 23.3826 198.722 31.5671Z" fill="#F0A53B"/>
<path opacity="0.4" d="M144.492 335.521C94.6063 326.962 46.916 304.631 20.8418 261.306C-5.31696 217.841 -4.45187 164.514 12.7934 116.709C30.3137 68.1419 63.4106 25.022 112.098 8.33298C161.581 -8.62878 216.017 2.80423 259.392 32.1689C302.065 61.0591 327.769 107.563 334.268 158.775C341.11 212.691 334.079 271.371 294.462 308.271C255.38 344.671 197.293 344.58 144.492 335.521Z" stroke="white" stroke-width="0.857863"/>
</svg>
