<svg width="315" height="365" viewBox="0 0 315 365" fill="none" xmlns="http://www.w3.org/2000/svg">
<path fill-rule="evenodd" clip-rule="evenodd" d="M300.781 94.0363C279.93 74.0616 224.095 48.1407 195.931 47.8676C167.59 47.5927 156.331 79.3 134.524 96.0902C114.409 111.577 124.514 107.799 115.662 131.731C106.815 155.652 130.671 180.283 137.468 205.708C144.993 233.856 133.744 270.821 157.564 288.469C181.415 306.14 213.037 285.028 241.801 283.007C266.334 281.283 292.406 289.072 313.541 277.509C335.769 265.347 351.804 243.665 358.554 219.128C365.167 195.088 360.783 168.656 349.943 145.184C339.871 123.376 318.291 110.81 300.781 94.0363Z" fill="#00B1AE"/>
<path d="M110.048 38.3939C112.624 31.6314 120.134 28.1698 126.949 30.6036L253.681 75.8627C260.425 78.2711 264.051 85.5863 261.884 92.4115L197.78 294.367C195.574 301.318 188.182 305.196 181.209 303.06L40.7874 260.054C33.4302 257.801 29.5144 249.793 32.2536 242.603L110.048 38.3939Z" fill="#252234"/>
<mask id="mask0_3759_1724" style="mask-type:alpha" maskUnits="userSpaceOnUse" x="31" y="29" width="232" height="275">
<path d="M110.048 38.3934C112.624 31.631 120.134 28.1693 126.949 30.6031L253.681 75.8623C260.425 78.2706 264.051 85.5858 261.885 92.411L197.78 294.367C195.574 301.317 188.182 305.195 181.209 303.06L40.7877 260.053C33.4304 257.8 29.5146 249.793 32.2539 242.602L110.048 38.3934Z" fill="#252234"/>
</mask>
<g mask="url(#mask0_3759_1724)">
<path d="M137.017 218.363C140.315 217.7 146.479 230.08 144.281 232.299C143.521 233.026 142.479 232.756 141.666 232.298C139.263 230.841 137.489 227.969 136.56 225.377C136.017 223.876 134.505 218.892 137.017 218.363Z" fill="#587EE0"/>
<path d="M217.671 226.135C219.841 228.236 220.835 231.436 220.705 234.406C220.814 235.748 220.446 237.045 219.038 237.726C216.674 238.886 214.682 236.074 213.74 234.284C212.6 232.107 211.296 228.657 212.459 226.239C213.614 224.042 216.201 224.715 217.671 226.135Z" fill="#587EE0"/>
<path d="M236.003 241.114C236.53 240.745 237.877 239.786 238.969 238.791C242.715 243.937 244.547 247.017 248.503 253.871C249.268 255.176 250.434 257.602 251.03 259.396C251.295 260.123 251.021 260.813 250.523 260.865C250.06 260.944 249.647 260.61 249.304 260.331C249.467 260.692 249.63 261.052 249.794 261.413C250.243 262.404 250.893 263.5 251.156 264.511C251.371 265.369 250.399 266.006 249.607 265.648C249.145 265.444 248.733 265.11 248.32 264.775C248.42 265.426 248.498 266.173 248.129 266.557C247.147 267.698 245.303 265.405 244.762 264.738C242.673 261.905 240.931 258.783 239.404 255.608C239.011 257.568 238.712 259.833 238.22 261.143C238.149 261.37 238.017 261.604 237.781 261.755C235.531 263.406 234.895 254.003 234.84 252.876C234.785 251.749 234.64 250.663 234.371 249.59C233.832 247.444 233.073 245.29 232.562 243.11C233.83 242.6 234.92 241.888 236.003 241.114Z" fill="#BE8273"/>
<path d="M122.396 236.839C122.799 236.483 123.209 236.188 123.653 235.921C123.681 235.887 123.681 235.887 123.709 235.853C129.063 232.903 133.973 229.307 138.41 225.1C138.466 225.031 138.59 225.018 138.687 225.04C138.777 224.999 138.839 224.992 138.97 225.041C141.268 226.563 141.331 229.577 143.046 231.537C143.074 231.502 143.136 231.496 143.164 231.462C143.4 231.311 143.722 231.686 143.424 231.843C143.396 231.878 143.334 231.884 143.306 231.919C143.326 232.105 143.096 232.318 142.952 232.144C141.981 232.781 141.215 233.584 140.525 234.506C139.723 235.565 139.155 236.756 138.588 237.948C138.027 239.202 137.528 240.45 136.932 241.676C136.287 243.033 135.567 244.272 134.62 245.441C134.48 245.613 134.341 245.785 134.161 245.867C133.571 246.243 132.918 245.713 132.763 245.132C132.696 244.793 132.691 244.447 132.749 244.095C132.866 243.107 133.183 242.225 133.431 241.287C133.538 240.804 133.673 240.286 133.779 239.803C132.718 240.48 131.656 241.157 130.6 241.897C129.185 242.8 127.767 243.986 126.235 244.681C125.576 245.001 124.754 244.961 124.449 244.144C124.15 243.388 125.091 242.158 125.912 241.285C125.198 241.675 124.449 242.036 123.694 242.335C123.028 242.593 121.718 243.296 121.184 242.408C120.651 241.52 121.839 240.547 122.388 240.08C123.216 239.27 124.147 238.544 125.084 237.88C124.627 238.022 124.198 238.13 123.866 238.259C123.318 238.442 122.439 238.754 122.007 238.233C121.644 237.767 121.993 237.196 122.396 236.839Z" fill="#BE8273"/>
<path d="M205.445 162.385C205.61 162.462 205.741 162.511 205.907 162.588C206.153 161.933 206.335 161.568 206.307 161.603C206.333 161.852 206.31 162.232 206.237 162.743C208.434 163.897 210.17 165.761 211.102 168.055C211.687 169.441 211.802 170.844 211.862 172.317C211.913 174.01 212.101 175.815 213.268 177.046C214.553 178.202 216.283 178.807 217.756 179.66C219.195 180.485 220.501 181.544 221.696 182.741C226.638 187.888 228.323 195.293 227.13 202.245C226.563 205.544 225.415 208.716 223.868 211.677C223.053 215.915 219.679 219.162 215.473 219.852C214.761 220.871 213.884 221.812 212.795 222.523C210.622 224.008 207.75 224.528 205.368 223.11C202.884 221.608 202.881 218.871 202.241 216.358C201.791 214.455 200.712 213.466 198.941 212.77C197.465 212.201 196.22 211.418 195.178 210.175C192.633 207.2 192.149 203.161 191.787 199.392C191.761 199.143 202.949 169.818 205.662 162.96C205.497 162.883 205.332 162.806 205.201 162.756C204.973 162.686 205.149 162.259 205.445 162.385Z" fill="#373349"/>
<path opacity="0.3" d="M191.491 226.725C188.082 222.742 187.43 217.335 186.942 212.29C186.907 211.957 201.864 172.715 205.491 163.537L205.49 163.537C205.269 163.434 205.048 163.331 204.872 163.265L191.491 226.725ZM206.171 162.59C206.11 162.741 206.044 162.911 205.973 163.099L205.91 163.267L205.747 163.191C205.639 163.141 205.543 163.099 205.443 163.057L205.442 163.056C205.344 163.015 205.244 162.972 205.132 162.92C205.073 162.895 205.032 162.901 205.003 162.913C204.97 162.927 204.94 162.956 204.92 162.994C204.899 163.034 204.897 163.068 204.901 163.086C204.903 163.096 204.905 163.101 204.922 163.106L204.922 163.106L204.931 163.109C205.112 163.177 205.338 163.283 205.555 163.384L205.561 163.387L205.703 163.453L205.645 163.599C203.832 168.186 199.187 180.29 194.999 191.29C192.905 196.789 190.925 202.012 189.471 205.881C188.745 207.816 188.149 209.411 187.737 210.533C187.53 211.095 187.37 211.537 187.262 211.844C187.208 211.997 187.167 212.116 187.14 212.198C187.135 212.214 187.131 212.229 187.126 212.242C187.12 212.262 187.115 212.278 187.112 212.291C187.111 212.293 187.111 212.295 187.11 212.297C187.598 217.342 188.253 222.685 191.617 226.617L191.618 226.618C192.993 228.258 194.636 229.291 196.591 230.047L196.592 230.048C197.792 230.519 198.769 231.095 199.525 231.884C200.281 232.674 200.806 233.67 201.114 234.967C201.287 235.644 201.425 236.334 201.562 237.014C201.596 237.184 201.63 237.354 201.665 237.522C201.838 238.37 202.021 239.198 202.281 239.981C202.797 241.545 203.611 242.925 205.23 243.904C208.349 245.762 212.121 245.092 214.993 243.13L214.993 243.13L214.996 243.128C216.432 242.191 217.591 240.949 218.534 239.6L218.574 239.542L218.643 239.531C224.206 238.62 228.665 234.33 229.74 228.728L229.745 228.704L229.756 228.682C231.818 224.733 233.345 220.505 234.1 216.108C235.684 206.848 233.43 196.991 226.854 190.143C225.262 188.549 223.524 187.141 221.613 186.044L221.612 186.044C220.971 185.673 220.298 185.339 219.616 185C219.252 184.82 218.885 184.638 218.519 184.448C217.474 183.907 216.45 183.309 215.573 182.521L215.573 182.521L215.564 182.512C213.953 180.813 213.701 178.335 213.632 176.072C213.551 174.104 213.396 172.251 212.624 170.426L212.624 170.424C211.39 167.391 209.092 164.924 206.183 163.394L206.079 163.34L206.096 163.224C206.129 162.99 206.154 162.779 206.171 162.59ZM187.107 212.31C187.106 212.314 187.106 212.313 187.107 212.309L187.107 212.31Z" stroke="white" stroke-width="0.332495"/>
<path d="M189.116 164.184C189.983 163.748 190.91 163.588 191.859 163.332C192.53 163.136 193.354 162.892 193.828 162.308C194.274 161.758 194.32 160.998 194.408 160.328C194.752 158.499 195.903 156.869 197.724 156.238C198.722 155.851 200.538 156.07 200.177 157.429C200.308 157.479 200.349 157.569 200.271 157.734C197.859 162.044 196.315 166.547 195.24 171.315C194.657 173.861 193.515 180.398 189.486 178.271C186.228 176.598 185.428 172.246 185.773 169.221C185.949 167.598 187.563 164.976 189.116 164.184Z" fill="#373349"/>
<path d="M191.433 167.088L189.209 173.204C189.209 173.204 191.899 173.961 197.254 174.031L199.258 168.82L191.433 167.088Z" fill="#BE8273"/>
<path d="M205.212 166.184C206.22 165.292 207.289 162.57 205.46 160.118C203.843 157.896 200.994 156.212 197.502 157.426C193.977 158.612 193.066 159.525 191.189 161.136C189.716 162.391 188.329 164.172 189.601 166.116C191.059 168.323 193.961 168.397 195.695 168.436C197.429 168.475 201.444 169.566 205.212 166.184Z" fill="#BE8273"/>
<path d="M198.728 157.109C199.488 155.96 201.408 156.263 202.194 156.558C203.407 157.029 204.567 158.198 205.285 159.35C205.859 160.328 206.281 161.354 206.64 162.386C206.987 163.293 207.153 164.283 206.967 165.215C206.738 166.339 206.044 166.915 205.128 167.483C204.33 167.975 203.476 168.536 203.558 169.629C203.623 170.251 203.903 170.82 204.065 171.463C204.22 172.045 204.278 172.605 204.109 173.095C204.116 173.157 204.088 173.191 204.06 173.226C203.983 173.391 203.878 173.591 203.738 173.763C203.683 173.831 203.593 173.872 203.496 173.851C202.098 175.224 199.988 175.507 198.343 174.515C195.17 173.651 199.087 171.7 197.154 168.253C195.847 166.281 196.856 164.194 199.03 163.621C199.091 162.702 197.589 163.079 198.278 162.441C200.544 160.348 197.611 158.767 198.728 157.109Z" fill="#373349"/>
<path d="M195.236 158.323C195.236 158.323 192.886 158.411 192.491 158.547C192.103 158.744 192.114 159.152 192.418 160.253C192.756 161.382 195.236 158.323 195.236 158.323Z" fill="#BE8273"/>
<path d="M204.611 301.115C207.485 301.223 209.41 300.676 210.206 300.467C211.076 300.66 213.233 300.529 217.472 300.149C217.845 300.11 218.246 300.037 218.682 299.991C219.683 301.145 220.567 302.374 221.214 303.754C222.217 305.82 222.73 308.629 221.865 310.89C219.679 310.143 217.948 310.733 213.706 310.483C213.595 310.621 212.587 309.405 212.505 309.225C212.471 309.197 209.487 304.727 207.299 303.351C206.087 302.596 204.854 301.938 203.823 301.102C204.107 301.104 204.362 301.141 204.611 301.115Z" fill="#E0785E"/>
<path d="M213.858 311.632C213.858 311.632 217.78 312.134 218.036 310.975C218.69 308.201 215.908 301.445 213.265 299.928C212.197 299.347 207.878 299.263 207.878 299.263L213.858 311.632Z" fill="#373349"/>
<path d="M170.583 198.492C170.583 198.492 172.294 196.803 175.491 197.287C178.653 197.743 183.209 201.609 185.927 204.439C188.611 207.242 192.023 212.8 192.023 212.8C191.433 216.197 191.259 219.644 191.408 223.183C187.883 220.154 183.622 217.61 179.524 215.427C176.191 213.636 172.478 211.821 168.634 212.065C168.589 207.414 169.213 202.85 170.514 198.436L170.583 198.492Z" fill="#BE8273"/>
<path d="M174.794 203.275C174.782 204.062 174.253 204.715 173.485 204.89C173.27 204.944 173.231 204.57 173.446 204.517C173.999 204.396 174.445 203.846 174.449 203.279C174.457 203.058 174.803 203.054 174.794 203.275Z" fill="#2B244A"/>
<path d="M170.299 180.715C173.371 178.192 176.833 176.1 180.437 174.466C180.618 174.384 180.804 174.365 181.013 174.248C189.16 171.227 198.111 171.991 206.091 175.499C213.344 178.076 215.895 184.133 218.374 190.701C221.288 198.419 222.545 201.717 225.459 209.435C228.977 214.51 233.477 223.855 236.122 229.305C237.124 231.371 237.949 234.148 238.252 236.444C239.043 237.997 239.869 239.578 240.688 241.097C240.77 241.277 240.547 241.552 240.547 241.552C238.891 244.368 236.087 246.139 232.876 246.726C232.814 246.733 232.531 246.731 232.456 246.613C231.489 245.487 230.528 244.423 229.561 243.297C216.717 236.585 213.079 221.329 206.958 209.416C205.69 206.906 204.206 204.45 202.528 202.234C201.908 205.036 200.97 207.808 198.712 209.68C197.211 210.969 195.142 211.342 193.266 210.846C193.296 211.441 193.284 212.228 193.089 212.469C192.727 212.916 192.222 212.906 191.857 212.723C191.857 212.723 188.48 207.193 185.762 204.363C183.078 201.56 178.522 197.694 175.325 197.21C172.198 196.782 170.508 198.374 170.418 198.415C169.573 201.775 169.048 204.881 168.56 208.644C168.388 208.505 167.652 208.078 167.104 207.349C158.949 213.612 156.959 227.096 146.14 229.83C145.451 230.468 144.735 231.141 144.081 231.807C143.594 232.266 143.043 233.016 142.365 233.15C140.891 233.492 139.311 231.015 138.709 230.071C137.881 228.773 137.304 227.166 137.805 225.635C138.109 224.628 138.778 223.803 139.515 223.034C139.498 222.564 139.528 222.246 139.602 221.452C139.81 219.228 141.435 217.014 142.601 215.225C144.256 212.692 153.096 200.947 155.06 198.666C162.017 187.558 164.504 185.473 170.299 180.715Z" fill="#EB5D19"/>
<path d="M145.653 230.289C142.875 229.29 140.74 226.021 139.444 223.545C139.327 223.337 139.66 223.208 139.776 223.416C141.032 225.801 143.098 229.015 145.808 229.959C146.035 230.029 145.881 230.36 145.653 230.289Z" fill="#2B244A"/>
<path d="M143.65 202.038C145.789 201.586 148.354 203.986 149.382 205.702C150.899 208.17 150.602 211.234 151.904 213.75C152.923 215.705 154.608 216.164 156.189 217.4C157.895 218.789 158.802 220.888 159.134 222.972C159.577 225.785 159.293 228.71 160.052 231.469C162.42 240.514 176.158 245.125 174.855 255.345C174.513 257.857 173.088 260.08 170.675 261.041C165.44 263.119 159.96 258.889 158.861 253.848C158.381 251.551 158.194 249.143 157.053 247.134C155.675 244.681 153.033 243.215 151.233 241.058C147.838 236.932 148.082 231.374 148.511 226.383C148.963 221.014 145.473 217.427 142.9 213.086C140.916 209.491 139.687 202.891 143.65 202.038Z" fill="#F576A6"/>
<path d="M43.0833 147.074C45.2221 146.621 47.7866 149.021 48.8148 150.738C50.3325 153.205 50.0348 156.269 51.3367 158.786C52.3559 160.741 54.0405 161.2 55.6215 162.436C57.3283 163.825 58.235 165.923 58.5667 168.008C59.0104 170.821 58.7263 173.746 59.4845 176.505C61.8532 185.55 75.5907 190.16 74.2883 200.381C73.9459 202.892 72.5207 205.116 70.1076 206.076C64.8726 208.155 59.3929 203.925 58.2941 198.883C57.8143 196.587 57.6265 194.179 56.4861 192.17C55.1078 189.716 52.4665 188.251 50.6656 186.093C47.2706 181.968 47.5155 176.41 47.9442 171.419C48.3956 166.05 44.906 162.463 42.3332 158.122C40.3488 154.527 39.1203 147.926 43.0833 147.074Z" fill="#EB5D19"/>
<path d="M169.902 200.104C169.296 197.619 169.734 195.183 172.141 193.83C174.576 192.443 177.687 193.314 180.064 194.387C186.893 197.418 191.037 203.969 193.66 210.71C193.714 210.925 193.409 211.02 193.328 210.84C191.092 205.096 187.757 199.372 182.409 196.061C180.09 194.636 177.114 193.248 174.313 193.54C173.006 193.677 171.869 194.236 170.998 195.239C169.828 196.683 169.769 198.231 170.234 199.975C170.288 200.19 169.956 200.319 169.902 200.104Z" fill="#2B244A"/>
<path d="M199.955 198.381C200.794 197.979 201.207 199.226 201.486 199.794C201.882 200.571 202.196 201.167 202.59 202.227C202.462 202.807 202.496 202.835 202.334 203.387C201.48 201.84 198.818 198.94 199.955 198.381Z" fill="#2B244A"/>
<path d="M170.02 208.46C171.827 207.989 174.461 208.815 175.771 209.307C178.322 210.236 180.663 211.565 182.871 213.127C187.925 216.941 191.444 219.908 192.412 224.966C192.492 225.43 194.371 227.751 194.781 228.368C195.568 229.576 196.292 230.79 197.023 232.067C198.417 234.564 199.664 237.17 200.759 239.825C202.928 245.229 204.232 250.787 205.023 256.556C206.558 267.941 206.157 279.466 208.654 290.72C209.714 295.454 211.176 300.114 213.213 304.558C214.801 308.01 218.878 315.417 218.878 315.417C220.125 318.024 219.824 321.768 219.084 324.928C218.45 327.889 216.121 333.008 213.645 331.285C206.54 326.207 201.282 320.747 196.173 313.699C190.179 314.136 184.181 313.944 178.331 312.447C170.052 310.292 162.44 305.487 158.247 297.871C154.095 290.345 152.924 280.338 153.429 271.917C154.002 262.639 155.425 253.367 157.371 244.293C159.324 235.28 162.86 222.138 168.165 212.996C168.165 212.996 167.936 211.1 168.268 210.059C168.585 209.177 169.224 208.669 170.02 208.46Z" fill="#373349"/>
<path d="M216.629 311.657C214.436 307.828 212.693 303.794 211.041 299.719C210.925 299.511 211.292 299.41 211.373 299.59C213.054 303.631 214.762 307.636 216.955 311.466C217.037 311.646 216.773 311.831 216.629 311.657Z" fill="#8D84B8"/>
<path d="M207.171 160.537C208.229 160.426 209.32 160.627 210.194 161.165C211.57 161.997 213.189 164.848 211.267 166.024C209.845 166.864 208.108 166.196 206.92 165.062C206.389 164.803 205.853 164.481 205.427 164.022C204.864 163.452 204.076 162.528 204.523 161.694C204.999 160.827 206.362 160.621 207.171 160.537Z" fill="#373349"/>
<path d="M196.28 165.607C195.255 164.776 195.098 163.271 195.929 162.246C196.76 161.221 198.265 161.064 199.29 161.895C200.315 162.726 200.472 164.231 199.641 165.256C198.81 166.281 197.305 166.438 196.28 165.607Z" fill="#E0785E"/>
<path d="M198.271 164.486C198.64 164.102 198.962 163.565 198.564 163.072C198.42 162.898 198.712 162.679 198.856 162.852C199.329 163.464 199.027 164.187 198.54 164.647C198.345 164.888 198.07 164.665 198.271 164.486Z" fill="#2B244A"/>
<path d="M217.506 300.177C218.937 300.027 221.354 299.366 222.865 299.68C224.342 299.966 225.337 301.058 226.076 302.113C228.583 305.626 230.61 309.379 232.756 313.056C233.44 314.18 234.13 315.366 234.198 316.617C234.313 318.021 233.174 318.863 231.553 318.403C230.449 318.078 229.618 317.347 228.793 316.678C227.831 315.898 224.214 311.997 223.085 311.423C221.818 310.737 220.789 310.53 219.594 310.529C219.745 309.569 220.324 308.785 221.156 308.321C220.409 305.379 219.176 302.613 217.506 300.177Z" fill="#F5E3D9"/>
<path d="M170.996 186.179C171.371 185.857 171.371 185.857 171.691 185.603C171.408 186.514 171.643 186.646 171.478 187.482C170.273 188.897 168.998 190.541 168.389 191.642C165.43 197.048 165.856 202.634 167.207 207.433C165.665 208.632 164.307 210.095 163.094 211.732C162.016 206.528 161.255 201.353 163.189 196.369C165.22 191.124 167.856 188.646 170.996 186.179Z" fill="#373349"/>
<path d="M179.201 178.59C176.604 179.333 173.866 180.531 172.495 183.065C171.516 184.835 171.634 186.867 171.649 188.816C171.64 189.038 171.301 189.104 171.275 188.855C171.269 186.685 171.166 184.494 172.319 182.58C173.765 180.164 176.413 179.007 179.009 178.264C179.286 178.204 179.415 178.536 179.201 178.59Z" fill="#2B244A"/>
<path d="M238.362 236.59C235.986 239.449 233.301 242.057 229.755 243.34C229.54 243.394 229.411 243.061 229.625 243.007C233.11 241.731 235.767 239.157 238.052 236.339C238.226 236.195 238.501 236.418 238.362 236.59Z" fill="#2B244A"/>
<path d="M248.052 264.615C247.071 262.452 246.062 260.324 244.963 258.236C244.847 258.028 245.18 257.899 245.296 258.107C246.367 260.229 247.438 262.351 248.384 264.486C248.5 264.694 248.168 264.823 248.052 264.615Z" fill="#2B244A"/>
<path d="M249.218 260.718C248.364 259.171 247.538 257.59 246.685 256.043C246.568 255.835 246.86 255.616 246.976 255.824C247.83 257.371 248.656 258.952 249.509 260.499C249.625 260.707 249.334 260.926 249.218 260.718Z" fill="#2B244A"/>
<path d="M130.095 238.867C128.617 239.776 127.145 240.748 125.708 241.747C125.535 241.891 125.315 241.6 125.489 241.456C126.926 240.456 128.37 239.519 129.848 238.61C130.084 238.459 130.303 238.751 130.095 238.867Z" fill="#2B244A"/>
<path d="M128.519 235.822C127.339 236.575 126.131 237.361 124.986 238.142C124.777 238.258 124.593 237.994 124.766 237.85C125.946 237.098 127.154 236.311 128.299 235.531C128.507 235.415 128.699 235.741 128.519 235.822Z" fill="#2B244A"/>
<path d="M195.945 313.628C189.45 305.057 183.29 296.074 179.161 286.06C177.277 281.57 175.843 276.875 174.962 272.059C174.116 267.271 173.927 262.446 174.18 257.638C174.502 251.69 175.233 245.73 176.515 239.934C176.586 239.706 176.938 239.764 176.867 239.991C175.784 244.981 175.059 250.09 174.68 255.194C174.287 260.175 174.241 265.15 174.982 270.138C176.511 280.265 180.622 289.809 185.907 298.537C189.059 303.714 192.564 308.664 196.209 313.443C196.381 313.582 196.089 313.802 195.945 313.628Z" fill="#8D84B8"/>
<path d="M192.122 224.902C188.547 221.091 184.714 217.528 180.108 214.989C176.568 213.03 172.19 211.474 168.329 213.356C168.12 213.472 167.991 213.139 168.199 213.023C171.971 211.182 176.392 212.545 179.862 214.448C184.697 217.058 188.701 220.761 192.448 224.711C192.558 224.857 192.266 225.076 192.122 224.902Z" fill="#8D84B8"/>
<path d="M232.785 318.149C233.916 316.332 231.795 314.099 230.858 312.656C229.962 311.302 229.093 309.914 228.197 308.561C226.363 305.764 224.558 302.932 222.724 300.135C222.608 299.927 222.872 299.742 223.016 299.916C225.266 303.393 227.51 306.808 229.761 310.285C230.815 311.937 232.02 313.541 232.956 315.268C233.502 316.281 233.709 317.36 233.06 318.372C232.955 318.571 232.68 318.348 232.785 318.149Z" fill="#2B244A"/>
<path d="M223.769 302.008C223.097 302.204 222.264 301.756 221.699 301.469C220.997 301.071 220.475 300.591 220.12 299.904C220.004 299.696 220.337 299.567 220.453 299.775C220.732 300.343 221.186 300.768 221.723 301.089C222.191 301.355 223.093 301.859 223.64 301.676C223.855 301.622 223.984 301.954 223.769 302.008Z" fill="#2B244A"/>
<path d="M193.278 168.185C192.549 168.733 191.579 169.086 190.8 168.853L191.264 167.578C191.885 167.796 192.52 167.856 193.183 167.881C193.342 167.896 193.396 168.11 193.278 168.185Z" fill="#2B244A"/>
<path d="M196.522 157.371C196 157.803 196.668 158.173 196.753 158.982C196.831 159.729 197.063 160.146 197.458 160.01C197.881 159.84 198.142 159.026 197.761 158.091C197.386 157.218 196.931 157.076 196.522 157.371Z" fill="#2B244A"/>
<path d="M195.973 158.749C196.302 159.187 195.587 159.576 195.283 159.671C195.068 159.724 194.819 159.75 194.675 159.577C194.456 159.285 194.866 158.991 195.102 158.84C195.338 158.69 195.754 158.457 195.973 158.749Z" fill="#2B244A"/>
<path d="M191.251 161.13C191.425 160.986 191.599 160.842 191.745 160.733C191.964 161.024 192.252 161.372 192.705 161.796C191.986 161.84 191.379 161.746 190.855 161.549C190.96 161.349 191.105 161.24 191.251 161.13Z" fill="white"/>
<path d="M196.842 165.265C196.619 165.54 196.658 165.913 196.933 166.136C197.208 166.359 197.582 166.32 197.805 166.045C198.027 165.77 197.989 165.397 197.714 165.174C197.473 164.979 197.065 164.99 196.842 165.265Z" fill="#FFBE63"/>
<path d="M196.842 165.265C196.619 165.54 196.658 165.913 196.933 166.136C197.208 166.359 197.582 166.32 197.805 166.045C198.027 165.77 197.989 165.397 197.714 165.174C197.473 164.979 197.065 164.99 196.842 165.265Z" fill="#FFBE63"/>
<path d="M209.793 166.366C209.103 165.18 208.063 164.565 207.206 163.585C206.492 162.779 206.105 161.781 205.78 160.777C205.726 160.562 206.059 160.433 206.113 160.648C206.595 161.95 207.051 163.003 208.123 163.93C208.92 164.633 209.579 165.225 210.084 166.147C210.201 166.355 209.937 166.54 209.793 166.366Z" fill="#8D84B8"/>
<path d="M237.876 273.616C238.777 273.207 239.838 273.726 240.414 274.421C242.066 276.387 242.17 279.491 242.611 281.899C242.831 283.103 242.532 285.368 240.705 284.74C239.498 284.332 238.784 282.613 238.266 281.566C237.515 280.103 236.966 278.461 236.729 276.787C236.584 275.701 236.677 274.182 237.876 273.616Z" fill="#F576A6"/>
<path d="M158.807 184.954C158.547 185.322 158.182 185.596 157.769 185.654C157.414 185.69 156.992 185.551 156.686 185.366C154.611 184.153 152.101 179.452 154.43 177.485C155.841 176.272 157.646 177.657 158.455 178.888C159.416 180.43 159.81 183.027 158.956 184.729C158.938 184.77 158.902 184.851 158.807 184.954Z" fill="#F576A6"/>
<path d="M139.358 71.0283C138.946 71.6109 138.37 72.0443 137.716 72.1364C137.154 72.1931 136.486 71.9725 136.003 71.6809C132.72 69.7606 128.75 62.3247 132.433 59.213C134.665 57.2949 137.522 59.4851 138.8 61.4331C140.32 63.8715 140.944 67.9798 139.593 70.673C139.564 70.7369 139.507 70.8649 139.358 71.0283Z" fill="#F576A6"/>
<path d="M211.156 109.116C210.656 109.822 209.958 110.347 209.165 110.459C208.484 110.528 207.674 110.26 207.089 109.907C203.108 107.579 198.295 98.5632 202.76 94.7906C205.467 92.4651 208.93 95.1205 210.48 97.4822C212.323 100.439 213.079 105.42 211.441 108.685C211.406 108.762 211.337 108.917 211.156 109.116Z" fill="#FFBE63"/>
</g>
<path d="M268.421 88.9542C270.687 82.1633 267.107 74.807 260.365 72.3993L133.708 27.1669C127.007 24.7738 119.618 28.1418 117.028 34.7694L37.8405 237.444C35.1598 244.305 38.6336 252.03 45.5451 254.578L182.069 304.899C189.037 307.468 196.749 303.764 199.1 296.718L268.421 88.9542Z" stroke="white" stroke-opacity="0.4" stroke-width="0.285235"/>
<path d="M140.046 100.814L141.24 101.241C141.677 101.396 142.094 101.475 142.491 101.476C142.887 101.477 143.251 101.41 143.58 101.275C143.905 101.143 144.187 100.948 144.428 100.691C144.673 100.435 144.859 100.127 144.988 99.7673C145.125 99.382 145.182 99.0074 145.159 98.6433C145.14 98.2805 145.048 97.9415 144.883 97.6262C144.714 97.3133 144.475 97.0315 144.167 96.7809C143.861 96.5267 143.489 96.3216 143.053 96.1657L140.312 95.1868L137.45 103.201L138.996 103.753L140.046 100.814ZM140.494 99.559L141.41 96.9941L142.605 97.4206C142.825 97.4993 143.003 97.6023 143.14 97.7296C143.276 97.857 143.378 98.0009 143.445 98.1613C143.508 98.3204 143.536 98.4899 143.53 98.6697C143.527 98.8508 143.493 99.0349 143.426 99.222C143.368 99.3835 143.285 99.5296 143.176 99.6604C143.072 99.7888 142.947 99.8909 142.8 99.9667C142.649 100.041 142.481 100.083 142.296 100.091C142.111 100.099 141.909 100.064 141.689 99.9856L140.494 99.559Z" fill="#F576A6"/>
<path d="M149.787 105.72L149.657 107.56L151.286 108.142L151.572 99.2082L150.169 98.7069L144.681 105.783L146.31 106.365L147.381 104.861L149.787 105.72ZM148.231 103.681L150.127 101.032L149.893 104.275L148.231 103.681Z" fill="#F576A6"/>
<path d="M160.75 103.901L161.198 102.646L156.007 100.792L153.145 108.806L155.6 109.683C156.063 109.848 156.499 109.934 156.911 109.94C157.326 109.948 157.702 109.885 158.039 109.753C158.372 109.62 158.662 109.421 158.909 109.158C159.158 108.891 159.35 108.567 159.486 108.185C159.62 107.811 159.674 107.445 159.648 107.088C159.623 106.732 159.522 106.4 159.346 106.093C159.167 105.785 158.912 105.506 158.584 105.256C158.26 105.004 157.867 104.795 157.405 104.63L156.502 104.308L157.111 102.601L160.75 103.901ZM156.058 105.552L156.96 105.874C157.203 105.96 157.4 106.068 157.553 106.197C157.71 106.324 157.83 106.464 157.912 106.617C157.988 106.773 158.027 106.936 158.029 107.106C158.034 107.277 158.005 107.449 157.944 107.622C157.88 107.801 157.789 107.961 157.673 108.102C157.56 108.244 157.423 108.354 157.263 108.433C157.098 108.511 156.914 108.553 156.709 108.558C156.508 108.565 156.287 108.525 156.044 108.439L155.142 108.117L156.058 105.552Z" fill="#F576A6"/>
<path d="M167.856 110.206L168.272 109.039C168.402 108.675 168.49 108.32 168.535 107.972C168.585 107.626 168.594 107.294 168.562 106.976C168.53 106.696 168.467 106.427 168.372 106.17C168.281 105.914 168.153 105.678 167.986 105.461C167.822 105.237 167.618 105.038 167.374 104.864C167.135 104.687 166.861 104.544 166.553 104.434C166.248 104.325 165.952 104.263 165.664 104.247C165.376 104.231 165.102 104.257 164.842 104.326C164.576 104.396 164.325 104.505 164.086 104.652C163.851 104.799 163.632 104.98 163.427 105.192C163.214 105.418 163.02 105.678 162.845 105.971C162.674 106.266 162.525 106.589 162.399 106.941L161.983 108.108C161.865 108.438 161.778 108.761 161.724 109.077C161.673 109.394 161.653 109.697 161.665 109.987C161.681 110.303 161.734 110.601 161.824 110.881C161.915 111.158 162.04 111.412 162.198 111.642C162.362 111.866 162.562 112.066 162.797 112.241C163.032 112.416 163.306 112.559 163.618 112.67C163.911 112.775 164.198 112.836 164.477 112.853C164.759 112.875 165.029 112.86 165.288 112.807C165.575 112.745 165.85 112.636 166.112 112.481C166.374 112.327 166.615 112.139 166.834 111.92C167.046 111.697 167.238 111.443 167.41 111.157C167.584 110.868 167.732 110.55 167.856 110.206ZM166.708 108.467L166.287 109.645C166.216 109.843 166.137 110.03 166.049 110.206C165.966 110.383 165.876 110.541 165.781 110.681C165.658 110.861 165.525 111.014 165.381 111.14C165.241 111.264 165.091 111.355 164.929 111.413C164.8 111.462 164.664 111.486 164.519 111.484C164.375 111.482 164.226 111.454 164.072 111.399C163.911 111.341 163.774 111.266 163.663 111.172C163.555 111.08 163.467 110.972 163.4 110.848C163.329 110.711 163.281 110.55 163.257 110.363C163.237 110.174 163.242 109.975 163.271 109.766C163.289 109.599 163.323 109.423 163.373 109.238C163.422 109.053 163.482 108.863 163.551 108.668L163.972 107.491C164.045 107.285 164.123 107.091 164.204 106.909C164.29 106.729 164.379 106.566 164.472 106.422C164.593 106.233 164.723 106.077 164.863 105.953C165.006 105.83 165.158 105.74 165.319 105.682C165.436 105.645 165.558 105.628 165.685 105.632C165.815 105.637 165.952 105.665 166.095 105.717C166.245 105.77 166.374 105.839 166.481 105.923C166.591 106.007 166.683 106.104 166.756 106.213C166.845 106.357 166.907 106.524 166.943 106.714C166.979 106.901 166.99 107.104 166.974 107.321C166.962 107.495 166.931 107.679 166.883 107.872C166.839 108.064 166.781 108.262 166.708 108.467Z" fill="#F576A6"/>
<path d="M177.24 108.375L175.688 107.821L174.361 111.536C174.148 111.518 173.931 111.484 173.709 111.433C173.492 111.381 173.312 111.329 173.169 111.278C172.989 111.213 172.84 111.138 172.723 111.05C172.606 110.959 172.523 110.844 172.473 110.706C172.422 110.572 172.405 110.409 172.424 110.217C172.447 110.027 172.506 109.798 172.601 109.53L173.492 107.036L171.945 106.484L171.055 108.977C170.891 109.436 170.81 109.854 170.812 110.231C170.819 110.606 170.898 110.94 171.049 111.234C171.197 111.527 171.412 111.782 171.695 111.999C171.982 112.213 172.324 112.391 172.721 112.533C172.856 112.581 173.035 112.63 173.257 112.681C173.484 112.729 173.704 112.762 173.917 112.78L172.826 115.835L174.378 116.389L177.24 108.375Z" fill="#F576A6"/>
<path d="M181.376 117.001L181.246 118.842L182.876 119.424L183.162 110.49L181.758 109.988L176.271 117.065L177.9 117.647L178.971 116.142L181.376 117.001ZM179.82 114.963L181.716 112.313L181.483 115.556L179.82 114.963Z" fill="#F576A6"/>
<path d="M188.202 121.326L189.755 121.88L192.617 113.866L190.03 112.942C189.578 112.781 189.153 112.687 188.753 112.66C188.354 112.629 187.993 112.668 187.669 112.776C187.341 112.882 187.057 113.058 186.816 113.303C186.576 113.548 186.387 113.863 186.249 114.248C186.136 114.564 186.083 114.865 186.088 115.153C186.096 115.441 186.159 115.716 186.277 115.978C186.341 116.112 186.417 116.245 186.507 116.376C186.602 116.505 186.708 116.63 186.826 116.751L183.799 119.753L185.456 120.345L188.09 117.73L189.329 118.172L188.202 121.326ZM187.762 114.894C187.828 114.711 187.912 114.557 188.014 114.432C188.118 114.304 188.242 114.207 188.385 114.142C188.537 114.076 188.712 114.048 188.912 114.057C189.112 114.063 189.336 114.109 189.582 114.197L190.616 114.567L189.751 116.989L188.717 116.619C188.474 116.533 188.273 116.432 188.111 116.316C187.955 116.198 187.837 116.065 187.757 115.917C187.688 115.776 187.652 115.62 187.651 115.45C187.653 115.282 187.69 115.096 187.762 114.894Z" fill="#F576A6"/>
<path d="M125.272 105.713L125.723 104.452L119.261 102.144L118.81 103.405L121.249 104.276L118.837 111.029L120.389 111.584L122.801 104.83L125.272 105.713Z" fill="#F576A6"/>
<path d="M131.054 111.433L131.491 110.211L128.199 109.035L128.921 107.015L132.751 108.384L133.202 107.123L127.818 105.201L124.956 113.215L130.356 115.143L130.802 113.894L126.955 112.52L127.763 110.257L131.054 111.433Z" fill="#F576A6"/>
<path d="M141.067 111.353L141.517 110.093L135.055 107.785L134.605 109.046L137.044 109.916L134.632 116.67L136.184 117.224L138.596 110.471L141.067 111.353Z" fill="#F576A6"/>
<path d="M143.359 116.472L144.553 116.899C144.99 117.055 145.406 117.133 145.803 117.135C146.2 117.136 146.563 117.069 146.893 116.934C147.217 116.802 147.5 116.607 147.741 116.349C147.985 116.093 148.172 115.785 148.3 115.426C148.438 115.041 148.495 114.666 148.472 114.302C148.452 113.939 148.36 113.6 148.196 113.285C148.026 112.972 147.788 112.69 147.48 112.439C147.174 112.185 146.802 111.98 146.365 111.824L143.624 110.845L140.762 118.859L142.309 119.412L143.359 116.472ZM143.807 115.218L144.723 112.653L145.917 113.079C146.137 113.158 146.316 113.261 146.452 113.388C146.589 113.516 146.69 113.659 146.757 113.82C146.82 113.979 146.849 114.148 146.843 114.328C146.84 114.509 146.805 114.693 146.738 114.881C146.681 115.042 146.598 115.188 146.489 115.319C146.385 115.447 146.26 115.549 146.113 115.625C145.962 115.7 145.794 115.741 145.609 115.749C145.424 115.758 145.221 115.723 145.001 115.644L143.807 115.218Z" fill="#F576A6"/>
<path d="M153.099 121.378L152.969 123.219L154.599 123.801L154.885 114.867L153.481 114.365L147.994 121.442L149.623 122.024L150.694 120.519L153.099 121.378ZM151.543 119.34L153.439 116.69L153.206 119.933L151.543 119.34Z" fill="#F576A6"/>
<path d="M161.192 128.377L162.56 125.241L161.971 125.031L164.389 118.261L160.432 116.848L159.04 120.05C158.966 120.234 158.893 120.409 158.822 120.574C158.754 120.74 158.686 120.895 158.618 121.041C158.477 121.342 158.343 121.607 158.216 121.834C158.09 122.062 157.965 122.256 157.842 122.414C157.66 122.656 157.479 122.833 157.298 122.946C157.117 123.06 156.926 123.13 156.726 123.158L156.429 123.052L155.523 126.353L156.827 126.818L157.531 124.848L160.564 125.931L159.86 127.902L161.192 128.377ZM160.592 120.604L161.448 118.625L162.4 118.966L160.43 124.481L158.696 123.862C158.849 123.713 159.002 123.54 159.155 123.343C159.31 123.141 159.465 122.907 159.623 122.641C159.708 122.493 159.796 122.335 159.886 122.164C159.976 121.993 160.066 121.812 160.155 121.621C160.226 121.468 160.297 121.307 160.37 121.139C160.443 120.97 160.517 120.792 160.592 120.604Z" fill="#F576A6"/>
<path d="M167.712 122.787L168.769 119.825L167.217 119.271L164.355 127.285L166.81 128.162C167.272 128.327 167.709 128.413 168.121 128.419C168.536 128.426 168.912 128.364 169.249 128.232C169.582 128.099 169.872 127.9 170.119 127.637C170.368 127.37 170.56 127.045 170.696 126.664C170.83 126.289 170.884 125.924 170.858 125.567C170.833 125.211 170.732 124.879 170.556 124.572C170.376 124.264 170.122 123.985 169.794 123.735C169.47 123.483 169.077 123.274 168.615 123.109L167.712 122.787ZM167.268 124.03L168.17 124.353C168.413 124.439 168.61 124.547 168.762 124.676C168.92 124.803 169.04 124.943 169.121 125.096C169.198 125.252 169.237 125.414 169.239 125.585C169.244 125.756 169.215 125.928 169.154 126.1C169.089 126.28 168.999 126.44 168.883 126.581C168.77 126.723 168.633 126.833 168.473 126.912C168.308 126.99 168.124 127.032 167.919 127.037C167.718 127.044 167.497 127.004 167.254 126.918L166.352 126.595L167.268 124.03Z" fill="#F576A6"/>
<path d="M184.884 136.838L186.253 133.703L185.664 133.492L188.081 126.722L184.124 125.309L182.732 128.511C182.658 128.695 182.585 128.87 182.514 129.035C182.446 129.201 182.378 129.357 182.31 129.502C182.169 129.803 182.035 130.068 181.909 130.296C181.782 130.523 181.657 130.717 181.534 130.875C181.352 131.117 181.171 131.294 180.99 131.407C180.809 131.521 180.618 131.591 180.418 131.619L180.121 131.513L179.215 134.814L180.52 135.28L181.223 133.309L184.256 134.392L183.552 136.363L184.884 136.838ZM184.284 129.065L185.14 127.087L186.092 127.427L184.122 132.942L182.389 132.323C182.541 132.174 182.694 132.001 182.847 131.804C183.002 131.602 183.158 131.368 183.315 131.102C183.401 130.955 183.488 130.796 183.578 130.625C183.668 130.454 183.758 130.273 183.847 130.082C183.918 129.929 183.99 129.769 184.062 129.6C184.135 129.431 184.209 129.253 184.284 129.065Z" fill="#F576A6"/>
<path d="M196.259 129.643L191.509 127.946L189.978 132.129C189.913 132.3 189.851 132.462 189.793 132.615C189.735 132.764 189.679 132.903 189.625 133.033C189.53 133.263 189.44 133.463 189.355 133.631C189.27 133.8 189.187 133.94 189.106 134.051C188.973 134.227 188.828 134.343 188.671 134.399C188.515 134.455 188.347 134.45 188.167 134.386L187.985 134.321L187.541 135.565L187.926 135.703C188.293 135.834 188.639 135.881 188.962 135.843C189.286 135.806 189.594 135.667 189.886 135.428C190.025 135.317 190.161 135.181 190.292 135.021C190.428 134.863 190.559 134.68 190.687 134.473C190.764 134.348 190.841 134.214 190.917 134.071C190.993 133.929 191.068 133.776 191.143 133.612C191.205 133.473 191.268 133.326 191.332 133.17C191.395 133.015 191.46 132.852 191.525 132.681L192.602 129.752L194.259 130.343L191.845 137.102L193.397 137.657L196.259 129.643Z" fill="#F576A6"/>
<path d="M199.412 139.805L200.965 140.359L203.827 132.345L201.24 131.421C200.788 131.26 200.363 131.166 199.963 131.139C199.564 131.108 199.203 131.147 198.879 131.255C198.551 131.361 198.267 131.537 198.026 131.782C197.786 132.027 197.597 132.342 197.459 132.727C197.346 133.043 197.293 133.344 197.298 133.632C197.306 133.92 197.369 134.195 197.487 134.456C197.551 134.591 197.627 134.724 197.717 134.855C197.812 134.984 197.918 135.109 198.036 135.23L195.009 138.232L196.666 138.824L199.3 136.209L200.539 136.651L199.412 139.805ZM198.972 133.373C199.038 133.19 199.122 133.036 199.224 132.911C199.328 132.782 199.452 132.686 199.595 132.621C199.746 132.555 199.922 132.527 200.122 132.536C200.322 132.542 200.546 132.588 200.791 132.676L201.826 133.046L200.961 135.468L199.927 135.098C199.684 135.011 199.483 134.91 199.321 134.795C199.165 134.677 199.047 134.544 198.967 134.395C198.898 134.255 198.862 134.099 198.861 133.929C198.863 133.76 198.9 133.575 198.972 133.373Z" fill="#F576A6"/>
<path d="M130.933 126.324L131.35 125.157C131.48 124.794 131.567 124.438 131.613 124.09C131.662 123.744 131.671 123.412 131.64 123.094C131.608 122.814 131.544 122.545 131.45 122.288C131.359 122.032 131.23 121.796 131.064 121.579C130.9 121.355 130.696 121.156 130.452 120.982C130.213 120.806 129.939 120.662 129.631 120.552C129.326 120.444 129.03 120.381 128.742 120.365C128.454 120.349 128.18 120.375 127.919 120.444C127.654 120.515 127.402 120.623 127.164 120.77C126.929 120.918 126.709 121.098 126.505 121.31C126.292 121.536 126.098 121.796 125.923 122.089C125.752 122.384 125.603 122.707 125.477 123.059L125.06 124.226C124.942 124.557 124.856 124.88 124.801 125.195C124.75 125.512 124.731 125.815 124.743 126.105C124.759 126.421 124.811 126.719 124.902 127C124.993 127.276 125.118 127.53 125.276 127.76C125.44 127.984 125.639 128.184 125.875 128.359C126.11 128.534 126.384 128.677 126.696 128.788C126.989 128.893 127.276 128.954 127.555 128.971C127.837 128.993 128.107 128.978 128.366 128.926C128.653 128.863 128.928 128.754 129.19 128.599C129.452 128.445 129.692 128.258 129.912 128.038C130.123 127.816 130.315 127.562 130.488 127.276C130.662 126.986 130.81 126.669 130.933 126.324ZM129.785 124.586L129.365 125.764C129.294 125.962 129.215 126.149 129.127 126.324C129.043 126.501 128.954 126.659 128.858 126.799C128.736 126.979 128.603 127.132 128.458 127.258C128.319 127.382 128.169 127.473 128.007 127.532C127.878 127.581 127.741 127.604 127.597 127.602C127.453 127.6 127.304 127.572 127.15 127.517C126.988 127.459 126.852 127.384 126.74 127.29C126.633 127.198 126.545 127.09 126.477 126.967C126.406 126.83 126.359 126.668 126.334 126.481C126.315 126.292 126.32 126.093 126.349 125.884C126.367 125.717 126.401 125.541 126.451 125.356C126.5 125.171 126.56 124.981 126.629 124.787L127.05 123.609C127.123 123.403 127.201 123.21 127.282 123.028C127.367 122.847 127.456 122.684 127.549 122.54C127.671 122.351 127.801 122.195 127.94 122.071C128.083 121.948 128.236 121.858 128.397 121.8C128.514 121.763 128.635 121.746 128.762 121.75C128.893 121.755 129.03 121.784 129.173 121.835C129.323 121.888 129.452 121.957 129.558 122.041C129.669 122.126 129.76 122.223 129.833 122.331C129.923 122.475 129.985 122.642 130.02 122.833C130.057 123.019 130.068 123.222 130.052 123.44C130.04 123.613 130.009 123.797 129.961 123.99C129.917 124.182 129.859 124.38 129.785 124.586Z" fill="#F576A6"/>
<path d="M139.622 125.66L140.07 124.405L134.88 122.551L132.018 130.565L134.473 131.442C134.935 131.607 135.372 131.693 135.783 131.699C136.199 131.706 136.575 131.644 136.911 131.512C137.245 131.379 137.535 131.18 137.782 130.917C138.03 130.65 138.223 130.325 138.359 129.944C138.493 129.57 138.547 129.204 138.521 128.847C138.495 128.491 138.394 128.159 138.219 127.852C138.039 127.544 137.785 127.265 137.456 127.015C137.133 126.763 136.739 126.554 136.277 126.389L135.374 126.067L135.984 124.36L139.622 125.66ZM134.93 127.311L135.833 127.633C136.075 127.719 136.272 127.827 136.425 127.956C136.583 128.083 136.702 128.223 136.784 128.376C136.861 128.532 136.9 128.694 136.901 128.865C136.906 129.036 136.878 129.208 136.816 129.38C136.752 129.56 136.662 129.72 136.545 129.861C136.433 130.003 136.296 130.113 136.135 130.192C135.971 130.27 135.786 130.312 135.582 130.317C135.381 130.324 135.159 130.284 134.917 130.198L134.014 129.875L134.93 127.311Z" fill="#F576A6"/>
<path d="M139.739 133.254C139.852 133.332 140 133.426 140.184 133.537C140.37 133.653 140.593 133.758 140.854 133.851C141.177 133.966 141.473 134.022 141.743 134.02C142.013 134.017 142.265 133.972 142.498 133.886C142.728 133.798 142.941 133.678 143.136 133.524C143.335 133.372 143.521 133.205 143.694 133.022L148.865 127.545L147.181 126.944L144.312 130.214L143.996 130.579L143.994 129.002L143.74 125.715L142.067 125.118L142.799 131.896L142.523 132.182C142.441 132.285 142.35 132.372 142.25 132.444C142.155 132.514 142.047 132.564 141.928 132.596C141.809 132.628 141.677 132.639 141.532 132.629C141.387 132.618 141.226 132.581 141.05 132.518C140.911 132.469 140.766 132.398 140.617 132.308C140.471 132.218 140.355 132.142 140.27 132.079L139.739 133.254Z" fill="#F576A6"/>
<path d="M156.113 130.134L154.561 129.579L153.234 133.295C153.021 133.277 152.803 133.243 152.581 133.192C152.364 133.14 152.184 133.088 152.041 133.037C151.861 132.972 151.713 132.896 151.595 132.809C151.479 132.718 151.395 132.603 151.345 132.465C151.294 132.331 151.278 132.168 151.297 131.976C151.319 131.786 151.378 131.556 151.474 131.289L152.364 128.795L150.818 128.243L149.927 130.736C149.763 131.195 149.682 131.613 149.684 131.99C149.691 132.365 149.77 132.699 149.922 132.993C150.07 133.286 150.285 133.541 150.567 133.758C150.855 133.972 151.197 134.15 151.593 134.291C151.729 134.34 151.908 134.389 152.13 134.44C152.357 134.488 152.577 134.521 152.789 134.539L151.698 137.594L153.251 138.148L156.113 130.134Z" fill="#F576A6"/>
<path d="M161.896 137.276L162.332 136.054L159.041 134.878L159.762 132.858L163.593 134.226L164.043 132.966L158.66 131.044L155.798 139.058L161.198 140.986L161.644 139.736L157.796 138.362L158.604 136.1L161.896 137.276Z" fill="#F576A6"/>
<path d="M168.897 143.735L171.759 135.721L170.229 135.175L169.055 138.461L166.787 137.651L167.961 134.365L166.425 133.817L163.563 141.831L165.099 142.379L166.339 138.906L168.607 139.716L167.367 143.189L168.897 143.735Z" fill="#F576A6"/>
<path d="M178.076 137.978L173.975 142.285L175.803 137.166L174.257 136.613L171.395 144.628L172.941 145.18L177.041 140.878L175.214 145.992L176.767 146.546L179.629 138.532L178.076 137.978Z" fill="#F576A6"/>
<path d="M182.87 148.726L184.422 149.28L187.284 141.266L184.697 140.342C184.246 140.181 183.82 140.087 183.42 140.06C183.021 140.029 182.66 140.068 182.336 140.175C182.008 140.282 181.724 140.457 181.484 140.703C181.243 140.948 181.054 141.263 180.916 141.648C180.804 141.964 180.75 142.265 180.755 142.552C180.763 142.841 180.827 143.116 180.944 143.377C181.008 143.512 181.085 143.644 181.174 143.776C181.269 143.905 181.375 144.03 181.494 144.15L178.466 147.153L180.123 147.745L182.758 145.129L183.996 145.572L182.87 148.726ZM182.43 142.294C182.495 142.111 182.579 141.956 182.682 141.832C182.785 141.703 182.909 141.607 183.052 141.542C183.204 141.476 183.379 141.448 183.579 141.457C183.78 141.462 184.003 141.509 184.249 141.597L185.284 141.966L184.419 144.388L183.384 144.019C183.142 143.932 182.94 143.831 182.778 143.716C182.622 143.598 182.504 143.465 182.425 143.316C182.355 143.175 182.319 143.02 182.318 142.85C182.32 142.681 182.358 142.496 182.43 142.294Z" fill="#F576A6"/>
</svg>
