<svg width="138" height="137" viewBox="0 0 138 137" fill="none" xmlns="http://www.w3.org/2000/svg">
<circle cx="70.1418" cy="68.1417" r="50" fill="#F576A6"/>
<path fill-rule="evenodd" clip-rule="evenodd" d="M63.3233 6.92846L63.1197 4.34444L61.5884 4.46509L60.4203 7.1572L59.486 7.23081L60.8038 4.28387C59.9204 4.01414 59.4445 3.4448 59.376 2.57586C59.3262 1.9439 59.4942 1.43695 59.8798 1.05499C60.2683 0.669762 60.8317 0.44806 61.57 0.389889L63.68 0.223634L64.2029 6.85916L63.3233 6.92846ZM60.251 2.50692C60.2826 2.90796 60.4326 3.2202 60.7009 3.44363C60.9722 3.66682 61.3313 3.76234 61.7781 3.73019L63.0633 3.62893L62.8572 1.013L61.6131 1.11103C61.1391 1.14837 60.7849 1.2894 60.5504 1.5341C60.319 1.77856 60.2192 2.10283 60.251 2.50692ZM47.4437 10.4099L45.0558 4.19685L41.2282 5.66798L42.258 8.72981C42.4924 9.43312 42.6366 9.96541 42.6906 10.3267C42.7445 10.6879 42.7299 10.9727 42.6467 11.181C42.5624 11.3864 42.3918 11.55 42.1349 11.6716L41.9675 11.7457L42.225 12.4156L42.4938 12.3123C42.9013 12.1492 43.1902 11.9239 43.3605 11.6364C43.5297 11.3461 43.597 10.9692 43.5626 10.5058C43.531 10.0412 43.378 9.38825 43.1036 8.54687L42.2682 6.04207L44.4957 5.18596L46.6244 10.7247L47.4437 10.4099ZM33.5152 19.5324L32.8229 20.0644L31.8284 18.7704L28.0405 21.6814L29.0378 22.9791L28.3418 23.5139L26.9036 21.65L27.335 21.3185C27.3653 20.8877 27.2816 20.4063 27.0839 19.874C26.8868 19.3374 26.6074 18.7988 26.2457 18.2581L24.6262 15.9107L27.7834 13.4844L31.4019 18.193L32.0906 17.6637L33.5152 19.5324ZM28.1288 20.7084L30.7023 18.7306L27.5239 14.5948L25.7369 15.9681L26.8531 17.578C27.2878 18.2087 27.6042 18.788 27.8025 19.316C28.0031 19.8422 28.1119 20.3063 28.1288 20.7084ZM8.58301 43.5066L9.7873 40.8854L9.13511 40.5857L7.93083 43.2069L5.98674 42.3137L7.3666 39.3104L6.71027 39.0088L4.96396 42.8098L11.0122 45.5886L12.7776 41.7461L12.1255 41.4465L10.7265 44.4914L8.58301 43.5066ZM1.93025 55.7592L1.57128 57.8683L7.42097 58.8639L7.27447 59.7247L1.42479 58.7291L1.06659 60.8337L0.354535 60.7125L1.21819 55.638L1.93025 55.7592ZM0.254577 74.724L0.347985 75.5967L5.79689 78.31L0.696808 78.8559L0.790703 79.7332L7.409 79.0248L7.3151 78.1475L1.86619 75.4342L6.96628 74.8884L6.87287 74.0156L0.254577 74.724ZM7.01507 99.0584L11.1367 94.906L5.28814 95.0637L4.83646 94.0188L10.9461 91.3776L11.2944 92.1833L8.91516 93.2119L6.31444 94.2465L12.1288 94.1136L12.3955 94.7304L8.32605 98.8652L10.8471 97.6808L13.2263 96.6523L13.5746 97.4579L7.46494 100.099L7.01507 99.0584ZM21.3857 113.293L20.9071 112.764L21.8875 109.324L21.1543 108.514L20.0512 112.534L16.3361 113.109L17.0294 113.875L20.3587 113.248L20.8434 113.784L18.7014 115.722L19.2904 116.373L21.4324 114.434L21.9386 114.994L20.9838 118.244L21.6802 119.013L22.6254 115.371L26.7316 114.676L25.9953 113.862L22.4809 114.503L21.9747 113.944L24.2252 111.906L23.6362 111.256L21.3857 113.293ZM37.0717 123.945L39.4909 125.332L40.8983 124.137L41.6835 124.587L36.1676 129.097L35.5014 128.715L36.6033 121.674L37.3846 122.122L37.0717 123.945ZM38.9016 125.827L36.9385 124.701L36.3734 127.966L38.9016 125.827ZM54.641 128.962L55.5022 129.154L54.8332 132.157L58.1083 132.886L58.7774 129.883L59.6341 130.074L58.1867 136.571L57.3299 136.38L57.9523 133.587L54.6771 132.857L54.0548 135.651L53.1936 135.459L54.641 128.962ZM95.2327 6.47533C95.3887 6.76807 95.3969 7.07682 95.2572 7.40157C95.1187 7.72353 94.9066 7.92753 94.6207 8.01358C94.3349 8.09963 93.9858 8.05894 93.5734 7.89151L92.8217 7.56814L92.5363 8.23165L93.2922 8.55682C94.1736 8.95259 94.4602 9.50883 94.1519 10.2255C94.0074 10.5615 93.7596 10.775 93.4085 10.8662C93.0602 10.9586 92.6663 10.9102 92.2268 10.7211C91.8348 10.5525 91.5572 10.307 91.394 9.98468C91.232 9.65951 91.2202 9.33595 91.3587 9.014L90.5524 8.66715C90.3946 9.0339 90.3509 9.39 90.4213 9.73545C90.4917 10.0809 90.6607 10.3975 90.9284 10.6852C91.2002 10.9713 91.539 11.2016 91.945 11.3762C92.6281 11.6701 93.2432 11.744 93.7905 11.5978C94.3377 11.4517 94.7294 11.1043 94.9654 10.5556C95.2725 9.84168 95.1181 9.20959 94.5022 8.65931C94.8707 8.65861 95.1918 8.57941 95.4653 8.42171C95.7389 8.26401 95.9365 8.04378 96.0581 7.76102C96.2929 7.2151 96.287 6.70826 96.0403 6.24052C95.7949 5.76998 95.3306 5.38778 94.6475 5.09392C94.2611 4.92772 93.8771 4.84876 93.4953 4.85705C93.1147 4.86254 92.7794 4.95552 92.4895 5.13601C92.2023 5.3177 91.9889 5.57092 91.8492 5.89568L92.6554 6.24253C92.7807 5.95137 93.0059 5.75959 93.3309 5.66719C93.66 5.57319 94.0037 5.60327 94.3621 5.75743C94.7904 5.94169 95.0806 6.18099 95.2327 6.47533ZM108.52 19.0653L106.354 17.3087L104.773 18.2633L104.07 17.6932L110.237 14.1248L110.834 14.6085L108.618 21.382L107.919 20.8147L108.52 19.0653ZM107.015 16.9147L108.772 18.3402L109.853 15.2081L107.015 16.9147ZM122.685 27.6667L124.568 30.265L125.153 29.8411L122.752 26.5284L117.362 30.435L117.88 31.1494L122.685 27.6667ZM127.774 42.7936L125.34 43.7241L125.026 42.9043L131.244 40.5274L132.12 42.8205C132.38 43.5008 132.41 44.0996 132.21 44.6166C132.011 45.1366 131.625 45.5059 131.053 45.7247C130.449 45.9554 129.911 45.944 129.439 45.6905C128.971 45.4388 128.602 44.9614 128.334 44.2583L127.774 42.7936ZM128.444 42.5373L129.007 44.0105C129.175 44.4489 129.406 44.7457 129.7 44.9007C129.997 45.0547 130.341 45.0572 130.731 44.9081C131.101 44.7666 131.352 44.5367 131.485 44.2184C131.618 43.9 131.611 43.5357 131.464 43.1254L130.882 41.6052L128.444 42.5373ZM136.934 63.1876L132.949 62.0093L136.641 59.9458L136.553 58.9669L131.849 61.6679L131.428 61.5315L131.181 61.439C130.86 61.3118 130.686 61.0889 130.657 60.7702L130.638 60.3542L129.943 60.3893C129.922 60.4586 129.922 60.6131 129.944 60.8529C129.968 61.1291 130.027 61.3548 130.119 61.5301C130.215 61.7081 130.342 61.8589 130.5 61.9823C130.661 62.1055 130.925 62.2301 131.291 62.3562L137.025 64.2029L136.934 63.1876ZM134.316 80.3838C134.665 80.4443 134.963 80.3647 135.212 80.145C135.463 79.9288 135.628 79.591 135.708 79.1316C135.775 78.7473 135.724 78.406 135.556 78.1077C135.391 77.8129 135.152 77.6384 134.84 77.5841L134.991 76.7193C135.339 76.7799 135.635 76.9288 135.878 77.166C136.121 77.4062 136.289 77.7107 136.383 78.0796C136.479 78.4491 136.492 78.841 136.42 79.2554C136.292 79.988 136.028 80.5283 135.627 80.8762C135.23 81.2246 134.738 81.348 134.152 81.2462C133.849 81.1934 133.589 81.0523 133.372 80.8228C133.155 80.5933 133.004 80.2994 132.918 79.9411C132.525 80.6678 131.946 80.9647 131.181 80.8316C130.592 80.7292 130.163 80.4289 129.894 79.9304C129.625 79.432 129.554 78.8165 129.682 78.0838C129.757 77.6485 129.903 77.2654 130.118 76.9348C130.336 76.6076 130.605 76.3697 130.924 76.2211C131.244 76.0726 131.6 76.0325 131.994 76.1009L131.843 76.9656C131.498 76.9056 131.186 76.9921 130.907 77.2251C130.632 77.4587 130.457 77.7856 130.384 78.206C130.302 78.6774 130.347 79.0718 130.517 79.3892C130.687 79.7095 130.953 79.901 131.313 79.9637C132.082 80.0973 132.556 79.6895 132.737 78.7403L132.878 77.9296L133.589 78.0533L133.449 78.8595C133.382 79.2995 133.423 79.6485 133.573 79.9066C133.723 80.1647 133.971 80.3237 134.316 80.3838ZM128.368 94.0477L128.018 94.7773L124.28 95.6561L123.815 96.6247L128.087 95.6472L129.897 99.3349L130.37 98.3499L128.731 94.9824L129.027 94.3641L131.673 95.6337L132.053 94.8423L126.052 91.9631L125.672 92.7544L128.368 94.0477ZM119.191 114.891L118.602 115.541L113.667 111.075L114.256 110.424L118.059 113.866L116.455 107.994L117.047 107.34L121.982 111.806L121.39 112.46L117.587 109.018L119.191 114.891ZM94.247 127.728L92.1723 128.548L92.4261 129.19L94.5008 128.37L94.247 127.728Z" fill="white"/>
<path d="M72.2546 52.2235C72.2546 51.1189 71.3591 50.2235 70.2546 50.2235C69.15 50.2235 68.2546 51.1189 68.2546 52.2235L72.2546 52.2235ZM70.2546 87.2235L81.8016 67.2235L58.7076 67.2235L70.2546 87.2235ZM68.2546 52.2235L68.2546 69.2235L72.2546 69.2235L72.2546 52.2235L68.2546 52.2235Z" fill="white"/>
</svg>
