<svg width="988" height="1070" viewBox="0 0 988 1070" fill="none" xmlns="http://www.w3.org/2000/svg">
<path fill-rule="evenodd" clip-rule="evenodd" d="M1080.08 247.261C1017.36 187.176 849.405 109.204 764.687 108.382C679.436 107.556 645.567 202.933 579.968 253.439C519.461 300.024 549.858 288.659 523.231 360.65C496.618 432.604 568.38 506.697 588.826 583.176C611.462 667.847 577.623 779.039 649.276 832.125C721.021 885.281 816.141 821.775 902.665 815.696C976.463 810.51 1054.89 833.942 1118.46 799.158C1185.33 762.575 1233.56 697.352 1253.86 623.545C1273.76 551.23 1260.57 471.721 1227.96 401.116C1197.67 335.517 1132.75 297.718 1080.08 247.261Z" fill="#00B1AE"/>
<path d="M264.932 207.665C270.506 186.626 291.878 173.905 313.029 179.037L706.349 274.467C727.278 279.545 740.43 300.282 736.101 321.379L608.012 945.634C603.604 967.119 582.716 981.047 561.187 976.857L127.632 892.48C104.916 888.059 90.6803 865.342 96.6072 842.972L264.932 207.665Z" fill="#252234"/>
<mask id="mask0_3749_1718" style="mask-type:alpha" maskUnits="userSpaceOnUse" x="95" y="177" width="642" height="801">
<path d="M264.932 207.664C270.506 186.626 291.878 173.905 313.029 179.037L706.349 274.467C727.278 279.545 740.43 300.282 736.101 321.379L608.012 945.633C603.604 967.119 582.716 981.047 561.187 976.857L127.632 892.48C104.916 888.059 90.6804 865.342 96.6074 842.972L264.932 207.664Z" fill="#252234"/>
</mask>
<g mask="url(#mask0_3749_1718)">
<path d="M402.316 737.455C411.971 734.43 434.31 769.518 428.435 776.846C426.392 779.262 423.19 778.783 420.613 777.667C412.966 774.068 406.757 766.038 403.161 758.575C401.064 754.258 394.97 739.829 402.316 737.455Z" fill="#587EE0"/>
<path d="M646.001 735.282C653.153 740.883 657.137 750.139 657.684 759.066C658.431 763.044 657.739 767.038 653.745 769.521C647.039 773.733 640.193 765.951 636.812 760.896C632.717 754.742 627.729 744.833 630.446 737.235C633.207 730.3 641.158 731.499 646.001 735.282Z" fill="#587EE0"/>
<path d="M705.553 774.308C707.015 773.036 710.742 769.744 713.693 766.424C726.52 780.635 732.97 789.271 746.962 808.525C749.663 812.185 753.914 819.075 756.263 824.253C757.284 826.345 756.682 828.493 755.209 828.805C753.847 829.19 752.508 828.32 751.393 827.595C751.995 828.621 752.598 829.648 753.2 830.674C754.857 833.497 757.145 836.571 758.249 839.512C759.164 842.011 756.459 844.221 753.976 843.4C752.531 842.937 751.192 842.067 749.853 841.197C750.355 843.11 750.824 845.32 749.842 846.586C747.264 850.308 741.027 844.031 739.197 842.207C732.055 834.39 725.862 825.603 720.294 816.587C719.736 822.574 719.558 829.442 718.498 833.514C718.358 834.217 718.035 834.959 717.376 835.484C711.167 841.13 706.301 813.206 705.782 809.853C705.263 806.5 704.488 803.298 703.344 800.173C701.057 793.925 698.105 787.721 695.89 781.36C699.522 779.435 702.557 776.964 705.553 774.308Z" fill="#BE8273"/>
<path d="M364.408 797.325C365.501 796.131 366.634 795.121 367.878 794.184C367.95 794.072 367.95 794.072 368.023 793.961C383.109 783.449 396.661 771.147 408.606 757.166C408.751 756.942 409.119 756.864 409.415 756.898C409.671 756.747 409.856 756.708 410.263 756.814C417.616 760.641 418.754 769.635 424.501 774.958C424.574 774.846 424.758 774.807 424.83 774.695C425.489 774.171 426.571 775.192 425.729 775.755C425.656 775.867 425.472 775.906 425.399 776.018C425.516 776.57 424.897 777.278 424.412 776.804C421.706 779.014 419.67 781.658 417.895 784.632C415.831 788.052 414.509 791.796 413.187 795.539C411.903 799.467 410.804 803.356 409.41 807.211C407.909 811.474 406.146 815.407 403.68 819.201C403.317 819.759 402.955 820.317 402.441 820.618C400.796 821.929 398.675 820.551 398.028 818.861C397.721 817.867 397.599 816.835 397.66 815.764C397.699 812.774 398.368 810.034 398.815 807.15C398.982 805.671 399.222 804.081 399.389 802.603C396.427 804.963 393.464 807.323 390.541 809.867C386.591 813.014 382.724 817.008 378.361 819.569C376.492 820.735 374.021 820.875 372.849 818.526C371.717 816.361 374.144 812.383 376.325 809.516C374.311 810.905 372.185 812.221 370.02 813.354C368.112 814.336 364.414 816.852 362.539 814.364C360.664 811.876 363.911 808.589 365.406 807.022C367.627 804.338 370.182 801.872 372.776 799.59C371.454 800.159 370.204 800.617 369.25 801.108C367.671 801.827 365.139 803.038 363.683 801.616C362.45 800.338 363.314 798.519 364.408 797.325Z" fill="#BE8273"/>
<path d="M589.342 548.457C589.861 548.636 590.268 548.742 590.787 548.92C591.317 546.884 591.747 545.734 591.674 545.846C591.83 546.583 591.881 547.726 591.825 549.277C598.76 552.039 604.54 557.066 608.05 563.632C610.237 567.594 611.023 571.756 611.665 576.141C612.351 581.19 613.484 586.529 617.361 589.843C621.568 592.895 626.935 594.162 631.611 596.248C636.175 598.262 640.415 601.018 644.365 604.221C660.768 618.057 668.144 639.676 666.766 660.844C666.107 670.892 663.675 680.739 659.982 690.085C658.877 703.017 649.811 713.791 637.448 717.183C635.64 720.452 633.314 723.543 630.279 726.015C624.247 731.142 615.823 733.603 608.252 730.11C600.346 726.4 599.476 718.216 596.77 710.901C594.822 705.35 591.285 702.733 585.767 701.21C581.176 699.972 577.203 698.025 573.694 694.633C565.147 686.537 562.424 674.609 560.153 663.45C559.997 662.714 584.221 571.477 590.174 550.109C589.655 549.93 589.136 549.752 588.728 549.645C588.025 549.506 588.416 548.173 589.342 548.457Z" fill="#373349"/>
<g opacity="0.3">
<mask id="path-9-inside-1_3749_1718" fill="white">
<path d="M588.729 549.68C589.424 549.919 589.969 550.061 590.664 550.3C591.372 547.576 591.947 546.038 591.85 546.187C592.059 547.173 592.128 548.703 592.054 550.779C601.342 554.48 609.085 561.212 613.789 570.003C616.72 575.306 617.777 580.877 618.639 586.746C619.562 593.504 621.082 600.65 626.276 605.088C631.911 609.176 639.099 610.875 645.361 613.671C651.473 616.369 657.153 620.061 662.444 624.35C684.418 642.879 694.309 671.818 692.48 700.146C691.606 713.593 688.357 726.771 683.418 739.275C681.949 756.582 669.817 770.994 653.265 775.524C650.848 779.899 647.735 784.034 643.673 787.339C635.601 794.197 624.322 797.483 614.182 792.804C603.594 787.833 602.423 776.878 598.794 767.087C596.183 759.657 591.444 756.152 584.055 754.11C577.906 752.449 572.586 749.84 567.884 745.298C556.434 734.457 552.779 718.491 549.73 703.556C549.52 702.57 581.889 580.484 589.843 551.891C589.149 551.651 588.454 551.412 587.908 551.27C586.967 551.082 587.489 549.298 588.729 549.68Z"/>
</mask>
<path d="M588.729 549.68L589.023 548.724L589.039 548.729L589.055 548.734L588.729 549.68ZM590.664 550.3L591.632 550.552L591.36 551.598L590.339 551.246L590.664 550.3ZM591.85 546.187L590.872 546.395L590.785 545.99L591.011 545.642L591.85 546.187ZM592.054 550.779L591.684 551.708L591.03 551.447L591.055 550.744L592.054 550.779ZM613.789 570.003L612.914 570.487L612.907 570.475L613.789 570.003ZM618.639 586.746L619.628 586.601L619.63 586.611L618.639 586.746ZM626.276 605.088L625.689 605.898L625.657 605.875L625.627 605.849L626.276 605.088ZM645.361 613.671L644.957 614.585L644.953 614.584L645.361 613.671ZM662.444 624.35L663.074 623.573L663.081 623.579L663.089 623.586L662.444 624.35ZM692.48 700.146L693.478 700.211L693.478 700.211L692.48 700.146ZM683.418 739.275L682.422 739.19L682.434 739.044L682.488 738.907L683.418 739.275ZM653.265 775.524L652.39 775.041L652.594 774.671L653.001 774.56L653.265 775.524ZM643.673 787.339L643.025 786.577L643.033 786.57L643.042 786.564L643.673 787.339ZM614.182 792.804L613.763 793.712L613.757 793.709L614.182 792.804ZM598.794 767.087L597.856 767.435L597.853 767.427L597.851 767.419L598.794 767.087ZM584.055 754.11L584.316 753.144L584.321 753.146L584.055 754.11ZM567.884 745.298L568.572 744.571L568.579 744.578L567.884 745.298ZM549.73 703.556L550.708 703.348L550.71 703.356L549.73 703.556ZM589.843 551.891L590.169 550.945L591.059 551.252L590.807 552.159L589.843 551.891ZM587.908 551.27L588.103 550.289L588.132 550.295L588.16 550.302L587.908 551.27ZM589.055 548.734C589.384 548.848 589.679 548.939 589.991 549.034C590.299 549.129 590.624 549.229 590.99 549.355L590.339 551.246C590.009 551.132 589.714 551.042 589.403 550.946C589.094 550.851 588.769 550.751 588.404 550.625L589.055 548.734ZM589.696 550.049C590.055 548.667 590.381 547.585 590.604 546.869C590.723 546.488 590.794 546.267 590.85 546.088C590.878 545.998 590.884 545.973 590.882 545.98C590.882 545.983 590.876 546.007 590.871 546.042C590.868 546.06 590.863 546.095 590.861 546.141C590.86 546.171 590.855 546.285 590.891 546.426C590.914 546.517 591.063 547.025 591.643 547.154C592.123 547.259 592.451 546.983 592.48 546.96C592.568 546.89 592.622 546.822 592.639 546.8C592.663 546.77 592.68 546.745 592.688 546.732L591.011 545.642C591.023 545.624 591.042 545.596 591.068 545.562C591.088 545.537 591.144 545.467 591.233 545.396C591.264 545.372 591.594 545.094 592.075 545.201C592.656 545.329 592.805 545.838 592.829 545.932C592.866 546.074 592.861 546.191 592.86 546.224C592.858 546.274 592.852 546.314 592.849 546.336C592.842 546.381 592.834 546.419 592.829 546.439C592.812 546.511 592.784 546.603 592.76 546.679C592.713 546.832 592.615 547.137 592.514 547.463C592.297 548.159 591.981 549.209 591.632 550.552L589.696 550.049ZM592.828 545.979C593.064 547.091 593.127 548.724 593.053 550.815L591.055 550.744C591.128 548.683 591.054 547.254 590.872 546.395L592.828 545.979ZM592.424 549.85C601.921 553.635 609.851 560.523 614.671 569.531L612.907 570.475C608.32 561.901 600.762 555.326 591.684 551.708L592.424 549.85ZM614.664 569.519C617.689 574.992 618.764 580.718 619.628 586.601L617.65 586.891C616.789 581.035 615.751 575.62 612.914 570.487L614.664 569.519ZM619.63 586.611C620.555 593.388 622.051 600.163 626.926 604.328L625.627 605.849C620.113 601.137 618.568 593.62 617.648 586.881L619.63 586.611ZM626.864 604.279C629.576 606.247 632.687 607.657 635.948 608.933C639.163 610.191 642.614 611.349 645.769 612.758L644.953 614.584C641.846 613.196 638.572 612.107 635.219 610.795C631.912 609.501 628.611 608.017 625.689 605.898L626.864 604.279ZM645.765 612.756C651.975 615.498 657.73 619.242 663.074 623.573L661.815 625.127C656.576 620.881 650.971 617.241 644.957 614.585L645.765 612.756ZM663.089 623.586C685.347 642.355 695.324 671.626 693.478 700.211L691.482 700.082C693.295 672.011 683.488 643.404 661.8 625.114L663.089 623.586ZM693.478 700.211C692.596 713.776 689.32 727.055 684.348 739.642L682.488 738.907C687.394 726.486 690.616 713.411 691.482 700.081L693.478 700.211ZM684.415 739.359C682.91 757.087 670.484 771.848 653.529 776.489L653.001 774.56C669.151 770.139 680.988 756.077 682.422 739.19L684.415 739.359ZM654.141 776.008C651.677 780.465 648.489 784.709 644.304 788.115L643.042 786.564C646.981 783.358 650.018 779.333 652.39 775.041L654.141 776.008ZM644.32 788.101C636.048 795.129 624.359 798.602 613.763 793.712L614.601 791.896C624.286 796.365 635.154 793.264 643.025 786.577L644.32 788.101ZM613.757 793.709C608.181 791.091 605.1 786.888 602.967 782.165C601.906 779.815 601.074 777.325 600.287 774.839C599.495 772.336 598.752 769.853 597.856 767.435L599.732 766.74C600.65 769.217 601.415 771.775 602.194 774.235C602.978 776.712 603.781 779.107 604.79 781.341C606.797 785.786 609.595 789.545 614.607 791.898L613.757 793.709ZM597.851 767.419C596.594 763.844 594.849 761.269 592.57 759.341C590.282 757.405 587.398 756.071 583.788 755.073L584.321 753.146C588.101 754.19 591.281 755.63 593.862 757.814C596.453 760.007 598.382 762.9 599.737 766.756L597.851 767.419ZM583.794 755.075C577.52 753.38 572.038 750.702 567.189 746.017L568.579 744.578C573.133 748.978 578.291 751.517 584.316 753.144L583.794 755.075ZM567.197 746.024C555.484 734.935 551.79 718.648 548.75 703.756L550.71 703.356C553.768 718.335 557.384 733.979 568.572 744.571L567.197 746.024ZM548.752 703.764C548.726 703.644 548.729 703.544 548.729 703.516C548.73 703.472 548.734 703.434 548.736 703.408C548.742 703.355 548.75 703.302 548.758 703.256C548.774 703.161 548.797 703.043 548.826 702.908C548.884 702.635 548.972 702.253 549.086 701.773C549.315 700.811 549.657 699.43 550.098 697.684C550.979 694.192 552.258 689.228 553.823 683.212C556.953 671.179 561.228 654.93 565.758 637.82C574.818 603.602 584.901 565.926 588.88 551.623L590.807 552.159C586.831 566.448 576.752 604.112 567.692 638.332C563.162 655.441 558.887 671.686 555.758 683.715C554.194 689.73 552.916 694.689 552.037 698.174C551.597 699.917 551.257 701.288 551.031 702.236C550.918 702.711 550.835 703.074 550.782 703.323C550.756 703.449 550.739 703.535 550.73 703.588C550.725 703.616 550.725 703.622 550.726 703.614C550.726 703.61 550.728 703.59 550.729 703.562C550.729 703.549 550.732 703.461 550.708 703.348L548.752 703.764ZM589.518 552.836C588.81 552.592 588.156 552.368 587.656 552.237L588.16 550.302C588.751 550.456 589.487 550.71 590.169 550.945L589.518 552.836ZM587.713 552.25C587.109 552.13 586.691 551.718 586.518 551.212C586.362 550.753 586.419 550.275 586.571 549.892C586.728 549.499 587.02 549.112 587.458 548.868C587.916 548.612 588.465 548.552 589.023 548.724L588.435 550.636C588.396 550.624 588.385 550.627 588.395 550.626C588.406 550.625 588.42 550.621 588.433 550.614C588.453 550.603 588.441 550.602 588.43 550.631C588.415 550.669 588.44 550.649 588.411 550.566C588.395 550.517 588.358 550.449 588.291 550.388C588.221 550.325 588.149 550.298 588.103 550.289L587.713 552.25Z" fill="white" mask="url(#path-9-inside-1_3749_1718)"/>
</g>
<path d="M541.071 558.986C543.526 557.407 546.248 556.637 549.005 555.571C550.952 554.773 553.34 553.786 554.573 551.889C555.733 550.104 555.633 547.816 555.683 545.785C556.135 540.206 559.064 534.967 564.314 532.507C567.176 531.034 572.677 531.117 572.024 535.296C572.431 535.402 572.582 535.659 572.403 536.178C566.545 549.83 563.349 563.784 561.636 578.384C560.693 586.184 559.338 606.096 546.617 601.003C536.346 597.025 532.58 584.26 532.658 575.104C532.674 570.194 536.675 561.842 541.071 558.986Z" fill="#373349"/>
<path d="M548.915 566.941L544.19 585.933C544.19 585.933 552.475 587.35 568.515 585.871L572.867 569.653L548.915 566.941Z" fill="#BE8273"/>
<path d="M589.845 559.894C592.578 556.909 594.916 548.429 588.673 541.673C583.138 535.536 574.083 531.396 564.024 536.127C553.853 540.786 551.415 543.804 546.31 549.216C542.299 553.434 538.711 559.197 543.13 564.609C548.185 570.752 556.888 570.06 562.088 569.63C567.288 569.201 579.64 571.198 589.845 559.894Z" fill="#BE8273"/>
<path d="M567.589 534.794C569.502 531.117 575.338 531.419 577.782 532.055C581.559 533.081 585.397 536.211 587.908 539.43C589.933 542.175 591.518 545.11 592.918 548.084C594.24 550.689 595.05 553.596 594.787 556.441C594.458 559.878 592.561 561.82 590 563.806C587.769 565.53 585.392 567.477 585.984 570.719C586.374 572.56 587.39 574.172 588.076 576.047C588.723 577.737 589.074 579.394 588.723 580.912C588.762 581.096 588.69 581.207 588.617 581.319C588.438 581.838 588.187 582.468 587.825 583.026C587.68 583.249 587.423 583.4 587.127 583.366C583.378 587.914 577.157 589.426 571.924 586.976C562.16 585.392 573.263 578.323 566.395 568.621C561.864 563.136 564.225 556.575 570.546 554.176C570.44 551.409 566.066 553.01 567.923 550.885C574.044 543.911 564.771 540.106 567.589 534.794Z" fill="#373349"/>
<path d="M557.529 539.525C557.529 539.525 550.527 540.53 549.389 541.06C548.29 541.774 548.452 542.99 549.707 546.187C551.074 549.456 557.529 539.525 557.529 539.525Z" fill="#BE8273"/>
<path d="M630.571 963.661C639.202 963.081 644.786 960.838 647.102 959.962C649.763 960.263 656.174 959.192 668.732 956.721C669.837 956.486 671.014 956.14 672.303 955.867C675.662 959.002 678.691 962.4 681.062 966.322C684.711 972.186 687.133 980.426 685.258 987.462C678.485 985.916 673.492 988.226 660.726 988.818C660.436 989.264 657.039 985.944 656.737 985.431C656.626 985.359 646.293 972.928 639.313 969.503C635.453 967.628 631.558 966.049 628.211 963.873C629.059 963.79 629.834 963.818 630.571 963.661Z" fill="#E0785E"/>
<path d="M661.541 992.204C661.541 992.204 673.43 992.472 673.832 988.923C674.914 980.421 664.464 961.089 656.079 957.384C652.703 955.984 639.759 957.094 639.759 957.094L661.541 992.204Z" fill="#373349"/>
<path d="M496.449 667.44C496.449 667.44 501.035 661.85 510.749 662.291C520.351 662.659 535.197 672.785 544.219 680.395C553.129 687.932 565.085 703.481 565.085 703.481C564.393 713.825 564.957 724.191 566.519 734.73C555.02 726.78 541.474 720.515 528.53 715.276C517.997 710.969 506.319 706.712 494.899 708.654C493.297 694.756 493.727 680.909 496.226 667.295L496.449 667.44Z" fill="#BE8273"/>
<path d="M510.554 680.417C510.766 682.777 509.388 684.897 507.145 685.662C506.52 685.891 506.285 684.786 506.91 684.557C508.528 684.021 509.689 682.236 509.521 680.54C509.477 679.876 510.509 679.753 510.554 680.417Z" fill="#2B244A"/>
<path d="M489.999 614.36C498.39 605.846 508.087 598.498 518.352 592.472C518.866 592.171 519.418 592.054 520.004 591.641C543.42 580.036 570.434 579.5 595.407 587.478C617.913 592.901 627.454 610.213 636.939 629.076C648.086 651.243 652.885 660.71 664.032 682.876C676.156 696.947 692.559 723.482 702.189 738.947C705.838 744.811 709.18 752.856 710.809 759.629C713.665 764.026 716.634 768.494 719.563 772.779C719.864 773.292 719.284 774.185 719.284 774.185C715.216 783.129 707.389 789.31 697.971 792.078C697.787 792.117 696.939 792.201 696.677 791.871C693.43 788.808 690.222 785.93 686.975 782.867C646.442 766.838 630.752 722.355 608.692 688.651C604.106 681.543 598.895 674.664 593.176 668.566C592.205 677.142 590.275 685.728 584.11 692.038C580.026 696.368 573.956 698.136 568.187 697.244C568.466 699.012 568.678 701.372 568.17 702.153C567.227 703.604 565.715 703.732 564.566 703.303C564.566 703.303 552.721 687.826 543.7 680.216C534.79 672.679 519.943 662.553 510.23 662.112C500.74 661.816 496.187 667.111 495.93 667.262C494.463 677.578 493.872 687.034 493.599 698.444C493.041 698.081 490.703 697.038 488.834 695.03C466.417 716.331 464.716 757.288 433.216 768.876C431.358 771.002 429.427 773.239 427.681 775.438C426.37 776.966 424.959 779.382 422.972 779.996C418.671 781.486 413.164 774.573 411.066 771.94C408.182 768.319 405.95 763.694 406.965 758.957C407.557 755.849 409.297 753.171 411.261 750.638C411.06 749.238 411.049 748.278 411.021 745.879C410.943 739.162 415.105 732.026 418.029 726.307C422.179 718.212 444.92 680.295 450.075 672.853C467.382 637.436 474.166 630.417 489.999 614.36Z" fill="#EB5D19"/>
<path d="M431.904 770.405C423.279 768.291 415.864 759.185 411.205 752.189C410.793 751.603 411.746 751.112 412.159 751.698C416.667 758.438 423.859 767.398 432.262 769.367C432.965 769.507 432.607 770.545 431.904 770.405Z" fill="#2B244A"/>
<path d="M417.012 686.537C423.266 684.508 431.693 690.879 435.309 695.69C440.626 702.591 440.701 711.849 445.389 718.966C449.053 724.491 454.236 725.333 459.355 728.532C464.898 732.149 468.271 738.14 469.92 744.271C472.134 752.544 472.206 761.382 475.343 769.395C485.279 795.702 527.821 805.163 527.146 836.144C526.913 843.764 523.351 850.863 516.437 854.497C501.434 862.362 483.711 851.438 478.835 836.705C476.676 829.988 475.356 822.844 471.312 817.196C466.416 810.291 458.054 806.74 451.988 800.855C440.533 789.584 439.514 772.884 439.223 757.82C438.881 741.619 427.313 731.991 418.25 719.817C411.181 709.69 405.427 690.335 417.012 686.537Z" fill="#F576A6"/>
<path d="M98.8921 553.832C105.146 551.803 113.573 558.173 117.19 562.984C122.507 569.885 122.582 579.144 127.269 586.26C130.933 591.786 136.117 592.628 141.235 595.827C146.778 599.443 150.151 605.434 151.8 611.565C154.014 619.839 154.086 628.676 157.223 636.689C167.159 662.997 209.701 672.458 209.027 703.439C208.794 711.058 205.232 718.158 198.317 721.791C183.314 729.657 165.591 718.732 160.716 703.999C158.557 697.283 157.236 690.139 153.192 684.49C148.296 677.586 139.934 674.034 133.868 668.149C122.413 656.879 121.394 640.179 121.103 625.114C120.761 608.914 109.194 599.285 100.13 587.112C93.0618 576.984 87.307 557.629 98.8921 553.832Z" fill="#EB5D19"/>
<path d="M494.921 672.478C492.326 665.236 492.867 657.81 499.64 653.007C506.486 648.091 516.066 649.715 523.514 652.175C544.894 659.088 559.355 677.376 569.325 696.714C569.554 697.338 568.673 697.718 568.371 697.205C559.874 680.729 548.096 664.661 531.057 656.443C523.67 652.912 514.331 649.698 506.046 651.456C502.179 652.276 498.954 654.307 496.667 657.582C493.621 662.268 493.933 666.916 495.875 671.987C496.104 672.612 495.149 673.103 494.921 672.478Z" fill="#2B244A"/>
<path d="M584.266 657.854C586.648 656.387 588.277 659.986 589.293 661.598C590.721 663.796 591.848 665.481 593.36 668.527C593.159 670.302 593.271 670.374 592.958 672.076C589.918 667.718 581.041 659.885 584.266 657.854Z" fill="#2B244A"/>
<path d="M497.906 697.434C503.161 695.454 511.301 697.094 515.374 698.154C523.297 700.129 530.717 703.365 537.814 707.343C554.133 717.156 565.593 724.922 570.084 739.746C570.469 741.108 576.818 747.457 578.241 749.175C580.975 752.539 583.525 755.943 586.113 759.53C591.068 766.56 595.621 773.963 599.733 781.557C607.923 797.039 613.575 813.252 617.759 830.257C625.939 863.827 628.371 898.424 639.385 931.296C644.049 945.122 649.891 958.601 657.384 971.249C663.22 981.074 677.748 1001.95 677.748 1001.95C682.301 1009.35 682.58 1020.64 681.364 1030.33C680.399 1039.38 675.049 1055.43 667.098 1051.05C644.246 1038.1 626.799 1023.43 609.297 1003.96C591.505 1007.16 573.507 1008.47 555.536 1005.84C530.095 1002 505.814 990.03 490.873 968.573C476.082 947.372 469.426 917.808 468.282 892.461C467.071 864.532 468.404 836.351 471.366 808.595C474.368 781.022 480.8 740.601 493.788 711.583C493.788 711.583 492.505 705.987 493.169 702.768C493.838 700.029 495.59 698.31 497.906 697.434Z" fill="#373349"/>
<path d="M669.837 991.407C662.071 980.644 655.588 969.129 649.361 957.463C648.948 956.877 650.014 956.459 650.315 956.972C656.614 968.527 662.986 979.969 670.752 990.732C671.054 991.245 670.323 991.881 669.837 991.407Z" fill="#8D84B8"/>
<path d="M593.922 542.387C597.052 541.723 600.378 541.979 603.162 543.313C607.541 545.366 613.282 553.383 607.904 557.506C603.915 560.469 598.509 559.018 594.598 556C592.929 555.392 591.222 554.6 589.805 553.361C587.942 551.832 585.292 549.316 586.368 546.683C587.518 543.938 591.529 542.894 593.922 542.387Z" fill="#373349"/>
<path d="M562.947 560.983C559.619 558.82 558.675 554.369 560.838 551.041C563.001 547.713 567.452 546.769 570.78 548.932C574.108 551.095 575.052 555.546 572.889 558.874C570.726 562.202 566.275 563.146 562.947 560.983Z" fill="#E0785E"/>
<path d="M568.548 557.005C569.53 555.738 570.322 554.031 568.978 552.681C568.492 552.207 569.296 551.459 569.781 551.933C571.388 553.613 570.713 555.872 569.402 557.401C568.894 558.182 568.002 557.602 568.548 557.005Z" fill="#2B244A"/>
<path d="M668.844 956.792C673.078 955.894 680.097 953.155 684.717 953.618C689.225 954.008 692.544 956.96 695.089 959.883C703.692 969.602 710.939 980.186 718.516 990.507C720.915 993.654 723.353 996.985 723.95 1000.71C724.737 1004.87 721.596 1007.75 716.602 1006.88C713.199 1006.26 710.482 1004.33 707.804 1002.59C704.68 1000.56 692.634 990.033 689.074 988.672C685.069 987.02 681.928 986.725 678.351 987.099C678.502 984.181 679.986 981.653 682.329 980.002C679.166 971.438 674.607 963.554 668.844 956.792Z" fill="#F5E3D9"/>
<path d="M493.805 630.484C494.826 629.401 494.825 629.401 495.701 628.542C495.143 631.354 495.886 631.677 495.657 634.227C492.499 638.841 489.202 644.158 487.729 647.645C480.582 664.745 483.618 681.321 489.169 695.247C484.934 699.32 481.336 704.124 478.223 709.401C473.357 694.176 469.452 678.939 473.664 663.423C478.088 647.093 485.19 638.852 493.805 630.484Z" fill="#373349"/>
<path d="M515.954 605.198C508.422 608.239 500.611 612.686 497.308 620.698C494.937 626.299 495.93 632.341 496.589 638.166C496.633 638.83 495.64 639.137 495.484 638.4C494.781 631.912 493.782 625.39 496.627 619.303C500.192 611.62 507.747 607.324 515.279 604.283C516.088 604.016 516.579 604.97 515.954 605.198Z" fill="#2B244A"/>
<path d="M711.183 760.03C704.979 769.331 697.77 777.979 687.566 782.933C686.941 783.162 686.45 782.208 687.075 781.979C697.095 777.064 704.231 768.528 710.179 759.378C710.653 758.892 711.545 759.472 711.183 760.03Z" fill="#2B244A"/>
<path d="M748.999 840.801C745.384 834.641 741.696 828.593 737.751 822.696C737.338 822.11 738.293 821.62 738.705 822.205C742.577 828.214 746.449 834.223 749.953 840.31C750.366 840.896 749.412 841.386 748.999 840.801Z" fill="#2B244A"/>
<path d="M388.074 800.963C383.94 804.149 379.845 807.519 375.862 810.961C375.387 811.447 374.64 810.643 375.114 810.158C379.097 806.715 383.12 803.457 387.254 800.271C387.912 799.747 388.66 800.55 388.074 800.963Z" fill="#2B244A"/>
<path d="M382.401 792.354C379.109 794.976 375.744 797.71 372.564 800.405C371.979 800.818 371.342 800.087 371.817 799.602C375.108 796.979 378.473 794.246 381.653 791.551C382.239 791.138 382.914 792.053 382.401 792.354Z" fill="#2B244A"/>
<path d="M608.594 1003.82C586.467 980.232 565.21 955.304 549.705 926.655C542.653 913.817 536.884 900.226 532.733 886.1C528.693 872.046 526.607 857.674 525.848 843.213C524.938 825.32 525.245 807.266 527.253 789.524C527.393 788.821 528.464 788.882 528.324 789.585C526.656 804.85 526.099 820.36 526.573 835.748C526.969 850.767 528.398 865.663 532.186 880.348C539.953 910.157 555.257 937.406 573.813 961.848C584.872 976.337 596.917 990.04 609.325 1003.18C609.883 1003.55 609.08 1004.29 608.594 1003.82Z" fill="#8D84B8"/>
<path d="M569.197 739.646C557.302 729.375 544.716 719.924 530.137 713.781C518.934 709.039 505.349 705.764 494.391 712.61C493.805 713.023 493.314 712.069 493.9 711.656C504.601 704.961 518.253 707.644 529.233 712.241C544.515 718.523 557.659 728.337 570.112 738.971C570.486 739.373 569.683 740.12 569.197 739.646Z" fill="#8D84B8"/>
<path d="M720.206 1005.73C723.018 999.942 715.972 993.933 712.713 989.911C709.606 986.145 706.571 982.267 703.463 978.501C697.097 970.713 690.804 962.813 684.438 955.024C684.025 954.438 684.756 953.802 685.241 954.277C693.069 963.968 700.857 973.475 708.685 983.166C712.356 987.774 716.468 992.193 719.81 997.063C721.763 999.92 722.723 1003.08 721.099 1006.31C720.848 1006.94 719.955 1006.36 720.206 1005.73Z" fill="#2B244A"/>
<path d="M704.869 1001C706.911 989.314 690.229 983.233 681.487 980.566C680.856 980.315 681.141 979.389 681.844 979.528C690.993 982.301 708.049 988.784 705.94 1001.06C705.801 1001.77 704.73 1001.71 704.869 1001Z" fill="#2B244A"/>
<path d="M688.154 960.297C686.207 961.094 683.573 960.018 681.793 959.337C679.567 958.366 677.855 957.094 676.577 955.153C676.164 954.567 677.118 954.076 677.531 954.662C678.546 956.274 680.036 957.401 681.743 958.193C683.227 958.841 686.084 960.062 687.663 959.343C688.288 959.114 688.779 960.068 688.154 960.297Z" fill="#2B244A"/>
<path d="M554.779 569.642C552.77 571.511 549.981 572.872 547.576 572.42L548.564 568.459C550.489 568.917 552.408 568.894 554.399 568.76C554.879 568.755 555.108 569.38 554.779 569.642Z" fill="#2B244A"/>
<path d="M561.072 536.272C559.649 537.729 561.764 538.627 562.272 541.02C562.74 543.23 563.566 544.401 564.704 543.871C565.915 543.23 566.439 540.713 565.005 538.035C563.61 535.542 562.205 535.263 561.072 536.272Z" fill="#2B244A"/>
<path d="M559.867 540.568C560.988 541.774 558.974 543.163 558.093 543.542C557.468 543.771 556.731 543.927 556.246 543.453C555.498 542.649 556.631 541.64 557.289 541.115C557.948 540.591 559.119 539.765 559.867 540.568Z" fill="#2B244A"/>
<path d="M546.494 549.177C546.968 548.692 547.442 548.206 547.844 547.833C548.592 548.636 549.562 549.584 551.052 550.711C548.915 551.068 547.069 550.979 545.439 550.555C545.69 549.925 546.092 549.551 546.494 549.177Z" fill="white"/>
<path d="M564.52 559.783C563.94 560.676 564.174 561.781 565.067 562.361C565.96 562.941 567.064 562.707 567.644 561.814C568.225 560.921 567.99 559.817 567.098 559.236C566.317 558.729 565.101 558.891 564.52 559.783Z" fill="#FFBE63"/>
<path d="M564.52 559.783C563.94 560.676 564.174 561.781 565.067 562.361C565.96 562.941 567.064 562.707 567.644 561.814C568.225 560.921 567.99 559.817 567.098 559.236C566.317 558.729 565.101 558.891 564.52 559.783Z" fill="#FFBE63"/>
<path d="M603.602 558.996C601.164 555.666 597.861 554.154 594.988 551.492C592.6 549.305 591.127 546.443 589.838 543.542C589.61 542.917 590.564 542.426 590.793 543.051C592.645 546.795 594.341 549.802 597.839 552.234C600.445 554.087 602.604 555.649 604.406 558.249C604.819 558.835 604.088 559.471 603.602 558.996Z" fill="#8D84B8"/>
<path d="M721.399 870.929C723.966 869.423 727.302 870.639 729.244 872.536C734.806 877.897 736.095 887.148 738.171 894.211C739.209 897.743 739.03 904.611 733.367 903.311C729.629 902.468 726.951 897.553 725.071 894.585C722.365 890.445 720.206 885.708 718.967 880.776C718.191 877.574 717.991 872.999 721.399 870.929Z" fill="#F576A6"/>
<path d="M456.961 630.659C456.297 631.843 455.295 632.777 454.077 633.081C453.026 633.3 451.719 633.016 450.748 632.561C444.158 629.584 435.17 616.316 441.513 609.699C445.352 605.627 451.189 609.2 453.995 612.628C457.354 616.935 459.352 624.579 457.334 629.94C457.293 630.067 457.211 630.32 456.961 630.659Z" fill="#F576A6"/>
<path d="M362.885 296.036C361.834 297.909 360.249 299.386 358.322 299.868C356.66 300.214 354.593 299.765 353.055 299.045C342.631 294.336 328.413 273.347 338.447 262.879C344.52 256.438 353.754 262.089 358.192 267.512C363.507 274.327 366.668 286.418 363.474 294.899C363.409 295.1 363.28 295.5 362.885 296.036Z" fill="#F576A6"/>
<path d="M589.637 387.328C588.364 389.598 586.441 391.39 584.105 391.974C582.091 392.394 579.584 391.849 577.72 390.976C565.082 385.267 547.843 359.819 560.009 347.128C567.372 339.319 578.567 346.17 583.948 352.745C590.392 361.007 594.224 375.667 590.352 385.95C590.273 386.192 590.116 386.678 589.637 387.328Z" fill="#FFBE63"/>
</g>
<path d="M754.563 308.978C759.199 287.952 746.174 267.078 725.25 262.001L332.163 166.628C311.366 161.582 290.325 173.984 284.669 194.624L111.693 825.783C105.837 847.149 118.662 869.16 140.137 874.601L564.34 982.087C585.992 987.574 607.891 974.063 612.702 952.25L754.563 308.978Z" stroke="white" stroke-opacity="0.4" stroke-width="0.857863"/>
<path d="M374.33 384.909L378.037 385.809C379.393 386.137 380.664 386.241 381.851 386.119C383.038 385.997 384.103 385.683 385.046 385.176C385.975 384.678 386.759 384.006 387.398 383.16C388.049 382.317 388.51 381.337 388.781 380.221C389.071 379.025 389.124 377.887 388.94 376.805C388.768 375.726 388.386 374.741 387.794 373.85C387.188 372.967 386.386 372.2 385.386 371.547C384.39 370.884 383.214 370.387 381.859 370.058L373.352 367.994L367.317 392.867L372.117 394.031L374.33 384.909ZM375.275 381.014L377.207 373.054L380.914 373.953C381.597 374.119 382.163 374.371 382.612 374.709C383.06 375.047 383.41 375.445 383.66 375.904C383.899 376.36 384.038 376.858 384.076 377.397C384.125 377.94 384.079 378.502 383.938 379.082C383.816 379.584 383.614 380.047 383.33 380.472C383.06 380.889 382.717 381.234 382.301 381.507C381.873 381.777 381.384 381.954 380.833 382.037C380.283 382.121 379.666 382.079 378.982 381.914L375.275 381.014Z" fill="#F576A6"/>
<path d="M405.011 396.513L405.203 402.059L410.259 403.285L408.299 376.474L403.943 375.417L389.76 398.312L394.816 399.539L397.545 394.702L405.011 396.513ZM399.715 390.905L404.55 382.383L404.874 392.157L399.715 390.905Z" fill="#F576A6"/>
<path d="M437.228 387.617L438.173 383.722L422.064 379.813L416.029 404.685L423.648 406.534C425.083 406.882 426.417 407.001 427.65 406.89C428.894 406.782 429.999 406.477 430.965 405.976C431.919 405.472 432.724 404.787 433.381 403.921C434.04 403.044 434.513 402.013 434.8 400.829C435.082 399.667 435.128 398.557 434.939 397.498C434.75 396.439 434.344 395.479 433.721 394.616C433.087 393.751 432.239 392.996 431.177 392.353C430.129 391.701 428.888 391.2 427.453 390.852L424.652 390.173L425.936 384.877L437.228 387.617ZM423.715 394.033L426.516 394.713C427.268 394.895 427.892 395.155 428.389 395.493C428.9 395.822 429.302 396.203 429.595 396.636C429.874 397.077 430.042 397.552 430.1 398.06C430.169 398.572 430.138 399.095 430.008 399.63C429.873 400.188 429.653 400.695 429.349 401.152C429.057 401.612 428.683 401.985 428.227 402.273C427.76 402.558 427.222 402.74 426.611 402.821C426.012 402.905 425.337 402.856 424.585 402.673L421.783 401.994L423.715 394.033Z" fill="#F576A6"/>
<path d="M460.469 404.235L461.348 400.614C461.621 399.486 461.772 398.395 461.798 397.34C461.836 396.288 461.758 395.293 461.564 394.353C461.38 393.525 461.105 392.741 460.742 392.001C460.39 391.265 459.931 390.599 459.364 390.003C458.803 389.384 458.13 388.853 457.345 388.41C456.574 387.957 455.711 387.615 454.754 387.383C453.809 387.154 452.903 387.061 452.036 387.104C451.17 387.146 450.358 387.311 449.601 387.598C448.83 387.893 448.111 388.298 447.444 388.811C446.788 389.327 446.188 389.935 445.644 390.635C445.078 391.378 444.58 392.216 444.148 393.148C443.729 394.084 443.386 395.098 443.121 396.191L442.242 399.813C441.993 400.838 441.837 401.831 441.773 402.792C441.72 403.756 441.757 404.669 441.885 405.532C442.031 406.472 442.283 407.347 442.641 408.158C443.002 408.957 443.455 409.675 443.999 410.314C444.561 410.933 445.221 411.467 445.98 411.916C446.739 412.366 447.603 412.708 448.571 412.943C449.482 413.164 450.358 413.256 451.199 413.219C452.049 413.196 452.852 413.065 453.609 412.827C454.449 412.548 455.236 412.136 455.971 411.591C456.706 411.046 457.367 410.41 457.953 409.684C458.517 408.953 459.011 408.132 459.437 407.222C459.865 406.301 460.209 405.306 460.469 404.235ZM456.488 399.398L455.601 403.054C455.451 403.669 455.274 404.253 455.067 404.806C454.872 405.361 454.654 405.863 454.412 406.311C454.104 406.887 453.753 407.387 453.361 407.81C452.983 408.225 452.562 408.545 452.097 408.77C451.726 408.957 451.325 409.071 450.893 409.111C450.462 409.151 450.006 409.113 449.528 408.997C449.027 408.875 448.595 408.692 448.233 408.447C447.881 408.205 447.585 407.91 447.344 407.562C447.088 407.175 446.895 406.706 446.763 406.155C446.645 405.596 446.597 404.999 446.618 404.365C446.62 403.859 446.666 403.322 446.756 402.753C446.846 402.184 446.964 401.597 447.111 400.994L447.998 397.338C448.152 396.7 448.323 396.097 448.509 395.527C448.707 394.96 448.923 394.445 449.155 393.983C449.458 393.382 449.798 392.873 450.176 392.459C450.566 392.047 450.993 391.728 451.457 391.503C451.794 391.356 452.153 391.268 452.534 391.24C452.926 391.214 453.344 391.256 453.788 391.363C454.255 391.477 454.661 391.641 455.007 391.858C455.364 392.077 455.668 392.338 455.92 392.64C456.233 393.042 456.472 393.522 456.638 394.081C456.807 394.628 456.902 395.23 456.924 395.886C456.941 396.409 456.908 396.968 456.824 397.563C456.755 398.149 456.642 398.76 456.488 399.398Z" fill="#F576A6"/>
<path d="M487.962 395.802L483.144 394.633L480.347 406.164C479.704 406.177 479.043 406.143 478.363 406.062C477.698 405.973 477.143 405.875 476.699 405.767C476.141 405.632 475.672 405.452 475.292 405.227C474.915 404.991 474.63 404.674 474.437 404.278C474.241 403.893 474.141 403.41 474.137 402.83C474.145 402.253 474.249 401.549 474.451 400.718L476.328 392.979L471.528 391.815L469.651 399.553C469.305 400.977 469.195 402.252 469.319 403.38C469.458 404.499 469.8 405.474 470.346 406.306C470.88 407.135 471.604 407.829 472.517 408.388C473.445 408.939 474.524 409.363 475.754 409.662C476.175 409.764 476.726 409.855 477.406 409.936C478.1 410.008 478.768 410.037 479.41 410.024L477.11 419.505L481.927 420.674L487.962 395.802Z" fill="#F576A6"/>
<path d="M503.05 420.3L503.243 425.846L508.299 427.073L506.339 400.261L501.983 399.204L487.8 422.099L492.856 423.326L495.585 418.489L503.05 420.3ZM497.755 414.692L502.59 406.17L502.914 415.944L497.755 414.692Z" fill="#F576A6"/>
<path d="M524.831 431.084L529.649 432.253L535.683 407.38L527.655 405.432C526.254 405.093 524.951 404.945 523.746 404.991C522.544 405.025 521.476 405.254 520.541 405.678C519.594 406.1 518.8 406.715 518.157 407.524C517.515 408.332 517.049 409.335 516.759 410.53C516.521 411.51 516.455 412.428 516.56 413.286C516.677 414.146 516.953 414.949 517.387 415.693C517.62 416.075 517.891 416.449 518.201 416.813C518.524 417.169 518.882 417.509 519.274 417.833L511.165 427.768L516.307 429.016L523.363 420.363L527.206 421.295L524.831 431.084ZM521.488 411.986C521.626 411.416 521.829 410.929 522.096 410.523C522.366 410.106 522.705 409.779 523.113 409.54C523.546 409.295 524.062 409.155 524.662 409.12C525.264 409.073 525.947 409.142 526.71 409.327L529.921 410.106L528.097 417.623L524.886 416.844C524.134 416.661 523.499 416.423 522.979 416.128C522.474 415.824 522.079 415.463 521.795 415.045C521.542 414.646 521.387 414.192 521.33 413.683C521.283 413.178 521.336 412.612 521.488 411.986Z" fill="#F576A6"/>
<path d="M331.686 404.217L332.635 400.305L312.58 395.439L311.631 399.351L319.199 401.187L314.113 422.147L318.931 423.316L324.016 402.356L331.686 404.217Z" fill="#F576A6"/>
<path d="M350.783 419.504L351.703 415.712L341.487 413.233L343.008 406.964L354.898 409.849L355.847 405.937L339.14 401.883L333.106 426.755L349.864 430.821L350.804 426.944L338.864 424.047L340.567 417.026L350.783 419.504Z" fill="#F576A6"/>
<path d="M380.706 416.11L381.655 412.199L361.6 407.333L360.651 411.245L368.219 413.081L363.133 434.041L367.95 435.21L373.036 414.25L380.706 416.11Z" fill="#F576A6"/>
<path d="M389.173 430.7L392.88 431.599C394.235 431.928 395.507 432.032 396.694 431.91C397.881 431.788 398.946 431.473 399.889 430.966C400.818 430.468 401.602 429.796 402.241 428.951C402.892 428.108 403.353 427.128 403.623 426.012C403.914 424.816 403.967 423.678 403.783 422.596C403.611 421.517 403.229 420.532 402.637 419.641C402.031 418.758 401.228 417.991 400.229 417.338C399.233 416.674 398.057 416.178 396.701 415.849L388.194 413.785L382.16 438.657L386.96 439.822L389.173 430.7ZM390.118 426.805L392.05 418.845L395.756 419.744C396.44 419.91 397.006 420.162 397.454 420.5C397.903 420.838 398.252 421.236 398.503 421.695C398.742 422.151 398.88 422.648 398.918 423.188C398.968 423.731 398.922 424.292 398.781 424.873C398.659 425.374 398.456 425.838 398.172 426.263C397.902 426.68 397.559 427.025 397.143 427.298C396.716 427.568 396.227 427.745 395.676 427.828C395.125 427.911 394.508 427.87 393.825 427.704L390.118 426.805Z" fill="#F576A6"/>
<path d="M419.853 442.304L420.045 447.849L425.102 449.076L423.142 422.264L418.786 421.207L404.603 444.103L409.659 445.329L412.388 440.493L419.853 442.304ZM414.558 436.696L419.393 428.174L419.716 437.948L414.558 436.696Z" fill="#F576A6"/>
<path d="M446.266 460.687L449.37 450.876L447.542 450.433L452.64 429.421L440.358 426.441L437.204 436.457C437.04 437.032 436.878 437.577 436.717 438.093C436.567 438.611 436.412 439.098 436.253 439.554C435.928 440.5 435.611 441.334 435.303 442.055C434.995 442.776 434.683 443.394 434.365 443.908C433.899 444.687 433.413 445.274 432.907 445.67C432.401 446.066 431.852 446.337 431.262 446.483L430.34 446.259L428.671 456.418L432.72 457.4L434.203 451.284L443.616 453.568L442.132 459.684L446.266 460.687ZM442.021 437.626L443.956 431.439L446.912 432.156L442.759 449.272L437.378 447.967C437.787 447.475 438.189 446.91 438.585 446.27C438.984 445.619 439.377 444.87 439.764 444.024C439.973 443.556 440.186 443.053 440.401 442.514C440.616 441.975 440.827 441.406 441.033 440.804C441.197 440.326 441.362 439.823 441.526 439.296C441.69 438.769 441.855 438.212 442.021 437.626Z" fill="#F576A6"/>
<path d="M464.004 441.91L466.234 432.72L461.417 431.551L455.382 456.423L463.001 458.272C464.436 458.62 465.77 458.738 467.003 458.627C468.247 458.519 469.352 458.215 470.317 457.713C471.272 457.209 472.077 456.524 472.733 455.659C473.392 454.782 473.865 453.751 474.153 452.566C474.435 451.405 474.481 450.294 474.292 449.236C474.102 448.177 473.696 447.216 473.074 446.354C472.439 445.488 471.591 444.734 470.53 444.09C469.482 443.438 468.241 442.938 466.806 442.59L464.004 441.91ZM463.068 445.771L465.869 446.45C466.621 446.633 467.245 446.893 467.742 447.23C468.253 447.559 468.655 447.94 468.948 448.373C469.227 448.815 469.395 449.29 469.452 449.798C469.521 450.309 469.491 450.832 469.361 451.368C469.226 451.926 469.006 452.433 468.702 452.89C468.41 453.35 468.036 453.723 467.58 454.01C467.113 454.295 466.574 454.478 465.964 454.559C465.365 454.643 464.689 454.593 463.938 454.411L461.136 453.731L463.068 445.771Z" fill="#F576A6"/>
<path d="M519.796 478.527L522.9 468.717L521.072 468.273L526.17 447.262L513.887 444.282L510.734 454.297C510.57 454.872 510.408 455.418 510.247 455.933C510.097 456.452 509.942 456.939 509.783 457.395C509.457 458.341 509.141 459.174 508.833 459.895C508.525 460.617 508.213 461.234 507.895 461.748C507.429 462.527 506.943 463.115 506.437 463.51C505.931 463.906 505.382 464.177 504.792 464.323L503.87 464.1L502.201 474.258L506.249 475.24L507.733 469.125L517.146 471.409L515.662 477.524L519.796 478.527ZM515.551 455.466L517.486 449.279L520.442 449.996L516.289 467.113L510.908 465.807C511.316 465.315 511.719 464.75 512.115 464.11C512.514 463.46 512.907 462.711 513.293 461.864C513.503 461.396 513.716 460.893 513.931 460.355C514.146 459.816 514.357 459.246 514.563 458.645C514.727 458.166 514.891 457.663 515.056 457.136C515.22 456.609 515.385 456.053 515.551 455.466Z" fill="#F576A6"/>
<path d="M551.551 453.42L536.809 449.843L533.548 462.835C533.407 463.368 533.272 463.872 533.145 464.347C533.02 464.811 532.897 465.246 532.775 465.65C532.564 466.371 532.358 466.996 532.157 467.526C531.956 468.056 531.751 468.501 531.543 468.86C531.201 469.428 530.804 469.821 530.354 470.037C529.903 470.253 529.399 470.294 528.841 470.158L528.277 470.021L527.341 473.882L528.536 474.172C529.675 474.449 530.723 474.48 531.679 474.265C532.635 474.051 533.513 473.541 534.312 472.734C534.693 472.356 535.055 471.907 535.398 471.387C535.753 470.87 536.088 470.283 536.405 469.624C536.598 469.225 536.786 468.8 536.967 468.349C537.149 467.899 537.326 467.418 537.499 466.905C537.641 466.469 537.782 466.009 537.924 465.525C538.066 465.041 538.207 464.532 538.348 464L540.647 454.898L545.789 456.146L540.699 477.123L545.516 478.292L551.551 453.42Z" fill="#F576A6"/>
<path d="M564.184 482.821L569.001 483.99L575.036 459.118L567.007 457.17C565.607 456.83 564.304 456.683 563.099 456.728C561.897 456.762 560.828 456.991 559.893 457.416C558.947 457.837 558.153 458.452 557.51 459.261C556.868 460.07 556.401 461.072 556.111 462.268C555.874 463.247 555.808 464.166 555.913 465.024C556.03 465.884 556.305 466.686 556.74 467.431C556.973 467.813 557.244 468.186 557.553 468.551C557.877 468.907 558.235 469.247 558.626 469.571L550.518 479.506L555.66 480.753L562.715 472.1L566.559 473.033L564.184 482.821ZM560.841 463.723C560.979 463.154 561.182 462.666 561.449 462.261C561.719 461.844 562.058 461.516 562.465 461.277C562.899 461.033 563.415 460.893 564.014 460.857C564.617 460.811 565.299 460.88 566.062 461.065L569.274 461.844L567.45 469.36L564.239 468.581C563.487 468.399 562.852 468.16 562.332 467.865C561.827 467.562 561.432 467.201 561.148 466.782C560.895 466.383 560.74 465.929 560.682 465.421C560.636 464.915 560.689 464.349 560.841 463.723Z" fill="#F576A6"/>
<path d="M355.114 464.081L355.993 460.46C356.266 459.332 356.416 458.241 356.443 457.186C356.481 456.135 356.403 455.139 356.209 454.199C356.024 453.371 355.75 452.587 355.387 451.847C355.035 451.111 354.576 450.445 354.009 449.849C353.447 449.23 352.774 448.699 351.99 448.256C351.219 447.803 350.356 447.461 349.399 447.229C348.454 447 347.548 446.907 346.681 446.95C345.815 446.993 345.003 447.157 344.246 447.444C343.475 447.739 342.756 448.144 342.089 448.657C341.433 449.173 340.833 449.781 340.289 450.482C339.723 451.224 339.224 452.062 338.793 452.995C338.373 453.93 338.031 454.944 337.766 456.037L336.887 459.659C336.638 460.684 336.482 461.677 336.417 462.638C336.364 463.602 336.402 464.515 336.53 465.378C336.676 466.318 336.928 467.193 337.286 468.004C337.647 468.803 338.099 469.522 338.644 470.16C339.205 470.779 339.866 471.313 340.625 471.762C341.384 472.212 342.248 472.554 343.216 472.789C344.127 473.01 345.003 473.102 345.844 473.065C346.693 473.042 347.497 472.911 348.254 472.673C349.093 472.394 349.881 471.982 350.616 471.437C351.351 470.892 352.012 470.256 352.598 469.53C353.161 468.799 353.656 467.978 354.082 467.068C354.51 466.147 354.854 465.152 355.114 464.081ZM351.132 459.244L350.245 462.9C350.096 463.515 349.918 464.099 349.712 464.652C349.517 465.207 349.299 465.709 349.057 466.157C348.749 466.733 348.398 467.233 348.006 467.656C347.628 468.071 347.207 468.391 346.742 468.616C346.371 468.803 345.97 468.917 345.538 468.957C345.106 468.997 344.651 468.959 344.173 468.843C343.672 468.721 343.24 468.538 342.877 468.293C342.526 468.051 342.23 467.756 341.989 467.408C341.733 467.021 341.539 466.552 341.408 466.001C341.29 465.442 341.242 464.845 341.263 464.212C341.265 463.706 341.311 463.168 341.401 462.599C341.491 462.03 341.609 461.444 341.755 460.84L342.642 457.184C342.797 456.547 342.968 455.943 343.154 455.373C343.352 454.806 343.567 454.292 343.8 453.829C344.103 453.228 344.443 452.719 344.821 452.305C345.211 451.893 345.638 451.574 346.102 451.349C346.439 451.202 346.798 451.114 347.179 451.086C347.571 451.06 347.989 451.102 348.433 451.209C348.9 451.323 349.306 451.488 349.652 451.704C350.009 451.923 350.313 452.184 350.565 452.486C350.878 452.888 351.117 453.368 351.283 453.927C351.452 454.474 351.547 455.076 351.568 455.732C351.586 456.255 351.553 456.814 351.469 457.409C351.399 457.995 351.287 458.606 351.132 459.244Z" fill="#F576A6"/>
<path d="M380.893 459.356L381.838 455.461L365.729 451.553L359.694 476.425L367.313 478.274C368.748 478.622 370.082 478.74 371.315 478.63C372.559 478.521 373.664 478.217 374.629 477.715C375.584 477.211 376.389 476.527 377.045 475.661C377.704 474.784 378.178 473.753 378.465 472.568C378.747 471.407 378.793 470.297 378.604 469.238C378.414 468.179 378.008 467.218 377.386 466.356C376.752 465.49 375.904 464.736 374.842 464.092C373.794 463.44 372.553 462.94 371.118 462.592L368.316 461.912L369.601 456.617L380.893 459.356ZM367.38 465.773L370.181 466.453C370.933 466.635 371.557 466.895 372.054 467.233C372.565 467.562 372.967 467.942 373.26 468.375C373.539 468.817 373.707 469.292 373.764 469.8C373.833 470.311 373.803 470.834 373.673 471.37C373.538 471.928 373.318 472.435 373.014 472.892C372.722 473.352 372.348 473.725 371.892 474.013C371.425 474.297 370.886 474.48 370.276 474.561C369.677 474.645 369.001 474.595 368.25 474.413L365.448 473.733L367.38 465.773Z" fill="#F576A6"/>
<path d="M383.635 482.035C383.997 482.231 384.471 482.467 385.055 482.741C385.648 483.03 386.349 483.272 387.158 483.468C388.16 483.712 389.064 483.786 389.871 483.693C390.678 483.599 391.416 483.386 392.088 483.055C392.748 482.72 393.346 482.293 393.882 481.772C394.43 481.253 394.934 480.694 395.393 480.094L409.132 462.084L403.905 460.816L396.356 471.501L395.525 472.692L395.023 467.976L393.228 458.225L388.035 456.965L392.361 477.007L391.626 477.95C391.412 478.284 391.167 478.575 390.89 478.821C390.628 479.059 390.323 479.244 389.977 479.377C389.632 479.51 389.24 479.584 388.802 479.599C388.365 479.613 387.873 479.554 387.326 479.421C386.893 479.316 386.439 479.152 385.962 478.928C385.498 478.706 385.128 478.514 384.854 478.351L383.635 482.035Z" fill="#F576A6"/>
<path d="M431.626 467.542L426.809 466.373L424.011 477.903C423.369 477.916 422.708 477.883 422.028 477.802C421.363 477.713 420.808 477.614 420.363 477.507C419.805 477.371 419.337 477.191 418.957 476.966C418.58 476.73 418.295 476.414 418.102 476.017C417.906 475.632 417.806 475.15 417.802 474.57C417.809 473.993 417.914 473.289 418.116 472.457L419.993 464.719L415.193 463.554L413.315 471.293C412.97 472.716 412.86 473.992 412.984 475.119C413.122 476.238 413.465 477.214 414.01 478.045C414.545 478.874 415.269 479.569 416.182 480.128C417.11 480.679 418.189 481.103 419.418 481.401C419.84 481.504 420.39 481.595 421.07 481.676C421.764 481.748 422.432 481.777 423.075 481.764L420.774 491.245L425.592 492.414L431.626 467.542Z" fill="#F576A6"/>
<path d="M451.174 487.08L452.095 483.288L441.879 480.81L443.4 474.54L455.29 477.425L456.239 473.513L439.532 469.46L433.498 494.332L450.255 498.398L451.196 494.52L439.256 491.623L440.959 484.602L451.174 487.08Z" fill="#F576A6"/>
<path d="M474.15 504.195L480.185 479.323L475.436 478.171L472.962 488.369L465.924 486.662L468.398 476.463L463.632 475.307L457.598 500.179L462.364 501.335L464.979 490.556L472.017 492.264L469.402 503.043L474.15 504.195Z" fill="#F576A6"/>
<path d="M499.792 484.08L488.883 498.255L492.737 482.369L487.937 481.204L481.903 506.076L486.703 507.241L497.608 493.083L493.758 508.953L498.575 510.121L504.61 485.249L499.792 484.08Z" fill="#F576A6"/>
<path d="M517.516 514.717L522.333 515.886L528.368 491.014L520.339 489.066C518.939 488.726 517.636 488.578 516.431 488.624C515.229 488.658 514.16 488.887 513.225 489.311C512.279 489.733 511.485 490.348 510.842 491.157C510.2 491.966 509.733 492.968 509.443 494.164C509.206 495.143 509.14 496.062 509.245 496.919C509.362 497.78 509.637 498.582 510.072 499.327C510.305 499.709 510.576 500.082 510.885 500.446C511.209 500.802 511.567 501.142 511.958 501.467L503.85 511.401L508.992 512.649L516.047 503.996L519.891 504.929L517.516 514.717ZM514.173 495.619C514.311 495.049 514.514 494.562 514.781 494.156C515.051 493.74 515.39 493.412 515.797 493.173C516.231 492.928 516.747 492.788 517.346 492.753C517.949 492.706 518.631 492.775 519.394 492.96L522.606 493.74L520.782 501.256L517.571 500.477C516.819 500.294 516.184 500.056 515.664 499.761C515.159 499.457 514.764 499.096 514.48 498.678C514.227 498.279 514.072 497.825 514.014 497.317C513.968 496.811 514.021 496.245 514.173 495.619Z" fill="#F576A6"/>
<circle cx="105.142" cy="853.142" r="50" fill="#F576A6"/>
<path fill-rule="evenodd" clip-rule="evenodd" d="M98.3233 791.929L98.1197 789.345L96.5884 789.465L95.4203 792.158L94.486 792.231L95.8038 789.284C94.9204 789.015 94.4445 788.445 94.376 787.576C94.3262 786.944 94.4942 786.437 94.8798 786.055C95.2683 785.67 95.8317 785.448 96.57 785.39L98.68 785.224L99.2029 791.86L98.3233 791.929ZM95.251 787.507C95.2826 787.908 95.4326 788.221 95.7009 788.444C95.9722 788.667 96.3313 788.763 96.7781 788.731L98.0633 788.629L97.8572 786.013L96.6131 786.111C96.1391 786.149 95.7849 786.29 95.5504 786.534C95.319 786.779 95.2192 787.103 95.251 787.507ZM82.4437 795.41L80.0558 789.197L76.2282 790.668L77.258 793.73C77.4924 794.433 77.6366 794.966 77.6906 795.327C77.7445 795.688 77.7299 795.973 77.6467 796.181C77.5624 796.387 77.3918 796.55 77.1349 796.672L76.9675 796.746L77.225 797.416L77.4938 797.313C77.9013 797.15 78.1902 796.924 78.3605 796.637C78.5297 796.346 78.597 795.97 78.5626 795.506C78.531 795.042 78.378 794.389 78.1036 793.547L77.2682 791.042L79.4957 790.186L81.6244 795.725L82.4437 795.41ZM68.5152 804.533L67.8229 805.065L66.8284 803.771L63.0405 806.682L64.0378 807.979L63.3418 808.514L61.9036 806.65L62.335 806.319C62.3653 805.888 62.2816 805.407 62.0839 804.874C61.8868 804.338 61.6074 803.799 61.2457 803.258L59.6262 800.911L62.7834 798.485L66.4019 803.193L67.0906 802.664L68.5152 804.533ZM63.1288 805.709L65.7023 803.731L62.5239 799.595L60.7369 800.968L61.8531 802.578C62.2878 803.209 62.6042 803.788 62.8025 804.316C63.0031 804.843 63.1119 805.307 63.1288 805.709ZM43.583 828.507L44.7873 825.886L44.1351 825.586L42.9308 828.207L40.9867 827.314L42.3666 824.311L41.7103 824.009L39.964 827.81L46.0122 830.589L47.7776 826.746L47.1255 826.447L45.7265 829.492L43.583 828.507ZM36.9302 840.76L36.5713 842.869L42.421 843.864L42.2745 844.725L36.4248 843.729L36.0666 845.834L35.3545 845.713L36.2182 840.638L36.9302 840.76ZM35.2546 859.724L35.348 860.597L40.7969 863.31L35.6968 863.856L35.7907 864.734L42.409 864.025L42.3151 863.148L36.8662 860.435L41.9663 859.889L41.8729 859.016L35.2546 859.724ZM42.0151 884.059L46.1367 879.906L40.2881 880.064L39.8365 879.019L45.9461 876.378L46.2944 877.184L43.9152 878.212L41.3144 879.247L47.1288 879.114L47.3955 879.731L43.326 883.866L45.8471 882.681L48.2263 881.653L48.5746 882.458L42.4649 885.099L42.0151 884.059ZM56.3857 898.293L55.9071 897.764L56.8875 894.324L56.1543 893.514L55.0512 897.534L51.3361 898.11L52.0294 898.876L55.3587 898.248L55.8434 898.784L53.7014 900.723L54.2904 901.374L56.4324 899.435L56.9386 899.994L55.9838 903.244L56.6802 904.014L57.6254 900.371L61.7316 899.676L60.9953 898.862L57.4809 899.503L56.9747 898.944L59.2252 896.907L58.6362 896.256L56.3857 898.293ZM72.0717 908.945L74.4909 910.332L75.8983 909.137L76.6835 909.587L71.1676 914.097L70.5014 913.715L71.6033 906.674L72.3846 907.122L72.0717 908.945ZM73.9016 910.827L71.9385 909.702L71.3734 912.966L73.9016 910.827ZM89.641 913.962L90.5022 914.154L89.8332 917.157L93.1083 917.887L93.7774 914.884L94.6341 915.075L93.1867 921.571L92.3299 921.381L92.9523 918.587L89.6771 917.858L89.0548 920.651L88.1936 920.459L89.641 913.962ZM130.233 791.476C130.389 791.768 130.397 792.077 130.257 792.402C130.119 792.724 129.907 792.928 129.621 793.014C129.335 793.1 128.986 793.059 128.573 792.892L127.822 792.569L127.536 793.232L128.292 793.557C129.174 793.953 129.46 794.509 129.152 795.226C129.007 795.562 128.76 795.775 128.408 795.867C128.06 795.959 127.666 795.911 127.227 795.722C126.835 795.553 126.557 795.307 126.394 794.985C126.232 794.66 126.22 794.336 126.359 794.014L125.552 793.668C125.395 794.034 125.351 794.39 125.421 794.736C125.492 795.081 125.661 795.398 125.928 795.686C126.2 795.972 126.539 796.202 126.945 796.377C127.628 796.67 128.243 796.744 128.79 796.598C129.338 796.452 129.729 796.105 129.965 795.556C130.273 794.842 130.118 794.21 129.502 793.66C129.871 793.659 130.192 793.58 130.465 793.422C130.739 793.264 130.936 793.044 131.058 792.761C131.293 792.215 131.287 791.709 131.04 791.241C130.795 790.77 130.331 790.388 129.647 790.094C129.261 789.928 128.877 789.849 128.495 789.857C128.115 789.863 127.779 789.956 127.489 790.136C127.202 790.318 126.989 790.571 126.849 790.896L127.655 791.243C127.781 790.952 128.006 790.76 128.331 790.668C128.66 790.574 129.004 790.604 129.362 790.758C129.79 790.942 130.081 791.181 130.233 791.476ZM143.52 804.066L141.354 802.309L139.773 803.264L139.07 802.694L145.237 799.125L145.834 799.609L143.618 806.382L142.919 805.815L143.52 804.066ZM142.015 801.915L143.772 803.341L144.853 800.208L142.015 801.915ZM157.685 812.667L159.568 815.265L160.153 814.841L157.752 811.529L152.362 815.435L152.88 816.15L157.685 812.667ZM162.774 827.794L160.34 828.724L160.026 827.905L166.244 825.528L167.12 827.821C167.38 828.501 167.41 829.1 167.21 829.617C167.011 830.137 166.625 830.506 166.053 830.725C165.449 830.956 164.911 830.944 164.439 830.691C163.971 830.439 163.602 829.962 163.334 829.259L162.774 827.794ZM163.444 827.538L164.007 829.011C164.175 829.449 164.406 829.746 164.7 829.901C164.997 830.055 165.341 830.058 165.731 829.908C166.101 829.767 166.352 829.537 166.485 829.219C166.618 828.9 166.611 828.536 166.464 828.126L165.882 826.606L163.444 827.538ZM171.934 848.188L167.949 847.01L171.641 844.946L171.553 843.967L166.849 846.668L166.428 846.532L166.181 846.439C165.86 846.312 165.686 846.089 165.657 845.771L165.638 845.355L164.943 845.39C164.922 845.459 164.922 845.613 164.944 845.853C164.968 846.129 165.027 846.355 165.119 846.53C165.215 846.709 165.342 846.859 165.5 846.983C165.661 847.106 165.925 847.231 166.291 847.357L172.025 849.203L171.934 848.188ZM169.316 865.384C169.665 865.445 169.963 865.365 170.212 865.145C170.463 864.929 170.628 864.591 170.708 864.132C170.775 863.748 170.724 863.406 170.556 863.108C170.391 862.813 170.152 862.639 169.84 862.584L169.991 861.72C170.339 861.78 170.635 861.929 170.878 862.166C171.121 862.407 171.289 862.711 171.383 863.08C171.479 863.449 171.492 863.841 171.42 864.256C171.292 864.988 171.028 865.529 170.627 865.877C170.23 866.225 169.738 866.348 169.152 866.247C168.849 866.194 168.589 866.053 168.372 865.823C168.155 865.594 168.004 865.3 167.918 864.941C167.525 865.668 166.946 865.965 166.181 865.832C165.592 865.73 165.163 865.429 164.894 864.931C164.625 864.432 164.554 863.817 164.682 863.084C164.757 862.649 164.903 862.266 165.118 861.935C165.336 861.608 165.605 861.37 165.924 861.222C166.244 861.073 166.6 861.033 166.994 861.101L166.843 861.966C166.498 861.906 166.186 861.992 165.907 862.225C165.632 862.459 165.457 862.786 165.384 863.206C165.302 863.678 165.347 864.072 165.517 864.39C165.687 864.71 165.953 864.901 166.313 864.964C167.082 865.098 167.556 864.69 167.737 863.741L167.878 862.93L168.589 863.054L168.449 863.86C168.382 864.3 168.423 864.649 168.573 864.907C168.723 865.165 168.971 865.324 169.316 865.384ZM163.368 879.048L163.018 879.778L159.28 880.656L158.815 881.625L163.087 880.648L164.897 884.335L165.37 883.35L163.731 879.983L164.027 879.364L166.673 880.634L167.053 879.843L161.052 876.963L160.672 877.755L163.368 879.048ZM154.191 899.891L153.602 900.542L148.667 896.075L149.256 895.424L153.059 898.866L151.455 892.994L152.047 892.34L156.982 896.807L156.39 897.461L152.587 894.019L154.191 899.891ZM129.247 912.728L127.172 913.549L127.426 914.191L129.501 913.37L129.247 912.728Z" fill="white"/>
<path d="M107.255 837.224C107.255 836.119 106.359 835.224 105.255 835.224C104.15 835.224 103.255 836.119 103.255 837.224L107.255 837.224ZM105.255 872.224L116.802 852.224L93.7076 852.224L105.255 872.224ZM103.255 837.224L103.255 854.224L107.255 854.224L107.255 837.224L103.255 837.224Z" fill="white"/>
</svg>
