<svg width="1920" height="1163" viewBox="0 0 1920 1163" fill="none" xmlns="http://www.w3.org/2000/svg">
<path fill-rule="evenodd" clip-rule="evenodd" d="M242.779 1000.97C140.33 1038.58 37.243 1142.28 -60.7037 1100.6C-159.267 1058.64 -129.925 912.168 -180.029 821.008C-226.244 736.925 -346.819 686.467 -341.242 590.186C-335.669 493.953 -215.764 444.768 -153.735 367.008C-85.0637 280.922 -68.0621 135.879 41.1458 110.823C150.496 85.7335 228.044 206.716 324.597 257.26C406.949 300.37 509.031 312.862 564.718 384.903C623.285 460.669 645.99 560.034 632.221 655.224C618.73 748.489 563.534 833.389 490.46 898.264C422.567 958.54 328.811 969.388 242.779 1000.97Z" fill="#262234"/>
<path fill-rule="evenodd" clip-rule="evenodd" d="M2012.08 294.26C1949.36 234.175 1781.4 156.204 1696.69 155.382C1611.44 154.555 1577.57 249.933 1511.97 300.439C1451.46 347.024 1481.86 335.658 1455.23 407.65C1428.62 479.604 1500.38 553.696 1520.83 630.176C1543.46 714.847 1509.62 826.039 1581.28 879.125C1653.02 932.28 1748.14 868.775 1834.66 862.695C1908.46 857.51 1986.89 880.941 2050.46 846.158C2117.33 809.575 2165.56 744.351 2185.86 670.544C2205.76 598.23 2192.57 518.721 2159.96 448.115C2129.67 382.516 2064.75 344.717 2012.08 294.26Z" fill="#00B1AE"/>
<path d="M1196.93 254.664C1202.51 233.626 1223.88 220.905 1245.03 226.037L1638.35 321.467C1659.28 326.545 1672.43 347.282 1668.1 368.379L1540.01 992.633C1535.6 1014.12 1514.72 1028.05 1493.19 1023.86L1059.63 939.48C1036.92 935.059 1022.68 912.342 1028.61 889.972L1196.93 254.664Z" fill="#252234"/>
<mask id="mask0_3759_1723" style="mask-type:alpha" maskUnits="userSpaceOnUse" x="1027" y="224" width="642" height="801">
<path d="M1196.93 254.664C1202.51 233.625 1223.88 220.905 1245.03 226.036L1638.35 321.466C1659.28 326.544 1672.43 347.281 1668.1 368.378L1540.01 992.633C1535.6 1014.12 1514.72 1028.05 1493.19 1023.86L1059.63 939.479C1036.92 935.058 1022.68 912.342 1028.61 889.971L1196.93 254.664Z" fill="#252234"/>
</mask>
<g mask="url(#mask0_3759_1723)">
<path d="M1334.32 784.454C1343.97 781.43 1366.31 816.517 1360.43 823.846C1358.39 826.261 1355.19 825.782 1352.61 824.667C1344.97 821.067 1338.76 813.037 1335.16 805.575C1333.06 801.257 1326.97 786.829 1334.32 784.454Z" fill="#587EE0"/>
<path d="M1578 782.281C1585.15 787.883 1589.14 797.139 1589.68 806.065C1590.43 810.043 1589.74 814.038 1585.74 816.521C1579.04 820.733 1572.19 812.95 1568.81 807.895C1564.72 801.742 1559.73 791.833 1562.45 784.234C1565.21 777.299 1573.16 778.499 1578 782.281Z" fill="#587EE0"/>
<path d="M1637.55 821.308C1639.02 820.036 1642.74 816.744 1645.69 813.424C1658.52 827.634 1664.97 836.271 1678.96 855.524C1681.66 859.184 1685.91 866.075 1688.26 871.252C1689.28 873.344 1688.68 875.492 1687.21 875.805C1685.85 876.19 1684.51 875.319 1683.39 874.594C1684 875.621 1684.6 876.647 1685.2 877.674C1686.86 880.497 1689.14 883.571 1690.25 886.511C1691.16 889.011 1688.46 891.22 1685.98 890.4C1684.53 889.937 1683.19 889.067 1681.85 888.196C1682.36 890.11 1682.82 892.319 1681.84 893.586C1679.26 897.307 1673.03 891.031 1671.2 889.206C1664.06 881.39 1657.86 872.603 1652.29 863.587C1651.74 869.573 1651.56 876.441 1650.5 880.514C1650.36 881.217 1650.03 881.959 1649.38 882.484C1643.17 888.13 1638.3 860.206 1637.78 856.853C1637.26 853.5 1636.49 850.297 1635.34 847.173C1633.06 840.924 1630.11 834.72 1627.89 828.36C1631.52 826.435 1634.56 823.963 1637.55 821.308Z" fill="#BE8273"/>
<path d="M1296.41 844.325C1297.5 843.131 1298.63 842.121 1299.88 841.184C1299.95 841.072 1299.95 841.072 1300.02 840.96C1315.11 830.449 1328.66 818.147 1340.61 804.165C1340.75 803.942 1341.12 803.864 1341.41 803.897C1341.67 803.747 1341.86 803.708 1342.26 803.814C1349.62 807.641 1350.75 816.635 1356.5 821.957C1356.57 821.846 1356.76 821.807 1356.83 821.695C1357.49 821.171 1358.57 822.192 1357.73 822.755C1357.66 822.867 1357.47 822.906 1357.4 823.017C1357.52 823.57 1356.9 824.278 1356.41 823.804C1353.71 826.013 1351.67 828.658 1349.9 831.632C1347.83 835.052 1346.51 838.795 1345.19 842.539C1343.9 846.467 1342.8 850.355 1341.41 854.211C1339.91 858.473 1338.15 862.407 1335.68 866.2C1335.32 866.758 1334.95 867.316 1334.44 867.618C1332.8 868.929 1330.68 867.551 1330.03 865.86C1329.72 864.867 1329.6 863.835 1329.66 862.764C1329.7 859.773 1330.37 857.034 1330.81 854.149C1330.98 852.671 1331.22 851.081 1331.39 849.602C1328.43 851.962 1325.46 854.322 1322.54 856.866C1318.59 860.013 1314.72 864.008 1310.36 866.569C1308.49 867.735 1306.02 867.875 1304.85 865.526C1303.72 863.361 1306.14 859.383 1308.32 856.515C1306.31 857.904 1304.19 859.221 1302.02 860.354C1300.11 861.336 1296.41 863.852 1294.54 861.364C1292.66 858.875 1295.91 855.589 1297.41 854.021C1299.63 851.338 1302.18 848.872 1304.78 846.59C1303.45 847.159 1302.2 847.616 1301.25 848.107C1299.67 848.827 1297.14 850.038 1295.68 848.615C1294.45 847.338 1295.31 845.519 1296.41 844.325Z" fill="#BE8273"/>
<path d="M1521.34 595.457C1521.86 595.635 1522.27 595.741 1522.79 595.92C1523.32 593.883 1523.75 592.734 1523.67 592.846C1523.83 593.582 1523.88 594.726 1523.82 596.277C1530.76 599.039 1536.54 604.065 1540.05 610.632C1542.24 614.593 1543.02 618.755 1543.66 623.141C1544.35 628.19 1545.48 633.529 1549.36 636.843C1553.57 639.895 1558.94 641.161 1563.61 643.248C1568.17 645.262 1572.41 648.018 1576.36 651.22C1592.77 665.057 1600.14 686.676 1598.77 707.843C1598.11 717.892 1595.68 727.739 1591.98 737.084C1590.88 750.017 1581.81 760.79 1569.45 764.183C1567.64 767.452 1565.31 770.543 1562.28 773.015C1556.25 778.142 1547.82 780.602 1540.25 777.11C1532.35 773.4 1531.48 765.215 1528.77 757.901C1526.82 752.35 1523.29 749.733 1517.77 748.21C1513.18 746.971 1509.2 745.024 1505.69 741.632C1497.15 733.537 1494.42 721.608 1492.15 710.45C1492 709.714 1516.22 618.477 1522.17 597.108C1521.65 596.93 1521.14 596.751 1520.73 596.645C1520.03 596.506 1520.42 595.172 1521.34 595.457Z" fill="#373349"/>
<path opacity="0.3" d="M1523.15 597.426L1523.01 597.949L1522.5 597.773C1522.16 597.656 1521.86 597.563 1521.55 597.468L1521.55 597.467C1521.24 597.373 1520.93 597.276 1520.58 597.155C1520.39 597.101 1520.27 597.131 1520.19 597.177C1520.09 597.23 1520.01 597.326 1519.97 597.446C1519.92 597.57 1519.92 597.674 1519.94 597.727C1519.95 597.755 1519.95 597.769 1520.01 597.779L1520.02 597.782L1520.03 597.785C1520.6 597.932 1521.31 598.176 1521.99 598.411L1522.01 598.417L1522.45 598.571L1522.33 599.024C1518.35 613.317 1508.27 650.984 1499.21 685.204C1494.68 702.313 1490.4 718.559 1487.27 730.589C1485.71 736.604 1484.43 741.564 1483.55 745.051C1483.11 746.795 1482.77 748.168 1482.55 749.12C1482.43 749.596 1482.35 749.964 1482.29 750.219C1482.27 750.347 1482.25 750.441 1482.24 750.505C1482.24 750.512 1482.23 750.518 1482.23 750.524C1485.28 765.461 1488.93 781.234 1500.23 791.934L1500.23 791.938C1504.86 796.409 1510.1 798.982 1516.19 800.626L1516.19 800.627C1519.93 801.66 1523.03 803.073 1525.54 805.196C1528.05 807.321 1529.93 810.134 1531.26 813.917C1531.99 815.887 1532.63 817.905 1533.25 819.898C1533.41 820.396 1533.56 820.892 1533.72 821.386C1534.5 823.865 1535.31 826.284 1536.33 828.547C1538.37 833.06 1541.24 836.93 1546.39 839.35C1556.3 843.924 1567.38 840.73 1575.35 833.958L1575.36 833.951C1579.36 830.695 1582.43 826.615 1584.83 822.282L1584.93 822.097L1585.13 822.042C1601.48 817.566 1613.47 803.329 1614.92 786.232L1614.93 786.159L1614.95 786.091C1619.88 773.628 1623.11 760.502 1623.98 747.114C1625.8 718.916 1615.95 690.144 1594.13 671.735C1588.86 667.469 1583.22 663.804 1577.16 661.128L1577.16 661.127C1575.12 660.219 1573 659.432 1570.86 658.634C1569.71 658.209 1568.56 657.781 1567.4 657.329C1564.11 656.039 1560.85 654.574 1557.98 652.493L1557.97 652.481L1557.95 652.468C1552.6 647.894 1551.07 640.563 1550.14 633.815C1549.28 627.954 1548.24 622.462 1545.35 617.245L1545.35 617.239C1540.7 608.556 1533.05 601.903 1523.87 598.243L1523.54 598.113L1523.55 597.761C1523.58 597.053 1523.59 596.414 1523.58 595.843C1523.45 596.312 1523.3 596.841 1523.15 597.426ZM1482.22 750.456C1482.22 750.456 1482.22 750.457 1482.22 750.457C1482.22 750.455 1482.22 750.453 1482.22 750.452L1482.22 750.456Z" stroke="white"/>
<path d="M1473.07 605.985C1475.53 604.406 1478.25 603.637 1481 602.571C1482.95 601.773 1485.34 600.785 1486.57 598.889C1487.73 597.103 1487.63 594.816 1487.68 592.785C1488.13 587.206 1491.06 581.967 1496.31 579.506C1499.18 578.033 1504.68 578.117 1504.02 582.296C1504.43 582.402 1504.58 582.658 1504.4 583.177C1498.55 596.83 1495.35 610.783 1493.64 625.384C1492.69 633.184 1491.34 653.096 1478.62 648.002C1468.35 644.024 1464.58 631.259 1464.66 622.104C1464.67 617.194 1468.67 608.842 1473.07 605.985Z" fill="#373349"/>
<path d="M1480.92 613.941L1476.19 632.933C1476.19 632.933 1484.47 634.35 1500.52 632.871L1504.87 616.652L1480.92 613.941Z" fill="#BE8273"/>
<path d="M1521.84 606.894C1524.58 603.909 1526.92 595.429 1520.67 588.672C1515.14 582.535 1506.08 578.396 1496.02 583.127C1485.85 587.786 1483.41 590.804 1478.31 596.216C1474.3 600.434 1470.71 606.197 1475.13 611.609C1480.18 617.752 1488.89 617.06 1494.09 616.63C1499.29 616.2 1511.64 618.198 1521.84 606.894Z" fill="#BE8273"/>
<path d="M1499.59 581.794C1501.5 578.117 1507.34 578.418 1509.78 579.054C1513.56 580.081 1517.4 583.211 1519.91 586.43C1521.93 589.175 1523.52 592.109 1524.92 595.083C1526.24 597.689 1527.05 600.595 1526.79 603.441C1526.46 606.878 1524.56 608.819 1522 610.805C1519.77 612.529 1517.39 614.477 1517.98 617.718C1518.37 619.559 1519.39 621.172 1520.08 623.046C1520.72 624.737 1521.07 626.394 1520.72 627.911C1520.76 628.095 1520.69 628.207 1520.62 628.319C1520.44 628.837 1520.19 629.468 1519.82 630.026C1519.68 630.249 1519.42 630.4 1519.13 630.366C1515.38 634.913 1509.16 636.425 1503.92 633.976C1494.16 632.392 1505.26 625.323 1498.39 615.62C1493.86 610.136 1496.22 603.575 1502.55 601.176C1502.44 598.409 1498.07 600.01 1499.92 597.884C1506.04 590.91 1496.77 587.105 1499.59 581.794Z" fill="#373349"/>
<path d="M1489.53 586.525C1489.53 586.525 1482.53 587.529 1481.39 588.059C1480.29 588.773 1480.45 589.99 1481.71 593.187C1483.07 596.456 1489.53 586.525 1489.53 586.525Z" fill="#BE8273"/>
<path d="M1562.57 1010.66C1571.2 1010.08 1576.79 1007.84 1579.1 1006.96C1581.76 1007.26 1588.17 1006.19 1600.73 1003.72C1601.84 1003.49 1603.01 1003.14 1604.3 1002.87C1607.66 1006 1610.69 1009.4 1613.06 1013.32C1616.71 1019.19 1619.13 1027.43 1617.26 1034.46C1610.49 1032.92 1605.49 1035.23 1592.73 1035.82C1592.44 1036.26 1589.04 1032.94 1588.74 1032.43C1588.63 1032.36 1578.29 1019.93 1571.31 1016.5C1567.45 1014.63 1563.56 1013.05 1560.21 1010.87C1561.06 1010.79 1561.83 1010.82 1562.57 1010.66Z" fill="#E0785E"/>
<path d="M1593.54 1039.2C1593.54 1039.2 1605.43 1039.47 1605.83 1035.92C1606.91 1027.42 1596.46 1008.09 1588.08 1004.38C1584.7 1002.98 1571.76 1004.09 1571.76 1004.09L1593.54 1039.2Z" fill="#373349"/>
<path d="M1428.45 714.44C1428.45 714.44 1433.04 708.849 1442.75 709.29C1452.35 709.658 1467.2 719.784 1476.22 727.394C1485.13 734.932 1497.09 750.481 1497.09 750.481C1496.39 760.825 1496.96 771.191 1498.52 781.73C1487.02 773.78 1473.47 767.515 1460.53 762.276C1450 757.969 1438.32 753.712 1426.9 755.654C1425.3 741.756 1425.73 727.908 1428.23 714.295L1428.45 714.44Z" fill="#BE8273"/>
<path d="M1442.55 727.417C1442.77 729.777 1441.39 731.897 1439.14 732.661C1438.52 732.89 1438.29 731.785 1438.91 731.557C1440.53 731.021 1441.69 729.236 1441.52 727.54C1441.48 726.876 1442.51 726.753 1442.55 727.417Z" fill="#2B244A"/>
<path d="M1422 661.359C1430.39 652.846 1440.09 645.498 1450.35 639.472C1450.87 639.171 1451.42 639.054 1452 638.641C1475.42 627.036 1502.43 626.5 1527.41 634.478C1549.91 639.901 1559.45 657.213 1568.94 676.076C1580.09 698.242 1584.88 707.71 1596.03 729.876C1608.16 743.947 1624.56 770.481 1634.19 785.947C1637.84 791.81 1641.18 799.856 1642.81 806.629C1645.67 811.025 1648.63 815.494 1651.56 819.779C1651.86 820.292 1651.28 821.185 1651.28 821.185C1647.22 830.128 1639.39 836.31 1629.97 839.078C1629.79 839.117 1628.94 839.2 1628.68 838.871C1625.43 835.808 1622.22 832.929 1618.97 829.866C1578.44 813.838 1562.75 769.355 1540.69 735.651C1536.11 728.543 1530.89 721.664 1525.18 715.566C1524.21 724.141 1522.28 732.728 1516.11 739.038C1512.03 743.367 1505.96 745.136 1500.19 744.243C1500.47 746.012 1500.68 748.372 1500.17 749.153C1499.23 750.604 1497.72 750.732 1496.57 750.302C1496.57 750.302 1484.72 734.826 1475.7 727.216C1466.79 719.679 1451.94 709.552 1442.23 709.112C1432.74 708.816 1428.19 714.111 1427.93 714.261C1426.46 724.577 1425.87 734.034 1425.6 745.444C1425.04 745.081 1422.7 744.038 1420.83 742.029C1398.42 763.331 1396.72 804.288 1365.22 815.876C1363.36 818.002 1361.43 820.239 1359.68 822.437C1358.37 823.966 1356.96 826.382 1354.97 826.996C1350.67 828.485 1345.16 821.573 1343.07 818.939C1340.18 815.318 1337.95 810.693 1338.97 805.956C1339.56 802.849 1341.3 800.171 1343.26 797.638C1343.06 796.237 1343.05 795.278 1343.02 792.879C1342.94 786.161 1347.11 779.026 1350.03 773.307C1354.18 765.211 1376.92 727.295 1382.08 719.852C1399.38 684.435 1406.17 677.417 1422 661.359Z" fill="#EB5D19"/>
<path d="M1363.9 817.405C1355.28 815.29 1347.86 806.185 1343.21 799.189C1342.79 798.603 1343.75 798.112 1344.16 798.698C1348.67 805.437 1355.86 814.398 1364.26 816.367C1364.96 816.506 1364.61 817.544 1363.9 817.405Z" fill="#2B244A"/>
<path d="M1349.01 733.537C1355.27 731.508 1363.69 737.879 1367.31 742.689C1372.63 749.59 1372.7 758.849 1377.39 765.965C1381.05 771.491 1386.24 772.333 1391.35 775.532C1396.9 779.148 1400.27 785.139 1401.92 791.271C1404.13 799.544 1404.21 808.381 1407.34 816.394C1417.28 842.702 1459.82 852.163 1459.15 883.144C1458.91 890.763 1455.35 897.863 1448.44 901.496C1433.43 909.362 1415.71 898.437 1410.84 883.704C1408.68 876.988 1407.36 869.844 1403.31 864.195C1398.42 857.291 1390.05 853.739 1383.99 847.854C1372.53 836.584 1371.51 819.884 1371.22 804.819C1370.88 788.619 1359.31 778.991 1350.25 766.817C1343.18 756.69 1337.43 737.334 1349.01 733.537Z" fill="#F576A6"/>
<path d="M1030.89 600.831C1037.15 598.802 1045.57 605.173 1049.19 609.984C1054.51 616.885 1054.58 626.143 1059.27 633.26C1062.93 638.786 1068.12 639.627 1073.24 642.826C1078.78 646.443 1082.15 652.434 1083.8 658.565C1086.01 666.838 1086.09 675.676 1089.22 683.689C1099.16 709.996 1141.7 719.457 1141.03 750.438C1140.79 758.058 1137.23 765.157 1130.32 768.791C1115.31 776.656 1097.59 765.732 1092.72 750.999C1090.56 744.283 1089.24 737.139 1085.19 731.49C1080.3 724.585 1071.93 721.034 1065.87 715.149C1054.41 703.878 1053.39 687.178 1053.1 672.114C1052.76 655.913 1041.19 646.285 1032.13 634.112C1025.06 623.984 1019.31 604.629 1030.89 600.831Z" fill="#EB5D19"/>
<path d="M1426.92 719.478C1424.33 712.236 1424.87 704.81 1431.64 700.006C1438.49 695.091 1448.07 696.715 1455.51 699.175C1476.89 706.087 1491.35 724.376 1501.33 743.713C1501.55 744.338 1500.67 744.718 1500.37 744.204C1491.87 727.729 1480.1 711.661 1463.06 703.443C1455.67 699.911 1446.33 696.698 1438.05 698.455C1434.18 699.276 1430.95 701.306 1428.67 704.581C1425.62 709.268 1425.93 713.915 1427.87 718.987C1428.1 719.612 1427.15 720.103 1426.92 719.478Z" fill="#2B244A"/>
<path d="M1516.27 704.854C1518.65 703.387 1520.28 706.985 1521.29 708.598C1522.72 710.796 1523.85 712.481 1525.36 715.527C1525.16 717.301 1525.27 717.374 1524.96 719.075C1521.92 714.718 1513.04 706.885 1516.27 704.854Z" fill="#2B244A"/>
<path d="M1429.91 744.434C1435.16 742.453 1443.3 744.094 1447.37 745.154C1455.3 747.129 1462.72 750.364 1469.81 754.342C1486.13 764.156 1497.59 771.922 1502.08 786.746C1502.47 788.107 1508.82 794.456 1510.24 796.175C1512.97 799.539 1515.52 802.942 1518.11 806.53C1523.07 813.559 1527.62 820.963 1531.73 828.556C1539.92 844.039 1545.57 860.251 1549.76 877.257C1557.94 910.827 1560.37 945.424 1571.39 978.296C1576.05 992.121 1581.89 1005.6 1589.38 1018.25C1595.22 1028.07 1609.75 1048.95 1609.75 1048.95C1614.3 1056.35 1614.58 1067.64 1613.36 1077.33C1612.4 1086.38 1607.05 1102.43 1599.1 1098.05C1576.25 1085.1 1558.8 1070.43 1541.3 1050.96C1523.51 1054.16 1505.51 1055.47 1487.54 1052.84C1462.09 1049 1437.81 1037.03 1422.87 1015.57C1408.08 994.371 1401.43 964.807 1400.28 939.461C1399.07 911.531 1400.4 883.351 1403.37 855.594C1406.37 828.022 1412.8 787.6 1425.79 758.583C1425.79 758.583 1424.5 752.987 1425.17 749.768C1425.84 747.028 1427.59 745.31 1429.91 744.434Z" fill="#373349"/>
<path d="M1601.84 1038.41C1594.07 1027.64 1587.59 1016.13 1581.36 1004.46C1580.95 1003.88 1582.01 1003.46 1582.32 1003.97C1588.61 1015.53 1594.99 1026.97 1602.75 1037.73C1603.05 1038.24 1602.32 1038.88 1601.84 1038.41Z" fill="#8D84B8"/>
<path d="M1525.92 589.386C1529.05 588.722 1532.38 588.979 1535.16 590.312C1539.54 592.365 1545.28 600.383 1539.9 604.506C1535.91 607.468 1530.51 606.018 1526.6 603C1524.93 602.391 1523.22 601.599 1521.81 600.361C1519.94 598.832 1517.29 596.316 1518.37 593.682C1519.52 590.937 1523.53 589.894 1525.92 589.386Z" fill="#373349"/>
<path d="M1494.95 607.983C1491.62 605.82 1490.67 601.368 1492.84 598.04C1495 594.713 1499.45 593.768 1502.78 595.931C1506.11 598.094 1507.05 602.546 1504.89 605.873C1502.73 609.201 1498.27 610.146 1494.95 607.983Z" fill="#E0785E"/>
<path d="M1500.55 604.005C1501.53 602.738 1502.32 601.031 1500.98 599.681C1500.49 599.206 1501.3 598.459 1501.78 598.933C1503.39 600.612 1502.71 602.872 1501.4 604.401C1500.89 605.182 1500 604.602 1500.55 604.005Z" fill="#2B244A"/>
<path d="M1600.84 1003.79C1605.08 1002.89 1612.1 1000.15 1616.72 1000.62C1621.22 1001.01 1624.54 1003.96 1627.09 1006.88C1635.69 1016.6 1642.94 1027.19 1650.52 1037.51C1652.92 1040.65 1655.35 1043.98 1655.95 1047.71C1656.74 1051.87 1653.6 1054.75 1648.6 1053.88C1645.2 1053.26 1642.48 1051.33 1639.8 1049.59C1636.68 1047.56 1624.63 1037.03 1621.07 1035.67C1617.07 1034.02 1613.93 1033.72 1610.35 1034.1C1610.5 1031.18 1611.99 1028.65 1614.33 1027C1611.17 1018.44 1606.61 1010.55 1600.84 1003.79Z" fill="#F5E3D9"/>
<path d="M1425.8 677.483C1426.83 676.401 1426.83 676.401 1427.7 675.542C1427.14 678.353 1427.89 678.677 1427.66 681.227C1424.5 685.841 1421.2 691.158 1419.73 694.645C1412.58 711.745 1415.62 728.321 1421.17 742.247C1416.93 746.32 1413.34 751.123 1410.22 756.401C1405.36 741.176 1401.45 725.939 1405.66 710.423C1410.09 694.093 1417.19 685.852 1425.8 677.483Z" fill="#373349"/>
<path d="M1447.95 652.198C1440.42 655.239 1432.61 659.685 1429.31 667.697C1426.94 673.299 1427.93 679.341 1428.59 685.166C1428.63 685.83 1427.64 686.137 1427.48 685.4C1426.78 678.911 1425.78 672.389 1428.63 666.302C1432.19 658.62 1439.75 654.324 1447.28 651.283C1448.09 651.015 1448.58 651.969 1447.95 652.198Z" fill="#2B244A"/>
<path d="M1643.18 807.03C1636.98 816.331 1629.77 824.978 1619.57 829.933C1618.94 830.162 1618.45 829.208 1619.08 828.979C1629.1 824.064 1636.23 815.527 1642.18 806.377C1642.65 805.892 1643.55 806.472 1643.18 807.03Z" fill="#2B244A"/>
<path d="M1681 887.8C1677.38 881.641 1673.7 875.593 1669.75 869.696C1669.34 869.11 1670.29 868.619 1670.71 869.205C1674.58 875.214 1678.45 881.223 1681.95 887.309C1682.37 887.895 1681.41 888.386 1681 887.8Z" fill="#2B244A"/>
<path d="M1320.07 847.963C1315.94 851.148 1311.85 854.518 1307.86 857.961C1307.39 858.446 1306.64 857.643 1307.11 857.157C1311.1 853.715 1315.12 850.456 1319.25 847.271C1319.91 846.746 1320.66 847.55 1320.07 847.963Z" fill="#2B244A"/>
<path d="M1314.4 839.354C1311.11 841.976 1307.74 844.71 1304.56 847.405C1303.98 847.817 1303.34 847.087 1303.82 846.601C1307.11 843.979 1310.47 841.245 1313.65 838.55C1314.24 838.138 1314.91 839.052 1314.4 839.354Z" fill="#2B244A"/>
<path d="M1540.59 1050.82C1518.47 1027.23 1497.21 1002.3 1481.71 973.655C1474.65 960.817 1468.88 947.226 1464.73 933.099C1460.69 919.045 1458.61 904.674 1457.85 890.212C1456.94 872.32 1457.24 854.265 1459.25 836.523C1459.39 835.821 1460.46 835.882 1460.32 836.585C1458.66 851.85 1458.1 867.36 1458.57 882.747C1458.97 897.766 1460.4 912.663 1464.19 927.347C1471.95 957.157 1487.26 984.406 1505.81 1008.85C1516.87 1023.34 1528.92 1037.04 1541.33 1050.18C1541.88 1050.55 1541.08 1051.29 1540.59 1050.82Z" fill="#8D84B8"/>
<path d="M1501.2 786.646C1489.3 776.374 1476.72 766.923 1462.14 760.781C1450.93 756.039 1437.35 752.764 1426.39 759.61C1425.81 760.022 1425.31 759.068 1425.9 758.655C1436.6 751.96 1450.25 754.644 1461.23 759.241C1476.51 765.523 1489.66 775.337 1502.11 785.971C1502.49 786.372 1501.68 787.12 1501.2 786.646Z" fill="#8D84B8"/>
<path d="M1652.21 1052.73C1655.02 1046.94 1647.97 1040.93 1644.71 1036.91C1641.61 1033.14 1638.57 1029.27 1635.46 1025.5C1629.1 1017.71 1622.8 1009.81 1616.44 1002.02C1616.02 1001.44 1616.76 1000.8 1617.24 1001.28C1625.07 1010.97 1632.86 1020.47 1640.69 1030.17C1644.36 1034.77 1648.47 1039.19 1651.81 1044.06C1653.76 1046.92 1654.72 1050.08 1653.1 1053.31C1652.85 1053.94 1651.96 1053.36 1652.21 1052.73Z" fill="#2B244A"/>
<path d="M1636.87 1048C1638.91 1036.31 1622.23 1030.23 1613.49 1027.57C1612.86 1027.31 1613.14 1026.39 1613.84 1026.53C1622.99 1029.3 1640.05 1035.78 1637.94 1048.06C1637.8 1048.77 1636.73 1048.7 1636.87 1048Z" fill="#2B244A"/>
<path d="M1620.15 1007.3C1618.21 1008.09 1615.57 1007.02 1613.79 1006.34C1611.57 1005.37 1609.85 1004.09 1608.58 1002.15C1608.16 1001.57 1609.12 1001.08 1609.53 1001.66C1610.55 1003.27 1612.04 1004.4 1613.74 1005.19C1615.23 1005.84 1618.08 1007.06 1619.66 1006.34C1620.29 1006.11 1620.78 1007.07 1620.15 1007.3Z" fill="#2B244A"/>
<path d="M1486.78 616.641C1484.77 618.51 1481.98 619.872 1479.58 619.42L1480.56 615.459C1482.49 615.916 1484.41 615.894 1486.4 615.76C1486.88 615.754 1487.11 616.379 1486.78 616.641Z" fill="#2B244A"/>
<path d="M1493.07 583.272C1491.65 584.728 1493.76 585.626 1494.27 588.02C1494.74 590.229 1495.57 591.401 1496.7 590.871C1497.91 590.229 1498.44 587.713 1497.01 585.035C1495.61 582.541 1494.2 582.262 1493.07 583.272Z" fill="#2B244A"/>
<path d="M1491.87 587.568C1492.99 588.773 1490.97 590.162 1490.09 590.542C1489.47 590.77 1488.73 590.927 1488.25 590.453C1487.5 589.649 1488.63 588.639 1489.29 588.115C1489.95 587.59 1491.12 586.765 1491.87 587.568Z" fill="#2B244A"/>
<path d="M1478.49 596.177C1478.97 595.691 1479.44 595.206 1479.84 594.832C1480.59 595.636 1481.56 596.584 1483.05 597.711C1480.92 598.068 1479.07 597.979 1477.44 597.555C1477.69 596.924 1478.09 596.551 1478.49 596.177Z" fill="white"/>
<path d="M1496.52 606.783C1495.94 607.676 1496.17 608.78 1497.07 609.36C1497.96 609.941 1499.06 609.706 1499.64 608.814C1500.22 607.921 1499.99 606.816 1499.1 606.236C1498.32 605.728 1497.1 605.89 1496.52 606.783Z" fill="#FFBE63"/>
<path d="M1496.52 606.783C1495.94 607.676 1496.17 608.78 1497.07 609.36C1497.96 609.941 1499.06 609.706 1499.64 608.814C1500.22 607.921 1499.99 606.816 1499.1 606.236C1498.32 605.728 1497.1 605.89 1496.52 606.783Z" fill="#FFBE63"/>
<path d="M1535.6 605.996C1533.16 602.665 1529.86 601.153 1526.99 598.492C1524.6 596.305 1523.13 593.443 1521.84 590.542C1521.61 589.917 1522.56 589.426 1522.79 590.051C1524.64 593.794 1526.34 596.802 1529.84 599.234C1532.44 601.086 1534.6 602.649 1536.41 605.248C1536.82 605.834 1536.09 606.47 1535.6 605.996Z" fill="#8D84B8"/>
<path d="M1653.4 917.929C1655.97 916.422 1659.3 917.639 1661.24 919.536C1666.81 924.897 1668.1 934.147 1670.17 941.211C1671.21 944.742 1671.03 951.61 1665.37 950.31C1661.63 949.468 1658.95 944.553 1657.07 941.585C1654.36 937.445 1652.21 932.708 1650.97 927.776C1650.19 924.574 1649.99 919.999 1653.4 917.929Z" fill="#F576A6"/>
<path d="M1388.96 677.658C1388.3 678.842 1387.29 679.776 1386.08 680.081C1385.03 680.3 1383.72 680.016 1382.75 679.561C1376.16 676.584 1367.17 663.316 1373.51 656.699C1377.35 652.627 1383.19 656.199 1385.99 659.627C1389.35 663.935 1391.35 671.579 1389.33 676.94C1389.29 677.067 1389.21 677.32 1388.96 677.658Z" fill="#F576A6"/>
<path d="M1294.88 343.036C1293.83 344.908 1292.25 346.386 1290.32 346.868C1288.66 347.214 1286.59 346.765 1285.06 346.045C1274.63 341.336 1260.41 320.346 1270.45 309.879C1276.52 303.438 1285.75 309.089 1290.19 314.512C1295.51 321.326 1298.67 333.418 1295.47 341.899C1295.41 342.099 1295.28 342.5 1294.88 343.036Z" fill="#F576A6"/>
<path d="M1521.64 434.327C1520.36 436.598 1518.44 438.389 1516.11 438.973C1514.09 439.393 1511.58 438.849 1509.72 437.976C1497.08 432.267 1479.84 406.818 1492.01 394.127C1499.37 386.318 1510.57 393.17 1515.95 399.745C1522.39 408.007 1526.22 422.666 1522.35 432.949C1522.27 433.192 1522.12 433.678 1521.64 434.327Z" fill="#FFBE63"/>
</g>
<path d="M1657.25 309.001L1264.16 213.627C1243.37 208.581 1222.33 220.984 1216.67 241.623L1043.69 872.783C1037.84 894.149 1050.66 916.16 1072.14 921.601L1496.34 1029.09C1517.99 1034.57 1539.89 1021.06 1544.7 999.25L1686.56 355.978C1691.2 334.952 1678.17 314.077 1657.25 309.001Z" stroke="white" stroke-opacity="0.4" stroke-width="0.857863"/>
<path d="M1306.33 431.909L1310.04 432.808C1311.39 433.137 1312.66 433.24 1313.85 433.119C1315.04 432.997 1316.1 432.682 1317.05 432.175C1317.98 431.677 1318.76 431.005 1319.4 430.16C1320.05 429.317 1320.51 428.337 1320.78 427.221C1321.07 426.025 1321.12 424.886 1320.94 423.805C1320.77 422.726 1320.39 421.741 1319.79 420.85C1319.19 419.967 1318.39 419.2 1317.39 418.547C1316.39 417.883 1315.21 417.387 1313.86 417.058L1305.35 414.994L1299.32 439.866L1304.12 441.031L1306.33 431.909ZM1307.28 428.014L1309.21 420.054L1312.91 420.953C1313.6 421.119 1314.16 421.371 1314.61 421.709C1315.06 422.047 1315.41 422.445 1315.66 422.904C1315.9 423.36 1316.04 423.857 1316.08 424.397C1316.12 424.94 1316.08 425.501 1315.94 426.082C1315.82 426.583 1315.61 427.047 1315.33 427.472C1315.06 427.889 1314.72 428.234 1314.3 428.507C1313.87 428.777 1313.38 428.954 1312.83 429.037C1312.28 429.12 1311.67 429.079 1310.98 428.913L1307.28 428.014Z" fill="#F576A6"/>
<path d="M1337.01 443.513L1337.2 449.058L1342.26 450.285L1340.3 423.473L1335.94 422.416L1321.76 445.312L1326.82 446.538L1329.55 441.702L1337.01 443.513ZM1331.71 437.905L1336.55 429.383L1336.87 439.157L1331.71 437.905Z" fill="#F576A6"/>
<path d="M1369.23 434.616L1370.17 430.721L1354.06 426.813L1348.03 451.685L1355.65 453.534C1357.08 453.882 1358.42 454 1359.65 453.89C1360.89 453.781 1362 453.477 1362.96 452.976C1363.92 452.471 1364.72 451.787 1365.38 450.921C1366.04 450.044 1366.51 449.013 1366.8 447.828C1367.08 446.667 1367.13 445.557 1366.94 444.498C1366.75 443.439 1366.34 442.478 1365.72 441.616C1365.09 440.75 1364.24 439.996 1363.18 439.352C1362.13 438.7 1360.89 438.2 1359.45 437.852L1356.65 437.172L1357.94 431.877L1369.23 434.616ZM1355.71 441.033L1358.52 441.713C1359.27 441.895 1359.89 442.155 1360.39 442.493C1360.9 442.822 1361.3 443.203 1361.6 443.635C1361.87 444.077 1362.04 444.552 1362.1 445.06C1362.17 445.571 1362.14 446.094 1362.01 446.63C1361.87 447.188 1361.65 447.695 1361.35 448.152C1361.06 448.612 1360.68 448.985 1360.23 449.273C1359.76 449.557 1359.22 449.74 1358.61 449.821C1358.01 449.905 1357.34 449.855 1356.58 449.673L1353.78 448.993L1355.71 441.033Z" fill="#F576A6"/>
<path d="M1392.47 451.235L1393.35 447.613C1393.62 446.486 1393.77 445.395 1393.8 444.34C1393.84 443.288 1393.76 442.292 1393.56 441.353C1393.38 440.524 1393.11 439.74 1392.74 439.001C1392.39 438.265 1391.93 437.598 1391.36 437.003C1390.8 436.384 1390.13 435.853 1389.34 435.409C1388.57 434.957 1387.71 434.615 1386.75 434.383C1385.81 434.153 1384.9 434.06 1384.04 434.103C1383.17 434.146 1382.36 434.311 1381.6 434.598C1380.83 434.893 1380.11 435.297 1379.44 435.811C1378.79 436.327 1378.19 436.935 1377.64 437.635C1377.08 438.378 1376.58 439.216 1376.15 440.148C1375.73 441.083 1375.39 442.098 1375.12 443.191L1374.24 446.812C1373.99 447.837 1373.84 448.83 1373.77 449.791C1373.72 450.755 1373.76 451.669 1373.89 452.532C1374.03 453.472 1374.28 454.347 1374.64 455.157C1375 455.956 1375.45 456.675 1376 457.314C1376.56 457.932 1377.22 458.466 1377.98 458.916C1378.74 459.365 1379.6 459.707 1380.57 459.942C1381.48 460.163 1382.36 460.255 1383.2 460.218C1384.05 460.195 1384.85 460.065 1385.61 459.826C1386.45 459.548 1387.24 459.136 1387.97 458.591C1388.71 458.045 1389.37 457.41 1389.95 456.684C1390.52 455.952 1391.01 455.132 1391.44 454.222C1391.87 453.301 1392.21 452.305 1392.47 451.235ZM1388.49 446.398L1387.6 450.053C1387.45 450.668 1387.27 451.252 1387.07 451.805C1386.87 452.361 1386.65 452.863 1386.41 453.31C1386.1 453.887 1385.75 454.387 1385.36 454.81C1384.98 455.225 1384.56 455.545 1384.1 455.77C1383.73 455.957 1383.33 456.07 1382.89 456.11C1382.46 456.15 1382.01 456.112 1381.53 455.996C1381.03 455.875 1380.6 455.692 1380.23 455.447C1379.88 455.205 1379.59 454.91 1379.34 454.562C1379.09 454.174 1378.89 453.705 1378.76 453.155C1378.65 452.596 1378.6 451.999 1378.62 451.365C1378.62 450.859 1378.67 450.322 1378.76 449.753C1378.85 449.183 1378.96 448.597 1379.11 447.994L1380 444.338C1380.15 443.7 1380.32 443.096 1380.51 442.527C1380.71 441.96 1380.92 441.445 1381.16 440.983C1381.46 440.381 1381.8 439.873 1382.18 439.458C1382.57 439.046 1382.99 438.728 1383.46 438.503C1383.79 438.356 1384.15 438.268 1384.53 438.24C1384.93 438.214 1385.34 438.255 1385.79 438.363C1386.26 438.476 1386.66 438.641 1387.01 438.858C1387.36 439.077 1387.67 439.338 1387.92 439.64C1388.23 440.041 1388.47 440.522 1388.64 441.08C1388.81 441.628 1388.9 442.23 1388.92 442.886C1388.94 443.409 1388.91 443.968 1388.82 444.562C1388.75 445.148 1388.64 445.76 1388.49 446.398Z" fill="#F576A6"/>
<path d="M1419.96 442.802L1415.14 441.633L1412.35 453.163C1411.7 453.176 1411.04 453.143 1410.36 453.062C1409.7 452.973 1409.14 452.874 1408.7 452.767C1408.14 452.631 1407.67 452.451 1407.29 452.227C1406.92 451.99 1406.63 451.674 1406.44 451.277C1406.24 450.892 1406.14 450.41 1406.14 449.83C1406.14 449.253 1406.25 448.549 1406.45 447.717L1408.33 439.979L1403.53 438.814L1401.65 446.553C1401.31 447.976 1401.19 449.252 1401.32 450.379C1401.46 451.498 1401.8 452.474 1402.35 453.305C1402.88 454.135 1403.6 454.829 1404.52 455.388C1405.45 455.939 1406.52 456.363 1407.75 456.662C1408.18 456.764 1408.73 456.855 1409.41 456.936C1410.1 457.008 1410.77 457.037 1411.41 457.024L1409.11 466.505L1413.93 467.674L1419.96 442.802Z" fill="#F576A6"/>
<path d="M1435.05 467.3L1435.24 472.845L1440.3 474.072L1438.34 447.26L1433.98 446.203L1419.8 469.099L1424.86 470.325L1427.59 465.489L1435.05 467.3ZM1429.75 461.692L1434.59 453.17L1434.91 462.944L1429.75 461.692Z" fill="#F576A6"/>
<path d="M1456.83 478.083L1461.65 479.252L1467.68 454.38L1459.65 452.432C1458.25 452.092 1456.95 451.945 1455.75 451.99C1454.54 452.024 1453.48 452.253 1452.54 452.678C1451.59 453.099 1450.8 453.714 1450.16 454.523C1449.51 455.332 1449.05 456.334 1448.76 457.53C1448.52 458.51 1448.45 459.428 1448.56 460.286C1448.68 461.146 1448.95 461.949 1449.39 462.693C1449.62 463.075 1449.89 463.448 1450.2 463.813C1450.52 464.169 1450.88 464.509 1451.27 464.833L1443.17 474.768L1448.31 476.015L1455.36 467.363L1459.21 468.295L1456.83 478.083ZM1453.49 458.985C1453.63 458.416 1453.83 457.928 1454.1 457.523C1454.37 457.106 1454.71 456.778 1455.11 456.54C1455.55 456.295 1456.06 456.155 1456.66 456.119C1457.26 456.073 1457.95 456.142 1458.71 456.327L1461.92 457.106L1460.1 464.622L1456.89 463.843C1456.13 463.661 1455.5 463.422 1454.98 463.127C1454.47 462.824 1454.08 462.463 1453.8 462.044C1453.54 461.645 1453.39 461.192 1453.33 460.683C1453.28 460.178 1453.34 459.612 1453.49 458.985Z" fill="#F576A6"/>
<path d="M1263.69 451.217L1264.64 447.305L1244.58 442.439L1243.63 446.351L1251.2 448.187L1246.11 469.147L1250.93 470.316L1256.02 449.356L1263.69 451.217Z" fill="#F576A6"/>
<path d="M1282.78 466.504L1283.7 462.712L1273.49 460.233L1275.01 453.964L1286.9 456.848L1287.85 452.937L1271.14 448.883L1265.11 473.755L1281.86 477.821L1282.8 473.943L1270.86 471.046L1272.57 464.025L1282.78 466.504Z" fill="#F576A6"/>
<path d="M1312.71 463.11L1313.66 459.198L1293.6 454.332L1292.65 458.244L1300.22 460.08L1295.13 481.041L1299.95 482.209L1305.04 461.249L1312.71 463.11Z" fill="#F576A6"/>
<path d="M1321.17 477.7L1324.88 478.599C1326.24 478.928 1327.51 479.031 1328.69 478.909C1329.88 478.787 1330.95 478.473 1331.89 477.966C1332.82 477.468 1333.6 476.796 1334.24 475.95C1334.89 475.107 1335.35 474.128 1335.62 473.012C1335.91 471.816 1335.97 470.677 1335.78 469.596C1335.61 468.517 1335.23 467.532 1334.64 466.64C1334.03 465.758 1333.23 464.99 1332.23 464.338C1331.23 463.674 1330.06 463.178 1328.7 462.849L1320.19 460.785L1314.16 485.657L1318.96 486.822L1321.17 477.7ZM1322.12 473.805L1324.05 465.844L1327.76 466.744C1328.44 466.91 1329.01 467.161 1329.45 467.499C1329.9 467.837 1330.25 468.236 1330.5 468.694C1330.74 469.15 1330.88 469.648 1330.92 470.188C1330.97 470.73 1330.92 471.292 1330.78 471.873C1330.66 472.374 1330.46 472.837 1330.17 473.263C1329.9 473.68 1329.56 474.025 1329.14 474.297C1328.72 474.568 1328.23 474.744 1327.68 474.828C1327.13 474.911 1326.51 474.87 1325.83 474.704L1322.12 473.805Z" fill="#F576A6"/>
<path d="M1351.85 489.304L1352.05 494.849L1357.1 496.076L1355.14 469.264L1350.79 468.207L1336.6 491.102L1341.66 492.329L1344.39 487.492L1351.85 489.304ZM1346.56 483.696L1351.39 475.174L1351.72 484.947L1346.56 483.696Z" fill="#F576A6"/>
<path d="M1378.27 507.686L1381.37 497.876L1379.54 497.433L1384.64 476.421L1372.36 473.441L1369.2 483.456C1369.04 484.032 1368.88 484.577 1368.72 485.093C1368.57 485.611 1368.41 486.098 1368.25 486.554C1367.93 487.5 1367.61 488.334 1367.3 489.055C1367 489.776 1366.68 490.394 1366.37 490.907C1365.9 491.687 1365.41 492.274 1364.91 492.67C1364.4 493.065 1363.85 493.336 1363.26 493.483L1362.34 493.259L1360.67 503.417L1364.72 504.4L1366.2 498.284L1375.62 500.568L1374.13 506.683L1378.27 507.686ZM1374.02 484.625L1375.96 478.438L1378.91 479.155L1374.76 496.272L1369.38 494.966C1369.79 494.475 1370.19 493.909 1370.59 493.27C1370.98 492.619 1371.38 491.87 1371.76 491.023C1371.97 490.556 1372.19 490.053 1372.4 489.514C1372.62 488.975 1372.83 488.405 1373.03 487.804C1373.2 487.325 1373.36 486.823 1373.53 486.296C1373.69 485.769 1373.85 485.212 1374.02 484.625Z" fill="#F576A6"/>
<path d="M1396 488.91L1398.23 479.719L1393.42 478.551L1387.38 503.423L1395 505.271C1396.44 505.619 1397.77 505.738 1399 505.627C1400.25 505.519 1401.35 505.214 1402.32 504.713C1403.27 504.209 1404.08 503.524 1404.73 502.658C1405.39 501.781 1405.87 500.75 1406.15 499.566C1406.43 498.404 1406.48 497.294 1406.29 496.235C1406.1 495.176 1405.7 494.216 1405.07 493.353C1404.44 492.488 1403.59 491.733 1402.53 491.09C1401.48 490.438 1400.24 489.938 1398.81 489.59L1396 488.91ZM1395.07 492.77L1397.87 493.45C1398.62 493.633 1399.25 493.893 1399.74 494.23C1400.25 494.559 1400.65 494.94 1400.95 495.373C1401.23 495.814 1401.39 496.289 1401.45 496.798C1401.52 497.309 1401.49 497.832 1401.36 498.367C1401.23 498.925 1401.01 499.433 1400.7 499.89C1400.41 500.349 1400.04 500.723 1399.58 501.01C1399.11 501.295 1398.57 501.478 1397.96 501.559C1397.36 501.642 1396.69 501.593 1395.94 501.411L1393.14 500.731L1395.07 492.77Z" fill="#F576A6"/>
<path d="M1451.8 525.527L1454.9 515.716L1453.07 515.273L1458.17 494.261L1445.89 491.281L1442.73 501.297C1442.57 501.872 1442.41 502.417 1442.25 502.933C1442.1 503.451 1441.94 503.939 1441.78 504.394C1441.46 505.34 1441.14 506.174 1440.83 506.895C1440.53 507.616 1440.21 508.234 1439.9 508.748C1439.43 509.527 1438.94 510.114 1438.44 510.51C1437.93 510.906 1437.38 511.177 1436.79 511.323L1435.87 511.099L1434.2 521.258L1438.25 522.24L1439.73 516.125L1449.15 518.408L1447.66 524.524L1451.8 525.527ZM1447.55 502.466L1449.49 496.279L1452.44 496.996L1448.29 514.112L1442.91 512.807C1443.32 512.315 1443.72 511.75 1444.12 511.11C1444.51 510.459 1444.91 509.71 1445.29 508.864C1445.5 508.396 1445.72 507.893 1445.93 507.354C1446.15 506.816 1446.36 506.246 1446.56 505.644C1446.73 505.166 1446.89 504.663 1447.06 504.136C1447.22 503.609 1447.38 503.052 1447.55 502.466Z" fill="#F576A6"/>
<path d="M1483.55 500.42L1468.81 496.843L1465.55 509.835C1465.41 510.367 1465.27 510.871 1465.15 511.347C1465.02 511.811 1464.9 512.245 1464.77 512.65C1464.56 513.37 1464.36 513.996 1464.16 514.526C1463.96 515.056 1463.75 515.501 1463.54 515.86C1463.2 516.428 1462.8 516.82 1462.35 517.037C1461.9 517.253 1461.4 517.293 1460.84 517.158L1460.28 517.021L1459.34 520.882L1460.54 521.172C1461.68 521.448 1462.72 521.479 1463.68 521.265C1464.64 521.051 1465.51 520.54 1466.31 519.733C1466.69 519.356 1467.05 518.907 1467.4 518.387C1467.75 517.87 1468.09 517.282 1468.4 516.624C1468.6 516.224 1468.79 515.799 1468.97 515.349C1469.15 514.899 1469.33 514.417 1469.5 513.904C1469.64 513.469 1469.78 513.009 1469.92 512.524C1470.07 512.04 1470.21 511.532 1470.35 510.999L1472.65 501.898L1477.79 503.146L1472.7 524.123L1477.52 525.292L1483.55 500.42Z" fill="#F576A6"/>
<path d="M1496.18 529.821L1501 530.99L1507.04 506.118L1499.01 504.17C1497.61 503.83 1496.3 503.683 1495.1 503.728C1493.9 503.762 1492.83 503.991 1491.89 504.415C1490.95 504.837 1490.15 505.452 1489.51 506.261C1488.87 507.07 1488.4 508.072 1488.11 509.268C1487.87 510.247 1487.81 511.166 1487.91 512.023C1488.03 512.884 1488.31 513.686 1488.74 514.431C1488.97 514.813 1489.24 515.186 1489.55 515.551C1489.88 515.906 1490.23 516.246 1490.63 516.571L1482.52 526.505L1487.66 527.753L1494.72 519.1L1498.56 520.033L1496.18 529.821ZM1492.84 510.723C1492.98 510.153 1493.18 509.666 1493.45 509.26C1493.72 508.844 1494.06 508.516 1494.47 508.277C1494.9 508.032 1495.41 507.892 1496.01 507.857C1496.62 507.81 1497.3 507.879 1498.06 508.064L1501.27 508.844L1499.45 516.36L1496.24 515.581C1495.49 515.398 1494.85 515.16 1494.33 514.865C1493.83 514.562 1493.43 514.2 1493.15 513.782C1492.9 513.383 1492.74 512.929 1492.68 512.421C1492.64 511.915 1492.69 511.349 1492.84 510.723Z" fill="#F576A6"/>
<path d="M1287.11 511.081L1287.99 507.459C1288.27 506.332 1288.42 505.241 1288.44 504.186C1288.48 503.134 1288.4 502.139 1288.21 501.199C1288.02 500.37 1287.75 499.586 1287.39 498.847C1287.04 498.111 1286.58 497.444 1286.01 496.849C1285.45 496.23 1284.77 495.699 1283.99 495.255C1283.22 494.803 1282.36 494.461 1281.4 494.229C1280.45 494 1279.55 493.906 1278.68 493.949C1277.81 493.992 1277 494.157 1276.25 494.444C1275.47 494.739 1274.76 495.143 1274.09 495.657C1273.43 496.173 1272.83 496.781 1272.29 497.481C1271.72 498.224 1271.22 499.062 1270.79 499.994C1270.37 500.929 1270.03 501.944 1269.77 503.037L1268.89 506.658C1268.64 507.683 1268.48 508.676 1268.42 509.638C1268.36 510.601 1268.4 511.515 1268.53 512.378C1268.68 513.318 1268.93 514.193 1269.29 515.003C1269.65 515.802 1270.1 516.521 1270.64 517.16C1271.21 517.778 1271.87 518.312 1272.62 518.762C1273.38 519.211 1274.25 519.554 1275.22 519.788C1276.13 520.009 1277 520.101 1277.84 520.064C1278.69 520.041 1279.5 519.911 1280.25 519.672C1281.09 519.394 1281.88 518.982 1282.62 518.437C1283.35 517.891 1284.01 517.256 1284.6 516.53C1285.16 515.798 1285.66 514.978 1286.08 514.068C1286.51 513.147 1286.85 512.151 1287.11 511.081ZM1283.13 506.244L1282.25 509.9C1282.1 510.515 1281.92 511.098 1281.71 511.651C1281.52 512.207 1281.3 512.709 1281.06 513.157C1280.75 513.733 1280.4 514.233 1280.01 514.656C1279.63 515.071 1279.21 515.391 1278.74 515.616C1278.37 515.803 1277.97 515.917 1277.54 515.957C1277.11 515.996 1276.65 515.958 1276.17 515.842C1275.67 515.721 1275.24 515.538 1274.88 515.293C1274.53 515.051 1274.23 514.756 1273.99 514.408C1273.73 514.02 1273.54 513.551 1273.41 513.001C1273.29 512.442 1273.24 511.845 1273.26 511.211C1273.27 510.705 1273.31 510.168 1273.4 509.599C1273.49 509.03 1273.61 508.443 1273.76 507.84L1274.64 504.184C1274.8 503.546 1274.97 502.943 1275.15 502.373C1275.35 501.806 1275.57 501.291 1275.8 500.829C1276.1 500.227 1276.44 499.719 1276.82 499.304C1277.21 498.892 1277.64 498.574 1278.1 498.349C1278.44 498.202 1278.8 498.114 1279.18 498.086C1279.57 498.06 1279.99 498.101 1280.43 498.209C1280.9 498.322 1281.31 498.487 1281.65 498.704C1282.01 498.923 1282.31 499.184 1282.57 499.486C1282.88 499.887 1283.12 500.368 1283.28 500.926C1283.45 501.474 1283.55 502.076 1283.57 502.732C1283.59 503.255 1283.55 503.814 1283.47 504.408C1283.4 504.994 1283.29 505.606 1283.13 506.244Z" fill="#F576A6"/>
<path d="M1312.89 506.356L1313.84 502.461L1297.73 498.553L1291.69 523.425L1299.31 525.273C1300.75 525.622 1302.08 525.74 1303.31 525.629C1304.56 525.521 1305.66 525.216 1306.63 524.715C1307.58 524.211 1308.39 523.526 1309.05 522.66C1309.7 521.783 1310.18 520.753 1310.46 519.568C1310.75 518.407 1310.79 517.296 1310.6 516.237C1310.41 515.179 1310.01 514.218 1309.39 513.355C1308.75 512.49 1307.9 511.736 1306.84 511.092C1305.79 510.44 1304.55 509.94 1303.12 509.592L1300.32 508.912L1301.6 503.616L1312.89 506.356ZM1299.38 512.773L1302.18 513.452C1302.93 513.635 1303.56 513.895 1304.05 514.232C1304.57 514.561 1304.97 514.942 1305.26 515.375C1305.54 515.816 1305.71 516.291 1305.76 516.8C1305.83 517.311 1305.8 517.834 1305.67 518.369C1305.54 518.927 1305.32 519.435 1305.01 519.892C1304.72 520.351 1304.35 520.725 1303.89 521.012C1303.43 521.297 1302.89 521.48 1302.28 521.561C1301.68 521.644 1301 521.595 1300.25 521.413L1297.45 520.733L1299.38 512.773Z" fill="#F576A6"/>
<path d="M1315.63 529.034C1316 529.231 1316.47 529.466 1317.06 529.741C1317.65 530.03 1318.35 530.272 1319.16 530.468C1320.16 530.711 1321.06 530.786 1321.87 530.692C1322.68 530.599 1323.42 530.386 1324.09 530.054C1324.75 529.72 1325.35 529.292 1325.88 528.771C1326.43 528.253 1326.93 527.694 1327.39 527.094L1341.13 509.083L1335.9 507.815L1328.36 518.501L1327.52 519.692L1327.02 514.976L1325.23 505.225L1320.04 503.965L1324.36 524.007L1323.63 524.95C1323.41 525.284 1323.17 525.574 1322.89 525.821C1322.63 526.058 1322.32 526.244 1321.98 526.377C1321.63 526.51 1321.24 526.584 1320.8 526.598C1320.36 526.613 1319.87 526.554 1319.33 526.421C1318.89 526.316 1318.44 526.151 1317.96 525.927C1317.5 525.706 1317.13 525.514 1316.85 525.351L1315.63 529.034Z" fill="#F576A6"/>
<path d="M1363.63 514.541L1358.81 513.372L1356.01 524.903C1355.37 524.916 1354.71 524.882 1354.03 524.802C1353.36 524.713 1352.81 524.614 1352.36 524.506C1351.81 524.371 1351.34 524.191 1350.96 523.966C1350.58 523.73 1350.3 523.414 1350.1 523.017C1349.91 522.632 1349.81 522.149 1349.8 521.57C1349.81 520.993 1349.91 520.288 1350.12 519.457L1351.99 511.719L1347.19 510.554L1345.32 518.292C1344.97 519.716 1344.86 520.991 1344.98 522.119C1345.12 523.238 1345.46 524.213 1346.01 525.045C1346.54 525.874 1347.27 526.568 1348.18 527.128C1349.11 527.678 1350.19 528.103 1351.42 528.401C1351.84 528.503 1352.39 528.595 1353.07 528.675C1353.76 528.747 1354.43 528.777 1355.07 528.764L1352.77 538.245L1357.59 539.413L1363.63 514.541Z" fill="#F576A6"/>
<path d="M1383.17 534.08L1384.09 530.288L1373.88 527.809L1375.4 521.54L1387.29 524.425L1388.24 520.513L1371.53 516.459L1365.5 541.331L1382.26 545.397L1383.2 541.52L1371.26 538.623L1372.96 531.602L1383.17 534.08Z" fill="#F576A6"/>
<path d="M1406.15 551.195L1412.19 526.323L1407.44 525.171L1404.96 535.369L1397.92 533.661L1400.4 523.463L1395.63 522.307L1389.6 547.179L1394.36 548.335L1396.98 537.556L1404.02 539.264L1401.4 550.043L1406.15 551.195Z" fill="#F576A6"/>
<path d="M1431.79 531.08L1420.88 545.255L1424.74 529.368L1419.94 528.204L1413.9 553.076L1418.7 554.24L1429.61 540.083L1425.76 555.952L1430.58 557.121L1436.61 532.249L1431.79 531.08Z" fill="#F576A6"/>
<path d="M1449.52 561.717L1454.33 562.885L1460.37 538.013L1452.34 536.065C1450.94 535.725 1449.64 535.578 1448.43 535.624C1447.23 535.657 1446.16 535.887 1445.23 536.311C1444.28 536.732 1443.48 537.348 1442.84 538.156C1442.2 538.965 1441.73 539.968 1441.44 541.163C1441.21 542.143 1441.14 543.061 1441.25 543.919C1441.36 544.779 1441.64 545.582 1442.07 546.326C1442.3 546.708 1442.58 547.082 1442.89 547.446C1443.21 547.802 1443.57 548.142 1443.96 548.466L1435.85 558.401L1440.99 559.648L1448.05 550.996L1451.89 551.928L1449.52 561.717ZM1446.17 542.618C1446.31 542.049 1446.51 541.562 1446.78 541.156C1447.05 540.739 1447.39 540.411 1447.8 540.173C1448.23 539.928 1448.75 539.788 1449.35 539.753C1449.95 539.706 1450.63 539.775 1451.39 539.96L1454.61 540.739L1452.78 548.256L1449.57 547.476C1448.82 547.294 1448.18 547.055 1447.66 546.761C1447.16 546.457 1446.76 546.096 1446.48 545.677C1446.23 545.278 1446.07 544.825 1446.01 544.316C1445.97 543.811 1446.02 543.245 1446.17 542.618Z" fill="#F576A6"/>
</svg>
