<svg width="290" height="348" viewBox="0 0 290 348" fill="none" xmlns="http://www.w3.org/2000/svg">
<path d="M36.6617 167.126C35.2029 162.875 30.8265 161.978 28.2383 158.86C25.2265 155.176 25.7441 150.17 22.45 146.675C20.9441 145.069 18.9677 144.077 16.9913 143.274C14.6383 142.282 12.1442 141.479 10.0266 140.015C7.62659 138.314 6.30892 135.669 4.47363 133.449C1.93246 130.332 -2.96166 128.159 -5.78518 132.221C-8.32634 135.858 -6.53814 140.298 -3.57344 142.99C0.567718 146.816 6.3089 148.139 10.2148 152.342C13.603 155.979 15.7207 160.608 18.403 164.765C20.4736 168.024 23.7206 172.652 28.003 173.739C32.1441 174.778 38.5441 172.747 36.6617 167.126Z" fill="#FFBE63"/>
<path d="M291.515 292.936C292.694 294.27 293.923 295.655 295.512 296.527C297.817 297.861 301.66 298.066 303.197 295.45C303.76 294.526 303.863 293.398 303.402 292.372C302.531 290.422 300.277 289.755 298.996 288.165C297.612 286.523 296.126 284.624 293.821 284.471C291.567 284.317 288.851 285.702 288.903 288.267C288.954 290.165 290.388 291.653 291.515 292.936Z" fill="#587EE0"/>
<path d="M301.301 266.309C296.485 261.383 289.825 258.459 285.316 252.969C278.758 244.966 275.274 234.602 267.896 227.214C262.209 221.52 246.839 217.569 250.579 231.524C252.372 238.142 259.084 241.375 264.105 245.171C270.253 249.891 272.917 257.33 277.785 263.179C283.164 269.644 290.234 277.955 298.124 281.29C307.295 285.138 308.627 279.238 305.246 271.901C304.221 269.746 302.889 267.95 301.301 266.309Z" fill="#587EE0"/>
<path d="M288.134 248.096C286.956 246.608 285.675 245.12 284.086 244.043C283.062 243.376 279.731 241.785 279.117 243.683C278.963 244.248 279.117 244.812 279.27 245.377C280.295 248.301 282.293 250.969 284.24 253.329C285.316 254.663 288.697 258.562 290.696 257.741C293.667 256.51 290.542 251.687 289.517 250.148C289.107 249.43 288.646 248.763 288.134 248.096Z" fill="#FFBE63"/>
<path d="M280.346 48.6237C280.346 48.6237 274.165 41.1079 279.978 36.9816C283.584 34.4026 286.38 37.571 289.25 38.8974C292.561 40.4447 295.946 40.0026 297.123 41.8447C298.227 43.6132 297.712 44.8658 297.712 44.8658C297.712 44.8658 299.552 45.0869 300.435 46.7079C301.318 48.329 301.318 51.7922 293.812 58.6448C286.233 65.4975 280.346 48.6237 280.346 48.6237Z" fill="#252234"/>
<path d="M277.55 73.6763C277.55 73.6763 283.364 69.0342 288.735 66.0868C294.107 63.1394 304.556 59.6763 304.556 59.6763C304.556 59.6763 308.602 76.7711 318.978 89.8133C329.353 102.855 337.373 103.74 335.681 122.013C333.989 140.287 321.921 160.403 321.332 160.845C320.817 161.214 283.879 148.098 283.879 147.729C283.879 147.361 281.009 125.771 280.052 121.94C279.169 118.108 272.547 93.2765 272.547 92.6133C272.547 91.9501 273.062 82.2238 274.092 79.8659C275.343 77.5079 277.55 73.6763 277.55 73.6763Z" fill="#F5E3D9"/>
<path d="M281.524 62.1079L281.892 71.0237L293.665 64.9079L293.812 57.3921L281.524 62.1079Z" fill="#FFA67D"/>
<path d="M272.694 129.235C272.767 129.161 272.767 129.088 272.767 129.014C273.062 117.298 268.941 105.951 269.162 94.2348C269.309 86.7927 271.884 78.54 277.55 73.7505C274.313 83.1821 277.845 94.0138 281.524 103.003C284.173 109.488 287.043 116.045 288.073 123.046C289.029 129.751 288.514 136.53 286.675 142.94C282.407 137.93 277.771 133.361 272.694 129.235Z" fill="#F576A6"/>
<path d="M275.858 108.161C274.313 107.498 274.018 110.372 273.945 111.993C273.724 117.151 273.577 122.382 273.356 127.54C273.135 128.056 272.988 128.498 272.841 128.94C272.768 129.161 272.988 129.309 273.283 129.235C273.283 129.309 273.283 129.309 273.283 129.382C273.283 130.193 274.018 130.193 274.092 129.456C274.092 129.309 274.092 129.161 274.092 129.088C274.46 128.94 274.828 128.719 274.902 128.424C276.152 124.74 276.962 120.761 277.182 116.635C277.33 114.572 277.698 108.972 275.858 108.161Z" fill="#252234"/>
<path d="M197.934 179.193C197.934 179.193 197.86 179.193 197.934 179.193C197.713 179.045 197.492 178.971 197.345 179.119C180.274 176.835 163.055 176.54 145.911 178.161C143.703 178.824 141.569 179.487 139.435 180.298C133.549 189.877 123.1 195.477 112.798 199.456C106.691 201.814 100.363 203.73 94.3287 206.235C92.6363 206.898 91.0175 207.93 89.7666 209.256C88.9572 210.14 88.3686 211.172 88.2215 212.351C88.0743 213.751 88.5894 215.151 89.4724 216.256C91.7534 219.13 95.5061 220.382 98.9645 221.045C106.102 222.372 114.932 222.224 122.217 221.93C132.298 221.561 149.958 223.477 160.186 220.087C165.704 218.245 167.544 218.245 170.929 213.677C178.876 202.919 187.926 189.14 197.566 179.929C197.639 179.929 197.639 179.929 197.713 179.929C198.228 180.003 198.449 179.266 197.934 179.193Z" fill="#F5E3D9"/>
<path d="M370.191 253.688C363.79 243.225 358.639 231.878 355.843 219.867C352.679 206.604 353.341 192.972 352.237 179.414C351.354 167.919 348.852 155.835 341.862 146.477C334.062 151.782 326.409 157.161 318.242 161.877C312.061 165.488 305.585 168.582 299.184 171.751C294.622 174.035 290.059 176.393 285.939 179.488C300.287 200.193 303.819 228.267 311.472 251.551C315.519 263.857 321.479 274.983 329.868 284.93C338.771 295.541 349.514 304.457 360.405 312.931C372.987 322.657 386.453 332.457 397.858 343.731C406.983 335.626 412.649 319.857 415.592 297.752C410.147 287.73 402.715 280.288 397.564 276.162C386.895 267.688 378.948 267.983 370.191 253.688Z" fill="#252234"/>
<path d="M338.183 178.899C339.213 175.509 339.802 171.972 339.434 168.435C339.287 166.962 339.066 165.414 338.551 164.014C335.902 146.551 320.817 152.225 315.004 148.762C299.846 139.698 290.943 135.056 276.226 124.961C262.098 115.235 245.763 101.751 227.22 104.33C218.978 105.509 211.399 109.414 204.63 114.056C190.281 123.782 177.404 136.014 165.41 148.467C153.048 161.362 142.599 174.993 131.635 189.141C135.609 188.625 156.653 186.856 167.617 187.593C170.781 187.814 173.872 188.183 176.962 188.772C179.906 189.288 184.174 190.172 186.749 191.72L181.966 198.351C181.966 198.351 185.645 200.046 187.926 197.983C192.709 193.267 198.596 189.583 202.79 184.204C206.396 179.488 212.062 171.751 216.035 167.256C222.51 159.962 227.955 157.972 236.785 154.141C257.683 163.72 273.283 182.878 295.652 189.951C302.127 192.014 308.897 192.825 315.666 191.941C316.182 191.867 315.961 191.13 315.446 191.204C315.298 191.204 315.151 191.204 315.004 191.278C315.004 191.204 315.004 191.13 315.004 191.057C320.964 189.288 326.704 186.783 331.928 183.393C333.842 182.067 336.196 180.593 338.183 178.899Z" fill="#252234"/>
<path d="M167.323 206.825C164.674 205.351 161.584 204.983 158.64 204.762C154.961 204.467 151.282 204.393 147.529 204.393C139.876 204.32 132.224 204.467 124.571 204.688C116.477 204.983 108.309 205.498 100.289 206.972C96.2417 207.709 90.3551 209.109 88.2212 212.867C87.7061 213.899 88.1476 215.299 88.9571 216.33C91.2381 219.204 95.5058 220.456 98.9642 221.046C106.102 222.372 115.447 222.814 122.732 222.814C133.695 222.888 151.723 223.772 161.951 220.383C167.323 218.614 173.21 214.562 171.002 210.214C170.193 208.741 168.795 207.635 167.323 206.825Z" fill="#2B244A"/>
<path d="M105.807 202.772C118.464 200.856 131.341 200.341 144.144 200.341C150.104 200.341 156.285 200.193 162.172 200.856C166.734 201.446 172.842 202.846 174.828 207.563C174.975 207.931 175.491 207.636 175.343 207.268C173.725 203.509 169.53 201.814 165.851 200.93C159.597 199.382 152.827 199.825 146.425 199.751C132.812 199.677 119.126 200.119 105.66 202.183C105.219 202.257 105.439 202.846 105.807 202.772Z" fill="#2B244A"/>
<path d="M158.64 200.636C165.41 197.393 173.872 194.224 180.421 199.899C180.715 200.12 181.156 199.751 180.862 199.457C178.213 197.098 174.387 195.993 170.855 196.067C166.513 196.14 162.246 198.278 158.419 200.12C158.051 200.267 158.346 200.783 158.64 200.636Z" fill="#2B244A"/>
<path d="M186.602 192.162C188.22 192.899 189.766 193.783 191.237 194.667C191.532 194.888 191.9 194.373 191.532 194.151C189.986 193.267 188.515 192.383 186.896 191.646C186.602 191.498 186.307 192.014 186.602 192.162Z" fill="#8D84B8"/>
<path d="M139.362 180.372C150.105 179.856 160.848 180.077 171.518 181.035C180.348 181.845 189.766 183.614 196.168 190.172C196.462 190.466 196.83 190.024 196.609 189.729C190.502 183.54 181.746 181.55 173.357 180.593C162.099 179.34 150.694 179.193 139.362 179.708C138.994 179.782 138.994 180.372 139.362 180.372Z" fill="#8D84B8"/>
<path d="M278.801 73.0874C282.333 84.5822 298.374 65.7926 301.097 61.961C301.318 61.6663 300.802 61.3715 300.582 61.6663C298.006 65.3505 282.554 83.2559 279.39 72.94C279.243 72.5716 278.654 72.719 278.801 73.0874Z" fill="#2B244A"/>
<path d="M288.735 66.0869C285.865 67.7079 282.775 69.7711 280.641 71.3185C280.788 71.4658 280.935 71.5395 281.009 71.6869C283.216 73.3816 286.159 71.8343 288.22 70.6553C291.237 68.8869 294.474 65.9395 296.903 62.4763C294.106 63.5816 291.016 64.9079 288.735 66.0869Z" fill="#FFA67D"/>
<path d="M298.154 52.5301C299.11 50.5406 298.963 45.6775 294.548 43.0985C290.648 40.7406 285.939 39.7827 281.303 43.9827C276.741 48.109 275.122 50.3933 273.356 54.0775C271.958 56.9512 271.002 60.3407 274.239 62.5512C277.918 64.9828 283.143 64.5407 285.792 63.4354C288.588 62.3302 294.548 60.1933 298.154 52.5301Z" fill="#FFA67D"/>
<path d="M284.762 64.7613C284.394 65.7194 283.658 66.8248 281.818 69.1831L281.671 64.2455C279.243 64.3192 276.594 63.9507 274.46 62.4768C273.798 62.0346 273.283 61.5187 272.915 60.9292C273.209 60.1922 273.945 59.8237 275.049 59.8974C277.403 59.9711 278.875 60.4133 281.671 61.445C284.394 62.4031 285.497 62.9926 284.762 64.7613Z" fill="#252234"/>
<path d="M295.136 42.508C291.236 40.2237 285.57 38.3816 281.597 43.8343C283.437 44.4975 286.159 44.3501 289.25 43.5395C286.527 46.3396 284.908 47.1501 286.012 49.8027C286.527 51.0554 288.22 54.5922 289.47 55.0344C289.618 55.4765 289.617 56.8028 290.427 58.3502C291.163 59.6765 292.414 60.1923 293.738 60.1923L293.812 58.7923C295.431 57.2449 297.27 55.4028 298.521 52.7501C299.478 50.687 299.478 45.0869 295.136 42.508Z" fill="#252234"/>
<path d="M284.173 52.8982C284.099 55.1091 285.792 56.9514 287.999 57.0988C290.207 57.1725 292.046 55.4775 292.193 53.2667C292.267 51.0558 290.575 49.2134 288.367 49.066C286.16 48.9923 284.246 50.6873 284.173 52.8982Z" fill="#FFA67D"/>
<path d="M274.754 52.6772C274.901 52.8246 275.048 52.8246 275.195 52.8246C275.342 52.8246 275.489 52.8246 275.563 52.6772C276.74 51.0559 277.77 49.4346 278.653 47.6659C278.874 47.2237 279.021 46.7816 278.653 46.8553C278.506 46.8553 273.208 48.845 272.84 49.4346C272.252 50.1716 273.871 51.8666 274.754 52.6772Z" fill="#FFA67D"/>
<path d="M279.316 45.5306C278.801 46.5623 280.052 46.7097 280.788 47.8151C281.377 48.8469 282.039 49.3627 282.554 48.9206C283.143 48.4047 282.922 47.0045 281.745 45.7517C280.567 44.6462 279.684 44.7936 279.316 45.5306Z" fill="#252234"/>
<path d="M280.052 48.0344C280.788 48.5503 279.979 49.582 279.537 49.8768C279.243 50.0979 278.875 50.319 278.507 50.0979C277.992 49.7294 278.434 49.0662 278.728 48.6977C279.022 48.3292 279.537 47.7396 280.052 48.0344Z" fill="#252234"/>
<path d="M274.901 53.9292C276.005 54.0766 277.035 53.9292 278.066 53.487C278.433 53.3396 278.286 52.7501 277.918 52.8975C276.962 53.266 275.932 53.4133 274.901 53.3396C274.534 53.266 274.534 53.8555 274.901 53.9292Z" fill="#252234"/>
<path d="M289.103 55.0352C290.354 54.0035 290.428 52.1611 289.25 50.982C288.956 50.6872 288.588 51.1294 288.809 51.4242C289.765 52.3822 289.692 53.7824 288.662 54.6667C288.367 54.8878 288.809 55.33 289.103 55.0352Z" fill="#252234"/>
<path d="M247.747 217.268C246.774 215.216 245.698 213.112 244.366 211.317C242.214 208.392 238.372 205.878 234.683 207.52C232.019 208.7 231.455 211.881 232.48 214.395C233.863 217.627 236.22 220.654 238.986 222.809C241.599 224.861 246.467 227.529 248.311 223.168C249.131 221.218 248.567 219.115 247.747 217.268Z" fill="#FFBE63"/>
<path d="M244.487 8.38796C241.983 4.39226 238.715 0.947694 234.82 0.120998C231.482 -0.567915 229.326 1.77439 229.048 4.8745C228.7 8.18128 230.3 10.3858 232.386 12.7281C234.82 15.4149 236.976 18.2394 239.827 20.5817C241.288 21.7529 242.957 22.924 244.835 22.9929C246.573 23.0618 248.382 22.6485 248.869 20.7884C249.147 19.6861 248.938 18.5839 248.66 17.4816C247.825 14.8638 246.434 11.4881 244.487 8.38796Z" fill="#F576A6"/>
</svg>
