<svg width="630" height="592" viewBox="0 0 630 592" fill="none" xmlns="http://www.w3.org/2000/svg">
<path d="M279.931 406.509C282.804 409.756 285.802 413.129 289.675 415.253C295.296 418.5 304.664 419 308.412 412.629C309.786 410.381 310.036 407.633 308.912 405.135C306.788 400.388 301.292 398.764 298.169 394.892C294.796 390.894 291.174 386.273 285.552 385.898C280.056 385.523 273.436 388.896 273.561 395.142C273.686 399.763 277.183 403.386 279.931 406.509Z" fill="#587EE0"/>
<path d="M303.79 341.678C292.048 329.687 275.809 322.567 264.817 309.201C248.828 289.714 240.334 264.482 222.346 246.494C208.481 232.629 171.007 223.011 180.126 256.987C184.498 273.101 200.861 280.971 213.103 290.214C228.092 301.706 234.588 319.819 246.455 334.059C259.571 349.798 276.809 370.034 296.045 378.153C318.405 387.522 321.653 373.157 313.408 355.294C310.91 350.048 307.662 345.676 303.79 341.678Z" fill="#587EE0"/>
<path d="M271.687 297.334C268.814 293.712 265.691 290.089 261.819 287.466C259.321 285.842 251.201 281.97 249.702 286.592C249.328 287.966 249.703 289.34 250.077 290.714C252.576 297.834 257.447 304.329 262.194 310.075C264.817 313.323 273.061 322.817 277.933 320.818C285.178 317.82 277.558 306.078 275.06 302.331C274.061 300.582 272.936 298.958 271.687 297.334Z" fill="#FFBE63"/>
<path d="M326.524 21.4003C326.524 21.4003 316.032 8.65912 325.9 1.66397C332.02 -2.708 336.767 2.66329 341.639 4.91173C347.26 7.53491 353.006 6.78543 355.005 9.90827C356.878 12.9062 356.004 15.0297 356.004 15.0297C356.004 15.0297 359.127 15.4044 360.626 18.1525C362.125 20.9006 362.125 26.7716 349.383 38.3885C336.517 50.0055 326.524 21.4003 326.524 21.4003Z" fill="#252234"/>
<path d="M321.777 63.8708C321.777 63.8708 331.646 56.0013 340.765 51.0048C349.883 46.0082 367.621 40.1373 367.621 40.1373C367.621 40.1373 374.491 69.1172 392.104 91.2269C409.717 113.337 423.332 114.836 420.459 145.814C417.586 176.793 397.1 210.894 396.101 211.643C395.227 212.268 332.52 190.033 332.52 189.409C332.52 188.784 327.649 152.185 326.025 145.689C324.526 139.194 313.284 97.0978 313.284 95.9736C313.284 94.8494 314.158 78.3608 315.907 74.3636C318.03 70.3663 321.777 63.8708 321.777 63.8708Z" fill="#F5E3D9"/>
<path d="M328.523 44.2596L329.148 59.3741L349.134 49.0063L349.383 36.2652L328.523 44.2596Z" fill="#FFA67D"/>
<path d="M313.533 158.056C313.658 157.931 313.658 157.806 313.658 157.681C314.158 137.82 307.163 118.583 307.537 98.7218C307.787 86.1056 312.159 72.1153 321.777 63.9959C316.281 79.9848 322.277 98.3471 328.523 113.587C333.02 124.579 337.891 135.696 339.64 147.563C341.264 158.93 340.39 170.422 337.267 181.29C330.022 172.795 322.152 165.051 313.533 158.056Z" fill="#F576A6"/>
<path d="M318.905 122.33C316.282 121.206 315.782 126.078 315.657 128.826C315.282 137.57 315.032 146.439 314.658 155.183C314.283 156.057 314.033 156.806 313.783 157.556C313.658 157.931 314.033 158.18 314.533 158.056C314.533 158.18 314.533 158.18 314.533 158.305C314.533 159.679 315.782 159.679 315.907 158.43C315.907 158.18 315.907 157.931 315.907 157.806C316.531 157.556 317.156 157.181 317.281 156.682C319.404 150.436 320.778 143.691 321.153 136.695C321.403 133.198 322.028 123.704 318.905 122.33Z" fill="#252234"/>
<path d="M592.215 554.156C592.09 542.414 591.216 530.548 589.467 518.931C587.593 506.814 583.846 495.197 576.226 485.329C569.731 476.96 561.486 470.339 553.242 463.969C552.867 463.594 552.368 463.219 551.993 462.97C551.618 462.72 551.244 462.47 550.869 462.095C550.744 461.97 550.619 461.97 550.369 461.97H550.244C550.369 461.845 550.494 461.845 550.619 461.72C551.369 461.346 550.744 460.097 549.995 460.596C541.625 465.468 534.255 471.838 528.385 479.458C522.888 486.703 516.268 497.071 517.642 506.689C519.016 516.308 528.509 522.678 534.13 529.798C541.126 538.542 546.622 548.285 551.993 558.154C554.741 563.15 557.364 568.147 560.112 573.143C562.486 577.515 564.859 582.137 568.107 586.009C573.353 592.13 582.222 594.378 587.469 587.009C590.342 583.011 590.841 577.765 591.341 573.018C592.09 566.898 592.215 560.527 592.215 554.156Z" fill="#F5E3D9"/>
<path d="M186.621 242.747C186.621 242.747 186.496 242.747 186.621 242.747C186.246 242.497 185.872 242.372 185.622 242.622C156.642 238.75 127.412 238.25 98.3074 240.998C94.56 242.122 90.9374 243.247 87.3149 244.621C77.3219 260.859 59.5842 270.353 42.0963 277.098C31.7285 281.095 20.9858 284.343 10.7429 288.59C7.86992 289.714 5.12189 291.463 2.99836 293.712C1.62431 295.211 0.625187 296.959 0.37536 298.958C0.125533 301.331 0.999866 303.705 2.49883 305.578C6.37114 310.45 12.7416 312.574 18.6125 313.698C30.7291 315.946 45.7189 315.696 58.0853 315.197C75.1985 314.572 105.178 317.82 122.54 312.074C131.909 308.951 135.032 308.951 140.778 301.206C154.269 282.969 169.633 259.61 185.997 243.996C186.121 243.996 186.121 243.996 186.246 243.996C187.121 244.121 187.496 242.872 186.621 242.747Z" fill="#F5E3D9"/>
<path d="M495.657 247.744C495.408 247.619 495.158 247.619 495.033 247.619C497.656 246.37 500.029 244.496 498.405 241.873C497.281 239.999 494.283 239.749 492.409 239.499C492.16 239.499 491.785 239.499 491.535 239.374C490.911 236.376 487.788 235.252 484.79 235.252C479.668 235.252 474.422 235.627 469.175 235.877C464.304 229.881 458.308 224.759 451.687 220.762C451.438 225.759 450.813 230.88 450.688 235.877C450.563 240.124 450.439 244.496 449.689 248.618C458.683 252.365 466.802 258.361 472.923 265.981C474.796 268.354 477.42 274.725 481.292 274.225C484.54 273.726 484.04 269.728 483.54 267.355C483.041 264.482 482.416 261.609 481.542 258.861C484.415 257.487 487.288 256.363 490.411 255.488C492.909 254.739 495.657 254.614 498.156 253.864C499.155 253.49 500.154 253.115 500.529 251.991C501.528 249.243 497.406 248.368 495.657 247.744Z" fill="#FFA67D"/>
<path d="M537.003 218.014C519.516 214.267 506.774 200.276 497.031 186.036C487.288 171.671 479.169 156.182 468.176 142.691C463.804 137.32 458.932 132.448 453.561 128.201C458.932 111.213 461.306 93.4753 460.806 75.7376C474.172 84.7314 484.29 97.7224 494.658 109.964C500.654 116.959 506.775 123.829 513.77 129.7C520.89 135.696 528.634 140.942 536.254 146.314C539.377 148.562 542.5 150.811 545.498 153.184C550.619 175.169 547.496 198.528 537.003 218.014Z" fill="#F5E3D9"/>
<path d="M479.044 369.034C468.176 351.297 459.432 332.06 454.686 311.699C449.314 289.215 450.438 266.106 448.565 243.122C447.066 223.635 442.819 203.149 430.952 187.285C417.711 196.279 404.72 205.398 390.855 213.392C380.362 219.513 369.37 224.759 358.502 230.131C350.758 234.003 343.013 238 336.018 243.247C360.376 278.347 366.372 325.939 379.363 365.412C386.233 386.273 396.351 405.134 410.591 421.998C425.706 439.985 443.943 455.1 462.43 469.465C483.79 485.953 506.649 502.567 526.011 521.679C541.5 507.938 551.119 481.207 556.115 443.733C546.872 426.744 534.255 414.128 525.511 407.133C507.399 392.768 493.908 393.268 479.044 369.034Z" fill="#252234"/>
<path d="M424.706 242.247C426.455 236.501 427.454 230.505 426.83 224.51C426.58 222.011 426.205 219.388 425.331 217.015C420.834 187.41 395.227 197.029 385.359 191.158C359.626 175.793 344.512 167.924 319.529 150.811C295.546 134.322 267.815 111.463 236.337 115.835C222.346 117.834 209.48 124.454 197.988 132.324C173.63 148.812 151.77 169.548 131.409 190.658C110.424 212.518 92.6864 235.627 74.0743 259.61C80.8197 258.736 116.545 255.738 135.157 256.987C140.528 257.362 145.774 257.986 151.021 258.986C156.017 259.86 163.262 261.359 167.634 263.982L159.515 275.224C159.515 275.224 165.761 278.098 169.633 274.6C177.752 266.605 187.746 260.36 194.866 251.241C200.986 243.247 210.605 230.131 217.35 222.511C228.342 210.145 237.586 206.772 252.576 200.276C288.051 216.515 314.533 248.993 352.506 260.984C363.499 264.482 374.991 265.856 386.483 264.357C387.357 264.232 386.982 262.983 386.108 263.108C385.858 263.108 385.608 263.108 385.359 263.233C385.359 263.108 385.359 262.983 385.359 262.858C395.477 259.86 405.22 255.613 414.089 249.867C417.336 247.619 421.334 245.12 424.706 242.247Z" fill="#252234"/>
<path d="M134.658 289.589C130.161 287.091 124.914 286.467 119.918 286.092C113.672 285.592 107.426 285.467 101.056 285.467C88.0646 285.342 75.0737 285.592 62.0827 285.967C48.3422 286.467 34.4768 287.341 20.8612 289.839C13.991 291.088 3.99804 293.462 0.375546 299.832C-0.498848 301.581 0.250633 303.955 1.62468 305.703C5.497 310.575 12.7418 312.698 18.6127 313.698C30.7293 315.946 46.5934 316.696 58.9598 316.696C77.5719 316.821 108.176 318.32 125.539 312.574C134.657 309.576 144.651 302.705 140.903 295.335C139.529 292.837 137.156 290.964 134.658 289.589Z" fill="#2B244A"/>
<path d="M572.604 589.757C579.974 586.384 582.722 579.014 583.221 571.394C583.846 561.401 583.471 551.283 582.847 541.29C581.722 521.679 578.725 502.067 573.978 482.956C573.853 482.331 572.854 482.581 572.979 483.205C577.475 501.068 580.223 519.18 581.597 537.543C582.222 546.412 582.472 555.28 582.347 564.149C582.222 573.643 581.972 584.385 572.104 588.882C571.48 589.132 571.979 590.006 572.604 589.757Z" fill="#2B244A"/>
<path d="M554.991 561.651C561.487 552.657 571.729 545.912 582.597 543.414C583.221 543.289 582.972 542.29 582.347 542.414C571.355 545.038 560.862 552.033 554.242 561.151C553.742 561.651 554.616 562.151 554.991 561.651Z" fill="#2B244A"/>
<path d="M547.871 549.41C557.114 544.163 558.114 532.671 555.616 523.303C552.618 512.185 547.122 500.319 538.378 492.574C537.878 492.199 537.128 492.824 537.628 493.323C545.498 500.319 550.244 510.312 553.617 520.18C556.865 529.798 557.489 542.664 547.371 548.535C546.872 548.91 547.371 549.784 547.871 549.41Z" fill="#2B244A"/>
<path d="M560.987 471.463C560.112 484.33 564.609 497.321 577.226 502.692C577.85 502.942 578.1 501.942 577.476 501.693C565.234 496.571 561.112 483.83 561.986 471.463C561.986 470.839 560.987 470.839 560.987 471.463Z" fill="#2B244A"/>
<path d="M539.627 535.794C543.249 529.173 547.746 523.677 553.742 519.056C554.242 518.681 553.492 517.931 552.992 518.306C546.996 523.053 542.375 528.549 538.752 535.294C538.378 535.919 539.252 536.418 539.627 535.794Z" fill="#2B244A"/>
<path d="M535.005 528.923C538.378 521.679 543.249 515.808 549.995 511.311C550.494 510.936 549.994 510.062 549.495 510.436C542.624 514.933 537.503 520.929 534.13 528.299C533.88 528.923 534.63 529.423 535.005 528.923Z" fill="#2B244A"/>
<path d="M30.2294 282.719C51.7146 279.472 73.5745 278.597 95.3095 278.597C105.427 278.597 115.92 278.347 125.913 279.472C133.658 280.471 144.026 282.844 147.398 290.839C147.648 291.463 148.522 290.964 148.273 290.339C145.525 283.968 138.405 281.095 132.159 279.596C121.541 276.973 110.049 277.723 99.1816 277.598C76.0726 277.473 52.8388 278.222 29.9797 281.72C29.2302 281.845 29.6049 282.844 30.2294 282.719Z" fill="#2B244A"/>
<path d="M119.917 279.097C131.409 273.601 145.774 268.229 156.892 277.848C157.391 278.223 158.141 277.598 157.641 277.098C153.144 273.101 146.649 271.227 140.653 271.352C133.283 271.477 126.038 275.1 119.543 278.222C118.918 278.472 119.418 279.347 119.917 279.097Z" fill="#2B244A"/>
<path d="M345.386 259.111C368.62 271.852 397.6 272.102 421.084 259.735C421.708 259.485 421.209 258.611 420.584 258.861C397.475 270.977 368.87 270.728 346.011 258.236C345.261 257.861 344.762 258.736 345.386 259.111Z" fill="#8D84B8"/>
<path d="M516.642 511.936C534.38 486.078 542.499 456.599 544.748 425.62C544.748 424.996 543.749 424.996 543.749 425.62C541.5 456.474 533.381 485.704 515.768 511.436C515.393 512.06 516.268 512.56 516.642 511.936Z" fill="#8D84B8"/>
<path d="M167.385 264.732C170.133 265.981 172.756 267.48 175.254 268.979C175.754 269.353 176.378 268.479 175.754 268.104C173.13 266.605 170.632 265.106 167.884 263.857C167.384 263.607 166.885 264.482 167.385 264.732Z" fill="#8D84B8"/>
<path d="M87.1902 244.746C105.428 243.871 123.665 244.246 141.777 245.87C156.767 247.244 172.756 250.242 183.623 261.359C184.123 261.859 184.747 261.109 184.373 260.61C174.005 250.117 159.14 246.744 144.9 245.12C125.788 242.997 106.427 242.747 87.1902 243.621C86.5657 243.746 86.5657 244.746 87.1902 244.746Z" fill="#8D84B8"/>
<path d="M468.426 81.7335C456.06 69.3671 437.822 61.9972 422.833 53.2533C412.84 47.3823 403.221 39.0131 391.479 37.0145C383.36 35.6405 375.366 37.3893 367.621 40.2623C364.498 49.8806 365.248 60.6232 368.246 70.3664C376.24 96.2235 390.355 105.217 396.226 131.949C399.849 148.437 380.487 152.06 385.359 191.158C429.453 211.768 440.196 229.006 449.814 260.984C456.559 263.857 456.184 234.503 455.81 224.635C454.561 183.663 430.328 146.689 420.709 107.591C433.201 116.834 447.316 127.452 459.182 137.32C459.182 137.32 460.182 138.319 461.431 137.57C461.806 137.32 462.18 136.945 462.43 136.446C461.306 135.321 460.182 134.197 458.933 133.073C458.308 115.585 462.18 97.9723 468.426 81.7335Z" fill="#F576A6"/>
<path d="M462.43 136.321C462.18 136.82 461.93 137.195 461.431 137.445C461.056 137.695 460.806 137.695 460.431 137.695C459.932 137.695 459.557 137.57 459.432 137.445C459.058 135.072 458.932 132.948 458.932 132.948C460.182 134.072 461.306 135.196 462.43 136.321Z" fill="#2B244A"/>
<path d="M420.709 107.591C417.836 104.218 414.713 100.97 411.465 97.8473C407.843 94.3497 404.096 90.6023 399.973 87.7293C397.975 86.3552 395.726 86.1054 394.977 88.8535C393.103 96.848 400.723 105.092 406.469 109.339C411.84 113.337 418.086 115.96 423.957 119.208C422.832 115.335 421.708 111.463 420.709 107.591Z" fill="#252234"/>
<path d="M323.901 62.8717C329.897 82.3582 357.128 50.5052 361.75 44.0097C362.125 43.5101 361.25 43.0104 360.876 43.5101C356.504 49.7558 330.272 80.1097 324.9 62.6219C324.651 61.9973 323.652 62.2471 323.901 62.8717Z" fill="#2B244A"/>
<path d="M340.765 51.0048C335.893 53.7529 330.647 57.2505 327.024 59.8737C327.274 60.1235 327.524 60.2484 327.649 60.4982C331.396 63.3713 336.392 60.7481 339.89 58.7494C345.011 55.7515 350.508 50.755 354.63 44.8841C349.883 46.7578 344.637 49.0062 340.765 51.0048Z" fill="#FFA67D"/>
<path d="M356.753 28.0208C358.377 24.6481 358.127 16.4038 350.633 12.0318C344.012 8.03461 336.018 6.41073 328.148 13.5308C320.404 20.5259 317.655 24.3983 314.657 30.6439C312.284 35.5156 310.66 41.2616 316.156 45.009C322.402 49.1311 331.271 48.3816 335.768 46.5079C340.515 44.6342 350.632 41.0118 356.753 28.0208Z" fill="#FFA67D"/>
<path d="M334.019 48.7562C333.394 50.3801 332.145 52.2538 329.023 56.251L328.773 47.8818C324.651 48.0067 320.154 47.3822 316.531 44.8839C315.407 44.1344 314.533 43.26 313.908 42.2607C314.408 41.0116 315.657 40.387 317.531 40.5119C321.528 40.6368 324.026 41.3863 328.773 43.1351C333.395 44.759 335.268 45.7583 334.019 48.7562Z" fill="#252234"/>
<path d="M351.632 11.0325C345.012 7.16018 335.393 4.03735 328.648 13.2809C331.771 14.4052 336.393 14.1553 341.639 12.7813C337.017 17.528 334.269 18.902 336.143 23.3989C337.017 25.5225 339.89 31.5183 342.014 32.2678C342.264 33.0173 342.263 35.2657 343.637 37.8889C344.886 40.1373 347.01 41.0117 349.258 41.0117L349.383 38.6384C352.132 36.0152 355.254 32.8923 357.378 28.3955C359.002 24.8979 359.002 15.4045 351.632 11.0325Z" fill="#252234"/>
<path d="M333.02 28.6453C332.895 32.3928 335.768 35.5156 339.515 35.7654C343.263 35.8903 346.386 33.0173 346.635 29.2699C346.76 25.5225 343.887 22.3997 340.14 22.1498C336.393 22.0249 333.145 24.8979 333.02 28.6453Z" fill="#FFA67D"/>
<path d="M317.031 28.2706C317.281 28.5205 317.53 28.5205 317.78 28.5205C318.03 28.5205 318.28 28.5205 318.405 28.2706C320.403 25.5225 322.152 22.7744 323.651 19.7765C324.026 19.027 324.276 18.2776 323.651 18.4025C323.401 18.4025 314.408 21.7751 313.783 22.7744C312.784 24.0236 315.532 26.8966 317.031 28.2706Z" fill="#FFA67D"/>
<path d="M324.776 16.154C323.901 17.9028 326.025 18.1526 327.274 20.0263C328.273 21.7751 329.397 22.6495 330.272 21.9C331.271 21.0256 330.897 18.6523 328.898 16.5287C326.899 14.655 325.4 14.9049 324.776 16.154Z" fill="#252234"/>
<path d="M326.025 20.4011C327.274 21.2755 325.9 23.0243 325.15 23.524C324.651 23.8987 324.026 24.2734 323.401 23.8987C322.527 23.2741 323.276 22.1499 323.776 21.5253C324.276 20.9008 325.15 19.9015 326.025 20.4011Z" fill="#252234"/>
<path d="M482.416 258.111C479.418 249.992 475.046 242.497 469.3 236.126C468.926 235.627 468.176 236.376 468.551 236.876C474.172 243.247 478.544 250.492 481.417 258.486C481.667 258.986 482.666 258.736 482.416 258.111Z" fill="#2B244A"/>
<path d="M478.794 249.867C483.79 248.243 489.037 247.619 494.283 247.993C494.907 247.993 494.907 246.994 494.283 246.994C488.912 246.619 483.665 247.244 478.544 248.868C477.919 249.117 478.294 249.992 478.794 249.867Z" fill="#2B244A"/>
<path d="M474.672 242.247C479.668 240.124 485.039 239.249 490.535 239.874C491.16 239.999 491.16 239 490.535 238.875C484.914 238.25 479.418 239.124 474.172 241.373C473.672 241.623 474.172 242.497 474.672 242.247Z" fill="#2B244A"/>
<path d="M588.218 240.748C584.595 239 581.223 236.751 578.1 234.253C577.601 233.878 576.851 234.503 577.351 235.002C580.473 237.626 583.971 239.874 587.593 241.623C588.218 241.873 588.718 240.998 588.218 240.748Z" fill="#2B244A"/>
<path d="M317.281 30.3942C319.154 30.644 320.903 30.3942 322.652 29.6447C323.277 29.3949 323.027 28.3956 322.402 28.6454C320.778 29.27 319.03 29.5198 317.281 29.3949C316.656 29.27 316.656 30.2693 317.281 30.3942Z" fill="#252234"/>
<path d="M341.389 32.2678C343.513 30.519 343.638 27.3962 341.639 25.3975C341.139 24.8979 340.515 25.6474 340.889 26.147C342.513 27.7709 342.388 30.1442 340.64 31.6432C340.14 32.0179 340.89 32.7674 341.389 32.2678Z" fill="#252234"/>
<path d="M628.44 444.232C624.568 432.99 612.951 430.617 606.081 422.372C598.086 412.629 599.46 399.388 590.716 390.145C586.719 385.898 581.473 383.274 576.226 381.151C569.981 378.528 563.36 376.404 557.739 372.532C551.368 368.035 547.871 361.04 542.999 355.169C536.254 346.925 523.263 341.179 515.768 351.921C509.023 361.54 513.769 373.281 521.639 380.401C532.631 390.519 547.871 394.017 558.239 405.134C567.232 414.753 572.854 426.994 579.974 437.987C585.47 446.606 594.089 458.847 605.456 461.72C616.448 464.468 633.436 459.097 628.44 444.232Z" fill="#FFBE63"/>
<path d="M206.816 26.209C202.319 18.964 196.449 12.7184 189.453 11.2194C183.458 9.97026 179.585 14.2173 179.086 19.8384C178.461 25.8343 181.334 29.8315 185.082 34.0785C189.453 38.9502 193.326 44.0716 198.447 48.3187C201.07 50.4422 204.068 52.5658 207.441 52.6907C210.564 52.8156 213.812 52.0661 214.686 48.6934C215.186 46.6948 214.811 44.6962 214.311 42.6976C212.812 37.9509 210.314 31.8301 206.816 26.209Z" fill="#F576A6"/>
<path d="M514.019 203.649C512.77 198.403 510.522 193.406 507.524 188.909C502.902 182.164 494.283 172.671 485.04 176.668C464.179 185.786 507.774 235.877 514.519 217.265C516.018 213.018 515.019 207.896 514.019 203.649Z" fill="#FFBE63"/>
<path d="M263.443 199.027C261.07 194.031 258.447 188.909 255.199 184.537C249.952 177.417 240.584 171.297 231.59 175.294C225.095 178.167 223.72 185.911 226.219 192.032C229.591 199.902 235.338 207.272 242.083 212.518C248.454 217.515 260.32 224.01 264.817 213.392C266.816 208.646 265.442 203.524 263.443 199.027Z" fill="#FFBE63"/>
</svg>
