<svg width="674" height="973" viewBox="0 0 674 973" fill="none" xmlns="http://www.w3.org/2000/svg">
<path d="M-98.6818 506.094C-89.6697 491.99 -64.5356 484.63 -51.363 481.474C-25.1709 475.081 2.74411 473.178 26.7469 459.868C33.2427 456.265 39.3048 451.636 46.1643 448.822C56.7243 444.649 68.5059 448.452 70.2846 460.88C72.4221 476.665 59.2303 490.09 46.4743 497.226C25.5602 508.846 1.58916 511.499 -21.7577 514.093C-40.8874 516.201 -56.9083 518.408 -74.7413 526.16C-83.0273 529.783 -101.119 531.069 -101.955 518.36C-102.276 513.837 -101.056 509.752 -98.6818 506.094Z" fill="#587EE0"/>
<path d="M149.745 264.259C148.052 256.424 151.176 248.822 156.581 242.85C167.213 231.599 184.868 224.542 200.164 225.501C204.973 223.555 209.922 222.081 214.942 220.842C218.547 220.024 222.222 219.442 225.898 218.86C235.816 217.701 245.85 217.79 255.598 219.504C265.346 221.218 274.656 224.474 284.131 227.425C289.91 229.167 295.689 230.909 301.494 231.873C313.394 222.297 330.598 217.171 344.762 219.494C353.383 212.691 362.018 205.5 372.879 204.06C381.478 202.78 390.507 205.094 394.602 213.239C396.45 213.843 398.049 214.906 399.401 216.428C400.261 216.3 401.038 216.325 401.815 216.35C401.911 215.809 401.936 215.031 402.031 214.49C401.878 214.407 401.572 214.242 401.419 214.159C400.501 213.662 401.329 212.133 402.482 212.559C411.142 216.65 419.657 222.837 421.746 232.863C422.762 237.564 421.988 242.285 421.908 247.184C421.778 253.638 423.724 258.447 427.46 263.235C432.771 269.864 439.273 275.752 438.655 285.302C438.156 293.534 432.797 300.519 425.689 303.792C426.065 304.193 426.205 304.664 426.582 305.065C427.251 306.02 425.965 307.302 425.295 306.347C424.849 305.71 424.556 305.156 424.109 304.519L423.874 304.589C422.931 304.87 422.58 303.692 423.147 303.01C420.845 299.59 418.708 295.864 416.807 292.069C416.103 297.026 414.08 301.862 411.07 305.967C413.454 309.233 414.47 313.934 413.084 318.324C409.67 330.119 397.237 334.465 387.021 337.637C357.868 346.58 328.645 355.288 299.434 363.607C289.854 366.333 277.702 371.622 267.247 370.118C252.307 379.83 235.711 387.854 218.38 384.807C207.549 382.903 197.141 375.099 193.522 364.245C192.105 359.92 191.23 355.691 186.19 355.14C182.164 354.543 177.98 356.432 173.915 357.001C169.616 357.641 164.659 356.937 160.574 355.716C151.24 353.237 143.043 346.827 138.419 338.198C137.539 336.535 136.812 334.956 136.32 333.306C135.465 330.867 134.775 328.121 134.392 325.542C134.008 322.962 131.937 322.039 130.031 320.811C128.196 319.818 126.679 318.602 125.245 317.234C122 314.095 119.487 309.968 119.638 305.305C120.007 284.154 138.027 270.573 149.745 264.259Z" fill="#C7513C"/>
<path d="M175.528 244.004C171.589 240.687 178.54 232.586 180.335 229.998C186.758 221.413 194.322 213.643 201.955 206.108C202.84 205.203 204.039 206.642 203.237 207.394C200.429 210.027 214.15 228.519 219.676 233.287C220.581 234.172 176.516 244.736 175.528 244.004Z" fill="#2B244A"/>
<path d="M206.899 289.439C207.772 288.922 294.774 317.397 327.246 328.634C327.329 328.481 327.258 328.245 327.424 327.939C327.507 327.786 327.883 328.187 328.482 328.907C335.485 331.31 339.792 332.85 339.557 332.92C338.213 333.577 335.786 334.043 332.512 334.249C343.472 349.073 368.76 385.288 368.652 386.218C365.816 404.255 334.752 383.104 328.188 379.159C327.576 378.828 319.001 367.27 311.177 356.515C293.14 353.678 249.943 346.92 249.013 346.812L259.33 352.591C254.233 351.415 239.46 341.448 235.438 338.284C230.428 334.388 225.973 330.199 221.765 325.551C216.053 319.299 210.755 312.282 206.081 305.207C202.58 300.348 200.18 292.724 206.899 289.439Z" fill="#2B244A"/>
<path d="M-183.874 643.867C-175.474 629.433 -172.078 620.594 -160.5 613.809C-152.731 609.313 -113.72 593.84 -102.077 589.857C-72.6506 579.678 -41.845 574.99 -12.163 566.53C19.1687 557.579 47.5666 543.088 73.2661 522.985C98.3289 503.329 120.465 480.311 141.531 456.714C144.918 453.011 148.152 449.225 151.456 445.674C154.044 447.469 156.632 449.264 159.372 451.142C182.603 466.672 208.857 477.709 228.191 498.249C217.381 510.194 199.479 529.769 196.754 532.249C181.582 546.777 165.058 559.783 147.712 571.752C101.569 603.334 47.0525 629.2 -8.97277 636.656C-40.0717 640.791 -71.645 640.32 -102.501 646.563C-119.1 649.841 -134.692 655.642 -149.945 663.009C-164.81 670.389 -179.088 678.877 -193.882 686.493C-197.761 688.547 -203.512 690.774 -207.712 688.304C-212.064 685.752 -209.806 680.846 -207.986 677.481C-200.979 665.258 -192.915 654.002 -183.874 643.867Z" fill="#FFA67D"/>
<path d="M-47.6016 693.456C-37.6487 686.384 -27.6958 679.313 -17.8958 672.159C-17.966 671.924 -18.1188 671.841 -17.8005 671.618C-5.67936 657.614 4.49195 653.429 17.7799 651.522C34.1894 649.327 52.8757 651.328 69.0774 653.172C108.687 657.792 147.885 667.923 188 666.49C203.735 665.907 214.571 665.245 220.314 648.779C235.622 605.857 225.153 561.25 224.941 517.051C224.93 510.126 225.155 503.131 225.922 496.231C233.722 500.45 241.771 504.21 250.233 507.205C260.001 510.709 269.972 512.742 280.109 514.468C296.793 523.097 314.146 532.68 321.164 539.442C321.675 562.255 321.644 584.972 319.671 607.628C317.697 630.283 314.016 652.805 306.945 674.285C300.3 694.612 290.459 717.558 272.922 730.61C249.724 747.914 218.176 746.666 190.99 742.834C173.176 740.316 155.317 736.785 137.859 732.878C100.236 724.587 63.2408 713.672 27.0984 700.449C16.0344 703.361 4.90019 706.037 -6.15134 708.56C-14.6932 710.464 -23.388 712.285 -32.0001 713.953C-38.4209 715.225 -46.0451 717.625 -52.5891 715.469C-56.5907 714.096 -59.1985 710.511 -58.4367 706.178C-57.4719 700.374 -51.9062 696.663 -47.6016 693.456Z" fill="#FFA67D"/>
<path d="M256.635 320.292C255.953 319.725 256.227 318.489 257.157 318.597C257.31 318.68 257.545 318.61 257.698 318.692C258.182 318.163 259.03 318.424 259.17 318.895C294.62 324.626 328.075 339.163 356.546 361.086C356.934 361.098 357.158 361.417 357.228 361.652C358.063 362.302 357.318 363.678 356.471 363.417C347.29 373.081 337.428 382.178 327.272 390.721C328.107 391.37 327.209 392.664 326.209 392.32C326.056 392.238 325.903 392.155 325.75 392.072C324.712 392.895 323.827 393.8 322.872 394.469C321.917 395.139 320.635 393.853 321.591 393.183C322.31 392.584 323.112 391.832 323.832 391.233C294.945 377.388 264.805 366.226 233.705 358.301C232.961 359.677 232.063 360.971 231.319 362.348C230.74 363.418 229.14 362.355 229.719 361.285C238.037 347.003 246.954 333.441 256.635 320.292Z" fill="#FFA67D"/>
<path d="M91.7853 15.0553C91.5794 11.7809 91.1052 7.17523 95.3222 6.68847C95.9465 6.63075 96.4881 6.72599 97.0297 6.82121C97.3154 5.19652 98.1426 3.66705 100.181 3.18799C105.601 1.57289 108.658 10.5409 110.502 13.7124C119.188 29.0858 128.511 44.0128 138.624 58.5763C158.696 87.6205 181.316 114.879 206.107 139.952C220.424 154.417 235.544 168.13 251.313 181.008C251.995 181.575 251.569 182.728 250.944 182.786C238.934 200.606 224.712 217.031 208.692 231.299C207.89 232.051 206.609 230.765 207.411 230.013L207.494 229.86C169.308 188.251 136.088 142.212 108.492 93.0854C101.286 80.0937 94.4675 67.1146 88.0504 53.7593C86.5008 51.1419 85.1868 48.4543 83.9555 45.6138C82.9349 43.4802 80.7984 39.7547 81.3447 37.2825C82.0815 33.7273 86.3766 35.6549 89.8116 37.7105C88.4447 31.8313 85.1163 16.7858 91.7853 15.0553Z" fill="#FFA67D"/>
<path d="M437.695 351.404C446.871 344.307 455.212 336.562 462.883 327.861C465.468 324.91 468.524 321.818 471.121 318.479C505.055 335.053 542.253 344.497 579.936 346.099C591.76 346.168 603.692 345.307 615.355 343.114C619.502 342.392 623.496 341.587 627.502 340.393C630.483 339.633 633.96 337.956 636.974 338.597C638.599 338.883 639.727 340.086 640.384 341.43C642.034 340.938 643.754 340.683 645.201 341.663C648.693 344.343 645.319 347.657 642.677 349.984C644.244 349.646 646.282 349.167 647.811 349.994C648.27 350.242 648.952 350.809 649.15 351.904C649.642 353.554 648.649 355.389 647.516 356.753C643.976 360.374 630.786 366.485 626.825 368.692C633.948 369.777 642.766 371.383 638.87 376.393C637.005 378.745 630.878 380.571 622.22 381.226C615.2 381.778 607.804 381.929 600.917 380.774C585.28 385.561 535.711 397.894 456.878 383.92C444.422 381.73 416.597 373.599 404.853 368.631C415.297 363.209 428.367 358.417 437.695 351.404Z" fill="#FFA67D"/>
<path d="M136.804 446.448C138.471 443 142.598 440.488 146.361 437.186C151.327 432.755 155.612 427.758 159.52 422.359C166.617 412.162 172.267 400.984 179.517 390.87C190.688 374.968 206.442 364.116 225.584 361.619C229.468 356.998 231.917 351.008 237.011 347.437C241.704 344.243 249.088 344.48 254.503 345.433C283.264 351.104 309.51 359.962 331.119 379.953C331.272 380.036 334.045 383.315 334.045 383.315C334.76 385.283 334.64 386.602 333.787 388.908C331.714 395.299 331.657 394.675 329.125 400.818C329.125 400.818 329.2 461.352 330.752 488.088L331.983 510.302C332.382 517.239 333.24 524.425 332.862 531.337C332.464 536.46 326.926 544.14 322.114 541.34C281.985 519.041 275.991 531.219 249.141 524.209C233.709 520.211 231.59 513.53 228.493 513.041C210.278 510.899 192.85 503.647 177.783 493.126C167.892 486.194 158.815 478.122 150.623 469.144C146.263 464.414 141.336 460.365 138.013 454.812C135.864 451.475 135.716 448.825 136.804 446.448Z" fill="#587EE0"/>
<path d="M260.849 365.866C255.707 375.737 247.896 383.966 238.675 390.05C231.281 394.947 219.844 402.204 210.77 398.877C209.923 398.617 210.279 397.228 211.126 397.488C220.283 400.662 232.121 393.029 239.444 387.896C247.958 382.023 255.133 374.24 259.861 365.134C260.039 364.439 261.262 365.101 260.849 365.866Z" fill="#2B244A"/>
<path d="M174.718 242.577C203.447 227.473 227.89 205.308 245.571 178.1C244.819 177.298 245.799 175.851 246.551 176.654C299.372 220.445 356.96 258.71 417.718 290.386C435.319 299.51 452.341 309.706 470.522 317.76C470.522 317.76 472.452 318.211 471.72 319.199C454.498 346.654 434.194 365.919 405.982 381.894C405.262 382.494 403.6 383.374 403.364 383.444C399.722 385.428 397.184 382.078 394.927 379.672C391.236 375.896 387.393 372.038 383.702 368.262C377.998 376.248 371.907 384.222 365.592 391.877C364.86 392.865 363.922 390.578 363.922 390.578C349.079 361.002 316.219 349.752 287.149 339.169C272.226 333.866 257.315 328.173 244.059 319.421C230.497 310.505 219.557 297.471 204.009 292.224L203.856 292.142L203.703 292.059C202.55 291.633 204.626 289.988 205.899 289.095C212.809 284.727 217.973 281.392 225.036 277.107C207.753 267.759 191.45 256.964 176.127 244.723C176.127 244.723 173.61 243.164 174.718 242.577Z" fill="#F5E3D9"/>
<path d="M393.229 260.733L381.762 271.335C381.762 271.335 368.371 271.604 354.766 254.361L371.778 238.258L393.229 260.733Z" fill="#FFA67D"/>
<path d="M366.86 217.014C367.494 211.821 373.872 202.223 385.766 202.528C396.577 202.643 408.226 208.152 412.369 222.057C416.429 236.114 415.725 241.071 414.635 250.762C413.926 258.286 411.568 266.302 402.299 266.626C391.864 266.913 381.985 259.592 378.038 254.097C374.091 248.601 364.668 236.783 366.86 217.014Z" fill="#FFA67D"/>
<path d="M390.104 263.588L386.978 266.444C384.402 264.26 382.783 261.407 382.341 258.203C382.201 257.732 382.908 257.521 383.131 257.84C384.999 260.234 387.268 262.252 390.104 263.588Z" fill="#2B244A"/>
<path d="M414.789 231.472C414.789 231.472 419.909 239.184 420.165 240.904C420.504 242.471 418.995 243.434 414.823 244.933C410.498 246.35 414.789 231.472 414.789 231.472Z" fill="#FFA67D"/>
<path d="M387.67 273.936C378.841 284.778 362.857 285.82 351.602 277.755C340.193 269.608 335.885 256.009 336.087 242.477C352.931 253.367 370.176 263.881 387.67 273.936Z" fill="#FFA67D"/>
<path d="M396.104 355.201C392.138 359.975 388.019 364.666 383.97 369.593C383.404 370.275 382.345 369.307 382.912 368.625C386.878 363.851 390.997 359.16 395.046 354.233C395.612 353.551 396.67 354.519 396.104 355.201Z" fill="#2B244A"/>
<path d="M147.334 464.993C159.324 445.383 182.598 437.807 196.551 420.049C211.307 401.54 215.266 375.214 235.631 361.32C236.35 360.721 237.09 361.911 236.371 362.511C216.089 376.252 212.129 402.578 197.527 421.17C183.656 438.774 160.382 446.351 148.475 465.807C148.144 466.419 146.92 465.757 147.334 464.993Z" fill="#2B244A"/>
<path d="M228.952 513.289C231.801 514.236 234.404 520.389 249.141 524.209C254.003 525.454 258.335 526.216 262.139 526.494C262.222 526.341 262.222 526.341 262.304 526.188C265.612 508.011 271.768 490.781 287.935 467.104C304.338 443.357 303.156 426.902 303.156 426.902C297.956 436.149 291.769 444.664 284.524 452.211C280.819 456.138 276.808 459.899 273.479 464.227C269.665 469.083 266.605 474.743 263.709 480.096C259.159 488.508 253.948 498.143 249.15 507.014C247.909 509.308 243.509 513.057 228.952 513.289Z" fill="#2B244A"/>
<path d="M328.266 400.945C316.413 384.848 297.806 377.947 279.48 371.989C262.155 366.374 244.346 361.289 225.961 362.02C225.101 362.148 225.068 360.746 225.928 360.618C245.562 359.772 264.512 365.672 282.99 371.713C300.622 377.493 318.05 384.745 329.303 400.123C329.82 400.995 328.712 401.582 328.266 400.945Z" fill="#2B244A"/>
<path d="M239.867 268.326C235.116 270.896 230.588 273.785 226.131 276.909C225.411 277.509 224.672 276.318 225.391 275.718C229.849 272.594 234.529 269.788 239.127 267.135C239.917 266.771 240.657 267.962 239.867 268.326Z" fill="#2B244A"/>
<path d="M395.573 279.792C381.597 291.013 361.727 291.929 347.049 281.421C333.053 271.478 328.456 254.758 327.898 238.246C327.77 237.386 329.254 237.2 329.299 238.213C329.812 253.712 333.822 269.324 346.653 279.229C361 290.35 380.94 289.669 394.916 278.448C395.47 278.155 396.21 279.345 395.573 279.792Z" fill="#2B244A"/>
<path d="M379.551 207.074C374.003 207.83 368.827 204.24 365.856 199.865C363.471 196.598 362.456 191.897 365.9 188.818C371.975 183.801 379.101 189.632 382.436 194.796C383.915 197.178 386.077 200.126 385.046 203.128C384.111 205.587 381.895 206.761 379.551 207.074Z" fill="#C7513C"/>
<path d="M355.82 238.522L355.978 236.038C353.528 229.968 363.717 222.827 364.724 213.289C365.358 208.097 373.954 202.071 385.849 202.376C396.424 202.56 412.852 209.469 412.311 221.433C408.768 220.308 406.321 218.984 404.052 216.966C401.884 223.899 398.327 230.475 393.406 235.919C393.323 236.072 393.323 236.072 393.24 236.225C391.673 236.564 390.036 236.666 388.411 236.381C387.717 236.203 386.869 235.942 386.175 235.764C383.952 246.819 378.48 257.302 365.713 257.513C354.584 257.622 345.226 248.607 339.25 238.456C344.666 239.408 350.272 239.277 355.82 238.522Z" fill="#C7513C"/>
<path d="M384.658 203.115C379.982 203.354 375.211 204.134 370.816 205.315C369.873 205.596 369.604 204.265 370.394 203.901C375.025 202.65 379.796 201.87 384.708 201.561C385.485 201.586 385.518 202.988 384.658 203.115Z" fill="#2B244A"/>
<path d="M400.035 242.668C397.247 247.091 391.368 248.457 386.945 245.67C382.522 242.882 381.155 237.003 383.943 232.58C386.731 228.157 392.61 226.79 397.033 229.578C401.609 232.448 402.823 238.245 400.035 242.668Z" fill="#FFA67D"/>
<path d="M-47.6015 693.456C-37.6485 686.385 -27.6957 679.313 -17.8956 672.16C-17.9659 671.924 -18.1187 671.841 -17.8003 671.618C-5.67923 657.614 4.33914 653.346 17.7801 651.522C34.0366 649.244 52.7229 651.246 69.0775 653.173C73.1869 653.616 78.1437 654.32 84.0307 655.132C74.728 673.428 66.0372 692.054 57.8052 710.929C47.4125 707.483 37.1728 704.119 26.9456 700.367C15.8816 703.279 4.74737 705.955 -6.38688 708.631C-14.9287 710.535 -23.6236 712.355 -32.2357 714.024C-38.6565 715.295 -46.2807 717.695 -52.8247 715.54C-56.8263 714.166 -59.4341 710.581 -58.6723 706.248C-57.4718 700.374 -51.9061 696.663 -47.6015 693.456Z" fill="#F5E3D9"/>
<path d="M-47.6469 692.443C-38.6568 683.862 -3.7969 652.306 9.4911 650.4C20.1992 648.877 40.1466 650.374 51.6272 651.444C41.4741 664.733 36.656 671.814 30.166 684.91C36.2011 688.371 41.838 696.956 40.7155 705.244C36.0194 703.693 31.5589 702.071 26.9455 700.367C15.8815 703.278 4.74729 705.955 -6.38696 708.631C-14.9288 710.534 -23.6237 712.355 -32.2358 714.023C-38.6566 715.295 -46.2808 717.695 -52.8248 715.54C-56.8264 714.166 -59.4342 710.581 -58.6724 706.248C-57.4719 700.374 -51.4224 696.134 -47.6469 692.443Z" fill="#2B244A"/>
<path d="M-10.3556 708.659C-11.2012 701.084 -5.34993 695.749 0.967962 692.84C9.97346 688.617 20.0121 686.139 29.6496 684.037C30.5096 683.909 31.0136 685.17 30.0709 685.451C22.7074 687.004 15.2487 689.098 8.16604 691.593C0.293676 694.452 -10.0306 698.554 -9.03691 708.779C-8.82624 709.486 -10.2277 709.519 -10.3556 708.659Z" fill="#F5E3D9"/>
<path d="M11.9254 702.917C12.5468 698.113 13.0153 693.227 13.5539 688.576C13.6616 687.646 15.0506 688.002 14.9429 688.932C14.3215 693.736 13.8532 698.622 13.3145 703.273C13.2068 704.203 11.8177 703.847 11.9254 702.917Z" fill="#F5E3D9"/>
<path d="M4.31316 704.93C4.61614 700.349 5.00188 695.616 5.77619 690.894C5.88392 689.964 7.27294 690.32 7.16521 691.25C6.47361 695.818 6.0177 700.316 5.71472 704.897C5.75994 705.91 4.35838 705.943 4.31316 704.93Z" fill="#F5E3D9"/>
<path d="M18.1691 651.534C6.19798 660.875 -6.30222 669.731 -18.6494 678.67C-25.1828 683.44 -31.7988 688.362 -37.7329 693.85C-43.5015 699.033 -51.7346 705.849 -53.4689 713.807C-53.7296 714.654 -54.9656 714.381 -54.8579 713.451C-53.314 706.576 -47.227 701.17 -42.4011 696.268C-36.5373 690.543 -30.1443 685.303 -23.5282 680.381C-9.97769 670.313 4.1019 660.729 17.4293 650.343C18.1488 649.744 18.8058 651.088 18.1691 651.534Z" fill="#F5E3D9"/>
<path d="M414.653 228.433C413.718 230.893 411.449 228.875 408.245 229.316C405.43 229.77 403.499 229.319 403.466 227.917C403.446 226.127 406.382 224.354 410.421 224.562C414.377 224.923 415.41 226.668 414.653 228.433Z" fill="#C7513C"/>
<path d="M410.808 231.888C408.712 231.743 408.694 234.699 408.963 236.03C409.091 236.89 409.607 237.763 410.537 237.87C411.856 237.991 412.154 235.977 412.262 235.047C412.453 233.964 412.362 231.938 410.808 231.888Z" fill="#2B244A"/>
<path d="M413.692 251.044C411.762 250.593 410.162 249.53 408.645 248.314C407.963 247.747 408.931 246.689 409.613 247.256C410.894 248.542 412.271 249.286 414.048 249.655C414.896 249.915 414.54 251.304 413.692 251.044Z" fill="#2B244A"/>
<path d="M392.773 233.798C389.888 234.016 387.882 235.897 388.559 239.031C388.687 239.891 387.426 240.395 387.145 239.452C386.34 235.458 388.912 232.896 392.741 232.396C393.601 232.268 393.633 233.67 392.773 233.798Z" fill="#2B244A"/>
<path d="M642.543 351.693C636.544 354.379 630.486 356.44 623.913 357.629C623.053 357.757 622.549 356.496 623.491 356.215C629.829 355.097 635.887 353.035 641.733 350.267C642.593 350.139 643.333 351.33 642.543 351.693Z" fill="#2B244A"/>
<path d="M638.92 343.407C633.073 346.175 626.863 348.154 620.595 349.508C619.735 349.636 619.231 348.375 620.174 348.094C626.442 346.74 632.416 344.831 638.263 342.063C638.97 341.852 639.709 343.043 638.92 343.407Z" fill="#2B244A"/>
<path d="M626.258 369.375C623.009 368.804 619.676 368.385 616.58 367.897C615.65 367.789 616.006 366.4 616.936 366.508C620.185 367.079 623.517 367.498 626.614 367.986C627.544 368.094 627.188 369.483 626.258 369.375Z" fill="#2B244A"/>
<path d="M104.345 50.3151C99.4302 45.8778 94.1848 42.0523 88.5383 38.6028C87.7736 38.1892 88.4354 36.9656 89.2001 37.3793C94.9996 40.9114 100.398 44.8197 105.465 49.3397C105.912 49.9765 105.027 50.8817 104.345 50.3151Z" fill="#2B244A"/>
<path d="M101.695 31.0909C98.8235 23.6072 97.1304 15.7723 96.7687 7.66907C96.6407 6.80911 98.0423 6.77641 98.1702 7.63637C98.6147 15.5867 100.237 23.1858 103.109 30.6696C103.32 31.3766 102.058 31.8807 101.695 31.0909Z" fill="#2B244A"/>
<path d="M93.3059 33.0774C91.8563 27.3511 91.1136 21.4141 91.2309 15.3492C91.3386 14.419 92.7402 14.3863 92.6324 15.3165C92.5978 21.2285 93.2702 26.9298 94.7199 32.6561C95.0008 33.5988 93.5868 34.0201 93.3059 33.0774Z" fill="#2B244A"/>
<path d="M167.939 334.79C167.773 335.096 167.538 335.166 167.372 335.472C153.679 352.381 65.2056 386.57 63.419 340.53C62.3559 310.697 125.557 307.518 148.982 307.338C170.617 307.178 179.638 319.372 167.939 334.79Z" fill="#587EE0"/>
<path d="M46.4418 382.153C52.4759 373.556 66.2728 370.343 76.0007 370.267C82.9256 370.256 95.5797 373.542 90.7567 383.19C85.0362 394.132 67.8948 397.315 56.5546 396.717C48.7121 396.231 40.7386 390.139 46.4418 382.153Z" fill="#F576A6"/>
<path d="M7.86801 497.697C23.8955 485.609 50.1704 479.062 68.192 477.542C75.8364 476.932 83.8069 478.277 91.4061 476.654C99.241 474.961 105.398 469.791 111.167 464.608C120.698 456.123 134.051 444.96 147.58 452.475C152.628 455.205 155.995 461.771 153.947 467.385C152.752 470.692 150.097 473.408 147.454 475.734C129.512 491.729 106.338 496.197 83.2847 499.345C76.0164 500.356 69.2647 502.24 62.9218 505.926C56.98 509.236 51.778 513.737 46.3528 517.919C37.4954 524.792 27.3895 531.781 15.578 531.323C0.504658 530.682 -9.34747 515.272 1.69821 503.256C3.55087 501.293 5.70947 499.495 7.86801 497.697Z" fill="#F576A6"/>
<path d="M25.2106 759.13C33.1003 753.315 43.1061 749.436 52.3223 745.92C61.5384 742.404 71.2712 739.761 81.1771 738.99C92.2488 738.257 100.731 743.043 111.269 744.393C123.667 745.959 135.679 740.199 147.949 740.905C151.752 741.183 155.614 742.085 158.648 744.517C167.361 751.8 158.804 761.405 153.246 767.295C140.112 781.344 125.215 787.323 105.636 784.048C93.5688 781.87 81.7169 777.832 69.4091 778.292C57.4197 778.528 47.4543 785.988 35.6755 786.932C28.7381 787.331 20.1106 784.642 17.144 777.699C14.1196 770.133 19.314 763.453 25.2106 759.13Z" fill="#587EE0"/>
<path d="M102.47 783.323C108.163 780.472 114.361 778.882 120.744 778.776C125.809 778.55 132.333 778.915 135.457 783.373C143.363 793.975 127.18 801.235 119.089 801.208C112.788 801.161 96.6194 800.718 94.302 792.941C92.8274 787.992 98.9923 785.001 102.47 783.323Z" fill="#F576A6"/>
<path d="M199.425 628.189C206.6 620.406 257.108 603.047 245.878 625.638C240.972 635.439 224.525 638.8 214.958 641.138C205.556 643.169 186.125 642.544 199.425 628.189Z" fill="#587EE0"/>
</svg>
