<svg width="320" height="292" viewBox="0 0 320 292" fill="none" xmlns="http://www.w3.org/2000/svg">
<path fill-rule="evenodd" clip-rule="evenodd" d="M165.884 73.1333C189.393 70.141 216.21 52.3867 234.96 66.9067C253.828 81.5182 240.582 112.752 246.822 135.812C252.578 157.082 275.701 174.763 269.899 196.02C264.1 217.267 236.338 221.926 219.465 236.047C200.785 251.68 190.223 283.247 165.884 283.071C141.514 282.895 130.89 251.706 112.861 235.278C97.4828 221.266 76.4557 213.063 68.1152 193.987C59.3434 173.925 59.3015 150.479 66.7867 129.901C74.1205 109.738 89.8883 93.6568 108.483 83.005C125.759 73.1085 146.142 75.6461 165.884 73.1333Z" fill="#262234"/>
<path d="M243.791 175.364C240.455 172.743 226.481 183.181 227.695 186.928C228.137 188.179 229.464 188.467 230.64 188.412C234.174 188.137 237.802 185.912 240.321 183.52C241.785 182.139 246.319 177.387 243.791 175.364Z" fill="#587EE0"/>
<path d="M148.563 138.296C144.926 139.43 141.988 142.467 140.447 145.886C139.563 147.334 139.24 149.004 140.438 150.571C142.441 153.219 146.282 151.185 148.359 149.705C150.88 147.901 154.308 144.757 154.372 141.374C154.32 138.244 151.024 137.533 148.563 138.296Z" fill="#587EE0"/>
<path d="M119.412 144.748C119.028 144.032 118.056 142.188 117.392 140.447C110.25 144.113 106.438 146.541 98.0897 152.011C96.4869 153.044 93.7958 155.114 92.1053 156.795C91.394 157.464 91.311 158.396 91.8421 158.737C92.3187 159.09 92.973 158.948 93.5184 158.83C93.1295 159.143 92.7407 159.456 92.3519 159.769C91.2826 160.629 89.9287 161.495 89.0586 162.483C88.3283 163.327 89.0609 164.596 90.1563 164.643C90.7917 164.677 91.4461 164.534 92.1005 164.392C91.6192 165.068 91.1071 165.864 91.3039 166.507C91.7615 168.349 95.1401 166.815 96.1288 166.372C100.091 164.368 103.825 161.843 107.348 159.135C106.677 161.566 105.727 164.285 105.537 166.04C105.487 166.336 105.504 166.675 105.684 166.979C107.28 170.116 113.337 159.889 114.039 158.652C114.741 157.414 115.521 156.274 116.434 155.219C118.26 153.108 120.339 151.114 122.153 148.95C121.015 147.655 120.192 146.235 119.412 144.748Z" fill="#BE8273"/>
<path d="M249.758 204.475C249.507 203.844 249.213 203.28 248.864 202.728C248.852 202.673 248.852 202.673 248.84 202.619C244.487 196.255 241.002 189.417 238.396 182.159C238.372 182.05 238.239 181.965 238.119 181.934C238.04 181.837 237.974 181.794 237.798 181.775C234.346 182.183 232.563 185.54 229.519 186.773C229.507 186.719 229.441 186.676 229.429 186.622C229.249 186.318 228.673 186.558 228.919 186.904C228.931 186.958 228.997 187.001 229.009 187.056C228.881 187.255 229.019 187.625 229.28 187.511C230.012 188.779 230.418 190.119 230.671 191.549C230.972 193.196 230.935 194.861 230.897 196.525C230.816 198.256 230.669 199.944 230.643 201.663C230.598 203.558 230.705 205.362 231.108 207.216C231.167 207.489 231.226 207.761 231.383 207.956C231.833 208.715 232.869 208.489 233.374 207.923C233.642 207.579 233.844 207.192 233.979 206.763C234.408 205.585 234.553 204.411 234.806 203.214C234.961 202.609 235.103 201.95 235.257 201.345C236.068 202.711 236.879 204.077 237.647 205.509C238.728 207.33 239.65 209.471 240.981 211.123C241.54 211.858 242.488 212.28 243.297 211.534C244.063 210.853 243.702 208.933 243.273 207.484C243.857 208.328 244.494 209.16 245.175 209.926C245.777 210.595 246.853 212.131 247.958 211.434C249.063 210.737 248.278 208.966 247.925 208.129C247.453 206.747 246.818 205.4 246.14 204.119C246.574 204.539 246.996 204.904 247.297 205.239C247.809 205.755 248.622 206.607 249.405 206.265C250.078 205.947 250.009 205.106 249.758 204.475Z" fill="#BE8273"/>
<path d="M198.546 73.4612C198.316 73.4541 198.14 73.4351 197.91 73.428C198.005 72.5507 198.008 72.0362 198.02 72.0908C197.849 72.3563 197.659 72.7973 197.45 73.4138C194.321 73.466 191.307 74.578 188.955 76.6313C187.509 77.8595 186.582 79.3745 185.679 80.9987C184.659 82.8765 183.421 84.8017 181.408 85.5249C179.305 86.0963 177.013 85.7952 174.869 85.9185C172.78 86.03 170.708 86.4805 168.683 87.1491C160.195 90.1366 154.09 97.5175 151.484 106.022C150.249 110.06 149.739 114.283 149.799 118.496C148.31 123.731 150.263 129.303 154.607 132.471C154.83 134.021 155.283 135.579 156.105 136.999C157.708 139.906 160.646 142.123 164.134 141.879C167.785 141.599 169.343 138.519 171.491 136.053C173.079 134.166 174.855 133.666 177.245 133.888C179.23 134.085 181.077 133.912 182.957 133.104C187.512 131.2 190.352 126.927 192.901 122.889C193.072 122.624 197.133 83.2487 197.974 73.9852C198.204 73.9923 198.434 73.9994 198.61 74.0184C198.906 74.0682 198.951 73.4873 198.546 73.4612Z" fill="#373349"/>
<path opacity="0.3" d="M186.136 78.7098C189.177 76.058 193.076 74.6158 197.133 74.5442L197.278 74.5486L197.266 74.6806C196.701 80.8734 195.056 97.1387 193.522 111.904C192.756 119.285 192.018 126.29 191.457 131.471C191.176 134.062 190.94 136.196 190.767 137.693C190.681 138.442 190.61 139.029 190.558 139.433C190.532 139.636 190.511 139.789 190.495 139.892C190.492 139.911 190.489 139.927 190.487 139.941C187.073 145.339 183.361 150.846 177.483 153.302L177.478 153.305C175.067 154.34 172.695 154.568 170.111 154.312L170.108 154.312C168.457 154.159 166.972 154.25 165.606 154.733C164.236 155.218 163.028 156.083 161.91 157.409C161.325 158.08 160.77 158.786 160.229 159.475C160.095 159.646 159.962 159.816 159.829 159.984C159.154 160.838 158.488 161.652 157.767 162.371C156.337 163.798 154.714 164.831 152.449 165.006C148.066 165.313 144.316 162.532 142.243 158.776L142.243 158.776L142.237 158.766C141.181 156.945 140.594 154.935 140.303 152.914L140.269 152.674L140.073 152.531C134.45 148.436 131.922 141.23 133.851 134.458L133.875 134.377L133.873 134.293C133.796 128.707 134.474 123.118 136.11 117.78C139.559 106.544 147.624 96.8294 158.788 92.8996C161.462 92.0175 164.185 91.4274 166.919 91.281L166.921 91.2809C167.843 91.2277 168.769 91.2341 169.722 91.2407C170.237 91.2443 170.76 91.2479 171.294 91.2422C172.787 91.2262 174.317 91.135 175.798 90.7329L175.82 90.7269L175.841 90.7191C178.764 89.6695 180.511 86.9001 181.872 84.3979C183.078 82.2323 184.278 80.2859 186.13 78.715L186.136 78.7098Z" stroke="white" stroke-width="1.15089"/>
<path d="M215.908 84.7634C215.18 83.7795 214.227 83.0729 213.304 82.2455C212.66 81.6432 211.87 80.9011 211.668 79.9741C211.479 79.1015 211.858 78.2195 212.14 77.4158C212.792 75.1609 212.422 72.6714 210.73 70.9264C209.826 69.9234 207.657 69.1387 207.292 70.8742C207.116 70.8553 207.019 70.9335 207.012 71.1635C207.28 77.3873 206.46 83.3338 204.961 89.3134C204.172 92.5119 201.744 100.521 207.489 100.414C212.107 100.381 215.481 95.9355 216.811 92.334C217.534 90.4064 217.207 86.5369 215.908 84.7634Z" fill="#373349"/>
<path d="M211.65 86.7169L210.681 94.866C210.681 94.866 207.221 94.1902 201.152 91.2265L201.856 84.2202L211.65 86.7169Z" fill="#BE8273"/>
<path d="M196.649 77.8706C196.02 76.2939 196.364 72.6213 199.816 70.8999C202.899 69.3161 207.064 69.0387 210.306 72.3888C213.601 75.7272 214.109 77.2731 215.306 80.1538C216.252 82.4039 216.802 85.1969 214.265 86.6622C211.37 88.3195 208.06 86.7547 206.085 85.8134C204.11 84.8721 198.97 83.8195 196.649 77.8706Z" fill="#BE8273"/>
<path d="M209.106 71.3371C208.902 69.611 206.569 68.8618 205.517 68.748C203.883 68.5892 201.913 69.2459 200.45 70.1351C199.248 70.9104 198.19 71.8256 197.199 72.7835C196.294 73.6086 195.544 74.6281 195.224 75.7828C194.842 77.1793 195.298 78.2225 196.007 79.3819C196.625 80.3896 197.268 81.5064 196.554 82.6895C196.128 83.3534 195.49 83.8347 194.942 84.4677C194.437 85.0344 194.053 85.6319 193.965 86.2792C193.923 86.3456 193.934 86.4001 193.946 86.4546C193.939 86.6846 193.944 86.9691 194.003 87.2418C194.027 87.3508 194.105 87.4481 194.226 87.4789C195.02 89.819 197.235 91.3364 199.651 91.1539C203.715 91.9837 200.412 87.5618 204.547 84.7783C207.139 83.3011 207.188 80.3777 205.066 78.4975C205.519 77.4282 206.996 78.7062 206.584 77.5965C205.22 73.9523 209.422 73.8385 209.106 71.3371Z" fill="#373349"/>
<path d="M212.347 74.6865C212.347 74.6865 214.943 76.121 215.311 76.4979C215.636 76.9413 215.392 77.3942 214.424 78.4611C213.402 79.5399 212.347 74.6865 212.347 74.6865Z" fill="#BE8273"/>
<path d="M120.672 230.139C117.373 228.629 115.517 226.919 114.739 226.232C113.651 225.954 111.297 224.581 106.74 221.746C106.341 221.49 105.931 221.179 105.466 220.88C103.683 221.611 101.991 222.493 100.478 223.678C98.1756 225.435 96.0014 228.306 95.6908 231.344C98.5763 231.744 100.191 233.392 105.109 235.521C105.156 235.739 106.982 234.943 107.176 234.786C107.23 234.774 113.129 231.436 116.375 231.13C118.168 230.969 119.93 230.929 121.565 230.573C121.245 230.414 120.937 230.31 120.672 230.139Z" fill="#E0785E"/>
<path d="M104.286 236.728C104.286 236.728 99.5842 235.066 99.954 233.614C100.793 230.12 107.764 224.093 111.603 223.886C113.134 223.839 118.045 226.198 118.045 226.198L104.286 236.728Z" fill="#373349"/>
<path d="M84.1134 244.026C82.3423 246.125 79.1699 248.87 78.1409 251.493C77.1119 254.115 76.6401 256.673 78.0082 259.288C78.2903 259.798 78.5724 260.308 78.9755 260.849C79.2244 260.68 79.4734 260.512 79.6679 260.355C81.3133 259.255 83.2528 258.719 85.1923 258.184C87.6771 257.529 90.1618 256.875 92.5921 256.232C92.5541 252.642 92.9097 249.024 93.6399 245.553C94.1355 243.104 94.2754 242.959 95.3945 240.489C91.0461 242.291 87.2099 243.296 84.1134 244.026Z" fill="#E0785E"/>
<path d="M92.4192 257.012C92.4192 257.012 87.81 258.927 87.12 257.592C85.4034 254.425 86.6079 245.254 89.3321 242.548C90.4086 241.458 95.6816 239.969 95.6816 239.969L92.4192 257.012Z" fill="#2B244A"/>
<path d="M217.286 133.92C217.286 133.92 216.319 131.047 212.444 129.776C208.625 128.493 201.298 130.257 196.63 131.901C192.016 133.532 185.017 137.852 185.017 137.852C183.751 142.01 181.989 145.991 179.81 149.892C185.501 148.483 191.743 148.04 197.597 147.909C202.368 147.786 207.579 147.852 211.769 150.311C214.462 145.1 216.352 139.606 217.395 133.897L217.286 133.92Z" fill="#BE8273"/>
<path d="M209.827 136.914C209.394 137.808 209.619 138.844 210.385 139.477C210.596 139.66 210.852 139.261 210.641 139.079C210.086 138.628 209.896 137.756 210.214 137.116C210.33 136.862 209.944 136.66 209.827 136.914Z" fill="#2B244A"/>
<path d="M227.704 114.066C225.679 109.481 222.969 105.159 219.84 101.27C219.683 101.076 219.484 100.948 219.315 100.699C211.859 92.6683 201.346 88.4432 190.368 87.86C180.737 86.6414 174.423 92.0118 167.901 97.9986C160.235 105.033 156.947 108.033 149.281 115.067C142.436 118.783 132.061 126.749 125.986 131.382C123.684 133.139 121.178 135.797 119.533 138.211C117.759 139.51 115.931 140.821 114.146 142.066C113.951 142.223 114.046 142.659 114.046 142.659C114.312 146.77 116.462 150.357 119.744 152.842C119.81 152.885 120.13 153.044 120.282 152.954C122.01 152.235 123.696 151.583 125.425 150.865C143.7 150.604 156.463 135.493 170.122 125.557C172.977 123.451 176.043 121.528 179.191 119.987C178.298 123.494 177.778 127.147 179.258 130.538C180.216 132.843 182.333 134.438 184.728 134.946C184.355 135.598 183.922 136.491 184.005 136.873C184.159 137.582 184.733 137.857 185.247 137.86C185.247 137.86 192.192 133.551 196.86 131.908C201.474 130.277 208.8 128.513 212.675 129.784C216.44 131.078 217.438 133.831 217.516 133.928C216.558 138.191 215.385 141.987 213.796 146.502C214.069 146.442 215.14 146.381 216.172 145.871C221.796 157.555 216.376 173.868 227.005 183.093C227.418 184.203 227.842 185.367 228.2 186.488C228.487 187.283 228.681 188.44 229.369 188.975C230.834 190.199 234.021 188.307 235.235 187.586C236.904 186.595 238.467 185.113 238.772 183.105C239.002 181.798 238.718 180.49 238.324 179.205C238.611 178.685 238.758 178.311 239.126 177.374C240.155 174.752 239.583 171.335 239.287 168.658C238.862 164.867 235.581 146.62 234.666 142.936C233.143 126.476 231.526 122.716 227.704 114.066Z" fill="#EB5D19"/>
<path d="M227.292 183.889C230.989 184.341 235.249 181.872 238.116 179.821C238.365 179.653 238.064 179.319 237.815 179.487C235.045 181.46 230.894 183.905 227.307 183.429C227.01 183.379 226.996 183.839 227.292 183.889Z" fill="#2B244A"/>
<path d="M245.597 153.215C243.446 151.49 239.195 152.736 237.062 154.084C233.951 156 232.546 159.619 229.65 161.713C227.392 163.335 225.234 162.895 222.752 163.389C220.041 163.983 217.828 165.831 216.27 167.99C214.173 170.905 212.831 174.359 210.41 177.035C202.604 185.874 184.517 183.261 180.177 195.509C179.136 198.531 179.477 201.844 181.649 204.297C186.362 209.611 194.935 207.961 199.037 202.909C200.881 200.596 202.461 197.991 204.886 196.377C207.832 194.398 211.639 194.248 214.892 192.842C221.059 190.125 223.94 183.728 226.293 177.865C228.835 171.563 234.802 169.507 240.165 166.081C244.442 163.16 249.575 156.426 245.597 153.215Z" fill="#F576A6"/>
<path d="M217.137 136.124C219.23 133.67 220.122 130.678 218.18 127.787C216.226 124.843 212.229 124.055 208.942 123.913C199.532 123.446 191.144 128.468 184.36 134.569C184.178 134.78 184.467 135.059 184.661 134.903C190.442 129.706 197.448 125.156 205.35 124.466C208.772 124.179 212.912 124.307 215.899 126.227C217.293 127.123 218.256 128.399 218.666 130.023C219.164 132.314 218.351 134.089 216.836 135.789C216.653 136 216.954 136.335 217.137 136.124Z" fill="#2B244A"/>
<path d="M184.277 117.111C183.561 116.182 182.388 117.351 181.75 117.832C180.863 118.482 180.171 118.975 179.125 119.944C178.94 120.67 178.886 120.682 178.755 121.395C180.595 120.139 185.24 118.387 184.277 117.111Z" fill="#2B244A"/>
<path d="M212.258 145.465C210.491 143.907 207.056 143.341 205.301 143.151C201.901 142.748 198.511 142.914 195.137 143.419C187.279 144.841 181.632 146.183 177.667 151.329C177.314 151.805 173.881 153.351 173.068 153.813C171.496 154.726 169.99 155.682 168.442 156.704C165.454 158.724 162.569 160.95 159.828 163.316C154.316 168.17 149.69 173.687 145.522 179.733C137.325 191.681 131.229 204.885 122.025 216.138C118.142 220.865 113.848 225.282 109.03 229.128C105.281 232.113 96.4828 238.138 96.4828 238.138C93.5973 240.364 91.8096 244.751 90.847 248.729C89.8797 252.423 89.5928 259.51 93.3603 258.977C104.246 257.296 113.267 254.135 123.024 249.101C129.525 252.999 136.387 256.191 143.824 257.829C154.371 260.105 165.671 259.019 174.718 252.826C183.669 246.711 190.673 236.108 194.888 226.339C199.514 215.568 203.179 204.32 206.143 192.996C209.064 181.739 212.549 164.933 211.769 151.625C211.769 151.625 213.104 149.621 213.322 148.26C213.467 147.087 213.035 146.152 212.258 145.465Z" fill="#373349"/>
<path d="M101.151 235.182C105.796 232.116 110.049 228.564 114.225 224.915C114.474 224.747 114.118 224.424 113.923 224.581C109.736 228.175 105.537 231.715 100.892 234.781C100.698 234.937 100.89 235.295 101.151 235.182Z" fill="#8D84B8"/>
<path d="M197.652 70.4002C196.523 69.6747 195.181 69.2811 193.892 69.3902C191.869 69.5443 188.426 71.8347 189.922 74.2507C191.046 76.0053 193.382 76.24 195.364 75.6377C196.108 75.6472 196.896 75.5903 197.635 75.3153C198.593 74.9928 200.006 74.4001 199.975 73.2075C199.933 71.9603 198.515 70.955 197.652 70.4002Z" fill="#373349"/>
<path d="M207.034 82.2953C208.661 81.9417 209.692 80.3366 209.339 78.7103C208.985 77.0839 207.38 76.0522 205.754 76.4057C204.127 76.7593 203.096 78.3643 203.449 79.9907C203.803 81.617 205.408 82.6488 207.034 82.2953Z" fill="#E0785E"/>
<path d="M205.429 79.9023C205.232 79.2598 205.175 78.4726 205.903 78.143C206.164 78.0292 205.96 77.6166 205.699 77.7305C204.82 78.1501 204.748 79.1365 205.035 79.9307C205.118 80.3125 205.555 80.2176 205.429 79.9023Z" fill="#2B244A"/>
<path d="M84.1131 244.026C82.8044 244.311 81.4955 244.595 80.1748 244.825C77.249 245.29 74.6315 247.173 72.5995 249.385C69.9109 252.254 68.1991 255.938 66.5845 259.545C65.5934 261.816 64.6687 264.13 63.7986 266.432C62.7198 269.351 64.7257 274.112 68.5596 270.994C71.0871 268.96 73.3916 266.688 75.5515 264.277C76.7868 262.866 78.0649 261.389 79.6676 260.355C80.718 259.67 81.8157 259.203 82.9917 258.833C82.9111 257.937 82.5578 257.1 81.8038 256.522C80.9835 255.9 80.0706 255.642 79.1198 255.734C79.9022 251.452 81.6094 247.483 84.1131 244.026Z" fill="#F5E3D9"/>
<path d="M106.685 221.757C105.158 220.776 102.813 218.658 100.933 218.153C99.107 217.636 97.3668 218.3 95.9347 219.068C91.1169 221.601 86.7021 224.674 82.1972 227.595C80.7889 228.472 79.3378 229.416 78.5506 230.786C77.6236 232.301 78.4274 233.897 80.5139 234.3C81.9412 234.561 83.2927 234.21 84.6015 233.925C86.1284 233.593 92.4162 231.255 94.0143 231.251C95.8305 231.198 97.106 231.549 98.4527 232.227C98.8273 231.061 98.6211 229.849 97.9478 228.854C100.461 225.966 103.42 223.552 106.685 221.757Z" fill="#F5E3D9"/>
<path d="M223.816 119.824C223.577 119.248 223.577 119.248 223.361 118.781C223.162 119.966 222.823 119.983 222.533 121.017C223.086 123.295 223.589 125.87 223.648 127.456C223.909 135.224 220.255 141.272 216.009 145.907C217.064 148.134 217.761 150.552 218.197 153.084C222.368 147.837 226.163 142.443 226.818 135.733C227.51 128.673 225.95 124.386 223.816 119.824Z" fill="#373349"/>
<path d="M218.889 106.617C221.39 108.929 223.792 111.833 223.896 115.466C223.993 118.014 222.706 120.236 221.582 122.422C221.466 122.676 221.81 122.944 221.98 122.678C223.221 120.238 224.582 117.829 224.37 115.02C224.114 111.478 221.791 108.67 219.289 106.359C219.012 106.133 218.678 106.435 218.889 106.617Z" fill="#2B244A"/>
<path d="M119.326 138.313C120.377 142.882 121.918 147.344 125.183 150.803C125.394 150.986 125.728 150.685 125.517 150.502C122.319 147.086 120.789 142.678 119.817 138.206C119.703 137.945 119.267 138.04 119.326 138.313Z" fill="#2B244A"/>
<path d="M92.4944 164.363C94.8275 162.485 97.1724 160.662 99.5955 158.936C99.8445 158.767 99.5433 158.433 99.2943 158.601C96.883 160.382 94.4717 162.163 92.1932 164.028C91.9443 164.197 92.2455 164.531 92.4944 164.363Z" fill="#2B244A"/>
<path d="M93.3952 159.313C95.235 158.057 97.063 156.745 98.9029 155.489C99.1518 155.32 98.9479 154.908 98.699 155.076C96.8591 156.333 95.031 157.644 93.1911 158.901C92.9422 159.069 93.1462 159.482 93.3952 159.313Z" fill="#2B244A"/>
<path d="M239.937 202.383C241.084 204.247 242.189 206.177 243.24 208.119C243.353 208.38 243.766 208.176 243.652 207.915C242.602 205.973 241.509 204.098 240.361 202.234C240.181 201.931 239.769 202.134 239.937 202.383Z" fill="#2B244A"/>
<path d="M243.441 199.852C244.342 201.369 245.255 202.941 246.102 204.47C246.27 204.719 246.628 204.527 246.514 204.266C245.613 202.749 244.7 201.177 243.854 199.648C243.686 199.399 243.285 199.657 243.441 199.852Z" fill="#2B244A"/>
<path d="M123.32 249.151C135.502 243.191 147.542 236.576 157.879 227.646C162.553 223.661 166.835 219.189 170.562 214.267C174.234 209.356 177.189 204.031 179.635 198.474C182.651 191.593 185.214 184.468 187.064 177.213C187.114 176.916 186.684 176.781 186.635 177.078C185.02 183.311 182.934 189.476 180.461 195.439C178.073 201.269 175.299 206.898 171.631 212.093C164.155 222.627 154.105 231.037 143.196 237.863C136.707 241.901 129.947 245.483 123.128 248.793C122.855 248.853 123.059 249.265 123.32 249.151Z" fill="#8D84B8"/>
<path d="M178.03 151.422C184.22 149.162 190.56 147.327 197.19 147.085C202.287 146.89 208.101 147.625 211.38 151.938C211.548 152.187 211.883 151.886 211.714 151.637C208.514 147.422 202.762 146.445 197.773 146.616C190.847 146.808 184.235 148.702 177.771 151.021C177.565 151.123 177.769 151.535 178.03 151.422Z" fill="#8D84B8"/>
<path d="M67.5114 271.164C65.7972 268.796 66.3733 265.929 67.4379 263.471C68.3863 261.266 69.5219 259.134 70.724 257.045C73.0001 253.067 75.5418 249.259 78.3609 245.676C78.5434 245.465 78.1452 245.209 77.9626 245.42C74.6077 249.69 71.6084 254.283 69.062 259.12C67.1083 262.743 64.2773 267.584 67.1225 271.477C67.3454 271.714 67.6797 271.413 67.5114 271.164Z" fill="#2B244A"/>
<path d="M72.5738 266.866C70.4803 266.693 70.7031 264.303 71.4595 263.053C72.0451 262.069 72.8845 261.201 73.6693 260.345C75.3598 258.664 77.2068 257.178 79.2885 255.983C79.5375 255.814 79.3453 255.456 79.0845 255.57C76.1587 257.349 73.0669 259.677 71.1891 262.598C70.1649 264.191 70.0488 267.072 72.5597 267.326C72.8442 267.321 72.8702 266.915 72.5738 266.866Z" fill="#2B244A"/>
<path d="M76.5641 248.18C79.3476 248.374 80.8745 246.729 82.7049 244.903C82.8875 244.692 82.5863 244.358 82.4037 244.569C80.7251 246.304 79.2409 247.884 76.5783 247.72C76.2819 247.67 76.2677 248.13 76.5641 248.18Z" fill="#2B244A"/>
<path d="M74.2877 260.039C74.961 261.035 75.6889 262.019 76.3623 263.015C76.5306 263.264 76.8649 262.963 76.6966 262.714C76.0232 261.718 75.2953 260.734 74.6219 259.738C74.4536 259.489 74.1193 259.79 74.2877 260.039Z" fill="#2B244A"/>
<path d="M75.827 258.449C76.4885 259.39 77.15 260.332 77.7143 261.351C77.8826 261.6 78.2407 261.408 78.1268 261.147C77.508 260.14 76.8892 259.132 76.1613 258.148C75.9384 257.911 75.6041 258.212 75.827 258.449Z" fill="#2B244A"/>
<path d="M79.2715 233.315C79.0297 230.626 82.6857 229.318 84.5612 228.224C86.3394 227.21 88.1058 226.14 89.884 225.126C93.5377 223.018 97.1796 220.855 100.833 218.748C101.082 218.579 100.89 218.221 100.629 218.335C96.1198 220.972 91.6528 223.542 87.1432 226.178C85.0188 227.44 82.7498 228.561 80.7155 229.974C79.5253 230.804 78.6788 231.902 78.8353 233.41C78.84 233.694 79.2763 233.6 79.2715 233.315Z" fill="#2B244A"/>
<path d="M85.9884 233.738C86.9249 228.852 94.3697 228.947 98.1941 229.2C98.4787 229.195 98.5049 228.79 98.2085 228.74C94.2086 228.468 86.5574 228.475 85.5593 233.603C85.5095 233.9 85.9386 234.035 85.9884 233.738Z" fill="#2B244A"/>
<path d="M98.5928 220.262C99.2377 220.864 100.43 220.833 101.229 220.831C102.246 220.781 103.107 220.537 103.897 219.965C104.146 219.797 103.845 219.463 103.596 219.631C102.958 220.112 102.206 220.333 101.419 220.39C100.741 220.423 99.4392 220.477 98.9271 219.961C98.7161 219.778 98.3818 220.079 98.5928 220.262Z" fill="#2B244A"/>
<path d="M91.8874 229.087C91.6479 229.824 91.475 230.604 91.3683 231.427C91.3185 231.723 91.7784 231.738 91.8282 231.441C91.9467 230.673 92.0772 229.959 92.3167 229.222C92.3665 228.926 91.9372 228.79 91.8874 229.087Z" fill="#2B244A"/>
<path d="M94.043 229.017C93.8462 229.688 93.704 230.347 93.519 231.073C93.4693 231.369 93.8984 231.504 93.9482 231.208C94.145 230.537 94.2872 229.878 94.4721 229.152C94.5764 228.844 94.1473 228.709 94.043 229.017Z" fill="#2B244A"/>
<path d="M208.95 86.9039C209.459 87.9353 210.351 88.8837 211.361 89.0639L211.562 87.3639C210.74 87.2572 209.991 86.9632 209.229 86.6147C209.042 86.5412 208.86 86.7522 208.95 86.9039Z" fill="#2B244A"/>
<path d="M211.442 72.8845C211.783 73.6669 210.821 73.7048 210.266 74.5679C209.754 75.3645 209.256 75.7012 208.888 75.3242C208.509 74.8927 208.677 73.8281 209.637 72.9912C210.555 72.2206 211.148 72.3202 211.442 72.8845Z" fill="#2B244A"/>
<path d="M211.276 74.7483C210.657 75.0542 211.24 75.8982 211.529 76.178C211.74 76.3605 212.006 76.5313 212.267 76.4175C212.679 76.2135 212.385 75.6492 212.205 75.3458C212.025 75.0423 211.688 74.5444 211.276 74.7483Z" fill="#2B244A"/>
<path d="M215.24 80.1112C215.126 79.8504 215.012 79.5896 214.91 79.3833C214.498 79.5872 213.976 79.8149 213.225 80.0354C214.009 80.493 214.747 80.7324 215.448 80.8083C215.444 80.5238 215.342 80.3175 215.24 80.1112Z" fill="white"/>
<path d="M90.8874 257.06C89.6663 251.443 91.8239 245.605 94.3466 240.659C94.4628 240.406 94.1189 240.138 93.9482 240.403C91.3283 245.428 89.14 251.386 90.3848 257.112C90.5104 257.427 90.9467 257.332 90.8874 257.06Z" fill="#8D84B8"/>
<path d="M206.596 81.5917C206.69 82.0279 206.434 82.4263 205.998 82.5211C205.562 82.616 205.164 82.3599 205.069 81.9236C204.974 81.4873 205.23 81.089 205.666 80.9942C206.048 80.9112 206.501 81.1554 206.596 81.5917Z" fill="#FFBE63"/>
<path d="M206.596 81.5917C206.69 82.0279 206.434 82.4263 205.998 82.5211C205.562 82.616 205.164 82.3599 205.069 81.9236C204.974 81.4873 205.23 81.089 205.666 80.9942C206.048 80.9112 206.501 81.1554 206.596 81.5917Z" fill="#FFBE63"/>
<path d="M191.388 75.4734C192.839 74.5298 194.359 74.4278 195.881 73.8114C197.142 73.3087 198.145 72.4053 199.082 71.4593C199.264 71.2483 198.963 70.914 198.78 71.125C197.498 72.3176 196.386 73.2447 194.653 73.6786C193.356 74.0177 192.277 74.3093 191.184 75.0609C190.935 75.2293 191.127 75.5872 191.388 75.4734Z" fill="#8D84B8"/>
<path d="M98.8385 180.278C98.0561 179.306 96.5671 179.287 95.5238 179.742C92.5459 181.018 90.6657 184.453 88.8021 186.914C87.8703 188.145 86.9196 190.865 89.3333 191.196C90.9242 191.422 92.7048 189.892 93.8832 189.008C95.5595 187.787 97.1101 186.251 98.3288 184.501C99.1089 183.36 99.8676 181.596 98.8385 180.278Z" fill="#F576A6"/>
<path d="M238.236 125.368C238.321 125.93 238.575 126.446 239.007 126.746C239.387 126.988 239.941 127.071 240.39 127.037C243.416 126.849 248.913 122.982 247.409 119.445C246.509 117.278 243.689 117.811 242.079 118.738C240.122 119.928 238.202 122.628 238.197 125.03C238.194 125.086 238.189 125.198 238.236 125.368Z" fill="#F576A6"/>
<path d="M38.8997 92.3922C34.5229 89.2262 26.3164 92.0647 22.2679 94.9032C16.3592 98.9426 13.9518 106.148 8.4808 110.515C4.2134 113.899 -0.0539474 113.244 -4.86845 114.445C-10.1206 115.864 -14.2786 119.685 -17.1235 124.052C-20.9532 129.948 -23.2512 136.826 -27.7375 142.284C-42.181 160.298 -77.8521 156.913 -85.1832 181.259C-86.934 187.263 -85.949 193.705 -81.4628 198.29C-71.7244 208.225 -55.0924 204.185 -47.5424 193.923C-44.1504 189.228 -41.3056 183.988 -36.7099 180.604C-31.1295 176.455 -23.6888 175.8 -17.4518 172.743C-5.63439 166.848 -0.601204 154.075 3.44735 142.393C7.82417 129.838 19.3134 125.253 29.4895 118.048C37.5866 111.934 46.9969 98.2876 38.8997 92.3922Z" fill="#F576A6"/>
<path d="M221.223 18.2393C221.633 20.2705 222.658 22.0986 224.299 23.1142C225.734 23.9267 227.784 24.1299 229.425 23.9267C240.497 22.708 259.977 7.67698 253.826 -4.91658C250.135 -12.6352 239.882 -10.1977 234.141 -6.54153C227.169 -1.86972 220.608 8.28632 221.018 17.0206C221.018 17.2237 221.018 17.6299 221.223 18.2393Z" fill="#587EE0"/>
<path d="M264.88 288.89C273.498 293.712 284.939 292.543 293.557 288.013C307.227 280.708 315.399 266.535 325.354 255.43C335.309 244.325 348.236 236.435 361.015 228.837C371.564 222.554 389.395 215.979 389.989 201.514C390.435 189.971 377.211 189.678 369.187 192.454C362.798 194.646 357.003 198.153 351.208 201.367C343.63 205.459 336.052 209.404 328.475 213.495C313.616 221.385 298.906 229.129 284.047 237.019C273.2 242.864 261.462 249.877 256.856 261.713C252.993 271.356 254.924 283.338 264.88 288.89Z" fill="#587EE0"/>
</svg>
