<?xml version="1.0" encoding="UTF-8" standalone="no"?>
<svg
   xmlns:dc="http://purl.org/dc/elements/1.1/"
   xmlns:cc="http://creativecommons.org/ns#"
   xmlns:rdf="http://www.w3.org/1999/02/22-rdf-syntax-ns#"
   xmlns:svg="http://www.w3.org/2000/svg"
   xmlns="http://www.w3.org/2000/svg"
   xmlns:sodipodi="http://sodipodi.sourceforge.net/DTD/sodipodi-0.dtd"
   xmlns:inkscape="http://www.inkscape.org/namespaces/inkscape"
   width="47.840851"
   height="43.130264"
   viewBox="0 0 47.840851 43.130264"
   version="1.1"
   id="svg12"
   sodipodi:docname="home-info-mob.svg"
   style="fill:none"
   inkscape:version="0.92.5 (2060ec1f9f, 2020-04-08)">
  <metadata
     id="metadata18">
    <rdf:RDF>
      <cc:Work
         rdf:about="">
        <dc:format>image/svg+xml</dc:format>
        <dc:type
           rdf:resource="http://purl.org/dc/dcmitype/StillImage" />
        <dc:title></dc:title>
      </cc:Work>
    </rdf:RDF>
  </metadata>
  <defs
     id="defs16" />
  <sodipodi:namedview
     pagecolor="#ffffff"
     bordercolor="#666666"
     borderopacity="1"
     objecttolerance="10"
     gridtolerance="10"
     guidetolerance="10"
     inkscape:pageopacity="0"
     inkscape:pageshadow="2"
     inkscape:window-width="795"
     inkscape:window-height="480"
     id="namedview14"
     showgrid="false"
     fit-margin-top="0"
     fit-margin-left="0"
     fit-margin-right="0"
     fit-margin-bottom="0"
     inkscape:zoom="3.8688525"
     inkscape:cx="23.865754"
     inkscape:cy="21.563861"
     inkscape:window-x="0"
     inkscape:window-y="30"
     inkscape:window-maximized="0"
     inkscape:current-layer="svg12" />
  <path
     d="m 24.749654,0.18342246 c -6.2283,0.90638004 -8.5355,6.72388004 -13.1264,10.08717954 -3.7541995,2.7503 -9.8224995,3.9726 -11.28758953,7.7986 -1.45876997,3.8096 2.20079003,7.4864 4.01029003,11.2058 1.7118,3.5187 2.5844,7.4071 6.2515995,9.8876 3.8595,2.6105 9.0379,4.297 14.1521,3.9134 4.9226,-0.3692 8.3838,-3.5519 12.2803,-5.896 3.7324,-2.2453 8.6038,-3.9538 9.9164,-7.4567 1.3023,-3.4754 -2.5379,-6.7093 -3.2693,-10.2823 -0.9435,-4.6095 2.0387,-9.8776995 -1.6192,-13.5993995 -3.8761,-3.9437 -10.9944,-6.57699004 -17.3082,-5.65818004 z"
     id="path2"
     inkscape:connector-curvature="0"
     style="clip-rule:evenodd;fill:#00b1ae;fill-rule:evenodd" />
  <path
     d="m 35.326054,3.6458025 c -5.8421,-2.3418 -10.7572,1.5322 -16.416,2.1373 -4.6274,0.4949 -10.4895995,-1.4933 -13.6769995,1.0808 -3.17359,2.563 -1.8535,7.5797995 -2.1549,11.7050995 -0.2852,3.9026 -1.4819,7.7037 0.4452,11.6897 2.0282,4.1948 5.6609,8.2524 10.2769995,10.4872 4.443,2.151 9.0341,1.1351 13.5807,1.0631 4.3552,-0.0689 9.4261,0.8979 12.3194,-1.4732 2.8706,-2.3525 1.1719,-7.0768 2.3324,-10.5343 1.4972,-4.4605 6.7206,-7.5206 5.4244,-12.5755 -1.3735,-5.3564 -6.2089,-11.2063995 -12.1312,-13.5801995 z"
     id="path4"
     inkscape:connector-curvature="0"
     style="clip-rule:evenodd;opacity:0.4;fill-rule:evenodd;stroke:#ffffff;stroke-width:0.35980201" />
  <path
     d="M 30.653754,28.543002 H 9.3889545 v 6.5004 H 30.653754 Z"
     id="path6"
     inkscape:connector-curvature="0"
     style="fill:#ffffff" />
  <path
     d="M 9.4475545,19.495902 V 8.0908025 h 4.8007995 c 1.172,0 2.118,0.3221 2.7958,0.9663 0.6919,0.6295 1.0307,1.4493995 1.0307,2.4742995 0,1.0248 -0.3388,1.8593 -1.0307,2.4889 -0.6778,0.6295 -1.6238,0.9663 -2.7958,0.9663 h -2.5416 v 4.5093 z m 2.2732995,-6.5151 h 2.3863 c 1.0872,0 1.7226,-0.5124 1.7226,-1.4202 0,-0.9077 -0.6495,-1.4201 -1.7226,-1.4201 h -2.3863 z"
     id="path8"
     inkscape:connector-curvature="0"
     style="fill:#ffffff" />
  <path
     d="M 19.809554,19.494902 V 8.0898025 h 2.2451 l 3.1912,4.7289995 3.1911,-4.7289995 h 2.231 V 19.494902 h -2.231 v -7.8035 l -2.5275,3.6602 h -1.2567 l -2.5839,-3.6602 v 7.8035 z"
     id="path10"
     inkscape:connector-curvature="0"
     style="fill:#ffffff" />
</svg>
