<svg width="1920" height="1212" viewBox="0 0 1920 1212" fill="none" xmlns="http://www.w3.org/2000/svg">
<path fill-rule="evenodd" clip-rule="evenodd" d="M1322.49 156.648C1440.89 141.606 1575.94 52.3563 1670.37 125.348C1765.39 198.799 1698.69 355.811 1730.11 471.732C1759.1 578.654 1875.55 667.537 1846.34 774.396C1817.13 881.2 1677.31 904.621 1592.34 975.606C1498.26 1054.19 1445.07 1212.88 1322.49 1212C1199.76 1211.11 1146.25 1054.33 1055.45 971.742C978.005 901.305 872.107 860.067 830.103 764.174C785.926 663.322 785.715 545.464 823.412 442.015C860.347 340.658 939.757 259.819 1033.4 206.273C1120.41 156.524 1223.07 169.28 1322.49 156.648Z" fill="#262234"/>
<path d="M1775.81 1137.3C1813.16 1158.54 1862.74 1153.39 1900.08 1133.44C1959.32 1101.25 1994.73 1038.8 2037.87 989.874C2081.01 940.947 2137.02 906.184 2192.4 872.707C2238.11 845.025 2315.38 816.056 2317.95 752.322C2319.88 701.464 2262.58 700.177 2227.81 712.408C2200.12 722.065 2175.01 737.515 2149.9 751.678C2117.07 769.704 2084.23 787.086 2051.39 805.111C1987 839.875 1923.26 873.995 1858.87 908.759C1811.87 934.51 1761 965.411 1741.04 1017.56C1724.3 1060.05 1732.67 1112.83 1775.81 1137.3Z" fill="#587EE0"/>
<path d="M2004.44 6.55754C1986.57 -3.60957 1962.85 -1.1448 1944.98 8.40613C1916.63 23.8108 1899.69 53.696 1879.04 77.1111C1858.4 100.526 1831.6 117.163 1805.1 133.184C1783.23 146.432 1746.26 160.297 1745.02 190.798C1744.1 215.137 1771.52 215.754 1788.16 209.9C1801.4 205.278 1813.42 197.884 1825.43 191.106C1841.15 182.479 1856.86 174.161 1872.57 165.534C1903.38 148.897 1933.88 132.568 1964.69 115.931C1987.19 103.607 2011.52 88.8188 2021.07 63.8631C2029.09 43.5289 2025.08 18.2651 2004.44 6.55754Z" fill="#F576A6"/>
<path d="M143.938 171.588C117.028 152.059 66.5706 169.567 41.6783 187.076C5.349 211.991 -9.45245 256.435 -43.0907 283.371C-69.3286 304.246 -95.566 300.206 -125.168 307.613C-157.46 316.367 -183.025 339.936 -200.517 366.872C-224.064 403.235 -238.193 445.658 -265.777 479.328C-354.582 590.438 -573.903 569.563 -618.978 719.729C-629.742 756.766 -623.687 796.496 -596.103 824.779C-536.227 886.058 -433.967 861.142 -387.546 797.843C-366.69 768.887 -349.199 736.564 -320.943 715.689C-286.632 690.1 -240.883 686.06 -202.536 667.205C-129.877 630.842 -98.9308 552.055 -74.0386 480.002C-47.1279 402.561 23.5127 374.279 86.0798 329.835C135.864 292.125 193.723 207.951 143.938 171.588Z" fill="#F576A6"/>
<path d="M67.3351 443.833C67.9513 446.914 69.4917 449.687 71.9565 451.228C74.1132 452.46 77.1941 452.768 79.6589 452.46C96.296 450.611 125.565 427.812 116.323 408.711C110.777 397.003 95.3718 400.7 86.7452 406.246C76.27 413.332 66.4113 428.737 67.0274 441.985C67.0274 442.293 67.027 442.909 67.3351 443.833Z" fill="#587EE0"/>
<path d="M1715.34 670.464C1698.53 657.258 1628.12 709.853 1634.24 728.732C1636.46 735.035 1643.15 736.486 1649.07 736.212C1666.88 734.827 1685.16 723.611 1697.85 711.561C1705.23 704.6 1728.08 680.657 1715.34 670.464Z" fill="#587EE0"/>
<path d="M1235.5 483.681C1217.18 489.392 1202.38 504.696 1194.61 521.923C1190.15 529.223 1188.53 537.634 1194.56 545.531C1204.66 558.875 1224.01 548.625 1234.48 541.17C1247.18 532.078 1264.45 516.236 1264.77 499.188C1264.51 483.418 1247.9 479.834 1235.5 483.681Z" fill="#587EE0"/>
<path d="M1088.62 516.19C1086.68 512.582 1081.78 503.287 1078.44 494.518C1042.45 512.988 1023.24 525.222 981.177 552.784C973.101 557.993 959.541 568.423 951.023 576.893C947.439 580.262 947.021 584.958 949.697 586.678C952.098 588.458 955.395 587.741 958.143 587.144C956.184 588.721 954.225 590.298 952.266 591.875C946.877 596.212 940.056 600.572 935.671 605.554C931.991 609.807 935.683 616.199 941.202 616.438C944.404 616.605 947.701 615.888 950.999 615.172C948.574 618.576 945.993 622.591 946.985 625.828C949.291 635.111 966.315 627.381 971.297 625.147C991.26 615.052 1010.08 602.328 1027.83 588.685C1024.45 600.93 1019.66 614.633 1018.7 623.474C1018.45 624.968 1018.54 626.676 1019.44 628.205C1027.48 644.011 1058.01 592.484 1061.54 586.247C1065.08 580.011 1069.01 574.264 1073.61 568.948C1082.81 558.315 1093.29 548.268 1102.43 537.36C1096.69 530.837 1092.55 523.681 1088.62 516.19Z" fill="#BE8273"/>
<path d="M1745.4 817.142C1744.14 813.965 1742.65 811.121 1740.9 808.338C1740.84 808.063 1740.84 808.063 1740.78 807.788C1718.84 775.722 1701.28 741.267 1688.15 704.698C1688.03 704.148 1687.36 703.718 1686.75 703.563C1686.36 703.073 1686.02 702.858 1685.14 702.763C1667.75 704.817 1658.76 721.734 1643.42 727.947C1643.36 727.672 1643.03 727.457 1642.97 727.182C1642.06 725.653 1639.16 726.86 1640.4 728.604C1640.46 728.879 1640.79 729.094 1640.85 729.369C1640.21 730.372 1640.9 732.236 1642.22 731.662C1645.91 738.054 1647.95 744.804 1649.23 752.008C1650.75 760.311 1650.55 768.698 1650.36 777.085C1649.96 785.806 1649.22 794.312 1649.09 802.974C1648.86 812.52 1649.4 821.611 1651.43 830.954C1651.73 832.328 1652.02 833.702 1652.81 834.681C1655.08 838.504 1660.3 837.369 1662.85 834.514C1664.2 832.782 1665.21 830.834 1665.9 828.672C1668.06 822.734 1668.79 816.82 1670.06 810.787C1670.84 807.741 1671.56 804.419 1672.33 801.373C1676.42 808.254 1680.51 815.136 1684.38 822.352C1689.83 831.527 1694.47 842.315 1701.17 850.642C1703.99 854.346 1708.77 856.472 1712.85 852.709C1716.71 849.28 1714.89 839.603 1712.73 832.303C1715.67 836.557 1718.88 840.75 1722.31 844.609C1725.34 847.978 1730.77 855.719 1736.33 852.207C1741.9 848.694 1737.95 839.77 1736.17 835.553C1733.79 828.588 1730.59 821.802 1727.17 815.35C1729.36 817.465 1731.48 819.305 1733 820.989C1735.58 823.594 1739.68 827.883 1743.62 826.162C1747.01 824.562 1746.67 820.32 1745.4 817.142Z" fill="#BE8273"/>
<path d="M1487.36 156.99C1486.2 156.954 1485.31 156.859 1484.15 156.823C1484.63 152.403 1484.64 149.81 1484.7 150.085C1483.84 151.423 1482.89 153.645 1481.84 156.751C1466.07 157.014 1450.88 162.618 1439.03 172.964C1431.74 179.152 1427.07 186.786 1422.52 194.97C1417.38 204.432 1411.15 214.133 1401 217.777C1390.41 220.656 1378.85 219.139 1368.05 219.76C1357.53 220.322 1347.09 222.592 1336.88 225.961C1294.11 241.014 1263.35 278.205 1250.22 321.059C1244 341.405 1241.43 362.683 1241.73 383.913C1234.22 410.292 1244.07 438.367 1265.96 454.328C1267.08 462.141 1269.36 469.99 1273.51 477.147C1281.58 491.794 1296.39 502.964 1313.96 501.733C1332.36 500.323 1340.21 484.804 1351.03 472.379C1359.03 462.869 1367.98 460.349 1380.03 461.471C1390.03 462.463 1399.33 461.591 1408.81 457.517C1431.76 447.923 1446.07 426.395 1458.91 406.049C1459.77 404.711 1480.24 206.307 1484.48 159.631C1485.64 159.666 1486.79 159.702 1487.68 159.798C1489.17 160.049 1489.4 157.122 1487.36 156.99Z" fill="#373349"/>
<path opacity="0.3" d="M1482.87 159.587L1482.81 160.124L1483.35 160.141C1484.11 160.164 1484.79 160.207 1485.48 160.251L1485.48 160.251C1486.16 160.295 1486.85 160.339 1487.63 160.363C1488.18 160.4 1488.54 160.618 1488.77 160.893C1489.01 161.18 1489.14 161.559 1489.14 161.941C1489.15 162.328 1489.03 162.668 1488.86 162.88C1488.7 163.073 1488.48 163.179 1488.17 163.127L1488.15 163.124L1488.14 163.123C1486.93 162.993 1485.37 162.945 1483.83 162.898L1483.81 162.897L1483.34 162.883L1483.3 163.352C1480.45 194.574 1472.16 276.547 1464.43 350.941C1460.57 388.137 1456.85 423.438 1454.02 449.551C1452.61 462.607 1451.42 473.366 1450.55 480.916C1450.11 484.691 1449.75 487.662 1449.49 489.717C1449.35 490.745 1449.24 491.54 1449.16 492.09C1449.14 492.235 1449.12 492.361 1449.1 492.469C1449.08 492.568 1449.07 492.651 1449.05 492.72C1449.04 492.789 1449.03 492.837 1449.02 492.869C1431.81 520.1 1412.71 548.741 1382.15 561.507L1382.15 561.509C1369.55 566.923 1357.17 568.089 1343.84 566.772L1343.84 566.771C1335.73 566.018 1328.62 566.486 1322.18 568.766C1315.73 571.047 1309.98 575.129 1304.57 581.547C1301.67 584.881 1298.92 588.383 1296.19 591.855C1295.51 592.722 1294.83 593.588 1294.15 594.449C1290.74 598.762 1287.31 602.956 1283.57 606.687C1276.1 614.139 1267.42 619.725 1255.25 620.66C1231.97 622.293 1212.3 607.513 1201.56 588.035L1201.55 588.026C1196.04 578.522 1193 568.086 1191.51 557.679L1191.48 557.47L1191.31 557.346C1162.17 536.121 1149.07 498.778 1159.07 463.686L1159.09 463.615L1159.08 463.542C1158.69 435.183 1162.13 406.767 1170.46 379.6C1188.02 322.385 1229.14 272.758 1286.25 252.664C1299.88 248.165 1313.82 245.136 1327.87 244.384L1327.87 244.384C1332.58 244.112 1337.39 244.144 1342.25 244.178C1344.83 244.195 1347.42 244.213 1350.01 244.185C1357.48 244.105 1364.94 243.647 1372.1 241.702L1372.12 241.697L1372.14 241.69C1385.93 236.741 1394.36 223.592 1401.24 210.94C1407.33 199.996 1413.55 189.851 1423.24 181.632L1423.25 181.628C1439.03 167.862 1459.26 160.401 1480.27 160.046L1480.62 160.04L1480.73 159.706C1481.7 156.847 1482.6 154.569 1483.44 152.861C1483.34 154.416 1483.18 156.711 1482.87 159.587Z" stroke="white"/>
<path d="M1574.84 213.941C1571.18 208.983 1566.37 205.422 1561.73 201.253C1558.48 198.218 1554.5 194.479 1553.48 189.808C1552.53 185.411 1554.44 180.967 1555.86 176.917C1559.15 165.555 1557.28 153.011 1548.75 144.218C1544.2 139.165 1533.27 135.21 1531.43 143.955C1530.54 143.86 1530.05 144.254 1530.02 145.413C1531.37 176.774 1527.24 206.737 1519.68 236.867C1515.71 252.984 1503.47 293.341 1532.42 292.803C1555.69 292.635 1572.69 270.235 1579.4 252.087C1583.04 242.374 1581.39 222.877 1574.84 213.941Z" fill="#373349"/>
<path d="M1553.39 223.785L1548.5 264.847C1548.5 264.847 1531.07 261.442 1500.49 246.509L1504.03 211.205L1553.39 223.785Z" fill="#BE8273"/>
<path d="M1477.8 179.212C1474.63 171.267 1476.36 152.761 1493.76 144.087C1509.29 136.107 1530.28 134.709 1546.61 151.59C1563.22 168.411 1565.78 176.2 1571.81 190.716C1576.58 202.054 1579.35 216.127 1566.56 223.511C1551.98 231.862 1535.3 223.977 1525.35 219.234C1515.4 214.491 1489.49 209.187 1477.8 179.212Z" fill="#BE8273"/>
<path d="M1540.57 146.285C1539.54 137.587 1527.78 133.812 1522.48 133.239C1514.25 132.438 1504.32 135.748 1496.95 140.228C1490.89 144.135 1485.56 148.746 1480.57 153.573C1476.01 157.73 1472.23 162.868 1470.62 168.686C1468.69 175.722 1470.99 180.979 1474.56 186.821C1477.68 191.899 1480.92 197.526 1477.32 203.487C1475.17 206.832 1471.96 209.258 1469.2 212.448C1466.65 215.303 1464.72 218.313 1464.27 221.575C1464.06 221.91 1464.12 222.184 1464.18 222.459C1464.14 223.618 1464.17 225.052 1464.47 226.425C1464.59 226.975 1464.98 227.465 1465.59 227.62C1469.59 239.412 1480.75 247.058 1492.92 246.138C1513.4 250.319 1496.76 228.038 1517.59 214.012C1530.65 206.569 1530.9 191.839 1520.21 182.365C1522.49 176.977 1529.93 183.416 1527.86 177.825C1520.99 159.462 1542.16 158.889 1540.57 146.285Z" fill="#373349"/>
<path d="M1556.9 163.166C1556.9 163.166 1569.98 170.394 1571.83 172.293C1573.47 174.528 1572.24 176.809 1567.36 182.186C1562.22 187.621 1556.9 163.166 1556.9 163.166Z" fill="#BE8273"/>
<path d="M1094.96 946.46C1078.34 938.85 1068.99 930.236 1065.07 926.772C1059.59 925.374 1047.72 918.457 1024.76 904.168C1022.75 902.878 1020.69 901.313 1018.35 899.808C1009.36 903.487 1000.83 907.932 993.209 913.905C981.609 922.758 970.653 937.226 969.088 952.53C983.628 954.549 991.764 962.852 1016.54 973.58C1016.78 974.679 1025.98 970.665 1026.96 969.877C1027.23 969.817 1056.96 952.995 1073.31 951.454C1082.35 950.642 1091.22 950.439 1099.47 948.646C1097.85 947.846 1096.3 947.32 1094.96 946.46Z" fill="#E0785E"/>
<path d="M1012.4 979.662C1012.4 979.662 988.706 971.287 990.569 963.975C994.799 946.366 1029.92 915.996 1049.26 914.957C1056.98 914.718 1081.72 926.605 1081.72 926.605L1012.4 979.662Z" fill="#373349"/>
<path d="M910.752 1016.43C901.828 1027.01 885.842 1040.84 880.658 1054.06C875.473 1067.27 873.095 1080.16 879.989 1093.34C881.411 1095.91 882.832 1098.47 884.863 1101.2C886.117 1100.35 887.372 1099.5 888.352 1098.71C896.643 1093.17 906.416 1090.47 916.188 1087.77C928.709 1084.47 941.229 1081.18 953.474 1077.94C953.283 1059.85 955.075 1041.62 958.754 1024.13C961.251 1011.79 961.956 1011.06 967.595 998.61C945.684 1007.69 926.355 1012.75 910.752 1016.43Z" fill="#E0785E"/>
<path d="M952.603 1081.87C952.603 1081.87 929.378 1091.52 925.901 1084.79C917.251 1068.83 923.32 1022.62 937.047 1008.99C942.471 1003.5 969.041 995.993 969.041 995.993L952.603 1081.87Z" fill="#2B244A"/>
<path d="M1581.79 461.638C1581.79 461.638 1576.91 447.158 1557.39 440.754C1538.14 434.291 1501.23 443.18 1477.7 451.459C1454.46 459.679 1419.19 481.447 1419.19 481.447C1412.81 502.402 1403.93 522.461 1392.95 542.114C1421.63 535.017 1453.08 532.783 1482.58 532.125C1506.62 531.504 1532.88 531.838 1553.99 544.227C1567.56 517.968 1577.08 490.287 1582.34 461.518L1581.79 461.638Z" fill="#BE8273"/>
<path d="M1544.2 476.714C1542.02 481.218 1543.15 486.439 1547.01 489.629C1548.07 490.549 1549.36 488.541 1548.3 487.622C1545.5 485.352 1544.55 480.955 1546.15 477.729C1546.73 476.451 1544.79 475.436 1544.2 476.714Z" fill="#2B244A"/>
<path d="M1634.28 361.593C1624.08 338.488 1610.42 316.709 1594.65 297.116C1593.86 296.136 1592.86 295.491 1592.01 294.237C1554.44 253.772 1501.47 232.483 1446.15 229.544C1397.62 223.404 1365.81 250.464 1332.94 280.631C1294.32 316.077 1277.75 331.19 1239.12 366.637C1204.63 385.358 1152.35 425.5 1121.74 448.845C1110.14 457.698 1097.52 471.091 1089.22 483.253C1080.29 489.8 1071.08 496.406 1062.08 502.678C1061.1 503.467 1061.58 505.665 1061.58 505.665C1062.92 526.381 1073.75 544.457 1090.29 556.977C1090.62 557.192 1092.24 557.993 1093 557.539C1101.71 553.919 1110.2 550.633 1118.91 547.013C1211 545.699 1275.31 469.56 1344.14 419.49C1358.52 408.881 1373.97 399.192 1389.83 391.426C1385.33 409.096 1382.71 427.506 1390.17 444.59C1395 456.203 1405.66 464.243 1417.73 466.8C1415.86 470.085 1413.67 474.589 1414.09 476.513C1414.86 480.085 1417.75 481.471 1420.35 481.482C1420.35 481.482 1455.34 459.775 1478.86 451.495C1502.11 443.276 1539.03 434.387 1558.55 440.79C1577.52 447.313 1582.55 461.184 1582.95 461.673C1578.12 483.154 1572.21 502.281 1564.2 525.028C1565.57 524.73 1570.97 524.419 1576.17 521.85C1604.51 580.725 1577.2 662.92 1630.76 709.406C1632.84 714.997 1634.98 720.863 1636.78 726.514C1638.23 730.516 1639.2 736.346 1642.67 739.046C1650.05 745.211 1666.11 735.677 1672.23 732.045C1680.64 727.051 1688.51 719.584 1690.05 709.465C1691.21 702.882 1689.78 696.288 1687.79 689.812C1689.24 687.196 1689.98 685.308 1691.83 680.589C1697.02 667.376 1694.14 650.16 1692.64 636.672C1690.5 617.569 1673.97 525.625 1669.36 507.06C1661.69 424.124 1653.54 405.176 1634.28 361.593Z" fill="#EB5D19"/>
<path d="M1632.2 713.408C1650.83 715.69 1672.3 703.253 1686.74 692.919C1688 692.07 1686.48 690.386 1685.23 691.234C1671.27 701.174 1650.35 713.491 1632.28 711.09C1630.78 710.839 1630.71 713.157 1632.2 713.408Z" fill="#2B244A"/>
<path d="M1724.44 558.857C1713.6 550.165 1692.18 556.441 1681.43 563.238C1665.76 572.891 1658.67 591.127 1644.08 601.678C1632.71 609.851 1621.83 607.632 1609.33 610.12C1595.67 613.114 1584.52 622.425 1576.67 633.304C1566.1 647.992 1559.34 665.399 1547.14 678.881C1507.81 723.419 1416.67 710.252 1394.8 771.969C1389.55 787.197 1391.27 803.891 1402.21 816.249C1425.97 843.025 1469.16 834.712 1489.83 809.255C1499.12 797.602 1507.08 784.476 1519.3 776.344C1534.15 766.368 1553.33 765.613 1569.72 758.529C1600.79 744.84 1615.31 712.608 1627.17 683.061C1639.98 651.309 1670.04 640.949 1697.07 623.684C1718.62 608.968 1744.48 575.036 1724.44 558.857Z" fill="#F576A6"/>
<path d="M1581.03 472.736C1591.58 460.371 1596.08 445.294 1586.29 430.73C1576.45 415.892 1556.3 411.926 1539.74 411.209C1492.33 408.856 1450.06 434.16 1415.88 464.9C1414.96 465.963 1416.42 467.373 1417.4 466.584C1446.52 440.396 1481.83 417.47 1521.64 413.993C1538.88 412.547 1559.74 413.192 1574.8 422.869C1581.82 427.385 1586.67 433.813 1588.74 441.996C1591.25 453.537 1587.15 462.485 1579.52 471.051C1578.6 472.115 1580.11 473.799 1581.03 472.736Z" fill="#2B244A"/>
<path d="M1415.46 376.934C1411.85 372.251 1405.94 378.141 1402.73 380.566C1398.26 383.84 1394.77 386.325 1389.5 391.211C1388.57 394.867 1388.29 394.927 1387.64 398.523C1396.91 392.191 1420.31 383.362 1415.46 376.934Z" fill="#2B244A"/>
<path d="M1556.45 519.808C1547.55 511.959 1530.24 509.103 1521.39 508.148C1504.26 506.117 1487.18 506.953 1470.18 509.498C1430.59 516.666 1402.13 523.429 1382.15 549.354C1380.37 551.755 1363.07 559.545 1358.98 561.874C1351.06 566.474 1343.47 571.289 1335.67 576.438C1320.61 586.617 1306.07 597.835 1292.26 609.758C1264.49 634.214 1241.18 662.014 1220.18 692.479C1178.88 752.68 1148.16 819.213 1101.78 875.914C1082.21 899.736 1060.58 921.994 1036.3 941.372C1017.41 956.413 973.079 986.771 973.079 986.771C958.54 997.989 949.532 1020.09 944.682 1040.14C939.808 1058.75 938.362 1094.46 957.346 1091.77C1012.19 1083.3 1057.65 1067.38 1106.81 1042.01C1139.57 1061.65 1174.15 1077.73 1211.62 1085.99C1264.77 1097.46 1321.7 1091.99 1367.29 1060.78C1412.39 1029.97 1447.69 976.541 1468.93 927.32C1492.23 873.044 1510.7 816.368 1525.64 759.309C1540.36 702.585 1557.92 617.904 1553.99 550.846C1553.99 550.846 1560.71 540.751 1561.81 533.893C1562.54 527.979 1560.37 523.272 1556.45 519.808Z" fill="#373349"/>
<path d="M996.602 971.872C1020.01 956.424 1041.44 938.528 1062.48 920.141C1063.73 919.293 1061.94 917.668 1060.96 918.457C1039.86 936.568 1018.7 954.405 995.3 969.853C994.32 970.641 995.288 972.445 996.602 971.872Z" fill="#8D84B8"/>
<path d="M1482.85 141.566C1477.17 137.91 1470.4 135.927 1463.9 136.477C1453.71 137.254 1436.37 148.794 1443.9 160.968C1449.57 169.809 1461.34 170.992 1471.32 167.957C1475.07 168.005 1479.04 167.718 1482.77 166.332C1487.6 164.707 1494.72 161.721 1494.56 155.711C1494.34 149.427 1487.2 144.362 1482.85 141.566Z" fill="#373349"/>
<path d="M1530.13 201.504C1538.32 199.723 1543.52 191.635 1541.74 183.44C1539.96 175.245 1531.87 170.046 1523.67 171.828C1515.48 173.61 1510.28 181.697 1512.06 189.892C1513.84 198.087 1521.93 203.286 1530.13 201.504Z" fill="#E0785E"/>
<path d="M1522.04 189.45C1521.05 186.212 1520.76 182.246 1524.43 180.585C1525.74 180.012 1524.71 177.933 1523.4 178.506C1518.97 180.621 1518.61 185.591 1520.06 189.593C1520.47 191.517 1522.67 191.039 1522.04 189.45Z" fill="#2B244A"/>
<path d="M910.752 1016.44C904.157 1017.87 897.562 1019.3 890.908 1020.46C876.165 1022.8 862.976 1032.29 852.737 1043.44C839.189 1057.89 830.564 1076.46 822.428 1094.63C817.434 1106.07 812.775 1117.73 808.391 1129.33C802.955 1144.04 813.062 1168.03 832.381 1152.32C845.116 1142.07 856.728 1130.62 867.611 1118.47C873.836 1111.37 880.276 1103.92 888.352 1098.71C893.644 1095.26 899.176 1092.91 905.101 1091.04C904.695 1086.53 902.915 1082.31 899.116 1079.4C894.982 1076.27 890.382 1074.96 885.591 1075.43C889.534 1053.85 898.136 1033.85 910.752 1016.44Z" fill="#F5E3D9"/>
<path d="M1024.49 904.228C1016.79 899.282 1004.98 888.614 995.503 886.069C986.304 883.464 977.535 886.81 970.319 890.68C946.043 903.44 923.798 918.923 901.098 933.642C894.002 938.063 886.69 942.818 882.724 949.723C878.053 957.357 882.103 965.397 892.616 967.428C899.808 968.742 906.618 966.974 913.213 965.541C920.907 963.868 952.59 952.088 960.642 952.064C969.794 951.801 976.221 953.569 983.007 956.986C984.894 951.108 983.855 945.003 980.463 939.986C993.126 925.434 1008.04 913.272 1024.49 904.228Z" fill="#F5E3D9"/>
<path d="M1614.69 390.601C1613.48 387.698 1613.48 387.698 1612.39 385.344C1611.39 391.318 1609.68 391.401 1608.22 396.61C1611.01 408.091 1613.54 421.066 1613.84 429.058C1615.15 468.196 1596.74 498.673 1575.35 522.03C1580.66 533.248 1584.18 545.434 1586.37 558.193C1607.39 531.754 1626.52 504.575 1629.81 470.765C1633.3 435.187 1625.44 413.587 1614.69 390.601Z" fill="#373349"/>
<path d="M1589.86 324.056C1602.47 335.705 1614.57 350.339 1615.09 368.642C1615.58 381.485 1609.1 392.679 1603.43 403.695C1602.85 404.973 1604.58 406.323 1605.44 404.985C1611.69 392.691 1618.55 380.553 1617.48 366.396C1616.19 348.547 1604.48 334.402 1591.88 322.754C1590.48 321.619 1588.8 323.136 1589.86 324.056Z" fill="#2B244A"/>
<path d="M1088.19 483.766C1093.48 506.788 1101.24 529.272 1117.69 546.702C1118.76 547.622 1120.44 546.105 1119.38 545.185C1103.26 527.97 1095.56 505.76 1090.66 483.228C1090.08 481.914 1087.89 482.392 1088.19 483.766Z" fill="#2B244A"/>
<path d="M952.982 615.028C964.738 605.566 976.554 596.379 988.763 587.681C990.018 586.833 988.5 585.149 987.246 585.997C975.096 594.969 962.946 603.941 951.465 613.344C950.21 614.192 951.728 615.876 952.982 615.028Z" fill="#2B244A"/>
<path d="M957.522 589.581C966.793 583.249 976.004 576.643 985.275 570.311C986.529 569.463 985.502 567.384 984.247 568.232C974.976 574.564 965.765 581.171 956.494 587.503C955.24 588.351 956.268 590.43 957.522 589.581Z" fill="#2B244A"/>
<path d="M1695.92 806.606C1701.7 815.996 1707.27 825.721 1712.56 835.505C1713.13 836.819 1715.21 835.792 1714.64 834.478C1709.35 824.693 1703.84 815.243 1698.06 805.853C1697.15 804.324 1695.07 805.351 1695.92 806.606Z" fill="#2B244A"/>
<path d="M1713.58 793.846C1718.12 801.492 1722.72 809.413 1726.98 817.118C1727.83 818.373 1729.63 817.405 1729.06 816.091C1724.52 808.445 1719.92 800.524 1715.65 792.818C1714.81 791.564 1712.79 792.866 1713.58 793.846Z" fill="#2B244A"/>
<path d="M1108.31 1042.26C1169.69 1012.23 1230.36 978.896 1282.45 933.903C1305.99 913.82 1327.57 891.288 1346.35 866.486C1364.86 841.744 1379.74 814.911 1392.07 786.907C1407.27 752.237 1420.18 716.336 1429.5 679.778C1429.75 678.285 1427.59 677.604 1427.34 679.097C1419.2 710.506 1408.69 741.568 1396.23 771.615C1384.2 800.993 1370.22 829.355 1351.74 855.531C1314.07 908.611 1263.43 950.988 1208.46 985.383C1175.76 1005.73 1141.7 1023.78 1107.34 1040.46C1105.97 1040.76 1106.99 1042.84 1108.31 1042.26Z" fill="#8D84B8"/>
<path d="M1383.98 549.819C1415.17 538.433 1447.12 529.186 1480.52 527.967C1506.21 526.988 1535.5 530.691 1552.03 552.423C1552.88 553.677 1554.56 552.16 1553.71 550.905C1537.58 529.664 1508.6 524.742 1483.46 525.602C1448.57 526.57 1415.25 536.116 1382.68 547.8C1381.64 548.314 1382.67 550.393 1383.98 549.819Z" fill="#8D84B8"/>
<path d="M827.1 1153.18C818.462 1141.24 821.366 1126.8 826.73 1114.41C831.508 1103.3 837.231 1092.56 843.288 1082.04C854.757 1061.99 867.564 1042.8 881.769 1024.75C882.689 1023.69 880.682 1022.4 879.762 1023.46C862.857 1044.98 847.744 1068.12 834.913 1092.49C825.069 1110.74 810.804 1135.14 825.141 1154.76C826.264 1155.95 827.948 1154.43 827.1 1153.18Z" fill="#2B244A"/>
<path d="M852.607 1131.52C842.057 1130.65 843.18 1118.61 846.991 1112.31C849.942 1107.35 854.172 1102.98 858.126 1098.67C866.645 1090.2 875.951 1082.7 886.441 1076.68C887.695 1075.83 886.727 1074.03 885.413 1074.6C870.67 1083.56 855.091 1095.3 845.629 1110.02C840.468 1118.04 839.883 1132.56 852.535 1133.84C853.969 1133.81 854.1 1131.77 852.607 1131.52Z" fill="#2B244A"/>
<path d="M872.713 1037.37C886.739 1038.34 894.433 1030.05 903.656 1020.85C904.575 1019.79 903.058 1018.11 902.138 1019.17C893.679 1027.92 886.201 1035.87 872.785 1035.05C871.291 1034.8 871.22 1037.11 872.713 1037.37Z" fill="#2B244A"/>
<path d="M861.244 1097.13C864.637 1102.14 868.305 1107.1 871.698 1112.12C872.546 1113.37 874.23 1111.86 873.382 1110.6C869.989 1105.58 866.321 1100.63 862.928 1095.61C862.08 1094.35 860.396 1095.87 861.244 1097.13Z" fill="#2B244A"/>
<path d="M868.998 1089.11C872.331 1093.85 875.664 1098.59 878.508 1103.73C879.356 1104.99 881.16 1104.02 880.586 1102.7C877.468 1097.63 874.35 1092.55 870.682 1087.59C869.559 1086.4 867.875 1087.91 868.998 1089.11Z" fill="#2B244A"/>
<path d="M886.356 962.459C885.137 948.911 903.559 942.316 913.009 936.808C921.969 931.695 930.87 926.307 939.83 921.193C958.24 910.572 976.591 899.677 995.001 889.056C996.256 888.207 995.288 886.403 993.974 886.977C971.251 900.262 948.743 913.213 926.02 926.498C915.315 932.854 903.882 938.505 893.632 945.625C887.634 949.807 883.369 955.338 884.157 962.936C884.181 964.37 886.38 963.892 886.356 962.459Z" fill="#2B244A"/>
<path d="M920.202 964.597C924.921 939.974 962.434 940.452 981.704 941.73C983.138 941.706 983.27 939.663 981.776 939.412C961.622 938.038 923.069 938.074 918.039 963.916C917.789 965.409 919.951 966.09 920.202 964.597Z" fill="#2B244A"/>
<path d="M983.711 896.689C986.961 899.724 992.97 899.569 996.996 899.557C1002.12 899.306 1006.46 898.075 1010.44 895.196C1011.69 894.348 1010.17 892.663 1008.92 893.511C1005.71 895.937 1001.92 897.048 997.952 897.335C994.535 897.502 987.976 897.777 985.395 895.172C984.332 894.252 982.648 895.769 983.711 896.689Z" fill="#2B244A"/>
<path d="M949.926 941.157C948.719 944.873 947.848 948.803 947.31 952.949C947.059 954.442 949.376 954.514 949.627 953.021C950.224 949.15 950.882 945.554 952.089 941.838C952.34 940.345 950.177 939.664 949.926 941.157Z" fill="#2B244A"/>
<path d="M960.785 940.81C959.793 944.191 959.077 947.513 958.145 951.168C957.894 952.662 960.056 953.343 960.307 951.849C961.299 948.468 962.015 945.147 962.947 941.491C963.473 939.938 961.31 939.257 960.785 940.81Z" fill="#2B244A"/>
<path d="M1539.78 224.73C1542.35 229.927 1546.84 234.705 1551.93 235.613L1552.95 227.047C1548.8 226.51 1545.02 225.028 1541.19 223.272C1540.25 222.902 1539.33 223.965 1539.78 224.73Z" fill="#2B244A"/>
<path d="M1552.34 154.086C1554.06 158.029 1549.21 158.22 1546.41 162.569C1543.83 166.583 1541.32 168.279 1539.47 166.38C1537.56 164.206 1538.41 158.841 1543.24 154.624C1547.87 150.741 1550.85 151.243 1552.34 154.086Z" fill="#2B244A"/>
<path d="M1551.5 163.476C1548.38 165.017 1551.32 169.27 1552.78 170.68C1553.84 171.6 1555.18 172.46 1556.49 171.887C1558.57 170.859 1557.09 168.016 1556.18 166.487C1555.27 164.958 1553.58 162.449 1551.5 163.476Z" fill="#2B244A"/>
<path d="M1571.48 190.5C1570.9 189.186 1570.33 187.872 1569.81 186.833C1567.74 187.86 1565.11 189.007 1561.32 190.118C1565.27 192.424 1568.99 193.63 1572.53 194.013C1572.5 192.579 1571.99 191.54 1571.48 190.5Z" fill="white"/>
<path d="M944.885 1082.11C938.732 1053.8 949.603 1024.39 962.315 999.47C962.9 998.191 961.168 996.841 960.307 998.18C947.106 1023.5 936.08 1053.52 942.352 1082.37C942.985 1083.96 945.183 1083.48 944.885 1082.11Z" fill="#8D84B8"/>
<path d="M1527.92 197.956C1528.39 200.154 1527.1 202.161 1524.91 202.639C1522.71 203.117 1520.7 201.826 1520.22 199.628C1519.74 197.43 1521.03 195.423 1523.23 194.945C1525.16 194.527 1527.44 195.757 1527.92 197.956Z" fill="#FFBE63"/>
<path d="M1527.92 197.956C1528.39 200.154 1527.1 202.161 1524.91 202.639C1522.71 203.117 1520.7 201.826 1520.22 199.628C1519.74 197.43 1521.03 195.423 1523.23 194.945C1525.16 194.527 1527.44 195.757 1527.92 197.956Z" fill="#FFBE63"/>
<path d="M1451.29 167.133C1458.6 162.378 1466.26 161.864 1473.93 158.758C1480.28 156.225 1485.34 151.674 1490.06 146.907C1490.98 145.843 1489.46 144.159 1488.54 145.222C1482.08 151.232 1476.47 155.903 1467.74 158.089C1461.2 159.798 1455.77 161.267 1450.26 165.054C1449.01 165.903 1449.97 167.707 1451.29 167.133Z" fill="#8D84B8"/>
<path d="M984.95 695.224C981.008 690.326 973.505 690.23 968.248 692.524C953.243 698.952 943.769 716.263 934.379 728.664C929.683 734.864 924.893 748.568 937.055 750.24C945.071 751.375 954.044 743.669 959.981 739.213C968.428 733.06 976.241 725.319 982.382 716.502C986.312 710.755 990.135 701.867 984.95 695.224Z" fill="#F576A6"/>
<path d="M1687.35 418.537C1687.78 421.373 1689.06 423.969 1691.24 425.483C1693.15 426.702 1695.94 427.12 1698.2 426.949C1713.45 426.002 1741.15 406.518 1733.57 388.694C1729.03 377.775 1714.83 380.461 1706.71 385.134C1696.85 391.128 1687.18 404.734 1687.15 416.838C1687.14 417.119 1687.11 417.681 1687.35 418.537Z" fill="#F576A6"/>
</svg>
