<?xml version="1.0" encoding="UTF-8" standalone="no"?>
<svg
   xmlns:dc="http://purl.org/dc/elements/1.1/"
   xmlns:cc="http://creativecommons.org/ns#"
   xmlns:rdf="http://www.w3.org/1999/02/22-rdf-syntax-ns#"
   xmlns:svg="http://www.w3.org/2000/svg"
   xmlns="http://www.w3.org/2000/svg"
   xmlns:sodipodi="http://sodipodi.sourceforge.net/DTD/sodipodi-0.dtd"
   xmlns:inkscape="http://www.inkscape.org/namespaces/inkscape"
   width="187.25256"
   height="168.99982"
   viewBox="0 0 187.25256 168.99982"
   version="1.1"
   id="svg12"
   sodipodi:docname="home-info.svg"
   style="fill:none"
   inkscape:version="0.92.5 (2060ec1f9f, 2020-04-08)">
  <metadata
     id="metadata18">
    <rdf:RDF>
      <cc:Work
         rdf:about="">
        <dc:format>image/svg+xml</dc:format>
        <dc:type
           rdf:resource="http://purl.org/dc/dcmitype/StillImage" />
        <dc:title></dc:title>
      </cc:Work>
    </rdf:RDF>
  </metadata>
  <defs
     id="defs16" />
  <sodipodi:namedview
     pagecolor="#ffffff"
     bordercolor="#666666"
     borderopacity="1"
     objecttolerance="10"
     gridtolerance="10"
     guidetolerance="10"
     inkscape:pageopacity="0"
     inkscape:pageshadow="2"
     inkscape:window-width="1920"
     inkscape:window-height="1027"
     id="namedview14"
     showgrid="false"
     fit-margin-top="0"
     fit-margin-left="0"
     fit-margin-right="0"
     fit-margin-bottom="0"
     inkscape:zoom="0.98333333"
     inkscape:cx="92.585199"
     inkscape:cy="84.0096"
     inkscape:window-x="1280"
     inkscape:window-y="30"
     inkscape:window-maximized="1"
     inkscape:current-layer="svg12" />
  <path
     d="m 96.978199,0.71871371 c -24.405,3.55149999 -33.4454,26.34640029 -51.4343,39.52510029 -14.71,10.7766 -38.4879003,15.566 -44.2286003,30.5574 -5.7161,14.928 8.6234,29.334996 15.7137003,43.908996 6.7076,13.787 10.1266,29.023 24.4962,38.743 15.1226,10.229 35.414,16.837 55.453,15.334 19.288001,-1.447 32.850001,-13.918 48.118001,-23.102 14.625,-8.798 33.713,-15.493 38.856,-29.219 5.103,-13.618 -9.944,-26.288996 -12.81,-40.288996 -3.697,-18.0619 7.989,-38.7046 -6.345,-53.2877 C 149.6102,7.4365137 121.7172,-2.8814863 96.978199,0.71871371 Z"
     id="path2"
     inkscape:connector-curvature="0"
     style="clip-rule:evenodd;fill:#00b1ae;fill-rule:evenodd" />
  <path
     d="m 138.4192,14.280614 c -22.891,-9.1758003 -42.151001,6.0038 -64.324001,8.375 -18.1318,1.939 -41.1021,-5.8514 -53.5912,4.2347 -12.4354003,10.0428 -7.2627,29.7006 -8.4439,45.8649 -1.1176,15.292 -5.8065003,30.185996 1.7447,45.803996 7.947,16.437 22.1813,32.336 40.2687,41.093 17.4097,8.428 35.3987,4.448 53.214701,4.166 17.065,-0.271 36.934,3.518 48.271,-5.773 11.248,-9.218 4.592,-27.73 9.14,-41.277 5.866,-17.477996 26.333,-29.468996 21.254,-49.274996 -5.381,-20.9886 -24.329,-43.911 -47.534,-53.2126 z"
     id="path4"
     inkscape:connector-curvature="0"
     style="clip-rule:evenodd;opacity:0.4;fill-rule:evenodd;stroke:#ffffff" />
  <path
     d="m 95.056199,94.778214 h -43.971 v 12.963996 h 43.971 z"
     id="path6"
     inkscape:connector-curvature="0"
     style="fill:#ffffff" />
  <path
     d="m 51.201999,76.735214 v -22.745 h 9.927 c 2.4233,0 4.3795,0.6423 5.781,1.927 1.4306,1.2555 2.1314,2.8905 2.1314,4.9343 0,2.0438 -0.7008,3.708 -2.1314,4.9637 -1.4015,1.255 -3.3577,1.927 -5.781,1.927 h -5.2555 v 8.993 z m 4.7007,-12.9932 h 4.9343 c 2.2482,0 3.562,-1.0219 3.562,-2.8321 0,-1.8102 -1.343,-2.8321 -3.562,-2.8321 h -4.9343 z"
     id="path8"
     inkscape:connector-curvature="0"
     style="fill:#ffffff" />
  <path
     d="m 72.632199,76.735214 v -22.745 h 4.643 l 6.598,9.4307 6.599,-9.4307 h 4.613 v 22.745 h -4.613 v -15.5625 l -5.226,7.2995 h -2.599 l -5.343,-7.2995 v 15.5625 z"
     id="path10"
     inkscape:connector-curvature="0"
     style="fill:#ffffff" />
</svg>
