<?xml version="1.0" encoding="UTF-8" standalone="no"?>
<svg
   xmlns:dc="http://purl.org/dc/elements/1.1/"
   xmlns:cc="http://creativecommons.org/ns#"
   xmlns:rdf="http://www.w3.org/1999/02/22-rdf-syntax-ns#"
   xmlns:svg="http://www.w3.org/2000/svg"
   xmlns="http://www.w3.org/2000/svg"
   xmlns:sodipodi="http://sodipodi.sourceforge.net/DTD/sodipodi-0.dtd"
   xmlns:inkscape="http://www.inkscape.org/namespaces/inkscape"
   width="325.99893"
   height="320.99994"
   viewBox="0 0 325.99893 320.99994"
   version="1.1"
   id="svg116"
   sodipodi:docname="in-course-5.svg"
   style="fill:none"
   inkscape:version="0.92.5 (2060ec1f9f, 2020-04-08)">
  <metadata
     id="metadata122">
    <rdf:RDF>
      <cc:Work
         rdf:about="">
        <dc:format>image/svg+xml</dc:format>
        <dc:type
           rdf:resource="http://purl.org/dc/dcmitype/StillImage" />
        <dc:title></dc:title>
      </cc:Work>
    </rdf:RDF>
  </metadata>
  <defs
     id="defs120" />
  <sodipodi:namedview
     pagecolor="#ffffff"
     bordercolor="#666666"
     borderopacity="1"
     objecttolerance="10"
     gridtolerance="10"
     guidetolerance="10"
     inkscape:pageopacity="0"
     inkscape:pageshadow="2"
     inkscape:window-width="1920"
     inkscape:window-height="1027"
     id="namedview118"
     showgrid="false"
     fit-margin-top="0"
     fit-margin-left="0"
     fit-margin-right="0"
     fit-margin-bottom="0"
     inkscape:zoom="0.73520249"
     inkscape:cx="-30.82292"
     inkscape:cy="160.49995"
     inkscape:window-x="1280"
     inkscape:window-y="30"
     inkscape:window-maximized="1"
     inkscape:current-layer="svg116" />
  <path
     d="m 152.27711,316.23999 c -45.059,-8.067 -88.206696,-29.127 -111.808596,-70.051 -23.6742,-41.05 -22.8761,-91.383 -7.2927,-136.462 15.8287,-45.788296 45.7503,-86.501396 89.819296,-102.2647156 44.773,-16.01566 94.005,-5.21368 133.212,22.4856196 38.598,27.2687 61.837,71.156096 67.711,119.463096 6.178,50.799 -0.153,106.205 -36.028,141.075 -35.399,34.406 -87.969,34.284 -135.613,25.754 z"
     id="path2"
     inkscape:connector-curvature="0"
     style="fill:#f5e3d9" />
  <path
     d="m 137.20111,302.09799 c -47.374996,-7.58 -92.650696,-27.359 -117.400196,-65.714 -24.8251004,-38.472 -24.0064004,-85.674 -7.6368,-127.997 16.6302,-42.996396 48.0479,-81.178296 94.276996,-95.957896 46.989,-15.0226396 98.681,-4.8954096 139.864,21.1088 40.515,25.5823 64.911,66.756096 71.079,112.088096 6.495,47.736 -0.18,99.677 -37.781,132.342 -37.104,32.233 -92.262,32.154 -142.402,24.13 z"
     id="path4"
     inkscape:connector-curvature="0"
     style="opacity:0.4;stroke:#ffffff;stroke-width:0.85786301" />
  <path
     d="m 126.59611,58.309094 c 3.203,-1.7915 8.36,-0.0543 11.129,1.4116 6.46,3.4745 10.804,9.7178 16.233,14.4953 3.148,2.7688 6.677,4.7775 10.64,6.1347 3.963,1.3573 8.089,2.2259 12.107,3.5831 3.583,1.1944 7.058,2.7688 9.935,5.2661 2.877,2.443 5.103,5.5918 6.623,9.0121 3.312,7.545996 2.932,16.503996 -1.411,25.787996 -0.163,0.054 -0.326,0.162 -0.543,0.271 l 0.434,0.326 c 0,0 -3.366,14.115 -13.247,12.975 -9.88,-1.14 -16.666,-14.007 -21.39,-26.819 -1.14,-3.095 -0.543,-4.506 0.978,-4.94 -3.855,-2.986 -7.655,-5.972296 -11.51,-8.903996 -4.506,-3.5288 -9.501,-6.8947 -12.921,-11.5094 -3.963,-5.3203 -4.18,-11.6179 -3.637,-17.9155 -2.117,-2.2259 -3.42,-9.175 -3.42,-9.175 z"
     id="path6"
     inkscape:connector-curvature="0"
     style="fill:#2b244a" />
  <path
     d="m 31.371714,59.014994 c 0.7601,-0.8144 2.6059,-0.7601 3.6374,-0.8687 1.4115,-0.1086 2.8773,-0.0543 4.2889,0.1086 -0.5429,-0.5972 -1.0858,-1.1944 -1.5744,-1.8458 -0.7601,-0.923 -1.7373,-2.1173 -2.0631,-3.2574 -0.4886,-1.5201 1.2487,-1.683 2.226,-1.1401 1.2486,0.7058 2.443,1.7373 3.5831,2.6059 1.3029,0.9229 2.6058,1.8458 3.9088,2.8231 2.063,1.4658 4.126,2.9316 6.1347,4.4517 15.473,7.5463 31.325,14.6039 48.318,17.8613 0.379996,0.0543 0.216996,0.6515 -0.163,0.5429 -0.434,-0.0543 -0.814,-0.1629 -1.249,-0.2715 0.272,7.1663 2.062996,14.1153 5.211996,20.521996 0.217,0.054 0.38,0.054 0.597,0.108 0.38,0.054 0.217,0.597 -0.163,0.543 -0.108,0 -0.217,-0.054 -0.325,-0.054 -0.109,0.163 -0.38,0.163 -0.489,-0.055 v -0.054 C 94.022114,99.352194 75.889114,91.805894 67.746114,87.245594 c -8.6867,-4.8318 -22.8563,-16.4498 -26.2765,-19.3271 -1.7373,-0.6515 -3.366,-1.4659 -4.6689,-2.7145 -1.1944,-0.1086 -2.3345,-0.3258 -3.4746,-0.7058 -0.5972,-0.2171 -1.3573,-0.5429 -1.4658,-1.2486 -0.1086,-0.6515 0.3258,-1.0858 0.8687,-1.303 0.5971,-0.2714 1.3029,-0.38 1.9544,-0.4886 -2.063,-0.2714 -4.6146,-0.9772 -3.3117,-2.443 z"
     id="path8"
     inkscape:connector-curvature="0"
     style="fill:#ffa67d" />
  <path
     d="m 156.45511,123.61999 c 0.868,-2.769 1.248,-5.538 1.574,-8.415 0.272,-2.66 0.543,-5.429 1.412,-7.981 0.434,-1.357 1.248,-3.963 3.04,-3.854 1.846,0.108 3.312,2.714 3.909,4.18 0.76,1.846 1.031,3.909 0.76,5.863 -0.217,1.52 -0.977,2.823 -1.466,4.289 -0.543,1.792 0.109,3.203 0.217,4.995 0.054,1.411 -0.434,2.714 -1.303,3.746 -0.76,2.008 -1.737,4.126 -3.854,4.94 -1.575,0.597 -3.258,0.163 -4.181,-1.249 -1.357,-2.008 -0.705,-4.397 -0.108,-6.514 z"
     id="path10"
     inkscape:connector-curvature="0"
     style="fill:#2b244a" />
  <path
     d="m 149.45111,114.33599 c 1.466,1.792 3.095,3.475 4.778,4.995 0.597,-5.592 2.497,-10.967 5.646,-15.636 0.163,-0.217 0.814,-0.706 0.814,-0.488 0.055,0 2.824,-1.086 2.878,-1.032 13.409,9.555 46.255,34.583 51.683,39.469 2.769,2.497 4.561,3.963 7.275,6.569 1.358,1.303 2.66,2.606 3.963,3.909 0.706,0.705 1.738,1.574 1.358,2.66 -0.543,1.628 -10.641,-2.389 -14.007,-4.018 0.163,0.272 1.303,2.281 1.411,2.552 0.326,0.651 0.978,1.574 0.815,2.389 -0.38,1.683 -2.28,0.271 -2.878,-0.326 -2.551,-2.497 -4.288,-4.506 -6.297,-7.438 -8.361,-3.637 -16.667,-7.437 -24.865,-11.455 -7.817,-3.854 -15.852,-7.6 -23.019,-12.595 -1.52,-1.032 -2.985,-2.172 -4.343,-3.366 0,0.163 -0.054,0.326 -0.054,0.489 0,0.38 -0.597,0.38 -0.597,0 0,-0.326 0.054,-0.652 0.054,-0.978 -1.846,-1.628 -3.583,-3.42 -5.157,-5.32 -0.109,-0.271 0.325,-0.651 0.542,-0.38 z"
     id="path12"
     inkscape:connector-curvature="0"
     style="fill:#ffa67d" />
  <path
     d="m 95.922114,78.884994 c 0,-0.0543 0,-0.0543 0,-0.1086 v -0.0543 c 0.054,-0.1085 0.163,-0.1628 0.326,-0.1628 6.242996,0.8686 12.485996,1.3572 18.783996,1.5744 2.986,0.1085 5.972,0.0543 8.958,0.0543 0.488,0 1.628,-0.0543 1.737,-0.0543 7.763,-0.8687 14.387,2.9859 20.358,7.9262 5.809,4.7775 10.478,8.1435 17.482,14.061096 -1.683,0.054 -3.746,3.8 -4.181,5.103 -0.868,2.552 -1.14,5.321 -1.411,7.981 -0.272,2.877 -0.706,5.646 -1.575,8.415 -0.651,2.063 -1.248,4.451 0.055,6.46 0.543,0.76 1.248,1.249 2.063,1.412 -7.601,0 -9.067,-10.695 -14.984,-13.736 -0.054,0.815 -0.163,1.629 -0.272,2.389 -0.38,2.335 -1.085,4.669 -2.497,6.569 -0.651,0.869 -1.357,1.575 -2.28,2.172 -1.52,0.977 -3.692,1.574 -3.909,3.637 0.054,0.109 0.054,0.272 -0.109,0.38 -3.257,1.792 -6.406,3.746 -9.446,5.863 -2.497,1.738 -4.94,2.769 -8.035,2.172 -0.217,-0.054 -0.271,-0.271 -0.108,-0.434 -2.769,-1.575 -4.886,-4.126 -5.864,-7.167 -1.357,-4.288 0.109,-8.577 0.652,-12.866 0.543,-4.343 -1.032,-8.252 -1.846,-12.378 -1.52,0.488 -3.04,0.706 -4.669,0.488 -0.109,0 -0.163,-0.054 -0.217,-0.108 -0.163,0.054 -0.38,-0.054 -0.434,-0.272 -0.272,-2.877 -2.063,-5.157 -3.801,-7.329 -1.464996,-1.845596 -2.822996,-3.745696 -3.636996,-5.971596 -1.846,-5.0489 -1.52,-10.6407 -1.14,-16.0154 z"
     id="path14"
     inkscape:connector-curvature="0"
     style="fill:#eb5d19" />
  <path
     d="m 220.73411,148.10399 c 0,0 4.831,4.94 7.112,8.198 0.705,0.977 -0.978,3.149 -6.027,-1.14 -5.048,-4.289 -5.048,-4.343 -5.048,-4.343 z"
     id="path16"
     inkscape:connector-curvature="0"
     style="fill:#ffa67d" />
  <path
     d="m 218.94211,147.77799 c 0,0 3.312,6.081 4.615,9.827 0.38,1.14 -0.977,3.637 -5.158,-1.52 -4.397,-5.429 -6.84,-8.09 -6.84,-8.09 z"
     id="path18"
     inkscape:connector-curvature="0"
     style="fill:#ffa67d" />
  <path
     d="m 223.01411,156.19299 c -1.466,-2.714 -2.877,-5.429 -4.289,-8.143 -0.109,-0.271 0.271,-0.489 0.38,-0.217 1.412,2.714 2.823,5.483 4.289,8.143 0.163,0.272 -0.217,0.489 -0.38,0.217 z"
     id="path20"
     inkscape:connector-curvature="0"
     style="fill:#2b244a" />
  <path
     d="m 226.59711,155.05299 c -2.117,-2.823 -4.343,-5.537 -6.732,-8.143 -0.163,-0.217 0.109,-0.489 0.326,-0.326 2.389,2.606 4.669,5.375 6.786,8.198 0.163,0.271 -0.217,0.489 -0.38,0.271 z"
     id="path22"
     inkscape:connector-curvature="0"
     style="fill:#2b244a" />
  <path
     d="m 42.555314,62.380894 c -1.3572,-1.4116 -2.6602,-2.8231 -3.9089,-4.2889 -0.1628,-0.2172 0.1087,-0.5429 0.3258,-0.3257 1.2487,1.4658 2.6059,2.8773 3.9089,4.2888 0.2171,0.2172 -0.1086,0.5429 -0.3258,0.3258 z"
     id="path24"
     inkscape:connector-curvature="0"
     style="fill:#2b244a" />
  <path
     d="m 39.243714,62.814994 c -1.5201,-0.3258 -3.0945,-0.6515 -4.6146,-0.9773 -0.2714,-0.0542 -0.1629,-0.4886 0.1086,-0.4343 1.5201,0.3258 3.0945,0.6515 4.6146,0.9772 0.2714,0.0543 0.1629,0.4887 -0.1086,0.4344 z"
     id="path26"
     inkscape:connector-curvature="0"
     style="fill:#2b244a" />
  <path
     d="m 44.184014,64.009494 c -1.303,-0.38 -2.6059,-0.6515 -3.9089,-0.9229 -0.5972,-0.1086 -1.1943,-0.3257 -1.8458,-0.38 -0.6515,-0.0543 -1.0858,-0.0543 -1.5201,0.38 -0.4886,0.2172 -0.5429,0.5429 -0.2715,0.9772 0,0.38 0.1086,0.7058 0.38,0.9772 0.1629,0.2172 -0.2171,0.4343 -0.38,0.2172 -0.9229,-1.2487 -0.7057,-2.8231 0.9773,-2.986 0.8686,-0.1085 1.7372,0.1629 2.6058,0.3258 1.3573,0.3257 2.7688,0.5972 4.126,0.9772 0.2172,0.1086 0.1086,0.4886 -0.1628,0.4343 z"
     id="path28"
     inkscape:connector-curvature="0"
     style="fill:#2b244a" />
  <path
     d="m 119.26611,200.22199 c 0.326,0.272 0.598,0.543 0.923,0.869 -0.488,-2.28 -0.217,-4.832 0.055,-7.003 0.705,-5.918 1.357,-11.781 2.063,-17.699 0.38,-3.04 0.705,-6.08 1.085,-9.12 0.218,-1.683 0.326,-3.638 1.575,-4.941 2.66,-2.768 6.732,0.055 9.881,-0.977 -0.218,-0.76 -0.435,-1.574 -0.652,-2.334 -0.109,-0.38 0.434,-0.489 0.543,-0.163 l 0.597,2.28 c 0.109,-0.054 0.217,-0.109 0.326,-0.163 0.326,-0.217 0.597,0.326 0.271,0.489 -0.163,0.108 -0.271,0.163 -0.434,0.217 l 8.958,32.248 c 16.07,11.292 26.819,28.665 39.197,43.649 2.932,3.583 6.026,7.057 9.338,10.315 4.886,1.52 9.88,3.149 14.006,6.243 4.126,3.095 5.212,6.081 8.252,11.238 1.141,1.954 6.732,11.998 7.221,14.604 0.217,1.249 0.489,2.769 -0.434,3.8 -2.009,2.172 -5.049,0.217 -6.841,-1.194 -4.234,-3.366 -8.415,-6.678 -12.649,-10.044 -4.181,-3.311 -8.524,-6.515 -12.595,-10.043 -7.71,-6.732 -15.799,-13.084 -23.616,-19.707 -5.104,-4.344 -10.207,-8.741 -15.256,-13.193 -9.989,-8.74 -19.87,-17.644 -29.588,-26.656 0.543,1.031 1.412,1.954 2.715,2.552 0.326,0.162 0.054,0.651 -0.272,0.488 -1.791,-0.868 -2.823,-2.28 -3.366,-3.909 -0.543,-0.488 -1.085,-0.977 -1.574,-1.465 -0.434,-0.218 0,-0.652 0.271,-0.381 z"
     id="path30"
     inkscape:connector-curvature="0"
     style="fill:#ffa67d" />
  <path
     d="m 137.39911,204.61899 c 1.52,-1.465 3.203,-2.823 4.832,-4.126 1.574,-1.303 3.149,-2.605 4.995,-3.528 0.217,-0.109 0.488,-0.218 0.76,-0.326 4.831,3.854 9.229,8.252 13.301,12.921 -7.438,2.226 -14.007,7.003 -20.956,10.695 -2.986,-2.66 -5.972,-5.321 -8.904,-8.035 1.52,-2.877 3.692,-5.483 5.972,-7.601 z"
     id="path32"
     inkscape:connector-curvature="0"
     style="fill:#2b244a" />
  <path
     d="m 95.216114,216.56299 c 0.163,-5.863 0.923,-11.726 1.792,-17.535 0.868,-6.189 2.008,-12.378 3.473996,-18.513 3.149,-13.192 6.949,-25.407 13.356,-37.405 1.682,-0.978 22.041,-9.772 23.778,-10.207 7.058,15.961 7.058,34.691 0.326,50.815 -1.683,3.963 -3.746,7.764 -6.189,11.347 9.772,-3.692 19.219,-8.252 28.176,-13.681 0.163,-0.272 0.326,-0.543 0.543,-0.76 1.412,-1.738 3.529,-2.606 5.646,-3.095 2.661,-0.543 5.429,-0.706 8.144,-0.977 3.203,-0.326 6.46,-0.651 9.663,-0.977 1.521,-0.163 3.041,-0.326 4.561,-0.434 0.868,-0.109 2.063,-0.272 2.877,0.325 1.737,1.303 0.869,3.366 -0.651,4.289 -4.289,2.606 -19.436,9.935 -22.802,11.727 -9.718,8.469 -15.147,13.409 -23.345,20.087 -4.668,3.8 -10.206,9.229 -15.255,12.541 -4.886,3.203 -10.044,6.623 -15.744,8.089 -4.615,1.194 -9.881,0.814 -13.734996,-2.226 -4.072,-3.149 -4.778,-8.523 -4.615,-13.41 z"
     id="path34"
     inkscape:connector-curvature="0"
     style="fill:#ffa67d" />
  <path
     d="m 96.682114,207.55099 c 5.428996,-6.623 16.069996,-11.944 22.964996,-17.101 3.257,-2.443 6.786,-4.506 10.586,-5.972 3.909,-1.52 8.089,-2.226 12.215,-2.823 1.683,-0.271 3.42,-0.489 5.103,-0.76 -0.108,1.303 1.9,4.886 -1.194,7.763 -3.095,2.823 -17.753,12.324 -30.022,17.21 -4.56,1.846 -14.278,3.366 -19.598996,3.583 -0.271,0.055 -0.271,-1.628 -0.054,-1.9 z"
     id="path36"
     inkscape:connector-curvature="0"
     style="fill:#2b244a" />
  <path
     d="m 154.93511,184.31599 c 1.683,-0.923 3.311,-1.901 4.94,-2.878 0.163,-0.271 0.38,-0.543 0.543,-0.76 1.412,-1.737 3.529,-2.606 5.646,-3.094 2.66,-0.543 5.429,-0.706 8.144,-0.978 3.203,-0.325 6.46,-0.651 9.663,-0.977 1.52,-0.163 3.04,-0.326 4.56,-0.434 0.869,-0.109 2.064,-0.272 2.824,0.326 1.737,1.303 0.868,3.366 -0.652,4.288 -4.289,2.606 -19.436,9.935 -22.802,11.727 -0.705,0.597 -1.357,1.194 -2.008,1.737 -0.923,-1.303 -1.14,-2.986 -0.489,-4.506 -3.203,-1.954 -6.732,-3.474 -10.369,-4.451 z"
     id="path38"
     inkscape:connector-curvature="0"
     style="fill:#f5e3d9" />
  <path
     d="m 114.05511,201.85099 c 4.831,-3.8 9.935,-6.841 15.852,-8.469 6.189,-1.683 12.65,-2.335 18.676,-4.723 6.134,-2.443 11.618,-6.515 14.984,-12.216 -1.52,-2.063 -2.932,-4.18 -4.235,-6.351 -2.877,-4.832 -5.103,-9.935 -7.329,-15.039 -3.963,-9.283 -6.352,-19.653 -15.147,-25.244 -6.135,3.637 -16.232,6.623 -23.127,8.252 -10.424,15.472 -21.661996,38.382 -27.361996,70.359 12.921,2.497 18.512996,0.706 27.687996,-6.569 z"
     id="path40"
     inkscape:connector-curvature="0"
     style="fill:#f576a6" />
  <path
     d="m 136.91111,129.86299 c 1.954,1.248 3.583,2.714 4.994,4.343 -3.149,2.28 -7.383,3.366 -11.238,3.8 -5.103,0.597 -10.315,0.489 -15.364,-0.271 6.786,-1.683 15.961,-4.506 21.608,-7.872 z"
     id="path42"
     inkscape:connector-curvature="0"
     style="fill:#2b244a" />
  <path
     d="m 138.97411,146.90999 c 0.325,-0.326 1.031,-0.272 2.117,0.38 4.615,2.877 7.655,7.818 11.509,11.509 0.543,0.489 1.086,0.977 1.738,1.412 0.814,1.846 1.683,3.637 2.605,5.429 -2.877,-1.358 -5.754,-2.335 -8.523,-4.561 -3.312,-2.66 -6.732,-5.754 -8.795,-9.555 -0.76,-1.303 -1.466,-3.854 -0.651,-4.614 z"
     id="path44"
     inkscape:connector-curvature="0"
     style="fill:#2b244a" />
  <path
     d="m 193.31711,254.72899 c 0.489,-2.28 0.326,-4.615 -0.38,-6.84 4.886,1.52 9.881,3.148 13.953,6.243 4.126,3.094 5.212,6.08 8.252,11.238 1.14,1.954 6.732,11.998 7.22,14.604 0.217,1.248 0.489,2.768 -0.434,3.8 -2.009,2.172 -5.049,0.217 -6.84,-1.194 -4.235,-3.366 -8.415,-6.678 -12.65,-10.044 -4.18,-3.312 -8.523,-6.515 -12.595,-10.044 -0.923,-0.814 -1.846,-1.628 -2.823,-2.388 0.977,-2.552 2.606,-3.909 6.297,-5.375 z"
     id="path46"
     inkscape:connector-curvature="0"
     style="fill:#f5e3d9" />
  <path
     d="m 218.45411,284.09999 c 3.04,-1.9 0.108,-6.624 -0.923,-8.958 -1.086,-2.443 -2.226,-4.832 -3.475,-7.166 -2.552,-4.886 -5.375,-9.609 -8.415,-14.17 -0.163,-0.217 0.217,-0.434 0.38,-0.217 3.638,5.483 7.004,11.129 9.881,16.993 1.357,2.714 2.606,5.483 3.692,8.36 0.814,2.009 1.248,4.235 -0.869,5.592 -0.271,0.054 -0.489,-0.326 -0.271,-0.434 z"
     id="path48"
     inkscape:connector-curvature="0"
     style="fill:#2b244a" />
  <path
     d="m 192.06911,177.58299 c -10.478,0.978 -21.01,1.792 -31.488,2.932 -0.272,0.054 -0.272,-0.38 0,-0.434 10.478,-1.195 21.01,-2.009 31.488,-2.932 0.271,0 0.271,0.434 0,0.434 z"
     id="path50"
     inkscape:connector-curvature="0"
     style="fill:#2b244a" />
  <path
     d="m 178.38811,185.99799 c -0.923,-2.443 -5.755,-0.271 -7.492,0.38 -1.9,0.706 -3.638,1.575 -5.429,2.498 -0.272,0.108 -0.489,-0.217 -0.217,-0.38 2.443,-1.303 4.94,-2.443 7.6,-3.258 1.792,-0.543 4.995,-1.846 5.918,0.652 0.108,0.271 -0.272,0.38 -0.38,0.108 z"
     id="path52"
     inkscape:connector-curvature="0"
     style="fill:#2b244a" />
  <path
     d="m 197.60611,268.30199 c 1.358,-0.272 2.172,-1.738 2.389,-3.041 0.272,-1.574 -0.76,-3.04 -1.683,-4.18 -1.683,-2.117 -3.529,-4.072 -5.266,-6.08 -0.163,-0.218 0.109,-0.543 0.326,-0.326 1.303,1.52 2.66,2.986 3.963,4.506 1.031,1.194 2.226,2.443 2.823,3.909 0.814,2.008 0,5.103 -2.389,5.592 -0.326,0.108 -0.434,-0.326 -0.163,-0.38 z"
     id="path54"
     inkscape:connector-curvature="0"
     style="fill:#2b244a" />
  <path
     d="m 207.92111,257.38899 c -3.8,-0.923 -6.894,-3.42 -8.632,-6.895 -0.108,-0.271 0.272,-0.488 0.38,-0.217 1.683,3.42 4.669,5.809 8.361,6.678 0.271,0.108 0.163,0.543 -0.109,0.434 z"
     id="path56"
     inkscape:connector-curvature="0"
     style="fill:#2b244a" />
  <path
     d="m 214.70811,269.22399 c -3.746,0.76 -2.443,5.429 -1.412,7.763 0.543,1.303 1.14,2.823 -0.217,3.801 -0.217,0.163 -0.434,-0.217 -0.217,-0.38 0.434,-0.326 0.705,-1.303 0.597,-1.846 -0.109,-0.489 -0.38,-0.923 -0.543,-1.357 -0.217,-0.489 -0.38,-0.923 -0.597,-1.412 -0.38,-1.086 -0.76,-2.28 -0.597,-3.42 0.163,-1.683 1.194,-3.203 2.877,-3.529 0.271,-0.109 0.38,0.326 0.109,0.38 z"
     id="path58"
     inkscape:connector-curvature="0"
     style="fill:#2b244a" />
  <path
     d="m 183.81711,183.12099 c -1.032,-1.574 -3.475,0.054 -4.886,-1.031 -0.978,-0.76 -1.249,-2.063 -1.303,-3.258 0,-0.271 0.434,-0.271 0.434,0 0.054,0.815 0.217,1.683 0.706,2.389 0.76,1.086 1.9,0.869 3.04,0.76 0.923,-0.109 1.846,0.054 2.389,0.869 0.163,0.271 -0.217,0.488 -0.38,0.271 z"
     id="path60"
     inkscape:connector-curvature="0"
     style="fill:#2b244a" />
  <path
     d="m 131.80711,113.41299 c 0.652,-3.149 5.646,-0.163 7.058,0.652 1.737,1.031 3.312,2.334 4.723,3.8 -0.054,0.814 -0.163,1.574 -0.271,2.389 -0.055,0.434 -0.163,0.868 -0.217,1.248 -1.901,-0.977 -4.181,-1.466 -6.135,-2.28 -2.063,-0.923 -5.755,-3.04 -5.158,-5.809 z"
     id="path62"
     inkscape:connector-curvature="0"
     style="fill:#2b244a" />
  <path
     d="m 105.74811,108.58099 c 0.38,-2.823 1.086,-5.917 2.498,-8.415 0.271,-0.433896 0.651,-0.976796 1.248,-0.651096 0.597,0.3257 0.489,1.140096 0.38,1.683096 -0.271,2.334 -0.325,4.669 -0.054,6.949 -1.357,0.434 -2.714,0.651 -4.126,0.543 0.054,-0.054 0.054,-0.109 0.054,-0.109 z"
     id="path64"
     inkscape:connector-curvature="0"
     style="fill:#2b244a" />
  <path
     d="m 122.57811,73.944594 1.194,6.2976 9.393,0.4886 -2.226,-10.2608 z"
     id="path66"
     inkscape:connector-curvature="0"
     style="fill:#ffa67d" />
  <path
     d="m 133.16511,80.730794 c 0,0 -2.878,-0.4343 -7.221,2.8774 -2.986,2.2801 -7.763,10.9665 -7.763,10.9665 0,0 -2.009,-9.8807 5.537,-14.3325 4.181,-2.443 9.447,0.4886 9.447,0.4886 z"
     id="path68"
     inkscape:connector-curvature="0"
     style="fill:#ffa67d" />
  <path
     d="m 136.63911,65.909594 c 0.652,-1.5201 0.38,-5.1032 -2.931,-6.8404 -2.986,-1.5744 -6.461,-2.1716 -9.718,1.0315 -3.258,3.203 -4.344,4.886 -5.538,7.6548 -0.923,2.1716 -1.52,4.7232 0.923,6.189 2.769,1.683 6.623,1.1944 8.523,0.3257 1.901,-0.8686 6.298,-2.6059 8.741,-8.3606 z"
     id="path70"
     inkscape:connector-curvature="0"
     style="fill:#ffa67d" />
  <path
     d="m 126.59511,58.309294 c 2.715,-1.3029 5.701,-0.5972 7.927,0.5972 3.311,1.7916 3.963,6.8405 3.854,8.4692 -0.597,6.5147 -5.157,13.4095 -5.157,13.4095 0,0 -2.986,-0.7057 -3.963,-1.683 -2.606,-2.6059 -2.009,-5.8089 -0.598,-9.2835 -1.845,-3.5831 -2.551,-7.5462 -2.063,-11.5094 z"
     id="path72"
     inkscape:connector-curvature="0"
     style="fill:#2b244a" />
  <path
     d="m 130.83011,69.492894 c 0,1.6287 -1.357,2.9316 -2.986,2.9316 -1.629,0 -2.931,-1.3572 -2.931,-2.9859 0,-1.6287 1.357,-2.9316 2.985,-2.9316 1.629,0.0542 2.932,1.3572 2.932,2.9859 z"
     id="path74"
     inkscape:connector-curvature="0"
     style="fill:#ffa67d" />
  <path
     d="m 122.79511,61.512294 c 0,0 -2.768,0.8143 -3.148,1.1943 -0.435,0.3258 -0.218,0.8687 0.488,2.063 0.706,1.1944 2.66,-3.2573 2.66,-3.2573 z"
     id="path76"
     inkscape:connector-curvature="0"
     style="fill:#ffa67d" />
  <path
     d="m 125.23811,74.650394 c -0.488,0.9229 -1.194,1.6287 -2.117,2.1716 l -0.326,-1.8459 c 0.76,-0.1086 1.52,-0.3257 2.226,-0.5972 0.109,-0.0543 0.272,0.1629 0.217,0.2715 z"
     id="path78"
     inkscape:connector-curvature="0"
     style="fill:#2b244a" />
  <path
     d="m 128.38711,70.470094 c 0.869,-0.6515 0.76,-1.8458 -0.163,-2.3887 -0.217,-0.1629 0,-0.5429 0.217,-0.3801 1.195,0.7058 1.249,2.2802 0.163,3.1488 -0.217,0.1629 -0.434,-0.2171 -0.217,-0.38 z"
     id="path80"
     inkscape:connector-curvature="0"
     style="fill:#2b244a" />
  <path
     d="m 122.95811,60.752094 c -0.326,0.7601 0.652,0.8143 1.194,1.6287 0.543,0.76 1.032,1.0858 1.358,0.7058 0.38,-0.4344 0.163,-1.4659 -0.815,-2.2802 -0.868,-0.7601 -1.465,-0.5972 -1.737,-0.0543 z"
     id="path82"
     inkscape:connector-curvature="0"
     style="fill:#2b244a" />
  <path
     d="m 123.23011,62.652294 c 0.597,0.3258 0.054,1.1401 -0.218,1.4116 -0.162,0.1628 -0.434,0.38 -0.705,0.2171 -0.38,-0.2171 -0.163,-0.76 0,-1.0315 0.217,-0.3257 0.543,-0.8143 0.923,-0.5972 z"
     id="path84"
     inkscape:connector-curvature="0"
     style="fill:#2b244a" />
  <path
     d="m 121.49211,67.375494 c -0.705,0.0543 -1.411,-0.0542 -2.063,-0.4343 -0.271,-0.1628 0,-0.4886 0.218,-0.38 0.597,0.3257 1.194,0.4343 1.845,0.38 0.272,-0.0543 0.272,0.3801 0,0.4343 z"
     id="path86"
     inkscape:connector-curvature="0"
     style="fill:#2b244a" />
  <path
     d="m 128.65911,71.935894 c 1.302,0.8144 2.605,1.5744 3.854,2.3887 0.217,0.1629 0,0.5429 -0.217,0.3801 -1.303,-0.8144 -2.606,-1.5744 -3.855,-2.3888 -0.271,-0.1628 -0.054,-0.5429 0.218,-0.38 z"
     id="path88"
     inkscape:connector-curvature="0"
     style="fill:#ffbe63" />
  <path
     d="m 128.76711,72.152994 c -0.054,1.5201 -0.054,3.0402 -0.108,4.5603 0,0.2715 -0.435,0.2715 -0.435,0 0.055,-1.5201 0.055,-3.0402 0.109,-4.5603 0,-0.3257 0.434,-0.3257 0.434,0 z"
     id="path90"
     inkscape:connector-curvature="0"
     style="fill:#ffbe63" />
  <path
     d="m 132.51311,74.704394 c -1.303,0.7057 -2.66,1.4658 -3.963,2.1715 -0.271,0.1086 -0.489,-0.2171 -0.217,-0.38 1.303,-0.7057 2.66,-1.4658 3.963,-2.1716 0.217,-0.1628 0.434,0.2172 0.217,0.3801 z"
     id="path92"
     inkscape:connector-curvature="0"
     style="fill:#ffbe63" />
  <path
     d="m 128.65911,71.935894 c 1.302,0.8144 2.605,1.5744 3.854,2.3887 0.217,0.1629 0,0.5429 -0.217,0.3801 -1.303,-0.8144 -2.606,-1.5744 -3.855,-2.3888 -0.271,-0.1628 -0.054,-0.5429 0.218,-0.38 z"
     id="path94"
     inkscape:connector-curvature="0"
     style="fill:#ffbe63" />
  <path
     d="m 128.76711,72.152994 c -0.054,1.5201 -0.054,3.0402 -0.108,4.5603 0,0.2715 -0.435,0.2715 -0.435,0 0.055,-1.5201 0.055,-3.0402 0.109,-4.5603 0,-0.3257 0.434,-0.3257 0.434,0 z"
     id="path96"
     inkscape:connector-curvature="0"
     style="fill:#ffbe63" />
  <path
     d="m 132.51311,74.704394 c -1.303,0.7057 -2.66,1.4658 -3.963,2.1715 -0.271,0.1086 -0.489,-0.2171 -0.217,-0.38 1.303,-0.7057 2.66,-1.4658 3.963,-2.1716 0.217,-0.1628 0.434,0.2172 0.217,0.3801 z"
     id="path98"
     inkscape:connector-curvature="0"
     style="fill:#ffbe63" />
  <path
     d="m 79.526114,129.42799 c 2.281,-2.605 6.135,-2.008 8.524,0.272 3.583,3.474 3.42,8.523 4.995,12.921 1.465,4.072 5.049,5.972 8.631996,7.926 6.406,3.529 11.129,10.152 13.029,17.101 0.434,1.52 0.706,3.203 0.272,4.724 -0.652,2.28 -2.932,3.963 -5.321,3.854 -2.063,-0.108 -3.963,-1.411 -5.212,-3.094 -2.443,-3.312 -3.311,-7.438 -4.885996,-11.184 -1.303,-3.095 -4.397,-5.049 -6.08,-7.926 -3.475,-6.081 -9.447,-10.044 -14.387,-14.659 -2.497,-2.388 -2.063,-7.057 0.434,-9.935 z"
     id="path100"
     inkscape:connector-curvature="0"
     style="fill:#587ee0" />
  <path
     d="m 129.09311,233.71899 c 1.194,-1.846 3.529,-2.226 5.374,-1.357 2.606,1.194 3.855,3.909 5.049,6.297 0.869,1.738 1.901,3.258 3.312,4.615 1.846,1.792 15.093,12.758 9.284,15.31 -2.335,1.031 -4.941,-0.272 -6.949,-2.335 -2.661,-2.714 -3.855,-6.08 -6.461,-8.849 -2.552,-2.714 -5.103,-4.343 -7.6,-7.058 -1.466,-1.465 -3.421,-4.397 -2.009,-6.623 z"
     id="path102"
     inkscape:connector-curvature="0"
     style="fill:#587ee0" />
  <path
     d="m 181.75411,153.09899 c 4.614,-0.489 8.577,2.388 11.238,5.863 1.683,2.117 3.04,4.506 4.669,6.623 1.954,2.552 4.343,4.506 7.111,6.081 10.478,5.972 18.133,13.029 16.396,26.222 -0.326,2.443 -1.357,5.211 -3.746,5.809 -1.846,0.488 -3.692,-0.543 -5.212,-1.629 -10.098,-6.895 -15.744,-20.522 -27.687,-26.168 -4.832,-2.28 -7.492,-8.577 -8.47,-14.006 -0.76,-4.126 1.195,-8.307 5.701,-8.795 z"
     id="path104"
     inkscape:connector-curvature="0"
     style="fill:#587ee0" />
  <path
     d="m 152.60011,127.20299 c 2.389,-0.977 4.995,0.217 6.786,1.791 2.443,2.118 3.366,4.941 4.995,7.601 2.389,3.909 7.872,6.623 9.338,10.966 0.651,1.846 -0.109,4.018 -2.226,4.344 -2.769,0.434 -4.886,-2.389 -6.569,-4.072 l -8.035,-8.089 c -1.249,-1.249 -2.551,-2.498 -3.8,-3.801 -1.032,-1.031 -2.117,-2.171 -2.66,-3.583 -0.815,-2.117 0.054,-4.289 2.171,-5.157 z"
     id="path106"
     inkscape:connector-curvature="0"
     style="fill:#ffbe63" />
  <path
     d="m 110.03711,164.66299 c 0.706,-0.978 1.846,-0.978 2.715,-0.218 0.814,0.652 1.466,1.575 2.28,2.335 0.977,0.923 2.009,1.737 2.714,2.823 0.869,1.357 1.9,3.312 1.52,4.995 -0.217,0.977 -0.977,1.845 -2.063,1.845 -1.574,-0.054 -2.877,-1.845 -3.8,-2.931 -1.248,-1.52 -2.334,-3.203 -3.149,-5.049 -0.434,-1.14 -1.031,-2.66 -0.217,-3.8 z"
     id="path108"
     inkscape:connector-curvature="0"
     style="fill:#ffbe63" />
  <path
     d="m 210.36411,198.91899 c 5.429,-1.791 14.007,9.501 9.555,13.518 -3.311,2.932 -7.817,-2.334 -9.609,-4.614 -1.9,-2.498 -4.343,-7.492 0.054,-8.904 z"
     id="path110"
     inkscape:connector-curvature="0"
     style="fill:#ffbe63" />
  <path
     d="m 214.59911,226.87799 c 2.117,-3.04 7.926,3.42 5.646,6.135 -1.357,1.629 -3.42,0.054 -4.343,-1.14 -1.032,-1.303 -2.443,-3.312 -1.303,-4.995 z"
     id="path112"
     inkscape:connector-curvature="0"
     style="fill:#ffbe63" />
  <path
     d="m 118.50611,232.52499 c 3.095,-4.561 9.447,5.808 8.85,8.794 -0.652,3.258 -5.158,-0.217 -6.244,-1.248 -1.954,-1.738 -4.451,-4.832 -2.606,-7.546 z"
     id="path114"
     inkscape:connector-curvature="0"
     style="fill:#ffbe63" />
</svg>
