<svg width="341" height="324" viewBox="0 0 341 324" fill="none" xmlns="http://www.w3.org/2000/svg">
<path d="M158.278 316.433C113.219 308.692 70.0713 288.485 46.4694 249.218C22.7952 209.831 23.5933 161.536 39.1767 118.283C55.0054 74.3492 84.9274 35.285 128.996 20.1601C173.769 4.793 223.001 15.1575 262.208 41.735C300.806 67.8994 324.045 110.009 329.919 156.36C336.097 205.101 329.766 258.264 293.891 291.721C258.492 324.734 205.922 324.617 158.278 316.433Z" fill="#587EE0"/>
<path opacity="0.4" d="M203.793 5.22709C251.159 13.3586 296.436 34.5741 321.191 75.7317C346.026 117.023 345.205 167.684 328.832 213.102C312.196 259.244 280.773 300.208 234.55 316.062C187.571 332.176 135.887 321.315 94.7056 293.417C54.1907 265.971 29.7857 221.791 23.6156 173.138C17.1191 121.912 23.7962 66.1667 61.4074 31.1133C98.5091 -3.46504 153.657 -3.37992 203.793 5.22709Z" stroke="white" stroke-width="0.857863"/>
<path d="M188.5 224.963C194.165 220.24 201.5 223.51 207.673 220.167C213.555 216.97 217.114 208.615 224.812 209.777C233.455 211.085 236.432 222.202 229.388 227.506C221.036 233.755 209.634 229.322 201.354 236.225C198.377 238.695 194.891 241.82 190.679 240.802C187.628 240.076 185.522 237.17 184.941 234.19C184.215 230.63 185.74 227.288 188.5 224.963Z" fill="#4FB096"/>
<path d="M162.355 230.485C162.791 228.305 165.768 226.562 167.439 225.399C169.545 223.946 172.014 222.42 174.628 222.565C176.517 222.638 178.623 223.8 179.131 225.762C179.785 228.16 178.477 230.122 176.299 231.212C172.74 233.028 169.036 235.499 164.897 234.045C163.444 233.464 161.919 232.229 162.355 230.485Z" fill="#FFBE63"/>
<path d="M285.091 178.607C285.091 178.607 277.465 182.094 271.364 170.542C265.264 158.989 291.627 166.037 291.627 166.037L285.091 178.607Z" fill="#2B244A"/>
<path d="M218.348 69.8361C217.404 68.8189 216.605 67.8744 215.879 67.0751C214.209 65.1133 215.879 62.7156 218.348 64.0234C218.058 63.6601 217.913 61.2624 219.22 61.0444C221.835 60.5358 226.773 64.532 228.807 66.1305C228.952 64.75 229.315 63.0788 230.695 62.8609C232.946 62.5702 234.253 66.1305 235.125 67.5837C235.996 69.0369 236.795 70.4174 237.667 71.8706C246.382 79.1365 253.717 84.5859 260.761 89.2361C271.8 96.502 281.75 100.789 295.766 107.11C298.744 108.491 303.61 112.124 308.258 116.483C306.66 118.445 304.554 120.189 302.811 121.424C297.727 125.13 291.627 127.237 285.454 128.181C284.728 128.327 284.001 128.399 283.202 128.472C272.89 119.39 262.795 116.556 252.627 108.999C248.924 106.238 238.175 95.4121 229.678 87.3469C221.834 79.8631 215.08 72.8878 215.298 71.2893C215.734 69.6908 217.041 69.7635 218.348 69.8361Z" fill="#E0785E"/>
<path d="M277.247 107.256C277.392 107.256 277.973 108.636 277.973 108.781C278.191 108.563 278.627 108.636 278.627 109.072C278.627 113.722 273.253 113.94 269.84 113.722C265.482 113.432 261.124 112.778 256.839 111.906C255.46 111.034 254.007 110.525 252.7 109.508C250.086 107.546 241.08 98.2458 234.617 92.0698C240.644 95.5575 247.979 98.8998 255.387 101.588C263.23 104.349 269.767 105.294 277.247 107.256Z" fill="#2B244A"/>
<path d="M260.471 178.243C250.085 169.597 244.203 155.283 242.315 141.841C247.689 140.824 252.773 139.589 257.856 137.336H257.929C259.236 136.901 260.398 136.319 261.633 135.665C262.359 135.302 263.013 134.866 263.739 134.503C263.884 134.43 264.102 134.285 264.247 134.212C271.292 145.547 278.264 156.882 285.308 168.144C279.862 170.469 263.085 177.517 260.471 178.243Z" fill="#E0785E"/>
<path d="M3.0163 136.61C10.5693 133.776 18.2675 131.088 25.8931 128.545C31.4125 126.728 37.0775 127.164 42.8875 130.506C72.3005 144.166 101.713 157.826 131.199 171.559C136.791 174.174 142.383 176.79 147.975 179.406C164.606 178.752 181.092 176.136 197.142 171.486C196.779 170.687 196.489 169.96 196.126 169.161C195.908 168.725 196.561 168.289 196.779 168.798C197.142 169.597 197.505 170.469 197.869 171.341C198.014 171.268 198.231 171.268 198.377 171.195C198.885 171.05 199.03 171.777 198.595 171.922C198.45 171.995 198.304 171.995 198.159 172.067C203.388 184.71 206.148 198.224 206.22 211.884C206.438 211.812 206.656 211.812 206.874 211.739C206.947 211.666 206.947 211.666 207.019 211.666C207.382 211.594 207.818 211.521 208.181 211.448C208.689 211.376 208.907 212.102 208.399 212.175C207.673 212.32 206.947 212.466 206.22 212.611C206.22 212.684 206.22 212.756 206.22 212.829C206.22 213.337 205.421 213.337 205.421 212.829V212.756C192.349 215.299 178.986 215.59 165.696 215.663C159.45 215.735 153.204 215.517 147.031 214.718C145.942 214.355 144.853 213.846 143.836 213.483C142.165 212.902 140.422 212.611 138.679 212.102C135.266 211.012 131.925 209.632 128.585 208.397C124.518 206.871 120.378 205.49 116.311 204.037C106.652 199.823 97.7189 194.156 89.0765 188.052C77.5292 179.914 66.2724 171.413 54.9429 163.058C48.6972 158.48 42.5243 153.902 36.2786 149.325C29.0161 145.256 19.7203 146.128 11.6589 144.893C9.2623 144.529 6.86554 144.021 4.61418 143.076C3.01643 142.422 0.98288 141.623 0.184006 140.025C-0.614868 137.99 1.34593 137.191 3.0163 136.61Z" fill="#E0785E"/>
<path d="M112.026 186.672C123.501 186.599 134.757 183.475 144.707 177.807C145.869 178.316 146.959 178.825 148.121 179.406C148.919 179.406 149.718 179.333 150.444 179.333C149.137 190.014 141.076 199.678 132.797 206.144C131.635 207.016 130.473 207.888 129.238 208.615C129.093 208.542 128.948 208.469 128.802 208.469C124.735 206.944 120.596 205.563 116.529 204.11C106.87 199.896 97.9369 194.228 89.2946 188.125C88.5683 187.616 87.8422 187.108 87.1885 186.599C95.3225 185.727 103.819 186.744 112.026 186.672Z" fill="#2B244A"/>
<path d="M10.7872 221.403C16.0888 217.116 21.6084 213.047 27.2731 209.196C30.0328 207.38 31.7757 205.927 34.7533 204.473C36.2058 203.747 38.2393 203.165 40.2001 202.802C59.2278 199.169 78.6912 203.456 97.8641 201.349C108.032 200.259 117.328 196.771 126.043 191.467C134.975 186.091 166.64 165.673 173.612 161.096C174.846 167.054 174.919 170.905 177.025 176.572C180.874 187.108 186.394 196.699 192.131 206.217C176.517 215.009 160.467 223.147 143.037 227.434C131.998 230.122 120.741 230.994 109.484 230.267C97.5736 229.541 85.8086 227.288 74.116 225.181C61.0436 222.783 47.9709 220.458 34.6806 220.095C30.6862 221.258 26.7646 222.42 22.7702 223.583C22.6976 223.583 22.6248 223.583 22.6248 223.583C21.3176 223.946 20.0831 224.382 18.7759 224.745C16.3066 225.472 13.111 226.126 10.6418 224.89C8.3904 223.873 9.26204 222.638 10.7872 221.403Z" fill="#E0785E"/>
<path d="M190.17 207.307C185.232 210.286 180.148 213.047 174.919 215.372C174.556 215.517 174.266 215.009 174.629 214.863C179.858 212.465 184.941 209.777 189.88 206.798C190.243 206.58 190.533 207.089 190.17 207.307Z" fill="#2B244A"/>
<path d="M198.594 141.114C212.248 137.264 236.577 140.606 238.683 141.114C238.683 141.114 242.242 140.969 245.437 141.114C245.728 154.847 251.61 168.071 261.56 177.517C262.068 177.88 261.923 178.316 261.487 178.824C256.113 186.526 243.985 197.643 236.141 202.511C223.069 210.649 209.488 216.898 194.092 216.171C193.656 216.171 193.511 215.88 193.22 215.59C191.259 213.192 189.807 210.431 188.5 207.67C187.846 208.033 186.175 209.196 186.03 209.051C175.935 199.605 170.779 191.031 167.802 181.44C166.131 175.845 162.791 164.365 161.629 158.48C161.483 157.099 179.494 146.419 198.594 141.114Z" fill="#2B244A"/>
<path d="M278.627 113.867C283.493 111.252 288.141 108.127 292.861 105.294C294.532 106.02 304.627 112.196 308.113 114.521C311.962 117.137 309.202 120.407 312.76 123.386C314.213 124.621 310.073 129.271 311.453 130.506C308.984 132.032 308.258 135.883 307.532 135.665C306.66 135.447 270.348 122.078 270.348 122.078C270.348 122.078 268.169 120.915 265.409 119.317C269.912 117.936 274.342 116.193 278.627 113.867Z" fill="#F5E3D9"/>
<path d="M161.556 81.7522C162.573 81.3889 164.025 81.7522 164.969 81.8249C165.405 81.8976 165.768 81.8976 166.204 81.9702C165.332 81.0257 164.606 80.0084 163.88 78.9912C163.081 77.756 164.025 75.2856 166.567 76.1575C168.964 76.9568 169.762 77.3927 171.868 78.5553C174.483 80.0811 177.025 81.6069 179.639 83.1328C179.494 82.3335 179.494 81.6069 179.712 80.8077C180.293 78.7006 181.963 79.1365 183.343 80.2264C187.991 83.7867 192.421 87.7103 196.706 91.7792C220.672 96.7927 244.711 101.879 268.677 106.892C275.286 108.273 281.968 109.653 288.576 111.106C288.649 111.179 288.722 111.252 288.722 111.252C291.554 114.521 292.643 123.749 288.794 127.963C285.962 131.015 282.185 133.049 278.336 134.503C274.051 136.174 276.23 132.613 269.767 133.703C237.521 121.351 204.913 118.3 184.796 102.387C182.181 100.353 179.93 97.8825 177.897 95.4121C173.466 94.1769 170.416 93.0871 166.349 91.4886C165.26 91.0526 163.517 89.9627 163.153 89.2361C162.645 88.2916 162.645 87.565 163.226 86.7657C162.282 86.1845 161.411 85.5305 160.83 84.7313C160.031 83.4961 160.103 82.1882 161.556 81.7522Z" fill="#E0785E"/>
<path d="M262.722 134.502C262.722 134.502 257.058 132.032 254.08 130.361C257.566 126.946 262.141 121.787 265.482 118.154C268.968 114.303 274.342 109.217 278.046 105.003C281.75 106.238 289.158 110.162 289.158 110.162C294.75 110.888 300.342 111.324 304.336 112.632C311.962 115.175 317.409 121.787 318.062 122.296C319.442 123.386 321.04 125.783 322.274 131.015C324.235 139.08 321.403 147.218 316.9 153.975C313.051 159.715 307.677 164.293 302.085 168.362C299.325 170.396 296.42 172.212 293.588 174.174C291.264 175.773 285.018 178.606 285.018 178.606C286.035 171.776 280.443 164.147 277.32 160.151C272.817 154.338 271.873 153.321 266.862 148.526C263.594 145.401 259.019 141.187 256.404 137.481C255.968 136.682 262.722 134.502 262.722 134.502Z" fill="#F5E3D9"/>
<path d="M316.61 135.156C316.61 135.592 316.683 136.101 316.683 136.61C317.046 139.807 318.353 143.803 321.475 144.893C322.855 140.897 323.291 136.61 322.565 132.395C322.492 131.959 322.42 131.451 322.274 131.015C322.202 130.724 322.129 130.434 322.057 130.143C321.476 127.963 320.822 126.292 320.241 125.057C320.168 124.912 320.096 124.766 320.023 124.621L319.951 124.548C319.878 124.403 319.805 124.258 319.66 124.112C319.587 123.967 319.515 123.822 319.369 123.676C319.297 123.531 319.224 123.458 319.079 123.313C319.079 123.24 319.006 123.24 319.006 123.168C318.861 123.022 318.716 122.804 318.57 122.659C318.498 122.586 318.425 122.514 318.28 122.441C317.699 126.728 316.537 130.87 316.61 135.156Z" fill="#E0785E"/>
<path d="M228.952 182.167C216.533 191.83 203.315 200.768 189.517 208.251C189.154 208.397 188.863 207.961 189.226 207.743C203.025 200.259 216.17 191.395 228.589 181.731C228.806 181.586 229.242 181.949 228.952 182.167Z" fill="#8D84B8"/>
<path d="M193.947 205.563C180.729 191.104 173.031 171.777 170.489 152.522C170.416 152.159 170.998 152.159 171.07 152.522C173.612 171.632 181.237 190.813 194.382 205.127C194.6 205.418 194.237 205.781 193.947 205.563Z" fill="#8D84B8"/>
<path d="M205.639 215.517C202.08 211.957 199.248 208.179 197.142 203.601C196.997 203.238 197.505 202.947 197.65 203.311C199.756 207.815 202.516 211.594 206.075 215.154C206.365 215.372 205.93 215.808 205.639 215.517Z" fill="#8D84B8"/>
<path d="M185.595 92.0698C182.908 89.5268 180.802 86.4751 179.277 83.0601C179.131 82.6968 179.64 82.4062 179.785 82.7695C181.31 86.1118 183.343 89.0908 186.031 91.6339C186.248 91.9245 185.886 92.2878 185.595 92.0698Z" fill="#2B244A"/>
<path d="M177.243 88.7275C173.176 86.911 169.181 84.7313 165.768 81.9702C165.478 81.7522 165.913 81.3163 166.204 81.5343C169.617 84.2953 173.612 86.4024 177.606 88.2189C177.897 88.3642 177.606 88.8728 177.243 88.7275Z" fill="#2B244A"/>
<path d="M177.025 92.1425C172.304 90.8346 167.729 89.0908 163.299 86.9837C162.936 86.8384 163.226 86.3297 163.589 86.4751C167.947 88.5822 172.45 90.326 177.17 91.5612C177.534 91.6338 177.388 92.2151 177.025 92.1425Z" fill="#2B244A"/>
<path d="M177.679 88.437C177.461 91.1981 177.969 93.9591 179.494 96.2842C179.712 96.5748 179.204 96.8655 178.986 96.5748C177.461 94.1771 176.88 91.2707 177.098 88.437C177.17 88.0737 177.751 88.0737 177.679 88.437Z" fill="#2B244A"/>
<path d="M233.236 69.9089C231.784 68.7464 230.331 67.5838 228.952 66.3486C228.661 66.1307 229.097 65.6947 229.387 65.9127C230.767 67.1479 232.147 68.3104 233.672 69.473C233.963 69.6909 233.527 70.1269 233.236 69.9089Z" fill="#2B244A"/>
<path d="M227.572 71.9431C224.304 69.5454 221.254 66.857 218.349 64.096C218.058 63.8053 218.494 63.442 218.784 63.66C221.689 66.421 224.74 69.0368 227.935 71.4345C228.153 71.7251 227.863 72.2337 227.572 71.9431Z" fill="#2B244A"/>
<path d="M225.538 76.1575C222.924 73.9777 220.309 71.7979 217.767 69.6182C217.477 69.4002 217.913 68.9642 218.203 69.1822C220.818 71.362 223.432 73.5417 225.974 75.7215C226.264 76.0121 225.829 76.4481 225.538 76.1575Z" fill="#2B244A"/>
<path d="M330.045 130.288L321.475 138.935C321.475 138.935 319.297 132.831 318.28 124.04L321.548 120.334L330.045 130.288Z" fill="#E0785E"/>
<path d="M319.153 111.543C319.661 109.435 322.784 105.802 327.722 106.456C332.152 107.11 336.8 109.944 337.744 115.975C338.689 122.005 338.107 124.04 337.236 127.963C336.51 131.015 335.057 134.43 331.281 134.139C326.923 133.776 324.599 129.562 323.22 127.164C321.84 124.694 317.264 119.68 319.153 111.543Z" fill="#E0785E"/>
<path d="M272.962 97.5192C273.107 96.9379 273.325 96.4293 273.688 95.9207C274.269 95.1214 275.141 94.5402 276.085 94.1769C275.649 92.7964 275.867 91.4885 277.756 90.8346C280.08 90.0353 282.621 90.5439 284.655 91.7792C285.309 91.4885 286.107 91.3432 286.761 91.4159C289.884 91.7792 292.862 93.6683 295.258 95.6301C299.325 98.9724 302.012 103.259 305.208 107.255C306.733 109.145 308.621 110.525 311.09 110.598C313.85 110.743 316.029 109.145 318.425 108.055C322.638 106.093 327.649 105.439 331.716 107.691C334.475 108.999 336.799 111.397 337.671 115.175C336.799 114.957 335.855 114.449 335.129 114.158C334.548 113.94 333.967 113.722 333.386 113.504C331.062 113.068 330.408 117.5 329.319 118.736C328.811 119.317 328.157 119.753 327.431 119.971C327.358 120.843 327.358 121.715 327.358 122.587C327.358 122.805 327.286 122.877 327.14 122.95C327.14 123.022 327.14 123.022 327.068 123.022C322.638 127.673 314.358 130.216 308.839 127.164C302.52 123.676 301.794 120.843 295.621 116.556C292.281 114.231 287.705 112.124 283.929 110.816C281.024 109.799 276.884 105.875 274.996 103.477C273.906 102.024 272.817 100.135 272.89 98.2458C272.89 97.9552 272.89 97.7372 272.962 97.5192Z" fill="#2B244A"/>
<path d="M338.252 119.971C338.252 119.971 339.922 123.459 339.995 124.113C340.067 124.839 339.414 125.13 337.525 125.493C335.71 125.929 338.252 119.971 338.252 119.971Z" fill="#E0785E"/>
<path d="M324.743 119.026C323.945 121.061 324.889 123.313 326.922 124.185C328.956 124.984 331.207 124.04 332.079 122.005C332.877 119.971 331.933 117.719 329.9 116.847C327.866 115.975 325.615 116.992 324.743 119.026Z" fill="#E0785E"/>
<path d="M257.856 183.039C246.382 172.794 235.633 157.172 238.393 140.969C238.465 140.606 239.047 140.751 238.974 141.115C236.287 157.1 247.035 172.503 258.292 182.603C258.582 182.893 258.147 183.257 257.856 183.039Z" fill="#8D84B8"/>
<path d="M10.7873 221.403C16.0889 217.116 21.6085 213.047 27.2732 209.196C29.9603 207.38 31.7758 205.926 34.7534 204.473C36.2059 203.747 38.2394 203.165 40.2003 202.802C48.9152 201.131 57.7027 201.131 66.5629 201.422C62.9316 208.179 59.8816 215.154 57.3397 222.347C49.7868 221.185 42.1613 220.313 34.5357 220.168C30.5413 221.33 26.6193 222.493 22.6249 223.655C22.5523 223.655 22.4799 223.655 22.4799 223.655C21.1727 224.091 19.9378 224.454 18.6306 224.818C16.1613 225.544 12.9661 226.198 10.5695 224.963C8.39079 223.873 9.33477 222.638 10.7873 221.403Z" fill="#F5E3D9"/>
<path d="M3.01627 136.61C10.6419 133.776 18.2674 131.088 25.893 128.545C31.4125 126.728 37.0775 127.164 42.8875 130.506C49.4237 133.558 55.8872 136.537 62.4235 139.589C55.9599 144.384 49.6414 149.325 43.4684 154.556C41.1444 152.813 38.7476 151.069 36.4236 149.325C29.1611 145.256 19.8653 146.128 11.8039 144.893C9.40731 144.529 7.01091 144.021 4.75954 143.076C3.1618 142.422 1.12824 141.623 0.329369 140.025C-0.614754 137.99 1.3459 137.191 3.01627 136.61Z" fill="#F5E3D9"/>
<path d="M10.7872 221.403C16.0888 217.116 21.6084 213.047 27.2731 209.196C29.9602 207.38 31.7757 205.926 34.7533 204.473C36.2058 203.747 38.2393 203.165 40.2002 202.802C44.1945 202.076 48.1889 201.64 52.1832 201.422C47.8984 205.563 44.1219 210.213 40.9264 215.299C41.3622 215.808 41.7251 216.317 41.8704 216.607C42.6693 217.915 42.9598 218.932 42.9598 220.24C42.9598 220.386 42.9598 220.531 42.9598 220.676C40.1274 220.458 37.3679 220.24 34.5356 220.168C30.5412 221.33 26.6192 222.493 22.6248 223.655C22.5522 223.655 19.9377 224.455 18.6305 224.818C16.1612 225.544 12.966 226.198 10.5694 224.963C8.39069 223.873 9.33467 222.638 10.7872 221.403Z" fill="#C7513C"/>
<path d="M3.01627 136.61C10.6419 133.776 18.2675 131.088 25.893 128.545C31.4125 126.728 37.0775 127.164 42.8875 130.506C45.2841 131.596 47.6807 132.759 50.0773 133.849C44.703 136.246 39.7644 139.516 35.4069 143.44C36.7868 145.183 37.0773 147.436 36.4963 149.398L36.4236 149.325C29.1612 145.256 19.8653 146.128 11.8039 144.893C9.40731 144.529 7.01091 144.021 4.75955 143.076C3.16181 142.422 1.12825 141.623 0.329376 140.025C-0.614746 137.99 1.34591 137.191 3.01627 136.61Z" fill="#C7513C"/>
<path d="M262.722 134.503C264.392 134.503 266.063 134.575 267.661 134.648C268.677 134.721 273.035 134.648 271.873 137.046C270.783 139.153 266.862 138.354 265.191 137.845C263.012 137.191 260.979 136.537 258.8 135.883C260.543 135.229 262.577 134.575 262.722 134.503Z" fill="#2B244A"/>
<path d="M281.024 109.29C273.979 117.428 266.644 125.202 258.946 132.614C258.655 132.904 258.292 132.468 258.51 132.178C266.208 124.694 273.616 116.992 280.588 108.854C280.878 108.564 281.241 108.999 281.024 109.29Z" fill="#2B244A"/>
<path d="M296.129 107.764C294.677 108.854 293.297 109.944 291.845 110.961C291.554 111.179 291.264 110.67 291.554 110.452C293.079 109.508 294.459 108.345 295.839 107.255C296.129 106.965 296.42 107.473 296.129 107.764Z" fill="#2B244A"/>
<path d="M319.805 147.726C316.319 145.765 314.649 141.042 313.995 137.264C313.342 132.977 313.995 128.69 315.811 124.839C315.956 124.476 316.465 124.766 316.319 125.129C314.576 128.762 313.923 132.831 314.504 136.828C315.012 140.46 316.61 145.256 320.023 147.145C320.459 147.436 320.168 147.944 319.805 147.726Z" fill="#2B244A"/>
<path d="M325.615 129.78C326.777 127.963 330.408 130.361 331.498 131.088C332.369 131.669 333.604 132.541 334.185 133.485C333.458 133.994 332.514 134.212 331.352 134.067C329.9 133.921 328.738 133.413 327.721 132.686L322.928 137.482C324.816 133.631 324.816 131.088 325.615 129.78Z" fill="#2B244A"/>
<path d="M336.655 115.756C338.035 115.829 338.47 116.556 338.252 117.282C337.889 118.3 337.091 117.5 335.929 117.718C334.839 117.936 334.185 117.791 334.185 117.21C334.113 116.483 335.13 115.684 336.655 115.756Z" fill="#2B244A"/>
<path d="M336.945 118.445C336.074 118.372 336.001 119.608 336.146 120.116C336.219 120.479 336.364 120.843 336.8 120.915C337.38 120.988 337.526 120.189 337.526 119.753C337.526 119.317 337.526 118.445 336.945 118.445Z" fill="#2B244A"/>
<path d="M337.671 126.219C337.526 126.801 337.38 127.382 337.235 127.963C337.235 128.036 337.162 128.109 337.162 128.181C336.218 127.455 335.419 126.365 334.984 125.42C335.928 125.783 336.799 126.074 337.671 126.219Z" fill="white"/>
<path d="M35.189 143.658C32.5745 143.222 30.0325 142.786 27.418 142.35C24.2225 141.841 20.0103 141.333 18.703 145.256C18.5578 145.62 18.0496 145.474 18.1222 145.111C19.0663 142.423 21.6809 141.26 24.368 141.405C28.0718 141.623 31.7028 142.568 35.334 143.149C35.6971 143.149 35.5521 143.73 35.189 143.658Z" fill="#2B244A"/>
<path d="M39.1109 129.271C32.9378 130.289 26.8372 131.96 20.882 133.849C17.977 134.793 14.9994 135.811 12.0944 136.828C10.7145 137.336 9.33477 137.845 7.88228 138.354C6.21191 138.935 4.17828 139.444 3.37941 141.187C3.23416 141.551 2.726 141.26 2.87125 140.897C3.88799 138.79 6.42993 138.281 8.39079 137.554C11.7315 136.319 15.1448 135.157 18.4856 133.994C25.167 131.814 31.9211 129.853 38.8205 128.763C39.3288 128.617 39.474 129.199 39.1109 129.271Z" fill="#2B244A"/>
<path d="M11.8765 225.399C11.5134 222.929 13.4017 221.475 15.2173 220.095C18.0496 217.915 21.0273 215.881 24.0049 213.846C28.7982 210.504 33.3008 206.726 38.0214 203.238C38.3119 203.02 38.6023 203.529 38.3118 203.747C34.4627 206.58 30.8314 209.705 26.9823 212.466C24.6583 214.137 22.3346 215.735 20.0106 217.334C18.7033 218.278 17.3958 219.223 16.0886 220.168C14.4908 221.403 12.0942 222.783 12.4573 225.254C12.4573 225.617 11.8765 225.762 11.8765 225.399Z" fill="#2B244A"/>
<path d="M40.7812 215.663C37.8762 216.171 34.8988 216.607 31.9212 217.261C30.5413 217.552 29.1615 217.988 27.9269 218.714C26.4744 219.659 25.8931 220.967 25.53 222.565C25.4574 222.929 24.8765 222.783 24.9492 222.42C25.5302 219.732 26.9099 218.278 29.5244 217.261C32.9377 215.953 36.9322 215.663 40.5635 215.009C40.9992 215.009 41.1443 215.59 40.7812 215.663Z" fill="#2B244A"/>
<path d="M32.6477 220.313C32.7203 219.223 32.7928 218.133 32.938 217.043C32.938 216.68 33.5186 216.68 33.5186 217.043C33.446 218.133 33.3734 219.223 33.2283 220.313C33.1557 220.676 32.5751 220.676 32.6477 220.313Z" fill="#2B244A"/>
<path d="M30.6864 218.06C30.5412 219.15 30.3236 220.24 30.1784 221.33C30.1059 221.693 29.5249 221.548 29.5975 221.185C29.7427 220.095 29.9606 219.005 30.1058 217.915C30.1784 217.552 30.759 217.697 30.6864 218.06Z" fill="#2B244A"/>
<path d="M29.8874 142.713C29.5245 143.875 29.1615 145.111 28.7986 146.273C28.6534 146.637 28.1454 146.491 28.218 146.128C28.5809 144.965 28.9439 143.73 29.3068 142.568C29.3794 142.204 29.96 142.35 29.8874 142.713Z" fill="#2B244A"/>
<path d="M26.9101 142.204C26.5471 143.367 26.1842 144.602 25.8212 145.765C25.676 146.128 25.1677 145.983 25.2403 145.619C25.6032 144.457 25.9662 143.222 26.3291 142.059C26.4743 141.696 26.9827 141.841 26.9101 142.204Z" fill="#2B244A"/>
<path d="M328.448 119.171C327.213 118.881 326.777 120.334 326.995 121.279C327.068 121.642 326.559 121.787 326.414 121.424C326.196 120.697 326.269 119.825 326.705 119.244C327.14 118.663 327.867 118.445 328.52 118.59C328.956 118.663 328.811 119.244 328.448 119.171Z" fill="#2B244A"/>
<path d="M118.199 163.929C120.959 157.39 128.294 155.719 134.395 153.975C143.255 151.505 152.551 148.743 160.321 143.657C164.098 141.187 167.802 138.281 171.361 135.52C175.064 132.613 178.55 131.015 183.053 130.215C185.232 129.852 187.483 129.707 189.517 130.433C198.958 133.776 190.897 144.965 186.975 149.325C181.165 155.719 172.377 158.552 164.171 160.369C156.327 162.113 148.048 163.348 141.076 167.562C135.702 170.832 130.618 176.063 123.791 174.901C118.417 174.029 116.166 168.797 118.199 163.929Z" fill="#FFBE63"/>
<path d="M63.0771 204.328C59.5911 205.926 52.9821 205.999 52.7642 200.768C52.5463 195.754 56.7586 195.972 60.0994 194.519C63.2949 193.138 70.412 187.253 72.0097 193.938C73.317 199.169 66.9262 202.584 63.0771 204.328Z" fill="#4FB096"/>
<path d="M260.906 200.695C263.884 196.771 272.236 188.706 277.102 194.591C283.711 202.584 268.096 213.991 260.906 214.5C258.292 214.718 256.549 212.974 256.476 210.431C256.403 206.943 258.873 203.31 260.906 200.695Z" fill="#FFBE63"/>
<path d="M92.4899 152.377C94.8865 150.124 97.7915 148.163 100.551 146.419C103.238 144.748 106.143 143.222 109.194 142.422C113.551 141.26 121.612 141.187 121.976 147.436C122.339 154.339 105.49 157.681 100.551 158.48C97.9368 158.916 93.9424 159.715 91.8363 157.608C90.0933 155.937 90.9647 153.83 92.4899 152.377Z" fill="#4FB096"/>
<path d="M132.651 142.495C134.467 141.768 137.735 141.55 137.953 144.312C138.171 147.436 131.417 149.688 129.746 147.145C128.294 145.038 130.981 143.222 132.651 142.495Z" fill="#4FB096"/>
</svg>
