<svg width="347" height="324" viewBox="0 0 347 324" fill="none" xmlns="http://www.w3.org/2000/svg">
<path d="M157.278 7.56709C112.219 15.3075 69.0713 35.5149 45.4694 74.7817C21.7952 114.169 22.5933 162.464 38.1767 205.717C54.0054 249.651 83.9274 288.715 127.996 303.84C172.769 319.207 222.001 308.842 261.208 282.265C299.806 256.101 323.045 213.991 328.919 167.64C335.097 118.899 328.766 65.7362 292.891 32.2786C257.492 -0.734338 204.922 -0.617397 157.278 7.56709Z" fill="#DB6C98"/>
<path opacity="0.4" d="M137.207 318.773C89.8409 310.641 44.5635 289.426 19.809 248.268C-5.02594 206.977 -4.20544 156.316 12.1685 110.898C28.8036 64.7556 60.2273 23.7919 106.45 7.93774C153.429 -8.17578 205.113 2.68512 246.294 30.5829C286.809 58.0288 311.214 102.209 317.384 150.862C323.881 202.088 317.204 257.833 279.593 292.887C242.491 327.465 187.343 327.38 137.207 318.773Z" stroke="white" stroke-width="0.857863"/>
<path d="M230.381 206.007C230.048 201.447 224.966 196.412 222.211 193.942C216.748 189.002 210.289 184.918 206.251 178.6C205.159 176.89 204.304 174.99 203.021 173.423C201.026 171.048 197.701 170.43 195.659 173.185C193.094 176.7 194.519 181.64 196.656 185.013C200.171 190.522 205.586 194.275 210.858 197.932C215.181 200.925 218.743 203.537 222.021 207.717C223.541 209.665 227.721 212.324 229.573 209.38C230.238 208.335 230.476 207.195 230.381 206.007Z" fill="#587EE0"/>
<path d="M202.119 115.617C203.544 113.954 203.781 111.722 203.259 109.584C202.166 105.499 198.841 101.509 195.041 99.7519C194.139 98.6594 193.141 97.6619 192.096 96.7119C191.336 96.0469 190.529 95.4295 189.721 94.812C187.489 93.2445 185.067 91.962 182.502 91.107C179.937 90.2521 177.277 89.8246 174.617 89.3021C173.002 88.9696 171.387 88.6371 169.867 88.1146C168.252 84.2672 164.784 80.7997 161.079 79.5173C159.892 76.7623 158.752 73.9124 156.33 72.1549C154.43 70.73 151.96 70.1125 149.917 71.5374C149.395 71.4424 148.872 71.4899 148.35 71.6799C148.16 71.5374 147.97 71.4424 147.78 71.3474C147.827 71.2049 147.922 71.0149 147.97 70.8725C148.017 70.8725 148.112 70.8725 148.16 70.8725C148.445 70.8725 148.445 70.3975 148.112 70.35C145.5 70.2075 142.65 70.5875 140.845 72.7249C139.99 73.7224 139.562 74.9574 138.945 76.1448C138.137 77.7123 137.045 78.6148 135.525 79.2798C133.388 80.1823 131.06 80.7523 129.968 83.1272C129.018 85.1697 129.398 87.5446 130.68 89.2546C130.538 89.3021 130.443 89.3971 130.3 89.4446C130.015 89.5871 130.158 90.0621 130.443 89.9196C130.633 89.8246 130.775 89.7296 130.965 89.6346L131.013 89.6821C131.203 89.8721 131.44 89.6346 131.393 89.3971C132.39 88.8746 133.388 88.2571 134.338 87.5921C133.863 88.8746 133.72 90.2996 133.91 91.677C132.913 92.152 132.058 93.1495 131.82 94.3845C131.108 97.6619 133.53 100.322 135.573 102.412C141.415 108.349 147.305 114.239 153.242 120.034C155.19 121.934 157.422 124.784 160.13 125.781C162.457 130.056 165.402 134.141 169.962 135.661C172.812 136.611 176.327 136.089 178.607 133.951C179.509 133.096 180.269 132.194 181.552 132.716C182.597 133.096 183.357 134.094 184.259 134.759C185.209 135.471 186.491 135.946 187.631 136.184C190.196 136.801 192.999 136.326 195.231 134.854C195.659 134.569 196.039 134.284 196.371 133.951C196.894 133.476 197.416 132.906 197.844 132.336C198.271 131.766 198.889 131.814 199.506 131.766C200.076 131.766 200.599 131.671 201.121 131.529C202.309 131.196 203.449 130.531 204.019 129.391C206.679 124.261 204.114 118.656 202.119 115.617Z" fill="#C7513C"/>
<path d="M198.556 107.399C199.934 107.114 199.316 104.264 199.221 103.409C198.794 100.512 197.986 97.6617 197.131 94.8593C197.036 94.5268 196.561 94.7168 196.656 95.0018C196.989 95.9993 191.289 98.6592 189.341 99.0867C189.009 99.1817 198.224 107.447 198.556 107.399Z" fill="#2B244A"/>
<path d="M185.114 114.239C184.972 114.001 160.367 109.537 151.105 108.017C151.105 107.969 151.152 107.922 151.152 107.827C151.152 107.779 151.01 107.827 150.772 107.922C148.777 107.589 147.542 107.399 147.59 107.447C147.827 107.779 148.35 108.207 149.11 108.682C144.55 110.819 133.768 116.234 133.673 116.471C132.01 121.174 142.222 120.129 144.312 120.034C144.502 120.034 148.065 118.371 151.342 116.804C156.045 118.466 167.302 122.456 167.539 122.551L164.309 122.599C165.687 122.979 170.532 122.504 171.909 122.266C173.619 121.981 175.234 121.554 176.849 120.984C179.034 120.224 181.219 119.226 183.262 118.134C184.734 117.421 186.302 115.901 185.114 114.239Z" fill="#2B244A"/>
<path d="M232.946 250.181C232.803 245.621 233.136 243.056 231.236 239.921C229.953 237.831 222.591 229.044 220.311 226.574C214.563 220.304 207.771 215.174 201.739 209.285C195.374 203.062 190.434 195.89 186.871 187.72C183.404 179.74 181.077 171.333 179.082 162.925C178.749 161.595 178.464 160.266 178.132 158.983C177.277 159.078 176.422 159.173 175.519 159.268C167.919 159.981 160.177 159.221 152.862 161.643C153.907 165.918 155.665 172.948 155.997 173.898C157.755 179.36 160.035 184.633 162.647 189.762C169.629 203.347 179.367 216.647 191.859 225.719C198.794 230.754 206.441 234.744 213.043 240.254C216.606 243.199 219.598 246.619 222.306 250.371C224.918 254.076 227.246 257.971 229.811 261.723C230.476 262.721 231.568 264.003 232.898 263.956C234.276 263.908 234.371 262.436 234.371 261.391C234.276 257.544 233.801 253.791 232.946 250.181Z" fill="#FFA67D"/>
<path d="M193.759 244.386C192.286 241.394 190.814 238.402 189.389 235.409C189.436 235.362 189.484 235.362 189.436 235.267C188.344 230.327 186.444 227.999 183.499 225.814C179.842 223.154 175.092 221.207 170.959 219.544C160.842 215.507 150.107 212.847 140.655 207.29C136.95 205.105 134.433 203.537 135.193 198.835C137.092 186.533 145.405 177.175 151.2 166.583C152.102 164.921 152.957 163.211 153.67 161.453C151.247 161.453 148.825 161.311 146.402 160.931C143.6 160.503 140.94 159.696 138.28 158.793C133.15 158.698 127.735 158.746 125.17 159.458C122.083 164.873 119.138 170.335 116.668 176.035C114.198 181.735 112.155 187.625 111.063 193.705C110.018 199.452 109.401 206.245 111.918 211.66C115.243 218.832 122.985 222.632 130.015 225.244C134.623 226.954 139.372 228.427 144.075 229.757C154.192 232.654 164.499 234.839 174.902 236.359C177.182 238.497 179.509 240.587 181.837 242.629C183.642 244.196 185.494 245.764 187.346 247.284C188.724 248.424 190.244 249.991 192.096 250.324C193.236 250.514 194.329 249.991 194.709 248.851C195.231 247.331 194.376 245.716 193.759 244.386Z" fill="#FFA67D"/>
<path d="M169.154 115.189C169.392 115.142 169.487 114.809 169.249 114.714C169.202 114.714 169.154 114.667 169.107 114.667C169.059 114.477 168.822 114.429 168.727 114.524C159.465 111.294 149.537 110.439 139.847 112.007C139.752 111.959 139.657 112.007 139.61 112.054C139.325 112.102 139.325 112.529 139.562 112.577C140.512 116.092 141.7 119.559 143.03 122.931C142.745 122.979 142.792 123.406 143.077 123.454C143.125 123.454 143.172 123.454 143.22 123.454C143.362 123.786 143.457 124.119 143.6 124.404C143.742 124.689 144.217 124.546 144.075 124.261C143.98 124.024 143.885 123.739 143.79 123.501C152.53 123.929 161.222 125.164 169.724 127.301C169.724 127.729 169.772 128.156 169.772 128.584C169.772 128.916 170.294 128.869 170.294 128.536C170.152 124.024 169.772 119.607 169.154 115.189Z" fill="#FFA67D"/>
<path d="M248.43 63.2724C248.905 62.5124 249.618 61.4674 248.668 60.8025C248.525 60.7075 248.383 60.66 248.24 60.6125C248.383 60.185 248.383 59.71 247.955 59.33C246.863 58.2375 244.963 59.995 244.108 60.5175C240.023 63.0824 235.843 65.4574 231.521 67.6423C222.923 72.0122 213.946 75.6222 204.731 78.4246C199.411 80.0396 193.996 81.3695 188.534 82.4145C188.296 82.462 188.249 82.7945 188.391 82.8895C188.961 88.7319 190.244 94.5268 192.239 100.037C192.334 100.322 192.809 100.179 192.714 99.8942V99.8467C207.296 94.8118 221.261 88.0669 234.276 79.8496C237.695 77.6646 241.02 75.4322 244.298 73.0572C245.01 72.6297 245.675 72.1547 246.34 71.6322C246.863 71.2523 247.86 70.6348 248.05 69.9698C248.335 69.0198 247.053 68.9248 245.96 68.9723C247.053 67.7373 249.808 64.5549 248.43 63.2724Z" fill="#FFA67D"/>
<path d="M121.608 99.1344C120.325 96.2369 119.328 93.292 118.615 90.2046C118.378 89.1596 118.045 88.0196 117.855 86.8796C107.548 86.4521 97.3833 83.8872 88.121 79.3748C85.271 77.8548 82.5161 76.0973 79.9986 74.0549C79.0962 73.3424 78.2412 72.6299 77.4337 71.8224C76.8162 71.2524 76.1987 70.3975 75.3912 70.16C74.9637 70.0175 74.5362 70.16 74.2038 70.3975C73.8713 70.065 73.4913 69.78 73.0163 69.8275C71.8288 70.0175 72.2088 71.2524 72.5413 72.1549C72.2088 71.8699 71.7813 71.4899 71.3063 71.4899C71.1638 71.4899 70.9263 71.5374 70.7363 71.7749C70.4038 72.1074 70.4038 72.6774 70.4988 73.1524C70.8788 74.4824 73.2538 77.6648 73.9188 78.7098C72.0663 78.0448 69.7389 77.2848 70.0238 78.9948C70.1663 79.8023 71.4013 81.0372 73.3963 82.3197C75.0112 83.3647 76.7687 84.3622 78.5737 84.9797C81.7086 88.1621 92.0159 97.5669 112.773 104.454C116.05 105.547 123.793 107.209 127.26 107.542C125.455 104.882 122.938 102.032 121.608 99.1344Z" fill="#FFA67D"/>
<path d="M181.552 161.073C181.599 160.028 180.934 158.888 180.459 157.606C179.842 155.896 179.462 154.138 179.224 152.333C178.844 148.961 178.939 145.541 178.512 142.168C177.894 136.896 175.519 132.241 171.244 129.154C170.912 127.539 171.102 125.781 170.342 124.261C169.629 122.884 167.824 121.981 166.399 121.506C158.752 119.131 151.295 117.849 143.505 119.844C143.457 119.844 142.365 120.271 142.365 120.271C141.937 120.651 141.795 120.984 141.7 121.649C141.367 123.454 141.462 123.311 141.272 125.116C141.272 125.116 133.388 139.651 129.54 145.873L126.358 151.051C125.36 152.666 124.22 154.281 123.413 155.991C122.843 157.273 123.175 159.838 124.695 159.791C137.235 159.648 137.092 163.353 144.455 165.158C148.682 166.203 150.06 164.873 150.867 165.158C155.522 167.01 160.652 167.533 165.639 166.963C168.917 166.583 172.147 165.823 175.282 164.73C176.944 164.16 178.654 163.828 180.174 162.925C181.124 162.403 181.504 161.785 181.552 161.073Z" fill="#FFB64F"/>
<path d="M162.22 125.591C162.172 128.631 162.979 131.624 164.404 134.284C165.544 136.421 167.349 139.651 169.962 140.031C170.199 140.079 170.294 139.699 170.057 139.651C167.444 139.224 165.592 135.851 164.499 133.666C163.217 131.149 162.504 128.346 162.552 125.544C162.599 125.354 162.22 125.354 162.22 125.591Z" fill="#2B244A"/>
<path d="M198.936 107.162C193.996 99.7992 191.004 91.2969 190.291 82.4621C190.576 82.3671 190.529 81.8921 190.244 81.9871C171.862 85.6445 153.052 87.3545 134.338 87.0695C128.923 86.9745 123.508 87.212 118.093 86.7845C118.093 86.7845 117.57 86.642 117.618 86.9745C118.188 95.8093 120.563 103.077 125.265 110.582C125.36 110.819 125.645 111.247 125.693 111.294C126.31 112.244 127.355 111.769 128.21 111.484C129.588 111.057 131.013 110.629 132.39 110.202C132.723 112.861 133.15 115.569 133.673 118.229C133.72 118.561 134.243 118.134 134.243 118.134C141.652 112.956 151.01 114.524 159.37 115.759C163.644 116.424 167.967 116.994 172.289 116.614C176.707 116.234 181.029 114.524 185.446 115.284H185.494H185.541C185.874 115.331 185.589 114.666 185.399 114.286C184.307 112.339 183.499 110.867 182.359 108.919C187.726 108.919 193.046 108.444 198.319 107.494C198.319 107.494 199.126 107.447 198.936 107.162Z" fill="#F5E3D9"/>
<path d="M144.075 83.1271L145.452 87.1645C145.452 87.1645 148.635 88.9695 154.145 86.5945L152.15 80.5146L144.075 83.1271Z" fill="#FFA67D"/>
<path d="M156.092 76.0496C156.615 74.7197 156.33 71.5847 153.432 70.1123C150.82 68.7348 147.305 68.5448 144.502 71.3472C141.7 74.1972 141.225 75.4797 140.227 77.9496C139.42 79.8496 138.945 82.082 141.13 83.3645C143.6 84.7895 146.925 84.3145 148.587 83.507C150.25 82.6995 154.05 81.0845 156.092 76.0496Z" fill="#FFA67D"/>
<path d="M144.455 84.2198L144.835 85.3122C145.737 85.1223 146.497 84.6473 147.02 83.9348C147.115 83.8398 146.972 83.6973 146.877 83.7448C146.117 84.0773 145.31 84.2673 144.455 84.2198Z" fill="#2B244A"/>
<path d="M142.697 73.2947C142.697 73.2947 140.465 74.4821 140.18 74.8621C139.895 75.1946 140.132 75.6221 140.94 76.5246C141.795 77.4271 142.697 73.2947 142.697 73.2947Z" fill="#FFA67D"/>
<path d="M143.695 87.0221C144.407 90.7745 148.112 93.102 151.865 92.627C155.665 92.152 158.467 89.4445 160.177 86.1671C154.715 86.5946 149.205 86.8796 143.695 87.0221Z" fill="#FFA67D"/>
<path d="M131.108 105.452C131.44 107.114 131.82 108.777 132.153 110.487C132.2 110.724 132.58 110.629 132.533 110.392C132.2 108.729 131.82 107.067 131.488 105.357C131.44 105.119 131.06 105.214 131.108 105.452Z" fill="#2B244A"/>
<path d="M176.612 164.161C176.279 157.891 171.672 153.046 170.627 146.966C169.487 140.601 171.957 133.761 168.869 127.776C168.774 127.539 168.442 127.729 168.537 127.966C171.624 133.904 169.154 140.744 170.247 147.108C171.292 153.141 175.899 157.986 176.232 164.208C176.232 164.398 176.612 164.398 176.612 164.161Z" fill="#2B244A"/>
<path d="M150.725 165.158C149.917 165.015 148.492 166.155 144.455 165.158C143.125 164.825 141.985 164.445 141.035 164.018C141.035 163.97 141.035 163.97 141.035 163.923C142.602 159.126 143.362 154.186 142.555 146.396C141.7 138.558 144.122 134.759 144.122 134.759C144.17 137.656 144.55 140.506 145.31 143.261C145.69 144.686 146.165 146.111 146.402 147.583C146.687 149.246 146.687 151.003 146.687 152.666C146.687 155.278 146.687 158.271 146.687 161.026C146.687 161.738 147.257 163.21 150.725 165.158Z" fill="#2B244A"/>
<path d="M141.462 125.259C146.402 122.931 151.77 123.691 156.947 124.641C161.84 125.544 166.779 126.636 171.102 129.201C171.292 129.344 171.482 129.011 171.292 128.869C166.684 126.114 161.365 125.069 156.14 124.119C151.152 123.216 146.022 122.694 141.32 124.926C141.082 125.069 141.272 125.354 141.462 125.259Z" fill="#2B244A"/>
<path d="M179.937 104.882C180.744 106.117 181.457 107.399 182.122 108.729C182.217 108.967 182.549 108.777 182.454 108.539C181.789 107.209 181.029 105.927 180.269 104.692C180.127 104.502 179.794 104.692 179.937 104.882Z" fill="#2B244A"/>
<path d="M141.035 87.402C142.935 91.9144 147.59 94.7169 152.482 94.0994C157.137 93.5294 160.415 90.1095 162.695 86.2145C162.837 86.0245 162.505 85.787 162.362 86.0245C160.225 89.682 157.232 92.9119 152.862 93.6244C147.97 94.4319 143.267 91.6769 141.367 87.1645C141.272 87.022 140.94 87.212 141.035 87.402Z" fill="#2B244A"/>
<path d="M154.335 72.0125C155.57 72.915 157.28 72.725 158.562 72.06C159.56 71.585 160.415 70.5875 159.987 69.4C159.18 67.4051 156.71 67.8801 155.237 68.6875C154.572 69.0675 153.67 69.495 153.527 70.35C153.432 71.0625 153.812 71.6325 154.335 72.0125Z" fill="#C7513C"/>
<path d="M155.95 82.6523L156.235 82.0348C157.612 80.8948 156.092 77.8549 157.09 75.4324C157.612 74.1025 156.33 71.5375 153.432 70.0651C150.867 68.7351 146.022 68.2601 144.597 71.205C145.595 71.395 146.355 71.395 147.162 71.205C146.782 73.1525 146.782 75.1949 147.257 77.1424C147.257 77.1899 147.257 77.1899 147.257 77.2374C147.59 77.5224 147.97 77.7599 148.397 77.9024C148.587 77.9499 148.825 77.9974 149.015 78.0449C148.112 80.9898 148.065 84.2198 151.105 85.9297C153.765 87.4022 157.185 86.4522 159.94 84.7898C158.515 84.3148 157.185 83.5548 155.95 82.6523Z" fill="#C7513C"/>
<path d="M153.622 70.3975C154.715 71.0625 155.76 71.87 156.662 72.725C156.852 72.915 157.09 72.63 156.947 72.44C155.997 71.5375 154.952 70.73 153.812 70.0175C153.622 69.9225 153.432 70.255 153.622 70.3975Z" fill="#2B244A"/>
<path d="M144.787 77.9022C144.882 79.3272 146.117 80.4196 147.542 80.3246C148.967 80.2296 150.06 78.9947 149.965 77.5697C149.87 76.1447 148.635 75.0522 147.21 75.1472C145.737 75.2422 144.692 76.4772 144.787 77.9022Z" fill="#FFA67D"/>
<path d="M193.759 244.386C192.286 241.394 190.814 238.401 189.389 235.409C189.436 235.361 189.484 235.361 189.436 235.266C188.344 230.327 186.492 227.999 183.499 225.814C179.889 223.154 175.139 221.207 170.959 219.544C169.914 219.117 168.632 218.642 167.112 218.072C166.969 223.677 166.637 229.282 166.162 234.886C169.107 235.409 172.004 235.931 174.949 236.359C177.229 238.496 179.557 240.586 181.884 242.676C183.689 244.244 185.542 245.811 187.394 247.331C188.771 248.471 190.291 250.039 192.144 250.371C193.284 250.561 194.376 250.039 194.756 248.899C195.231 247.331 194.376 245.716 193.759 244.386Z" fill="#F5E3D9"/>
<path d="M232.946 250.181C232.851 245.669 233.136 243.057 231.236 239.922C229.953 237.832 222.591 229.044 220.311 226.574C219.503 225.719 218.696 224.864 217.841 224.009C216.083 229.044 213.613 233.842 210.479 238.164C211.333 238.829 212.188 239.494 212.996 240.159C216.558 243.104 219.551 246.524 222.258 250.276C224.871 253.981 227.198 257.876 229.763 261.629C230.428 262.626 231.521 263.909 232.851 263.861C234.228 263.814 234.323 262.341 234.323 261.296C234.276 257.544 233.801 253.791 232.946 250.181Z" fill="#F5E3D9"/>
<path d="M193.901 244.149C192.856 240.919 188.581 228.807 185.637 226.622C183.262 224.864 178.274 222.632 175.377 221.397C176.089 225.909 176.327 228.237 176.184 232.227C174.284 232.274 171.814 233.604 171.007 235.741C172.337 235.979 173.619 236.169 174.949 236.359C177.229 238.496 179.557 240.586 181.884 242.676C183.689 244.244 185.542 245.811 187.394 247.331C188.771 248.471 190.291 250.039 192.144 250.371C193.284 250.561 194.376 250.039 194.756 248.899C195.231 247.331 194.329 245.526 193.901 244.149Z" fill="#2B244A"/>
<path d="M231.996 240.444C231.141 239.161 227.198 234.554 224.348 231.182C224.253 232.084 224.206 232.939 224.063 233.842C223.826 235.884 223.398 239.304 222.353 244.196C221.261 243.626 219.123 243.579 218.031 245.004C219.551 246.666 220.976 248.471 222.306 250.324C224.918 254.029 227.246 257.924 229.811 261.676C230.476 262.674 231.568 263.956 232.898 263.908C234.276 263.861 234.371 262.389 234.371 261.344C234.276 257.544 233.611 242.914 231.996 240.444Z" fill="#2B244A"/>
<path d="M222.971 250.941C223.636 250.229 224.301 249.516 224.966 248.756C225.156 248.566 224.871 248.329 224.681 248.471C224.016 249.184 223.351 249.896 222.686 250.656C222.543 250.846 222.828 251.131 222.971 250.941Z" fill="#F5E3D9"/>
<path d="M224.016 252.936C224.776 252.319 225.441 251.606 226.011 250.894C226.153 250.704 225.916 250.419 225.726 250.609C225.108 251.369 224.443 252.034 223.731 252.651C223.541 252.841 223.826 253.079 224.016 252.936Z" fill="#F5E3D9"/>
<path d="M227.151 257.164C228.433 255.644 228.101 253.649 227.246 251.986C225.868 249.231 224.063 246.666 222.496 244.054C222.353 243.864 222.021 244.054 222.163 244.244C223.398 246.239 224.586 248.234 225.821 250.229C227.008 252.176 228.623 254.741 226.913 256.879C226.723 257.069 226.961 257.354 227.151 257.164Z" fill="#F5E3D9"/>
<path d="M182.834 243.199C184.022 241.489 183.309 239.447 182.169 237.927C180.554 235.742 178.464 233.842 176.422 232.084C176.232 231.942 175.947 232.179 176.137 232.369C177.704 233.699 179.224 235.172 180.602 236.692C182.122 238.402 184.069 240.729 182.502 243.057C182.359 243.199 182.692 243.389 182.834 243.199Z" fill="#F5E3D9"/>
<path d="M178.227 238.924C178.702 237.689 179.224 236.454 179.699 235.267C179.794 235.029 179.414 234.934 179.319 235.172C178.844 236.407 178.322 237.642 177.847 238.829C177.752 239.067 178.132 239.162 178.227 238.924Z" fill="#F5E3D9"/>
<path d="M179.794 240.397C180.317 239.257 180.839 238.069 181.267 236.834C181.362 236.597 180.982 236.502 180.887 236.739C180.459 237.927 179.984 239.067 179.462 240.207C179.319 240.444 179.652 240.634 179.794 240.397Z" fill="#F5E3D9"/>
<path d="M183.404 225.767C185.067 229.567 186.919 233.319 188.724 237.071C189.674 239.066 190.624 241.109 191.336 243.199C192.049 245.194 193.141 247.901 192.524 250.039C192.476 250.276 192.809 250.371 192.904 250.134C193.426 248.281 192.666 246.191 192.144 244.386C191.479 242.249 190.624 240.159 189.674 238.116C187.726 233.936 185.589 229.804 183.737 225.577C183.642 225.339 183.309 225.577 183.404 225.767Z" fill="#F5E3D9"/>
<path d="M230.048 238.496C230.856 242.154 231.283 245.906 231.711 249.611C231.948 251.749 232.186 253.934 232.233 256.119C232.281 258.303 232.518 261.248 231.331 263.148C231.188 263.338 231.521 263.528 231.663 263.338C232.756 261.676 232.661 259.301 232.661 257.354C232.661 254.931 232.471 252.509 232.186 250.134C231.758 246.191 231.283 242.296 230.476 238.401C230.381 238.116 230.001 238.259 230.048 238.496Z" fill="#F5E3D9"/>
<path d="M143.125 72.5824C143.03 73.2949 143.837 73.1049 144.55 73.6273C145.167 74.1023 145.69 74.2448 145.88 73.9123C146.117 73.4848 145.642 72.6774 144.645 72.2024C143.647 71.7749 143.172 72.0599 143.125 72.5824Z" fill="#C7513C"/>
<path d="M143.6 73.9124C144.122 74.1499 143.742 74.8624 143.505 75.1474C143.362 75.3374 143.125 75.4799 142.887 75.3849C142.555 75.2424 142.745 74.7199 142.84 74.4824C142.935 74.1974 143.22 73.7224 143.6 73.9124Z" fill="#2B244A"/>
<path d="M140.417 78.1397C140.94 78.2822 141.462 78.2347 141.985 78.1397C142.222 78.0922 142.127 77.7122 141.89 77.7597C141.415 77.9022 140.987 77.9022 140.512 77.7597C140.275 77.7122 140.18 78.0922 140.417 78.1397Z" fill="#2B244A"/>
<path d="M147.685 76.7149C148.35 77.1424 148.587 77.8549 148.017 78.5199C147.875 78.7099 148.112 78.9949 148.302 78.8049C149.015 77.9499 148.73 76.9999 147.875 76.3824C147.685 76.2399 147.495 76.5724 147.685 76.7149Z" fill="#2B244A"/>
<path d="M72.3513 72.5823C73.4438 74.0073 74.6312 75.2897 76.0562 76.4297C76.2462 76.5722 76.5312 76.3347 76.3412 76.1447C74.9637 75.0522 73.7763 73.7698 72.7313 72.3448C72.5413 72.2023 72.2088 72.3923 72.3513 72.5823Z" fill="#2B244A"/>
<path d="M74.2987 71.0625C75.3437 72.4875 76.5787 73.77 77.9087 74.9099C78.0987 75.0524 78.3836 74.8149 78.1937 74.6249C76.8637 73.485 75.6762 72.25 74.6312 70.825C74.4887 70.6825 74.1562 70.8725 74.2987 71.0625Z" fill="#2B244A"/>
<path d="M73.9662 78.9472C74.8212 79.2322 75.6762 79.5647 76.4837 79.8497C76.7212 79.9447 76.8162 79.5647 76.5787 79.4697C75.7237 79.1847 74.8687 78.8522 74.0612 78.5672C73.8237 78.4722 73.7287 78.8522 73.9662 78.9472Z" fill="#2B244A"/>
<path d="M240.83 70.1125C242.588 69.685 244.345 69.4475 246.15 69.3525C246.388 69.3525 246.388 68.9725 246.15 68.9725C244.298 69.0675 242.493 69.305 240.688 69.7325C240.498 69.8275 240.593 70.16 240.83 70.1125Z" fill="#2B244A"/>
<path d="M243.965 65.8376C245.628 64.4127 247.053 62.7502 248.193 60.8502C248.335 60.6602 248.003 60.4702 247.86 60.6602C246.72 62.5127 245.343 64.1277 243.68 65.5526C243.538 65.6951 243.775 65.9801 243.965 65.8376Z" fill="#2B244A"/>
<path d="M245.723 67.405C246.815 66.2175 247.765 64.8876 248.525 63.4151C248.62 63.1776 248.288 62.9876 248.193 63.2251C247.433 64.6501 246.53 65.9326 245.438 67.12C245.248 67.31 245.533 67.595 245.723 67.405Z" fill="#2B244A"/>
<path d="M188.581 130.199C188.581 130.294 188.629 130.341 188.629 130.436C189.721 136.279 206.536 155.991 212.948 145.161C217.081 138.131 202.309 129.154 196.704 126.066C191.526 123.216 187.774 124.974 188.581 130.199Z" fill="#587EE0"/>
<path d="M211.618 157.368C211.286 154.518 208.389 151.953 206.061 150.671C204.399 149.768 200.931 148.913 200.836 151.858C200.789 155.231 204.494 158.223 207.296 159.553C209.244 160.455 211.951 160.028 211.618 157.368Z" fill="#F576A6"/>
<path d="M232.993 192.992C232.043 190.712 229.051 186.96 226.533 186.39C225.536 186.152 224.301 186.485 223.826 187.435C223.161 188.67 223.921 190.047 224.776 190.997C226.011 192.375 227.531 193.515 229.003 194.655C229.858 195.32 230.951 196.365 232.138 195.795C233.136 195.32 233.421 193.99 232.993 192.992Z" fill="#587EE0"/>
<path d="M205.871 190.142C203.591 185.155 198.129 180.167 193.996 177.46C192.239 176.32 190.149 175.607 188.534 174.23C186.871 172.805 186.064 170.763 185.352 168.768C184.164 165.49 182.407 161.073 178.179 161.12C176.612 161.12 174.949 162.26 174.712 163.875C174.569 164.825 174.854 165.823 175.187 166.725C177.419 172.9 182.407 176.985 187.536 180.737C189.151 181.925 190.529 183.255 191.574 184.965C192.571 186.532 193.236 188.29 193.996 190C195.231 192.802 196.751 195.795 199.649 197.22C203.354 199.024 207.724 196.602 206.631 192.28C206.441 191.567 206.156 190.855 205.871 190.142Z" fill="#F576A6"/>
<path d="M167.729 250.704C166.589 248.281 164.689 246.049 162.932 244.006C161.175 241.964 159.18 240.064 156.9 238.592C154.335 236.977 151.675 237.024 148.967 235.979C145.785 234.744 143.647 231.799 140.607 230.374C139.657 229.947 138.612 229.662 137.567 229.852C134.528 230.469 135.335 233.889 135.905 236.027C137.235 241.109 140.037 244.481 145.167 246.239C148.35 247.284 151.722 247.854 154.62 249.564C157.47 251.179 158.895 254.266 161.602 256.024C163.217 257.021 165.639 257.496 167.254 256.214C168.964 254.789 168.584 252.509 167.729 250.704Z" fill="#587EE0"/>
<path d="M146.022 246.476C145.025 245.051 143.742 243.864 142.222 243.009C141.035 242.296 139.42 241.536 138.09 242.201C134.813 243.721 137.757 247.569 139.705 248.614C141.225 249.421 145.167 251.416 146.735 249.849C147.732 248.851 146.64 247.331 146.022 246.476Z" fill="#F576A6"/>
<path d="M142.887 196.602C142.175 193.8 132.295 183.065 132.058 189.952C131.963 192.945 135.478 195.89 137.473 197.695C139.467 199.405 144.217 201.78 142.887 196.602Z" fill="#587EE0"/>
</svg>
