<svg width="346" height="324" viewBox="0 0 346 324" fill="none" xmlns="http://www.w3.org/2000/svg">
<path d="M215.722 306.433C260.781 298.692 303.929 278.485 327.531 239.218C351.205 199.831 350.407 151.536 334.823 108.283C318.995 64.3492 289.073 25.285 245.004 10.1601C200.231 -5.207 150.999 5.15753 111.792 31.735C73.1938 57.8994 49.955 100.009 44.0805 146.36C37.9033 195.101 44.2335 248.264 80.1092 281.721C115.508 314.734 168.078 314.617 215.722 306.433Z" fill="#00B1AE"/>
<path opacity="0.4" d="M197.793 5.22709C245.159 13.3586 290.436 34.5741 315.191 75.7317C340.026 117.023 339.205 167.684 322.832 213.102C306.196 259.244 274.773 300.208 228.55 316.062C181.571 332.176 129.887 321.315 88.7056 293.417C48.1907 265.971 23.7857 221.791 17.6156 173.138C11.1191 121.912 17.7962 66.1667 55.4074 31.1133C92.5091 -3.46504 147.657 -3.37992 197.793 5.22709Z" stroke="white" stroke-width="0.857863"/>
<path d="M179.83 232.541C178.386 223.629 166.984 223.33 160.312 221.139C146.42 216.608 139.997 196.841 124.214 197.24C122.023 197.29 119.434 197.937 118.239 199.978C115.351 204.808 123.467 209.14 126.803 210.882C138.852 217.156 146.47 226.666 157.026 234.832C161.258 238.118 166.386 241.006 171.913 240.906C176.544 240.757 180.627 237.62 179.83 232.541Z" fill="#4FB096"/>
<path d="M100.563 161.042C98.2731 157.856 95.1363 155.267 92.0493 152.927C87.7673 149.64 75.2201 138.686 69.4942 143.367C63.2703 148.445 73.2284 159.847 77.61 162.934C80.3983 164.876 83.5351 166.021 86.871 166.669C90.207 167.266 93.294 168.362 96.0823 170.353C98.3726 171.996 101.211 173.739 102.704 169.855C103.8 166.818 102.356 163.432 100.563 161.042Z" fill="#FFBE63"/>
<path d="M179.432 88.1986C181.025 89.3437 182.668 90.3893 184.311 91.3852C185.755 90.1902 191.73 84.9124 193.024 83.5183C196.808 79.4852 199.398 75.9999 200.891 73.3112C202.036 71.2698 204.028 67.187 202.136 65.992C202.534 64.9962 203.182 63.7016 201.987 63.1041C201.788 63.0046 201.638 62.9548 201.439 62.9548C201.539 62.4071 201.439 61.9092 200.891 61.5109C199.447 60.4155 197.555 62.7556 196.609 63.5523C192.327 67.2368 187.846 70.7719 183.265 74.0581C179.432 76.7965 175.448 79.4354 171.415 81.8752C174.004 84.1655 176.743 86.2567 179.432 88.1986Z" fill="#FFA67D"/>
<path d="M197.456 69.7264C199.149 67.7348 200.493 65.5938 201.489 63.2038C201.588 62.9549 201.19 62.8055 201.041 63.0545C200.045 65.3946 198.701 67.5356 197.057 69.4774C196.908 69.7264 197.257 69.9753 197.456 69.7264Z" fill="#2B244A"/>
<path d="M199.746 71.3197C200.842 69.7264 201.688 68.0335 202.285 66.1913C202.385 65.9423 201.937 65.7929 201.837 66.0419C201.24 67.8343 200.393 69.4774 199.348 71.0707C199.198 71.2699 199.547 71.5188 199.746 71.3197Z" fill="#2B244A"/>
<path d="M282.149 191.464C280.705 189.622 277.967 189.124 275.826 188.776C272.689 188.278 259.345 187.481 257.105 187.481C253.52 187.481 250.781 188.377 247.744 190.17C246.45 190.917 244.01 192.61 242.516 193.655C248.192 195.896 255.412 195.697 259.445 200.078C260.192 199.829 260.988 199.58 261.835 199.381C268.059 197.838 274.78 197.838 280.705 195.199C282.349 194.502 283.593 193.307 282.149 191.464Z" fill="#C7513C"/>
<path d="M281.452 194.7C281.9 192.509 279.859 191.414 278.067 190.767C275.378 189.821 272.49 189.373 269.702 189.124C263.478 188.576 257.105 188.476 250.881 188.576C250.582 188.576 250.582 189.024 250.881 189.024C256.009 188.974 261.188 189.174 266.316 189.373C268.756 189.472 271.245 189.671 273.685 190.07C275.876 190.468 281.701 191.314 281.054 194.501C280.954 194.8 281.353 194.949 281.452 194.7Z" fill="#2B244A"/>
<path d="M316.455 215.314C316.206 212.974 314.115 211.082 312.372 209.837C309.733 207.994 307.294 206.6 304.456 205.057C302.962 204.26 301.617 203.364 300.422 202.169C299.277 201.024 298.282 199.679 297.037 198.584C291.709 193.904 284.141 196.194 277.718 195.497C278.266 196.344 278.813 197.14 279.261 197.937C280.357 199.879 281.303 201.92 282.349 203.862C283.295 205.654 284.141 207.497 284.788 209.339C284.938 209.339 285.137 209.339 285.286 209.339C288.672 209.289 291.859 209.787 295.045 210.882C301.12 212.974 306.746 216.608 313.169 217.654C315.011 217.953 316.704 217.654 316.455 215.314Z" fill="#F5E3D9"/>
<path d="M316.455 215.314C316.256 212.974 314.214 211.082 312.621 209.638C310.281 207.497 299.477 199.58 297.584 198.385C293.302 195.597 289.469 195.298 283.295 195.647C288.274 199.032 291.709 204.36 292.705 210.235C293.502 210.434 294.298 210.683 295.095 210.932C301.169 213.023 306.796 216.658 313.219 217.704C315.011 217.953 316.704 217.654 316.455 215.314Z" fill="#C7513C"/>
<path d="M295.394 207.298C295.593 208.542 295.792 209.787 295.941 211.082C295.991 211.38 296.389 211.281 296.389 210.982C296.24 209.737 296.041 208.443 295.842 207.198C295.742 206.899 295.344 206.999 295.394 207.298Z" fill="#2B244A"/>
<path d="M298.331 208.443C298.53 209.687 298.73 210.932 298.879 212.227C298.929 212.525 299.327 212.426 299.327 212.127C299.178 210.882 298.979 209.588 298.779 208.343C298.73 208.094 298.282 208.194 298.331 208.443Z" fill="#2B244A"/>
<path d="M45.1964 110.455C43.155 109.061 42.3086 108.364 40.3667 106.771C38.5743 105.078 36.8814 103.235 35.3877 101.244C34.591 100.148 33.7944 99.053 33.0973 97.9078C32.5496 97.0614 32.1513 96.0158 31.4044 95.2689C30.7572 94.6216 29.7613 94.3727 29.0145 94.8208C28.6161 94.1237 28.0187 92.5304 27.0727 92.3313C26.0271 92.1321 25.5789 93.1279 25.8777 94.1735C25.2802 93.7254 24.5333 93.6258 24.2844 94.5718C24.0852 95.2191 24.3342 96.2149 24.4338 96.8124C24.5831 97.9078 24.8321 99.0032 25.1308 100.049C25.6287 101.891 26.3756 103.683 27.3216 105.376C26.7241 104.978 26.0769 104.53 25.4296 104.132C24.7823 103.733 23.886 103.285 23.2886 104.032C22.0438 105.526 25.1806 108.364 25.9773 109.21C29.0643 112.596 32.7488 115.384 36.7818 117.426C39.2215 119.865 41.8106 122.206 44.4495 124.446C44.7981 120.114 44.3499 114.886 45.1964 110.455Z" fill="#FFA67D"/>
<path d="M25.7283 94.3723C26.7739 97.0112 27.9688 99.5505 29.3132 102.09C29.4625 102.339 29.8609 102.14 29.7115 101.891C28.3671 99.4011 27.1722 96.812 26.1266 94.1731C26.027 93.9242 25.6287 94.1233 25.7283 94.3723Z" fill="#2B244A"/>
<path d="M28.9149 95.1691C29.7613 97.2105 30.6077 99.3017 31.504 101.293C31.6036 101.542 32.0019 101.343 31.9023 101.094C31.0061 99.0527 30.1597 97.0113 29.3132 94.9699C29.2136 94.6712 28.8153 94.8703 28.9149 95.1691Z" fill="#2B244A"/>
<path d="M26.9731 105.227C27.8693 106.322 28.7655 107.418 29.6618 108.513C29.8609 108.712 30.1597 108.414 30.0103 108.214C29.1141 107.119 28.2178 106.024 27.3216 104.928C27.1225 104.729 26.8237 105.028 26.9731 105.227Z" fill="#2B244A"/>
<path d="M178.983 77.0457C157.325 88.0991 136.761 102.14 118.339 114.339C117.691 114.737 117.094 115.185 116.447 115.583C116.397 115.633 116.347 115.683 116.347 115.783C108.181 120.563 98.8705 124.247 89.5099 125.84C78.6058 124.247 52.9139 114.389 44.2504 109.758C43.2546 111.849 42.5077 113.841 41.8604 116.032C41.0638 118.72 40.4165 121.459 40.2173 124.396C41.1633 125.143 44.3997 127.633 46.3913 129.176C47.1382 131.616 48.134 134.006 49.578 136.097C52.416 140.23 56.8474 142.321 61.5775 143.665C64.1666 144.412 66.8552 144.96 69.4443 145.757C72.382 146.603 75.4192 147.4 78.0083 148.943C84.0828 152.578 90.6551 154.968 98.3726 155.117C103.85 161.789 109.625 169.258 117.492 172.843C119.434 173.739 124.015 173.49 124.015 173.49C124.015 173.49 127.45 174.535 129.293 174.934C129.591 174.984 130.637 174.087 130.338 173.988H130.288C136.462 167.814 142.885 161.938 149.557 156.362C149.707 156.461 150.155 156.412 150.155 156.213C150.254 153.872 149.159 151.931 148.313 149.59C147.317 146.902 146.022 144.462 145.126 141.724C144.13 138.736 142.786 135.948 141.043 133.409C149.657 129.375 162.901 123.251 167.233 118.023C170.469 114.09 169.175 111.999 171.814 107.717C173.307 105.327 175.15 103.385 177.54 101.891C179.631 100.597 182.07 99.7501 183.913 98.107C187.348 95.02 188.394 91.5845 189.24 87.9498C191.033 86.0079 191.929 84.8628 193.97 82.5724C188.344 79.0373 184.361 77.5933 178.983 77.0457Z" fill="#F5E3D9"/>
<path d="M94.8375 150.586C95.7337 152.229 96.8291 153.773 98.0241 155.167C98.2233 155.366 98.522 155.067 98.3727 154.868C97.1777 153.474 96.1321 151.98 95.2358 150.387C95.0865 150.138 94.6881 150.337 94.8375 150.586Z" fill="#2B244A"/>
<path d="M98.1735 128.529C99.7668 127.085 101.36 125.641 102.904 124.197C103.103 123.998 102.804 123.649 102.605 123.849C101.012 125.292 99.4183 126.736 97.8748 128.18C97.6756 128.379 97.9743 128.728 98.1735 128.529Z" fill="#2B244A"/>
<path d="M98.2731 123.201C98.1237 124.894 97.9743 126.637 97.825 128.33C97.7752 128.628 98.2233 128.628 98.2731 128.33C98.4225 126.637 98.5718 124.894 98.7212 123.201C98.771 122.952 98.3229 122.903 98.2731 123.201Z" fill="#2B244A"/>
<path d="M109.625 126.537C107.235 125.492 104.895 124.396 102.505 123.351C102.256 123.251 102.107 123.649 102.356 123.799C104.746 124.844 107.086 125.94 109.476 126.985C109.775 127.085 109.924 126.637 109.625 126.537Z" fill="#2B244A"/>
<path d="M107.285 122.106C107.982 123.699 108.679 125.243 109.376 126.836C109.476 127.085 109.874 126.886 109.775 126.637C109.078 125.044 108.38 123.5 107.683 121.907C107.584 121.658 107.186 121.857 107.285 122.106Z" fill="#2B244A"/>
<path d="M102.107 119.815C102.406 122.902 102.904 125.989 103.302 129.126C103.65 131.765 104.098 134.354 105.443 136.694C106.638 138.736 108.331 140.478 109.824 142.321C111.567 144.412 112.911 146.702 114.106 149.142C115.252 151.432 116.297 153.822 117.741 155.963C119.185 158.104 121.027 159.847 122.919 161.54C127.5 165.722 132.131 169.905 136.711 174.037C136.91 174.236 137.259 173.938 137.06 173.738C132.579 169.705 128.147 165.672 123.666 161.59C121.675 159.797 119.633 157.955 118.139 155.714C116.695 153.573 115.65 151.233 114.505 148.893C113.459 146.752 112.264 144.611 110.77 142.719C109.227 140.777 107.434 138.985 106.09 136.844C104.596 134.454 104.099 131.765 103.75 128.977C103.352 125.89 102.854 122.803 102.555 119.666C102.555 119.467 102.107 119.566 102.107 119.815Z" fill="#2B244A"/>
<path d="M278.017 195.497C267.561 195.497 257.055 195.398 246.748 193.556C238.035 191.962 229.67 189.025 222.351 183.946C215.58 179.266 209.804 173.341 203.032 168.61C199.647 166.221 193.572 163.034 187.498 160.843C182.519 159.051 171.117 155.665 153.69 155.864C153.69 155.864 151.4 154.171 149.508 152.777C140.296 162.934 136.313 167.465 124.015 173.49L128.795 177.473C132.23 184.743 137.857 195.896 147.018 203.464C160.013 214.119 176.643 217.853 192.975 218.102C206.468 218.301 222.152 215.314 235.048 211.181C251.777 213.123 270.399 213.571 287.128 212.277C285.485 206.053 282.349 200.327 278.017 195.497Z" fill="#EB5D19"/>
<path d="M96.9785 118.67L98.1735 123.898C98.1735 123.898 102.157 125.641 107.883 122.006L106.688 116.579L96.9785 118.67Z" fill="#FFA67D"/>
<path d="M111.816 111.849C112.613 110.355 112.613 106.671 109.426 104.58C106.538 102.688 102.455 101.991 98.8207 104.978C95.186 107.965 94.5388 109.459 93.0451 112.148C91.8999 114.289 91.1032 116.828 93.4434 118.571C96.1321 120.562 100.115 120.363 102.157 119.616C104.248 118.919 108.829 117.525 111.816 111.849Z" fill="#FFA67D"/>
<path d="M113.609 110.455C113.758 109.957 113.758 109.409 113.559 108.862C113.21 107.965 112.513 107.418 111.716 107.119C111.716 107.019 111.766 106.92 111.716 106.82C111.667 105.725 109.874 104.63 108.829 104.032C109.277 103.683 109.476 103.086 109.277 102.439C108.829 101.194 107.186 100.995 106.04 100.995C104.198 100.945 100.016 101.592 99.9659 104.231C99.9161 105.874 101.211 106.92 102.306 108.065C101.659 109.21 101.061 110.505 101.161 111.7C101.26 113.393 102.605 113.343 103.8 113.741C103.8 113.741 103.75 113.741 103.75 113.791C102.804 115.085 103.103 116.828 104.347 117.824C105.742 118.919 107.534 118.72 109.028 117.924C109.078 117.924 109.924 117.376 109.874 116.33C111.766 115.982 113.658 115.185 113.26 113.193C113.061 112.297 112.911 112.247 113.31 111.052C113.409 110.853 113.559 110.704 113.609 110.455Z" fill="#2B244A"/>
<path d="M97.2773 120.015L97.576 121.309C98.5718 121.21 99.6672 120.712 100.414 120.015C100.563 119.865 100.414 119.666 100.265 119.716C99.2689 120.015 98.2233 120.114 97.2773 120.015Z" fill="#2B244A"/>
<path d="M96.5304 107.02C96.5304 107.02 93.7919 108.165 93.3936 108.513C92.9953 108.912 93.2442 109.409 94.0907 110.555C94.9869 111.75 96.5304 107.02 96.5304 107.02Z" fill="#FFA67D"/>
<path d="M98.3726 112.646C98.3228 114.338 99.6174 115.733 101.26 115.782C102.953 115.832 104.347 114.538 104.397 112.895C104.447 111.202 103.153 109.808 101.509 109.758C99.8663 109.658 98.4722 111.003 98.3726 112.646Z" fill="#FFA67D"/>
<path d="M97.2275 105.974C96.8789 106.77 97.8748 106.82 98.4722 107.617C99.0199 108.364 99.5179 108.712 99.8664 108.364C100.265 107.965 100.066 106.87 99.0697 106.023C98.1237 105.227 97.4764 105.376 97.2275 105.974Z" fill="#2B244A"/>
<path d="M101.908 111.6C102.455 112.247 102.804 113.193 102.157 113.89C101.958 114.09 102.256 114.438 102.455 114.239C102.804 113.841 102.953 113.293 102.953 112.795C102.953 112.198 102.605 111.749 102.256 111.301C102.057 111.102 101.709 111.401 101.908 111.6Z" fill="#2B244A"/>
<path d="M96.381 108.463C96.7296 109.011 97.3768 109.16 97.9743 109.21C98.2731 109.26 98.2731 108.812 97.9743 108.762C97.5262 108.712 97.0283 108.662 96.7295 108.264C96.63 108.015 96.2317 108.214 96.381 108.463Z" fill="#2B244A"/>
<path d="M93.4434 111.401C93.294 111.65 93.1944 111.899 93.0451 112.148C92.8957 112.446 92.7463 112.745 92.5969 113.044C93.7421 113.243 94.489 113.094 95.435 112.546C94.5388 112.048 94.1902 111.899 93.4434 111.401Z" fill="white"/>
<path d="M163.947 190.667C172.162 195.447 180.776 199.58 189.788 202.717C198.601 205.804 207.713 207.895 216.874 209.339C222.799 210.285 228.824 210.932 234.799 211.48C235.097 211.53 235.097 211.081 234.799 211.032C215.629 209.339 196.759 205.953 179.133 198.036C174.004 195.746 169.025 193.157 164.196 190.319C163.947 190.12 163.698 190.518 163.947 190.667Z" fill="#8D84B8"/>
<path d="M129.392 177.373C139.848 173.54 147.864 165.424 153.74 156.212C153.889 155.963 153.541 155.715 153.341 155.963C147.466 165.125 139.549 173.191 129.143 176.975C128.894 177.075 129.093 177.473 129.392 177.373Z" fill="#8D84B8"/>
<path d="M270.897 195.846C274.93 200.725 278.017 206.65 280.357 212.525C280.457 212.774 280.855 212.575 280.755 212.326C278.415 206.401 275.328 200.476 271.245 195.547C271.046 195.298 270.747 195.597 270.897 195.846Z" fill="#8D84B8"/>
<path d="M46.6403 129.126C46.6901 123.6 48.2336 118.123 50.1256 112.994C50.2252 112.745 49.7771 112.596 49.6775 112.845C47.7356 118.023 46.1922 123.55 46.1424 129.126C46.1922 129.375 46.6403 129.425 46.6403 129.126Z" fill="#2B244A"/>
<path d="M172.361 80.9291C177.988 83.0701 183.763 84.6634 188.792 88.0491C189.041 88.1985 189.29 87.85 189.041 87.6508C183.962 84.2651 178.137 82.622 172.511 80.481C172.262 80.4312 172.112 80.8295 172.361 80.9291Z" fill="#2B244A"/>
<path d="M314.115 217.654C315.658 216.061 314.513 214.019 313.418 212.525C311.675 210.285 309.484 208.343 307.244 206.6C302.314 202.767 297.037 199.231 291.759 195.895C291.51 195.746 291.261 196.095 291.51 196.294C295.842 199.032 300.074 202.02 304.256 204.957C306.397 206.451 308.488 208.044 310.331 209.837C311.924 211.331 316.007 215.015 313.766 217.256C313.617 217.505 313.916 217.853 314.115 217.654Z" fill="#2B244A"/>
<path d="M192.078 72.3157C193.074 71.8178 194.07 71.3199 195.066 70.822C195.912 70.3739 198.9 68.7308 198.352 71.0211C198.103 72.0667 196.759 73.2617 195.912 73.909C195.663 74.1081 195.962 74.4069 196.211 74.2575C197.157 73.5107 199.547 71.4195 198.8 69.9755C198.402 69.2287 197.506 69.2287 196.809 69.4776C195.116 70.0253 193.423 71.1705 191.829 71.9672C191.63 72.0169 191.829 72.4153 192.078 72.3157Z" fill="#2B244A"/>
<path d="M145.076 141.773C144.08 138.786 142.736 135.998 140.993 133.458C140.147 133.807 139.35 134.106 138.504 134.354C137.508 134.703 136.114 135.151 136.811 135.948C137.856 137.143 139.798 139.234 140.545 140.628C141.591 142.719 142.387 144.96 144.279 146.454C145.275 147.2 146.371 147.698 147.566 147.947C146.719 145.856 145.773 143.914 145.076 141.773Z" fill="#2B244A"/>
<path d="M214.484 148.146C212.941 144.81 209.903 142.321 206.816 140.429C203.082 138.188 198.949 136.695 195.315 134.255C193.423 132.96 191.829 131.417 190.435 129.674C189.19 128.18 187.996 126.587 186.502 125.342C183.614 122.952 179.481 122.604 176.444 124.994C174.104 126.786 173.258 129.774 173.805 132.562C175 138.537 180.427 142.371 185.556 144.91C191.63 147.947 197.705 150.885 203.779 154.071C204.924 154.669 206.069 155.266 207.215 155.864C208.26 156.412 209.405 157.208 210.6 157.457C211.795 157.706 212.941 157.407 213.837 156.561C216.028 154.37 215.729 150.735 214.484 148.146Z" fill="#FFBE63"/>
<path d="M102.904 172.793C100.962 170.851 99.0697 168.71 96.9287 167.017C94.6384 165.175 90.5555 166.021 90.8543 169.506C90.9539 170.502 91.4518 171.448 92.099 172.245C93.4932 173.888 95.435 175.033 97.2773 176.079C98.7212 176.925 103.103 179.465 104.497 177.274C105.443 175.581 103.999 173.888 102.904 172.793Z" fill="#4FB096"/>
<path d="M174.801 131.019C172.361 129.176 169.424 128.479 169.523 131.517C169.623 133.558 174.353 138.288 176.693 137.193C179.282 135.948 177.291 132.911 174.801 131.019Z" fill="#4FB096"/>
<path d="M131.135 219.546C128.844 217.006 125.558 215.264 122.272 214.467C121.177 214.218 119.733 214.019 118.837 214.865C117.99 215.612 118.04 216.857 118.538 217.803C119.334 219.247 121.226 219.745 122.621 220.442C124.811 221.537 126.903 223.081 129.293 223.778C130.388 224.077 131.732 224.027 132.18 222.832C132.579 221.537 131.931 220.392 131.135 219.546Z" fill="#FFBE63"/>
<path d="M150.155 126.239C148.711 125.044 143.085 120.762 141.292 125.442C139.3 130.67 147.615 137.342 151.798 137.939C153.192 138.139 155.084 137.441 155.433 135.699C155.781 133.857 154.536 131.915 153.789 130.62C152.893 128.927 151.649 127.434 150.155 126.239Z" fill="#4FB096"/>
<path d="M178.486 220.392C174.801 218.451 167.183 216.708 166.287 222.832C165.142 230.45 184.361 237.62 188.493 231.844C191.481 227.512 181.174 221.787 178.486 220.392Z" fill="#FFBE63"/>
</svg>
