<svg width="346" height="321" viewBox="0 0 346 321" fill="none" xmlns="http://www.w3.org/2000/svg">
<path d="M189.722 4.56709C234.781 12.3075 277.929 32.5149 301.531 71.7817C325.205 111.169 324.407 159.464 308.823 202.717C292.995 246.651 263.073 285.715 219.004 300.84C174.231 316.207 124.999 305.842 85.7918 279.265C47.1938 253.101 23.955 210.991 18.0805 164.64C11.9033 115.899 18.2335 62.7362 54.1092 29.2786C89.5082 -3.73434 142.078 -3.6174 189.722 4.56709Z" fill="#FFBE63"/>
<path opacity="0.4" d="M144.205 315.891C96.836 307.96 51.5592 287.267 26.8065 247.129C1.97498 206.862 2.79483 157.459 19.1673 113.167C35.8007 68.1682 67.2223 28.2162 113.447 12.7528C160.43 -2.96408 212.116 7.63013 253.299 34.8393C293.813 61.6075 318.215 104.694 324.385 152.139C330.881 202.097 324.204 256.459 286.596 290.644C249.494 324.369 194.343 324.286 144.205 315.891Z" stroke="white" stroke-width="0.857863"/>
<path d="M226.026 142.449C226.283 138.65 229.773 136.084 233.007 134.749C235.419 133.774 237.986 133.158 240.296 132.029C242.606 130.9 244.607 129.206 246.199 127.204C247.893 124.997 248.97 122.636 251.383 121.096C253.898 119.453 257.132 119.248 259.236 121.66C261.238 123.919 261.341 127.306 260.006 129.924C258.312 133.209 255.181 134.903 251.845 136.186C248.355 137.521 244.505 137.983 241.784 140.857C240.193 142.5 239.372 144.81 237.627 146.35C235.676 148.044 232.904 148.711 230.389 148.146C227.823 147.479 225.872 145.272 226.026 142.449Z" fill="#FFBE63"/>
<path d="M218.583 145.22C218.583 146.247 214.528 147.068 211.757 145.888C208.985 144.707 212.424 138.753 212.424 138.753L217.967 143.475L218.583 145.22Z" fill="#2B244A"/>
<path d="M1.04933 192.649C1.61395 190.39 3.46173 188.748 5.20694 187.362C5.82289 186.849 16.9101 176.634 21.2218 174.222C25.7388 171.706 31.1797 171.604 36.9286 171.193C40.111 170.937 50.6335 170.937 62.4393 170.834C62.8499 174.992 62.8499 179.149 62.1826 183.204C61.464 187.619 60.0269 191.879 58.025 195.831C57.8197 195.78 57.563 195.729 57.3577 195.677C48.7344 193.368 40.2136 190.647 31.7956 187.721C25.6361 189.62 19.9899 192.854 13.9843 195.113C11.0072 196.242 7.31154 197.628 4.02646 197.474C1.51131 197.371 0.484703 194.805 1.04933 192.649Z" fill="#F5E3D9"/>
<path d="M41.9075 182.075C42.9854 180.381 44.1146 178.79 44.9872 176.993C45.7572 175.351 46.3219 173.606 46.8865 171.861C48.4777 166.676 50.3769 160.414 56.3311 158.31C56.5877 158.207 57.0497 158.104 57.0497 158.104C57.0497 158.104 57.2037 158.156 57.3577 158.207C73.8858 163.545 91.0812 171.809 108.585 173.041C123.008 170.834 151.445 164.623 160.838 162.005C161.711 167.652 162.686 173.298 163.404 178.995C163.969 183.461 164.534 188.183 164.482 192.854C133.633 207.483 97.8053 203.736 65.2111 197.987C56.7931 196.499 39.8543 190.596 39.8543 190.544C38.879 187.465 40.2136 184.693 41.9075 182.075Z" fill="#587EE0"/>
<path d="M150.264 176.275C150.983 171.758 152.574 167.343 154.884 163.391C157.245 162.878 159.298 162.416 160.787 161.954C161.659 167.6 162.634 173.246 163.353 178.944C163.918 183.41 164.482 188.132 164.431 192.803C160.479 194.702 156.372 196.242 152.266 197.576C150.007 190.698 149.083 183.41 150.264 176.275Z" fill="#2B244A"/>
<path d="M62.0287 160.26C59.2569 161.902 56.793 163.853 54.8938 166.471C53.2 168.781 52.2247 171.45 51.4034 174.17C50.5821 176.891 50.4796 179.765 48.9397 182.229C48.0671 183.615 46.9891 184.847 46.1678 186.233C45.1412 187.926 44.5766 189.774 44.2687 191.725C44.2173 191.981 43.8067 191.879 43.858 191.622C44.1147 189.877 44.628 188.234 45.4493 186.643C46.2705 185.052 47.4511 183.717 48.4264 182.229C50.2229 179.508 50.3255 176.069 51.3008 173.041C52.1734 170.32 53.2513 167.908 54.9965 165.649C56.8443 163.237 59.1543 161.44 61.7721 159.952C62.0287 159.747 62.2854 160.106 62.0287 160.26Z" fill="#2B244A"/>
<path d="M1.04926 192.649C1.61389 190.39 3.46167 188.748 5.20687 187.362C5.82283 186.849 16.9101 176.634 21.2218 174.222C25.7388 171.707 31.1796 171.604 36.9285 171.193C38.0064 171.091 40.0596 171.039 42.6774 170.988C40.7268 173.246 38.6737 175.351 36.4666 177.353C35.3373 178.379 34.1054 179.303 33.2328 180.535C32.1036 182.126 31.8469 183.923 31.8469 185.822C31.8469 186.438 31.8469 187.105 31.7956 187.721C25.636 189.621 19.9898 192.854 13.9843 195.113C11.0072 196.242 7.31148 197.628 4.02639 197.474C1.51125 197.371 0.484638 194.805 1.04926 192.649Z" fill="#2B244A"/>
<path d="M26.56 172.784C21.889 176.172 17.4233 179.765 13.1629 183.666C11.1098 185.514 9.10799 187.464 7.20881 189.415C5.36094 191.314 2.94846 193.316 1.81921 195.78C1.71655 196.036 1.35727 195.831 1.45993 195.574C2.53785 193.316 4.64228 191.468 6.38748 189.672C8.49199 187.516 10.6478 185.411 12.9063 183.358C17.1666 179.457 21.6837 175.813 26.406 172.425C26.56 172.322 26.7653 172.63 26.56 172.784Z" fill="#8D84B8"/>
<path d="M32.3089 182.075C31.3337 182.332 29.1265 183.255 28.3566 182.075C27.6893 181.048 29.0752 179.765 29.6912 179.098C32.463 176.275 36.0046 174.529 39.8543 173.606C40.111 173.554 40.2137 173.965 39.9571 174.016C37.3393 174.683 34.8241 175.659 32.617 177.199C31.4877 177.969 30.461 178.892 29.5884 179.868C28.9725 180.586 28.2026 182.024 29.8965 182.178C30.6151 182.229 31.5391 181.87 32.2577 181.664C32.463 181.613 32.5656 182.024 32.3089 182.075Z" fill="#8D84B8"/>
<path d="M179.009 134.595C178.29 135.211 180.651 139.625 184.09 140.755C187.529 141.833 191.738 137.316 191.636 137.264C191.482 137.213 179.009 134.595 179.009 134.595Z" fill="#2B244A"/>
<path d="M207.65 157.591L207.958 157.642C210.781 152.868 214.58 142.654 215.452 137.213C205.854 133.928 196.204 130.694 186.605 127.409C184.706 134.338 179.471 145.734 174.954 151.328C185.784 154.511 196.512 156.615 207.65 157.591Z" fill="#E0785E"/>
<path d="M277.766 216.209C278.074 214.464 279.46 213.181 281 212.411C283.207 211.281 285.774 210.717 288.135 209.844C293.114 207.945 297.887 205.584 302.456 202.812C306.613 200.297 311.079 197.628 316.058 197.576C316.52 197.576 317.136 197.576 317.495 197.884C318.317 198.603 318.163 200.143 317.752 201.067C316.674 203.633 314.313 205.532 312.003 206.97C309.077 208.818 305.946 210.255 303.277 212.513C300.762 214.669 298.503 217.03 295.578 218.673C292.447 220.726 288.751 221.804 284.952 221.599C282.129 221.445 277.048 220.161 277.766 216.209Z" fill="#2B244A"/>
<path d="M211.808 119.299C210.165 115.193 207.548 111.292 204.263 108.212C207.342 108.52 210.422 109.033 213.451 109.444C220.483 110.419 227.309 110.727 234.136 108.571C240.963 106.415 247.123 102.72 253.385 99.2805C261.341 94.9175 269.451 90.8112 277.664 86.9615C285.466 83.3171 293.73 78.6461 302.404 77.7735C303.739 77.6195 306.511 77.0549 307.383 78.4921C307.845 79.2621 307.64 79.9293 307.127 80.494C308.769 80.5966 310.617 81.1099 310.72 83.0091C310.822 84.7543 309.129 84.9083 307.743 85.1649C308.564 85.6782 309.077 86.6535 308.821 87.5774C308.564 88.5527 307.64 89.066 306.665 89.1173C306.1 89.1686 305.69 89.1686 305.587 89.1686C299.838 89.8359 295.783 92.7104 291.471 96.3034C281.77 104.311 273.917 112.01 263.497 119.248C252.256 127.05 239.269 130.643 225.718 131.875C221.304 132.285 216.838 132.439 212.424 132.542C214.22 127.614 213.656 123.867 211.808 119.299Z" fill="#E0785E"/>
<path d="M207.034 108.52L192.816 104.978C192.816 104.978 195.331 112.01 202.723 113.653C210.165 115.295 207.034 108.52 207.034 108.52Z" fill="#E0785E"/>
<path d="M207.086 102.874L205.392 111.292C205.392 111.292 200.875 111.6 196.871 106.826L198.565 99.6398L207.086 102.874Z" fill="#E0785E"/>
<path d="M291.985 81.0071C294.294 81.4178 296.553 82.0337 298.76 82.9063C300.043 83.4196 301.583 83.9842 302.25 85.2675C303.688 88.0906 298.247 87.7826 296.861 87.68C296.604 87.6286 296.604 87.218 296.861 87.2693C297.785 87.372 298.657 87.4233 299.581 87.3207C299.941 87.2693 300.3 87.2693 300.659 87.1667C300.865 87.064 301.121 87.0127 301.327 86.91C301.481 86.3454 301.634 85.8321 301.788 85.2675C301.634 84.6515 300.557 84.1382 300.043 83.8303C297.528 82.547 294.705 81.7771 291.882 81.3151C291.625 81.3664 291.728 80.9558 291.985 81.0071Z" fill="#2B244A"/>
<path d="M297.015 87.6287C296.245 89.3226 294.602 90.8112 292.652 90.6572C292.395 90.6572 292.395 90.2465 292.652 90.2465C294.448 90.4005 295.988 89.0146 296.655 87.4234C296.758 87.1668 297.117 87.3721 297.015 87.6287Z" fill="#2B244A"/>
<path d="M306.921 80.6481C303.996 81.264 301.07 82.0853 298.247 83.0605C297.99 83.1632 297.887 82.7526 298.144 82.6499C300.967 81.6746 303.893 80.9047 306.819 80.2374C307.075 80.2374 307.178 80.5967 306.921 80.6481Z" fill="#2B244A"/>
<path d="M307.64 85.3188C305.844 85.5754 303.996 85.9347 302.25 86.3454C301.994 86.3967 301.891 86.0374 302.148 85.9347C303.944 85.4728 305.741 85.1648 307.537 84.9081C307.794 84.9081 307.948 85.2674 307.64 85.3188Z" fill="#2B244A"/>
<path d="M285.106 195.215C288.905 192.084 292.908 189.21 296.963 186.438C297.22 186.592 297.425 186.694 297.682 186.848C306.408 191.827 314.826 197.32 323.193 202.863L330.02 203.89C333.613 204.454 337.257 204.814 340.799 205.584C342.801 206.046 345.11 207.278 345.059 209.587C345.008 212.257 341.517 213.54 339.515 214.258C332.791 216.671 331.046 217.338 324.681 219.083C319.908 220.367 313.645 222.163 308.821 219.032C292.344 209.998 284.593 205.84 276.432 202.658C279.306 200.143 282.181 197.628 285.106 195.215Z" fill="#F5E3D9"/>
<path d="M198 139.831C201.234 138.496 205.289 138.599 208.779 139.215C212.475 139.882 216.017 142.295 218.532 145.272C219.353 130.694 216.633 117.451 209.088 108.828C208.369 108.725 207.753 108.622 206.983 108.52C207.496 109.906 207.907 111.959 206.264 112.729C204.673 113.447 202.415 112.421 201.029 111.754C197.846 110.111 195.177 107.596 192.765 104.978C190.506 104.516 188.299 104.054 186.041 103.643C186.297 114.269 186.194 126.331 178.957 134.646C185.425 136.905 190.763 142.808 198 139.831Z" fill="#F5E3D9"/>
<path d="M208.266 125.561C206.418 128.846 201.799 130.078 199.181 126.844C198.976 126.588 199.335 126.177 199.591 126.434C201.953 129.411 206.11 128.282 207.804 125.253C207.958 124.945 208.42 125.253 208.266 125.561Z" fill="#2B244A"/>
<path d="M209.806 111.856C209.806 111.805 209.858 111.754 209.858 111.702C209.858 111.702 209.857 111.702 209.909 111.651C209.96 111.6 210.063 111.548 210.165 111.6C210.217 111.6 210.268 111.651 210.268 111.702C212.219 113.807 214.066 115.963 215.863 118.17C217.454 120.172 219.353 122.225 220.483 124.535C221.304 126.177 221.612 128.23 220.483 129.822C219.353 131.362 217.454 131.413 215.812 130.694C214.939 130.335 214.066 129.873 213.758 129C213.45 128.23 213.348 127.307 213.194 126.485C212.527 123.611 211.859 120.736 211.141 117.862C210.679 115.86 210.217 113.91 209.755 111.908C209.755 111.959 209.806 111.908 209.806 111.856C209.806 111.908 209.806 111.908 209.806 111.856Z" fill="#F5E3D9"/>
<path d="M186.4 103.695C186.4 103.695 193.021 118.632 189.377 128.282C186.503 135.93 184.86 127.306 184.86 127.306L186.4 103.695Z" fill="#E0785E"/>
<path d="M158.323 162.621C162.326 157.539 168.794 153.279 175.261 151.021C186.862 154.665 196.614 156.513 208.78 156.308C207.137 159.798 205.186 163.134 202.979 166.317C215.606 165.855 228.285 165.804 240.86 167.189C249.74 168.165 258.518 169.91 266.987 172.579C275.354 175.248 283.413 178.739 291.215 182.742C300.095 187.259 308.872 192.495 317.341 197.73C316.982 197.525 316.469 197.576 316.058 197.576C311.028 197.576 306.562 200.297 302.456 202.812C297.887 205.584 293.114 207.996 288.135 209.844C285.774 210.717 283.259 211.281 281 212.411C279.46 213.181 278.074 214.464 277.766 216.209C277.51 217.8 278.126 218.929 279.152 219.751C269.554 212.513 258.056 204.609 247.585 198.603C233.88 200.554 220.123 201.734 206.264 202.145C199.592 202.35 192.919 202.453 186.297 202.196C180.189 201.939 174.029 201.118 168.229 198.962C164.893 197.73 162.84 196.858 160.017 194.651C152.009 188.132 150.367 171.552 158.323 162.621Z" fill="#587EE0"/>
<path d="M87.5907 130.694C87.642 129.77 88.2067 129 88.9253 128.436C88.3093 128.128 87.8987 127.46 87.8987 126.69C87.8474 125.151 89.2846 123.867 90.2599 122.892C99.4479 113.447 111.87 107.699 124.343 104.054C137.586 100.205 151.65 98.8186 165.406 100.307C169.82 100.769 177.109 101.436 186.451 103.695C187.119 106.313 187.683 109.444 187.837 112.164C188.145 117.041 187.786 122.738 185.938 127.563C185.938 127.512 168.537 123.713 167.665 123.508C164.174 122.789 160.633 122.225 157.091 121.814C142.719 120.12 128.09 120.942 114.077 124.329C112.691 124.637 111.356 125.099 110.022 125.561C106.737 126.844 103.914 128.795 101.039 130.746C99.7558 131.618 98.4212 132.799 96.984 133.261C95.2901 133.825 93.699 132.593 93.5963 130.951C93.1343 131.207 92.621 131.464 92.1591 131.721C91.2351 132.183 89.9006 132.901 88.8226 132.542C87.95 132.234 87.5907 131.464 87.5907 130.694Z" fill="#E0785E"/>
<path d="M98.9345 123.867C98.3185 124.637 94.7254 128.538 93.9042 126.228C93.5449 125.253 94.2635 123.816 94.6229 122.943C95.2388 121.557 96.06 120.325 97.1379 119.248C97.3433 119.042 97.6 119.35 97.446 119.555C96.1114 120.941 95.1361 122.533 94.5715 124.38C94.3148 125.15 94.2122 125.15 94.9821 125.766C95.7521 126.382 95.7007 126.28 96.368 125.766C97.2406 125.15 97.9592 124.432 98.6265 123.611C98.8318 123.405 99.0885 123.662 98.9345 123.867Z" fill="#2B244A"/>
<path d="M105.71 123.149C103.503 124.175 101.142 124.74 98.7805 123.919C98.5238 123.816 98.6264 123.405 98.8831 123.508C101.142 124.329 103.349 123.765 105.505 122.789C105.761 122.687 105.967 122.995 105.71 123.149Z" fill="#2B244A"/>
<path d="M94.1097 125.305C92.4158 126.28 90.8245 127.306 89.2846 128.487C89.0793 128.641 88.874 128.282 89.0794 128.128C90.6192 126.998 92.2617 125.921 93.9043 124.945C94.1096 124.791 94.315 125.151 94.1097 125.305Z" fill="#2B244A"/>
<path d="M100.474 126.588C98.1645 127.871 95.906 129.308 93.7501 130.848C93.5448 131.002 93.3395 130.643 93.5449 130.489C95.7007 128.949 97.9079 127.512 100.269 126.229C100.526 126.126 100.731 126.485 100.474 126.588Z" fill="#2B244A"/>
<path d="M206.367 160.414C193.945 160.414 181.626 158.361 170.128 153.69C169.872 153.587 169.974 153.176 170.231 153.279C181.729 157.95 193.997 160.003 206.367 160.003C206.624 160.003 206.624 160.414 206.367 160.414Z" fill="#2B244A"/>
<path d="M309.95 193.727C306.1 194.291 302.661 195.831 299.376 197.936C295.886 200.246 292.6 202.607 288.802 204.352C285.979 205.635 283.105 206.61 280.179 207.688C276.791 208.92 274.019 210.922 272.377 214.207C272.274 214.464 271.915 214.259 272.017 214.002C273.506 211.076 275.918 208.92 278.998 207.688C282.078 206.456 285.209 205.532 288.237 204.198C292.19 202.401 295.629 199.938 299.222 197.576C302.507 195.421 305.946 193.881 309.898 193.316C310.104 193.316 310.206 193.727 309.95 193.727Z" fill="#2B244A"/>
<path d="M317.855 209.69C319.6 208.818 320.934 206.918 321.858 205.225C322.269 204.403 322.731 203.582 323.244 202.812L330.071 203.839C333.664 204.403 337.308 204.763 340.85 205.533C342.852 205.994 345.162 207.226 345.11 209.536C345.059 212.205 341.569 213.489 339.567 214.207C332.843 216.62 331.098 217.287 324.733 219.032C319.959 220.315 313.697 222.112 308.872 218.981C306.203 217.492 303.739 216.158 301.48 214.926C305.433 213.283 315.545 210.871 317.855 209.69Z" fill="#2B244A"/>
<path d="M317.033 210.204C318.009 211.128 318.573 212.513 317.085 213.232C314.98 214.259 312.26 213.232 310.155 212.77C309.898 212.719 310.001 212.308 310.258 212.359C311.644 212.667 313.03 213.078 314.416 213.181C315.134 213.232 316.058 213.283 316.674 212.924C317.906 212.257 317.495 211.282 316.674 210.512C316.52 210.306 316.828 209.998 317.033 210.204Z" fill="#8D84B8"/>
<path d="M196.717 93.9424C196.666 92.4025 198.103 89.3228 201.593 88.8608C204.776 88.4502 208.42 89.4768 210.268 93.3778C212.116 97.2788 212.065 98.7674 212.219 101.642C212.321 103.849 212.013 106.467 209.344 106.98C206.316 107.545 203.955 105.184 202.517 103.746C201.029 102.309 196.922 99.794 196.717 93.9424Z" fill="#E0785E"/>
<path d="M211.295 95.9442C211.295 95.9442 213.143 97.9461 213.297 98.408C213.451 98.87 213.091 99.2293 211.911 99.8453C210.73 100.513 211.295 95.9442 211.295 95.9442Z" fill="#E0785E"/>
<path d="M192.354 84.1382C192.662 84.0869 192.97 84.0869 193.329 84.1382C196.974 84.6002 199.181 89.4765 198.36 92.7616C197.641 95.636 194.202 96.8166 191.635 95.8927C187.991 94.5068 186.862 89.2198 189.069 86.1914C189.788 85.0622 191.071 84.2922 192.354 84.1382Z" fill="#2B244A"/>
<path d="M196.717 93.9423C196.666 92.4024 198.103 89.3227 201.593 88.8607C204.006 88.5014 206.726 89.066 208.677 91.0679C207.445 91.5298 206.367 92.5051 205.7 93.8397C204.827 95.5335 204.314 97.5354 202.723 98.7159C201.388 99.7425 199.797 100.666 198.411 100.41C197.128 98.254 196.82 96.3548 196.717 93.9423Z" fill="#2B244A"/>
<path d="M198.36 90.6059C197.538 91.9404 197.076 93.3776 196.974 94.9689C196.974 95.2255 196.563 95.2255 196.563 94.9689C196.614 93.3263 197.128 91.7864 198 90.4005C198.154 90.1439 198.514 90.3492 198.36 90.6059Z" fill="#8D84B8"/>
<path d="M205.648 97.8947C205.802 99.4346 204.622 100.769 203.133 100.923C201.593 101.077 200.259 99.8966 200.105 98.408C199.951 96.8682 201.131 95.5336 202.62 95.3796C204.16 95.2256 205.546 96.3549 205.648 97.8947Z" fill="#E0785E"/>
<path d="M210.781 94.6096C210.833 95.3795 209.96 95.1229 209.19 95.6875C208.472 96.2008 207.958 96.3034 207.753 95.8928C207.548 95.4308 208.061 94.5582 209.19 94.0963C210.268 93.737 210.73 94.0449 210.781 94.6096Z" fill="#2B244A"/>
<path d="M210.781 96.9707C210.268 97.2786 209.703 97.176 209.19 96.9707C208.934 96.868 209.036 96.5087 209.293 96.56C209.703 96.714 210.165 96.868 210.525 96.6114C210.781 96.4574 210.987 96.8167 210.781 96.9707Z" fill="#2B244A"/>
<path d="M212.116 100.512C212.116 100.769 212.167 101.026 212.167 101.282C212.167 101.59 212.219 101.898 212.219 102.155C211.192 101.898 210.627 101.488 210.011 100.666C210.987 100.666 211.346 100.666 212.116 100.512Z" fill="white"/>
<path d="M203.39 97.0221C202.723 97.1761 201.901 97.638 202.209 98.4593C202.312 98.716 201.901 98.8186 201.799 98.562C201.439 97.5354 202.363 96.8168 203.236 96.6115C203.544 96.6115 203.647 96.9708 203.39 97.0221Z" fill="#2B244A"/>
<path d="M344.289 208.15C342.852 207.432 341.004 208.099 339.516 208.458C338.078 208.818 336.693 209.177 335.307 209.536C332.586 210.306 329.917 211.281 327.248 212.308C321.756 214.464 315.801 216.568 310.925 219.956C310.72 220.11 310.514 219.751 310.72 219.597C315.853 216.004 322.166 213.797 327.966 211.589C330.738 210.511 333.561 209.536 336.487 208.766C337.976 208.356 339.516 207.945 341.004 207.688C342.133 207.483 343.417 207.278 344.495 207.791C344.751 207.894 344.546 208.253 344.289 208.15Z" fill="#8D84B8"/>
<path d="M342.339 206.456C337.36 206.559 332.227 208.458 327.556 210.203C321.191 212.565 314.98 215.49 309.283 219.186C309.077 219.34 308.872 218.981 309.077 218.827C314.775 215.08 321.037 212.154 327.453 209.793C332.124 208.048 337.257 206.148 342.339 206.046C342.595 206.046 342.595 206.456 342.339 206.456Z" fill="#8D84B8"/>
<path d="M204.519 105.543C205.084 106.005 205.751 106.313 206.367 106.569L206.008 108.263C205.187 107.853 204.519 107.031 204.16 105.799C204.057 105.594 204.314 105.389 204.519 105.543Z" fill="#2B244A"/>
<path d="M200.515 105.235C200.618 105.235 200.721 105.235 200.772 105.235C201.491 105.183 202.158 104.824 202.671 104.208C203.133 103.643 203.339 102.925 203.287 102.155C203.236 101.436 202.877 100.769 202.261 100.256C201.696 99.7937 200.977 99.5371 200.207 99.6397C199.489 99.691 198.822 100.05 198.308 100.666C197.846 101.231 197.641 101.95 197.692 102.719C197.898 104.157 199.078 105.235 200.515 105.235ZM200.515 100.102C201.08 100.102 201.593 100.307 202.004 100.666C202.517 101.077 202.774 101.642 202.877 102.258C202.928 102.873 202.774 103.489 202.363 104.003C201.953 104.516 201.388 104.773 200.772 104.875C199.489 104.978 198.308 104.054 198.206 102.719C198.103 101.436 199.027 100.256 200.361 100.153C200.361 100.102 200.413 100.102 200.515 100.102Z" fill="#FFBE63"/>
<path d="M200.515 105.235C200.618 105.235 200.721 105.235 200.772 105.235C201.491 105.183 202.158 104.824 202.671 104.208C203.133 103.643 203.339 102.925 203.287 102.155C203.236 101.436 202.877 100.769 202.261 100.256C201.696 99.7937 200.977 99.5371 200.207 99.6397C199.489 99.691 198.822 100.05 198.308 100.666C197.846 101.231 197.641 101.95 197.692 102.719C197.898 104.157 199.078 105.235 200.515 105.235ZM200.515 100.102C201.08 100.102 201.593 100.307 202.004 100.666C202.517 101.077 202.774 101.642 202.877 102.258C202.928 102.873 202.774 103.489 202.363 104.003C201.953 104.516 201.388 104.773 200.772 104.875C199.489 104.978 198.308 104.054 198.206 102.719C198.103 101.436 199.027 100.256 200.361 100.153C200.361 100.102 200.413 100.102 200.515 100.102Z" fill="#FFBE63"/>
<path d="M103.605 147.941C104.735 145.836 106.788 144.348 108.841 143.219C116.027 139.318 123.727 138.753 131.58 137.162C136.405 136.135 139.998 134.031 143.54 130.746C146.722 127.82 149.545 123.354 154.422 123.559C158.579 123.713 160.478 128.179 159.195 131.772C157.604 136.289 152.522 138.702 148.262 140.036C140.768 142.397 132.35 142.141 125.215 145.477C122.495 146.76 120.339 148.608 118.183 150.661C115.206 153.536 111.767 156.41 107.352 155.538C103.759 154.768 101.758 151.329 103.605 147.941Z" fill="#F576A6"/>
<path d="M158.528 138.65C157.604 140.241 155.705 141.371 154.011 141.987C151.188 142.962 147.646 143.578 146.722 140.652C145.952 138.24 147.852 136.956 149.751 136.34C152.728 135.365 153.6 133.62 155.5 133.517C158.425 133.261 160.222 135.776 158.528 138.65Z" fill="#FFBE63"/>
<path d="M77.8894 202.145C78.2487 199.886 80.0453 198.09 81.7905 196.704C83.741 195.164 85.9482 193.983 88.3093 193.213C91.4404 192.187 98.8832 190.493 100.372 194.959C101.398 198.09 98.2159 200.194 95.9061 201.478C92.8263 203.223 89.5925 205.173 86.3074 206.405C84.3569 207.124 81.9957 207.791 80.0452 206.816C78.3 205.943 77.5814 203.941 77.8894 202.145Z" fill="#F576A6"/>
<path d="M95.752 157.078C96.4707 156.924 97.292 157.026 97.9592 157.386C100.782 159.131 98.5751 163.802 95.444 162.621C93.6475 161.903 92.9802 159.439 94.2634 157.95C94.6227 157.488 95.1874 157.18 95.752 157.078Z" fill="#FFBE63"/>
<path d="M223.973 157.129C225.154 153.587 227.515 151.893 231.056 151.021C232.596 150.661 234.598 150.713 235.265 152.099C235.676 152.92 235.419 153.947 235.009 154.768C233.88 157.026 227.412 162.826 224.538 160.671C223.46 159.901 223.614 158.31 223.973 157.129Z" fill="#F576A6"/>
<path d="M167.921 214.361C167.408 217.8 163.61 220.11 159.452 221.393C156.885 222.163 154.165 222.728 151.599 223.498C148.57 224.422 146.004 225.808 143.796 227.502C135.378 233.918 126.447 238.127 113.358 234.38C110.946 233.712 108.328 232.429 108.225 230.581C108.071 227.091 112.794 224.114 116.951 223.447C132.607 220.983 135.789 217.39 144.053 212.154C148.878 209.074 153.6 208.202 160.119 208.561C164.585 208.818 168.435 210.974 167.921 214.361Z" fill="#FFBE63"/>
<path d="M114.128 240.077C115.668 238.948 117.618 238.486 119.364 238.024C121.263 237.562 123.316 237.203 125.215 237.87C131.837 240.129 127.063 244.954 122.854 246.647C120.801 247.469 117.208 248.598 115.052 247.623C112.075 246.237 111.305 242.182 114.128 240.077Z" fill="#F576A6"/>
</svg>
