<svg width="340" height="321" viewBox="0 0 340 321" fill="none" xmlns="http://www.w3.org/2000/svg">
<path d="M182.722 4.75986C227.781 12.827 270.929 33.8873 294.531 74.8114C318.205 115.861 317.407 166.194 301.823 211.273C285.995 257.061 256.073 297.774 212.004 313.538C167.231 329.553 117.999 318.751 78.7918 291.052C40.1938 263.783 16.955 219.896 11.0805 171.589C4.90325 120.79 11.2335 65.3841 47.1092 30.5144C82.5082 -3.89196 135.078 -3.77008 182.722 4.75986Z" fill="#EB5D19"/>
<path opacity="0.4" d="M150.203 301.039C102.83 293.358 57.5536 273.319 32.8032 234.454C7.97617 195.469 8.79523 147.638 25.1657 104.753C41.7968 61.1842 73.2157 22.4966 119.443 7.52161C166.431 -7.6994 218.121 2.56128 259.304 28.9097C299.818 54.8308 324.217 96.5508 330.385 142.487C336.88 190.858 330.205 243.491 292.602 276.59C255.498 309.249 200.343 309.169 150.203 301.039Z" stroke="white" stroke-width="0.857863"/>
<path d="M114.542 149.92C112.598 147.896 109.292 148.159 107.252 149.848C106.232 150.693 105.374 151.754 104.577 152.85C102.089 156.165 99.8702 159.512 98.7699 163.547C97.718 167.568 98.3814 173.726 103.807 173.623C108.867 173.513 112.641 167.828 114.446 163.709C116.109 159.835 117.862 153.393 114.542 149.92Z" fill="#F576A6"/>
<path d="M153 80.0465C152.061 78.4804 149.753 78.0082 148.102 78.2428C148.005 78.2688 147.921 78.3432 147.899 78.4531C147.754 78.492 147.647 78.6764 147.747 78.8572C148.515 80.3654 149.499 81.7117 150.735 82.8347C150.761 82.9317 150.848 83.064 151.007 83.0735C152.551 83.0232 153.926 81.5642 153 80.0465Z" fill="#2B244A"/>
<path d="M139.682 86.9389C139.05 85.5502 139.25 82.2248 142.276 80.5311C144.975 78.9768 148.203 78.4236 151.257 81.2927C154.323 84.2102 155.359 85.7504 156.51 88.2986C157.407 90.2913 157.982 92.6302 155.767 94.0547C153.239 95.6669 149.703 95.264 147.889 94.5036C146.075 93.7431 142.021 92.1807 139.682 86.9389Z" fill="#FFA67D"/>
<path d="M150.524 79.7231C150.411 79.4938 150.169 79.5587 150.062 79.743C149.324 78.5386 148.224 77.5349 146.84 77.0228C146.155 76.7909 145.263 76.5626 144.627 77.0965C144.194 77.4202 144.069 77.9212 144.247 78.3928C143.905 78.2768 143.184 78.1064 142.267 78.5599C141.349 79.0134 141.212 80.2448 141.212 80.2448C140.372 80.2102 139.606 80.2596 138.805 80.3704C137.202 80.5921 134.928 81.4092 134.274 83.0386C133.82 84.2509 134.374 85.3489 135.392 85.855C134.76 86.5958 134.386 87.5269 134.307 88.5869C134.297 88.7452 134.433 88.8646 134.578 88.8257C134.185 89.2947 133.668 89.6928 133.679 90.3132C133.676 90.8852 134.145 91.2788 134.646 91.4043C135.661 91.7036 136.815 91.5503 137.839 91.6913C139.242 91.8867 140.564 92.3634 141.989 92.4489C143.854 92.6244 145.886 91.8723 146.83 90.165C147.243 89.3793 147.41 88.4516 147.238 87.6149C146.987 86.4874 145.875 85.4353 145.977 84.2654C147.243 84.3415 148.636 83.9165 148.66 82.4559C150.208 82.6123 151.182 81.2087 150.524 79.7231Z" fill="#2B244A"/>
<path d="M156.033 92.5291C154.76 92.8182 153.461 93.0104 152.172 93.0443C149.946 93.0696 147.796 92.6068 145.905 91.5556C145.804 91.3748 145.668 91.2554 145.568 91.0746C145.468 90.8937 145.212 90.9102 145.093 91.046C145.019 90.9621 144.909 90.9396 144.847 90.9042C144.588 90.7138 144.292 91.1569 144.563 91.3957C144.883 91.6215 145.191 91.7989 145.511 92.0247C146.333 93.1547 147.358 94.0744 148.49 94.8098C150.411 95.3859 153.468 95.5536 155.683 94.1291C156.477 93.6046 156.929 92.9643 157.112 92.2919C156.795 92.2729 156.372 92.4382 156.033 92.5291Z" fill="#2B244A"/>
<path d="M104.892 124.565C104.892 124.565 100.642 126.535 103.291 117.62C105.927 108.656 103.933 100.828 106.167 99.0873C108.414 97.3946 113.095 98.5813 113.095 98.5813C113.095 98.5813 116.802 115.713 111.785 119.083C106.767 122.453 104.892 124.565 104.892 124.565Z" fill="#2B244A"/>
<path d="M112.344 89.3824C103.298 91.2868 95.1022 95.9757 87.4854 101.081C82.8165 104.201 78.2835 107.442 73.5012 110.333C68.6835 113.286 63.6035 115.841 58.3322 117.877C55.1766 119.086 51.969 120.101 48.7225 120.971C48.7225 120.971 41.2922 122.703 35.1789 123.146C34.2063 123.199 29.5726 123.35 30.118 125.385C29.6074 125.418 29.1358 125.596 28.8521 126.088C28.32 127.009 29.0417 127.959 29.7435 128.446C30.0637 128.672 30.3839 128.897 30.6911 129.075C31.2019 131.95 34.9618 133.384 37.3639 134.402C40.93 135.887 46.2984 136.734 48.5283 136.915C51.7567 137.141 55.0552 136.465 58.0335 135.563C62.924 134.045 67.6553 131.738 72.2412 129.471C82.3432 124.531 89.8562 119.038 101.883 113.53C105.494 111.888 110.515 110.854 114.437 110.374C114.204 102.335 113.365 97.2626 112.344 89.3824Z" fill="#FFA67D"/>
<path d="M163.563 101.054C163.117 101.329 162.672 101.605 162.226 101.88C152.103 91.8164 137.968 86.3593 123.661 87.2327C119.211 87.4901 114.821 88.3549 110.586 89.8012C110.489 89.8271 110.286 90.0374 110.202 90.1119C106.701 94.6853 107.3 100.601 108.169 105.977C109.123 112.058 111.892 116.769 106.841 122.537C105.886 123.624 104.627 124.74 104.627 124.74C107.972 124.623 111.555 124.234 114.87 123.813C114.515 124.428 114.222 125.078 113.867 125.692C112.935 127.448 111.881 129.133 110.629 130.662C109.328 132.205 107.844 133.642 106.482 135.149C104.368 137.534 102.445 140.438 102.488 143.698C102.599 147.408 105.24 150.284 107.834 152.601C107.895 152.636 107.895 152.636 107.957 152.672C107.96 152.878 108.316 153.043 108.458 152.797C119.855 136.604 133.937 122.288 149.986 110.665C153.941 107.787 157.997 105.09 162.152 102.575C162.363 102.778 162.586 103.03 162.796 103.233C163.019 103.485 163.439 103.113 163.167 102.874C162.957 102.671 162.808 102.503 162.598 102.299C162.995 102.037 163.441 101.762 163.851 101.548C164.151 101.312 163.876 100.866 163.563 101.054Z" fill="#4FB096"/>
<path d="M121.108 130.815C121.041 131.145 120.974 131.474 120.919 131.852C115.835 131.293 110.606 132.902 106.894 136.493C104.87 138.438 103.39 140.86 102.485 143.491C102.498 143.54 102.475 143.65 102.488 143.698C102.599 147.408 105.24 150.284 107.882 152.588C107.944 152.623 107.944 152.623 108.005 152.659C108.009 152.866 108.365 153.03 108.506 152.784C112 147.797 115.765 143.049 119.728 138.456C120.401 136.509 120.951 134.492 121.392 132.453C121.453 132.488 121.55 132.462 121.611 132.498C121.941 132.565 122.102 132.003 121.737 131.997C121.675 131.961 121.578 131.987 121.469 131.965C121.536 131.635 121.616 131.354 121.635 131.037C121.677 130.611 121.176 130.485 121.108 130.815Z" fill="#2B244A"/>
<path d="M30.9014 129.278C33.5883 130.583 36.4006 131.388 39.3513 131.74C39.6195 131.772 39.6125 131.358 39.3443 131.326C36.455 131.01 33.6912 130.192 31.1143 128.909C30.833 128.829 30.6686 129.184 30.9014 129.278Z" fill="#2B244A"/>
<path d="M30.1213 125.592C32.8177 126.739 35.598 127.811 38.4683 128.445C38.7365 128.477 38.8394 128.086 38.5712 128.054C35.7009 127.42 32.9821 126.383 30.3342 125.223C30.1014 125.13 29.8885 125.498 30.1213 125.592Z" fill="#2B244A"/>
<path d="M45.3379 128.11C46.8688 130.141 49.2555 131.683 51.8921 131.444C52.1474 131.427 52.1404 131.014 51.8851 131.03C49.3939 131.23 47.1431 129.808 45.6866 127.861C45.4893 127.706 45.1761 127.894 45.3379 128.11Z" fill="#2B244A"/>
<path d="M45.467 127.816C43.9908 128.316 42.4852 128.511 40.9017 128.416C40.1099 128.369 39.2082 128.299 38.4485 127.983C37.7017 127.716 36.9705 126.925 37.7483 126.145C37.9517 125.935 38.3134 125.734 38.5427 125.621C41.1808 124.031 44.1591 123.129 46.9496 121.914C47.1788 121.8 46.9781 121.439 46.7488 121.552C44.4299 122.589 42.046 123.383 39.7531 124.517C38.9198 124.896 37.1304 125.583 36.8925 126.634C36.6486 128.05 38.5783 128.467 39.5544 128.621C41.568 128.965 43.5971 128.785 45.4964 128.12C45.8001 128.09 45.6963 127.703 45.467 127.816Z" fill="#2B244A"/>
<path d="M248.597 41.0322C248.234 40.4542 247.61 40.2578 246.98 40.4266C247.08 39.8287 247.034 39.2697 246.504 38.8406C245.912 38.3759 245.211 38.6676 244.681 39.0172C243.658 39.6551 242.734 40.4737 241.798 41.2439C240.129 42.574 238.473 43.9526 236.83 45.3796C234.217 46.2875 231.756 47.5701 229.545 49.2014C223.145 53.6167 218.794 60.4435 214.472 66.7952C211.823 70.6728 209.017 74.541 205.579 77.7991C201.854 81.342 200.475 81.8154 195.688 83.7212C188.508 86.5799 184.963 94.2815 186.568 96.3961C188.646 99.1113 190.028 103.882 191.153 107.112C203.028 103.36 211.512 99.1647 219.766 92.1749C223.953 88.6121 226.714 84.185 229.028 79.2543C230.227 76.7517 231.303 74.1782 232.687 71.7821C234.164 69.1532 236.07 66.7726 237.99 64.4404C240.423 61.5034 246.958 51.3909 247.886 49.4283C248.557 48.0541 248.616 46.5321 247.578 45.5639C247.862 45.0724 248.181 44.5194 248.39 43.9439C248.729 43.0743 249.183 41.862 248.597 41.0322Z" fill="#FFA67D"/>
<path d="M200.779 98.4567C199.6 93.4753 200.627 87.2277 195.873 83.8275C195.75 83.7565 195.543 83.76 195.494 83.773C188.618 86.6023 182.605 90.135 174.217 92.7463C174.081 92.6269 183.627 111.778 186.48 123.01C186.493 123.059 186.493 123.059 186.506 123.107C186.448 123.278 186.575 123.556 186.817 123.491C193.122 121.438 199.01 118.406 204.346 114.484C204.346 114.484 204.959 113.281 204.967 111.565C205.007 107.451 202.01 103.632 200.779 98.4567Z" fill="#4FB096"/>
<path d="M108.346 124.471C110.432 122.561 111.986 120.223 112.768 117.521C113.64 114.379 113.174 111.284 112.599 108.166C111.984 104.903 111.541 101.698 111.947 98.3692C112.389 94.9789 113.477 91.6751 115.474 88.8549C115.629 88.6576 115.261 88.4448 115.106 88.6421C111.838 93.3089 110.821 99.3982 111.645 104.994C112.205 108.635 113.399 112.314 112.731 116.025C112.189 119.234 110.496 122.025 108.123 124.219C107.858 124.394 108.13 124.632 108.346 124.471Z" fill="#2B244A"/>
<path d="M192.31 85.4572C196.551 89.4623 195.996 95.5316 196.791 100.824C197.625 106.261 202.041 110.531 201.201 116.313C201.169 116.581 201.56 116.684 201.592 116.416C202.009 113.708 201.395 111.223 200.271 108.772C199.034 106.092 197.619 103.718 197.179 100.72C196.371 95.3793 196.913 89.2615 192.597 85.1725C192.387 84.9692 192.1 85.2539 192.31 85.4572Z" fill="#2B244A"/>
<path d="M152.85 100.809C143.599 106.404 139.64 109.074 131.243 115.531C123.698 121.292 115.996 127.822 111.071 135.997C106.621 143.422 105.342 152.022 108.302 160.162C111.071 167.782 117.053 174.021 124.886 176.7C133.233 179.553 142.922 178.307 150.288 173.425C150.41 173.496 150.617 173.493 150.662 173.273C150.649 173.224 150.685 173.163 150.685 173.163C150.901 173.001 151.13 172.888 151.347 172.726C151.611 172.551 151.372 172.044 151.071 172.28C150.987 172.355 150.891 172.381 150.807 172.455C153.864 153.822 155.176 134.878 157.05 116.095C157.564 110.452 154.173 102.064 152.85 100.809Z" fill="#F5E3D9"/>
<path d="M148.946 154.465C147.514 156.095 145.958 157.654 144.253 159.046C143.185 159.904 142.103 160.713 140.96 161.486C140.382 161.849 138.613 162.998 138.313 163.235C138.012 163.471 137.848 163.827 138.239 163.929C138.41 163.987 138.52 164.01 138.847 163.871C139.583 163.517 140.319 163.164 141.056 162.811C142.202 162.244 143.323 161.581 144.382 160.881C145.357 160.257 146.257 159.548 147.11 158.852C147.962 158.156 148.863 157.447 149.566 156.584C149.615 156.571 149.686 156.448 149.853 156.299C149.61 155.585 149.309 155.043 148.946 154.465Z" fill="#2B244A"/>
<path d="M148.933 154.416C147.5 156.046 145.945 157.606 144.24 158.997C143.172 159.855 142.09 160.664 140.947 161.438C140.369 161.8 138.6 162.95 138.299 163.186C137.999 163.422 137.835 163.778 138.226 163.881C138.397 163.939 138.507 163.961 138.833 163.822C139.57 163.469 140.306 163.116 141.042 162.763C142.189 162.196 143.309 161.532 144.368 160.833C145.344 160.208 146.244 159.499 147.097 158.803C147.949 158.107 148.85 157.399 149.553 156.535C149.601 156.522 149.672 156.399 149.84 156.25C149.61 155.585 149.296 154.994 148.933 154.416Z" fill="#2B244A"/>
<path d="M146.778 157.227C142.272 150.488 139.583 142.587 138.73 134.558C138.286 130.574 138.353 126.558 138.907 122.618C139.433 119.153 140.21 115.465 141.874 112.371C143.502 109.338 145.634 105.858 148.385 103.719C148.601 103.557 148.4 103.195 148.184 103.357C145.769 105.199 143.943 108.077 142.392 110.622C140.593 113.597 139.553 116.888 138.904 120.282C137.288 128.401 137.967 136.944 140.436 144.8C141.837 149.254 143.807 153.504 146.403 157.379C146.578 157.644 146.94 157.443 146.778 157.227Z" fill="#2B244A"/>
<path d="M181.687 140.395C176.303 137.942 170.882 139.031 166.109 141.764C166.035 141.68 165.912 141.609 165.78 141.697C160.904 144.821 156.452 148.558 152.496 152.787C152.541 152.567 157.43 184.962 158.981 187.455C158.536 193.547 154.747 205.572 151.635 219.546C150.047 223.503 147.075 229.856 145.406 233.316C143.842 236.591 142.806 240.089 143.366 243.73C144.05 248.221 146.053 250.852 146.592 255.382C147.088 259.559 146.615 263.997 148.3 267.96C148.718 268.938 149.431 270.046 150.613 270.196C152.162 270.353 153.123 268.901 153.735 267.698C155.689 263.747 157.212 259.547 158.81 255.432C160.337 251.439 161.79 247.362 163.132 243.263C163.213 242.982 163.293 242.701 163.422 242.407C171.327 224.033 177.747 207.875 183.628 191.446C186.965 182.19 190.831 172.585 191.553 162.68C192.109 154.481 189.915 144.162 181.687 140.395Z" fill="#FFA67D"/>
<path d="M182.213 140.617C171.558 150.275 162.909 161.993 156.199 174.749C157.315 181.046 158.404 186.467 159.016 187.394C158.634 192.17 156.269 200.594 153.751 210.773C159.077 203.321 164.416 195.918 169.62 188.396C176.616 178.263 182.789 167.573 186.296 155.467C187.217 152.312 187.697 149.067 187.959 145.777C186.512 143.672 184.619 141.842 182.213 140.617Z" fill="#2B244A"/>
<path d="M181.551 91.8198C175.98 89.0539 170.125 89.6878 165.21 92.6666C154.671 99.0742 152.201 101.294 151.998 101.504C142.75 112.344 139.372 130.751 143.654 144.405C144.591 147.322 146.998 152.234 148.491 154.898C148.396 161.519 148.079 169.446 146.968 175.768C146.179 180.187 142.807 181.558 139.318 185.401C136.749 188.218 137.298 190.46 137.752 194.286C138.294 199.022 140.642 203.327 141.039 208.103C141.38 212.478 140.752 217.112 142.344 221.308C142.726 222.348 143.464 223.552 144.66 223.751C146.234 224.005 147.341 222.514 148.037 221.236C150.22 217.172 151.973 212.859 153.8 208.63C155.543 204.476 157.225 200.286 158.797 196.073C158.926 195.779 159.006 195.498 159.135 195.204C168.873 175.144 174.972 162.24 181.744 145.261C185.575 135.717 189.983 125.811 191.099 115.437C191.942 106.953 190.054 96.0331 181.551 91.8198Z" fill="#FFA67D"/>
<path d="M159.693 123.437C154.088 133.144 150.362 143.854 148.54 154.885C147.824 153.571 147.474 153.041 146.603 151.146C146.197 146.528 146.039 141.481 146.748 137.344C147.926 130.692 150.529 124.126 155.105 119.109C156.396 117.724 159.12 114.709 161.264 116.316C163.667 118.113 160.65 121.778 159.693 123.437Z" fill="#2B244A"/>
<path d="M117.064 116.11C115.662 115.915 115.131 117.615 114.721 118.608C113.913 120.434 112.981 122.19 111.878 123.888C111.842 123.949 111.758 124.024 111.723 124.085C112.731 123.971 113.787 123.844 114.747 123.742C114.853 123.558 114.973 123.422 115.079 123.238C115.757 122.277 119.883 116.549 117.064 116.11Z" fill="#2B244A"/>
<path d="M155.658 83.9566C155.408 83.6079 151.736 82.3068 151.639 82.3328C151.406 82.2394 151.497 82.5786 151.636 82.9048C152.265 84.0867 153.025 85.1813 153.835 86.2628C153.909 86.3468 154.019 86.3692 154.08 86.4047C154.19 86.4272 154.287 86.4012 154.371 86.3268C154.981 85.696 156.069 84.5216 155.658 83.9566Z" fill="#FFA67D"/>
<path d="M146.145 84.8954L146.003 84.3624C144.743 84.6999 143.962 86.0516 144.3 87.3115C144.638 88.5713 145.989 89.3517 147.249 89.0141C148.509 88.6766 149.289 87.3249 148.952 86.065C148.676 84.8406 147.383 84.6677 146.145 84.8954Z" fill="#FFA67D"/>
<path d="M146.546 87.7483C145.954 87.2837 145.747 86.5084 146.137 85.8326C146.279 85.5868 145.923 85.4225 145.768 85.6198C145.32 86.4669 145.483 87.462 146.259 88.0331C146.456 88.1879 146.744 87.9032 146.546 87.7483Z" fill="#2B244A"/>
<path d="M237.15 45.6054C237.842 45.4721 238.824 45.2609 239.509 45.4927C241.543 46.2981 239.477 48.6692 238.783 49.3745C237.67 50.4519 236.407 51.3614 234.97 52.0062C234.741 52.1196 234.929 52.4328 235.171 52.3679C237.225 51.5059 240.089 49.5959 240.623 47.3236C241.179 44.9413 238.671 44.8862 237.011 45.2792C236.791 45.2342 236.895 45.6218 237.15 45.6054Z" fill="#2B244A"/>
<path d="M241.049 49.4946C243.66 47.0291 246.533 44.1821 247.2 40.4716C247.232 40.2033 246.841 40.1004 246.809 40.3686C246.177 44.0177 243.327 46.7549 240.764 49.2074C240.548 49.3692 240.832 49.6564 241.049 49.4946Z" fill="#2B244A"/>
<path d="M242.471 52.2815C244.653 50.3465 246.602 48.3181 247.798 45.6087C247.891 45.3759 247.571 45.1501 247.429 45.3959C246.269 48.0438 244.32 50.0722 242.173 51.9458C242.018 52.1431 242.303 52.4303 242.471 52.2815Z" fill="#2B244A"/>
<path d="M234.974 52.2129C235.784 54.0732 235.902 56.0669 235.449 58.058C235.417 58.3262 235.76 58.4421 235.84 58.1609C236.364 56.0469 236.171 53.9694 235.335 52.0121C235.222 51.7828 234.86 51.9836 234.974 52.2129Z" fill="#2B244A"/>
<path d="M151.749 82.3554C151.847 83.1082 151.016 82.9153 150.296 83.5237C149.66 84.0576 149.14 84.2489 148.94 83.8873C148.713 83.4287 149.1 82.546 150.149 82.0051C151.115 81.5386 151.655 81.8094 151.749 82.3554Z" fill="#2B244A"/>
<path d="M151.246 83.5806C150.704 83.8817 151.264 84.6146 151.535 84.8534C151.733 85.0083 151.978 85.1502 152.208 85.0368C152.569 84.836 152.281 84.342 152.106 84.0772C151.932 83.8124 151.608 83.3798 151.246 83.5806Z" fill="#2B244A"/>
<path d="M151.749 82.3554C151.847 83.1082 151.016 82.9153 150.296 83.5237C149.66 84.0576 149.14 84.2489 148.94 83.8873C148.713 83.4287 149.1 82.546 150.149 82.0051C151.115 81.5386 151.655 81.8094 151.749 82.3554Z" fill="#2B244A"/>
<path d="M151.246 83.5806C150.704 83.8817 151.264 84.6146 151.535 84.8534C151.733 85.0083 151.978 85.1502 152.208 85.0368C152.569 84.836 152.281 84.342 152.106 84.0772C151.932 83.8124 151.608 83.3798 151.246 83.5806Z" fill="#2B244A"/>
<path d="M154.486 88.1135C153.914 88.111 153.436 87.8757 152.98 87.5304C152.721 87.3401 152.424 87.7832 152.696 88.022C153.213 88.4027 153.837 88.599 154.471 88.6371C154.849 88.6915 154.864 88.168 154.486 88.1135Z" fill="#2B244A"/>
<path d="M211.434 147.329C207.858 146.002 204.698 149.134 203.361 152.089C202.494 154.087 201.983 156.25 201.239 158.319C200.366 160.682 199.199 162.916 197.834 164.995C196.244 167.395 194.382 169.556 192.261 171.526C188.62 174.995 183.414 180.181 184.116 185.706C184.762 190.83 192.377 189.984 195.497 188.058C201.386 184.454 204.334 176.653 206.346 170.401C207.109 168.015 207.907 165.568 208.89 163.228C209.873 160.887 211.189 158.82 212.492 156.706C214.149 153.976 215.475 148.843 211.434 147.329Z" fill="#F576A6"/>
<path d="M208.915 124.945C207.593 124.468 206.217 125.148 205.184 125.944C202.53 128.058 202.182 131.215 200.13 133.635C198.578 135.401 197.868 139.538 201.139 140.116C202.665 140.382 203.911 139.217 204.769 138.156C206.105 136.552 207.327 134.718 208.466 132.959C209.427 131.507 210.64 129.832 210.67 128.006C210.746 126.739 210.176 125.386 208.915 124.945Z" fill="#FFBE63"/>
<path d="M84.914 166.688C82.3762 168.459 76.8458 175.342 79.9507 177.626C82.218 179.303 85.4921 177.18 87.4155 175.054C89.4228 172.855 92.7564 169.209 91.1892 166.461C90.0104 164.388 86.8383 165.341 84.914 166.688Z" fill="#FFBE63"/>
<path d="M128.848 171.328C125.645 168.291 120.502 169.253 117.344 171.813C114.655 173.988 112.908 177.157 111.266 180.141C107.504 187.226 106.961 200.511 101.662 206.709C96.1957 213.055 82.5464 224.139 95.3135 229.34C100.263 231.337 107.992 227.812 110.612 222.28C113.562 216.037 113.526 205.244 115.785 199.912C118.653 193.171 120.209 191.612 126.372 184.767C129.658 181.134 133.189 175.514 128.848 171.328Z" fill="#FFBE63"/>
<path d="M198.205 199.329C195.714 199.529 195.22 202.726 194.437 204.649C191.618 211.377 199.124 208.379 200.728 203.898C201.365 202.014 200.635 199.093 198.205 199.329Z" fill="#FFBE63"/>
<path d="M123.032 198.853C122.673 198.482 122.23 198.185 121.641 197.927C116.885 195.878 112.201 202.43 110.324 205.894C108.483 209.295 107.659 214.554 113.043 214.877C117.002 215.114 119.92 212.826 121.923 209.641C122.03 209.457 122.136 209.272 122.243 209.088C123.781 206.495 125.52 201.355 123.032 198.853Z" fill="#F576A6"/>
</svg>
