<svg width="27" height="28" viewBox="0 0 27 28" fill="none" xmlns="http://www.w3.org/2000/svg">
<path fill-rule="evenodd" clip-rule="evenodd" d="M26.9992 14.2454C27.0786 6.80043 21.2023 0.664446 13.8172 0.50082C6.27334 0.419006 0.0794094 6.47318 0 14C0 21.445 5.95571 27.4173 13.4202 27.4992C20.8053 27.581 26.9198 21.6904 26.9992 14.2454ZM10.7386 6.63636H16.2614C18.8027 6.63636 20.8636 8.69726 20.8636 11.2386V16.7614C20.8636 19.3027 18.8027 21.3636 16.2614 21.3636H10.7386C8.19726 21.3636 6.13636 19.3027 6.13636 16.7614V11.2386C6.13636 8.69726 8.19726 6.63636 10.7386 6.63636Z" fill="white"/>
<path d="M17.1818 14C17.1818 16.0334 15.5334 17.6818 13.5 17.6818C11.4666 17.6818 9.81818 16.0334 9.81818 14C9.81818 11.9666 11.4666 10.3182 13.5 10.3182C15.5334 10.3182 17.1818 11.9666 17.1818 14Z" fill="white"/>
<path d="M18.4091 9.70455C18.4091 10.0434 18.1344 10.3182 17.7955 10.3182C17.4566 10.3182 17.1818 10.0434 17.1818 9.70455C17.1818 9.36564 17.4566 9.09091 17.7955 9.09091C18.1344 9.09091 18.4091 9.36564 18.4091 9.70455Z" fill="white"/>
</svg>
