<svg width="115" height="445" viewBox="0 0 115 445" fill="none" xmlns="http://www.w3.org/2000/svg">
<path d="M-427.188 431.298C-389.844 452.542 -340.265 447.392 -302.92 427.435C-243.684 395.247 -208.272 332.801 -165.132 283.874C-121.993 234.947 -65.9758 200.184 -10.6028 166.707C35.1122 139.025 112.377 110.056 114.952 46.3222C116.884 -4.53574 59.5793 -5.82333 24.8102 6.40833C-2.87631 16.0649 -27.9864 31.5154 -53.0974 45.6784C-85.935 63.704 -118.773 81.0858 -151.61 99.1114C-215.998 133.875 -279.742 167.995 -344.129 202.759C-391.132 228.51 -441.997 259.411 -461.957 311.556C-478.697 354.045 -470.328 406.834 -427.188 431.298Z" fill="#F576A6"/>
</svg>
