<svg width="332" height="73" viewBox="0 0 332 73" fill="none" xmlns="http://www.w3.org/2000/svg">
<g opacity="0.8">
<path d="M60.1688 47.6178V0.5H13.1176L60.1688 47.6178Z" fill="white"/>
<path d="M5.56055 60.0401C12.2618 65.1803 23.383 70.6059 30.0842 72.6049C40.0648 69.6065 60.1685 58.8979 60.1685 52.9011V52.7583L36.5003 29.0566L5.56055 60.0401Z" fill="white"/>
<path d="M0 52.9007C0 54.3285 0.998053 55.8991 2.70901 57.6124L33.7913 26.4862L7.84187 0.5H0V52.9007Z" fill="white"/>
<path d="M16.3965 24.773C17.1094 24.773 17.8223 25.2014 17.8223 25.7725C17.8223 26.3436 17.2519 26.7719 16.3965 26.7719C15.6836 26.7719 14.9707 26.3436 14.9707 25.7725C14.9707 25.2014 15.541 24.773 16.3965 24.773ZM12.5468 24.773C13.2597 24.773 13.9726 25.2014 13.9726 25.7725C13.9726 26.3436 13.4023 26.7719 12.5468 26.7719C11.8339 26.7719 11.121 26.3436 11.121 25.7725C11.121 25.2014 11.8339 24.773 12.5468 24.773ZM8.69718 24.773C9.41008 24.773 10.123 25.2014 10.123 25.7725C10.123 26.3436 9.55266 26.7719 8.69718 26.7719C7.98428 26.7719 7.27138 26.3436 7.27138 25.7725C7.27138 25.2014 7.98428 24.773 8.69718 24.773ZM16.3965 27.6286C17.1094 27.6286 17.8223 28.057 17.8223 28.6281C17.8223 29.1992 17.2519 29.6276 16.3965 29.6276C15.6836 29.6276 14.9707 29.1992 14.9707 28.6281C14.9707 28.057 15.541 27.6286 16.3965 27.6286ZM12.5468 27.6286C13.2597 27.6286 13.9726 28.057 13.9726 28.6281C13.9726 29.1992 13.4023 29.6276 12.5468 29.6276C11.8339 29.6276 11.121 29.1992 11.121 28.6281C11.121 28.057 11.8339 27.6286 12.5468 27.6286ZM8.69718 27.6286C9.41008 27.6286 10.123 28.057 10.123 28.6281C10.123 29.1992 9.55266 29.6276 8.69718 29.6276C7.98428 29.6276 7.27138 29.1992 7.27138 28.6281C7.27138 28.057 7.98428 27.6286 8.69718 27.6286ZM16.3965 30.3415C17.1094 30.3415 17.8223 30.7698 17.8223 31.3409C17.8223 31.9121 17.2519 32.3404 16.3965 32.3404C15.6836 32.3404 14.9707 31.9121 14.9707 31.3409C14.9707 30.9126 15.541 30.3415 16.3965 30.3415ZM12.5468 30.3415C13.2597 30.3415 13.9726 30.7698 13.9726 31.3409C13.9726 31.9121 13.4023 32.3404 12.5468 32.3404C11.8339 32.3404 11.121 31.9121 11.121 31.3409C11.121 30.9126 11.8339 30.3415 12.5468 30.3415ZM8.69718 30.3415C9.41008 30.3415 10.123 30.7698 10.123 31.3409C10.123 31.9121 9.55266 32.3404 8.69718 32.3404C7.98428 32.3404 7.27138 31.9121 7.27138 31.3409C7.27138 30.9126 7.98428 30.3415 8.69718 30.3415ZM16.3965 33.3399C17.1094 33.3399 17.8223 33.7682 17.8223 34.3393C17.8223 34.9105 17.2519 35.3388 16.3965 35.3388C15.6836 35.3388 14.9707 34.9105 14.9707 34.3393C14.9707 33.7682 15.541 33.3399 16.3965 33.3399ZM12.5468 33.3399C13.2597 33.3399 13.9726 33.7682 13.9726 34.3393C13.9726 34.9105 13.4023 35.3388 12.5468 35.3388C11.8339 35.3388 11.121 34.9105 11.121 34.3393C11.121 33.7682 11.8339 33.3399 12.5468 33.3399ZM8.69718 33.3399C9.41008 33.3399 10.123 33.7682 10.123 34.3393C10.123 34.9105 9.55266 35.3388 8.69718 35.3388C7.98428 35.3388 7.27138 34.9105 7.27138 34.3393C7.27138 33.7682 7.98428 33.3399 8.69718 33.3399ZM17.2519 21.0607H7.55654V22.9169H17.3945V21.0607H17.2519ZM7.41397 20.3468H17.3945C17.8223 20.3468 18.1074 20.6324 18.1074 21.0607V23.0596C18.1074 23.488 17.8223 23.7735 17.3945 23.7735H7.41397C6.98623 23.7735 6.70107 23.488 6.70107 23.0596V21.0607C6.70107 20.6324 7.12881 20.3468 7.41397 20.3468ZM17.8223 19.0618H7.12881C6.27333 19.0618 5.56043 19.7757 5.56043 20.6324V34.9105C5.56043 35.7672 6.27333 36.4811 7.12881 36.4811H17.8223C18.6777 36.4811 19.3906 35.7672 19.3906 34.9105V20.6324C19.3906 19.7757 18.6777 19.0618 17.8223 19.0618ZM7.12881 18.2051H17.8223C19.1055 18.2051 20.2461 19.2045 20.2461 20.6324V34.9105C20.2461 36.1955 19.2481 37.3377 17.8223 37.3377H7.12881C5.84559 37.3377 4.70496 36.3383 4.70496 34.9105V20.6324C4.70496 19.3473 5.84559 18.2051 7.12881 18.2051Z" fill="white"/>
<path d="M40.4923 4.64062L46.6233 7.92459L52.7542 4.64062L53.1819 5.35453L46.6233 8.78128L40.0646 5.35453L40.4923 4.64062ZM46.1955 10.6374L39.0665 7.0679V18.2048L46.1955 21.7744V10.6374ZM46.6233 22.9166L38.2111 18.776V5.78287L46.6233 9.92353L55.0355 5.78287V18.776L46.6233 22.9166ZM47.051 10.6374V21.7744L54.18 18.2048V7.0679L47.051 10.6374Z" fill="white"/>
<path d="M24.6663 53.4719H22.2424V55.8992H24.6663L25.6643 58.3265L23.9534 60.0398L25.6643 61.7532L27.3753 60.0398L29.7991 61.0393V63.3238H32.223V60.8965L34.6468 59.8971L36.3578 61.6104L38.0688 59.8971L36.0726 58.1837L37.0707 55.7564H39.4945V53.3291H37.0707L36.0726 51.0447L37.7836 49.3313L36.2152 47.6179L34.5043 49.3313L32.0804 48.3318V45.9045H29.6566V48.3318L27.2327 49.3313L25.6643 47.6179L23.9534 49.3313L25.6643 51.0447L24.6663 53.4719ZM24.2386 52.6152L24.8089 51.1874L22.9553 49.3313L25.8069 46.4757L27.803 48.3318L29.2288 47.7607V45.0479H33.2211V47.7607L34.6468 48.3318L36.643 46.4757L39.4945 49.3313L37.4984 51.1874L38.0688 52.6152H40.35V56.6131H37.641L37.0707 58.0409L39.0668 59.8971L36.2152 62.7527L34.2191 60.8965L32.7933 61.4677V64.1805H28.9437V61.4677L27.5179 60.8965L25.5218 62.8955L22.6702 60.0398L24.5237 58.0409L23.9534 56.6131H21.2444V52.6152H24.2386ZM30.9398 51.6158C29.2288 51.6158 27.9456 52.9008 27.9456 54.6142C27.9456 56.3275 29.3714 57.6126 30.9398 57.6126C32.6507 57.6126 33.9339 56.1848 33.9339 54.6142C33.9339 52.9008 32.5082 51.6158 30.9398 51.6158ZM30.9398 50.7591C33.0785 50.7591 34.7894 52.4725 34.7894 54.6142C34.7894 56.7559 33.0785 58.4693 30.9398 58.4693C28.8011 58.4693 27.0901 56.7559 27.0901 54.6142C27.0901 52.4725 28.8011 50.7591 30.9398 50.7591Z" fill="white"/>
<path d="M93.0843 24.0819H88.1662L87.1825 26.8399H84.2317L89.3465 13.0498H91.9039L97.0187 26.8399H94.0679L93.0843 24.0819ZM88.9531 21.9149H92.4941L90.7236 16.7928L88.9531 21.9149Z" fill="white"/>
<path d="M103.511 21.3241H101.937V27.0372H99.1829V13.2471H101.937V18.7631H103.314L106.658 13.2471H110.199L105.871 19.7481L110.593 27.0372H107.249L103.511 21.3241Z" fill="white"/>
<path d="M120.036 24.0819H115.118L114.134 26.8399H111.183L116.298 13.0498H118.856L123.97 26.8399H121.02L120.036 24.0819ZM115.905 21.9149H119.446L117.675 16.5958L115.905 21.9149Z" fill="white"/>
<path d="M138.921 30.3862H136.363V27.0372H128.101V30.3862H125.347L125.15 24.6732H126.134C126.724 24.2792 127.117 23.4912 127.511 22.7031C127.904 21.7181 128.101 20.7331 128.101 19.3541L128.494 13.2471H137.544V24.6732H139.314L138.921 30.3862ZM129.478 24.6732H134.79V15.4141H131.249L131.052 18.9601C130.855 21.5211 130.265 23.4912 129.478 24.6732Z" fill="white"/>
<path d="M149.741 20.9301H144.233V24.6732H150.528V27.0372H141.282V13.2471H150.528V15.6111H144.233V18.9601H149.741V20.9301Z" fill="white"/>
<path d="M156.626 13.2471L160.167 23.2941L163.708 13.2471H167.446V27.0372H164.692V23.2941L164.888 16.7931L161.151 27.0372H159.183L155.446 16.7931L155.642 23.2941V27.0372H152.888V13.2471H156.626Z" fill="white"/>
<path d="M178.856 13.2471H181.61V27.0372H178.856V17.7781L173.347 27.0372H170.593V13.2471H173.347V22.5061L178.856 13.2471Z" fill="white"/>
<path d="M191.249 27.0369V22.1119H188.889L186.331 27.0369H183.184L186.134 21.1269C184.757 20.3389 183.97 19.1568 183.97 17.3838C183.97 16.0048 184.364 15.0198 185.348 14.2318C186.134 13.4438 187.512 13.0498 189.085 13.0498H194.003V26.8399H191.249V27.0369ZM186.921 17.5808C186.921 18.3688 187.118 18.9598 187.512 19.1568C187.905 19.5509 188.495 19.7479 189.282 19.7479H191.249V15.4138H189.282C187.708 15.4138 186.921 16.2018 186.921 17.5808Z" fill="white"/>
<path d="M206.987 19.7479L209.545 13.2468H212.692L207.971 24.6729L207.577 25.4609C206.79 26.6429 205.807 27.2339 204.233 27.2339H203.249V24.8699C203.446 24.8699 203.643 24.8699 204.036 24.8699C204.43 24.8699 204.823 24.8699 205.02 24.6729C205.217 24.4759 205.413 24.2789 205.61 23.8849L206.004 22.8999L201.085 13.0498H204.233L206.987 19.7479Z" fill="white"/>
<path d="M226.07 27.0372H223.315V15.6111H217.807V27.0372H215.053V13.2471H226.266V27.0372H226.07Z" fill="white"/>
<path d="M231.971 22.1121V27.0372H229.217V13.2471H234.529C235.512 13.2471 236.496 13.4441 237.283 13.8381C238.07 14.2321 238.66 14.8231 239.053 15.4141C239.447 16.0051 239.644 16.9901 239.644 17.7781C239.644 19.1571 239.25 20.1421 238.267 20.9301C237.283 21.7181 236.103 22.1121 234.529 22.1121H231.971ZM231.971 19.7481H234.529C235.316 19.7481 235.906 19.5511 236.299 19.1571C236.693 18.7631 236.89 18.3691 236.89 17.5811C236.89 16.9901 236.693 16.3991 236.299 16.0051C235.906 15.6111 235.316 15.4141 234.726 15.4141H232.168V19.7481H231.971Z" fill="white"/>
<path d="M248.496 24.0819H243.578L242.594 26.8399H239.643L244.758 13.0498H247.316L252.43 26.8399H249.48L248.496 24.0819ZM244.365 21.9149H247.906L246.135 16.7928L244.365 21.9149Z" fill="white"/>
<path d="M254.595 27.0372V13.2471H259.316C260.89 13.2471 262.267 13.6411 263.054 14.2321C263.841 14.8231 264.431 15.8081 264.431 16.9901C264.431 17.5811 264.234 18.1721 263.841 18.7631C263.447 19.3541 263.054 19.7481 262.464 19.9451C263.25 20.1421 263.644 20.5361 264.037 20.9301C264.431 21.5211 264.627 22.1121 264.627 22.9002C264.627 24.2792 264.234 25.2642 263.447 25.8552C262.66 26.4462 261.48 26.8402 259.906 26.8402H254.595V27.0372ZM257.349 18.9601H259.513C260.89 18.9601 261.677 18.3691 261.677 17.1871C261.677 16.5961 261.48 16.2021 261.086 15.8081C260.693 15.6111 260.103 15.4141 259.316 15.4141H257.349V18.9601ZM257.349 20.9301V24.6732H259.709C260.3 24.6732 260.89 24.4762 261.283 24.2792C261.677 24.0822 261.873 23.4912 261.873 22.9002C261.873 21.7181 261.283 20.9301 259.906 20.9301H257.349Z" fill="white"/>
<path d="M278.791 13.2471V27.0372H276.037V15.6111H272.299L272.103 20.5361C272.103 22.1121 271.709 23.4912 271.512 24.4762C271.119 25.4612 270.725 26.0522 270.135 26.6432C269.545 27.0372 268.758 27.2342 267.578 27.2342H266.791V24.8702H267.184C267.971 24.8702 268.365 24.2792 268.758 23.6882C269.152 23.0971 269.348 21.7181 269.348 19.7481L269.545 13.4441H278.791V13.2471Z" fill="white"/>
<path d="M290.201 20.9301H284.693V24.6732H290.988V27.0372H281.742V13.2471H290.988V15.6111H284.693V18.9601H290.201V20.9301Z" fill="white"/>
<path d="M304.759 27.0372H302.005V21.1271H296.496V27.0372H293.742V13.2471H296.496V18.7631H302.005V13.2471H304.759V27.0372Z" fill="white"/>
<path d="M316.169 13.2471H318.924V27.0372H316.169V17.7781L310.661 27.0372H307.907V13.2471H310.661V22.5061L316.169 13.2471Z" fill="white"/>
<path d="M328.366 27.0369V22.1119H326.202L323.644 27.0369H320.497L323.448 21.1269C322.071 20.3389 321.284 19.1568 321.284 17.3838C321.284 16.0048 321.677 15.0198 322.661 14.2318C323.448 13.4438 324.825 13.0498 326.399 13.0498H331.317V26.8399H328.366V27.0369ZM324.235 17.5808C324.235 18.3688 324.431 18.9598 324.825 19.1568C325.218 19.5509 325.808 19.7479 326.595 19.7479H328.562V15.4138H326.595C325.021 15.4138 324.235 16.2018 324.235 17.5808Z" fill="white"/>
<path d="M92.4943 36.4932H95.2485V50.2833H92.4943V41.2212L86.9861 50.2833H84.2319V36.4932H86.9861V45.7522L92.4943 36.4932Z" fill="white"/>
<path d="M114.528 50.2833H111.773V38.8572H106.265V50.2833H103.511V36.4932H114.724V50.2833H114.528Z" fill="white"/>
<path d="M120.626 45.3583V50.2833H117.872V36.4932H123.183C124.167 36.4932 125.15 36.6902 125.937 37.0842C126.724 37.4782 127.314 38.0692 127.708 38.6602C128.101 39.4482 128.298 40.2362 128.298 41.0242C128.298 42.4032 127.905 43.3882 126.921 44.1762C125.937 44.9642 124.757 45.3583 123.183 45.3583H120.626ZM120.626 43.1912H123.183C123.97 43.1912 124.56 42.9942 124.954 42.6002C125.347 42.2062 125.544 41.8122 125.544 41.0242C125.544 40.4332 125.347 39.8422 124.954 39.4482C124.56 39.0542 123.97 38.8572 123.38 38.8572H120.822V43.1912H120.626Z" fill="white"/>
<path d="M142.266 43.585C142.266 44.964 142.069 46.146 141.479 47.131C141.085 48.116 140.299 48.904 139.512 49.495C138.528 50.086 137.544 50.283 136.364 50.283C135.184 50.283 134.2 50.086 133.216 49.495C132.233 48.904 131.643 48.116 131.053 47.131C130.462 46.146 130.266 44.964 130.266 43.585V42.994C130.266 41.615 130.462 40.4329 131.053 39.4479C131.446 38.4629 132.233 37.6749 133.216 37.0839C134.2 36.4929 135.184 36.2959 136.364 36.2959C137.544 36.2959 138.528 36.4929 139.512 37.0839C140.495 37.6749 141.085 38.4629 141.676 39.4479C142.069 40.4329 142.462 41.615 142.462 42.994V43.585H142.266ZM139.315 42.994C139.315 41.615 139.118 40.4329 138.528 39.6449C137.938 38.8569 137.348 38.4629 136.364 38.4629C135.38 38.4629 134.594 38.8569 134.2 39.6449C133.61 40.4329 133.413 41.4179 133.413 42.994V43.585C133.413 44.964 133.61 46.146 134.2 46.934C134.79 47.722 135.38 48.116 136.364 48.116C137.348 48.116 138.135 47.722 138.528 46.934C139.118 46.146 139.315 45.161 139.315 43.585V42.994Z" fill="white"/>
<path d="M153.282 36.4932H156.036V50.2833H153.282V41.2212L147.774 50.2833H145.02V36.4932H147.774V45.7522L153.282 36.4932Z" fill="white"/>
<path d="M166.069 40.2359C166.069 39.6449 165.873 39.2509 165.479 39.0539C165.086 38.6599 164.496 38.6599 163.905 38.6599C163.315 38.6599 162.725 38.8569 162.332 39.0539C161.938 39.4479 161.741 39.6449 161.741 40.2359H158.987C158.987 39.4479 159.184 38.8569 159.577 38.2659C159.971 37.6749 160.561 37.2809 161.348 36.8869C162.135 36.4929 162.922 36.2959 163.905 36.2959C165.479 36.2959 166.659 36.6899 167.643 37.2809C168.627 37.8719 169.02 38.8569 169.02 40.2359C169.02 40.8269 168.823 41.4179 168.43 42.0089C168.037 42.6 167.446 42.994 166.856 43.191C167.643 43.388 168.233 43.782 168.627 44.373C169.02 44.964 169.217 45.555 169.217 46.343C169.217 47.525 168.823 48.51 167.84 49.298C166.856 50.086 165.676 50.48 163.905 50.48C162.922 50.48 161.938 50.283 161.151 49.889C160.364 49.495 159.774 49.101 159.381 48.51C158.987 47.919 158.791 47.131 158.791 46.343H161.741C161.741 46.737 161.938 47.328 162.332 47.525C162.725 47.919 163.315 48.116 163.905 48.116C164.692 48.116 165.282 47.919 165.676 47.525C166.069 47.131 166.266 46.737 166.266 46.146C166.266 45.358 166.069 44.964 165.676 44.57C165.282 44.176 164.692 44.176 163.905 44.176H162.135V42.0089H163.905C165.282 42.0089 166.069 41.4179 166.069 40.2359Z" fill="white"/>
<path d="M171.774 50.2833V36.4932H176.692C178.266 36.4932 179.643 36.8872 180.43 37.4782C181.216 38.0692 181.807 39.0542 181.807 40.2362C181.807 40.8272 181.61 41.4182 181.216 42.0092C180.823 42.6002 180.43 42.9942 179.839 43.1912C180.626 43.3882 181.02 43.7822 181.413 44.1762C181.807 44.7672 182.003 45.3582 182.003 46.1462C182.003 47.5253 181.61 48.5103 180.823 49.1013C180.036 49.6923 178.856 50.0863 177.282 50.0863H171.774V50.2833ZM174.725 42.2062H176.889C178.266 42.2062 179.052 41.6152 179.052 40.4332C179.052 39.8422 178.856 39.4482 178.462 39.0542C178.069 38.8572 177.479 38.6602 176.692 38.6602H174.725V42.2062ZM174.725 44.1762V47.9193H177.085C177.675 47.9193 178.266 47.7223 178.659 47.5253C179.052 47.3283 179.249 46.7373 179.249 46.1462C179.249 44.9642 178.659 44.1762 177.282 44.1762H174.725Z" fill="white"/>
<path d="M196.168 43.585C196.168 44.964 195.971 46.146 195.381 47.131C194.988 48.116 194.201 48.904 193.414 49.495C192.43 50.086 191.447 50.283 190.266 50.283C189.086 50.283 188.102 50.086 187.119 49.495C186.135 48.904 185.545 48.116 184.955 47.131C184.365 46.146 184.168 44.964 184.168 43.585V42.994C184.168 41.615 184.365 40.4329 184.955 39.4479C185.348 38.4629 186.135 37.6749 187.119 37.0839C188.102 36.4929 189.086 36.2959 190.266 36.2959C191.447 36.2959 192.43 36.4929 193.414 37.0839C194.398 37.6749 194.988 38.4629 195.578 39.4479C195.971 40.4329 196.365 41.615 196.365 42.994V43.585H196.168ZM193.217 42.994C193.217 41.615 193.021 40.4329 192.43 39.6449C191.84 38.8569 191.25 38.4629 190.266 38.4629C189.283 38.4629 188.496 38.8569 188.102 39.6449C187.512 40.4329 187.316 41.4179 187.316 42.994V43.585C187.316 44.964 187.512 46.146 188.102 46.934C188.693 47.722 189.283 48.116 190.266 48.116C191.25 48.116 192.037 47.722 192.43 46.934C193.021 46.146 193.217 45.161 193.217 43.585V42.994Z" fill="white"/>
<path d="M211.118 53.6323H208.561V50.2833H200.299V53.6323H197.544L197.348 47.9193H198.331C198.922 47.5253 199.315 46.7373 199.708 45.9492C200.102 44.9642 200.299 43.9792 200.299 42.6002L200.692 36.4932H209.741V47.9193H211.315L211.118 53.6323ZM201.676 47.9193H206.987V38.6602H203.446L203.249 42.2062C203.053 44.7672 202.463 46.7373 201.676 47.9193Z" fill="white"/>
<path d="M224.103 45.752C223.906 47.328 223.513 48.313 222.529 49.298C221.546 50.086 220.168 50.48 218.595 50.48C216.824 50.48 215.447 49.889 214.463 48.707C213.48 47.525 212.89 45.949 212.89 43.782V42.994C212.89 41.6149 213.086 40.4329 213.677 39.4479C214.07 38.4629 214.857 37.6749 215.644 37.0839C216.431 36.4929 217.611 36.2959 218.595 36.2959C220.168 36.2959 221.546 36.6899 222.529 37.4779C223.513 38.2659 224.103 39.4479 224.3 41.0239H221.546C221.546 40.0389 221.152 39.4479 220.759 39.0539C220.365 38.6599 219.775 38.4629 218.791 38.4629C217.808 38.4629 217.218 38.8569 216.627 39.4479C216.234 40.0389 215.841 41.2209 215.841 42.6V43.782C215.841 45.358 216.037 46.343 216.431 47.131C216.824 47.722 217.611 48.116 218.595 48.116C219.382 48.116 220.168 47.919 220.562 47.525C220.955 47.131 221.152 46.54 221.349 45.752H224.103Z" fill="white"/>
<path d="M236.693 38.8572H232.562V50.2833H229.808V38.8572H225.677V36.4932H236.89V38.8572H236.693Z" fill="white"/>
<path d="M238.856 50.2833V36.4932H243.775C245.348 36.4932 246.725 36.8872 247.512 37.4782C248.299 38.0692 248.889 39.0542 248.889 40.2362C248.889 40.8272 248.693 41.4182 248.299 42.0092C247.906 42.6002 247.512 42.9942 246.922 43.1912C247.709 43.3882 248.102 43.7822 248.496 44.1762C248.889 44.7672 249.086 45.3582 249.086 46.1462C249.086 47.5253 248.693 48.5103 247.906 49.1013C247.119 49.6923 245.938 50.0863 244.365 50.0863H238.856V50.2833ZM241.807 42.2062H243.971C245.348 42.2062 246.135 41.6152 246.135 40.4332C246.135 39.8422 245.939 39.4482 245.545 39.0542C245.152 38.8572 244.561 38.6602 243.775 38.6602H241.807V42.2062ZM241.807 44.1762V47.9193H244.168C244.758 47.9193 245.348 47.7223 245.742 47.5253C246.135 47.3283 246.332 46.7373 246.332 46.1462C246.332 44.9642 245.742 44.1762 244.365 44.1762H241.807Z" fill="white"/>
<path d="M259.513 47.328H254.595L253.611 50.086H250.66L255.775 36.2959H258.332L263.447 50.086H260.496L259.513 47.328ZM255.185 45.161H258.726L256.955 40.0389L255.185 45.161Z" fill="white"/>
</g>
</svg>
