<svg width="332" height="73" viewBox="0 0 332 73" fill="none" xmlns="http://www.w3.org/2000/svg">
<path d="M60.8521 47.1178V0H13.8009L60.8521 47.1178Z" fill="#F9BF0A"/>
<path d="M6.2439 59.5401C12.9451 64.6803 24.0663 70.1059 30.7676 72.1049C40.7481 69.1065 60.8518 58.3979 60.8518 52.4011V52.2583L37.1837 28.5566L6.2439 59.5401Z" fill="#EB5D19"/>
<path d="M0.68335 52.4007C0.68335 53.8285 1.6814 55.3991 3.39236 57.1124L34.4747 25.9862L8.52522 0H0.68335V52.4007Z" fill="#EB5D19"/>
<path d="M17.0798 24.273C17.7927 24.273 18.5056 24.7014 18.5056 25.2725C18.5056 25.8436 17.9353 26.2719 17.0798 26.2719C16.3669 26.2719 15.654 25.8436 15.654 25.2725C15.654 24.7014 16.2243 24.273 17.0798 24.273ZM13.2302 24.273C13.9431 24.273 14.656 24.7014 14.656 25.2725C14.656 25.8436 14.0857 26.2719 13.2302 26.2719C12.5173 26.2719 11.8044 25.8436 11.8044 25.2725C11.8044 24.7014 12.5173 24.273 13.2302 24.273ZM9.38053 24.273C10.0934 24.273 10.8063 24.7014 10.8063 25.2725C10.8063 25.8436 10.236 26.2719 9.38053 26.2719C8.66763 26.2719 7.95473 25.8436 7.95473 25.2725C7.95473 24.7014 8.66763 24.273 9.38053 24.273ZM17.0798 27.1286C17.7927 27.1286 18.5056 27.557 18.5056 28.1281C18.5056 28.6992 17.9353 29.1276 17.0798 29.1276C16.3669 29.1276 15.654 28.6992 15.654 28.1281C15.654 27.557 16.2243 27.1286 17.0798 27.1286ZM13.2302 27.1286C13.9431 27.1286 14.656 27.557 14.656 28.1281C14.656 28.6992 14.0857 29.1276 13.2302 29.1276C12.5173 29.1276 11.8044 28.6992 11.8044 28.1281C11.8044 27.557 12.5173 27.1286 13.2302 27.1286ZM9.38053 27.1286C10.0934 27.1286 10.8063 27.557 10.8063 28.1281C10.8063 28.6992 10.236 29.1276 9.38053 29.1276C8.66763 29.1276 7.95473 28.6992 7.95473 28.1281C7.95473 27.557 8.66763 27.1286 9.38053 27.1286ZM17.0798 29.8415C17.7927 29.8415 18.5056 30.2698 18.5056 30.8409C18.5056 31.4121 17.9353 31.8404 17.0798 31.8404C16.3669 31.8404 15.654 31.4121 15.654 30.8409C15.654 30.4126 16.2243 29.8415 17.0798 29.8415ZM13.2302 29.8415C13.9431 29.8415 14.656 30.2698 14.656 30.8409C14.656 31.4121 14.0857 31.8404 13.2302 31.8404C12.5173 31.8404 11.8044 31.4121 11.8044 30.8409C11.8044 30.4126 12.5173 29.8415 13.2302 29.8415ZM9.38053 29.8415C10.0934 29.8415 10.8063 30.2698 10.8063 30.8409C10.8063 31.4121 10.236 31.8404 9.38053 31.8404C8.66763 31.8404 7.95473 31.4121 7.95473 30.8409C7.95473 30.4126 8.66763 29.8415 9.38053 29.8415ZM17.0798 32.8399C17.7927 32.8399 18.5056 33.2682 18.5056 33.8393C18.5056 34.4105 17.9353 34.8388 17.0798 34.8388C16.3669 34.8388 15.654 34.4105 15.654 33.8393C15.654 33.2682 16.2243 32.8399 17.0798 32.8399ZM13.2302 32.8399C13.9431 32.8399 14.656 33.2682 14.656 33.8393C14.656 34.4105 14.0857 34.8388 13.2302 34.8388C12.5173 34.8388 11.8044 34.4105 11.8044 33.8393C11.8044 33.2682 12.5173 32.8399 13.2302 32.8399ZM9.38053 32.8399C10.0934 32.8399 10.8063 33.2682 10.8063 33.8393C10.8063 34.4105 10.236 34.8388 9.38053 34.8388C8.66763 34.8388 7.95473 34.4105 7.95473 33.8393C7.95473 33.2682 8.66763 32.8399 9.38053 32.8399ZM17.9353 20.5607H8.23989V22.4169H18.0779V20.5607H17.9353ZM8.09732 19.8468H18.0779C18.5056 19.8468 18.7908 20.1324 18.7908 20.5607V22.5596C18.7908 22.988 18.5056 23.2735 18.0779 23.2735H8.09732C7.66958 23.2735 7.38442 22.988 7.38442 22.5596V20.5607C7.38442 20.1324 7.81216 19.8468 8.09732 19.8468ZM18.5056 18.5618H7.81216C6.95668 18.5618 6.24378 19.2757 6.24378 20.1324V34.4105C6.24378 35.2672 6.95668 35.9811 7.81216 35.9811H18.5056C19.3611 35.9811 20.074 35.2672 20.074 34.4105V20.1324C20.074 19.2757 19.3611 18.5618 18.5056 18.5618ZM7.81216 17.7051H18.5056C19.7888 17.7051 20.9295 18.7045 20.9295 20.1324V34.4105C20.9295 35.6955 19.9314 36.8377 18.5056 36.8377H7.81216C6.52894 36.8377 5.38831 35.8383 5.38831 34.4105V20.1324C5.38831 18.8473 6.52894 17.7051 7.81216 17.7051Z" fill="white"/>
<path d="M41.1757 4.14062L47.3066 7.42459L53.4375 4.14062L53.8653 4.85453L47.3066 8.28128L40.7479 4.85453L41.1757 4.14062ZM46.8789 10.1374L39.7499 6.5679V17.7048L46.8789 21.2744V10.1374ZM47.3066 22.4166L38.8944 18.276V5.28287L47.3066 9.42353L55.7188 5.28287V18.276L47.3066 22.4166ZM47.7343 10.1374V21.2744L54.8633 17.7048V6.5679L47.7343 10.1374Z" fill="white"/>
<path d="M25.3496 52.9719H22.9258V55.3992H25.3496L26.3477 57.8265L24.6367 59.5398L26.3477 61.2532L28.0587 59.5398L30.4825 60.5393V62.8238H32.9063V60.3965L35.3302 59.3971L37.0411 61.1104L38.7521 59.3971L36.756 57.6837L37.754 55.2564H40.1779V52.8291H37.754L36.756 50.5447L38.4669 48.8313L36.8986 47.1179L35.1876 48.8313L32.7638 47.8318V45.4045H30.3399V47.8318L27.9161 48.8313L26.3477 47.1179L24.6367 48.8313L26.3477 50.5447L25.3496 52.9719ZM24.9219 52.1152L25.4922 50.6874L23.6387 48.8313L26.4903 45.9757L28.4864 47.8318L29.9122 47.2607V44.5479H33.9044V47.2607L35.3302 47.8318L37.3263 45.9757L40.1779 48.8313L38.1818 50.6874L38.7521 52.1152H41.0334V56.1131H38.3244L37.754 57.5409L39.7502 59.3971L36.8986 62.2527L34.9025 60.3965L33.4767 60.9677V63.6805H29.627V60.9677L28.2012 60.3965L26.2051 62.3955L23.3535 59.5398L25.2071 57.5409L24.6367 56.1131H21.9277V52.1152H24.9219ZM31.6231 51.1158C29.9122 51.1158 28.629 52.4008 28.629 54.1142C28.629 55.8275 30.0548 57.1126 31.6231 57.1126C33.3341 57.1126 34.6173 55.6848 34.6173 54.1142C34.6173 52.4008 33.1915 51.1158 31.6231 51.1158ZM31.6231 50.2591C33.7618 50.2591 35.4728 51.9725 35.4728 54.1142C35.4728 56.2559 33.7618 57.9693 31.6231 57.9693C29.4844 57.9693 27.7735 56.2559 27.7735 54.1142C27.7735 51.9725 29.4844 50.2591 31.6231 50.2591Z" fill="white"/>
<path d="M93.7676 23.5819H88.8495L87.8659 26.3399H84.915L90.0299 12.5498H92.5873L97.7021 26.3399H94.7512L93.7676 23.5819ZM89.6364 21.4149H93.1774L91.4069 16.2928L89.6364 21.4149Z" fill="#EB5D19"/>
<path d="M104.194 20.8241H102.62V26.5372H99.8662V12.7471H102.62V18.2631H103.997L107.342 12.7471H110.883L106.555 19.2481L111.276 26.5372H107.932L104.194 20.8241Z" fill="#EB5D19"/>
<path d="M120.719 23.5819H115.801L114.818 26.3399H111.867L116.982 12.5498H119.539L124.654 26.3399H121.703L120.719 23.5819ZM116.588 21.4149H120.129L118.359 16.0958L116.588 21.4149Z" fill="#EB5D19"/>
<path d="M139.604 29.8862H137.047V26.5372H128.784V29.8862H126.03L125.833 24.1732H126.817C127.407 23.7792 127.801 22.9912 128.194 22.2031C128.588 21.2181 128.784 20.2331 128.784 18.8541L129.178 12.7471H138.227V24.1732H139.998L139.604 29.8862ZM130.161 24.1732H135.473V14.9141H131.932L131.735 18.4601C131.538 21.0211 130.948 22.9912 130.161 24.1732Z" fill="#EB5D19"/>
<path d="M150.424 20.4301H144.916V24.1732H151.211V26.5372H141.965V12.7471H151.211V15.1111H144.916V18.4601H150.424V20.4301Z" fill="#EB5D19"/>
<path d="M157.309 12.7471L160.85 22.7941L164.391 12.7471H168.129V26.5372H165.375V22.7941L165.572 16.2931L161.834 26.5372H159.867L156.129 16.2931L156.326 22.7941V26.5372H153.572V12.7471H157.309Z" fill="#EB5D19"/>
<path d="M179.539 12.7471H182.293V26.5372H179.539V17.2781L174.031 26.5372H171.276V12.7471H174.031V22.0061L179.539 12.7471Z" fill="#EB5D19"/>
<path d="M191.933 26.5369V21.6119H189.572L187.015 26.5369H183.867L186.818 20.6269C185.441 19.8389 184.654 18.6568 184.654 16.8838C184.654 15.5048 185.047 14.5198 186.031 13.7318C186.818 12.9438 188.195 12.5498 189.769 12.5498H194.687V26.3399H191.933V26.5369ZM187.605 17.0808C187.605 17.8688 187.801 18.4598 188.195 18.6568C188.588 19.0509 189.178 19.2479 189.965 19.2479H191.933V14.9138H189.965C188.392 14.9138 187.605 15.7018 187.605 17.0808Z" fill="#EB5D19"/>
<path d="M207.671 19.2479L210.228 12.7468H213.376L208.654 24.1729L208.261 24.9609C207.474 26.1429 206.49 26.7339 204.916 26.7339H203.933V24.3699C204.129 24.3699 204.326 24.3699 204.72 24.3699C205.113 24.3699 205.507 24.3699 205.703 24.1729C205.9 23.9759 206.097 23.7789 206.293 23.3849L206.687 22.3999L201.769 12.5498H204.916L207.671 19.2479Z" fill="#EB5D19"/>
<path d="M226.753 26.5372H223.999V15.1111H218.491V26.5372H215.736V12.7471H226.95V26.5372H226.753Z" fill="#EB5D19"/>
<path d="M232.655 21.6121V26.5372H229.901V12.7471H235.212C236.196 12.7471 237.179 12.9441 237.966 13.3381C238.753 13.7321 239.343 14.3231 239.737 14.9141C240.13 15.5051 240.327 16.4901 240.327 17.2781C240.327 18.6571 239.934 19.6421 238.95 20.4301C237.966 21.2181 236.786 21.6121 235.212 21.6121H232.655ZM232.655 19.2481H235.212C235.999 19.2481 236.589 19.0511 236.983 18.6571C237.376 18.2631 237.573 17.8691 237.573 17.0811C237.573 16.4901 237.376 15.8991 236.983 15.5051C236.589 15.1111 235.999 14.9141 235.409 14.9141H232.851V19.2481H232.655Z" fill="#EB5D19"/>
<path d="M249.179 23.5819H244.261L243.278 26.3399H240.327L245.441 12.5498H247.999L253.114 26.3399H250.163L249.179 23.5819ZM245.048 21.4149H248.589L246.819 16.2928L245.048 21.4149Z" fill="#EB5D19"/>
<path d="M255.278 26.5372V12.7471H259.999C261.573 12.7471 262.95 13.1411 263.737 13.7321C264.524 14.3231 265.114 15.3081 265.114 16.4901C265.114 17.0811 264.917 17.6721 264.524 18.2631C264.131 18.8541 263.737 19.2481 263.147 19.4451C263.934 19.6421 264.327 20.0361 264.721 20.4301C265.114 21.0211 265.311 21.6121 265.311 22.4002C265.311 23.7792 264.917 24.7642 264.13 25.3552C263.344 25.9462 262.163 26.3402 260.589 26.3402H255.278V26.5372ZM258.032 18.4601H260.196C261.573 18.4601 262.36 17.8691 262.36 16.6871C262.36 16.0961 262.163 15.7021 261.77 15.3081C261.376 15.1111 260.786 14.9141 259.999 14.9141H258.032V18.4601ZM258.032 20.4301V24.1732H260.393C260.983 24.1732 261.573 23.9762 261.967 23.7792C262.36 23.5822 262.557 22.9912 262.557 22.4002C262.557 21.2181 261.967 20.4301 260.589 20.4301H258.032Z" fill="#EB5D19"/>
<path d="M279.475 12.7471V26.5372H276.72V15.1111H272.983L272.786 20.0361C272.786 21.6121 272.392 22.9912 272.196 23.9762C271.802 24.9612 271.409 25.5522 270.819 26.1432C270.228 26.5372 269.442 26.7342 268.261 26.7342H267.474V24.3702H267.868C268.655 24.3702 269.048 23.7792 269.442 23.1882C269.835 22.5971 270.032 21.2181 270.032 19.2481L270.228 12.9441H279.475V12.7471Z" fill="#EB5D19"/>
<path d="M290.885 20.4301H285.376V24.1732H291.671V26.5372H282.425V12.7471H291.671V15.1111H285.376V18.4601H290.885V20.4301Z" fill="#EB5D19"/>
<path d="M305.442 26.5372H302.688V20.6271H297.18V26.5372H294.426V12.7471H297.18V18.2631H302.688V12.7471H305.442V26.5372Z" fill="#EB5D19"/>
<path d="M316.853 12.7471H319.607V26.5372H316.853V17.2781L311.344 26.5372H308.59V12.7471H311.344V22.0061L316.853 12.7471Z" fill="#EB5D19"/>
<path d="M329.049 26.5369V21.6119H326.885L324.328 26.5369H321.18L324.131 20.6269C322.754 19.8389 321.967 18.6568 321.967 16.8838C321.967 15.5048 322.361 14.5198 323.344 13.7318C324.131 12.9438 325.508 12.5498 327.082 12.5498H332V26.3399H329.049V26.5369ZM324.918 17.0808C324.918 17.8688 325.115 18.4598 325.508 18.6568C325.902 19.0509 326.492 19.2479 327.279 19.2479H329.246V14.9138H327.279C325.705 14.9138 324.918 15.7018 324.918 17.0808Z" fill="#EB5D19"/>
<path d="M93.1777 35.9932H95.9318V49.7833H93.1777V40.7212L87.6694 49.7833H84.9153V35.9932H87.6694V45.2522L93.1777 35.9932Z" fill="#EB5D19"/>
<path d="M115.211 49.7833H112.457V38.3572H106.948V49.7833H104.194V35.9932H115.408V49.7833H115.211Z" fill="#EB5D19"/>
<path d="M121.309 44.8583V49.7833H118.555V35.9932H123.866C124.85 35.9932 125.834 36.1902 126.621 36.5842C127.408 36.9782 127.998 37.5692 128.391 38.1602C128.785 38.9482 128.981 39.7362 128.981 40.5242C128.981 41.9032 128.588 42.8882 127.604 43.6762C126.621 44.4642 125.44 44.8583 123.866 44.8583H121.309ZM121.309 42.6912H123.866C124.653 42.6912 125.244 42.4942 125.637 42.1002C126.03 41.7062 126.227 41.3122 126.227 40.5242C126.227 39.9332 126.03 39.3422 125.637 38.9482C125.244 38.5542 124.653 38.3572 124.063 38.3572H121.506V42.6912H121.309Z" fill="#EB5D19"/>
<path d="M142.949 43.085C142.949 44.464 142.752 45.646 142.162 46.631C141.769 47.616 140.982 48.404 140.195 48.995C139.211 49.586 138.228 49.783 137.047 49.783C135.867 49.783 134.883 49.586 133.9 48.995C132.916 48.404 132.326 47.616 131.736 46.631C131.146 45.646 130.949 44.464 130.949 43.085V42.494C130.949 41.115 131.146 39.9329 131.736 38.9479C132.129 37.9629 132.916 37.1749 133.9 36.5839C134.883 35.9929 135.867 35.7959 137.047 35.7959C138.228 35.7959 139.211 35.9929 140.195 36.5839C141.179 37.1749 141.769 37.9629 142.359 38.9479C142.752 39.9329 143.146 41.115 143.146 42.494V43.085H142.949ZM139.998 42.494C139.998 41.115 139.802 39.9329 139.211 39.1449C138.621 38.3569 138.031 37.9629 137.047 37.9629C136.064 37.9629 135.277 38.3569 134.883 39.1449C134.293 39.9329 134.097 40.9179 134.097 42.494V43.085C134.097 44.464 134.293 45.646 134.883 46.434C135.474 47.222 136.064 47.616 137.047 47.616C138.031 47.616 138.818 47.222 139.211 46.434C139.802 45.646 139.998 44.661 139.998 43.085V42.494Z" fill="#EB5D19"/>
<path d="M153.966 35.9932H156.72V49.7833H153.966V40.7212L148.457 49.7833H145.703V35.9932H148.457V45.2522L153.966 35.9932Z" fill="#EB5D19"/>
<path d="M166.753 39.7359C166.753 39.1449 166.556 38.7509 166.162 38.5539C165.769 38.1599 165.179 38.1599 164.589 38.1599C163.999 38.1599 163.408 38.3569 163.015 38.5539C162.621 38.9479 162.425 39.1449 162.425 39.7359H159.671C159.671 38.9479 159.867 38.3569 160.261 37.7659C160.654 37.1749 161.244 36.7809 162.031 36.3869C162.818 35.9929 163.605 35.7959 164.589 35.7959C166.162 35.7959 167.343 36.1899 168.326 36.7809C169.31 37.3719 169.703 38.3569 169.703 39.7359C169.703 40.3269 169.507 40.9179 169.113 41.5089C168.72 42.1 168.13 42.494 167.54 42.691C168.326 42.888 168.917 43.282 169.31 43.873C169.703 44.464 169.9 45.055 169.9 45.843C169.9 47.025 169.507 48.01 168.523 48.798C167.54 49.586 166.359 49.98 164.589 49.98C163.605 49.98 162.621 49.783 161.835 49.389C161.048 48.995 160.457 48.601 160.064 48.01C159.671 47.419 159.474 46.631 159.474 45.843H162.425C162.425 46.237 162.621 46.828 163.015 47.025C163.408 47.419 163.999 47.616 164.589 47.616C165.376 47.616 165.966 47.419 166.359 47.025C166.753 46.631 166.949 46.237 166.949 45.646C166.949 44.858 166.753 44.464 166.359 44.07C165.966 43.676 165.376 43.676 164.589 43.676H162.818V41.5089H164.589C165.966 41.5089 166.753 40.9179 166.753 39.7359Z" fill="#EB5D19"/>
<path d="M172.457 49.7833V35.9932H177.375C178.949 35.9932 180.326 36.3872 181.113 36.9782C181.9 37.5692 182.49 38.5542 182.49 39.7362C182.49 40.3272 182.293 40.9182 181.9 41.5092C181.506 42.1002 181.113 42.4942 180.523 42.6912C181.31 42.8882 181.703 43.2822 182.097 43.6762C182.49 44.2672 182.687 44.8582 182.687 45.6462C182.687 47.0253 182.293 48.0103 181.506 48.6013C180.719 49.1923 179.539 49.5863 177.965 49.5863H172.457V49.7833ZM175.408 41.7062H177.572C178.949 41.7062 179.736 41.1152 179.736 39.9332C179.736 39.3422 179.539 38.9482 179.146 38.5542C178.752 38.3572 178.162 38.1602 177.375 38.1602H175.408V41.7062ZM175.408 43.6762V47.4193H177.769C178.359 47.4193 178.949 47.2223 179.342 47.0253C179.736 46.8283 179.933 46.2373 179.933 45.6462C179.933 44.4642 179.342 43.6762 177.965 43.6762H175.408Z" fill="#EB5D19"/>
<path d="M196.851 43.085C196.851 44.464 196.655 45.646 196.065 46.631C195.671 47.616 194.884 48.404 194.097 48.995C193.114 49.586 192.13 49.783 190.95 49.783C189.769 49.783 188.786 49.586 187.802 48.995C186.819 48.404 186.228 47.616 185.638 46.631C185.048 45.646 184.851 44.464 184.851 43.085V42.494C184.851 41.115 185.048 39.9329 185.638 38.9479C186.032 37.9629 186.819 37.1749 187.802 36.5839C188.786 35.9929 189.769 35.7959 190.95 35.7959C192.13 35.7959 193.114 35.9929 194.097 36.5839C195.081 37.1749 195.671 37.9629 196.261 38.9479C196.655 39.9329 197.048 41.115 197.048 42.494V43.085H196.851ZM193.901 42.494C193.901 41.115 193.704 39.9329 193.114 39.1449C192.524 38.3569 191.933 37.9629 190.95 37.9629C189.966 37.9629 189.179 38.3569 188.786 39.1449C188.196 39.9329 187.999 40.9179 187.999 42.494V43.085C187.999 44.464 188.196 45.646 188.786 46.434C189.376 47.222 189.966 47.616 190.95 47.616C191.933 47.616 192.72 47.222 193.114 46.434C193.704 45.646 193.901 44.661 193.901 43.085V42.494Z" fill="#EB5D19"/>
<path d="M211.802 53.1323H209.244V49.7833H200.982V53.1323H198.228L198.031 47.4193H199.015C199.605 47.0253 199.998 46.2373 200.392 45.4492C200.785 44.4642 200.982 43.4792 200.982 42.1002L201.375 35.9932H210.425V47.4193H211.999L211.802 53.1323ZM202.359 47.4193H207.671V38.1602H204.13L203.933 41.7062C203.736 44.2672 203.146 46.2373 202.359 47.4193Z" fill="#EB5D19"/>
<path d="M224.786 45.252C224.59 46.828 224.196 47.813 223.212 48.798C222.229 49.586 220.852 49.98 219.278 49.98C217.507 49.98 216.13 49.389 215.147 48.207C214.163 47.025 213.573 45.449 213.573 43.282V42.494C213.573 41.1149 213.77 39.9329 214.36 38.9479C214.753 37.9629 215.54 37.1749 216.327 36.5839C217.114 35.9929 218.294 35.7959 219.278 35.7959C220.852 35.7959 222.229 36.1899 223.212 36.9779C224.196 37.7659 224.786 38.9479 224.983 40.5239H222.229C222.229 39.5389 221.835 38.9479 221.442 38.5539C221.049 38.1599 220.458 37.9629 219.475 37.9629C218.491 37.9629 217.901 38.3569 217.311 38.9479C216.917 39.5389 216.524 40.7209 216.524 42.1V43.282C216.524 44.858 216.721 45.843 217.114 46.631C217.507 47.222 218.294 47.616 219.278 47.616C220.065 47.616 220.852 47.419 221.245 47.025C221.639 46.631 221.835 46.04 222.032 45.252H224.786Z" fill="#EB5D19"/>
<path d="M237.376 38.3572H233.245V49.7833H230.491V38.3572H226.36V35.9932H237.573V38.3572H237.376Z" fill="#EB5D19"/>
<path d="M239.54 49.7833V35.9932H244.458C246.032 35.9932 247.409 36.3872 248.196 36.9782C248.983 37.5692 249.573 38.5542 249.573 39.7362C249.573 40.3272 249.376 40.9182 248.983 41.5092C248.589 42.1002 248.196 42.4942 247.605 42.6912C248.392 42.8882 248.786 43.2822 249.179 43.6762C249.573 44.2672 249.769 44.8582 249.769 45.6462C249.769 47.0253 249.376 48.0103 248.589 48.6013C247.802 49.1923 246.622 49.5863 245.048 49.5863H239.54V49.7833ZM242.491 41.7062H244.655C246.032 41.7062 246.819 41.1152 246.819 39.9332C246.819 39.3422 246.622 38.9482 246.228 38.5542C245.835 38.3572 245.245 38.1602 244.458 38.1602H242.491V41.7062ZM242.491 43.6762V47.4193H244.851C245.442 47.4193 246.032 47.2223 246.425 47.0253C246.819 46.8283 247.015 46.2373 247.015 45.6462C247.015 44.4642 246.425 43.6762 245.048 43.6762H242.491Z" fill="#EB5D19"/>
<path d="M260.196 46.828H255.278L254.294 49.586H251.344L256.458 35.7959H259.016L264.131 49.586H261.18L260.196 46.828ZM255.868 44.661H259.409L257.639 39.5389L255.868 44.661Z" fill="#EB5D19"/>
</svg>
