<svg width="824" height="689" viewBox="0 0 824 689" fill="none" xmlns="http://www.w3.org/2000/svg">
<path d="M601.26 656.802C595.725 622.633 552.011 621.488 526.432 613.089C473.174 595.718 448.549 519.935 388.038 521.462C379.639 521.653 369.712 524.135 365.131 531.961C354.06 550.477 385.174 567.085 397.964 573.766C444.159 597.818 473.365 634.278 513.833 665.583C530.059 678.182 549.72 689.253 570.909 688.872C588.662 688.299 604.315 676.273 601.26 656.802Z" fill="#4FB096"/>
<path d="M297.366 382.686C288.585 370.469 276.559 360.543 264.724 351.571C248.307 338.973 200.203 296.977 178.251 314.921C154.39 334.391 192.568 378.105 209.366 389.94C220.056 397.385 232.082 401.775 244.871 404.257C257.661 406.547 269.496 410.747 280.186 418.382C288.966 424.682 299.847 431.363 305.574 416.473C309.773 404.829 304.238 391.849 297.366 382.686Z" fill="#FFBE63"/>
<path d="M599.733 103.416C605.842 107.806 612.141 111.815 618.44 115.633C623.976 111.051 646.883 90.817 651.846 85.4721C666.353 70.0101 676.28 56.6479 682.006 46.3399C686.397 38.5135 694.032 22.8606 686.779 18.2793C688.306 14.4615 690.787 9.49838 686.206 7.20772C685.442 6.82594 684.87 6.63505 684.106 6.63505C684.488 4.53527 684.106 2.62639 682.006 1.09928C676.471 -3.10027 669.217 5.87148 665.59 8.9257C649.173 23.0515 631.994 36.6046 614.432 49.2032C599.733 59.7021 584.462 69.8192 569 79.1728C578.926 87.9536 589.425 95.971 599.733 103.416Z" fill="#FFA67D"/>
<path d="M668.835 32.596C675.325 24.9604 680.479 16.7522 684.297 7.58954C684.679 6.6351 683.152 6.06242 682.579 7.01687C678.761 15.9886 673.607 24.1969 667.308 31.6415C666.735 32.596 668.072 33.5504 668.835 32.596Z" fill="#2B244A"/>
<path d="M677.616 38.7045C681.816 32.596 685.061 26.1058 687.351 19.0429C687.733 18.0885 686.015 17.5158 685.633 18.4702C683.343 25.3422 680.097 31.6416 676.089 37.75C675.516 38.5136 676.852 39.468 677.616 38.7045Z" fill="#2B244A"/>
<path d="M85.0973 188.743C77.2709 183.398 74.0259 180.725 66.5812 174.617C59.7092 168.127 53.219 161.064 47.4924 153.428C44.4381 149.229 41.3838 145.029 38.7114 140.639C36.6116 137.393 35.0846 133.385 32.2213 130.521C29.7397 128.04 25.9218 127.085 23.0585 128.803C21.5314 126.131 19.2408 120.023 15.6139 119.259C11.6053 118.495 9.88721 122.313 11.0325 126.322C8.74187 124.604 5.87852 124.222 4.92408 127.849C4.16052 130.331 5.11506 134.148 5.49684 136.439C6.0695 140.639 7.02388 144.838 8.16921 148.847C10.0781 155.91 12.9415 162.782 16.5684 169.272C14.2777 167.745 11.7962 166.027 9.31461 164.5C6.83306 162.973 3.39697 161.255 1.1063 164.118C-3.66592 169.845 8.36012 180.725 11.4143 183.97C23.2494 196.951 37.3752 207.641 52.8372 215.467C62.1908 224.821 72.1169 233.792 82.234 242.382C83.5702 225.775 81.8522 205.732 85.0973 188.743Z" fill="#FFA67D"/>
<path d="M10.4598 127.086C14.4685 137.203 19.0498 146.939 24.2038 156.674C24.7765 157.628 26.3036 156.865 25.7309 155.91C20.5769 146.366 15.9956 136.44 11.9869 126.323C11.6051 125.368 10.078 126.132 10.4598 127.086Z" fill="#2B244A"/>
<path d="M22.6767 130.14C25.9218 137.966 29.1669 145.984 32.6028 153.619C32.9846 154.574 34.5118 153.81 34.13 152.856C30.6941 145.029 27.4489 137.203 24.2038 129.376C23.822 128.231 22.2949 128.995 22.6767 130.14Z" fill="#2B244A"/>
<path d="M15.2321 168.7C18.6681 172.899 22.1041 177.099 25.5401 181.298C26.3037 182.062 27.4489 180.917 26.8763 180.153C23.4403 175.953 20.0043 171.754 16.5683 167.554C15.8048 166.791 14.6594 167.936 15.2321 168.7Z" fill="#2B244A"/>
<path d="M598.015 60.6565C514.979 103.034 436.142 156.864 365.513 203.632C363.031 205.159 360.741 206.877 358.259 208.404C358.068 208.595 357.877 208.786 357.877 209.168C326.572 227.493 290.875 241.619 254.988 247.727C213.184 241.619 114.685 203.823 81.4705 186.07C77.6527 194.088 74.7894 201.723 72.3078 210.122C69.2536 220.43 66.772 230.929 66.0084 242.192C69.6353 245.055 82.0431 254.599 89.6787 260.517C92.542 269.871 96.3598 279.033 101.896 287.051C112.776 302.894 129.765 310.912 147.9 316.066C157.826 318.929 168.134 321.029 178.06 324.083C189.323 327.328 200.967 330.382 210.893 336.3C234.181 350.235 259.379 359.397 288.967 359.97C309.964 385.549 332.107 414.182 362.268 427.926C369.712 431.362 387.274 430.408 387.274 430.408C387.274 430.408 400.446 434.417 407.508 435.944C408.654 436.135 412.662 432.699 411.517 432.317H411.326C434.996 408.647 459.621 386.122 485.2 364.742C485.773 365.124 487.491 364.933 487.491 364.17C487.873 355.198 483.673 347.753 480.428 338.781C476.61 328.473 471.647 319.12 468.211 308.621C464.393 297.168 459.239 286.478 452.558 276.743C485.582 261.281 536.358 237.801 552.966 217.758C565.373 202.678 560.41 194.66 570.527 178.244C576.254 169.081 583.317 161.637 592.48 155.91C600.497 150.947 609.85 147.702 616.913 141.402C630.085 129.567 634.093 116.396 637.339 102.461C644.21 95.0165 647.646 90.626 655.473 81.8452C633.902 68.2921 618.631 62.7563 598.015 60.6565Z" fill="#F5E3D9"/>
<path d="M275.413 342.599C278.849 348.899 283.049 354.816 287.63 360.161C288.394 360.925 289.539 359.779 288.967 359.016C284.385 353.671 280.376 347.944 276.94 341.836C276.368 340.881 274.841 341.645 275.413 342.599Z" fill="#2B244A"/>
<path d="M288.203 258.035C294.311 252.499 300.42 246.964 306.337 241.428C307.101 240.664 305.956 239.328 305.192 240.092C299.084 245.627 292.975 251.163 287.058 256.699C286.294 257.462 287.439 258.799 288.203 258.035Z" fill="#2B244A"/>
<path d="M288.585 237.61C288.012 244.101 287.439 250.782 286.867 257.272C286.676 258.417 288.394 258.417 288.585 257.272C289.157 250.782 289.73 244.101 290.303 237.61C290.494 236.656 288.776 236.465 288.585 237.61Z" fill="#2B244A"/>
<path d="M332.107 250.4C322.945 246.391 313.973 242.192 304.81 238.183C303.856 237.801 303.283 239.328 304.238 239.901C313.4 243.91 322.372 248.109 331.535 252.118C332.68 252.5 333.253 250.782 332.107 250.4Z" fill="#2B244A"/>
<path d="M323.135 233.411C325.808 239.519 328.48 245.437 331.153 251.545C331.535 252.5 333.062 251.736 332.68 250.782C330.007 244.673 327.335 238.756 324.663 232.647C324.281 231.693 322.754 232.456 323.135 233.411Z" fill="#2B244A"/>
<path d="M303.283 224.63C304.429 236.465 306.337 248.3 307.864 260.326C309.201 270.443 310.919 280.369 316.073 289.341C320.654 297.168 327.144 303.849 332.871 310.912C339.552 318.929 344.706 327.71 349.287 337.063C353.678 345.844 357.686 355.007 363.222 363.215C368.758 371.423 375.821 378.105 383.075 384.595C400.636 400.629 418.389 416.664 435.951 432.508C436.714 433.271 438.051 432.126 437.287 431.362C420.107 415.9 403.118 400.438 385.938 384.786C378.302 377.914 370.476 370.851 364.749 362.261C359.214 354.053 355.205 345.081 350.814 336.109C346.806 327.901 342.224 319.693 336.498 312.439C330.58 304.994 323.708 298.122 318.554 289.914C312.828 280.751 310.919 270.443 309.583 259.753C308.055 247.918 306.146 236.083 305.001 224.057C305.001 223.294 303.283 223.676 303.283 224.63Z" fill="#2B244A"/>
<path d="M977.693 514.781C937.606 514.781 897.329 514.399 857.815 507.336C824.409 501.228 792.34 489.966 764.279 470.495C738.319 452.551 716.175 429.836 690.215 411.701C677.234 402.538 653.946 390.322 630.657 381.922C611.568 375.05 567.855 362.07 501.044 362.834C501.044 362.834 492.263 356.343 485.009 350.999C449.695 389.94 434.424 407.311 387.274 430.408L405.6 445.679C418.771 473.549 440.341 516.308 475.465 545.323C525.287 586.173 589.044 600.49 651.655 601.444C703.386 602.208 763.516 590.755 812.956 574.911C877.095 582.356 948.487 584.074 1012.63 579.111C1006.33 555.249 994.3 533.297 977.693 514.781Z" fill="#373249"/>
<path d="M283.622 220.239L288.203 240.283C288.203 240.283 303.474 246.964 325.426 233.029L320.845 212.222L283.622 220.239Z" fill="#FFA67D"/>
<path d="M340.506 194.088C343.561 188.361 343.561 174.235 331.344 166.218C320.272 158.964 304.619 156.292 290.684 167.745C276.75 179.198 274.268 184.925 268.541 195.233C264.151 203.441 261.097 213.176 270.069 219.858C280.377 227.493 295.648 226.73 303.474 223.866C311.491 221.194 329.053 215.849 340.506 194.088Z" fill="#FFA67D"/>
<path d="M347.378 188.743C347.951 186.834 347.951 184.734 347.188 182.634C345.851 179.198 343.179 177.099 340.125 175.953C340.125 175.571 340.316 175.19 340.125 174.808C339.934 170.608 333.062 166.409 329.053 164.118C330.771 162.782 331.535 160.491 330.771 158.01C329.053 153.237 322.754 152.474 318.363 152.474C311.3 152.283 295.266 154.765 295.075 164.882C294.884 171.181 299.847 175.19 304.047 179.58C301.565 183.97 299.274 188.934 299.656 193.515C300.038 200.005 305.192 199.814 309.773 201.341C309.773 201.341 309.582 201.341 309.582 201.532C305.956 206.495 307.101 213.176 311.873 216.994C317.218 221.194 324.09 220.43 329.817 217.376C330.008 217.376 333.253 215.276 333.062 211.268C340.316 209.931 347.569 206.877 346.042 199.242C345.279 195.806 344.706 195.615 346.233 191.033C346.615 190.27 347.188 189.697 347.378 188.743Z" fill="#373249"/>
<path d="M284.767 225.394L285.912 230.357C289.73 229.975 293.93 228.066 296.793 225.394C297.366 224.821 296.793 224.058 296.22 224.249C292.403 225.394 288.394 225.776 284.767 225.394Z" fill="#373249"/>
<path d="M281.904 175.572C281.904 175.572 271.405 179.962 269.878 181.299C268.351 182.826 269.305 184.735 272.55 189.125C275.986 193.706 281.904 175.572 281.904 175.572Z" fill="#FFA67D"/>
<path d="M288.967 197.142C288.776 203.632 293.739 208.977 300.038 209.168C306.528 209.359 311.873 204.396 312.064 198.096C312.255 191.606 307.292 186.261 300.992 186.07C294.693 185.688 289.348 190.842 288.967 197.142Z" fill="#FFA67D"/>
<path d="M284.576 171.563C283.24 174.617 287.058 174.808 289.348 177.862C291.448 180.725 293.357 182.062 294.693 180.725C296.22 179.198 295.457 174.999 291.639 171.754C288.012 168.699 285.53 169.272 284.576 171.563Z" fill="#373249"/>
<path d="M302.52 193.133C304.619 195.615 305.956 199.242 303.474 201.914C302.71 202.678 303.856 204.014 304.619 203.25C305.956 201.723 306.528 199.623 306.528 197.715C306.528 195.424 305.192 193.706 303.856 191.988C303.092 191.224 301.756 192.37 302.52 193.133Z" fill="#373249"/>
<path d="M281.331 181.107C282.667 183.207 285.149 183.78 287.439 183.971C288.585 184.162 288.585 182.444 287.439 182.253C285.721 182.062 283.813 181.871 282.667 180.344C282.285 179.389 280.758 180.153 281.331 181.107Z" fill="#373249"/>
<path d="M270.069 192.37C269.496 193.324 269.114 194.279 268.541 195.233C267.969 196.379 267.396 197.524 266.823 198.669C271.214 199.433 274.077 198.86 277.704 196.76C274.268 194.851 272.932 194.279 270.069 192.37Z" fill="white"/>
<path d="M540.367 496.264C571.863 514.59 604.887 530.433 639.438 542.459C673.225 554.295 708.158 562.312 743.282 567.848C765.997 571.475 789.095 573.956 812.002 576.056C813.147 576.247 813.147 574.529 812.002 574.338C738.509 567.848 666.162 554.867 598.588 524.516C578.926 515.735 559.837 505.809 541.321 494.928C540.367 494.165 539.412 495.692 540.367 496.264Z" fill="#8D84B8"/>
<path d="M407.89 445.298C447.977 430.599 478.71 399.484 501.235 364.17C501.807 363.215 500.471 362.261 499.708 363.215C477.183 398.339 446.831 429.263 406.936 443.77C405.981 444.152 406.745 445.679 407.89 445.298Z" fill="#8D84B8"/>
<path d="M90.6331 260.326C90.824 239.138 96.7416 218.14 103.995 198.478C104.377 197.524 102.659 196.951 102.277 197.906C94.8326 217.758 88.9151 238.947 88.7242 260.326C88.9151 261.281 90.6331 261.471 90.6331 260.326Z" fill="#2B244A"/>
<path d="M572.627 75.5462C594.198 83.7544 616.341 89.8629 635.62 102.843C636.575 103.416 637.529 102.08 636.575 101.316C617.104 88.3358 594.77 82.0364 573.2 73.8282C572.245 73.6373 571.673 75.1644 572.627 75.5462Z" fill="#2B244A"/>
<path d="M648.219 42.5223C652.037 40.6134 655.855 38.7045 659.672 36.7956C662.918 35.0776 674.371 28.7783 672.271 37.5592C671.317 41.5678 666.163 46.1492 662.918 48.6307C661.963 49.3943 663.109 50.5396 664.063 49.9669C667.69 47.1036 676.852 39.0863 673.989 33.5505C672.462 30.6872 669.026 30.6872 666.354 31.6416C659.863 33.7414 653.373 38.1318 647.265 41.1861C646.501 41.377 647.265 42.9041 648.219 42.5223Z" fill="#2B244A"/>
<path d="M468.02 308.812C464.202 297.358 459.048 286.668 452.367 276.933C449.122 278.269 446.068 279.415 442.823 280.369C439.005 281.705 433.66 283.423 436.333 286.478C440.341 291.059 447.786 299.076 450.649 304.421C454.658 312.438 457.712 321.028 464.966 326.755C468.784 329.618 472.983 331.527 477.565 332.482C474.319 324.464 470.693 317.02 468.02 308.812Z" fill="#373249"/>
<path d="M734.119 333.245C728.201 320.456 716.557 310.911 704.722 303.657C690.405 295.067 674.562 289.341 660.627 279.987C653.373 275.024 647.265 269.107 641.92 262.426C637.148 256.699 632.566 250.59 626.84 245.818C615.768 236.656 599.924 235.319 588.28 244.482C579.308 251.354 576.063 262.807 578.163 273.497C582.744 296.404 603.551 311.102 623.213 320.837C646.501 332.482 669.789 343.744 693.078 355.961C697.468 358.252 701.859 360.542 706.249 362.833C710.258 364.933 714.648 367.987 719.23 368.941C723.811 369.896 728.201 368.751 731.637 365.505C740.037 357.106 738.891 343.171 734.119 333.245Z" fill="#FFBE63"/>
<path d="M306.337 427.735C298.893 420.291 291.639 412.083 283.431 405.592C274.65 398.529 258.997 401.775 260.142 415.137C260.524 418.955 262.433 422.581 264.914 425.636C270.259 431.935 277.704 436.325 284.767 440.334C290.303 443.579 307.101 453.314 312.446 444.915C316.073 438.425 310.537 431.935 306.337 427.735Z" fill="#4FB096"/>
<path d="M581.981 267.58C572.627 260.517 561.365 257.845 561.746 269.489C562.128 277.316 580.262 295.45 589.234 291.25C599.16 286.478 591.525 274.834 581.981 267.58Z" fill="#4FB096"/>
<path d="M414.571 606.98C405.79 597.245 393.192 590.563 380.593 587.509C376.394 586.555 370.858 585.791 367.422 589.036C364.177 591.9 364.368 596.672 366.277 600.299C369.331 605.835 376.584 607.743 381.929 610.416C390.328 614.615 398.346 620.533 407.508 623.205C411.708 624.351 416.862 624.16 418.58 619.579C420.107 614.615 417.626 610.225 414.571 606.98Z" fill="#FFBE63"/>
<path d="M487.491 249.255C481.955 244.674 460.385 228.257 453.513 246.201C445.877 266.244 477.755 291.823 493.79 294.114C499.135 294.877 506.389 292.205 507.725 285.524C509.061 278.461 504.289 271.016 501.426 266.053C497.99 259.563 493.217 253.836 487.491 249.255Z" fill="#4FB096"/>
<path d="M596.107 610.226C581.981 602.781 552.775 596.1 549.339 619.579C544.948 648.785 618.631 676.273 634.475 654.13C645.928 637.523 606.415 615.57 596.107 610.226Z" fill="#FFBE63"/>
</svg>
