<svg width="1420" height="696" viewBox="0 0 1420 696" fill="none" xmlns="http://www.w3.org/2000/svg">
<mask id="mask0_3766_1714" style="mask-type:alpha" maskUnits="userSpaceOnUse" x="0" y="44" width="1420" height="652">
<rect y="44" width="1420" height="652" rx="25" fill="#373349"/>
</mask>
<g mask="url(#mask0_3766_1714)">
<path d="M1190.94 181.556C1193.82 186.587 1196.96 191.411 1200.16 196.102C1205.51 194.669 1228.04 187.844 1233.23 185.692C1248.35 179.517 1259.59 173.343 1266.9 167.962C1272.48 163.89 1282.85 155.379 1279.22 149.848C1281.52 147.665 1284.84 144.986 1282.36 141.914C1281.95 141.402 1281.61 141.085 1281.07 140.841C1282.01 139.493 1282.35 138.034 1281.37 136.293C1278.83 131.579 1270.87 135.535 1267.35 136.511C1251.32 141.14 1234.93 145.123 1218.59 148.315C1204.92 150.955 1190.97 153.144 1177.14 154.738C1181.29 164.065 1186.09 173.042 1190.94 181.556Z" fill="#FFA67D"/>
<path d="M1262.06 154.121C1269.05 150.856 1275.29 146.761 1280.9 141.57C1281.47 141.024 1280.59 140.134 1279.88 140.619C1274.33 145.676 1268.09 149.771 1261.29 152.964C1260.59 153.448 1261.22 154.545 1262.06 154.121Z" fill="#2B244A"/>
<path d="M1266.26 161.21C1271.16 158.279 1275.51 154.776 1279.38 150.565C1279.95 150.02 1278.93 149.068 1278.36 149.614C1274.55 153.691 1270.26 157.061 1265.5 160.052C1264.85 160.403 1265.48 161.5 1266.26 161.21Z" fill="#2B244A"/>
<path d="M1340.57 584.881C1338.95 578.163 1332.19 573.463 1326.86 569.897C1319.04 564.708 1284.13 546.178 1278.11 543.426C1268.47 539.022 1260 538.063 1249.64 539.143C1245.24 539.557 1236.6 541.104 1231.31 542.075C1243.82 555.061 1263.48 563.395 1268.96 580.108C1271.27 580.358 1273.72 580.668 1276.24 581.173C1294.87 584.676 1312.94 592.933 1332.11 593.129C1337.39 593.277 1342.2 591.599 1340.57 584.881Z" fill="#E0785E"/>
<path d="M1334.73 592.708C1338.62 587.379 1334.48 581.931 1330.45 577.992C1324.38 572.15 1317.16 567.4 1309.97 563.307C1293.9 554.192 1276.89 546.096 1260.03 538.717C1259.22 538.351 1258.67 539.553 1259.48 539.92C1273.33 546.086 1287.01 552.982 1300.56 559.816C1307 563.08 1313.45 566.673 1319.52 570.739C1324.92 574.499 1339.55 583.927 1333.9 591.684C1333.27 592.364 1334.16 593.254 1334.73 592.708Z" fill="#2B244A"/>
<path d="M1403.59 691.031C1405.79 684.444 1402.48 676.797 1399.32 671.316C1394.49 663.13 1389.63 656.392 1383.89 648.763C1380.85 644.79 1378.34 640.733 1376.59 636.058C1374.91 631.578 1373.88 626.747 1371.88 622.278C1363.29 603.172 1340.13 600.023 1323.71 590.262C1324.15 593.206 1324.64 596.017 1324.87 598.706C1325.44 605.263 1325.48 611.904 1325.91 618.399C1326.26 624.372 1326.27 630.356 1325.76 636.096C1326.16 636.279 1326.69 636.524 1327.09 636.707C1336.26 640.733 1344.22 645.983 1351.45 652.838C1365.22 665.912 1375.89 682.578 1391.88 693.274C1396.47 696.339 1401.39 697.617 1403.59 691.031Z" fill="#F5E3D9"/>
<path d="M1403.59 691.031C1405.92 684.505 1402.75 676.92 1400.24 671.087C1396.57 662.467 1377.22 627.947 1373.6 622.416C1365.5 609.673 1355.56 604.162 1338.52 597.513C1347.76 612.716 1350.47 631.234 1345.95 648.226C1347.84 649.739 1349.68 651.386 1351.52 653.032C1365.29 666.107 1375.97 682.773 1391.96 693.469C1396.47 696.339 1401.39 697.617 1403.59 691.031Z" fill="#E0785E"/>
<path d="M1356.78 643.644C1355.79 647.23 1354.8 650.815 1353.61 654.473C1353.38 655.336 1354.57 655.558 1354.94 654.756C1356.06 651.232 1357.11 647.513 1358.11 643.928C1358.2 643.003 1357.01 642.781 1356.78 643.644Z" fill="#2B244A"/>
<path d="M1363.27 650.326C1362.28 653.911 1361.29 657.497 1360.11 661.155C1359.88 662.017 1361.07 662.239 1361.44 661.438C1362.56 657.913 1363.61 654.195 1364.6 650.609C1364.77 649.88 1363.45 649.597 1363.27 650.326Z" fill="#2B244A"/>
<path d="M802.671 76.3936C798.891 70.1443 797.469 67.2338 794.2 60.5723C791.456 53.8271 789.162 46.8033 787.586 39.6233C786.787 35.7048 785.987 31.7864 785.517 27.8566C785.082 24.9121 785.292 21.6167 784.199 18.6948C783.252 16.1625 780.879 14.2711 778.322 14.5563C778.105 12.1962 778.452 7.18616 776.152 5.48956C773.584 3.67062 771.158 5.7927 770.68 8.96587C769.622 7.02926 767.736 5.84456 765.907 8.07768C764.578 9.5702 764.026 12.5486 763.562 14.2745C762.62 17.3978 761.947 20.6434 761.468 23.8166C760.549 29.3725 760.36 35.1005 760.829 40.806C759.71 39.003 758.519 37.0052 757.267 35.1411C756.014 33.2769 754.153 30.9734 751.631 32.2438C746.452 34.7236 751.409 46.1937 752.513 49.444C756.664 62.3228 763.154 74.332 771.497 84.765C775.067 94.3098 779.161 103.771 783.511 113.026C789.758 101.828 794.962 87.2467 802.671 76.3936Z" fill="#FFA67D"/>
<path d="M760.074 39.9769C761.142 44.0176 762.209 48.0584 763.276 52.0991C763.568 52.8783 764.737 52.4435 764.58 51.7255C763.512 47.6847 762.445 43.644 761.378 39.6032C761.087 38.8241 759.917 39.2589 760.074 39.9769Z" fill="#2B244A"/>
<path d="M1203.41 151.073C1131.61 154.132 1059.1 166.555 994.605 176.664C992.376 176.938 990.22 177.406 987.991 177.68C987.796 177.753 987.601 177.825 987.479 178.092C959.66 180.89 930.104 179.341 902.978 172.118C875.608 154.448 818.604 96.4292 800.982 73.3594C795.741 77.7485 791.291 82.1762 786.864 87.2607C781.426 93.498 776.328 100.052 772.191 107.692C773.819 110.858 779.471 121.515 782.934 128.104C781.952 135.57 781.7 143.207 783.019 150.593C785.585 165.171 794.938 176.226 806.01 185.645C812.057 190.83 818.616 195.603 824.602 200.921C831.464 206.801 838.655 212.67 843.725 219.993C855.605 237.21 870.349 251.698 890.92 261.579C897.469 286.213 903.845 313.352 920.606 332.637C924.729 337.428 937.353 342.387 937.353 342.387C937.353 342.387 945.31 349.413 949.776 352.745C950.518 353.246 954.429 352.125 953.747 351.491L953.613 351.429C977.786 342.444 1002.26 334.566 1027.04 327.795C1027.32 328.246 1028.59 328.663 1028.83 328.128C1031.97 321.97 1031.4 315.413 1031.99 308.093C1032.61 299.653 1032.12 291.515 1033.07 283.065C1034.05 273.824 1033.86 264.689 1032.28 255.734C1060.39 255.491 1103.52 255.324 1121.57 246.614C1135.1 240.033 1134.18 232.83 1146.53 224.58C1153.47 220.001 1160.81 217.052 1169.07 215.979C1176.28 215.074 1183.88 215.799 1190.85 213.652C1203.87 209.588 1210.89 201.652 1217.62 192.937C1224.83 189.927 1228.64 187.955 1236.94 184.315C1226.14 167.916 1217.2 159.148 1203.41 151.073Z" fill="#F5E3D9"/>
<path d="M886.968 245.075C887.364 250.586 888.418 256.074 889.922 261.284C890.214 262.063 891.383 261.628 891.226 260.91C889.721 255.701 888.741 250.407 888.284 245.03C888.187 244.179 886.872 244.224 886.968 245.075Z" fill="#2B244A"/>
<path d="M922.981 189.976C929.036 188.058 935.091 186.14 941.011 184.161C941.791 183.871 941.415 182.569 940.635 182.858C934.581 184.776 928.526 186.694 922.605 188.674C921.825 188.963 922.201 190.266 922.981 189.976Z" fill="#2B244A"/>
<path d="M929.779 175.801C927.302 180.161 924.764 184.654 922.287 189.014C921.787 189.755 922.992 190.305 923.492 189.565C925.969 185.205 928.507 180.711 930.984 176.351C931.423 175.744 930.279 175.06 929.779 175.801Z" fill="#2B244A"/>
<path d="M956.218 198.699C951.073 192.957 946.123 187.143 940.978 181.401C940.43 180.828 939.54 181.713 940.027 182.42C945.172 188.162 950.122 193.976 955.267 199.718C955.948 200.352 956.9 199.333 956.218 198.699Z" fill="#2B244A"/>
<path d="M955.357 183.932C955.278 189.065 955.261 194.063 955.182 199.196C955.145 199.986 956.46 199.941 956.497 199.151C956.576 194.018 956.594 189.019 956.672 183.887C956.71 183.097 955.395 183.142 955.357 183.932Z" fill="#2B244A"/>
<path d="M944.24 171.423C941.259 180.074 938.813 188.971 936.039 197.879C933.741 205.389 931.772 212.888 932.519 220.82C933.229 227.767 935.646 234.524 937.404 241.303C939.527 249.056 940.334 256.854 940.556 264.87C940.828 272.424 940.71 280.122 941.968 287.642C943.227 295.162 946.044 302.102 949.057 308.969C956.248 325.821 963.573 342.734 970.825 359.452C971.117 360.231 972.42 359.858 972.129 359.078C965.022 342.75 958.05 326.482 951.004 310.02C947.846 302.763 944.615 295.311 943.345 287.463C942.086 279.943 942.144 272.378 941.933 264.691C941.746 257.661 941.157 250.447 939.46 243.534C937.689 236.426 935.067 229.414 934.076 222.016C932.989 213.767 934.946 205.94 937.427 198.028C940.141 189.254 942.586 180.358 945.628 171.572C945.873 171.038 944.545 170.754 944.24 171.423Z" fill="#2B244A"/>
<path d="M1324.52 590.628C1296.4 577.784 1268.27 564.611 1242.81 547.006C1221.33 532.026 1202.44 513.867 1188.98 491.246C1176.51 470.367 1168.24 447.37 1155.83 426.357C1149.65 415.784 1137.23 399.77 1123.58 386.428C1112.38 375.501 1085.87 352.408 1038.76 331.536C1038.76 331.536 1034.68 324.179 1031.3 318.113C994.078 334.058 977.811 341.325 937.353 342.387L945.324 358.949C945.651 382.679 947.108 419.523 962.467 451.089C984.351 495.649 1024.49 526.099 1068.11 546.829C1104.15 563.939 1149.99 575.187 1189.73 579.937C1232.34 605.699 1281.87 629.777 1328.45 646.853C1331.66 628.132 1330.24 608.911 1324.52 590.628Z" fill="#F576A6"/>
<path d="M931.852 162.052L928.656 177.551C928.656 177.551 937.231 187.121 957.086 184.4L960.525 168.366L931.852 162.052Z" fill="#FFA67D"/>
<path d="M980.116 161.97C984.09 158.94 988.607 149.052 982.601 139.525C977.154 130.899 967.029 124.013 953.593 127.566C940.156 131.119 936.584 134.333 929.271 139.714C923.566 144.053 918.311 149.889 922.468 157.441C927.257 166.089 938.212 170.448 944.618 170.951C951.096 171.649 965.124 173.534 980.116 161.97Z" fill="#FFA67D"/>
<path d="M986.646 160.429C987.658 159.276 988.33 157.807 988.465 156.092C988.627 153.258 987.424 150.932 985.648 149.152C985.77 148.885 986.026 148.679 986.014 148.35C987.223 145.349 983.745 140.208 981.666 137.32C983.298 136.935 984.567 135.576 984.824 133.594C985.145 129.703 980.971 127.15 977.891 125.743C972.998 123.346 960.957 119.946 957.588 126.967C955.44 131.316 957.64 135.712 959.181 140.131C956.037 142.409 952.843 145.15 951.646 148.479C949.838 153.145 953.514 154.663 956.24 157.2C956.24 157.2 956.106 157.138 956.045 157.272C951.914 159.584 950.581 164.628 952.707 168.83C955.113 173.482 960.178 175.15 965.171 174.846C965.305 174.908 968.253 174.477 969.401 171.61C974.916 172.999 980.981 173.185 982.351 167.351C982.915 164.701 982.574 164.384 985.11 161.666C985.622 161.254 986.207 161.036 986.646 160.429Z" fill="#2B244A"/>
<path d="M931.008 166.026L930.224 169.867C933.024 170.823 936.58 170.832 939.443 169.879C940.028 169.662 939.871 168.944 939.408 168.894C936.364 168.472 933.43 167.455 931.008 166.026Z" fill="#2B244A"/>
<path d="M944.93 130.232C944.93 130.232 936.162 129.942 934.663 130.388C933.104 130.968 933.163 132.61 934.035 136.723C934.981 141.031 944.93 130.232 944.93 130.232Z" fill="#FFA67D"/>
<path d="M942.988 147.593C940.779 152.075 942.551 157.407 946.908 159.559C951.4 161.772 956.736 160.011 958.884 155.662C961.093 151.18 959.321 145.848 954.964 143.696C950.667 141.41 945.27 143.306 942.988 147.593Z" fill="#FFA67D"/>
<path d="M948.087 128.281C946.173 129.991 948.79 131.348 949.42 134.22C949.978 136.897 950.889 138.444 952.254 137.937C953.813 137.357 954.621 134.173 952.98 130.678C951.413 127.378 949.489 126.983 948.087 128.281Z" fill="#2B244A"/>
<path d="M953.776 149.13C954.455 151.54 954.233 154.507 951.638 155.583C950.858 155.873 951.234 157.175 952.014 156.885C953.439 156.244 954.513 154.958 955.123 153.622C955.855 152.018 955.468 150.387 955.08 148.757C954.788 147.977 953.485 148.351 953.776 149.13Z" fill="#2B244A"/>
<path d="M942.759 133.922C943.025 135.82 944.582 137.016 946.128 137.884C946.871 138.384 947.42 137.182 946.678 136.681C945.533 135.997 944.256 135.252 943.941 133.816C943.978 133.025 942.663 133.071 942.759 133.922Z" fill="#2B244A"/>
<path d="M931.258 138.197C930.551 138.682 929.978 139.227 929.271 139.712C928.503 140.33 927.736 140.949 926.968 141.567C929.803 143.508 931.995 144.025 935.21 143.717C933.41 141.28 932.656 140.451 931.258 138.197Z" fill="white"/>
<path d="M1023.68 437.541C1039.91 460.461 1058.01 482.133 1078.4 501.622C1098.31 520.733 1120.25 537.538 1143.12 552.668C1157.9 562.485 1173.3 571.623 1188.7 580.432C1189.44 580.933 1189.99 579.73 1189.25 579.23C1139.77 551.138 1093.18 518.871 1055.48 475.972C1044.5 463.526 1034.28 450.461 1024.78 436.911C1024.35 436.071 1023.19 436.834 1023.68 437.541Z" fill="#8D84B8"/>
<path d="M947.053 359.415C979.871 361.969 1011.38 350.035 1038.47 332.531C1039.18 332.047 1038.55 330.95 1037.7 331.374C1010.67 348.744 979.495 360.667 946.872 358.04C946.08 358.001 946.128 359.315 947.053 359.415Z" fill="#8D84B8"/>
<path d="M1304.94 582.818C1309.8 600.867 1310.84 620.561 1309.93 639.204C1309.9 639.995 1311.21 639.949 1311.25 639.159C1312.22 620.382 1311.18 600.688 1306.24 582.444C1306.01 581.531 1304.84 581.966 1304.94 582.818Z" fill="#8D84B8"/>
<path d="M783.664 128.277C790.574 113.506 801.439 100.703 812.814 89.2633C813.387 88.7175 812.365 87.7661 811.792 88.3119C800.222 99.8239 789.296 112.761 782.325 127.666C782.154 128.395 783.298 129.079 783.664 128.277Z" fill="#2B244A"/>
<path d="M1180.84 153.362C1193.35 166.019 1206.92 177.39 1216.3 192.654C1216.78 193.361 1217.88 192.731 1217.46 191.891C1207.95 176.566 1194.3 165 1181.79 152.342C1181.18 151.903 1180.29 152.788 1180.84 153.362Z" fill="#2B244A"/>
<path d="M1394.43 694.434C1400.53 692.054 1399.95 685.169 1398.84 679.814C1396.9 671.66 1393.39 663.758 1389.5 656.328C1380.94 639.984 1371.09 624.013 1360.98 608.577C1360.5 607.87 1359.4 608.499 1359.82 609.34C1368.12 622.01 1375.84 635.227 1383.48 648.249C1387.41 654.888 1391.08 661.733 1393.83 668.806C1396.29 674.772 1402.75 689.676 1393.98 692.937C1393.27 693.422 1393.65 694.724 1394.43 694.434Z" fill="#2B244A"/>
<path d="M1244.42 154.464C1247.71 154.351 1251 154.238 1254.29 154.125C1257.11 153.962 1267.16 153.222 1262.88 158.696C1260.93 161.197 1255.85 162.752 1252.78 163.45C1251.87 163.678 1252.3 164.847 1253.16 164.752C1256.62 163.91 1265.61 161.233 1265.37 156.441C1265.21 153.947 1262.8 152.846 1260.62 152.658C1255.4 152.048 1249.44 153.042 1244.18 153.223C1243.58 153.112 1243.63 154.426 1244.42 154.464Z" fill="#2B244A"/>
<path d="M1032.87 283.138C1033.86 273.897 1033.66 264.763 1032.09 255.807C1029.38 255.703 1026.88 255.526 1024.29 255.154C1021.19 254.866 1016.89 254.356 1017.79 257.351C1019.14 261.842 1021.79 269.84 1022.09 274.499C1022.34 281.396 1021.74 288.388 1024.99 294.721C1026.76 297.948 1029.09 300.63 1032 302.766C1032.29 296.114 1032.12 289.741 1032.87 283.138Z" fill="#2B244A"/>
<path d="M965.304 435.975C958.656 429.34 952.179 422.025 944.849 416.241C937.008 409.947 923.03 412.839 924.053 424.747C924.394 428.15 926.099 431.382 928.315 434.104C933.088 439.718 939.735 443.63 946.042 447.203C950.986 450.095 965.986 458.771 970.759 451.286C973.998 445.502 969.054 439.718 965.304 435.975Z" fill="#4FB096"/>
<path d="M753.613 611.313C746.964 603.968 737.424 598.927 727.884 596.622C724.704 595.902 720.512 595.326 717.91 597.774C715.453 599.935 715.597 603.536 717.043 606.272C719.355 610.449 724.848 611.889 728.896 613.906C735.256 617.074 741.327 621.539 748.265 623.556C751.445 624.42 755.348 624.276 756.649 620.819C757.805 617.074 755.926 613.762 753.613 611.313Z" fill="#FFBE63"/>
<path d="M1071.75 48.2052C1068.17 45.2727 1054.2 34.7647 1049.75 46.2502C1044.81 59.0798 1065.45 75.4528 1075.83 76.919C1079.29 77.4078 1083.99 75.6972 1084.85 71.4206C1085.72 66.8997 1082.63 62.1345 1080.77 58.9576C1078.55 54.8033 1075.46 51.1377 1071.75 48.2052Z" fill="#4FB096"/>
<path d="M748.003 269.671C746.407 265.122 742.733 261.479 738.916 258.606C734.292 255.195 729.046 252.703 724.579 249.045C722.257 247.109 720.361 244.889 718.753 242.435C717.309 240.325 715.944 238.092 714.14 236.273C710.65 232.779 705.254 231.779 700.942 234.49C697.626 236.515 696.121 240.294 696.478 243.997C697.27 251.936 703.915 257.647 710.336 261.632C717.937 266.39 725.551 271.019 733.133 275.972C734.563 276.901 735.993 277.831 737.422 278.76C738.727 279.612 740.131 280.801 741.672 281.283C743.213 281.765 744.76 281.528 746.051 280.544C749.222 277.98 749.304 273.207 748.003 269.671Z" fill="#F576A6"/>
<path d="M910.468 544.369C913.43 536.212 922.977 534.109 930.627 537.268C942.15 542.133 946.352 554.076 954.021 562.92C961.14 571.102 971.235 572.289 981.379 573.603C999.548 576.033 1016.59 587.22 1027.34 601.729C1029.73 604.886 1031.89 608.572 1032.26 612.517C1032.81 618.435 1029.01 624.436 1023.33 626.35C1018.41 627.969 1012.79 626.649 1008.34 623.851C999.631 618.331 993.857 609.481 986.78 602.158C980.927 596.112 971.924 594.354 965.382 589.16C951.747 578.108 934.199 574.269 918.47 567.972C910.468 564.658 907.246 553.357 910.468 544.369Z" fill="#FFBE63"/>
<path d="M1353.16 202.67C1359.12 193.736 1371.22 194.015 1379.48 200.062C1391.9 209.299 1393.44 224.891 1400.06 237.778C1406.21 249.706 1418 254.102 1429.81 258.665C1450.93 266.928 1468.13 285.388 1476.78 305.989C1478.73 310.488 1480.25 315.554 1479.52 320.404C1478.44 327.679 1472.11 333.775 1464.72 334.406C1458.33 334.906 1451.96 331.667 1447.44 326.996C1438.59 317.799 1434.26 305.462 1427.9 294.579C1422.64 285.589 1412.34 280.829 1406 272.661C1392.86 255.366 1372.9 245.592 1355.84 233.397C1347.2 227.06 1346.64 212.527 1353.16 202.67Z" fill="#EB5D19"/>
<path d="M958.036 559.766C958.979 556.149 962.275 554.868 965.639 556.09C968.725 557.059 971.645 558.995 974.853 560.278C978.715 561.849 982.612 563.045 985.872 565.391C989.907 568.339 995.084 572.831 995.875 578.124C996.345 581.193 995.123 584.558 991.984 585.777C987.372 587.388 981.593 583.672 977.705 581.569C972.388 578.577 967.359 574.931 962.932 570.509C960.396 567.701 956.962 563.977 958.036 559.766Z" fill="#587EE0"/>
<path d="M1363.11 240.402C1359.04 250.537 1366.83 255.778 1375.39 256.936C1378.24 257.322 1382.11 255.971 1382.82 252.593C1384.89 242.197 1368.65 226.684 1363.11 240.402Z" fill="#FFBE63"/>
<path d="M1324.51 590.628C1296.4 577.784 1268.27 564.611 1242.81 547.006C1221.33 532.026 1202.44 513.867 1188.98 491.246C1176.51 470.367 1168.24 447.37 1155.83 426.357C1149.65 415.784 1137.22 399.77 1123.57 386.428C1112.38 375.501 1085.87 352.408 1038.76 331.536C1038.76 331.536 1034.68 324.179 1031.3 318.113C994.077 334.058 977.811 341.325 937.353 342.387L945.323 358.949C945.65 382.679 947.108 419.523 962.466 451.089C984.351 495.649 1024.49 526.099 1068.11 546.829C1104.15 563.939 1149.99 575.187 1189.73 579.937C1232.34 605.699 1281.87 629.777 1328.45 646.853C1331.66 628.132 1330.24 608.911 1324.51 590.628Z" fill="#587EE0"/>
<path d="M931.852 162.052L928.656 177.551C928.656 177.551 937.231 187.121 957.085 184.4L960.525 168.366L931.852 162.052Z" fill="#FFA67D"/>
<path d="M980.116 161.97C984.089 158.94 988.606 149.052 982.6 139.525C977.154 130.899 967.029 124.013 953.592 127.566C940.155 131.119 936.583 134.333 929.27 139.714C923.566 144.053 918.311 149.889 922.467 157.441C927.256 166.089 938.212 170.448 944.617 170.951C951.096 171.649 965.123 173.534 980.116 161.97Z" fill="#FFA67D"/>
<path d="M986.646 160.429C987.658 159.276 988.329 157.807 988.465 156.092C988.627 153.258 987.423 150.932 985.647 149.152C985.769 148.885 986.025 148.679 986.014 148.35C987.223 145.349 983.745 140.208 981.666 137.32C983.298 136.935 984.566 135.576 984.824 133.594C985.145 129.703 980.971 127.15 977.891 125.743C972.998 123.346 960.957 119.946 957.588 126.967C955.44 131.316 957.639 135.712 959.181 140.131C956.037 142.409 952.843 145.15 951.646 148.479C949.838 153.145 953.514 154.663 956.239 157.2C956.239 157.2 956.106 157.138 956.045 157.272C951.913 159.584 950.58 164.628 952.707 168.83C955.113 173.482 960.178 175.15 965.171 174.846C965.305 174.908 968.253 174.477 969.401 171.61C974.916 172.999 980.981 173.185 982.351 167.351C982.914 164.701 982.574 164.384 985.11 161.666C985.622 161.254 986.207 161.036 986.646 160.429Z" fill="#2B244A"/>
<path d="M931.007 166.026L930.224 169.867C933.024 170.823 936.58 170.832 939.443 169.879C940.028 169.662 939.87 168.944 939.407 168.894C936.363 168.472 933.429 167.455 931.007 166.026Z" fill="#2B244A"/>
<path d="M944.93 130.232C944.93 130.232 936.161 129.942 934.663 130.388C933.104 130.968 933.163 132.61 934.035 136.723C934.98 141.031 944.93 130.232 944.93 130.232Z" fill="#FFA67D"/>
<path d="M942.987 147.593C940.778 152.075 942.55 157.407 946.908 159.559C951.399 161.772 956.735 160.011 958.884 155.662C961.093 151.18 959.321 145.848 954.963 143.696C950.667 141.41 945.269 143.306 942.987 147.593Z" fill="#FFA67D"/>
<path d="M948.087 128.281C946.173 129.991 948.79 131.348 949.42 134.22C949.977 136.897 950.889 138.444 952.253 137.937C953.813 137.357 954.62 134.173 952.98 130.678C951.412 127.378 949.489 126.983 948.087 128.281Z" fill="#2B244A"/>
<path d="M953.776 149.13C954.455 151.54 954.233 154.507 951.638 155.583C950.858 155.873 951.234 157.175 952.014 156.885C953.439 156.244 954.512 154.958 955.123 153.622C955.855 152.018 955.467 150.387 955.079 148.757C954.788 147.977 953.484 148.351 953.776 149.13Z" fill="#2B244A"/>
<path d="M942.759 133.923C943.025 135.821 944.582 137.017 946.128 137.885C946.87 138.385 947.42 137.183 946.677 136.682C945.533 135.998 944.255 135.253 943.94 133.817C943.978 133.026 942.662 133.072 942.759 133.923Z" fill="#2B244A"/>
<path d="M931.258 138.198C930.551 138.683 929.978 139.228 929.271 139.713C928.503 140.331 927.735 140.95 926.967 141.568C929.803 143.509 931.994 144.026 935.21 143.718C933.41 141.281 932.656 140.452 931.258 138.198Z" fill="white"/>
<path d="M1023.68 437.541C1039.91 460.461 1058.01 482.133 1078.4 501.622C1098.31 520.733 1120.25 537.538 1143.12 552.668C1157.89 562.485 1173.3 571.623 1188.7 580.432C1189.44 580.933 1189.99 579.73 1189.25 579.23C1139.77 551.138 1093.18 518.871 1055.48 475.972C1044.5 463.526 1034.28 450.461 1024.78 436.911C1024.35 436.071 1023.19 436.834 1023.68 437.541Z" fill="#2B244A"/>
<path d="M947.053 359.415C979.871 361.969 1011.38 350.035 1038.47 332.531C1039.18 332.047 1038.54 330.95 1037.7 331.374C1010.67 348.744 979.495 360.667 946.871 358.04C946.08 358.001 946.127 359.315 947.053 359.415Z" fill="#8D84B8"/>
<path d="M1304.94 582.818C1309.8 600.867 1310.84 620.561 1309.93 639.204C1309.9 639.995 1311.21 639.949 1311.25 639.159C1312.22 620.382 1311.18 600.688 1306.24 582.444C1306.01 581.531 1304.84 581.966 1304.94 582.818Z" fill="#2B244A"/>
<path d="M783.664 128.277C790.573 113.506 801.438 100.703 812.814 89.2633C813.387 88.7175 812.365 87.7661 811.792 88.3119C800.221 99.8239 789.295 112.761 782.325 127.666C782.154 128.395 783.298 129.079 783.664 128.277Z" fill="#2B244A"/>
<path d="M1180.84 153.362C1193.35 166.019 1206.92 177.39 1216.3 192.654C1216.78 193.361 1217.88 192.731 1217.45 191.891C1207.95 176.566 1194.3 165 1181.79 152.342C1181.18 151.903 1180.29 152.788 1180.84 153.362Z" fill="#2B244A"/>
<path d="M1394.43 694.434C1400.53 692.054 1399.95 685.169 1398.84 679.814C1396.9 671.66 1393.39 663.758 1389.5 656.328C1380.94 639.984 1371.09 624.013 1360.98 608.577C1360.5 607.87 1359.4 608.499 1359.82 609.34C1368.12 622.01 1375.83 635.227 1383.48 648.249C1387.41 654.888 1391.08 661.733 1393.83 668.806C1396.29 674.772 1402.75 689.676 1393.98 692.937C1393.27 693.422 1393.65 694.724 1394.43 694.434Z" fill="#2B244A"/>
<path d="M1244.42 154.465C1247.71 154.352 1251 154.239 1254.29 154.126C1257.11 153.963 1267.16 153.223 1262.88 158.697C1260.93 161.198 1255.85 162.753 1252.78 163.451C1251.87 163.679 1252.3 164.848 1253.16 164.753C1256.62 163.911 1265.61 161.234 1265.37 156.442C1265.21 153.948 1262.8 152.847 1260.62 152.659C1255.4 152.049 1249.44 153.043 1244.18 153.224C1243.58 153.113 1243.63 154.426 1244.42 154.465Z" fill="#2B244A"/>
<path d="M1032.87 283.138C1033.86 273.897 1033.66 264.763 1032.09 255.807C1029.38 255.703 1026.88 255.526 1024.29 255.154C1021.19 254.866 1016.89 254.356 1017.79 257.351C1019.14 261.842 1021.79 269.84 1022.09 274.499C1022.34 281.396 1021.74 288.388 1024.99 294.721C1026.76 297.948 1029.09 300.63 1032 302.766C1032.29 296.114 1032.12 289.741 1032.87 283.138Z" fill="#2B244A"/>
<path d="M35.886 147.421C34.2405 137.218 21.2464 136.876 13.6429 134.368C-2.18821 129.18 -9.50798 106.551 -27.4953 107.007C-29.992 107.064 -32.9426 107.805 -34.3044 110.142C-37.5955 115.671 -28.3465 120.63 -24.5447 122.625C-10.8131 129.807 -2.13145 140.695 9.89795 150.043C14.7211 153.805 20.5655 157.111 26.8639 156.997C32.141 156.826 36.7939 153.235 35.886 147.421Z" fill="#FFBE63"/>
<path d="M293.5 566.287C285.826 560.96 269.348 555.028 265.71 568.481C261.116 585.207 301.942 606.374 312.686 594.565C320.495 585.679 299.107 570.122 293.5 566.287Z" fill="#587EE0"/>
<path d="M445.863 298.179C442.704 306.02 448.75 310.075 455.382 310.971C457.593 311.269 460.593 310.224 461.146 307.611C462.755 299.568 450.161 287.566 445.863 298.179Z" fill="#4FB096"/>
</g>
<path d="M802.671 76.3936C798.89 70.1443 797.469 67.2338 794.2 60.5723C791.455 53.8271 789.161 46.8033 787.586 39.6233C786.786 35.7048 785.987 31.7864 785.516 27.8566C785.081 24.9121 785.292 21.6167 784.199 18.6948C783.252 16.1625 780.879 14.2711 778.321 14.5563C778.105 12.1962 778.451 7.18616 776.151 5.48956C773.584 3.67062 771.158 5.7927 770.679 8.96587C769.622 7.02926 767.735 5.84456 765.906 8.07768C764.577 9.5702 764.026 12.5486 763.561 14.2745C762.62 17.3978 761.946 20.6434 761.468 23.8166C760.548 29.3725 760.36 35.1005 760.828 40.806C759.71 39.003 758.518 37.0052 757.266 35.1411C756.014 33.2769 754.153 30.9734 751.631 32.2438C746.452 34.7236 751.408 46.1937 752.513 49.444C756.664 62.3228 763.154 74.332 771.497 84.765C775.067 94.3098 779.16 103.771 783.51 113.026C789.758 101.828 794.962 87.2467 802.671 76.3936Z" fill="#FFA67D"/>
<path d="M770.034 9.31514C769.61 17.6819 769.711 25.9648 770.213 34.4312C770.309 35.2829 771.625 35.2377 771.528 34.386C770.965 26.0532 770.926 17.6366 771.349 9.26991C771.386 8.47944 770.071 8.52467 770.034 9.31514Z" fill="#2B244A"/>
<path d="M777.627 15.3666C777.4 21.8851 777.113 28.5373 777.081 34.9833C777.044 35.7738 778.359 35.7286 778.397 34.9381C778.489 28.3584 778.715 21.8399 778.942 15.3214C779.04 14.3973 777.725 14.4425 777.627 15.3666Z" fill="#2B244A"/>
<path d="M760.074 39.9769C761.141 44.0176 762.208 48.0584 763.276 52.0991C763.567 52.8783 764.737 52.4435 764.579 51.7255C763.512 47.6847 762.445 43.644 761.377 39.6032C761.086 38.8241 759.916 39.2589 760.074 39.9769Z" fill="#2B244A"/>
</svg>
