<?xml version="1.0" encoding="UTF-8" standalone="no"?>
<svg
   xmlns:dc="http://purl.org/dc/elements/1.1/"
   xmlns:cc="http://creativecommons.org/ns#"
   xmlns:rdf="http://www.w3.org/1999/02/22-rdf-syntax-ns#"
   xmlns:svg="http://www.w3.org/2000/svg"
   xmlns="http://www.w3.org/2000/svg"
   xmlns:sodipodi="http://sodipodi.sourceforge.net/DTD/sodipodi-0.dtd"
   xmlns:inkscape="http://www.inkscape.org/namespaces/inkscape"
   width="1336.9618"
   height="707.61456"
   viewBox="0 0 1336.9618 707.61456"
   version="1.1"
   id="svg209"
   sodipodi:docname="modal-sales.svg"
   style="fill:none"
   inkscape:version="0.92.5 (2060ec1f9f, 2020-04-08)">
  <metadata
     id="metadata215">
    <rdf:RDF>
      <cc:Work
         rdf:about="">
        <dc:format>image/svg+xml</dc:format>
        <dc:type
           rdf:resource="http://purl.org/dc/dcmitype/StillImage" />
        <dc:title></dc:title>
      </cc:Work>
    </rdf:RDF>
  </metadata>
  <defs
     id="defs213" />
  <sodipodi:namedview
     pagecolor="#ffffff"
     bordercolor="#666666"
     borderopacity="1"
     objecttolerance="10"
     gridtolerance="10"
     guidetolerance="10"
     inkscape:pageopacity="0"
     inkscape:pageshadow="2"
     inkscape:window-width="1920"
     inkscape:window-height="1027"
     id="namedview211"
     showgrid="false"
     fit-margin-top="0"
     fit-margin-left="0"
     fit-margin-right="0"
     fit-margin-bottom="0"
     inkscape:zoom="0.27473807"
     inkscape:cx="124.03912"
     inkscape:cy="269.16964"
     inkscape:window-x="1280"
     inkscape:window-y="30"
     inkscape:window-maximized="1"
     inkscape:current-layer="svg209" />
  <mask
     id="mask0_3766_1715"
     maskUnits="userSpaceOnUse"
     x="0"
     y="25"
     width="1420"
     height="652">
    <rect
       y="25"
       width="1420"
       height="652"
       rx="25"
       id="rect2"
       x="0"
       style="fill:#373349" />
  </mask>
  <g
     mask="url(#mask0_3766_1715)"
     id="g123"
     transform="translate(-145.28292,8.9449336)">
    <path
       d="m 1005.74,101.541 c 8.04,-8.0586 24.9,-7.2447 34.4,-5.217 22.22,4.893 40.47,19.841 60.71,29.496 11.74,5.593 23.97,8.597 36.95,9.288 12.97,0.692 26.02,-0.212 39.15,0.434 11.71,0.528 23.41,2.282 34.11,7.295 10.65,4.852 19.96,12.361 27.39,21.277 16.28,19.709 22.73,46.758 17.64,78.135 -0.44,0.3 -0.84,0.762 -1.39,1.27 l 1.57,0.604 c 0,0 1.92,44.965 -28.53,49.934 -30.44,4.97 -61.59,-27.67 -86.54,-61.895 -6.02,-8.267 -5.44,-12.984 -1.27,-15.567 -14.03,-5.644 -27.9,-11.333 -41.88,-16.814 -16.43,-6.711 -34.19,-12.522 -48.3,-23.393 -16.33,-12.516 -22.32,-31.121 -26.03,-50.37 -8.2,-4.848 -17.98,-24.477 -17.98,-24.477 z"
       id="path5"
       inkscape:connector-curvature="0"
       style="fill:#2b244a" />
    <path
       d="m 722.233,184.32 c 1.577,-3.074 7.13,-4.476 10.116,-5.674 4.119,-1.519 8.539,-2.599 12.888,-3.309 -2.125,-1.322 -4.251,-2.644 -6.261,-4.173 -3.049,-2.11 -6.977,-4.846 -8.915,-7.971 -2.745,-4.122 2.3,-6.079 5.676,-5.288 4.323,1.048 8.76,3.114 12.898,4.74 4.669,1.65 9.338,3.299 14.054,5.111 7.396,2.626 14.794,5.251 22.074,8.085 52.557,9.407 105.833,17.034 159.291,12.356 1.18,-0.16 1.2,1.76 -0.026,1.758 -1.342,0.206 -2.567,0.204 -3.955,0.248 6.881,21.151 18.113,40.366 32.935,56.812 0.694,-0.022 1.18,-0.16 1.874,-0.182 1.179,-0.16 1.153,1.598 -0.027,1.758 -0.323,0.092 -0.693,0.022 -1.017,0.114 -0.186,0.578 -0.996,0.807 -1.504,0.252 l -0.046,-0.162 c -28.962,2.797 -89.455,-4.356 -117.615,-11.063 -30.009,-7.057 -82.128,-29.716 -94.77,-35.403 -5.735,-0.472 -11.284,-1.522 -16.23,-4.143 -3.655,0.688 -7.241,1.005 -10.964,0.837 -1.966,-0.141 -4.509,-0.469 -5.431,-2.483 -0.876,-1.852 0.052,-3.516 1.488,-4.623 1.551,-1.316 3.565,-2.238 5.417,-3.114 -6.385,0.938 -14.596,0.994 -11.95,-4.483 z"
       id="path7"
       inkscape:connector-curvature="0"
       style="fill:#ffa67d" />
    <path
       d="m 1150.16,271.105 c 0.24,-8.997 -0.97,-17.58 -2.43,-26.44 -1.45,-8.167 -2.98,-16.658 -2.55,-25.007 0.14,-4.417 0.36,-12.882 5.8,-14.076 5.6,-1.239 12.18,5.294 15.21,9.161 3.83,4.863 6.38,10.789 7.23,16.85 0.64,4.719 -0.52,9.25 -0.74,14.038 -0.1,5.805 3.04,9.464 4.88,14.718 1.36,4.165 1,8.466 -0.71,12.28 -0.57,6.637 -1.69,13.782 -7.32,18.005 -4.19,3.116 -9.58,3.246 -13.53,-0.184 -5.75,-4.843 -5.83,-12.522 -5.84,-19.345 z"
       id="path9"
       inkscape:connector-curvature="0"
       style="fill:#2b244a" />
    <path
       d="m 1121.4,249.34 c 5.89,4.104 12.17,7.745 18.48,10.855 -2.95,-17.19 -1.84,-34.835 3.6,-51.433 0.31,-0.786 1.84,-2.796 2.02,-2.148 0.16,-0.046 7.5,-5.631 7.71,-5.515 48.1,17.148 167.3,63.993 187.64,73.972 10.37,5.105 16.96,7.961 27.27,13.436 5.15,2.737 10.14,5.521 15.13,8.305 2.71,1.507 6.52,3.225 6.31,6.787 -0.24,5.319 -33.77,1.887 -45.2,-0.121 0.72,0.672 5.82,5.7 6.38,6.418 1.52,1.667 4.25,3.869 4.45,6.437 0.29,5.343 -6.57,2.741 -8.86,1.465 -9.73,-5.289 -16.61,-9.81 -25.09,-16.855 -28.03,-3.77 -56.03,-8.071 -83.89,-13.112 -26.59,-4.878 -53.74,-9.247 -79.35,-18.078 -5.41,-1.79 -10.75,-3.949 -15.81,-6.363 0.14,0.486 0.12,1.018 0.25,1.504 0.33,1.134 -1.46,1.64 -1.78,0.506 -0.27,-0.972 -0.39,-1.99 -0.66,-2.962 -6.89,-3.295 -13.59,-7.169 -19.9,-11.504 -0.55,-0.718 0.42,-2.22 1.3,-1.594 z"
       id="path11"
       inkscape:connector-curvature="0"
       style="fill:#ffa67d" />
    <path
       d="m 931.656,188.916 c -0.046,-0.162 -0.046,-0.162 -0.092,-0.324 l -0.046,-0.162 c 0.07,-0.37 0.348,-0.624 0.834,-0.762 19.363,-2.697 38.404,-6.529 57.377,-11.216 9.001,-2.206 17.861,-4.897 26.771,-7.427 1.46,-0.414 4.81,-1.542 5.14,-1.634 22.43,-9.168 45.45,-3.279 67.45,6.401 21.38,9.333 38.17,15.42 64.07,27.143 -4.97,1.587 -7.95,14.511 -8.15,18.767 -0.43,8.349 1.11,16.839 2.55,25.006 1.63,8.815 2.68,17.444 2.44,26.44 -0.2,6.707 0.04,14.34 5.63,19.23 2.26,1.807 4.78,2.667 7.35,2.463 -22.67,6.439 -36.11,-24.228 -56.34,-28.286 0.53,2.476 0.89,4.997 1.21,7.357 0.85,7.287 0.72,14.85 -1.88,21.715 -1.21,3.143 -2.72,5.847 -4.97,8.411 -3.7,4.203 -9.68,7.825 -8.58,14.164 0.26,0.278 0.4,0.764 0,1.225 -8.2,8.105 -15.94,16.604 -23.21,25.497 -5.98,7.299 -12.4,12.446 -22.14,13.286 -0.69,0.022 -1.04,-0.58 -0.69,-1.204 -9.59,-2.352 -18.07,-8.171 -23.56,-16.414 -7.69,-11.646 -6.95,-25.684 -8.96,-38.94 -2.06,-13.418 -10.07,-23.747 -15.994,-35.367 -4.121,2.746 -8.473,4.681 -13.516,5.413 -0.324,0.092 -0.532,-0.024 -0.74,-0.14 -0.44,0.3 -1.18,0.16 -1.526,-0.442 -3.247,-8.354 -10.524,-13.64 -17.547,-18.647 -5.937,-4.265 -11.596,-8.785 -15.912,-14.736 -9.784,-13.5 -13.55,-30.459 -16.969,-46.817 z"
       id="path13"
       inkscape:connector-curvature="0"
       style="fill:#f5e3d9" />
    <path
       d="m 1362.68,289.7 c 0,0 18.6,10.646 28.17,18.433 2.93,2.318 -0.25,10.223 -18.95,1.704 -18.7,-8.519 -18.74,-8.681 -18.74,-8.681 z"
       id="path15"
       inkscape:connector-curvature="0"
       style="fill:#ffa67d" />
    <path
       d="m 1357.06,290.244 c 0,0 15.03,15.336 22.09,25.409 2.1,3.079 0.17,11.68 -16.67,-0.166 -17.72,-12.473 -27.27,-18.34 -27.27,-18.34 z"
       id="path17"
       inkscape:connector-curvature="0"
       style="fill:#ffa67d" />
    <path
       d="m 1376.34,311.902 c -6.68,-6.857 -13.19,-13.76 -19.7,-20.663 -0.55,-0.718 0.4,-1.688 0.95,-0.97 6.51,6.903 13.07,13.968 19.7,20.663 0.71,0.672 -0.24,1.642 -0.95,0.97 z"
       id="path19"
       inkscape:connector-curvature="0"
       style="fill:#2b244a" />
    <path
       d="m 1386.06,305.466 c -8.71,-6.63 -17.65,-12.843 -26.98,-18.594 -0.67,-0.51 -0.09,-1.55 0.69,-1.248 9.34,5.752 18.49,12.081 27.2,18.71 0.71,0.672 -0.24,1.641 -0.91,1.132 z"
       id="path21"
       inkscape:connector-curvature="0"
       style="fill:#2b244a" />
    <path
       d="m 758.451,184.888 c -5.245,-3.062 -10.329,-6.169 -15.296,-9.485 -0.67,-0.51 -0.136,-1.712 0.696,-1.248 4.968,3.316 10.213,6.377 15.296,9.485 0.832,0.464 0.136,1.712 -0.696,1.248 z"
       id="path23"
       inkscape:connector-curvature="0"
       style="fill:#2b244a" />
    <path
       d="m 748.938,188.989 c -4.811,0.316 -9.785,0.678 -14.596,0.993 -0.856,0.068 -0.9,-1.319 -0.044,-1.387 4.811,-0.316 9.785,-0.678 14.596,-0.994 0.856,-0.068 0.9,1.32 0.044,1.388 z"
       id="path25"
       inkscape:connector-curvature="0"
       style="fill:#2b244a" />
    <path
       d="m 764.69,188.367 c -4.21,-0.03 -8.327,0.263 -12.445,0.557 -1.873,0.182 -3.839,0.04 -5.829,0.43 -1.989,0.39 -3.285,0.758 -4.213,2.422 -1.274,1.062 -1.16,2.08 0.018,3.146 0.322,1.133 0.922,2.013 1.962,2.593 0.669,0.51 -0.28,1.48 -0.95,0.97 -3.812,-2.944 -4.497,-7.825 0.386,-9.737 2.499,-1.059 5.321,-0.985 8.051,-1.235 4.325,-0.178 8.766,-0.564 13.138,-0.58 0.739,0.14 0.738,1.366 -0.118,1.434 z"
       id="path27"
       inkscape:connector-curvature="0"
       style="fill:#2b244a" />
    <path
       d="m 1104.1,531.157 c 1.2,0.534 2.24,1.114 3.49,1.81 -3.39,-6.389 -4.74,-14.232 -5.77,-20.941 -2.91,-18.253 -5.93,-36.299 -8.84,-54.552 -1.44,-9.393 -3.05,-18.739 -4.49,-28.132 -0.77,-5.205 -2.11,-11.128 0.51,-16.073 5.6,-10.515 20.14,-5.542 28.66,-11.287 -1.3,-2.083 -2.63,-4.329 -3.92,-6.413 -0.65,-1.042 0.88,-1.825 1.48,-0.946 l 3.71,6.297 c 0.28,-0.254 0.56,-0.507 0.83,-0.761 0.79,-0.924 2.06,0.465 1.23,1.227 -0.4,0.462 -0.67,0.716 -1.11,1.016 l 54.04,88.625 c 57.51,20.078 104.3,62.803 153.93,97.022 11.78,8.207 23.96,15.952 36.6,22.865 15.86,0.396 32.14,1.024 47.08,6.761 14.93,5.737 20.7,13.726 34.14,26.538 5.05,4.866 30.25,30.094 33.91,37.455 1.71,3.541 3.8,7.847 1.93,11.706 -4.16,8.181 -14.88,4.925 -21.43,2.232 -15.48,-6.455 -30.76,-12.794 -46.25,-19.249 -15.27,-6.339 -30.94,-12.217 -46.08,-19.296 -28.71,-13.554 -58.22,-25.652 -87.16,-38.79 -18.9,-8.635 -37.85,-17.432 -56.69,-26.436 -37.21,-17.616 -74.23,-35.809 -110.86,-54.464 2.49,2.617 5.87,4.635 10.26,5.313 1.11,0.21 0.72,1.897 -0.39,1.688 -6.09,-1.074 -10.36,-4.412 -13.36,-8.811 -2.03,-0.998 -4.07,-1.996 -5.94,-3.04 -1.48,-0.28 -0.55,-1.943 0.49,-1.364 z"
       id="path29"
       inkscape:connector-curvature="0"
       style="fill:#ffa67d" />
    <path
       d="m 1161.93,528.916 c 3.29,-5.661 7.16,-11.137 10.92,-16.404 3.59,-5.221 7.18,-10.442 11.91,-14.76 0.55,-0.508 1.27,-1.062 1.99,-1.616 17.68,7.407 34.53,16.802 50.63,27.283 -20.3,12.942 -35.86,32.761 -53.46,49.662 -11.16,-5.407 -22.33,-10.814 -33.37,-16.429 2.1,-9.873 6.37,-19.488 11.38,-27.736 z"
       id="path31"
       inkscape:connector-curvature="0"
       style="fill:#2b244a" />
    <path
       d="m 1046.19,600.288 c -4.48,-17.631 -7.18,-35.768 -9.51,-53.836 -2.65,-19.201 -4.49,-38.632 -5.32,-58.177 -1.78,-42.028 -0.79,-81.692 8.16,-122.916 4.19,-4.342 57.48,-47.829 62.3,-50.597 34.58,41.642 50.44,97.524 44.02,151.334 -1.67,13.25 -4.6,26.336 -8.85,39.096 26.02,-19.293 50.34,-40.902 72.47,-64.688 0.26,-0.948 0.51,-1.896 0.98,-2.728 2.74,-6.379 8.32,-10.764 14.22,-14.016 7.48,-3.873 15.6,-6.705 23.47,-9.814 9.28,-3.686 18.72,-7.417 28,-11.103 4.4,-1.773 8.8,-3.547 13.24,-5.159 2.5,-1.06 5.93,-2.557 8.86,-1.466 6.29,2.416 5.45,9.307 1.69,13.348 -10.59,11.409 -49.57,46.108 -58.09,54.304 -21.82,33.501 -33.83,52.841 -52.64,79.709 -10.71,15.293 -22.63,36.182 -34.89,50.34 -11.86,13.696 -24.35,28.27 -40.12,37.473 -12.75,7.473 -28.79,10.8 -42.86,4.995 -14.82,-5.945 -21.48,-21.383 -25.13,-36.099 z"
       id="path33"
       inkscape:connector-curvature="0"
       style="fill:#ffa67d" />
    <path
       d="m 1042.93,572.158 c 10.58,-24.36 37.82,-49.249 54.03,-70.478 7.64,-10.048 16.42,-19.193 26.52,-26.786 10.38,-7.847 22.25,-13.494 34.05,-18.771 4.8,-2.236 9.8,-4.355 14.59,-6.591 0.78,3.979 9.8,12.968 3.01,24.175 -6.84,11.044 -42.53,51.808 -74.99,76.78 -12.05,9.371 -39.75,22.139 -55.44,27.294 -0.77,0.392 -2.19,-4.629 -1.77,-5.623 z"
       id="path35"
       inkscape:connector-curvature="0"
       style="fill:#2b244a" />
    <path
       d="m 1197.04,453.48 c 4.24,-4.179 8.27,-8.475 12.3,-12.77 0.26,-0.948 0.68,-1.942 0.98,-2.728 2.74,-6.379 8.32,-10.764 14.22,-14.016 7.48,-3.873 15.6,-6.705 23.47,-9.814 9.28,-3.686 18.73,-7.417 28.01,-11.102 4.39,-1.774 8.79,-3.548 13.24,-5.16 2.49,-1.06 5.92,-2.557 8.69,-1.419 6.29,2.415 5.45,9.306 1.69,13.348 -10.58,11.408 -49.57,46.107 -58.09,54.304 -1.6,2.379 -3.04,4.713 -4.52,6.885 -3.86,-3.106 -5.93,-7.943 -5.28,-13.031 -11.21,-3.117 -23.03,-4.663 -34.71,-4.497 z"
       id="path37"
       inkscape:connector-curvature="0"
       style="fill:#f5e3d9" />
    <path
       d="m 1089.93,540.432 c 11.2,-15.431 23.85,-28.825 40.12,-38.698 17.04,-10.264 35.77,-17.681 51.72,-29.913 16.23,-12.487 29.14,-29.28 34.36,-49.139 -6.28,-4.868 -12.29,-9.989 -18.02,-15.364 -12.68,-11.978 -23.64,-25.318 -34.6,-38.658 -19.69,-24.341 -35.6,-53.255 -66.58,-62.487 -15.22,16.049 -42.82,33.513 -62.01,44.213 -17.99,54.994 -32.11,132.869 -22.03,233.102 40.66,-3.495 55.83,-13.578 77.04,-43.056 z"
       id="path39"
       inkscape:connector-curvature="0"
       style="fill:#c7513c" />
    <path
       d="m 1097.14,306.288 c 6.88,2.07 12.99,5.063 18.58,8.727 -7.47,9.47 -19.18,16.297 -30.31,20.859 -14.72,6.105 -30.36,10.196 -46.07,12.206 18.82,-10.771 43.8,-26.966 57.8,-41.792 z"
       id="path41"
       inkscape:connector-curvature="0"
       style="fill:#2b244a" />
    <path
       d="m 1117.73,355.4 c 0.7,-1.248 2.85,-1.684 6.64,-0.66 16.21,4.675 29.46,16.839 44.09,24.588 2.03,0.998 4.07,1.996 6.38,2.74 3.99,4.817 8.1,9.427 12.37,13.99 -9.73,-1.612 -19.14,-2.09 -29.29,-6.385 -12.13,-5.131 -24.96,-11.467 -34.33,-21.057 -3.38,-3.244 -7.64,-10.259 -5.86,-13.216 z"
       id="path43"
       inkscape:connector-curvature="0"
       style="fill:#2b244a" />
    <path
       d="m 1371.21,631.048 c -0.47,-7.217 -2.93,-14.044 -6.93,-20.087 15.87,0.396 32.15,1.024 46.92,6.807 14.93,5.737 20.7,13.726 34.14,26.538 5.06,4.865 30.25,30.094 33.92,37.455 1.7,3.541 3.8,7.847 1.92,11.706 -4.15,8.181 -14.88,4.925 -21.42,2.232 -15.49,-6.455 -30.76,-12.795 -46.25,-19.25 -15.28,-6.339 -30.95,-12.216 -46.09,-19.295 -3.44,-1.648 -6.88,-3.295 -10.44,-4.735 0.75,-8.441 4.46,-13.87 14.23,-21.371 z"
       id="path45"
       inkscape:connector-curvature="0"
       style="fill:#f5e3d9" />
    <path
       d="m 1471.09,697.381 c 7.46,-8.244 -5.29,-19.853 -10.34,-25.944 -5.31,-6.369 -10.74,-12.53 -16.44,-18.437 -11.75,-12.416 -24.18,-24.117 -37.11,-35.147 -0.67,-0.51 0.28,-1.48 0.95,-0.97 15.5,13.278 30.32,27.272 43.88,42.328 6.34,6.949 12.42,14.152 18.09,21.817 4.13,5.303 7.32,11.576 2.15,17.419 -0.77,0.392 -1.74,-0.558 -1.18,-1.066 z"
       id="path47"
       inkscape:connector-curvature="0"
       style="fill:#2b244a" />
    <path
       d="m 1302.13,401.938 c -30.43,11.792 -61.16,23.145 -91.46,35.423 -0.76,0.392 -1.13,-0.904 -0.37,-1.296 30.25,-12.44 60.98,-23.793 91.46,-35.423 0.81,-0.23 1.18,1.066 0.37,1.296 z"
       id="path49"
       inkscape:connector-curvature="0"
       style="fill:#2b244a" />
    <path
       d="m 1268.44,438.633 c -4.82,-6.507 -17.4,4.066 -22.03,7.481 -5.07,3.716 -9.52,7.779 -14.08,12.05 -0.72,0.554 -1.64,-0.234 -0.97,-0.949 6.18,-5.958 12.67,-11.475 19.92,-16.158 4.88,-3.138 13.33,-9.739 18.2,-3.07 0.56,0.718 -0.48,1.364 -1.04,0.646 z"
       id="path51"
       inkscape:connector-curvature="0"
       style="fill:#2b244a" />
    <path
       d="m 1395.51,667.909 c 3.82,-1.96 5.01,-7.023 4.55,-11.094 -0.52,-4.928 -4.84,-8.427 -8.56,-11.047 -6.82,-4.891 -13.98,-9.158 -20.87,-13.68 -0.67,-0.51 -0.13,-1.712 0.7,-1.248 5.17,3.432 10.47,6.655 15.64,10.087 4.09,2.69 8.71,5.403 11.74,9.271 4.13,5.303 4.32,15.225 -2.39,18.707 -0.88,0.6 -1.58,-0.604 -0.81,-0.996 z"
       id="path53"
       inkscape:connector-curvature="0"
       style="fill:#2b244a" />
    <path
       d="m 1417.04,626.612 c -12.12,0.466 -23.47,-4.363 -31.6,-13.258 -0.55,-0.718 0.4,-1.688 0.95,-0.97 7.92,8.779 18.85,13.376 30.6,12.84 0.91,0.094 0.95,1.482 0.05,1.388 z"
       id="path55"
       inkscape:connector-curvature="0"
       style="fill:#2b244a" />
    <path
       d="m 1282.2,425.45 c -4.41,-3.824 -10.32,3.105 -15.45,1.061 -3.56,-1.439 -5.47,-5.097 -6.65,-8.614 -0.23,-0.81 1.07,-1.178 1.3,-0.368 0.85,2.383 2.07,4.837 4.13,6.529 3.19,2.595 6.4,0.982 9.71,-0.308 2.66,-1.106 5.56,-1.402 7.87,0.568 0.71,0.672 -0.24,1.642 -0.91,1.132 z"
       id="path57"
       inkscape:connector-curvature="0"
       style="fill:#2b244a" />
    <path
       d="m 1067.97,261.533 c -0.72,-9.947 16.71,-5.269 21.61,-4.035 6.06,1.605 11.86,4.159 17.31,7.337 0.53,2.475 0.85,4.835 1.22,7.356 0.2,1.342 0.25,2.73 0.41,3.91 -6.5,-1.306 -13.72,-0.832 -20.24,-1.606 -6.93,-1.006 -19.74,-4.195 -20.31,-12.962 z"
       id="path59"
       inkscape:connector-curvature="0"
       style="fill:#2b244a" />
    <path
       d="m 986.132,269.193 c -1.258,-8.744 -1.774,-18.575 0.322,-27.222 0.442,-1.525 1.115,-3.467 3.173,-3.001 2.058,0.466 2.424,2.987 2.56,4.699 1.168,7.195 2.983,14.206 5.725,20.779 -3.682,2.446 -7.547,4.244 -11.85,5.115 0.116,-0.208 0.07,-0.37 0.07,-0.37 z"
       id="path61"
       inkscape:connector-curvature="0"
       style="fill:#2b244a" />
    <path
       d="m 1007,151.595 8.9,17.777 28.44,-6.499 -15.34,-28.727 z"
       id="path63"
       inkscape:connector-curvature="0"
       style="fill:#ffa67d" />
    <path
       d="m 1044.34,162.873 c 0,0 -8.96,1.142 -19.11,14.702 -6.98,9.332 -13.87,39.296 -13.87,39.296 0,0 -14.366,-27.778 4.38,-47.453 10.4,-10.831 28.6,-6.545 28.6,-6.545 z"
       id="path65"
       inkscape:connector-curvature="0"
       style="fill:#ffa67d" />
    <path
       d="m 1042.15,115.709 c 0.65,-5.088 -3.19,-15.548 -14.55,-17.9259 -10.24,-2.1677 -21.11,-1.0058 -28.116,11.3099 -7.005,12.317 -8.819,18.258 -10.037,27.53 -0.914,7.261 -0.534,15.38 7.997,17.684 9.686,2.675 20.776,-2.048 25.706,-6.249 4.93,-4.202 16.58,-13.11 19,-32.349 z"
       id="path67"
       inkscape:connector-curvature="0"
       style="fill:#ffa67d" />
    <path
       d="m 1005.74,101.542 c 7,-6.1871 16.5,-6.6111 24.16,-4.9333 11.39,2.5396 17.62,17.0513 18.67,22.0033 3.74,19.943 -4.03,44.377 -4.03,44.377 0,0 -9.5,0.424 -13.25,-1.664 -9.98,-5.567 -10.91,-15.629 -9.64,-27.192 -8.55,-9.126 -14.01,-20.353 -15.91,-32.591 z"
       id="path69"
       inkscape:connector-curvature="0"
       style="fill:#2b244a" />
    <path
       d="m 1027.85,131.322 c 1.38,4.859 -1.57,9.896 -6.42,11.276 -4.86,1.38 -9.9,-1.566 -11.28,-6.425 -1.38,-4.859 1.56,-9.896 6.42,-11.276 4.91,-1.218 9.9,1.565 11.28,6.425 z"
       id="path71"
       inkscape:connector-curvature="0"
       style="fill:#ffa67d" />
    <path
       d="m 997.117,114.318 c 0,0 -7.571,4.776 -8.383,6.231 -1.02,1.34 0.088,2.776 3.206,5.742 3.117,2.965 5.177,-11.973 5.177,-11.973 z"
       id="path73"
       inkscape:connector-curvature="0"
       style="fill:#ffa67d" />
    <path
       d="m 1015.54,151.446 c -0.68,3.168 -2.19,5.871 -4.48,8.273 l -2.54,-5.231 c 2.18,-0.968 4.26,-2.26 6.14,-3.668 0.28,-0.254 0.95,0.256 0.88,0.626 z"
       id="path75"
       inkscape:connector-curvature="0"
       style="fill:#2b244a" />
    <path
       d="m 1021.39,136.305 c 2.04,-2.679 0.7,-6.151 -2.51,-6.989 -0.79,-0.302 -0.46,-1.619 0.33,-1.317 4.16,1.093 5.65,5.745 3.15,9.256 -0.51,0.67 -1.48,-0.28 -0.97,-0.95 z"
       id="path77"
       inkscape:connector-curvature="0"
       style="fill:#2b244a" />
    <path
       d="m 996.958,111.913 c -0.327,2.544 2.634,1.878 4.942,3.848 2.27,1.807 4,2.365 4.65,0.955 0.76,-1.617 -0.76,-4.511 -4.36,-6.113 -3.238,-1.531 -4.882,-0.54 -5.232,1.31 z"
       id="path79"
       inkscape:connector-curvature="0"
       style="fill:#2b244a" />
    <path
       d="m 999.378,117.352 c 2.062,0.466 1.132,3.355 0.548,4.395 -0.348,0.624 -0.974,1.502 -1.921,1.246 -1.318,-0.326 -1.13,-2.13 -0.874,-3.078 0.372,-1.155 0.93,-2.889 2.247,-2.563 z"
       id="path81"
       inkscape:connector-curvature="0"
       style="fill:#2b244a" />
    <path
       d="m 998.197,132.915 c -2.06,0.76 -4.258,1.034 -6.524,0.452 -0.947,-0.256 -0.413,-1.458 0.326,-1.318 2.058,0.466 3.932,0.284 5.83,-0.43 0.764,-0.392 1.131,0.904 0.368,1.296 z"
       id="path83"
       inkscape:connector-curvature="0"
       style="fill:#2b244a" />
    <path
       d="m 1023.44,140.451 c 4.58,1.326 9.11,2.49 13.53,3.862 0.78,0.302 0.45,1.62 -0.33,1.318 -4.58,-1.326 -9.11,-2.49 -13.52,-3.862 -0.95,-0.256 -0.63,-1.574 0.32,-1.318 z"
       id="path85"
       inkscape:connector-curvature="0"
       style="fill:#ffbe63" />
    <path
       d="m 1023.95,141.008 c 1.12,4.582 2.41,9.117 3.54,13.698 0.23,0.81 -1.07,1.178 -1.3,0.368 -1.12,-4.581 -2.41,-9.117 -3.54,-13.698 -0.27,-0.972 1.02,-1.34 1.3,-0.368 z"
       id="path87"
       inkscape:connector-curvature="0"
       style="fill:#ffbe63" />
    <path
       d="m 1037.29,145.447 c -3.29,3.209 -6.7,6.627 -9.99,9.836 -0.72,0.554 -1.64,-0.234 -0.97,-0.95 3.29,-3.209 6.7,-6.627 9.99,-9.836 0.51,-0.67 1.48,0.28 0.97,0.95 z"
       id="path89"
       inkscape:connector-curvature="0"
       style="fill:#ffbe63" />
    <path
       d="m 1023.44,140.451 c 4.58,1.326 9.11,2.49 13.53,3.862 0.78,0.302 0.45,1.62 -0.33,1.318 -4.58,-1.326 -9.11,-2.49 -13.52,-3.862 -0.95,-0.256 -0.63,-1.574 0.32,-1.318 z"
       id="path91"
       inkscape:connector-curvature="0"
       style="fill:#ffbe63" />
    <path
       d="m 1023.95,141.008 c 1.12,4.582 2.41,9.117 3.54,13.698 0.23,0.81 -1.07,1.178 -1.3,0.368 -1.12,-4.581 -2.41,-9.117 -3.54,-13.698 -0.27,-0.972 1.02,-1.34 1.3,-0.368 z"
       id="path93"
       inkscape:connector-curvature="0"
       style="fill:#ffbe63" />
    <path
       d="m 1037.29,145.447 c -3.29,3.209 -6.7,6.627 -9.99,9.836 -0.72,0.554 -1.64,-0.234 -0.97,-0.95 3.29,-3.209 6.7,-6.627 9.99,-9.836 0.51,-0.67 1.48,0.28 0.97,0.95 z"
       id="path95"
       inkscape:connector-curvature="0"
       style="fill:#ffbe63" />
    <path
       d="m 787.728,278.324 c 4.595,-9.706 16.601,-11.19 25.66,-6.411 13.634,7.331 17.426,22.533 25.848,34.319 7.823,10.907 20.123,13.54 32.47,16.336 22.102,5.101 41.806,20.861 53.362,39.984 2.583,4.168 4.819,8.959 4.811,13.862 -0.012,7.355 -5.389,14.308 -12.608,16.008 -6.247,1.424 -13.02,-0.854 -18.171,-4.817 -10.095,-7.811 -16.182,-19.386 -24.053,-29.228 -6.509,-8.129 -17.397,-11.338 -24.856,-18.497 -15.518,-15.198 -36.693,-21.963 -55.342,-31.546 -9.475,-5.011 -12.134,-19.309 -7.121,-30.01 z"
       id="path97"
       inkscape:connector-curvature="0"
       style="fill:#587ee0" />
    <path
       d="m 481.2,59.4199 c -2.743,5.7944 -9.91,6.6801 -15.317,3.8271 -8.139,-4.3762 -10.403,-13.4509 -15.43,-20.4867 -4.67,-6.5105 -12.013,-8.0827 -19.383,-9.7515 -13.194,-3.0452 -24.956,-12.453 -31.854,-23.86855 -1.543,-2.48772 -2.877,-5.3479 -2.873,-8.27491 0.008,-4.39051 3.218,-8.54111 7.527,-9.55577 3.729,-0.84992 7.772,0.50976 10.847,2.87572 6.026,4.66269 9.66,11.57197 14.358,17.44751 3.886,4.8525 10.386,6.7684 14.838,11.0419 9.264,9.0723 21.904,13.1107 33.037,18.831 5.656,2.9915 7.243,11.5266 4.25,17.9142 z"
       id="path99"
       inkscape:connector-curvature="0"
       style="fill:#587ee0" />
    <path
       d="m 1161.8,622.773 c 2,-6.519 8.64,-9.631 14.88,-8.603 8.79,1.356 14.81,8.397 20.4,14.512 4.06,4.447 8.43,8.109 13.79,10.962 7.03,3.782 55.84,25.279 40.67,37.813 -6.09,5.055 -14.97,3.375 -22.71,-1.078 -10.24,-5.845 -16.65,-14.876 -26.77,-20.929 -9.92,-5.937 -18.91,-8.635 -28.66,-14.618 -5.62,-3.131 -13.93,-10.222 -11.6,-18.059 z"
       id="path101"
       inkscape:connector-curvature="0"
       style="fill:#587ee0" />
    <path
       d="m 542.933,557.665 c 1.183,-5.663 5.942,-8.111 10.593,-6.925 6.54,1.59 11.299,8.072 15.693,13.718 3.196,4.106 6.579,7.532 10.66,10.29 5.35,3.651 42.311,24.804 31.684,35.185 -4.265,4.188 -10.888,2.309 -16.796,-1.967 -7.811,-5.616 -12.946,-13.872 -20.681,-19.666 -7.576,-5.682 -14.329,-8.465 -21.787,-14.181 -4.281,-3.014 -10.731,-9.643 -9.366,-16.454 z"
       id="path103"
       inkscape:connector-curvature="0"
       style="fill:#ffbe63" />
    <path
       d="m 1305.73,185.805 c 6.64,-2.671 13.74,-0.07 19.16,3.969 3.39,2.434 6.41,5.409 9.72,7.867 3.98,2.965 8.35,4.86 13.13,6.031 18.08,4.45 32.42,11.703 35.41,32.028 0.54,3.765 0.18,8.312 -3.12,10.206 -2.53,1.504 -5.71,0.751 -8.42,-0.221 -17.91,-5.981 -32.04,-23.837 -52.16,-27.185 -8.13,-1.349 -14.74,-9.58 -18.48,-17.23 -2.87,-5.807 -1.73,-12.839 4.76,-15.465 z"
       id="path105"
       inkscape:connector-curvature="0"
       style="fill:#587ee0" />
    <path
       d="m 1141.69,285.059 c 6.3,-4.939 15.09,-3.583 21.77,-0.404 9.08,4.248 14.23,11.889 21.34,18.446 10.44,9.638 29.1,13.092 37.15,24.808 3.51,4.955 3.08,12.078 -2.96,14.844 -7.9,3.641 -16.6,-2.988 -23.05,-6.583 l -30.83,-17.328 c -4.78,-2.667 -9.72,-5.289 -14.55,-8.119 -3.96,-2.203 -8.16,-4.685 -10.98,-8.436 -4.22,-5.627 -3.47,-12.842 2.11,-17.228 z"
       id="path107"
       inkscape:connector-curvature="0"
       style="fill:#ffbe63" />
    <path
       d="m 1349.35,437.2 c 12.4,-8.395 42.08,13.912 33.74,27.214 -6.25,9.752 -21.36,-0.289 -27.51,-4.751 -6.57,-4.93 -16.29,-15.763 -6.23,-22.463 z"
       id="path109"
       inkscape:connector-curvature="0"
       style="fill:#ffbe63" />
    <path
       d="m 587.045,277.565 c 6.266,-4.245 21.273,7.034 17.056,13.76 -3.157,4.931 -10.8,-0.146 -13.906,-2.402 -3.323,-2.493 -8.24,-7.97 -3.15,-11.358 z"
       id="path111"
       inkscape:connector-curvature="0"
       style="fill:#f576a6" />
    <path
       d="m 1398.94,545.599 c 3.74,-10.864 26.54,3.49 22.04,13.52 -2.67,6.009 -10.16,3.06 -13.92,0.278 -4.19,-3.013 -10.1,-7.811 -8.12,-13.798 z"
       id="path113"
       inkscape:connector-curvature="0"
       style="fill:#ffbe63" />
    <path
       d="m 1129.2,628.177 c 5.37,-16.228 33.1,9.329 33.85,18.743 0.82,10.271 -15.57,3.722 -19.68,1.564 -7.31,-3.527 -17.38,-10.644 -14.17,-20.307 z"
       id="path115"
       inkscape:connector-curvature="0"
       style="fill:#ffbe63" />
    <path
       d="m 145.896,510.938 c 5.369,-16.228 33.105,9.328 33.853,18.743 0.816,10.271 -15.572,3.722 -19.685,1.564 -7.303,-3.528 -17.376,-10.645 -14.168,-20.307 z"
       id="path117"
       inkscape:connector-curvature="0"
       style="fill:#eb5d19" />
    <path
       d="m 807.136,64.0683 c 3.961,-11.9704 24.421,6.8814 24.972,13.8262 0.602,7.5761 -11.486,2.7452 -14.521,1.1535 C 812.2,76.4459 804.77,71.196 807.136,64.0683 Z"
       id="path119"
       inkscape:connector-curvature="0"
       style="fill:#00b1ae" />
    <path
       d="m 840.852,301.163 c 1.278,-3.514 4.679,-4.48 7.915,-2.948 2.981,1.254 5.707,3.456 8.781,5.033 3.697,1.926 7.465,3.482 10.49,6.124 3.742,3.313 8.475,8.27 8.767,13.614 0.18,3.099 -1.352,6.335 -4.591,7.255 -4.744,1.171 -10.149,-3.07 -13.822,-5.528 -5.014,-3.477 -9.679,-7.579 -13.673,-12.396 -2.261,-3.033 -5.331,-7.063 -3.867,-11.154 z"
       id="path121"
       inkscape:connector-curvature="0"
       style="fill:#ffbe63" />
  </g>
  <path
     d="m 860.45708,110.48493 c 8.04,-8.0586 24.9,-7.2447 34.4,-5.217 22.22,4.893 40.47,19.841 60.71,29.496 11.74,5.593 23.97,8.597 36.95,9.288 12.97002,0.692 26.02002,-0.211 39.15002,0.434 11.71,0.528 23.41,2.282 34.11,7.295 10.65,4.852 19.96,12.361 27.39,21.277 16.28,19.71 22.73,46.758 17.64,78.135 -0.44,0.3 -0.84,0.762 -1.39,1.27 l 1.57,0.604 c 0,0 1.92,44.965 -28.53,49.934 -30.45,4.97 -61.59,-27.67 -86.54002,-61.895 -6.02,-8.266 -5.44,-12.984 -1.27,-15.567 -14.03,-5.644 -27.9,-11.333 -41.88,-16.814 -16.43,-6.711 -34.19,-12.522 -48.3,-23.393 -16.33,-12.516 -22.32,-31.121 -26.03,-50.37 -8.2,-4.848 -17.98,-24.477 -17.98,-24.477 z"
     id="path125"
     inkscape:connector-curvature="0"
     style="fill:#1f1c2d" />
  <path
     d="m 576.95008,193.26393 c 1.577,-3.074 7.13,-4.476 10.116,-5.674 4.119,-1.519 8.539,-2.599 12.888,-3.309 -2.125,-1.322 -4.251,-2.644 -6.261,-4.173 -3.049,-2.11 -6.977,-4.846 -8.915,-7.971 -2.745,-4.122 2.3,-6.079 5.676,-5.287 4.323,1.047 8.76,3.113 12.898,4.739 4.669,1.65 9.338,3.299 14.054,5.111 7.396,2.626 14.794,5.251 22.074,8.085 52.557,9.407 105.833,17.034 159.291,12.356 1.18,-0.16 1.2,1.76 -0.026,1.758 -1.342,0.206 -2.567,0.204 -3.955,0.248 6.881,21.151 18.113,40.366 32.935,56.812 0.694,-0.022 1.18,-0.16 1.874,-0.182 1.179,-0.16 1.153,1.598 -0.027,1.758 -0.323,0.092 -0.693,0.022 -1.017,0.114 -0.186,0.578 -0.996,0.807 -1.504,0.252 l -0.046,-0.162 c -28.962,2.797 -89.455,-4.356 -117.615,-11.063 -30.009,-7.057 -82.128,-29.716 -94.77,-35.403 -5.735,-0.472 -11.284,-1.522 -16.23,-4.143 -3.655,0.688 -7.241,1.005 -10.964,0.838 -1.966,-0.142 -4.509,-0.47 -5.431,-2.484 -0.876,-1.852 0.052,-3.516 1.488,-4.623 1.551,-1.316 3.565,-2.238 5.417,-3.114 -6.385,0.938 -14.596,0.994 -11.95,-4.483 z"
     id="path127"
     inkscape:connector-curvature="0"
     style="fill:#ffa67d" />
  <path
     d="m 1004.8771,280.04793 c 0.24,-8.997 -0.97,-17.579 -2.43,-26.44 -1.45,-8.167 -2.98002,-16.658 -2.55002,-25.007 0.14002,-4.417 0.36002,-12.882 5.80002,-14.076 5.6,-1.239 12.18,5.294 15.21,9.161 3.83,4.864 6.38,10.789 7.23,16.85 0.64,4.719 -0.52,9.25 -0.74,14.038 -0.1,5.805 3.04,9.464 4.88,14.718 1.36,4.165 1,8.466 -0.71,12.28 -0.57,6.637 -1.69,13.782 -7.32,18.005 -4.19,3.116 -9.58,3.246 -13.53,-0.184 -5.75,-4.843 -5.83,-12.522 -5.84,-19.345 z"
     id="path129"
     inkscape:connector-curvature="0"
     style="fill:#1f1c2d" />
  <path
     d="m 786.37308,197.85993 c -0.046,-0.162 -0.046,-0.162 -0.092,-0.324 l -0.046,-0.162 c 0.07,-0.37 0.348,-0.624 0.834,-0.762 19.363,-2.697 38.404,-6.529 57.377,-11.216 9.001,-2.206 17.861,-4.897 26.771,-7.427 1.46,-0.414 4.81,-1.542 5.14,-1.634 22.43,-9.168 45.45,-3.279 67.45,6.401 21.38,9.333 38.17,15.42 64.07002,27.143 -4.97,1.587 -7.95002,14.511 -8.15002,18.767 -0.43,8.349 1.11002,16.839 2.55002,25.006 1.63,8.815 2.68,17.444 2.44,26.44 -0.2,6.707 0.04,14.34 5.63,19.23 2.26,1.807 4.78,2.667 7.35,2.463 -22.67002,6.439 -36.11002,-24.228 -56.34002,-28.286 0.53,2.476 0.89,4.997 1.21,7.357 0.85,7.287 0.72,14.85 -1.88,21.715 -1.21,3.143 -2.72,5.847 -4.97,8.411 -3.7,4.203 -9.68,7.825 -8.58,14.164 0.26,0.278 0.4,0.764 0,1.225 -8.2,8.105 -15.94,16.604 -23.21,25.497 -5.98,7.299 -12.4,12.446 -22.14,13.286 -0.69,0.022 -1.04,-0.58 -0.69,-1.204 -9.59,-2.352 -18.07,-8.171 -23.56,-16.414 -7.69,-11.646 -6.95,-25.684 -8.96,-38.94 -2.06,-13.418 -10.07,-23.747 -15.994,-35.367 -4.121,2.746 -8.473,4.681 -13.516,5.413 -0.324,0.092 -0.532,-0.024 -0.74,-0.14 -0.44,0.3 -1.18,0.16 -1.526,-0.442 -3.247,-8.354 -10.524,-13.64 -17.547,-18.647 -5.937,-4.265 -11.596,-8.785 -15.912,-14.736 -9.784,-13.5 -13.55,-30.459 -16.969,-46.817 z"
     id="path131"
     inkscape:connector-curvature="0"
     style="fill:#f5e3d9" />
  <path
     d="m 613.16808,193.83293 c -5.245,-3.062 -10.329,-6.169 -15.296,-9.485 -0.67,-0.51 -0.136,-1.712 0.696,-1.248 4.968,3.316 10.213,6.377 15.296,9.485 0.832,0.464 0.136,1.712 -0.696,1.248 z"
     id="path133"
     inkscape:connector-curvature="0"
     style="fill:#2b244a" />
  <path
     d="m 603.65508,197.93293 c -4.811,0.316 -9.785,0.678 -14.596,0.993 -0.856,0.068 -0.9,-1.319 -0.044,-1.387 4.811,-0.316 9.785,-0.678 14.596,-0.994 0.856,-0.068 0.9,1.32 0.044,1.388 z"
     id="path135"
     inkscape:connector-curvature="0"
     style="fill:#2b244a" />
  <path
     d="m 619.40708,197.30993 c -4.21,-0.03 -8.327,0.264 -12.445,0.557 -1.873,0.182 -3.839,0.04 -5.829,0.43 -1.989,0.39 -3.285,0.758 -4.213,2.422 -1.274,1.062 -1.16,2.08 0.018,3.146 0.322,1.133 0.922,2.013 1.962,2.593 0.669,0.51 -0.28,1.48 -0.95,0.97 -3.812,-2.944 -4.497,-7.825 0.386,-9.737 2.499,-1.059 5.321,-0.985 8.051,-1.235 4.325,-0.178 8.766,-0.564 13.138,-0.58 0.739,0.14 0.738,1.366 -0.118,1.434 z"
     id="path137"
     inkscape:connector-curvature="0"
     style="fill:#2b244a" />
  <path
     d="m 958.81708,540.10093 c 1.2,0.534 2.24,1.114 3.49,1.81 -3.39,-6.389 -4.74,-14.232 -5.77,-20.941 -2.91,-18.253 -5.93,-36.298 -8.84,-54.552 -1.44,-9.392 -3.05,-18.739 -4.49,-28.132 -0.78,-5.205 -2.11,-11.128 0.51,-16.073 5.6,-10.515 20.14,-5.542 28.66,-11.287 -1.3,-2.083 -2.63,-4.329 -3.93,-6.413 -0.64,-1.042 0.89,-1.825 1.49,-0.946 l 3.71,6.297 c 0.28,-0.254 0.56,-0.507 0.83,-0.761 0.79,-0.924 2.06,0.465 1.23,1.227 -0.4,0.462 -0.67,0.716 -1.11,1.016 l 54.04002,88.625 c 57.51,20.078 104.3,62.803 153.93,97.022 11.78,8.207 23.96,15.952 36.6,22.865 15.86,0.396 32.14,1.024 47.08,6.761 14.93,5.737 20.7,13.726 34.14,26.538 5.05,4.866 30.25,30.094 33.91,37.455 1.71,3.541 3.8,7.847 1.92,11.706 -4.15,8.181 -14.87,4.926 -21.42,2.232 -15.48,-6.455 -30.76,-12.794 -46.25,-19.249 -15.27,-6.339 -30.94,-12.217 -46.08,-19.296 -28.71,-13.554 -58.22,-25.652 -87.16,-38.79 -18.9,-8.635 -37.85,-17.432 -56.69,-26.436 -37.21,-17.616 -74.23,-35.809 -110.86002,-54.464 2.49,2.617 5.87,4.635 10.26,5.313 1.11,0.21 0.72,1.898 -0.39,1.688 -6.09,-1.074 -10.36,-4.412 -13.36,-8.811 -2.03,-0.998 -4.07,-1.996 -5.94,-3.04 -1.48,-0.28 -0.55,-1.943 0.49,-1.364 z"
     id="path139"
     inkscape:connector-curvature="0"
     style="fill:#ffa67d" />
  <path
     d="m 1016.6471,537.85893 c 3.29,-5.661 7.16,-11.137 10.92,-16.404 3.59,-5.221 7.18,-10.442 11.91,-14.76 0.55,-0.508 1.27,-1.062 1.99,-1.615 17.68,7.406 34.53,16.801 50.63,27.282 -20.3,12.942 -35.86,32.761 -53.46,49.662 -11.16,-5.407 -22.33,-10.814 -33.37,-16.429 2.1,-9.873 6.37,-19.487 11.38,-27.736 z"
     id="path141"
     inkscape:connector-curvature="0"
     style="fill:#1f1c2d" />
  <path
     d="m 900.90708,609.23193 c -4.48,-17.631 -7.18,-35.768 -9.51,-53.836 -2.65,-19.201 -4.49,-38.632 -5.32,-58.177 -1.78,-42.028 -0.79,-81.692 8.16,-122.916 4.19,-4.342 57.48,-47.829 62.3,-50.597 34.58,41.642 50.44002,97.524 44.02002,151.334 -1.67002,13.25 -4.60002,26.336 -8.85002,39.096 26.02002,-19.293 50.34002,-40.902 72.47002,-64.688 0.26,-0.948 0.51,-1.896 0.98,-2.728 2.74,-6.379 8.32,-10.764 14.22,-14.016 7.48,-3.873 15.6,-6.705 23.47,-9.814 9.28,-3.686 18.72,-7.417 28,-11.103 4.4,-1.773 8.8,-3.547 13.24,-5.159 2.5,-1.06 5.93,-2.557 8.86,-1.466 6.29,2.416 5.45,9.307 1.69,13.348 -10.59,11.409 -49.57,46.108 -58.09,54.304 -21.82,33.502 -33.83,52.841 -52.64,79.709 -10.71,15.293 -22.63,36.182 -34.89,50.34 -11.86002,13.696 -24.35002,28.27 -40.12002,37.473 -12.75,7.473 -28.79,10.8 -42.86,4.995 -14.82,-5.945 -21.48,-21.383 -25.13,-36.099 z"
     id="path143"
     inkscape:connector-curvature="0"
     style="fill:#ffa67d" />
  <path
     d="m 897.64708,581.10193 c 10.58,-24.36 37.82,-49.249 54.03,-70.478 7.64,-10.048 16.42,-19.193 26.52,-26.786 10.38,-7.847 22.25002,-13.494 34.05002,-18.771 4.8,-2.236 9.79,-4.355 14.59,-6.591 0.78,3.979 9.8,12.968 3.01,24.175 -6.84,11.044 -42.53002,51.808 -74.99002,76.78 -12.05,9.371 -39.75,22.139 -55.44,27.294 -0.77,0.392 -2.19,-4.629 -1.77,-5.623 z"
     id="path145"
     inkscape:connector-curvature="0"
     style="fill:#1f1c2d" />
  <path
     d="m 1051.7571,462.42393 c 4.24,-4.179 8.27,-8.475 12.3,-12.77 0.26,-0.948 0.68,-1.942 0.98,-2.728 2.74,-6.379 8.32,-10.764 14.22,-14.016 7.48,-3.873 15.6,-6.705 23.47,-9.814 9.28,-3.686 18.73,-7.417 28.01,-11.102 4.39,-1.774 8.79,-3.548 13.24,-5.16 2.49,-1.059 5.92,-2.557 8.69,-1.419 6.29,2.415 5.45,9.306 1.69,13.348 -10.58,11.408 -49.57,46.107 -58.09,54.304 -1.6,2.379 -3.04,4.713 -4.52,6.885 -3.86,-3.106 -5.93,-7.943 -5.28,-13.03 -11.21,-3.118 -23.03,-4.664 -34.71,-4.498 z"
     id="path147"
     inkscape:connector-curvature="0"
     style="fill:#f5e3d9" />
  <path
     d="m 944.64708,549.37593 c 11.2,-15.431 23.85,-28.825 40.12,-38.698 17.04002,-10.264 35.77002,-17.681 51.72002,-29.913 16.23,-12.487 29.14,-29.28 34.36,-49.139 -6.28,-4.868 -12.29,-9.989 -18.02,-15.364 -12.68,-11.978 -23.64,-25.318 -34.6,-38.658 -19.69002,-24.341 -35.60002,-53.255 -66.58002,-62.487 -15.22,16.049 -42.82,33.513 -62.01,44.213 -17.99,54.994 -32.11,132.869 -22.03,233.102 40.66,-3.495 55.83,-13.578 77.04,-43.056 z"
     id="path149"
     inkscape:connector-curvature="0"
     style="fill:#00b1ae" />
  <path
     d="m 951.85708,315.23093 c 6.88,2.07 12.99,5.063 18.58,8.727 -7.47,9.47 -19.18,16.297 -30.31,20.859 -14.72,6.105 -30.36,10.196 -46.07,12.206 18.82,-10.771 43.8,-26.966 57.8,-41.792 z"
     id="path151"
     inkscape:connector-curvature="0"
     style="fill:#2b244a" />
  <path
     d="m 972.44708,364.34393 c 0.7,-1.248 2.85,-1.684 6.64,-0.66 16.21,4.675 29.46002,16.839 44.09002,24.588 2.03,0.998 4.07,1.996 6.38,2.74 3.99,4.817 8.1,9.427 12.37,13.99 -9.73,-1.612 -19.14,-2.09 -29.29,-6.385 -12.13,-5.131 -24.96002,-11.466 -34.33002,-21.057 -3.38,-3.244 -7.64,-10.259 -5.86,-13.216 z"
     id="path153"
     inkscape:connector-curvature="0"
     style="fill:#1f1c2d" />
  <path
     d="m 1225.9271,639.99193 c -0.47,-7.217 -2.93,-14.044 -6.93,-20.087 15.87,0.396 32.15,1.024 46.92,6.807 14.93,5.737 20.7,13.726 34.14,26.538 5.06,4.865 30.25,30.094 33.92,37.455 1.7,3.541 3.8,7.847 1.92,11.706 -4.15,8.181 -14.88,4.925 -21.42,2.232 -15.49,-6.455 -30.76,-12.795 -46.25,-19.25 -15.28,-6.339 -30.95,-12.216 -46.09,-19.295 -3.44,-1.648 -6.88,-3.295 -10.44,-4.735 0.75,-8.441 4.46,-13.87 14.23,-21.371 z"
     id="path155"
     inkscape:connector-curvature="0"
     style="fill:#f5e3d9" />
  <path
     d="m 1325.8071,706.32593 c 7.46,-8.245 -5.29,-19.854 -10.34,-25.945 -5.31,-6.369 -10.74,-12.53 -16.44,-18.437 -11.75,-12.416 -24.18,-24.117 -37.11,-35.147 -0.67,-0.51 0.28,-1.48 0.95,-0.97 15.5,13.278 30.32,27.272 43.88,42.328 6.34,6.949 12.42,14.152 18.09,21.817 4.13,5.303 7.32,11.576 2.15,17.419 -0.77,0.392 -1.74,-0.558 -1.18,-1.065 z"
     id="path157"
     inkscape:connector-curvature="0"
     style="fill:#2b244a" />
  <path
     d="m 1156.8471,410.88093 c -30.43,11.792 -61.16,23.145 -91.46,35.423 -0.76,0.392 -1.13,-0.904 -0.37,-1.296 30.25,-12.44 60.98,-23.792 91.46,-35.423 0.81,-0.23 1.18,1.066 0.37,1.296 z"
     id="path159"
     inkscape:connector-curvature="0"
     style="fill:#2b244a" />
  <path
     d="m 1123.1571,447.57693 c -4.82,-6.507 -17.4,4.066 -22.03,7.481 -5.07,3.716 -9.52,7.779 -14.08,12.05 -0.72,0.554 -1.64,-0.234 -0.97,-0.949 6.18,-5.958 12.67,-11.475 19.92,-16.158 4.88,-3.138 13.33,-9.739 18.2,-3.07 0.56,0.718 -0.48,1.364 -1.04,0.646 z"
     id="path161"
     inkscape:connector-curvature="0"
     style="fill:#2b244a" />
  <path
     d="m 1250.2271,676.85293 c 3.82,-1.96 5.01,-7.023 4.55,-11.094 -0.52,-4.928 -4.84,-8.427 -8.56,-11.047 -6.82,-4.891 -13.98,-9.158 -20.87,-13.68 -0.67,-0.51 -0.13,-1.711 0.7,-1.248 5.17,3.432 10.47,6.655 15.64,10.087 4.09,2.69 8.71,5.403 11.74,9.271 4.13,5.303 4.32,15.225 -2.39,18.707 -0.88,0.6 -1.58,-0.604 -0.81,-0.996 z"
     id="path163"
     inkscape:connector-curvature="0"
     style="fill:#2b244a" />
  <path
     d="m 1271.7571,635.55593 c -12.12,0.466 -23.47,-4.363 -31.6,-13.258 -0.55,-0.718 0.4,-1.688 0.95,-0.97 7.92,8.779 18.85,13.376 30.6,12.84 0.91,0.094 0.95,1.482 0.05,1.388 z"
     id="path165"
     inkscape:connector-curvature="0"
     style="fill:#2b244a" />
  <path
     d="m 1302.0271,665.11793 c -10.53,5.442 -2.69,18.268 2.37,24.359 2.72,3.427 5.79,7.457 2.57,11.522 -0.51,0.67 -1.48,-0.28 -0.97,-0.95 1.02,-1.34 1,-4.485 0.22,-6.013 -0.74,-1.366 -1.92,-2.431 -2.77,-3.589 -1.06,-1.274 -1.92,-2.432 -2.98,-3.706 -2.05,-2.917 -4.2,-6.159 -4.68,-9.698 -0.94,-5.16 0.85,-10.569 5.6,-12.967 0.71,-0.553 1.41,0.65 0.64,1.042 z"
     id="path167"
     inkscape:connector-curvature="0"
     style="fill:#2b244a" />
  <path
     d="m 1136.9171,434.39293 c -4.41,-3.824 -10.32,3.105 -15.45,1.061 -3.56,-1.439 -5.47,-5.097 -6.65,-8.614 -0.23,-0.81 1.07,-1.178 1.3,-0.368 0.85,2.383 2.07,4.837 4.13,6.529 3.19,2.595 6.4,0.982 9.71,-0.308 2.66,-1.106 5.56,-1.402 7.87,0.568 0.71,0.672 -0.24,1.642 -0.91,1.132 z"
     id="path169"
     inkscape:connector-curvature="0"
     style="fill:#2b244a" />
  <path
     d="m 922.68708,270.47693 c -0.72,-9.947 16.71,-5.269 21.61,-4.035 6.06,1.605 11.86,4.159 17.31,7.337 0.53,2.475 0.85,4.835 1.22,7.356 0.2,1.342 0.25,2.73 0.41,3.91 -6.5,-1.306 -13.72,-0.832 -20.24,-1.606 -6.93,-1.006 -19.74,-4.195 -20.31,-12.962 z"
     id="path171"
     inkscape:connector-curvature="0"
     style="fill:#1f1c2d" />
  <path
     d="m 840.84908,278.13593 c -1.258,-8.744 -1.774,-18.575 0.322,-27.222 0.442,-1.525 1.115,-3.467 3.173,-3.001 2.058,0.466 2.424,2.987 2.56,4.699 1.168,7.195 2.983,14.206 5.725,20.779 -3.682,2.446 -7.547,4.244 -11.85,5.115 0.116,-0.208 0.07,-0.37 0.07,-0.37 z"
     id="path173"
     inkscape:connector-curvature="0"
     style="fill:#2b244a" />
  <path
     d="m 861.71708,160.53893 8.9,17.777 28.44,-6.499 -15.34,-28.727 z"
     id="path175"
     inkscape:connector-curvature="0"
     style="fill:#ffa67d" />
  <path
     d="m 899.05708,171.81693 c 0,0 -8.96,1.142 -19.11,14.702 -6.98,9.332 -13.87,39.296 -13.87,39.296 0,0 -14.366,-27.778 4.38,-47.453 10.4,-10.83 28.6,-6.545 28.6,-6.545 z"
     id="path177"
     inkscape:connector-curvature="0"
     style="fill:#ffa67d" />
  <path
     d="m 896.86708,124.65393 c 0.65,-5.088 -3.19,-15.548 -14.55,-17.9259 -10.24,-2.1677 -21.11,-1.0058 -28.116,11.3099 -7.005,12.317 -8.819,18.258 -10.037,27.53 -0.914,7.261 -0.534,15.38 7.997,17.684 9.686,2.675 20.776,-2.048 25.706,-6.249 4.93,-4.202 16.58,-13.11 19,-32.349 z"
     id="path179"
     inkscape:connector-curvature="0"
     style="fill:#ffa67d" />
  <path
     d="m 860.45708,110.48493 c 7,-6.1871 16.5,-6.611 24.16,-4.9333 11.39,2.5397 17.62,17.0513 18.67,22.0033 3.74,19.943 -4.03,44.377 -4.03,44.377 0,0 -9.5,0.424 -13.25,-1.664 -9.98,-5.567 -10.91,-15.629 -9.64,-27.192 -8.55,-9.126 -14.01,-20.353 -15.91,-32.591 z"
     id="path181"
     inkscape:connector-curvature="0"
     style="fill:#1f1c2d" />
  <path
     d="m 882.56708,140.26593 c 1.38,4.859 -1.57,9.896 -6.42,11.276 -4.86,1.38 -9.9,-1.566 -11.28,-6.425 -1.38,-4.859 1.56,-9.896 6.42,-11.276 4.91,-1.218 9.9,1.566 11.28,6.425 z"
     id="path183"
     inkscape:connector-curvature="0"
     style="fill:#ffa67d" />
  <path
     d="m 851.83308,123.26193 c 0,0 -7.57,4.776 -8.382,6.231 -1.02,1.34 0.088,2.776 3.205,5.742 3.118,2.965 5.177,-11.973 5.177,-11.973 z"
     id="path185"
     inkscape:connector-curvature="0"
     style="fill:#ffa67d" />
  <path
     d="m 870.25708,160.38993 c -0.68,3.168 -2.19,5.871 -4.48,8.273 l -2.54,-5.231 c 2.18,-0.968 4.26,-2.26 6.14,-3.668 0.28,-0.254 0.95,0.256 0.88,0.626 z"
     id="path187"
     inkscape:connector-curvature="0"
     style="fill:#2b244a" />
  <path
     d="m 876.10708,145.24993 c 2.04,-2.679 0.7,-6.151 -2.51,-6.989 -0.79,-0.302 -0.46,-1.619 0.33,-1.317 4.16,1.093 5.65,5.745 3.15,9.256 -0.51,0.67 -1.48,-0.28 -0.97,-0.95 z"
     id="path189"
     inkscape:connector-curvature="0"
     style="fill:#2b244a" />
  <path
     d="m 851.67508,120.85593 c -0.327,2.544 2.634,1.878 4.942,3.848 2.27,1.807 4,2.365 4.65,0.955 0.76,-1.617 -0.76,-4.511 -4.36,-6.113 -3.238,-1.531 -4.882,-0.54 -5.232,1.31 z"
     id="path191"
     inkscape:connector-curvature="0"
     style="fill:#2b244a" />
  <path
     d="m 854.09508,126.29593 c 2.062,0.466 1.132,3.355 0.548,4.395 -0.348,0.624 -0.974,1.502 -1.922,1.246 -1.318,-0.326 -1.13,-2.13 -0.874,-3.078 0.372,-1.155 0.93,-2.889 2.248,-2.563 z"
     id="path193"
     inkscape:connector-curvature="0"
     style="fill:#2b244a" />
  <path
     d="m 852.91408,141.85893 c -2.06,0.76 -4.258,1.034 -6.524,0.452 -0.947,-0.256 -0.413,-1.458 0.326,-1.318 2.058,0.466 3.932,0.284 5.83,-0.43 0.764,-0.392 1.131,0.904 0.368,1.296 z"
     id="path195"
     inkscape:connector-curvature="0"
     style="fill:#2b244a" />
  <path
     d="m 878.15708,149.39393 c 4.58,1.326 9.11,2.49 13.52,3.862 0.79,0.302 0.46,1.62 -0.32,1.318 -4.58,-1.326 -9.11,-2.49 -13.53,-3.862 -0.94,-0.256 -0.62,-1.573 0.33,-1.318 z"
     id="path197"
     inkscape:connector-curvature="0"
     style="fill:#ffbe63" />
  <path
     d="m 878.66708,149.95093 c 1.12,4.582 2.41,9.117 3.54,13.698 0.23,0.81 -1.07,1.178 -1.3,0.368 -1.12,-4.581 -2.41,-9.117 -3.54,-13.698 -0.27,-0.972 1.02,-1.34 1.3,-0.368 z"
     id="path199"
     inkscape:connector-curvature="0"
     style="fill:#ffbe63" />
  <path
     d="m 892.00708,154.38993 c -3.29,3.209 -6.7,6.627 -9.99,9.836 -0.72,0.554 -1.64,-0.234 -0.97,-0.95 3.29,-3.209 6.7,-6.627 9.99,-9.836 0.51,-0.67 1.48,0.28 0.97,0.95 z"
     id="path201"
     inkscape:connector-curvature="0"
     style="fill:#ffbe63" />
  <path
     d="m 878.15708,149.39393 c 4.58,1.326 9.11,2.49 13.52,3.862 0.79,0.302 0.46,1.62 -0.32,1.318 -4.58,-1.326 -9.11,-2.49 -13.53,-3.862 -0.94,-0.256 -0.62,-1.573 0.33,-1.318 z"
     id="path203"
     inkscape:connector-curvature="0"
     style="fill:#ffbe63" />
  <path
     d="m 878.66708,149.95093 c 1.12,4.582 2.41,9.117 3.54,13.698 0.23,0.81 -1.07,1.178 -1.3,0.368 -1.12,-4.581 -2.41,-9.117 -3.54,-13.698 -0.27,-0.972 1.02,-1.34 1.3,-0.368 z"
     id="path205"
     inkscape:connector-curvature="0"
     style="fill:#ffbe63" />
  <path
     d="m 892.00708,154.38993 c -3.29,3.209 -6.7,6.627 -9.99,9.836 -0.72,0.554 -1.64,-0.234 -0.97,-0.95 3.29,-3.209 6.7,-6.627 9.99,-9.836 0.51,-0.67 1.48,0.28 0.97,0.95 z"
     id="path207"
     inkscape:connector-curvature="0"
     style="fill:#ffbe63" />
</svg>
