<svg width="556" height="748" viewBox="0 0 556 748" fill="none" xmlns="http://www.w3.org/2000/svg">
<path fill-rule="evenodd" clip-rule="evenodd" d="M232.228 657.44C303.579 706.971 481.665 757.703 565.468 745.259C649.799 732.737 668.327 633.235 725.215 573.087C777.687 517.608 749.444 533.59 764.478 458.319C779.505 383.087 697.034 321.135 664.873 248.797C629.268 168.711 645.292 53.5936 566.216 12.3723C487.037 -28.9024 403.025 48.7041 318.518 68.2469C246.441 84.9154 165.314 74.0436 107.965 118.346C47.6492 164.94 10.2146 236.907 1.70932 312.982C-6.624 387.519 18.841 463.985 62.0953 528.619C102.283 588.669 172.311 615.846 232.228 657.44Z" fill="#262234"/>
</svg>
