<svg width="320" height="500" viewBox="0 0 320 500" fill="none" xmlns="http://www.w3.org/2000/svg">
<path fill-rule="evenodd" clip-rule="evenodd" d="M-28.4596 266.866C-4.95051 263.873 21.8659 246.119 40.6158 260.639C59.4838 275.251 46.2382 306.485 52.4785 329.545C58.2344 350.814 81.3574 368.496 75.5556 389.753C69.7567 410.999 41.9938 415.658 25.1211 429.779C6.44144 445.412 -4.12086 476.979 -28.4596 476.804C-52.83 476.628 -63.4533 445.439 -81.483 429.01C-96.861 414.998 -117.888 406.795 -126.229 387.719C-135 367.657 -135.042 344.212 -127.557 323.633C-120.223 303.47 -104.455 287.389 -85.8609 276.737C-68.5849 266.841 -48.2016 269.378 -28.4596 266.866Z" fill="#262234"/>
<path fill-rule="evenodd" clip-rule="evenodd" d="M369.54 289.866C393.049 286.873 419.866 269.119 438.616 283.639C457.484 298.251 444.238 329.485 450.478 352.545C456.234 373.814 479.357 391.496 473.556 412.753C467.757 433.999 439.994 438.658 423.121 452.779C404.441 468.412 393.879 499.979 369.54 499.804C345.17 499.628 334.547 468.439 316.517 452.01C301.139 437.998 280.112 429.795 271.771 410.719C263 390.657 262.958 367.212 270.443 346.633C277.777 326.47 293.545 310.389 312.139 299.737C329.415 289.841 349.798 292.378 369.54 289.866Z" fill="#262234"/>
<path d="M289.94 284.221C286.932 289.647 287.661 296.85 290.487 302.277C295.044 310.884 303.884 316.029 310.811 322.297C317.738 328.565 322.659 336.704 327.399 344.75C331.318 351.392 335.419 362.619 344.442 362.993C351.642 363.274 351.824 354.947 350.093 349.896C348.726 345.873 346.538 342.224 344.533 338.576C341.981 333.804 339.52 329.033 336.968 324.262C332.047 314.906 327.216 305.644 322.295 296.289C318.649 289.459 314.274 282.069 306.892 279.169C300.877 276.736 293.403 277.952 289.94 284.221Z" fill="#587EE0"/>
<path d="M33.2361 114.9C33.6703 117.051 34.7559 118.987 36.4927 120.062C38.0125 120.922 40.1835 121.138 41.9204 120.922C53.6442 119.632 74.2697 103.717 67.7565 90.3824C63.8485 82.2098 52.993 84.7907 46.914 88.6619C39.5323 93.6085 32.5851 104.362 33.0193 113.61C33.0193 113.825 33.019 114.255 33.2361 114.9Z" fill="#F576A6"/>
<path fill-rule="evenodd" clip-rule="evenodd" d="M-64.3578 29.8033C-77.398 19.9473 -88.7857 6.88052 -92.1783 -9.11677C-95.5145 -24.8483 -91.1956 -41.7089 -82.3783 -55.1712C-74.4518 -67.2735 -58.2035 -69.2402 -46.8926 -78.2595C-33.2699 -89.1221 -27.0466 -114.495 -9.6892 -113.133C7.72167 -111.767 7.84067 -83.3969 21.769 -72.8723C37.0655 -61.3138 67.3004 -68.7232 73.2232 -50.482C78.9941 -32.7089 52.0534 -21.069 44.0822 -4.15211C36.8313 11.2359 42.6101 33.0475 29.034 43.2977C15.4304 53.5686 -3.94085 47.269 -20.7979 44.8333C-36.384 42.5812 -51.7985 39.2957 -64.3578 29.8033Z" fill="#00B1AE"/>
</svg>
