<svg width="179" height="179" viewBox="0 0 179 179" fill="none" xmlns="http://www.w3.org/2000/svg">
<path d="M179 85.9479C179 132.965 145.637 167 98.4169 167C51.1966 167 8 132.965 8 85.9479C8 38.9308 37.5384 0 84.7588 0C131.979 0 179 38.9308 179 85.9479Z" fill="#587EE0"/>
<path opacity="0.4" d="M174.5 86.096C174.5 110.304 167.352 133.418 154.195 150.468C141.047 167.508 121.894 178.5 97.8261 178.5C73.7188 178.5 49.3763 168.7 31.0622 152.847C12.7491 136.995 0.5 115.125 0.5 91C0.5 42.6399 35.259 3.5 83.4239 3.5C131.689 3.5 174.5 37.8326 174.5 86.096Z" stroke="white"/>
<path d="M108.629 84.5673C110.288 85.7648 110.288 88.2352 108.629 89.4327L86.7556 105.219C84.7715 106.65 82 105.233 82 102.786L82 71.2141C82 68.7673 84.7715 67.3495 86.7556 68.7814L108.629 84.5673Z" fill="white"/>
</svg>
