<svg width="1401" height="775" preserveAspectRatio="none" viewBox="0 0 1401 775" fill="none" xmlns="http://www.w3.org/2000/svg">
<path opacity="0.3" d="M735.119 703.207C802.434 698.191 865.814 706.713 924.652 714.625C941.287 716.862 957.558 719.05 973.453 720.869C1045.61 729.129 1109.99 729.796 1165.63 693.2C1295.28 607.918 1410.06 505.712 1399.87 336.378C1389.68 167.021 1263.77 42.9116 1080.17 6.10278C1035.56 -2.84125 979.884 -0.263611 917.919 8.10858C859.376 16.0186 795.265 29.0942 729.632 42.4804C725.804 43.261 721.971 44.0427 718.134 44.8245C578.947 73.1833 433.97 101.677 321.818 84.1796C229.044 107.331 166.684 148.513 124.219 197.751C81.7332 247.011 59.1338 304.367 45.9402 359.877C32.9043 414.724 33.8531 472.115 56.6796 525.079C79.5039 578.038 124.223 626.62 198.819 663.82C268.989 698.813 356.014 712.173 449.044 715.023C539.527 717.796 635.641 710.626 727.392 703.783C729.971 703.59 732.547 703.398 735.119 703.207Z" stroke="white"/>
<path opacity="0.3" d="M671.06 27.1906C493.842 42.3893 321.765 74.0904 207.29 160.764C140.722 211.164 75.3707 269.778 36.4924 330.948C-2.37708 392.104 -14.7358 455.719 24.469 516.263C43.4219 545.532 73.2767 567.302 110.394 584.169C147.512 601.035 191.86 612.983 239.756 622.626C282.552 631.242 328.158 638.013 373.948 644.812C379.404 645.622 384.862 646.433 390.318 647.247C441.565 654.892 492.648 662.85 539.85 673.743C585.77 684.34 631.393 698.21 676.763 712.252C680.395 713.377 684.026 714.502 687.655 715.627C729.361 728.553 770.857 741.414 812.203 751.804C902.09 774.393 991.203 785.285 1080.06 759.782C1270.68 705.071 1351.73 564.377 1378.83 433.159C1392.22 368.3 1391.25 300.425 1367.79 237.783C1344.34 175.15 1298.4 117.715 1221.8 73.7447C1149.74 32.3829 1060.38 16.592 964.843 13.2225C871.924 9.94524 773.22 18.4196 678.994 26.5096C676.346 26.737 673.701 26.9641 671.06 27.1906Z" stroke="white"/>
</svg>
