<svg width="286" height="228" viewBox="0 0 286 228" fill="none" xmlns="http://www.w3.org/2000/svg">
<path d="M138.039 156.156C136.931 157.403 135.775 158.699 134.281 159.515C132.113 160.762 128.5 160.954 127.055 158.507C126.525 157.643 126.429 156.588 126.862 155.628C127.681 153.805 129.801 153.181 131.005 151.693C132.306 150.158 133.703 148.382 135.871 148.238C137.991 148.094 140.544 149.39 140.496 151.789C140.448 153.565 139.099 154.956 138.039 156.156Z" fill="#587EE0"/>
<path d="M128.837 131.251C133.366 126.645 139.629 123.91 143.868 118.776C150.035 111.29 153.311 101.597 160.248 94.6875C165.595 89.3613 180.048 85.6665 176.531 98.7182C174.845 104.908 168.534 107.931 163.813 111.482C158.032 115.897 155.527 122.854 150.95 128.324C145.891 134.37 139.243 142.144 131.824 145.263C123.201 148.862 121.948 143.343 125.128 136.482C126.092 134.466 127.344 132.787 128.837 131.251Z" fill="#587EE0"/>
<path d="M141.218 114.218C142.326 112.826 143.531 111.435 145.024 110.427C145.988 109.803 149.119 108.316 149.697 110.091C149.842 110.619 149.697 111.147 149.553 111.674C148.589 114.41 146.71 116.905 144.88 119.112C143.868 120.36 140.688 124.006 138.81 123.239C136.015 122.087 138.954 117.577 139.918 116.137C140.303 115.465 140.737 114.841 141.218 114.218Z" fill="#FFBE63"/>
<g opacity="0.3">
<mask id="path-4-inside-1_3755_1717" fill="white">
<path fill-rule="evenodd" clip-rule="evenodd" d="M54.7583 68.7856C49.7968 75.9825 43.3086 83.0531 34.4033 84.9471C29.0601 75.0986 27.4698 63.2932 30.0778 52.1821C31.6044 50.9826 33.1946 49.8463 34.7849 48.7099C35.3739 48.2979 35.9643 47.8872 36.555 47.4765C39.855 45.1816 43.1592 42.8838 46.2346 40.3135C49.7967 37.3464 52.9136 33.8742 55.9668 30.3389C56.5869 29.6123 57.2051 28.8805 57.8245 28.1474C62.4794 22.6378 67.1982 17.0526 73.205 13.041C73.1133 16.273 73.2118 19.505 73.5033 22.7192C74.7283 21.9912 75.9435 21.1947 77.167 20.3928C80.9121 17.9382 84.7341 15.4332 89.1457 14.6866C93.274 13.992 97.3387 14.8761 101.276 16.3284C102.864 21.1907 102.483 26.6212 100.959 31.5466C99.0798 37.5893 96.5357 41.8102 94.048 45.9373C91.1544 50.7378 88.3373 55.4114 86.7322 62.6777C85.9765 66.0977 87.1881 68.4228 88.7088 71.3409C90.8944 75.5348 93.7184 80.9538 92.2578 92.609C69.8379 103.028 64.3759 111.742 59.4854 127.908C56.0557 129.36 56.2463 114.521 56.4368 109.532C56.8267 96.8183 61.6199 84.8658 66.3948 72.9591C69.3987 65.4688 72.3952 57.9965 74.2837 50.3642C69.5019 53.8824 64.252 57.7943 59.3745 61.6418C57.8705 64.0468 56.3574 66.4457 54.7583 68.7856Z"/>
</mask>
<path d="M34.4033 84.9471L34.6113 85.9252L33.8806 86.0806L33.5243 85.4239L34.4033 84.9471ZM54.7583 68.7856L55.5839 69.3498L55.5816 69.3531L54.7583 68.7856ZM30.0778 52.1821L29.1043 51.9536L29.1844 51.6124L29.46 51.3958L30.0778 52.1821ZM34.7849 48.7099L34.2034 47.8963L34.2116 47.8906L34.7849 48.7099ZM36.555 47.4765L35.984 46.6555L36.555 47.4765ZM46.2346 40.3135L45.5933 39.5462L45.5945 39.5452L46.2346 40.3135ZM55.9668 30.3389L56.7275 30.988L56.7237 30.9925L55.9668 30.3389ZM57.8245 28.1474L58.5884 28.7927L57.8245 28.1474ZM73.205 13.041L72.6497 12.2094L74.2596 11.1343L74.2046 13.0694L73.205 13.041ZM73.5033 22.7192L74.0143 23.5789L72.6507 24.3893L72.5074 22.8096L73.5033 22.7192ZM77.167 20.3928L76.6189 19.5564L77.167 20.3928ZM89.1457 14.6866L88.9789 13.7006L88.9798 13.7005L89.1457 14.6866ZM101.276 16.3284L101.623 15.3902L102.077 15.5577L102.227 16.018L101.276 16.3284ZM100.959 31.5466L101.914 31.8423L101.914 31.8436L100.959 31.5466ZM94.048 45.9373L93.1915 45.4211L94.048 45.9373ZM86.7322 62.6777L87.7087 62.8934L87.7086 62.8935L86.7322 62.6777ZM88.7088 71.3409L87.822 71.803L88.7088 71.3409ZM92.2578 92.609L93.25 92.7334L93.1812 93.2826L92.6792 93.5159L92.2578 92.609ZM59.4854 127.908L60.4426 128.197L60.3069 128.646L59.8754 128.829L59.4854 127.908ZM56.4368 109.532L57.4364 109.563L57.4361 109.57L56.4368 109.532ZM66.3948 72.9591L65.4667 72.5869L66.3948 72.9591ZM74.2837 50.3642L73.6911 49.5587L75.9187 47.9198L75.2544 50.6044L74.2837 50.3642ZM59.3745 61.6418L58.5266 61.1116L58.6187 60.9643L58.7551 60.8566L59.3745 61.6418ZM34.1953 83.9689C42.7031 82.1596 49.001 75.3749 53.935 68.218L55.5816 69.3531C50.5925 76.59 43.9142 83.9467 34.6113 85.9252L34.1953 83.9689ZM31.0514 52.4106C28.499 63.2847 30.0569 74.839 35.2823 84.4702L33.5243 85.4239C28.0633 75.3583 26.4407 63.3016 29.1043 51.9536L31.0514 52.4106ZM35.3663 49.5236C33.7729 50.6622 32.2014 51.7854 30.6956 52.9685L29.46 51.3958C31.0075 50.1799 32.6164 49.0304 34.2035 47.8963L35.3663 49.5236ZM37.1259 48.2975C36.5351 48.7084 35.9458 49.1182 35.3581 49.5293L34.2116 47.8906C34.802 47.4775 35.3936 47.0661 35.984 46.6555L37.1259 48.2975ZM46.8758 41.0808C43.7608 43.6843 40.4198 46.0069 37.1259 48.2975L35.984 46.6555C39.2903 44.3563 42.5576 42.0834 45.5933 39.5462L46.8758 41.0808ZM56.7237 30.9925C53.6677 34.531 50.505 38.0579 46.8746 41.0819L45.5945 39.5452C49.0884 36.6349 52.1595 33.2174 55.21 29.6852L56.7237 30.9925ZM58.5884 28.7927C57.9693 29.5255 57.3494 30.2592 56.7275 30.988L55.2062 29.6897C55.8243 28.9653 56.441 28.2354 57.0607 27.502L58.5884 28.7927ZM73.7604 13.8726C67.8908 17.7926 63.2598 23.2636 58.5884 28.7927L57.0607 27.502C61.699 22.012 66.5055 16.3127 72.6497 12.2094L73.7604 13.8726ZM72.5074 22.8096C72.2122 19.5554 72.1126 16.2838 72.2055 13.0126L74.2046 13.0694C74.114 16.2622 74.2113 19.4545 74.4992 22.6289L72.5074 22.8096ZM72.9924 21.8596C74.1952 21.1447 75.392 20.3605 76.6189 19.5564L77.7152 21.2291C76.4951 22.0288 75.2613 22.8377 74.0143 23.5789L72.9924 21.8596ZM76.6189 19.5564C80.3293 17.1245 84.3256 14.4881 88.9789 13.7006L89.3126 15.6726C85.1427 16.3783 81.4948 18.7519 77.7152 21.2291L76.6189 19.5564ZM88.9798 13.7005C93.3538 12.9645 97.6098 13.9102 101.623 15.3902L100.93 17.2666C97.0677 15.8419 93.1942 15.0195 89.3116 15.6728L88.9798 13.7005ZM102.227 16.018C103.896 21.1286 103.481 26.7784 101.914 31.8423L100.004 31.251C101.485 26.4641 101.833 21.2528 100.326 16.6388L102.227 16.018ZM101.914 31.8436C99.9955 38.0124 97.3937 42.3238 94.9044 46.4535L93.1915 45.4211C95.6776 41.2966 98.1642 37.1662 100.004 31.2497L101.914 31.8436ZM94.9044 46.4535C92.0155 51.2463 89.2757 55.7995 87.7087 62.8934L85.7557 62.462C87.3989 55.0234 90.2934 50.2292 93.1915 45.4211L94.9044 46.4535ZM87.7086 62.8935C87.0401 65.919 88.0645 67.9405 89.5957 70.8787L87.822 71.803C86.3118 68.905 84.9129 66.2765 85.7558 62.4619L87.7086 62.8935ZM89.5957 70.8787C90.6908 72.9803 91.9956 75.4785 92.8233 78.9447C93.6516 82.4134 93.9931 86.8043 93.25 92.7334L91.2655 92.4847C91.9831 86.7586 91.6429 82.6123 90.878 79.4093C90.1125 76.2037 88.9124 73.8954 87.822 71.803L89.5957 70.8787ZM92.6792 93.5159C81.5281 98.6981 74.7007 103.409 70.053 108.759C65.4122 114.102 62.8739 120.161 60.4426 128.197L58.5283 127.618C60.9874 119.489 63.6254 113.109 68.5431 107.448C73.454 101.795 80.5675 96.939 91.8363 91.7022L92.6792 93.5159ZM59.8754 128.829C59.517 128.98 59.1263 129.047 58.7248 128.983C58.3246 128.918 57.9859 128.734 57.7112 128.499C57.1915 128.054 56.8456 127.378 56.5959 126.693C56.0865 125.297 55.787 123.311 55.6072 121.221C55.2445 117.006 55.3418 111.999 55.4375 109.494L57.4361 109.57C57.3412 112.053 57.248 116.961 57.5998 121.05C57.7773 123.112 58.0614 124.875 58.4748 126.008C58.6867 126.589 58.887 126.873 59.0126 126.98C59.0606 127.022 59.0693 127.012 59.043 127.008C59.0154 127.004 59.0251 127.017 59.0955 126.987L59.8754 128.829ZM55.4373 109.502C55.8335 96.5804 60.7043 84.4625 65.4667 72.5869L67.323 73.3313C62.5356 85.2692 57.8198 97.0563 57.4363 109.563L55.4373 109.502ZM65.4667 72.5869C68.4753 65.0845 71.4441 57.6772 73.313 50.124L75.2544 50.6044C73.3464 58.3159 70.322 65.8531 67.323 73.3313L65.4667 72.5869ZM74.8763 51.1697C70.0968 54.6861 64.8579 58.5901 59.9938 62.4269L58.7551 60.8566C63.6462 56.9985 68.9069 53.0786 73.6911 49.5587L74.8763 51.1697ZM53.9327 68.2213C55.5192 65.8999 57.0229 63.5163 58.5266 61.1116L60.2223 62.172C58.7182 64.5774 57.1956 66.9915 55.5839 69.3498L53.9327 68.2213Z" fill="white" mask="url(#path-4-inside-1_3755_1717)"/>
</g>
<path d="M120.07 8.22069C120.07 8.22069 124.116 3.32631 120.31 0.639197C117.95 -1.04025 116.119 1.02307 114.24 1.88679C112.072 2.89446 109.856 2.60655 109.086 3.80615C108.363 4.95777 108.7 5.7735 108.7 5.7735C108.7 5.7735 107.496 5.91745 106.918 6.9731C106.34 8.02876 106.34 10.284 111.253 14.7465C116.216 19.2091 120.07 8.22069 120.07 8.22069Z" fill="#373249"/>
<path d="M121.9 24.535C121.9 24.535 118.094 21.512 114.577 19.5926C111.061 17.6732 104.22 15.418 104.22 15.418C104.22 15.418 101.57 26.5503 94.7775 35.0435C87.9847 43.5367 82.7337 44.1125 83.8417 56.0126C84.9497 67.9126 92.8505 81.0123 93.2359 81.3002C93.5731 81.5401 117.757 72.9989 117.757 72.759C117.757 72.5191 119.636 58.4597 120.262 55.9646C120.84 53.4694 125.176 37.2987 125.176 36.8669C125.176 36.435 124.839 30.1011 124.164 28.5656C123.345 27.0301 121.9 24.535 121.9 24.535Z" fill="#F5E3D9"/>
<path d="M119.299 17.0017L119.058 22.8077L111.35 18.825L111.253 13.9307L119.299 17.0017Z" fill="#FFA67D"/>
<path d="M125.08 60.7151C125.031 60.6671 125.032 60.6191 125.032 60.5711C124.839 52.9416 127.537 45.5521 127.392 37.9226C127.296 33.0762 125.61 27.702 121.9 24.583C124.02 30.725 121.707 37.7787 119.299 43.6327C117.564 47.8553 115.686 52.1259 115.011 56.6844C114.385 61.051 114.722 65.4655 115.926 69.6401C118.721 66.3772 121.756 63.4022 125.08 60.7151Z" fill="#EB5D19"/>
<path d="M123.008 46.9913C124.02 46.5595 124.213 48.4308 124.261 49.4865C124.405 52.8454 124.502 56.2523 124.646 59.6111C124.791 59.947 124.887 60.2349 124.983 60.5228C125.032 60.6668 124.887 60.7628 124.694 60.7148C124.694 60.7628 124.694 60.7628 124.694 60.8107C124.694 61.3386 124.213 61.3386 124.164 60.8587C124.164 60.7628 124.164 60.6668 124.164 60.6188C123.924 60.5228 123.683 60.3789 123.634 60.187C122.815 57.7878 122.286 55.1966 122.141 52.5095C122.045 51.1659 121.804 47.5191 123.008 46.9913Z" fill="#373249"/>
<path d="M17.6005 212.873C17.6487 208.363 17.9859 203.804 18.6603 199.342C19.383 194.687 20.8282 190.225 23.7669 186.434C26.272 183.219 29.4516 180.676 32.6312 178.229C32.7757 178.085 32.9684 177.941 33.1129 177.845C33.2575 177.749 33.4019 177.653 33.5465 177.509C33.5947 177.461 33.6429 177.461 33.7392 177.461H33.7874C33.7392 177.413 33.691 177.413 33.6428 177.365C33.3538 177.221 33.5946 176.741 33.8837 176.933C37.1114 178.805 39.9538 181.252 42.218 184.179C44.3377 186.962 46.8911 190.945 46.3612 194.639C45.8312 198.334 42.1699 200.781 40.002 203.517C37.3042 206.875 35.1845 210.618 33.1129 214.409C32.0531 216.328 31.0414 218.248 29.9815 220.167C29.0662 221.847 28.1508 223.622 26.8983 225.109C24.8749 227.461 21.4544 228.324 19.4311 225.493C18.323 223.958 18.1304 221.942 17.9377 220.119C17.6487 217.768 17.6005 215.321 17.6005 212.873Z" fill="#F5E3D9"/>
<path d="M174.026 93.2483C174.026 93.2483 174.075 93.2483 174.026 93.2483C174.171 93.1523 174.315 93.1043 174.412 93.2003C185.588 91.7128 196.861 91.5208 208.086 92.5765C209.532 93.0084 210.929 93.4402 212.326 93.968C216.18 100.206 223.021 103.853 229.765 106.444C233.764 107.979 237.907 109.227 241.857 110.858C242.965 111.29 244.025 111.962 244.844 112.826C245.374 113.402 245.759 114.073 245.856 114.841C245.952 115.753 245.615 116.665 245.037 117.384C243.543 119.256 241.086 120.071 238.822 120.503C234.149 121.367 228.368 121.271 223.599 121.079C216.999 120.839 205.437 122.087 198.74 119.879C195.127 118.68 193.923 118.68 191.707 115.705C186.504 108.699 180.578 99.7261 174.267 93.7281C174.219 93.7281 174.219 93.7281 174.171 93.7281C173.834 93.7761 173.689 93.2963 174.026 93.2483Z" fill="#F5E3D9"/>
<path d="M54.8401 95.1673C54.9364 95.1193 55.0328 95.1193 55.0809 95.1193C54.0693 94.6395 53.1539 93.9197 53.7802 92.9121C54.2138 92.1923 55.37 92.0963 56.0927 92.0004C56.189 92.0004 56.3335 92.0004 56.4299 91.9524C56.6707 90.8008 57.8752 90.3689 59.0314 90.3689C61.0066 90.3689 63.03 90.5129 65.0533 90.6088C66.9322 88.3056 69.2446 86.3382 71.7979 84.8027C71.8942 86.7221 72.135 88.6895 72.1832 90.6088C72.2314 92.2403 72.2796 93.9197 72.5686 95.5032C69.1 96.9427 65.9687 99.246 63.6081 102.173C62.8854 103.085 61.8737 105.532 60.3802 105.34C59.1277 105.148 59.3205 103.613 59.5132 102.701C59.7059 101.597 59.9467 100.494 60.2839 99.4379C59.1759 98.9101 58.0679 98.4782 56.8635 98.1423C55.9 97.8544 54.8401 97.8064 53.8766 97.5185C53.4912 97.3746 53.1058 97.2306 52.9613 96.7988C52.5759 95.7431 54.1656 95.4072 54.8401 95.1673Z" fill="#FFA67D"/>
<path d="M5.65329 82.5959C5.65329 82.5479 5.60506 82.4519 5.60506 82.4039C5.50871 81.4443 6.37594 80.7245 7.24309 80.4846C8.92923 80.0527 10.9526 80.4846 12.6387 80.4366C14.8548 80.3406 16.9744 79.8608 18.8533 78.6132C21.792 76.6459 23.8153 73.6229 26.3205 71.1757C28.9701 68.5365 32.0051 66.3772 35.3292 64.6978C35.4256 64.6498 35.4738 64.6498 35.522 64.6978C35.6665 64.6018 35.9073 64.6018 35.9555 64.7938C37.0636 67.9127 37.8826 71.1277 38.5088 74.3426C38.5088 74.3906 38.4606 74.4386 38.4606 74.4866C38.6533 76.5499 38.9424 78.5652 39.0869 80.6285C34.703 86.5306 27.6213 90.2254 22.9001 95.8395C22.0811 96.7992 21.3584 97.8069 20.6357 98.8145C20.2503 99.3424 19.7686 99.9662 19.0942 100.206C18.0825 100.542 17.408 99.8222 17.2635 98.9105C17.0226 97.327 17.8416 95.4077 18.4197 93.9681C18.6124 93.5363 18.8052 93.0564 19.046 92.6246C16.0592 93.1524 13.0241 93.7762 10.1817 92.6246C8.25471 91.8568 6.7131 90.0334 6.56857 88.0181C5.60506 87.4903 4.68971 86.8185 4.01525 85.9548C2.71452 84.2753 4.01532 83.0757 5.65329 82.5959Z" fill="#FFA67D"/>
<path d="M38.8941 83.7477C45.6386 82.3082 50.5525 76.9339 54.3102 71.4638C58.0678 65.9456 61.1992 59.9955 65.4386 54.8132C67.1247 52.7499 69.0037 50.8786 71.0752 49.2471C69.0037 42.7212 68.0883 35.9075 68.281 29.0938C63.1262 32.5486 59.224 37.539 55.2254 42.2414C52.913 44.9285 50.5524 47.5676 47.8546 49.8229C45.1086 52.1261 42.1217 54.1415 39.183 56.2048C37.9787 57.0685 36.7743 57.9322 35.6181 58.8439C33.6429 67.2891 34.8473 76.2622 38.8941 83.7477Z" fill="#F5E3D9"/>
<path d="M61.2475 141.76C65.4387 134.947 68.811 127.557 70.6416 119.736C72.7132 111.098 72.2797 102.221 73.0023 93.3923C73.5804 85.9067 75.2183 78.0373 79.795 71.9434C84.9015 75.3982 89.9118 78.9011 95.2593 81.972C99.306 84.3233 103.545 86.3386 107.737 88.4019C110.724 89.8894 113.71 91.4249 116.408 93.4403C107.014 106.924 104.702 125.206 99.6914 140.369C97.0417 148.382 93.1395 155.628 87.6476 162.106C81.8183 169.015 74.7847 174.821 67.6548 180.34C59.4168 186.673 50.6008 193.055 43.1336 200.397C37.1599 195.119 33.4503 184.85 31.5233 170.455C35.0883 163.929 39.954 159.083 43.3263 156.395C50.3117 150.877 55.5146 151.069 61.2475 141.76Z" fill="#373249"/>
<path d="M82.2038 93.0565C81.5293 90.8493 81.1439 88.546 81.3848 86.2428C81.4812 85.2831 81.6257 84.2754 81.9629 83.3637C83.6972 71.9915 93.5731 75.6863 97.379 73.431C107.303 67.529 113.132 64.506 122.767 57.9321C132.017 51.5982 142.712 42.8171 154.852 44.4966C160.248 45.2643 165.21 47.8075 169.642 50.8305C179.036 57.1644 187.467 65.1297 195.319 73.2391C203.413 81.6363 210.254 90.5134 217.432 99.7263C214.83 99.3904 201.052 98.2388 193.874 98.7187C191.803 98.8626 189.779 99.1025 187.756 99.4864C185.829 99.8223 183.035 100.398 181.349 101.406L184.48 105.724C184.48 105.724 182.071 106.828 180.578 105.484C177.446 102.413 173.592 100.014 170.846 96.5114C168.486 93.4404 164.776 88.4021 162.175 85.475C157.935 80.7246 154.37 79.429 148.589 76.9339C134.908 83.1718 124.694 95.6477 110.049 100.254C105.81 101.598 101.378 102.126 96.9455 101.55C96.6082 101.502 96.7528 101.022 97.09 101.07C97.1864 101.07 97.2826 101.07 97.379 101.118C97.379 101.07 97.379 101.022 97.379 100.974C93.4768 99.8223 89.7191 98.1908 86.2987 95.9836C85.0461 95.1199 83.5045 94.1602 82.2038 93.0565Z" fill="#373249"/>
<path d="M194.067 111.242C195.801 110.283 197.824 110.043 199.751 109.899C202.16 109.707 204.569 109.659 207.026 109.659C212.036 109.611 217.046 109.707 222.057 109.851C227.356 110.043 232.703 110.379 237.954 111.338C240.604 111.818 244.458 112.73 245.855 115.177C246.192 115.849 245.903 116.761 245.373 117.432C243.88 119.304 241.086 120.12 238.822 120.503C234.149 121.367 228.03 121.655 223.261 121.655C216.083 121.703 204.28 122.279 197.584 120.072C194.067 118.92 190.213 116.281 191.658 113.45C192.188 112.49 193.103 111.77 194.067 111.242Z" fill="#373249"/>
<path d="M25.1639 226.548C22.3216 225.253 21.2617 222.422 21.069 219.495C20.8281 215.656 20.9727 211.769 21.2136 207.93C21.6471 200.397 22.8033 192.863 24.6339 185.522C24.6821 185.282 25.0676 185.378 25.0194 185.618C23.2851 192.479 22.2253 199.437 21.6953 206.491C21.4544 209.898 21.358 213.305 21.4062 216.711C21.4544 220.358 21.5507 224.485 25.3566 226.212C25.5975 226.308 25.4048 226.644 25.1639 226.548Z" fill="#373249"/>
<path d="M31.9569 215.752C29.4518 212.297 25.5014 209.706 21.3102 208.746C21.0693 208.698 21.1656 208.315 21.4065 208.363C25.6459 209.37 29.6927 212.057 32.246 215.56C32.4387 215.752 32.1014 215.944 31.9569 215.752Z" fill="#373249"/>
<path d="M34.7029 211.051C31.1379 209.035 30.7524 204.621 31.7159 201.022C32.8721 196.751 34.9919 192.193 38.3642 189.218C38.5569 189.074 38.846 189.314 38.6533 189.506C35.6182 192.193 33.7875 196.031 32.4868 199.822C31.2342 203.517 30.9934 208.459 34.8956 210.715C35.0883 210.859 34.8956 211.194 34.7029 211.051Z" fill="#373249"/>
<path d="M29.6444 181.108C29.9817 186.05 28.2474 191.04 23.3816 193.104C23.1408 193.2 23.0443 192.816 23.2852 192.72C28.0064 190.752 29.5962 185.858 29.259 181.108C29.259 180.868 29.6444 180.868 29.6444 181.108Z" fill="#373249"/>
<path d="M37.8824 205.82C36.4853 203.276 34.751 201.165 32.4386 199.39C32.2459 199.246 32.535 198.958 32.7277 199.102C35.0401 200.925 36.8225 203.036 38.2196 205.628C38.3642 205.868 38.0269 206.059 37.8824 205.82Z" fill="#373249"/>
<path d="M39.6649 203.18C38.3642 200.397 36.4853 198.141 33.8839 196.414C33.6912 196.27 33.8839 195.934 34.0766 196.078C36.7263 197.806 38.7015 200.109 40.0022 202.94C40.0986 203.18 39.8094 203.372 39.6649 203.18Z" fill="#373249"/>
<path d="M234.341 108.603C226.055 107.356 217.625 107.02 209.242 107.02C205.34 107.02 201.293 106.924 197.439 107.356C194.452 107.739 190.454 108.651 189.153 111.722C189.057 111.962 188.719 111.77 188.816 111.53C189.876 109.083 192.622 107.979 195.03 107.404C199.125 106.396 203.557 106.684 207.749 106.636C216.661 106.588 225.622 106.876 234.438 108.219C234.727 108.267 234.582 108.651 234.341 108.603Z" fill="#373249"/>
<path d="M199.751 107.212C195.319 105.1 189.779 103.037 185.492 106.732C185.299 106.876 185.01 106.636 185.202 106.444C186.937 104.908 189.442 104.189 191.754 104.237C194.597 104.285 197.391 105.676 199.896 106.876C200.137 106.972 199.944 107.308 199.751 107.212Z" fill="#373249"/>
<path d="M112.795 99.5351C103.834 104.429 92.6577 104.525 83.6008 99.775C83.3599 99.679 83.5525 99.3431 83.7934 99.4391C92.7059 104.094 103.738 103.998 112.554 99.1992C112.843 99.0552 113.036 99.3911 112.795 99.5351Z" fill="#8D84B8"/>
<path d="M46.7467 196.654C39.9058 186.722 36.7744 175.397 35.9072 163.497C35.9072 163.257 36.2925 163.257 36.2925 163.497C37.1597 175.349 40.2912 186.578 47.0839 196.462C47.2284 196.702 46.8912 196.894 46.7467 196.654Z" fill="#8D84B8"/>
<path d="M181.445 101.694C180.385 102.174 179.373 102.749 178.41 103.325C178.217 103.469 177.976 103.133 178.217 102.989C179.229 102.414 180.192 101.838 181.252 101.358C181.445 101.262 181.638 101.598 181.445 101.694Z" fill="#8D84B8"/>
<path d="M212.373 94.0158C205.34 93.6799 198.306 93.8239 191.321 94.4477C185.54 94.9755 179.373 96.1271 175.182 100.398C174.989 100.59 174.748 100.302 174.893 100.11C178.892 96.0791 184.624 94.7836 190.116 94.1598C197.487 93.3441 204.954 93.2481 212.373 93.584C212.614 93.632 212.614 94.0158 212.373 94.0158Z" fill="#8D84B8"/>
<path d="M65.3423 31.3968C70.1117 26.6464 77.1453 23.8154 82.9263 20.4565C86.7803 18.2012 90.4899 14.9863 95.0184 14.2185C98.1498 13.6907 101.233 14.3625 104.22 15.4661C105.424 19.1609 105.135 23.2875 103.979 27.0303C100.896 36.963 95.4519 40.4179 93.1877 50.6865C91.7906 57.0204 99.2577 58.4119 97.3789 73.431C80.373 81.3484 76.23 87.9702 72.5205 100.254C69.919 101.358 70.0635 90.0815 70.2081 86.2907C70.6898 70.5519 80.0358 56.3486 83.7453 41.3296C78.9277 44.8804 73.484 48.959 68.9074 52.7498C68.9074 52.7498 68.5219 53.1337 68.0402 52.8458C67.8957 52.7498 67.7511 52.6058 67.6548 52.4139C68.0883 51.982 68.5219 51.5502 69.0037 51.1183C69.2446 44.4005 67.7511 37.6348 65.3423 31.3968Z" fill="#EB5D19"/>
<path d="M67.6547 52.3659C67.7511 52.5578 67.8475 52.7018 68.0402 52.7977C68.1847 52.8937 68.2811 52.8937 68.4256 52.8937C68.6183 52.8937 68.7627 52.8457 68.8109 52.7977C68.9554 51.886 69.0037 51.0703 69.0037 51.0703C68.5219 51.5022 68.0883 51.934 67.6547 52.3659Z" fill="#373249"/>
<path d="M83.7452 41.3296C84.8533 40.034 86.0577 38.7864 87.3103 37.5868C88.7074 36.2433 90.1526 34.8037 91.7424 33.7001C92.5132 33.1723 93.3803 33.0763 93.6694 34.132C94.392 37.2029 91.4534 40.3699 89.2373 42.0014C87.1658 43.5368 84.757 44.5445 82.4927 45.7921C82.9263 44.3046 83.3598 42.8171 83.7452 41.3296Z" fill="#373249"/>
<path d="M121.081 24.1518C118.769 31.6373 108.267 19.4014 106.484 16.9062C106.34 16.7143 106.677 16.5223 106.821 16.7143C108.507 19.1135 118.624 30.7736 120.696 24.0558C120.792 23.8159 121.177 23.9119 121.081 24.1518Z" fill="#373249"/>
<path d="M114.577 19.5934C116.456 20.6491 118.48 21.9926 119.877 23.0003C119.78 23.0963 119.684 23.1442 119.636 23.2402C118.191 24.3438 116.264 23.3362 114.915 22.5684C112.94 21.4168 110.82 19.4974 109.23 17.2422C111.061 17.9619 113.084 18.8257 114.577 19.5934Z" fill="#FFA67D"/>
<path d="M108.411 10.7642C107.785 9.46861 107.881 6.30166 110.772 4.62221C113.325 3.08672 116.408 2.46292 119.443 5.19802C122.43 7.88513 123.49 9.37264 124.646 11.7718C125.562 13.6432 126.188 15.8505 124.068 17.29C121.659 18.8735 118.239 18.5856 116.504 17.8658C114.674 17.1461 110.772 15.7545 108.411 10.7642Z" fill="#FFA67D"/>
<path d="M117.179 18.7296C117.42 19.3534 117.902 20.0732 119.106 21.6087L119.202 18.3937C120.792 18.4417 122.526 18.2018 123.923 17.2421C124.357 16.9542 124.694 16.6183 124.935 16.2344C124.742 15.7546 124.261 15.5147 123.538 15.5627C121.996 15.6107 121.033 15.8986 119.202 16.5703C117.42 17.1941 116.697 17.578 117.179 18.7296Z" fill="#373249"/>
<path d="M110.386 4.23792C112.939 2.75041 116.649 1.55081 119.25 5.10163C118.046 5.53349 116.264 5.43752 114.24 4.90969C116.023 6.73309 117.083 7.26092 116.36 8.98835C116.023 9.80408 114.915 12.1073 114.096 12.3952C113.999 12.6831 113.999 13.5468 113.469 14.5545C112.988 15.4182 112.169 15.7541 111.302 15.7541L111.253 14.8424C110.193 13.8348 108.989 12.6351 108.17 10.9077C107.544 9.56416 107.544 5.91736 110.386 4.23792Z" fill="#373249"/>
<path d="M117.564 11.0035C117.613 12.443 116.504 13.6427 115.059 13.7386C113.614 13.7866 112.41 12.683 112.313 11.2434C112.265 9.80392 113.373 8.60431 114.818 8.50834C116.264 8.46036 117.516 9.564 117.564 11.0035Z" fill="#FFA67D"/>
<path d="M123.731 10.8605C123.634 10.9564 123.538 10.9564 123.442 10.9564C123.345 10.9564 123.249 10.9564 123.201 10.8605C122.43 9.80482 121.756 8.74917 121.177 7.59755C121.033 7.30965 120.937 7.02174 121.177 7.06972C121.274 7.06972 124.742 8.3653 124.983 8.74917C125.369 9.22901 124.309 10.3327 123.731 10.8605Z" fill="#FFA67D"/>
<path d="M120.744 6.20618C121.081 6.87796 120.262 6.97393 119.78 7.69369C119.395 8.36547 118.961 8.70135 118.624 8.41345C118.239 8.07756 118.383 7.16586 119.154 6.35013C119.925 5.63037 120.503 5.72634 120.744 6.20618Z" fill="#373249"/>
<path d="M120.262 7.83714C119.78 8.17303 120.31 8.84481 120.599 9.03674C120.792 9.18069 121.033 9.32465 121.274 9.1807C121.611 8.94078 121.322 8.50891 121.129 8.26899C120.937 8.02907 120.599 7.6452 120.262 7.83714Z" fill="#373249"/>
<path d="M59.9466 99.1511C61.1028 96.0321 62.7889 93.1531 65.005 90.7059C65.1495 90.5139 65.4386 90.8018 65.2941 90.9938C63.1262 93.441 61.4401 96.2241 60.332 99.295C60.2357 99.487 59.8503 99.391 59.9466 99.1511Z" fill="#373249"/>
<path d="M61.3438 95.984C59.4168 95.3602 57.3935 95.1203 55.3701 95.2642C55.1292 95.2642 55.1292 94.8803 55.3701 94.8803C57.4417 94.7364 59.4651 94.9763 61.4403 95.6001C61.6811 95.6961 61.5365 96.032 61.3438 95.984Z" fill="#373249"/>
<path d="M62.9335 93.0565C61.0065 92.2408 58.9349 91.9049 56.8152 92.1448C56.5744 92.1928 56.5744 91.8089 56.8152 91.761C58.9831 91.521 61.1029 91.8569 63.1262 92.7206C63.319 92.8166 63.1262 93.1525 62.9335 93.0565Z" fill="#373249"/>
<path d="M17.6488 88.4499C14.0356 89.5055 10.278 89.4096 6.76124 88.114C6.52037 88.018 6.61669 87.6341 6.85757 87.7301C10.3262 88.9777 13.9875 89.1217 17.5525 88.066C17.7933 88.018 17.8897 88.3539 17.6488 88.4499Z" fill="#373249"/>
<path d="M17.1191 83.7959C13.3132 84.7076 9.41095 84.4197 5.74963 82.9802C5.50875 82.8842 5.60508 82.5004 5.84596 82.5963C9.41093 83.9879 13.2649 84.2758 17.0226 83.4121C17.2635 83.3641 17.3599 83.7 17.1191 83.7959Z" fill="#373249"/>
<path d="M19.1422 92.4805C20.5393 91.8087 21.8399 90.945 23.0443 89.9853C23.237 89.8414 23.5261 90.0813 23.3334 90.2732C22.129 91.2809 20.7802 92.1446 19.3831 92.8164C19.1422 92.9123 18.9495 92.5765 19.1422 92.4805Z" fill="#373249"/>
<path d="M123.635 11.6753C122.912 11.7713 122.237 11.6753 121.563 11.3874C121.322 11.2915 121.419 10.9076 121.659 11.0036C122.286 11.2435 122.96 11.3394 123.635 11.2915C123.875 11.2435 123.875 11.6273 123.635 11.6753Z" fill="#373249"/>
<path d="M114.337 12.3958C113.518 11.724 113.469 10.5244 114.24 9.75666C114.433 9.56472 114.674 9.85263 114.529 10.0446C113.903 10.6684 113.951 11.5801 114.626 12.1559C114.818 12.2998 114.529 12.5877 114.337 12.3958Z" fill="#373249"/>
<path d="M3.62987 170.647C5.1233 166.328 9.60356 165.416 12.2532 162.25C15.3364 158.507 14.8065 153.42 18.1788 149.87C19.7204 148.238 21.7437 147.231 23.7671 146.415C26.1758 145.407 28.7291 144.591 30.897 143.104C33.354 141.376 34.7029 138.689 36.5817 136.434C39.1832 133.267 44.1935 131.06 47.084 135.186C49.6855 138.881 47.8548 143.392 44.8198 146.127C40.5803 150.014 34.7029 151.357 30.7044 155.628C27.2358 159.323 25.0678 164.025 22.3218 168.248C20.2021 171.558 16.878 176.261 12.4941 177.365C8.25465 178.42 1.70285 176.357 3.62987 170.647Z" fill="#FFBE63"/>
<path d="M-2.87391 167.144C-1.1396 164.361 1.12459 161.962 3.82241 161.386C6.13483 160.906 7.62828 162.538 7.82099 164.697C8.06186 167 6.95381 168.536 5.50855 170.167C3.82241 172.039 2.329 174.006 0.35381 175.637C-0.657872 176.453 -1.81406 177.269 -3.11479 177.317C-4.31917 177.365 -5.57187 177.077 -5.9091 175.781C-6.1018 175.014 -5.95713 174.246 -5.76443 173.478C-5.18633 171.655 -4.22282 169.303 -2.87391 167.144Z" fill="#587EE0"/>
<path d="M47.7584 78.2294C48.2402 76.2141 49.1073 74.2947 50.2635 72.5673C52.046 69.9761 55.3701 66.3293 58.935 67.8648C66.9803 71.3677 50.1672 90.6093 47.5657 83.4597C46.9876 81.8282 47.373 79.8609 47.7584 78.2294Z" fill="#FFBE63"/>
<path d="M144.398 76.454C145.313 74.5346 146.325 72.5672 147.578 70.8878C149.601 68.1527 153.214 65.8015 156.683 67.337C159.188 68.4406 159.718 71.4156 158.754 73.7668C157.454 76.7898 155.237 79.6209 152.636 81.6362C150.179 83.5556 145.602 86.0508 143.868 81.9721C143.097 80.1487 143.627 78.1814 144.398 76.454Z" fill="#FFBE63"/>
<path d="M271.104 92.0858C277.092 94.2189 282.525 98.0268 284.785 103.956C287.064 109.936 286.038 116.704 282.529 122.059C279.174 127.178 273.372 129.758 267.304 130.63C261.13 131.517 254.47 131.027 249.95 126.738C245.405 122.425 244.684 115.806 245.102 109.562C245.539 103.048 246.825 96.0153 252.252 92.3677C257.736 88.6819 264.877 89.8676 271.104 92.0858Z" fill="#587EE0"/>
<path opacity="0.4" d="M256.064 121.443C250.147 119.336 244.87 115.604 242.682 109.865C240.466 104.052 241.458 97.4504 244.889 92.2154C248.137 87.26 253.779 84.7251 259.767 83.8649C265.896 82.9847 272.356 83.4971 276.706 87.6245C281.078 91.7737 281.815 98.1886 281.399 104.404C280.962 110.929 279.675 117.719 274.469 121.217C269.2 124.759 262.271 123.654 256.064 121.443Z" stroke="white"/>
</svg>
