<svg width="140" height="141" viewBox="0 0 140 141" fill="none" xmlns="http://www.w3.org/2000/svg">
<circle cx="70" cy="70.269" r="50" fill="#EB5D19"/>
<path d="M63.5175 79.9924L70.1248 79.9614C70.3523 78.4931 70.7348 77.2109 71.2725 76.1149C71.8102 75.0188 72.6891 73.9641 73.9092 72.9508C75.0466 72.0409 76.1944 71.1103 77.3525 70.159C78.5106 69.187 79.5653 68.153 80.5165 67.057C81.4885 65.9816 82.295 64.8028 82.9361 63.5207C83.5979 62.2178 84.0011 60.7702 84.1459 59.1778C84.2907 57.2546 84.0839 55.5691 83.5255 54.1215C82.9671 52.6739 82.1399 51.4641 81.0439 50.4922C79.9272 49.5202 78.5933 48.786 77.0423 48.2897C75.5119 47.7727 73.8472 47.4935 72.048 47.4522C70.1455 47.4108 68.3256 47.6486 66.5885 48.1656C64.8513 48.662 63.3107 49.4065 61.9665 50.3991C60.6016 51.4124 59.4848 52.6739 58.6163 54.1836C57.7477 55.6725 57.21 57.4097 57.0032 59.395L64.2309 59.3639C64.417 58.454 64.7273 57.6371 65.1615 56.9133C65.5958 56.1895 66.1335 55.5795 66.7746 55.0832C67.395 54.5868 68.1085 54.2146 68.915 53.9664C69.7422 53.6976 70.6314 53.5735 71.5827 53.5942C72.4306 53.6149 73.1854 53.7493 73.8472 53.9974C74.5296 54.2456 75.088 54.5868 75.5223 55.0211C76.0393 55.5174 76.4012 56.1378 76.608 56.8823C76.8148 57.6061 76.8458 58.454 76.7011 59.426C76.5356 60.46 76.1841 61.432 75.6464 62.3419C75.1294 63.2518 74.509 64.1204 73.7852 64.9476C73.0407 65.7541 72.2548 66.5193 71.4276 67.2431C70.6004 67.9462 69.8146 68.5976 69.0701 69.1974C67.0848 70.8311 65.7096 72.4235 64.9444 73.9745C64.1999 75.5255 63.7243 77.5315 63.5175 79.9924ZM60.6326 89.6397C60.6326 90.8598 61.0358 91.8525 61.8424 92.6176C62.6696 93.3621 63.6829 93.7137 64.8824 93.6723C66.1025 93.6516 67.1261 93.2484 67.9534 92.4625C68.7806 91.6767 69.1942 90.6427 69.1942 89.3605C69.1942 88.1404 68.7806 87.1374 67.9534 86.3515C67.1468 85.5657 66.1335 85.1934 64.9134 85.2348C63.6519 85.2555 62.6179 85.6898 61.8114 86.5377C61.0255 87.3855 60.6326 88.4195 60.6326 89.6397Z" fill="white"/>
<path fill-rule="evenodd" clip-rule="evenodd" d="M68.3085 3.50667C68.6529 3.82058 69.2015 4.08572 69.9543 4.30211C70.5547 4.47583 70.9691 4.65259 71.1977 4.8324C71.4263 5.00917 71.5406 5.2606 71.5406 5.5867C71.5406 5.9128 71.4172 6.17033 71.1703 6.35928C70.9234 6.54824 70.5684 6.64271 70.1051 6.64271C69.6084 6.64271 69.2106 6.5269 68.912 6.29528C68.6163 6.06061 68.4685 5.74213 68.4685 5.33984H67.5862C67.5862 5.72689 67.6929 6.0728 67.9062 6.37757C68.1226 6.68233 68.4289 6.9231 68.8251 7.09986C69.2213 7.27358 69.648 7.36044 70.1051 7.36044C70.8091 7.36044 71.3714 7.19891 71.792 6.87586C72.2126 6.54976 72.4229 6.11699 72.4229 5.57756C72.4229 5.23926 72.3467 4.94517 72.1943 4.69526C72.045 4.44535 71.8133 4.22744 71.4994 4.04153C71.1886 3.85258 70.7558 3.68039 70.2011 3.52495C69.6495 3.36952 69.2579 3.19885 69.0263 3.01295C68.7977 2.82399 68.6834 2.59389 68.6834 2.32265C68.6834 1.98436 68.8038 1.72074 69.0445 1.53178C69.2884 1.33978 69.6266 1.24378 70.0594 1.24378C70.5257 1.24378 70.8869 1.35959 71.1429 1.59121C71.3989 1.81979 71.5269 2.13522 71.5269 2.53751H72.4092C72.4092 2.16875 72.3101 1.82893 72.112 1.51807C71.917 1.20721 71.6396 0.963395 71.28 0.786631C70.9234 0.609867 70.5166 0.521484 70.0594 0.521484C69.3889 0.521484 68.8434 0.693677 68.4228 1.03806C68.0053 1.3794 67.7965 1.81217 67.7965 2.33637C67.7965 2.79961 67.9672 3.18971 68.3085 3.50667ZM87.0709 8.10556C87.3933 7.67899 87.6271 7.14778 87.7722 6.51193L87.8658 6.1019C88.0102 5.46902 88.0298 4.89047 87.9243 4.36624C87.8196 3.83904 87.5966 3.40521 87.2554 3.06475C86.9179 2.722 86.4892 2.49128 85.9692 2.3726C85.4581 2.25596 84.9744 2.27996 84.5179 2.44462C84.0651 2.60698 83.6756 2.90259 83.3495 3.33145C83.0235 3.76032 82.7892 4.28673 82.6468 4.9107L82.54 5.37867C82.4062 5.9921 82.3946 6.55681 82.505 7.07281C82.6191 7.58651 82.8449 8.01473 83.1824 8.35749C83.5206 8.69727 83.9453 8.92548 84.4563 9.04212C84.9792 9.16148 85.4653 9.14113 85.9145 8.98106C86.3636 8.82099 86.7491 8.52916 87.0709 8.10556ZM86.9569 4.02351C87.1723 4.50408 87.1922 5.12914 87.0166 5.89869L86.9067 6.38003C86.7262 7.12972 86.4383 7.67203 86.043 8.00694C85.6484 8.33889 85.1748 8.44179 84.6221 8.31565C84.0724 8.19019 83.6886 7.87908 83.4706 7.3823C83.2563 6.88323 83.2343 6.26081 83.4045 5.51502L83.5133 5.03814C83.6891 4.30924 83.9782 3.77505 84.3808 3.43554C84.7871 3.09375 85.2606 2.98456 85.8014 3.10799C86.357 3.23481 86.7422 3.53998 86.9569 4.02351ZM100.701 11.8668L98.1846 10.6549L96.9092 13.3032L96.1184 12.9224L99.0064 6.92548L102.722 8.71459L102.408 9.36536L99.4838 7.95708L98.496 10.0082L101.013 11.2201L100.701 11.8668ZM113.323 16.648L114.995 17.9819L115.446 17.4172L111.421 14.2078L110.971 14.7725L112.64 16.1036L108.94 20.7428L109.623 21.2872L113.323 16.648ZM129.414 41.6058C129.283 40.8337 129.283 40.2244 129.417 39.7779C129.554 39.3329 129.832 39.0098 130.249 38.8089C130.721 38.5814 131.202 38.5817 131.691 38.8098C132.183 39.0393 132.575 39.4561 132.866 40.0602C133.064 40.4721 133.161 40.877 133.157 41.275C133.154 41.6757 133.054 42.0313 132.859 42.3419C132.665 42.6553 132.401 42.892 132.069 43.052L131.686 42.257C132.049 42.0825 132.277 41.8303 132.372 41.5005C132.47 41.1693 132.418 40.7937 132.215 40.3736C132.028 39.9837 131.794 39.7205 131.515 39.5842C131.241 39.4492 130.951 39.4552 130.646 39.6019C130.402 39.7196 130.244 39.9224 130.173 40.2104C130.106 40.4997 130.122 40.9266 130.222 41.491C130.322 42.0582 130.355 42.5228 130.319 42.8849C130.288 43.2484 130.192 43.5516 130.032 43.7946C129.873 44.0403 129.641 44.2366 129.336 44.3834C128.85 44.6174 128.369 44.6157 127.893 44.3783C127.419 44.1395 127.03 43.703 126.724 43.0687C126.526 42.6568 126.419 42.2347 126.404 41.8024C126.391 41.3687 126.475 40.9883 126.656 40.6611C126.838 40.3367 127.103 40.0905 127.452 39.9226L127.835 40.7175C127.472 40.892 127.249 41.1634 127.166 41.5315C127.087 41.9011 127.155 42.3097 127.371 42.7573C127.572 43.1747 127.811 43.4536 128.088 43.594C128.366 43.7344 128.651 43.7339 128.945 43.5924C129.239 43.4509 129.416 43.2388 129.476 42.9562C129.539 42.6723 129.518 42.2221 129.414 41.6058ZM133.431 54.9508L134.436 55.5559L131.944 58.5443L132.178 59.5694L135.173 55.988L138.621 57.8877L138.385 56.8537L134.518 54.7026L137.727 53.9701L137.532 53.1144L131.043 54.5955L131.238 55.4513L133.431 54.9508ZM133 71.1758V70.2981H139.656V71.1758H133ZM131.507 87.1337L132.209 84.0585L137.998 85.3799L138.195 84.5197L131.706 83.0386L130.807 86.974L131.507 87.1337ZM127.581 97.5556L126.212 100.398L125.565 100.086L127.317 96.4492L133.314 99.3372L132.931 100.132L127.581 97.5556ZM123.251 110.572C122.791 110.646 122.242 110.909 121.603 111.363C121.093 111.724 120.697 111.938 120.414 112.005C120.133 112.073 119.865 112.006 119.61 111.802C119.355 111.599 119.231 111.342 119.237 111.031C119.243 110.72 119.391 110.384 119.679 110.022C119.989 109.633 120.328 109.394 120.695 109.305C121.063 109.221 121.404 109.304 121.718 109.554L122.269 108.865C121.966 108.623 121.629 108.491 121.258 108.468C120.885 108.447 120.505 108.536 120.12 108.736C119.737 108.937 119.403 109.217 119.118 109.574C118.679 110.125 118.455 110.665 118.445 111.195C118.438 111.727 118.645 112.161 119.067 112.498C119.332 112.709 119.609 112.833 119.899 112.869C120.188 112.908 120.503 112.863 120.844 112.734C121.185 112.608 121.59 112.377 122.057 112.041C122.523 111.706 122.9 111.506 123.19 111.441C123.48 111.38 123.731 111.434 123.943 111.604C124.208 111.814 124.339 112.073 124.337 112.379C124.335 112.689 124.199 113.014 123.929 113.352C123.638 113.717 123.323 113.927 122.982 113.982C122.644 114.04 122.317 113.944 122.003 113.693L121.452 114.383C121.741 114.612 122.068 114.747 122.435 114.786C122.799 114.827 123.163 114.762 123.525 114.591C123.886 114.423 124.209 114.16 124.494 113.802C124.912 113.278 125.117 112.744 125.11 112.201C125.104 111.662 124.896 111.228 124.486 110.902C124.124 110.613 123.712 110.503 123.251 110.572ZM96.9959 129.948L99.0059 128.98L99.3054 129.602L97.2955 130.57L96.9959 129.948ZM71.6914 137.031C71.347 136.717 70.7984 136.452 70.0456 136.236C69.4453 136.062 69.0308 135.885 68.8022 135.706C68.5736 135.529 68.4593 135.277 68.4593 134.951C68.4593 134.625 68.5828 134.368 68.8296 134.179C69.0765 133.99 69.4315 133.895 69.8948 133.895C70.3916 133.895 70.7893 134.011 71.088 134.243C71.3836 134.477 71.5314 134.796 71.5314 135.198H72.4137C72.4137 134.811 72.307 134.465 72.0937 134.16C71.8773 133.856 71.571 133.615 71.1748 133.438C70.7786 133.264 70.3519 133.178 69.8948 133.178C69.1908 133.178 68.6285 133.339 68.2079 133.662C67.7873 133.988 67.577 134.421 67.577 134.96C67.577 135.299 67.6532 135.593 67.8056 135.843C67.955 136.093 68.1866 136.311 68.5005 136.496C68.8113 136.685 69.2441 136.858 69.7988 137.013C70.3504 137.169 70.742 137.339 70.9737 137.525C71.2022 137.714 71.3165 137.944 71.3165 138.215C71.3165 138.554 71.1961 138.817 70.9554 139.006C70.7116 139.198 70.3733 139.294 69.9405 139.294C69.4742 139.294 69.1131 139.178 68.8571 138.947C68.6011 138.718 68.4731 138.403 68.4731 138.001H67.5908C67.5908 138.369 67.6898 138.709 67.8879 139.02C68.083 139.331 68.3603 139.575 68.7199 139.751C69.0765 139.928 69.4834 140.017 69.9405 140.017C70.611 140.017 71.1565 139.844 71.5771 139.5C71.9946 139.159 72.2034 138.726 72.2034 138.202C72.2034 137.738 72.0327 137.348 71.6914 137.031ZM52.2277 134.026C52.3728 133.39 52.6066 132.859 52.9291 132.432C53.2508 132.009 53.6363 131.717 54.0855 131.557C54.5346 131.397 55.0207 131.377 55.5436 131.496C56.0547 131.613 56.4793 131.841 56.8175 132.181C57.1551 132.523 57.3809 132.952 57.4949 133.465C57.6054 133.981 57.5937 134.546 57.4599 135.159L57.3531 135.627C57.2107 136.251 56.9765 136.778 56.6504 137.207C56.3243 137.635 55.9348 137.931 55.482 138.093C55.0255 138.258 54.5418 138.282 54.0307 138.165C53.5108 138.047 53.082 137.816 52.7445 137.473C52.4033 137.133 52.1803 136.699 52.0756 136.172C51.9702 135.648 51.9897 135.069 52.1341 134.436L52.2277 134.026ZM52.9834 134.639C52.8077 135.409 52.8276 136.034 53.043 136.515C53.2578 136.998 53.643 137.303 54.1986 137.43C54.7393 137.553 55.2128 137.444 55.6191 137.102C56.0217 136.763 56.3109 136.229 56.4866 135.5L56.5955 135.023C56.7657 134.277 56.7436 133.655 56.5293 133.156C56.3113 132.659 55.9275 132.348 55.3778 132.222C54.8252 132.096 54.3515 132.199 53.9569 132.531C53.5616 132.866 53.2737 133.408 53.0932 134.158L52.9834 134.639ZM41.8153 129.883L39.2988 128.671L38.9874 129.318L41.5039 130.53L40.5161 132.581L37.5918 131.173L37.2784 131.823L40.9936 133.613L43.8815 127.616L43.0907 127.235L41.8153 129.883ZM25.0046 122.556L26.6773 123.89L30.3769 119.251L31.0596 119.795L27.3599 124.434L29.0291 125.765L28.5787 126.33L24.5542 123.121L25.0046 122.556ZM10.5831 100.76C10.7165 100.314 10.7174 99.7043 10.5857 98.9322C10.4817 98.3159 10.4612 97.8658 10.524 97.5818C10.5841 97.2992 10.761 97.0871 11.0548 96.9456C11.3486 96.8041 11.6342 96.8036 11.9116 96.944C12.1889 97.0845 12.4281 97.3634 12.6291 97.7807C12.8446 98.2283 12.9128 98.6369 12.8338 99.0065C12.7506 99.3746 12.5278 99.646 12.1653 99.8205L12.5481 100.615C12.8969 100.448 13.1622 100.201 13.3443 99.8769C13.525 99.5497 13.609 99.1693 13.5963 98.7356C13.581 98.3033 13.4741 97.8812 13.2757 97.4693C12.9703 96.835 12.5808 96.3985 12.1072 96.1597C11.6309 95.9223 11.1498 95.9206 10.6638 96.1547C10.359 96.3014 10.1271 96.4977 9.96803 96.7434C9.80767 96.9864 9.71183 97.2896 9.68054 97.6531C9.64517 98.0152 9.6778 98.4798 9.77843 99.047C9.87773 99.6114 9.89388 100.038 9.82689 100.328C9.75582 100.616 9.59809 100.818 9.35371 100.936C9.04892 101.083 8.75918 101.089 8.48447 100.954C8.20569 100.817 7.97242 100.554 7.78465 100.164C7.58233 99.7443 7.52998 99.3687 7.62759 99.0375C7.72245 98.7077 7.95111 98.4555 8.31356 98.281L7.93075 97.486C7.5985 97.646 7.33531 97.8827 7.14119 98.1961C6.94574 98.5067 6.8464 98.8624 6.84318 99.2631C6.83863 99.661 6.93553 100.066 7.13388 100.478C7.4248 101.082 7.81663 101.499 8.3094 101.728C8.79809 101.956 9.27858 101.957 9.75087 101.729C10.1682 101.528 10.4457 101.205 10.5831 100.76ZM5.56352 84.9821L6.56911 85.5872L8.76189 85.0868L8.95721 85.9425L2.46799 87.4236L2.27268 86.5679L5.48163 85.8355L1.61452 83.6843L1.37852 82.6503L4.82717 84.55L7.82195 80.9686L8.05592 81.9937L5.56352 84.9821ZM6.99996 70.2399V69.3622H0.343872V70.2399H6.99996ZM7.79099 56.4796L8.49289 53.4043L9.19262 53.564L8.29439 57.4994L1.80518 56.0183L2.00151 55.1581L7.79099 56.4796ZM13.7878 40.1405L12.4192 42.9825L7.06888 40.4059L6.68607 41.2008L12.683 44.0888L14.4344 40.4519L13.7878 40.1405ZM18.3964 29.175C17.7579 29.6286 17.2086 29.8922 16.7484 29.9657C16.2878 30.035 15.8764 29.9252 15.5142 29.6364C15.1044 29.3095 14.8962 28.8765 14.8897 28.3372C14.8826 27.7937 15.0882 27.2598 15.5062 26.7356C15.7912 26.3782 16.114 26.1152 16.4745 25.9466C16.8369 25.7757 17.2005 25.7109 17.5651 25.7522C17.9317 25.7911 18.2591 25.9256 18.5474 26.1555L17.9973 26.8453C17.6828 26.5945 17.3564 26.4979 17.0181 26.5555C16.6774 26.6113 16.3616 26.8214 16.0709 27.186C15.8011 27.5243 15.6652 27.8487 15.6633 28.159C15.6609 28.465 15.792 28.7235 16.0565 28.9344C16.2685 29.1036 16.5197 29.1577 16.8099 29.0968C17.0997 29.0316 17.4773 28.8318 17.9428 28.4975C18.4101 28.1607 18.8146 27.9297 19.1561 27.8045C19.4972 27.675 19.812 27.6297 20.1005 27.6688C20.3909 27.7055 20.6683 27.8293 20.9328 28.0402C21.3545 28.3765 21.5618 28.8108 21.5545 29.3429C21.5448 29.8732 21.3205 30.4135 20.8816 30.9639C20.5966 31.3213 20.2626 31.6007 19.8798 31.8022C19.4946 32.0017 19.1154 32.0911 18.7422 32.0702C18.3709 32.047 18.0339 31.9147 17.7313 31.6734L18.2814 30.9836C18.596 31.2344 18.9371 31.3174 19.3049 31.2326C19.6722 31.1435 20.0107 30.9048 20.3205 30.5164C20.6093 30.1542 20.7568 29.8177 20.763 29.5069C20.7692 29.1961 20.6448 28.939 20.3898 28.7357C20.1349 28.5324 19.867 28.465 19.5863 28.5335C19.3032 28.6001 18.9066 28.8139 18.3964 29.175ZM40.994 11.5577L43.004 10.5897L42.7045 9.96781L40.6945 10.9358L40.994 11.5577Z" fill="white"/>
</svg>
