<?xml version="1.0" encoding="UTF-8" standalone="no"?>
<svg
   xmlns:dc="http://purl.org/dc/elements/1.1/"
   xmlns:cc="http://creativecommons.org/ns#"
   xmlns:rdf="http://www.w3.org/1999/02/22-rdf-syntax-ns#"
   xmlns:svg="http://www.w3.org/2000/svg"
   xmlns="http://www.w3.org/2000/svg"
   xmlns:sodipodi="http://sodipodi.sourceforge.net/DTD/sodipodi-0.dtd"
   xmlns:inkscape="http://www.inkscape.org/namespaces/inkscape"
   width="476.80481"
   height="467.29135"
   viewBox="0 0 476.80481 467.29135"
   version="1.1"
   id="svg6"
   sodipodi:docname="practic-bage.svg"
   style="fill:none"
   inkscape:version="0.92.5 (2060ec1f9f, 2020-04-08)">
  <metadata
     id="metadata12">
    <rdf:RDF>
      <cc:Work
         rdf:about="">
        <dc:format>image/svg+xml</dc:format>
        <dc:type
           rdf:resource="http://purl.org/dc/dcmitype/StillImage" />
        <dc:title></dc:title>
      </cc:Work>
    </rdf:RDF>
  </metadata>
  <defs
     id="defs10" />
  <sodipodi:namedview
     pagecolor="#ffffff"
     bordercolor="#666666"
     borderopacity="1"
     objecttolerance="10"
     gridtolerance="10"
     guidetolerance="10"
     inkscape:pageopacity="0"
     inkscape:pageshadow="2"
     inkscape:window-width="1920"
     inkscape:window-height="1027"
     id="namedview8"
     showgrid="false"
     fit-margin-top="0"
     fit-margin-left="0"
     fit-margin-right="0"
     fit-margin-bottom="0"
     inkscape:zoom="0.39597315"
     inkscape:cx="225.58451"
     inkscape:cy="233.11696"
     inkscape:window-x="1280"
     inkscape:window-y="30"
     inkscape:window-maximized="1"
     inkscape:current-layer="svg6" />
  <path
     d="m 436.46051,288.87338 c -5.806,46.4 -21.931,93.29 -56.739,124.548 -34.23,30.738 -82.192,44.114 -128.155,41.485 -41.32,-2.363 -69.402,-39.83 -107.913,-54.985 -46.383002,-18.253 -118.164202,2.559 -139.5791021,-42.411 -21.4808999,-45.108 48.6721001,-85.922 54.8661001,-135.479 6.804,-54.425 -54.7450001,-118.788 -17.989,-159.521998 35.814,-39.6893 103.144002,10.466 156.462002,6.063 48.499,-4.005 94.312,-49.4812 139.109,-30.469 44.889,19.051 56.941,76.064998 74.979,121.327998 16.679,41.851 30.55,84.753 24.959,129.442 z"
     id="path2"
     inkscape:connector-curvature="0"
     style="clip-rule:evenodd;fill:#f576a6;fill-rule:evenodd" />
  <path
     d="m 51.796508,101.70338 c 23.23,-40.516998 56.119002,-77.438398 100.130002,-92.7894975 43.29,-15.0996 92.56,-8.9625 133.855,11.1493995 18.473,8.9973 30.576,24.7751 41.794,41.9861 2.229,3.42 4.424,6.898 6.628,10.39 8.863,14.044 17.863,28.305998 29.791,39.895998 8.988,8.733 20.381,15.803 32.419,22.268 5.82,3.126 11.799,6.114 17.735,9.081 l 0.613,0.306 c 6.14,3.069 12.226,6.119 18.051,9.285 23.332,12.684 42.251,27.127 43.44,51.705 1.191,24.627 -18.042,39.608 -40.992,53.928 -3.379,2.108 -6.838,4.202 -10.318,6.309 -8.297,5.022 -16.718,10.12 -24.478,15.67 -11.023,7.883 -20.776,16.719 -27.037,27.642 -6.868,11.984 -9.996,26.181 -11.614,41.059 -1.097,10.08 -1.504,20.51 -1.904,30.793 -0.191,4.883 -0.38,9.732 -0.641,14.495 -1.627,29.688 -6.055,56.001 -30.571,67.56 -23.885,11.262 -46.433,-0.903 -69.541,-18.188 -5.321,-3.98 -10.66,-8.222 -16.044,-12.5 -0.451,-0.358 -0.902,-0.716 -1.353,-1.075 -5.84,-4.638 -11.734,-9.295 -17.704,-13.671 -11.934,-8.749 -24.2,-16.398 -36.998,-20.55 -11.638,-3.775 -24.109,-5.076 -36.777,-5.456 -7.577,-0.228 -15.256,-0.126 -22.874,-0.025 -5.097,0.068 -10.166,0.135 -15.158,0.103 -24.983002,-0.16 -48.241002,-2.804 -65.082002,-20.057 -16.909,-17.322 -22.689,-40.214 -24.1214,-64.927 -0.7161,-12.355 -0.3448,-25.148 0.2583,-37.907 0.1685,-3.567 0.3553,-7.132 0.5413,-10.683 0.4792,-9.147 0.9538,-18.208 1.1019,-26.988 0.7599,-45.038 4.5169,-89.856 26.8499,-128.809 z"
     id="path4"
     inkscape:connector-curvature="0"
     style="opacity:0.3;stroke:#ffffff" />
</svg>
