<svg width="1671" height="1134" viewBox="0 0 1671 1134" fill="none" xmlns="http://www.w3.org/2000/svg">
<path d="M702.051 778.56C696.55 784.778 690.81 791.235 683.396 795.301C672.634 801.519 654.698 802.476 647.523 790.279C644.892 785.974 644.414 780.713 646.566 775.929C650.632 766.842 661.155 763.732 667.134 756.319C673.591 748.666 680.527 739.817 691.289 739.099C701.812 738.382 714.486 744.839 714.247 756.797C714.008 765.646 707.312 772.581 702.051 778.56Z" fill="#587EE0"/>
<path d="M656.372 654.439C678.852 631.48 709.942 617.848 730.988 592.258C761.6 554.95 777.863 506.64 812.301 472.202C838.848 445.655 910.595 427.24 893.136 492.291C884.766 523.142 853.436 538.209 829.999 555.906C801.3 577.909 788.864 612.586 766.144 639.85C741.033 669.984 708.029 708.727 671.199 724.272C628.39 742.209 622.172 714.706 637.957 680.507C642.74 670.462 648.958 662.092 656.372 654.439Z" fill="#587EE0"/>
<path d="M717.834 569.537C723.335 562.602 729.314 555.666 736.728 550.644C741.511 547.535 757.056 540.121 759.926 548.97C760.644 551.601 759.926 554.231 759.209 556.862C754.425 570.494 745.098 582.93 736.01 593.931C730.988 600.149 715.204 618.325 705.877 614.499C692.006 608.759 706.594 586.278 711.377 579.104C713.291 575.755 715.443 572.646 717.834 569.537Z" fill="#FFBE63"/>
<g opacity="0.3">
<mask id="path-4-inside-1_3755_1716" fill="white">
<path fill-rule="evenodd" clip-rule="evenodd" d="M288.621 343.104C263.991 378.974 231.781 414.214 187.573 423.654C161.048 374.569 153.153 315.729 166.1 260.351C173.679 254.373 181.573 248.709 189.467 243.046C192.391 240.992 195.322 238.945 198.254 236.898C214.637 225.46 231.04 214.008 246.307 201.198C263.99 186.409 279.463 169.103 294.62 151.483C297.698 147.862 300.768 144.215 303.843 140.561C326.951 113.101 350.376 85.2637 380.196 65.2695C379.74 81.3784 380.229 97.4873 381.677 113.508C387.758 109.879 393.791 105.909 399.865 101.912C418.456 89.6785 437.43 77.1932 459.331 73.4722C479.825 70.0103 500.003 74.4164 519.551 81.655C527.434 105.889 525.542 132.955 517.975 157.504C508.646 187.621 496.016 208.658 483.667 229.228C469.303 253.153 455.318 276.447 447.349 312.663C443.598 329.708 449.613 341.297 457.162 355.841C468.012 376.744 482.031 403.752 474.78 461.842C363.481 513.772 336.366 557.204 312.089 637.773C295.063 645.012 296.008 571.052 296.954 546.189C298.89 482.822 322.685 423.25 346.389 363.906C361.301 326.574 376.176 289.332 385.551 251.292C361.812 268.827 335.749 288.325 311.535 307.502C304.07 319.488 296.559 331.443 288.621 343.104Z"/>
</mask>
<path d="M187.573 423.654L187.782 424.632L187.049 424.788L186.693 424.129L187.573 423.654ZM288.621 343.104L289.448 343.667L289.445 343.67L288.621 343.104ZM166.1 260.351L165.126 260.124L165.206 259.783L165.481 259.566L166.1 260.351ZM189.467 243.046L188.884 242.233L188.892 242.227L189.467 243.046ZM198.254 236.898L197.682 236.078L198.254 236.898ZM246.307 201.198L245.664 200.431L245.665 200.43L246.307 201.198ZM294.62 151.483L295.382 152.131L295.379 152.135L294.62 151.483ZM303.843 140.561L304.608 141.204L303.843 140.561ZM380.196 65.2695L379.639 64.439L381.25 63.3586L381.195 65.2978L380.196 65.2695ZM381.677 113.508L382.189 114.366L380.824 115.181L380.681 113.598L381.677 113.508ZM399.865 101.912L400.415 102.747L399.865 101.912ZM459.331 73.4722L459.163 72.4864L459.164 72.4862L459.331 73.4722ZM519.551 81.655L519.899 80.7173L520.353 80.8854L520.502 81.3457L519.551 81.655ZM517.975 157.504L518.93 157.798L518.93 157.8L517.975 157.504ZM483.667 229.228L484.524 229.742L483.667 229.228ZM447.349 312.663L448.326 312.878L448.326 312.878L447.349 312.663ZM457.162 355.841L458.049 355.38L457.162 355.841ZM474.78 461.842L475.772 461.966L475.704 462.515L475.203 462.749L474.78 461.842ZM312.089 637.773L313.046 638.062L312.911 638.51L312.48 638.694L312.089 637.773ZM296.954 546.189L297.954 546.219L297.954 546.227L296.954 546.189ZM346.389 363.906L345.46 363.535H345.46L346.389 363.906ZM385.551 251.292L384.957 250.487L387.185 248.842L386.522 251.531L385.551 251.292ZM311.535 307.502L310.686 306.973L310.778 306.826L310.914 306.718L311.535 307.502ZM187.364 422.676C231.174 413.322 263.193 378.368 287.797 342.538L289.445 343.67C264.788 379.579 232.389 415.107 187.782 424.632L187.364 422.676ZM167.074 260.579C154.182 315.721 162.045 374.31 188.453 423.178L186.693 424.129C160.051 374.827 152.124 315.738 165.126 260.124L167.074 260.579ZM190.05 243.858C182.152 249.524 174.277 255.175 166.719 261.136L165.481 259.566C173.08 253.571 180.993 247.895 188.884 242.233L190.05 243.858ZM198.827 237.718C195.895 239.765 192.964 241.811 190.042 243.864L188.892 242.227C191.818 240.173 194.75 238.125 197.682 236.078L198.827 237.718ZM246.949 201.964C231.643 214.807 215.203 226.285 198.827 237.718L197.682 236.078C214.07 224.636 230.437 213.209 245.664 200.431L246.949 201.964ZM295.379 152.135C280.219 169.759 264.7 187.119 246.948 201.965L245.665 200.43C263.28 185.699 278.708 168.448 293.862 150.831L295.379 152.135ZM304.608 141.204C301.533 144.858 298.462 148.507 295.382 152.131L293.858 150.835C296.935 147.216 300.002 143.571 303.077 139.917L304.608 141.204ZM380.753 66.1001C351.07 86.0023 327.732 113.725 304.608 141.204L303.077 139.917C326.169 112.476 349.682 84.5251 379.639 64.439L380.753 66.1001ZM380.681 113.598C379.23 97.5375 378.74 81.3892 379.196 65.2413L381.195 65.2978C380.741 81.3677 381.229 97.437 382.673 113.418L380.681 113.598ZM381.164 112.649C387.223 109.033 393.238 105.076 399.315 101.077L400.415 102.747C394.344 106.742 388.292 110.724 382.189 114.366L381.164 112.649ZM399.315 101.077C417.872 88.866 437.02 76.2485 459.163 72.4864L459.498 74.4581C437.84 78.1379 419.041 90.491 400.415 102.747L399.315 101.077ZM459.164 72.4862C479.905 68.9825 500.275 73.4508 519.899 80.7173L519.204 82.5928C499.731 75.382 479.745 71.038 459.497 74.4583L459.164 72.4862ZM520.502 81.3457C528.465 105.827 526.54 133.112 518.93 157.798L517.019 157.209C524.544 132.799 526.402 105.951 518.6 81.9643L520.502 81.3457ZM518.93 157.8C509.563 188.042 496.875 209.17 484.524 229.742L482.81 228.713C495.158 208.146 507.73 187.199 517.02 157.208L518.93 157.8ZM484.524 229.742C470.165 253.66 456.256 276.834 448.326 312.878L446.373 312.448C454.379 276.061 468.441 252.647 482.81 228.713L484.524 229.742ZM448.326 312.878C444.661 329.53 450.49 340.816 458.049 355.38L456.274 356.301C448.735 341.777 442.535 329.886 446.373 312.448L448.326 312.878ZM458.049 355.38C463.477 365.836 469.746 377.909 473.732 394.665C477.718 411.424 479.41 432.82 475.772 461.966L473.787 461.719C477.4 432.775 475.709 411.622 471.786 395.128C467.862 378.631 461.697 366.748 456.274 356.301L458.049 355.38ZM475.203 462.749C419.612 488.686 385.152 512.454 361.557 539.722C337.97 566.983 325.171 597.823 313.046 638.062L311.131 637.485C323.284 597.154 336.181 565.993 360.045 538.414C383.902 510.841 418.648 486.928 474.357 460.936L475.203 462.749ZM312.48 638.694C311.271 639.207 310.086 639.383 308.943 639.198C307.801 639.013 306.773 638.481 305.859 637.694C304.061 636.147 302.632 633.559 301.468 630.355C299.13 623.919 297.674 614.465 296.786 604.105C295.007 583.349 295.482 558.593 295.955 546.15L297.954 546.227C297.481 558.647 297.01 583.303 298.778 603.934C299.664 614.267 301.105 623.499 303.348 629.672C304.475 632.773 305.758 634.969 307.163 636.178C307.851 636.77 308.548 637.108 309.262 637.224C309.975 637.339 310.777 637.244 311.697 636.853L312.48 638.694ZM295.955 546.158C297.896 482.585 321.768 422.848 345.46 363.535L347.317 364.277C323.601 423.652 299.883 483.059 297.954 546.219L295.955 546.158ZM345.46 363.535C360.377 326.191 375.225 289.013 384.58 251.052L386.522 251.531C377.128 289.65 362.224 326.957 347.317 364.277L345.46 363.535ZM386.146 252.096C362.409 269.63 336.357 289.12 312.156 308.286L310.914 306.718C335.142 287.53 361.216 268.024 384.957 250.487L386.146 252.096ZM287.794 342.541C295.719 330.899 303.221 318.959 310.686 306.973L312.384 308.031C304.918 320.017 297.398 331.987 289.448 343.667L287.794 342.541Z" fill="white" mask="url(#path-4-inside-1_3755_1716)"/>
</g>
<path d="M612.845 41.242C612.845 41.242 632.934 16.8481 614.041 3.45533C602.322 -4.91513 593.234 5.36859 583.907 9.6734C573.145 14.6957 562.144 13.2607 558.317 19.2396C554.73 24.9794 556.404 29.045 556.404 29.045C556.404 29.045 550.425 29.7625 547.555 35.0239C544.685 40.2854 544.685 51.5257 569.079 73.7672C593.712 96.0087 612.845 41.242 612.845 41.242Z" fill="#373249"/>
<path d="M621.933 122.555C621.933 122.555 603.039 107.488 585.581 97.9218C568.123 88.3556 534.162 77.1152 534.162 77.1152C534.162 77.1152 521.009 132.599 487.288 174.93C453.567 217.261 427.499 220.131 433 279.441C438.5 338.752 477.722 404.042 479.635 405.477C481.309 406.672 601.366 364.102 601.366 362.907C601.366 361.711 610.692 291.638 613.802 279.202C616.671 266.766 638.195 186.17 638.195 184.018C638.195 181.866 636.522 150.297 633.173 142.644C629.108 134.991 621.933 122.555 621.933 122.555Z" fill="#F5E3D9"/>
<path d="M609.018 85.0077L607.823 113.946L569.558 94.0956L569.079 69.7017L609.018 85.0077Z" fill="#FFA67D"/>
<path d="M637.717 302.879C637.478 302.639 637.479 302.4 637.479 302.161C636.522 264.135 649.914 227.305 649.197 189.279C648.719 165.125 640.348 138.339 621.933 122.794C632.456 153.406 620.976 188.562 609.019 217.739C600.409 238.785 591.082 260.07 587.734 282.789C584.625 304.553 586.299 326.555 592.278 347.361C606.149 331.099 621.216 316.271 637.717 302.879Z" fill="#EB5D19"/>
<path d="M627.433 234.48C632.455 232.328 633.412 241.655 633.651 246.916C634.369 263.657 634.847 280.637 635.565 297.378C636.282 299.052 636.76 300.487 637.239 301.922C637.478 302.639 636.76 303.118 635.804 302.879C635.804 303.118 635.804 303.118 635.804 303.357C635.804 305.988 633.412 305.988 633.173 303.596C633.173 303.118 633.173 302.639 633.173 302.4C631.977 301.922 630.781 301.205 630.542 300.248C626.477 288.29 623.846 275.376 623.129 261.983C622.65 255.287 621.454 237.111 627.433 234.48Z" fill="#373249"/>
<path d="M104.16 1061.24C104.399 1038.76 106.073 1016.04 109.421 993.801C113.009 970.602 120.183 948.361 134.772 929.468C147.208 913.444 162.992 900.769 178.777 888.572C179.494 887.854 180.451 887.137 181.168 886.659C181.886 886.18 182.603 885.702 183.32 884.985C183.56 884.745 183.799 884.745 184.277 884.745H184.516C184.277 884.506 184.038 884.506 183.799 884.267C182.364 883.55 183.559 881.158 184.994 882.115C201.018 891.442 215.128 903.639 226.368 918.227C236.891 932.098 249.567 951.948 246.936 970.363C244.305 988.778 226.13 1000.98 215.368 1014.61C201.975 1031.35 191.452 1050 181.168 1068.9C175.907 1078.46 170.885 1088.03 165.623 1097.59C161.079 1105.96 156.535 1114.81 150.317 1122.23C140.272 1133.95 123.292 1138.25 113.248 1124.14C107.747 1116.49 106.791 1106.44 105.834 1097.36C104.399 1085.64 104.16 1073.44 104.16 1061.24Z" fill="#F5E3D9"/>
<path d="M880.7 465.027C880.7 465.027 880.939 465.027 880.7 465.027C881.417 464.548 882.135 464.309 882.613 464.788C938.098 457.374 994.06 456.417 1049.78 461.679C1056.96 463.831 1063.89 465.983 1070.83 468.614C1089.96 499.704 1123.92 517.88 1157.4 530.795C1177.25 538.448 1197.82 544.666 1217.43 552.797C1222.93 554.949 1228.19 558.298 1232.26 562.602C1234.89 565.472 1236.8 568.82 1237.28 572.647C1237.76 577.191 1236.09 581.735 1233.22 585.322C1225.8 594.649 1213.61 598.715 1202.36 600.867C1179.17 605.172 1150.47 604.694 1126.79 603.737C1094.03 602.541 1036.63 608.759 1003.39 597.758C985.45 591.779 979.471 591.779 968.47 576.952C942.641 542.035 913.225 497.313 881.896 467.418C881.657 467.418 881.657 467.418 881.418 467.418C879.743 467.657 879.026 465.266 880.7 465.027Z" fill="#F5E3D9"/>
<path d="M289.027 474.593C289.506 474.354 289.984 474.354 290.223 474.354C285.201 471.962 280.657 468.375 283.766 463.352C285.919 459.765 291.658 459.287 295.246 458.808C295.724 458.808 296.441 458.808 296.92 458.569C298.115 452.83 304.095 450.677 309.834 450.677C319.64 450.677 329.684 451.395 339.729 451.873C349.056 440.393 360.536 430.588 373.211 422.935C373.689 432.501 374.884 442.307 375.124 451.873C375.363 460.004 375.602 468.375 377.037 476.267C359.818 483.442 344.273 494.921 332.554 509.51C328.967 514.054 323.944 526.251 316.53 525.294C310.312 524.337 311.269 516.684 312.226 512.14C313.183 506.64 314.378 501.139 316.052 495.878C310.552 493.247 305.051 491.095 299.072 489.42C294.289 487.986 289.027 487.746 284.244 486.311C282.331 485.594 280.418 484.876 279.701 482.724C277.787 477.463 285.679 475.789 289.027 474.593Z" fill="#FFA67D"/>
<path d="M44.8495 411.933C44.8495 411.694 44.6101 411.216 44.6101 410.977C44.1318 406.194 48.437 402.606 52.7418 401.411C61.1123 399.258 71.1567 401.411 79.5272 401.171C90.5283 400.693 101.051 398.302 110.378 392.083C124.967 382.278 135.011 367.211 147.447 355.014C160.601 341.861 175.668 331.099 192.169 322.728C192.648 322.489 192.887 322.489 193.126 322.728C193.844 322.25 195.039 322.25 195.278 323.207C200.779 338.752 204.845 354.775 207.954 370.799C207.954 371.038 207.714 371.277 207.714 371.516C208.671 381.8 210.106 391.844 210.824 402.128C189.06 431.544 153.905 449.959 130.468 477.94C126.402 482.724 122.814 487.746 119.227 492.768C117.313 495.399 114.922 498.508 111.574 499.704C106.552 501.378 103.203 497.79 102.486 493.246C101.29 485.354 105.356 475.788 108.226 468.613C109.183 466.461 110.139 464.069 111.335 461.917C96.5074 464.548 81.4402 467.657 67.33 461.917C57.7637 458.091 50.1107 449.003 49.3933 438.958C44.6101 436.327 40.0661 432.979 36.7179 428.674C30.2607 420.304 36.7182 414.325 44.8495 411.933Z" fill="#FFA67D"/>
<path d="M209.867 417.674C243.349 410.499 267.743 383.713 286.397 356.45C305.051 328.947 320.596 299.291 341.642 273.463C350.012 263.179 359.34 253.852 369.624 245.72C359.34 213.195 354.796 179.235 355.752 145.275C330.163 162.494 310.791 187.366 290.941 210.804C279.461 224.196 267.743 237.35 254.35 248.59C240.718 260.07 225.89 270.114 211.302 280.398C205.323 284.703 199.344 289.008 193.604 293.552C183.799 335.643 189.778 380.365 209.867 417.674Z" fill="#F5E3D9"/>
<path d="M320.835 706.813C341.642 672.853 358.383 636.023 367.471 597.041C377.754 553.993 375.602 509.749 379.19 465.744C382.06 428.436 390.19 389.214 412.91 358.841C438.261 376.061 463.133 393.519 489.68 408.825C509.769 420.544 530.814 430.588 551.621 440.872C566.449 448.286 581.276 455.939 594.669 465.983C548.034 533.186 536.554 624.305 511.682 699.878C498.528 739.817 479.157 775.929 451.893 808.216C422.955 842.654 388.038 871.592 352.643 899.095C311.747 930.663 267.982 962.471 230.913 999.062C201.258 972.755 182.842 921.576 173.276 849.829C190.974 817.303 215.128 793.149 231.869 779.756C266.547 752.253 292.376 753.21 320.835 706.813Z" fill="#373249"/>
<path d="M424.868 464.07C421.52 453.069 419.607 441.589 420.803 430.11C421.281 425.327 421.998 420.304 423.672 415.76C432.282 359.08 481.309 377.495 500.202 366.255C549.469 336.839 578.406 321.772 626.238 289.008C672.155 257.439 725.248 213.673 785.516 222.044C812.301 225.87 836.934 238.546 858.936 253.613C905.572 285.181 947.424 324.881 986.407 365.298C1026.59 407.151 1060.54 451.395 1096.18 497.313C1083.26 495.638 1014.87 489.899 979.232 492.29C968.948 493.008 958.904 494.204 948.859 496.117C939.293 497.791 925.422 500.661 917.052 505.683L932.597 527.207C932.597 527.207 920.639 532.708 913.225 526.011C897.68 510.705 878.547 498.747 864.915 481.289C853.197 465.983 834.782 440.872 821.867 426.283C800.822 402.607 783.124 396.15 754.425 383.713C686.505 414.804 635.804 476.984 563.101 499.943C542.055 506.64 520.053 509.27 498.05 506.4C496.376 506.161 497.094 503.77 498.768 504.009C499.246 504.009 499.724 504.009 500.202 504.248C500.202 504.009 500.202 503.77 500.202 503.531C480.831 497.791 462.177 489.66 445.196 478.658C438.978 474.354 431.325 469.57 424.868 464.07Z" fill="#373249"/>
<path d="M980.188 554.71C988.798 549.927 998.842 548.731 1008.41 548.014C1020.37 547.057 1032.32 546.818 1044.52 546.818C1069.39 546.579 1094.27 547.057 1119.14 547.775C1145.45 548.731 1171.99 550.405 1198.06 555.189C1211.21 557.58 1230.35 562.124 1237.28 574.321C1238.96 577.669 1237.52 582.213 1234.89 585.561C1227.48 594.888 1213.6 598.954 1202.36 600.867C1179.17 605.172 1148.79 606.607 1125.12 606.607C1089.48 606.846 1030.89 609.716 997.647 598.715C980.188 592.975 961.056 579.822 968.23 565.711C970.861 560.928 975.405 557.341 980.188 554.71Z" fill="#373249"/>
<path d="M141.708 1129.4C127.597 1122.94 122.336 1108.83 121.379 1094.25C120.183 1075.11 120.901 1055.74 122.097 1036.61C124.249 999.062 129.989 961.514 139.077 924.924C139.316 923.728 141.229 924.206 140.99 925.402C132.38 959.601 127.119 994.279 124.488 1029.43C123.293 1046.41 122.814 1063.39 123.053 1080.38C123.292 1098.55 123.771 1119.12 142.664 1127.73C143.86 1128.21 142.903 1129.88 141.708 1129.4Z" fill="#373249"/>
<path d="M175.428 1075.59C162.992 1058.37 143.382 1045.46 122.575 1040.68C121.379 1040.44 121.858 1038.52 123.053 1038.76C144.099 1043.78 164.188 1057.18 176.864 1074.64C177.82 1075.59 176.146 1076.55 175.428 1075.59Z" fill="#373249"/>
<path d="M189.061 1052.15C171.363 1042.11 169.449 1020.11 174.232 1002.17C179.972 980.886 190.495 958.166 207.236 943.338C208.193 942.621 209.628 943.817 208.671 944.773C193.604 958.166 184.516 977.299 178.059 996.192C171.841 1014.61 170.645 1039.24 190.017 1050.48C190.974 1051.2 190.017 1052.87 189.061 1052.15Z" fill="#373249"/>
<path d="M163.949 902.921C165.623 927.554 157.014 952.427 132.859 962.71C131.663 963.189 131.184 961.275 132.38 960.797C155.817 950.992 163.71 926.598 162.036 902.921C162.036 901.725 163.949 901.725 163.949 902.921Z" fill="#373249"/>
<path d="M204.845 1026.09C197.909 1013.41 189.299 1002.89 177.82 994.04C176.863 993.322 178.299 991.887 179.255 992.605C190.735 1001.69 199.583 1012.22 206.519 1025.13C207.236 1026.33 205.562 1027.28 204.845 1026.09Z" fill="#373249"/>
<path d="M213.693 1012.93C207.236 999.062 197.909 987.822 184.995 979.212C184.038 978.494 184.995 976.82 185.952 977.538C199.105 986.147 208.911 997.627 215.368 1011.74C215.846 1012.93 214.411 1013.89 213.693 1012.93Z" fill="#373249"/>
<path d="M1180.12 541.556C1138.99 535.338 1097.14 533.664 1055.52 533.664C1036.15 533.664 1016.06 533.186 996.93 535.338C982.102 537.252 962.252 541.796 955.795 557.102C955.317 558.297 953.643 557.341 954.121 556.145C959.382 543.948 973.014 538.447 984.972 535.578C1005.3 530.555 1027.3 531.99 1048.11 531.751C1092.35 531.512 1136.84 532.947 1180.6 539.643C1182.04 539.882 1181.32 541.796 1180.12 541.556Z" fill="#373249"/>
<path d="M1008.41 534.621C986.407 524.098 958.904 513.815 937.619 532.23C936.663 532.947 935.228 531.751 936.184 530.795C944.794 523.142 957.23 519.554 968.71 519.793C982.82 520.033 996.691 526.968 1009.13 532.947C1010.32 533.425 1009.37 535.099 1008.41 534.621Z" fill="#373249"/>
<path d="M576.733 496.356C532.25 520.75 476.766 521.228 431.804 497.552C430.609 497.073 431.565 495.399 432.761 495.878C477.005 519.076 531.771 518.597 575.537 494.682C576.972 493.964 577.928 495.638 576.733 496.356Z" fill="#8D84B8"/>
<path d="M248.85 980.408C214.89 930.903 199.345 874.462 195.04 815.151C195.04 813.955 196.953 813.955 196.953 815.151C201.257 874.223 216.803 930.185 250.524 979.451C251.241 980.647 249.567 981.604 248.85 980.408Z" fill="#8D84B8"/>
<path d="M917.53 507.118C912.268 509.51 907.246 512.379 902.463 515.249C901.506 515.967 900.311 514.293 901.507 513.575C906.529 510.705 911.312 507.835 916.573 505.444C917.53 504.966 918.486 506.64 917.53 507.118Z" fill="#8D84B8"/>
<path d="M1071.07 468.853C1036.15 467.179 1001.23 467.896 966.557 471.005C937.858 473.636 907.246 479.376 886.439 500.661C885.483 501.617 884.287 500.182 885.005 499.226C904.855 479.137 933.314 472.68 960.578 469.571C997.169 465.505 1034.24 465.027 1071.07 466.701C1072.26 466.94 1072.26 468.853 1071.07 468.853Z" fill="#8D84B8"/>
<path d="M341.163 156.754C364.84 133.078 399.757 118.968 428.455 102.227C447.588 90.9865 466.003 74.9631 488.484 71.1366C504.029 68.5059 519.335 71.854 534.162 77.3546C540.141 95.7696 538.706 116.337 532.966 134.991C517.66 184.497 490.636 201.716 479.396 252.895C472.46 284.464 509.529 291.399 500.202 366.255C415.78 405.716 395.213 438.719 376.798 499.943C363.884 505.444 364.601 449.242 365.318 430.349C367.71 351.906 414.106 281.116 432.521 206.26C408.605 223.957 381.581 244.286 358.861 263.179C358.861 263.179 356.948 265.092 354.556 263.657C353.839 263.179 353.121 262.461 352.643 261.505C354.795 259.352 356.948 257.2 359.34 255.048C360.535 221.566 353.121 187.845 341.163 156.754Z" fill="#EB5D19"/>
<path d="M352.643 261.266C353.121 262.222 353.6 262.94 354.556 263.418C355.274 263.897 355.752 263.896 356.47 263.896C357.426 263.896 358.143 263.657 358.383 263.418C359.1 258.874 359.34 254.809 359.34 254.809C356.948 256.961 354.796 259.113 352.643 261.266Z" fill="#373249"/>
<path d="M432.521 206.259C438.022 199.802 444.001 193.584 450.219 187.605C457.155 180.909 464.329 173.734 472.221 168.234C476.048 165.603 480.353 165.125 481.788 170.386C485.375 185.692 470.786 201.476 459.785 209.608C449.502 217.261 437.544 222.283 426.303 228.501C428.456 221.087 430.608 213.673 432.521 206.259Z" fill="#373249"/>
<path d="M617.867 120.642C606.387 157.95 554.252 96.9652 545.403 84.5291C544.685 83.5725 546.359 82.6159 547.077 83.5725C555.447 95.5303 605.67 153.645 615.954 120.163C616.432 118.968 618.345 119.446 617.867 120.642Z" fill="#373249"/>
<path d="M585.581 97.9218C594.908 103.183 604.953 109.88 611.888 114.902C611.41 115.38 610.932 115.619 610.692 116.098C603.518 121.598 593.952 116.576 587.256 112.749C577.45 107.01 566.927 97.4435 559.035 86.2031C568.123 89.7905 578.167 94.0953 585.581 97.9218Z" fill="#FFA67D"/>
<path d="M554.969 53.9174C551.86 47.4602 552.339 31.6759 566.688 23.3055C579.363 15.6525 594.669 12.5434 609.736 26.1753C624.564 39.5681 629.825 46.9819 635.565 58.9397C640.109 68.2668 643.218 79.268 632.695 86.4426C620.737 94.3348 603.757 92.8998 595.147 89.3125C586.059 85.7252 566.688 78.7897 554.969 53.9174Z" fill="#FFA67D"/>
<path d="M598.496 93.617C599.692 96.7261 602.083 100.313 608.062 107.966L608.54 91.943C616.432 92.1821 625.042 90.9864 631.978 86.2032C634.13 84.7683 635.804 83.0942 637 81.1809C636.043 78.7894 633.652 77.5936 630.064 77.8328C622.411 78.0719 617.628 79.5068 608.54 82.855C599.691 85.9641 596.104 87.8773 598.496 93.617Z" fill="#373249"/>
<path d="M564.774 21.3919C577.45 13.9781 595.865 7.99918 608.78 25.6967C602.801 27.8491 593.952 27.3708 583.907 24.7401C592.756 33.828 598.018 36.4587 594.43 45.0683C592.756 49.134 587.255 60.6135 583.189 62.0484C582.711 63.4834 582.712 67.7882 580.081 72.8105C577.689 77.1153 573.624 78.7894 569.319 78.7894L569.079 74.2454C563.818 69.2231 557.839 63.2442 553.774 54.6346C550.665 47.9382 550.664 29.7624 564.774 21.3919Z" fill="#373249"/>
<path d="M600.409 55.1131C600.648 62.2878 595.147 68.2667 587.973 68.745C580.798 68.9841 574.819 63.4836 574.341 56.3089C574.102 49.1342 579.602 43.1553 586.777 42.6769C593.952 42.4378 600.17 47.9384 600.409 55.1131Z" fill="#FFA67D"/>
<path d="M631.021 54.3957C630.543 54.874 630.065 54.874 629.586 54.874C629.108 54.874 628.63 54.874 628.391 54.3957C624.564 49.1343 621.216 43.8728 618.346 38.1331C617.629 36.6981 617.15 35.2632 618.346 35.5023C618.824 35.5023 636.043 41.9596 637.239 43.8728C639.152 46.2644 633.891 51.765 631.021 54.3957Z" fill="#FFA67D"/>
<path d="M616.193 31.1977C617.867 34.5459 613.801 35.0242 611.41 38.6116C609.496 41.9597 607.344 43.6338 605.67 42.1989C603.757 40.5248 604.474 35.9808 608.3 31.9152C612.127 28.3278 614.997 28.8062 616.193 31.1977Z" fill="#373249"/>
<path d="M613.802 39.3289C611.41 41.003 614.041 44.3512 615.476 45.3078C616.432 46.0253 617.628 46.7428 618.824 46.0253C620.498 44.8295 619.063 42.6771 618.107 41.4813C617.15 40.2855 615.476 38.3723 613.802 39.3289Z" fill="#373249"/>
<path d="M314.378 494.443C320.118 478.897 328.489 464.548 339.49 452.351C340.207 451.395 341.642 452.829 340.925 453.786C330.163 465.983 321.792 479.854 316.292 495.16C315.813 496.117 313.9 495.638 314.378 494.443Z" fill="#373249"/>
<path d="M321.314 478.658C311.747 475.549 301.703 474.354 291.659 475.071C290.463 475.071 290.463 473.158 291.659 473.158C301.942 472.44 311.987 473.636 321.792 476.745C322.988 477.223 322.27 478.898 321.314 478.658Z" fill="#373249"/>
<path d="M329.206 464.07C319.64 460.004 309.356 458.33 298.833 459.526C297.638 459.765 297.638 457.852 298.833 457.613C309.595 456.417 320.118 458.091 330.163 462.396C331.12 462.874 330.163 464.548 329.206 464.07Z" fill="#373249"/>
<path d="M104.399 441.111C86.4622 446.372 67.8083 445.894 50.3499 439.437C49.1542 438.958 49.6324 437.045 50.8281 437.523C68.0474 443.741 86.2231 444.459 103.921 439.198C105.116 438.958 105.595 440.632 104.399 441.111Z" fill="#373249"/>
<path d="M101.769 417.912C82.8755 422.456 63.5036 421.022 45.3278 413.847C44.132 413.369 44.6102 411.455 45.8059 411.934C63.5035 418.869 82.6359 420.304 101.29 415.999C102.486 415.76 102.965 417.434 101.769 417.912Z" fill="#373249"/>
<path d="M111.813 461.2C118.749 457.852 125.205 453.547 131.184 448.764C132.141 448.046 133.576 449.242 132.619 450.199C126.641 455.221 119.944 459.526 113.009 462.874C111.813 463.352 110.856 461.678 111.813 461.2Z" fill="#373249"/>
<path d="M630.542 58.4614C626.955 58.9397 623.607 58.4614 620.259 57.0265C619.063 56.5481 619.542 54.6349 620.737 55.1132C623.846 56.309 627.194 56.7873 630.542 56.5481C631.738 56.309 631.738 58.2222 630.542 58.4614Z" fill="#373249"/>
<path d="M584.385 62.0486C580.319 58.7005 580.08 52.7216 583.907 48.8951C584.864 47.9384 586.06 49.3734 585.342 50.33C582.233 53.439 582.472 57.983 585.82 60.8529C586.777 61.5703 585.342 63.0053 584.385 62.0486Z" fill="#373249"/>
<path d="M34.8051 850.785C42.219 829.261 64.4603 824.717 77.6138 808.933C92.9198 790.279 90.2892 764.928 107.03 747.231C114.683 739.099 124.727 734.077 134.772 730.011C146.73 724.989 159.405 720.923 170.167 713.51C182.364 704.9 189.061 691.507 198.388 680.267C211.302 664.483 236.174 653.481 250.524 674.049C263.438 692.464 254.35 714.945 239.284 728.576C218.238 747.948 189.061 754.644 169.211 775.929C151.991 794.344 141.229 817.782 127.597 838.827C117.074 855.329 100.573 878.766 78.8096 884.267C57.7639 889.528 25.2389 879.245 34.8051 850.785Z" fill="#FFBE63"/>
<path d="M2.51907 833.327C11.1287 819.456 22.3688 807.498 35.7615 804.628C47.241 802.236 54.655 810.368 55.6116 821.13C56.8074 832.609 51.3067 840.262 44.132 848.394C35.7615 857.721 28.3478 867.526 18.5424 875.657C13.5201 879.723 7.78051 883.789 1.32329 884.028C-4.65561 884.267 -10.8744 882.832 -12.5485 876.375C-13.5051 872.548 -12.7869 868.722 -11.8303 864.895C-8.96042 855.807 -4.1773 844.089 2.51907 833.327Z" fill="#587EE0"/>
<path d="M253.872 390.171C256.263 380.126 260.568 370.56 266.308 361.95C275.157 349.036 291.658 330.86 309.356 338.513C349.295 355.972 265.83 451.873 252.915 416.239C250.045 408.108 251.958 398.302 253.872 390.171Z" fill="#FFBE63"/>
<path d="M733.619 381.322C738.163 371.756 743.185 361.95 749.403 353.58C759.447 339.948 777.384 328.229 794.604 335.882C807.04 341.383 809.671 356.21 804.888 367.929C798.43 382.996 787.429 397.106 774.514 407.151C762.317 416.717 739.598 429.153 730.988 408.825C727.161 399.737 729.792 389.931 733.619 381.322Z" fill="#FFBE63"/>
<path d="M1636.85 1002.78C1650.58 1007.67 1663.03 1016.4 1668.21 1030C1673.44 1043.71 1671.09 1059.22 1663.04 1071.5C1655.35 1083.24 1642.05 1089.15 1628.14 1091.15C1613.98 1093.18 1598.71 1092.06 1588.35 1082.23C1577.93 1072.34 1576.28 1057.17 1577.23 1042.85C1578.23 1027.92 1581.18 1011.79 1593.63 1003.43C1606.2 994.978 1622.57 997.697 1636.85 1002.78Z" fill="#587EE0"/>
<path opacity="0.4" d="M1602.32 1072.75C1588.66 1067.88 1576.36 1059.23 1571.25 1045.82C1566.09 1032.28 1568.41 1016.93 1576.38 1004.77C1583.96 993.2 1597.1 987.33 1610.94 985.343C1625.04 983.317 1640.11 984.462 1650.31 994.134C1660.55 1003.86 1662.22 1018.83 1661.27 1033.12C1660.27 1048.06 1657.32 1063.94 1645.09 1072.16C1632.74 1080.46 1616.58 1077.83 1602.32 1072.75Z" stroke="white"/>
</svg>
