<svg width="1920" height="817" viewBox="0 0 1920 817" fill="none" xmlns="http://www.w3.org/2000/svg">
<path d="M1636.85 18.782C1650.58 23.6726 1663.03 32.403 1668.21 45.9977C1673.44 59.7067 1671.09 75.2246 1663.04 87.5004C1655.35 99.2377 1642.05 105.153 1628.14 107.152C1613.98 109.185 1598.71 108.062 1588.35 98.2291C1577.93 88.3413 1576.28 73.1655 1577.23 58.8502C1578.23 43.916 1581.18 27.7912 1593.63 19.4284C1606.2 10.978 1622.57 13.6965 1636.85 18.782Z" fill="#587EE0"/>
<path opacity="0.4" d="M1602.32 88.747C1588.66 83.8819 1576.36 75.2279 1571.25 61.8242C1566.09 48.2809 1568.41 32.9302 1576.38 20.7736C1583.96 9.20046 1597.1 3.33015 1610.94 1.34327C1625.04 -0.683411 1640.11 0.461929 1650.31 10.1336C1660.55 19.8579 1662.22 34.8294 1661.27 49.1164C1660.27 64.0612 1657.32 79.9426 1645.09 88.1566C1632.74 96.4629 1616.58 93.8254 1602.32 88.747Z" stroke="white"/>
<path d="M71.3252 527.496C95.7169 536.184 117.845 551.695 127.052 575.847C136.336 600.202 132.156 627.771 117.863 649.581C104.197 670.433 80.5652 680.943 55.848 684.493C30.6996 688.105 3.57317 686.111 -14.8371 668.641C-33.3492 651.074 -36.2864 624.113 -34.5832 598.681C-32.8064 572.149 -27.5664 543.501 -5.4618 528.644C16.8743 513.631 45.9613 518.461 71.3252 527.496Z" fill="#FFBE63"/>
<path opacity="0.4" d="M12.4758 669.525C-13.3047 660.341 -36.6029 643.978 -46.288 618.571C-56.0649 592.923 -51.6689 563.87 -36.5981 540.874C-22.2213 518.937 2.6657 507.844 28.7831 504.092C55.3918 500.27 83.9432 502.407 103.286 520.761C122.734 539.216 125.863 567.587 124.059 594.515C122.175 622.646 116.621 652.765 93.4141 668.363C69.9549 684.131 39.3386 679.093 12.4758 669.525Z" stroke="white"/>
<path fill-rule="evenodd" clip-rule="evenodd" d="M1755.25 577.247C1758.71 549.582 1768.32 521.625 1789.08 502.988C1809.49 484.661 1838.08 476.686 1865.49 478.253C1890.12 479.662 1906.87 502.001 1929.83 511.037C1957.48 521.92 2000.28 509.511 2013.05 536.323C2025.86 563.219 1984.03 587.553 1980.34 617.101C1976.28 649.55 2012.98 687.926 1991.06 712.212C1969.71 735.876 1929.56 705.972 1897.77 708.597C1868.86 710.985 1841.54 738.1 1814.83 726.764C1788.07 715.405 1780.88 681.412 1770.13 654.424C1760.18 629.471 1751.91 603.892 1755.25 577.247Z" fill="#F576A6"/>
<path opacity="0.4" d="M1755.74 616.852C1759.2 644.46 1768.78 672.279 1789.41 690.801C1809.7 709.023 1838.16 716.97 1865.46 715.409C1877.63 714.713 1887.88 708.846 1898 701.963C1900.01 700.598 1902.01 699.192 1904.03 697.78C1912.14 692.092 1920.39 686.3 1929.64 682.659C1936.62 679.912 1944.54 678.642 1952.65 677.855C1956.58 677.474 1960.56 677.205 1964.5 676.939L1964.91 676.912C1969 676.636 1973.04 676.358 1976.97 675.957C1992.72 674.347 2006.34 670.761 2012.6 657.623C2018.86 644.469 2011.81 631.901 2002.47 618.733C2001.1 616.801 1999.68 614.856 1998.25 612.898C1994.84 608.224 1991.38 603.473 1988.38 598.628C1984.12 591.746 1980.78 584.613 1979.84 577.123C1978.81 568.91 1980.37 560.35 1982.9 551.783C1984.62 545.979 1986.8 540.137 1988.95 534.385C1989.96 531.657 1990.97 528.95 1991.92 526.276C1997.86 509.559 2001.43 494.183 1990.69 482.284C1980.23 470.691 1965.14 472.158 1948.45 476.352C1944.61 477.316 1940.7 478.42 1936.76 479.535C1936.43 479.628 1936.1 479.722 1935.77 479.815C1931.49 481.023 1927.17 482.23 1922.88 483.265C1914.29 485.333 1905.76 486.725 1897.73 486.062C1890.44 485.46 1883.26 483.299 1876.19 480.591C1871.97 478.972 1867.76 477.146 1863.59 475.336C1860.8 474.126 1858.03 472.924 1855.29 471.797C1841.51 466.139 1828.18 462.276 1815.03 467.857C1801.81 473.468 1793.39 484.68 1786.93 497.925C1783.69 504.547 1780.96 511.661 1778.36 518.817C1777.63 520.815 1776.91 522.817 1776.2 524.813C1774.36 529.956 1772.53 535.055 1770.59 539.922C1760.65 564.868 1752.43 590.343 1755.74 616.852Z" stroke="white"/>
<path d="M738.265 779.614C728.465 790.569 718.239 801.945 705.031 809.107C685.857 820.062 653.902 821.747 641.12 800.259C636.433 792.676 635.58 783.406 639.415 774.98C646.658 758.969 665.406 753.492 676.058 740.431C687.562 726.948 699.918 711.359 719.092 710.095C737.839 708.831 760.42 720.207 759.994 741.273C759.568 756.863 747.639 769.081 738.265 779.614Z" fill="#373249"/>
</svg>
