<svg width="1920" height="1394" viewBox="0 0 1920 1394" fill="none" xmlns="http://www.w3.org/2000/svg">
<path d="M1650.81 1360.8C1688.16 1382.04 1737.74 1376.89 1775.08 1356.93C1834.32 1324.75 1869.73 1262.3 1912.87 1213.37C1956.01 1164.45 2012.02 1129.68 2067.4 1096.21C2113.11 1068.52 2190.38 1039.56 2192.95 975.822C2194.88 924.964 2137.58 923.676 2102.81 935.908C2075.12 945.564 2050.01 961.015 2024.9 975.178C1992.07 993.204 1959.23 1010.59 1926.39 1028.61C1862 1063.37 1798.26 1097.49 1733.87 1132.26C1686.87 1158.01 1636 1188.91 1616.04 1241.06C1599.3 1283.54 1607.67 1336.33 1650.81 1360.8Z" fill="#587EE0"/>
<path opacity="0.4" d="M1651.02 1379.42L1651.02 1379.42C1608.13 1355.1 1599.75 1302.57 1616.44 1260.21L1616.44 1260.21C1636.34 1208.23 1687.06 1177.39 1734.07 1151.64C1766.27 1134.25 1798.3 1117.03 1830.33 1099.81L1830.33 1099.81L1830.35 1099.8C1862.38 1082.58 1894.41 1065.37 1926.59 1047.99L1926.6 1047.99C1943.01 1038.98 1959.43 1030.12 1975.85 1021.27C1992.27 1012.42 2008.69 1003.57 2025.11 994.554L2025.11 994.552C2028.9 992.417 2032.68 990.253 2036.47 988.086C2057.85 975.862 2079.47 963.501 2102.95 955.313L2102.95 955.312C2120.28 949.216 2143.21 946.5 2161.53 951.619C2170.68 954.177 2178.66 958.684 2184.24 965.677C2189.81 972.665 2193 982.175 2192.52 994.804C2191.24 1026.48 2171.41 1049.55 2146.1 1068.19C2133.44 1077.51 2119.44 1085.7 2105.73 1093.31C2101.57 1095.61 2097.44 1097.86 2093.38 1100.07C2084.07 1105.15 2075.14 1110.02 2067.18 1114.84C2011.81 1148.31 1955.74 1183.11 1912.55 1232.09C1901.75 1244.33 1891.44 1257.42 1881.13 1270.66C1879.97 1272.14 1878.81 1273.63 1877.65 1275.12C1868.49 1286.9 1859.29 1298.73 1849.68 1310.15C1828.05 1335.89 1804.42 1359.5 1774.88 1375.56C1737.62 1395.47 1688.21 1400.58 1651.02 1379.42Z" stroke="white" stroke-width="0.857863"/>
<path d="M-415.188 450.797C-377.844 472.042 -328.265 466.892 -290.92 446.935C-231.684 414.746 -196.272 352.3 -153.132 303.374C-109.993 254.447 -53.9758 219.683 1.39722 186.207C47.1122 158.525 124.377 129.555 126.952 65.8217C128.884 14.9638 71.5793 13.6762 36.8102 25.9078C9.12369 35.5644 -15.9864 51.015 -41.0974 65.1779C-73.935 83.2036 -106.773 100.585 -139.61 118.611C-203.998 153.375 -267.742 187.495 -332.129 222.258C-379.132 248.009 -429.997 278.91 -449.957 331.056C-466.697 373.545 -458.328 426.334 -415.188 450.797Z" fill="#4FB096"/>
<path opacity="0.4" d="M110.914 14.6484L111.022 14.2335L110.914 14.6485C133.149 20.4451 147.228 31.8514 154.077 45.4947C160.927 59.1399 160.579 75.0866 153.834 90.0324L153.832 90.0373C145.837 108.365 129.805 124.039 110.126 137.918C90.4524 151.794 67.1768 163.845 44.7418 174.948C14.0037 189.98 -16.5864 204.889 -47.1767 219.797L-47.2193 219.818C-77.8238 234.733 -108.429 249.648 -139.182 264.688L-139.184 264.689C-154.855 272.457 -170.539 280.118 -186.224 287.78L-186.225 287.781C-201.91 295.442 -217.595 303.104 -233.269 310.873L-233.273 310.875C-236.881 312.704 -240.486 314.551 -244.099 316.403C-264.473 326.843 -285.084 337.405 -307.843 345.389L-307.844 345.389C-324.647 351.319 -347.273 355.605 -365.893 354.167C-375.204 353.448 -383.47 351.301 -389.506 347.252C-395.52 343.217 -399.339 337.283 -399.769 328.908C-400.272 318.369 -396.042 308.737 -388.689 299.832C-381.332 290.923 -370.868 282.766 -358.955 275.197C-347.045 267.629 -333.711 260.662 -320.629 254.124C-316.661 252.14 -312.716 250.196 -308.84 248.287C-299.947 243.904 -291.424 239.704 -283.853 235.635C-231.226 207.389 -177.989 178.186 -138.581 140.92C-128.731 131.605 -119.424 121.781 -110.127 111.857C-109.082 110.742 -108.038 109.626 -106.993 108.509C-98.7336 99.682 -90.4345 90.8126 -81.712 82.1748C-62.0632 62.7167 -40.2831 44.4519 -12.0563 30.5751C23.5657 13.2983 72.378 4.55918 110.914 14.6484Z" stroke="white" stroke-width="0.857863"/>
</svg>
