<?xml version="1.0" encoding="UTF-8" standalone="no"?>
<svg
   xmlns:dc="http://purl.org/dc/elements/1.1/"
   xmlns:cc="http://creativecommons.org/ns#"
   xmlns:rdf="http://www.w3.org/1999/02/22-rdf-syntax-ns#"
   xmlns:svg="http://www.w3.org/2000/svg"
   xmlns="http://www.w3.org/2000/svg"
   xmlns:sodipodi="http://sodipodi.sourceforge.net/DTD/sodipodi-0.dtd"
   xmlns:inkscape="http://www.inkscape.org/namespaces/inkscape"
   width="210.93686"
   height="108.12158"
   viewBox="0 0 210.93686 108.12158"
   version="1.1"
   id="svg6"
   sodipodi:docname="rev-user-mob.svg"
   style="fill:none"
   inkscape:version="0.92.5 (2060ec1f9f, 2020-04-08)">
  <metadata
     id="metadata12">
    <rdf:RDF>
      <cc:Work
         rdf:about="">
        <dc:format>image/svg+xml</dc:format>
        <dc:type
           rdf:resource="http://purl.org/dc/dcmitype/StillImage" />
        <dc:title></dc:title>
      </cc:Work>
    </rdf:RDF>
  </metadata>
  <defs
     id="defs10" />
  <sodipodi:namedview
     pagecolor="#ffffff"
     bordercolor="#666666"
     borderopacity="1"
     objecttolerance="10"
     gridtolerance="10"
     guidetolerance="10"
     inkscape:pageopacity="0"
     inkscape:pageshadow="2"
     inkscape:window-width="1920"
     inkscape:window-height="1027"
     id="namedview8"
     showgrid="false"
     fit-margin-top="0"
     fit-margin-left="0"
     fit-margin-right="0"
     fit-margin-bottom="0"
     inkscape:zoom="1.7481481"
     inkscape:cx="117.87153"
     inkscape:cy="53.918865"
     inkscape:window-x="1280"
     inkscape:window-y="30"
     inkscape:window-maximized="1"
     inkscape:current-layer="svg6" />
  <path
     d="m 11.638028,38.220919 c 9.9522,-12.105 25.7003,-22.8283 49.2502,-29.0918003 25.7315,-6.8438 55.835302,-10.7187 83.336302,-6.1681 28.323,4.6865 49.902,16.2466003 60.134,29.7674003 4.803,6.3464 5.42,12.9459 3.548,19.6157 -1.872,6.6718 -6.22,13.3648 -11.258,19.8644 -10.229,13.1959 -22.289,27.3382 -48.711,33.008201 -26.363,5.658 -55.867002,0.578 -82.302302,-4.91 -12.5663,-2.610001 -24.9309,-5.720001 -35.4703,-9.699001 -10.5501,-3.9825 -19.1935,-8.8068 -24.40673,-14.814 -5.13529995,-5.9175 -6.20876995,-12.2205 -4.71483,-18.6104 1.49486,-6.3938 5.55205,-12.829 10.59466,-18.9624 z"
     id="path2"
     inkscape:connector-curvature="0"
     style="opacity:0.4;stroke:#ffffff;stroke-width:0.85786301" />
  <path
     d="m 199.67053,70.052519 c -9.698,12.0708 -25.114,22.7492 -48.249,28.9572 -25.279,6.784001 -54.886102,10.593001 -81.999802,5.992001 -27.923,-4.738 -49.2671,-16.328001 -59.4569,-29.856501 -4.78402,-6.3517 -5.44532,-12.9466 -3.65818,-19.6048 1.78778,-6.6605 6.01388,-13.337 10.92028,-19.8191 9.9619,-13.1609 21.7184,-27.2610003 47.6844,-32.8705003 25.9078,-5.5969 54.998202,-0.4643 81.074202,5.0722 12.395,2.6317003 24.595,5.7634003 35.005,9.7589003 10.419,3.9993 18.971,8.8355 24.155,14.8479 5.108,5.9238 6.217,12.2239 4.799,18.6034 -1.419,6.3836 -5.36,12.8031 -10.274,18.9193 z"
     id="path4"
     inkscape:connector-curvature="0"
     style="opacity:0.4;stroke:#ffffff;stroke-width:0.85786301" />
</svg>
