<svg width="389" height="377" viewBox="0 0 389 377" fill="none" xmlns="http://www.w3.org/2000/svg">
<path opacity="0.4" d="M290.907 46.1478C327.474 73.8055 356.705 109.875 367.349 154.898C378.977 204.081 378.615 257.888 350.896 299.736C322.356 342.823 273.432 368.62 222.571 373.513C174.475 378.141 130.954 353.277 91.4748 324.645C71.4382 310.114 50.7894 294.593 34.2263 276.528C17.667 258.467 5.21185 237.885 1.53572 213.238C-5.79808 164.07 24.5891 119.37 55.0041 80.1578C83.9176 42.881 119.302 8.70678 165.343 2.07042C210.848 -4.48876 253.894 18.1517 290.907 46.1478Z" stroke="white" stroke-width="0.857863"/>
<path opacity="0.4" d="M98.0896 331.698C61.5227 304.557 32.2931 269.164 21.6502 224.988C10.0236 176.728 10.3857 123.933 38.1021 82.8727C66.6407 40.5941 115.565 15.2787 166.428 10.4763C214.528 5.93469 258.05 30.3354 297.528 58.4302C317.565 72.6893 338.214 87.9203 354.776 105.647C371.336 123.37 383.789 143.565 387.464 167.746C394.797 215.986 364.415 259.845 333.998 298.325C305.086 334.903 269.702 368.438 223.659 374.951C178.15 381.388 135.103 359.169 98.0896 331.698Z" stroke="white" stroke-width="0.857863"/>
</svg>
