<svg width="417" height="405" viewBox="0 0 417 405" fill="none" xmlns="http://www.w3.org/2000/svg">
<path opacity="0.4" d="M312.648 49.5396C351.948 79.271 383.368 118.047 394.809 166.45C407.306 219.319 406.918 277.165 377.123 322.156C346.446 368.478 293.859 396.21 239.193 401.471C187.492 406.447 140.713 379.714 98.2861 348.939C76.7536 333.32 54.5606 316.635 36.7582 297.214C18.9598 277.798 5.57057 255.67 1.61871 229.17C-6.26497 176.305 26.4008 128.249 59.0857 86.1018C90.1591 46.0331 128.192 9.2913 177.684 2.15621C226.6 -4.89595 272.869 19.4464 312.648 49.5396Z" stroke="white" stroke-width="0.857863"/>
<path opacity="0.4" d="M104.349 356.306C65.0483 327.092 33.6303 288.993 22.1903 241.436C9.69452 189.49 10.082 132.656 39.8753 88.452C70.5511 42.9385 123.138 15.6878 177.806 10.5182C229.51 5.62897 276.29 31.8978 318.717 62.1365C340.249 77.4834 362.442 93.8781 380.244 112.96C398.043 132.038 411.43 153.779 415.381 179.814C423.264 231.751 390.603 278.967 357.917 320.381C326.844 359.751 288.812 395.854 239.317 402.865C190.398 409.795 144.128 385.875 104.349 356.306Z" stroke="white" stroke-width="0.857863"/>
</svg>
