<?xml version="1.0" encoding="UTF-8" standalone="no"?>
<svg
   xmlns:dc="http://purl.org/dc/elements/1.1/"
   xmlns:cc="http://creativecommons.org/ns#"
   xmlns:rdf="http://www.w3.org/1999/02/22-rdf-syntax-ns#"
   xmlns:svg="http://www.w3.org/2000/svg"
   xmlns="http://www.w3.org/2000/svg"
   xmlns:sodipodi="http://sodipodi.sourceforge.net/DTD/sodipodi-0.dtd"
   xmlns:inkscape="http://www.inkscape.org/namespaces/inkscape"
   width="356.20059"
   height="369.15445"
   viewBox="0 0 356.20059 369.15445"
   version="1.1"
   id="svg6"
   sodipodi:docname="rev-user-1.svg"
   style="fill:none"
   inkscape:version="0.92.5 (2060ec1f9f, 2020-04-08)">
  <metadata
     id="metadata12">
    <rdf:RDF>
      <cc:Work
         rdf:about="">
        <dc:format>image/svg+xml</dc:format>
        <dc:type
           rdf:resource="http://purl.org/dc/dcmitype/StillImage" />
        <dc:title></dc:title>
      </cc:Work>
    </rdf:RDF>
  </metadata>
  <defs
     id="defs10" />
  <sodipodi:namedview
     pagecolor="#ffffff"
     bordercolor="#666666"
     borderopacity="1"
     objecttolerance="10"
     gridtolerance="10"
     guidetolerance="10"
     inkscape:pageopacity="0"
     inkscape:pageshadow="2"
     inkscape:window-width="795"
     inkscape:window-height="480"
     id="namedview8"
     showgrid="false"
     fit-margin-top="0"
     fit-margin-left="0"
     fit-margin-right="0"
     fit-margin-bottom="0"
     inkscape:zoom="0.51082251"
     inkscape:cx="178.56493"
     inkscape:cy="184.22728"
     inkscape:window-x="0"
     inkscape:window-y="30"
     inkscape:window-maximized="0"
     inkscape:current-layer="svg6" />
  <path
     d="m 19.419331,129.68516 c 16.8349,-41.457999 43.4516,-78.124099 83.202599,-99.529599 43.425,-23.3839003 94.236,-36.6327003 140.684,-21.0724003 47.823,16.0213003 84.498,55.6260003 101.958,102.3349993 16.511,44.17 4.066,91.477 -12.951,135.927 -8.637,22.56 -18.052,45.946 -30.898,66.123 -12.842,20.172 -29.096,37.111 -51.399,46.801 -44.493,19.332 -94.302,1.977 -138.951,-16.792 -42.442999,-17.842 -83.593399,-42.567 -101.4779991,-84.291 -17.6766,-41.24 -7.2088,-87.536 9.8324001,-129.501 z"
     id="path2"
     inkscape:connector-curvature="0"
     style="opacity:0.4;stroke:#ffffff;stroke-width:0.85786301" />
  <path
     d="m 337.41093,239.98416 c -16.406,41.343 -42.463,77.858 -81.513,99.075 -42.661,23.178 -92.635,36.202 -138.43,20.47 -47.152999,-16.2 -83.429599,-55.911 -100.814699,-102.643 -16.44000011,-44.192 -4.38,-91.397 12.1933,-135.728 8.4117,-22.498999 17.5867,-45.820999 30.1514,-65.921999 12.562,-20.0973 28.497,-36.9489 50.413999,-46.5352003 43.725,-19.1245997 92.837,-1.5875 136.88,17.3451003 41.864,17.9963 82.486,42.8621 100.268,84.617099 17.577,41.269 7.458,87.473 -9.149,129.321 z"
     id="path4"
     inkscape:connector-curvature="0"
     style="opacity:0.4;stroke:#ffffff;stroke-width:0.85786301" />
</svg>
