<svg width="187" height="445" viewBox="0 0 187 445" fill="none" xmlns="http://www.w3.org/2000/svg">
<path d="M42.8119 431.298C80.1565 452.542 129.735 447.392 167.08 427.435C226.316 395.247 261.728 332.801 304.868 283.874C348.007 234.947 404.024 200.184 459.397 166.707C505.112 139.025 582.377 110.056 584.952 46.3222C586.884 -4.53574 529.579 -5.82333 494.81 6.40833C467.124 16.0649 442.014 31.5154 416.903 45.6784C384.065 63.704 351.227 81.0858 318.39 99.1114C254.002 133.875 190.258 167.995 125.871 202.759C78.8681 228.51 28.0034 259.411 8.0434 311.556C-8.69733 354.045 -0.327576 406.834 42.8119 431.298Z" fill="#FFBE63"/>
</svg>
