<svg width="1920" height="1040" viewBox="0 0 1920 1040" fill="none" xmlns="http://www.w3.org/2000/svg">
<path d="M1905.19 450.314C1917.34 477.794 1929.9 506.424 1932.1 537.027C1936.33 581.923 1912.5 642.721 1861.67 648.279C1843.58 650.567 1825.59 644.304 1813.12 630.046C1789.4 603.035 1795.02 563.567 1779.67 532.719C1764.26 499.932 1745.64 463.778 1759.47 427.085C1772.93 391.184 1813.19 358.86 1852.09 377.485C1880.78 391.474 1893.48 423.982 1905.19 450.314Z" fill="#252234"/>
<path fill-rule="evenodd" clip-rule="evenodd" d="M254.611 894.927C163.016 928.552 70.8493 1021.27 -16.721 983.998C-104.843 946.49 -78.6086 815.533 -123.405 734.031C-164.724 658.855 -272.525 613.743 -267.54 527.661C-262.557 441.623 -155.354 397.649 -99.8969 328.127C-38.5003 251.16 -23.2998 121.484 74.3386 99.0818C172.104 76.6506 241.437 184.816 327.761 230.005C401.389 268.548 492.656 279.718 542.443 344.126C594.806 411.866 615.106 500.704 602.795 585.809C590.734 669.194 541.385 745.099 476.052 803.102C415.352 856.992 331.528 866.691 254.611 894.927Z" fill="#262234"/>
</svg>
