<svg width="320" height="405" viewBox="0 0 320 405" fill="none" xmlns="http://www.w3.org/2000/svg">
<path fill-rule="evenodd" clip-rule="evenodd" d="M87.1257 329.151C56.9238 346.482 30.0713 384.637 -2.97417 376.786C-36.2278 368.886 -34.8667 321.24 -55.5221 295.26C-74.574 271.297 -115.207 261.903 -118.625 231.321C-122.041 200.755 -86.9708 178.844 -71.6384 151.056C-54.6639 120.291 -57.1074 73.7595 -24.1053 60.0127C8.93967 46.248 39.8286 80.1339 72.9114 90.8446C101.128 99.98 133.906 98.4261 155.29 118.093C177.78 138.777 190.259 168.81 191.041 199.488C191.808 229.547 179.008 259.214 159.509 283.544C141.393 306.148 112.488 314.596 87.1257 329.151Z" fill="#262234"/>
<path d="M314.199 338.1C318.054 345.845 322.047 353.915 323.083 362.69C324.892 375.549 318.838 393.352 304.29 395.621C299.117 396.518 293.858 394.954 290.084 391.017C282.904 383.559 284 372.132 279.178 363.46C274.311 354.232 268.478 344.077 271.972 333.34C275.373 322.835 286.528 313.006 297.962 317.851C306.4 321.496 310.482 330.68 314.199 338.1Z" fill="#252234"/>
</svg>
