<svg width="590" height="1076" viewBox="0 0 590 1076" fill="none" xmlns="http://www.w3.org/2000/svg">
<path fill-rule="evenodd" clip-rule="evenodd" d="M241.976 848.508C327.861 940.508 564.547 1066.89 687.047 1074.93C810.318 1083.02 867.029 947.771 966.018 880.005C1057.32 817.5 1012.43 831.485 1056.77 729.484C1101.09 627.535 1003.26 514.54 979.862 402.239C953.959 277.912 1011.91 119.779 912.534 37.1832C813.034 -45.5202 670.284 38.6663 544.613 40.4664C437.426 42.0017 325.858 1.76116 231.068 46.9445C131.376 94.4645 56.3193 184.928 20.9773 290.067C-13.65 393.08 -1.00013 509.176 40.4678 613.961C78.9954 711.317 169.853 771.251 241.976 848.508Z" fill="#262234"/>
</svg>
