<svg width="221" height="146" preserveAspectRatio="none" viewBox="0 0 221 146" fill="none" xmlns="http://www.w3.org/2000/svg">
<path d="M221 68.9642C221 106.69 180.809 134 123.923 134C67.038 134 15 106.69 15 68.9642C15 31.2379 50.5843 0 107.47 0C164.355 0 221 31.2379 221 68.9642Z" fill="#EB5D19"/>
<path opacity="0.4" d="M211.5 71.0433C211.5 109.913 177.029 145.5 118.509 145.5C89.2295 145.5 59.6891 137.573 37.4829 124.771C15.254 111.956 0.5 94.3383 0.5 75C0.5 55.5891 10.9765 37.9781 28.8009 25.2018C46.6272 12.4241 71.7863 4.5 101.062 4.5C130.352 4.5 157.997 11.4421 178.301 23.2493C198.613 35.0606 211.5 51.6848 211.5 71.0433Z" stroke="white"/>
</svg>
