<svg width="1920" height="1266" viewBox="0 0 1920 1266" fill="none" xmlns="http://www.w3.org/2000/svg">
<path fill-rule="evenodd" clip-rule="evenodd" d="M1802.92 209.291C1898.66 172.989 1993.39 71.4515 2086.8 113.385C2180.79 155.583 2156.66 299.926 2206.13 390.306C2251.76 473.67 2366.72 524.44 2363.79 619.43C2360.86 714.372 2248.94 761.961 2192.31 838.216C2129.61 922.639 2117.08 1065.67 2014.67 1089.52C1912.12 1113.41 1836.04 993.377 1743.74 942.715C1665.01 899.505 1568.41 886.357 1514.13 814.803C1457.05 739.55 1433.23 641.29 1443.91 547.443C1454.38 455.494 1504.4 372.135 1571.76 308.685C1634.35 249.733 1722.53 239.776 1802.92 209.291Z" fill="#262234"/>
<path opacity="0.4" d="M1762.97 156.693C1786.94 147.604 1810.84 134.436 1834.65 120.465C1840.91 116.789 1847.17 113.058 1853.42 109.331C1870.93 98.8864 1888.4 88.4712 1905.83 79.3812C1953.14 54.7118 2000.01 39.8967 2046.52 60.7773C2093.31 81.7835 2110.74 128.22 2122.64 180.873C2125.52 193.645 2128.08 206.773 2130.66 219.985L2130.89 221.178C2133.54 234.79 2136.23 248.481 2139.31 261.939C2145.48 288.854 2153.25 314.867 2165.65 337.513C2177.08 358.402 2192.85 377.237 2210.01 395.215C2218.59 404.205 2227.52 412.984 2236.44 421.698C2237.24 422.486 2238.05 423.272 2238.85 424.058C2246.95 431.978 2255.01 439.856 2262.76 447.809C2296.83 482.789 2324.72 519.114 2323.26 566.418C2321.8 613.706 2293.2 649.235 2257.79 682.519C2247.21 692.464 2236.04 702.191 2224.82 711.969C2217.25 718.56 2209.65 725.174 2202.19 731.894C2183.69 748.568 2166.05 765.863 2151.86 784.961C2136.16 806.105 2123.61 830.907 2112.01 856.568C2107.46 866.65 2103.05 876.859 2098.66 887.032C2091.87 902.772 2085.11 918.427 2077.89 933.397C2054.13 982.674 2025.47 1024.23 1974.47 1036.11C1923.4 1048.01 1878.88 1024.08 1835.52 990.738C1821.06 979.616 1806.75 967.464 1792.37 955.257C1785.19 949.164 1778 943.057 1770.76 937.058C1749.04 919.049 1726.95 902.026 1703.84 889.34C1677.78 875.036 1649.74 864.014 1621.95 853.092C1607.74 847.508 1593.61 841.951 1579.83 835.995C1539.08 818.372 1501.44 797.232 1474.37 761.545C1417.36 686.387 1393.56 588.24 1404.24 494.493C1414.69 402.667 1464.64 319.397 1531.95 255.998C1563.18 226.584 1600.81 209.381 1640.7 195.72C1657.66 189.914 1675.01 184.751 1692.46 179.56C1695.54 178.644 1698.62 177.726 1701.71 176.804C1722.26 170.662 1742.86 164.32 1762.97 156.693Z" stroke="white" stroke-width="0.857863"/>
<path d="M1498.82 318.947C1504.86 307.623 1523.33 302.997 1534.25 302.083C1559.83 300.11 1584.41 310.287 1609.42 314.099C1623.92 316.303 1638.1 315.552 1652.33 312.062C1666.56 308.573 1680.35 303.337 1694.74 299.745C1707.54 296.494 1720.75 294.566 1733.93 296.484C1747.02 298.242 1759.52 303.308 1770.45 310.506C1794.46 326.468 1810.26 353.558 1815 389.092C1814.63 389.559 1814.35 390.186 1813.92 390.916L1815.81 391.055C1815.81 391.055 1832.56 438.968 1801.32 454.274C1770.08 469.579 1725.8 444.516 1687.69 415.717C1678.49 408.76 1677.58 403.477 1681.24 399.327C1664.25 397.817 1647.42 396.204 1630.54 394.853C1610.61 392.975 1589.55 392.499 1570.76 385.373C1549.05 377.195 1536.51 359.065 1526.22 339.499C1515.78 336.945 1498.82 318.947 1498.82 318.947Z" fill="#373249"/>
<path d="M1219.81 500.876C1220.51 497.043 1226.04 493.717 1228.88 491.449C1232.83 488.463 1237.24 485.855 1241.71 483.668C1238.98 482.935 1236.26 482.203 1233.59 481.208C1229.61 479.926 1224.47 478.255 1221.36 475.514C1217.05 471.962 1221.86 468.201 1225.76 467.954C1230.77 467.673 1236.23 468.454 1241.23 468.858C1246.81 469.114 1252.39 469.371 1258.07 469.787C1266.91 470.206 1275.75 470.624 1284.54 471.306C1344.34 464.299 1404.34 455.136 1460.52 432.631C1461.74 432.074 1462.39 434.139 1461.07 434.537C1459.69 435.198 1458.36 435.596 1456.88 436.097C1471.21 456.681 1489.61 473.756 1510.98 486.669C1511.73 486.419 1512.2 486.111 1512.95 485.861C1514.17 485.303 1514.71 487.209 1513.49 487.767C1513.17 487.972 1512.75 488.017 1512.43 488.222C1512.42 488.907 1511.62 489.419 1510.89 488.985L1510.79 488.825C1480.44 501.302 1412.8 513.333 1380.21 515.288C1345.52 517.469 1281.86 510.028 1266.35 508.016C1260.01 509.38 1253.67 510.058 1247.48 508.843C1243.76 510.779 1239.99 512.293 1235.92 513.328C1233.75 513.816 1230.9 514.293 1229.24 512.42C1227.69 510.707 1228.15 508.608 1229.34 506.944C1230.59 505.017 1232.46 503.364 1234.17 501.814C1227.59 504.911 1218.74 507.653 1219.81 500.876Z" fill="#FFA67D"/>
<path d="M1710.08 454.828C1707.4 445.036 1703.29 436.167 1698.82 427.08C1694.59 418.736 1690.16 410.072 1687.9 400.919C1686.62 396.103 1684.09 386.893 1689.57 383.829C1695.21 380.663 1704.45 385.566 1708.97 388.753C1714.7 392.752 1719.39 398.313 1722.29 404.58C1724.52 409.465 1724.74 414.736 1726.07 419.975C1727.86 426.275 1732.44 429.2 1736.14 434.269C1738.97 438.322 1739.99 443.081 1739.38 447.758C1740.94 455.107 1742.06 463.187 1737.37 469.583C1733.86 474.315 1728.08 476.215 1722.7 473.802C1714.91 470.452 1712.32 462.189 1710.08 454.828Z" fill="#2B244A"/>
<path d="M1671.93 440.724C1679.62 443.23 1687.6 445.108 1695.42 446.405C1686.62 428.815 1682.06 409.402 1682.52 389.71C1682.58 388.763 1683.58 386.094 1683.99 386.733C1684.15 386.631 1690.25 378.205 1690.51 378.262C1748.04 381.065 1892 392.712 1917.22 396.843C1930.08 398.966 1938.13 399.897 1951.04 402.442C1957.5 403.715 1963.79 405.09 1970.09 406.465C1973.5 407.21 1978.18 407.819 1979.11 411.733C1980.59 417.553 1943.27 424.798 1930.29 426.36C1931.28 426.852 1938.43 430.612 1939.26 431.206C1941.45 432.509 1945.11 433.996 1946.17 436.701C1948.23 442.373 1939.97 441.807 1937.08 441.176C1924.86 438.643 1915.95 436.011 1904.5 431.174C1873.01 436.256 1841.38 440.756 1809.66 444.412C1779.36 447.829 1748.63 451.977 1718.1 450.807C1711.68 450.642 1705.21 450.054 1698.96 449.101C1699.27 449.58 1699.41 450.162 1699.72 450.642C1700.44 451.761 1698.68 452.889 1697.96 451.77C1697.35 450.811 1696.89 449.749 1696.28 448.79C1687.77 447.482 1679.27 445.488 1671.04 442.868C1670.21 442.274 1670.77 440.335 1671.93 440.724Z" fill="#FFA67D"/>
<path d="M1447.37 437.457C1447.27 437.297 1447.27 437.297 1447.17 437.137L1447.07 436.977C1447.02 436.555 1447.24 436.19 1447.72 435.882C1467.74 426.648 1487.04 416.294 1505.99 405.039C1514.99 399.72 1523.68 393.92 1532.47 388.281C1533.91 387.358 1537.16 385.045 1537.48 384.84C1558.7 367.619 1585.47 366.458 1612.39 369.723C1638.51 372.817 1658.62 373.908 1690.41 378.102C1685.56 381.44 1686.56 396.365 1687.74 401.022C1690 410.174 1694.43 418.838 1698.66 427.183C1703.29 436.166 1707.24 445.138 1709.92 454.93C1711.9 462.234 1714.65 470.394 1722.28 473.847C1725.31 475.059 1728.31 475.165 1731.02 474.106C1708.64 488.462 1684.13 459.743 1660.96 461.97C1662.34 464.47 1663.56 467.072 1664.68 469.515C1667.97 477.105 1670.3 485.311 1669.73 493.571C1669.45 497.359 1668.71 500.77 1667.12 504.271C1664.49 510.019 1659.22 515.878 1662.48 522.362C1662.85 522.579 1663.15 523.059 1662.88 523.686C1656.67 535.113 1651.09 546.814 1646.14 558.789C1642.07 568.621 1636.83 576.272 1626.59 580.358C1625.85 580.608 1625.28 580.072 1625.45 579.284C1614.32 579.879 1603.27 576.366 1594.65 569.261C1582.56 559.198 1578.77 543.803 1572.27 530.151C1565.66 516.339 1553.65 507.805 1543.46 497.196C1539.9 501.505 1535.84 505.016 1530.63 507.452C1530.31 507.658 1530.05 507.6 1529.79 507.543C1529.41 508.01 1528.57 508.101 1528 507.564C1521.76 499.606 1512.18 496.277 1502.97 493.165C1495.17 490.499 1487.58 487.468 1480.98 482.453C1466.01 471.075 1456.41 453.998 1447.37 437.457Z" fill="#F5E3D9"/>
<path d="M1939.67 407.931C1939.67 407.931 1960.91 419.577 1971.82 428.145C1975.09 430.784 1975.81 440.699 1953.76 433.411C1930.56 425.733 1918.34 422.516 1918.34 422.516L1939.67 407.931Z" fill="#FFA67D"/>
<path d="M1259.09 489.663C1252.43 488.071 1245.93 486.376 1239.48 484.419C1238.59 484.087 1238.78 482.616 1239.83 482.845C1246.27 484.802 1252.93 486.394 1259.43 488.089C1260.48 488.318 1260.14 489.892 1259.09 489.663Z" fill="#2B244A"/>
<path d="M1266.96 491.381C1262.41 492.724 1258.06 494.385 1253.71 496.047C1251.75 496.855 1249.58 497.344 1247.56 498.415C1245.54 499.485 1244.26 500.305 1243.8 502.404C1242.77 503.967 1243.23 505.028 1244.85 505.794C1245.57 506.913 1246.5 507.667 1247.81 507.953C1248.7 508.285 1247.99 509.642 1247.1 509.31C1242.03 507.377 1239.69 502.332 1244.34 498.674C1246.69 496.714 1249.76 495.872 1252.63 494.711C1257.24 493.107 1261.91 491.24 1266.62 489.795C1267.46 489.705 1267.86 491.029 1266.96 491.381Z" fill="#2B244A"/>
<path d="M1745.27 750.586C1746.75 750.77 1748.06 751.056 1749.63 751.4C1743.89 745.61 1739.87 737.585 1736.56 730.679C1727.47 711.925 1718.31 693.433 1709.21 674.678C1704.59 665.01 1699.8 655.444 1695.18 645.776C1692.64 640.411 1689.27 634.452 1690.48 628.258C1693.09 615.082 1710.41 615.703 1717.73 606.719C1715.65 604.892 1713.48 602.904 1711.4 601.077C1710.36 600.163 1711.76 598.818 1712.69 599.572L1718.76 605.157C1718.97 604.792 1719.19 604.427 1719.41 604.062C1719.96 602.808 1721.78 603.893 1721.13 604.988C1720.86 605.615 1720.64 605.98 1720.26 606.448L1807.54 684.468C1876.18 687.362 1940.64 718.205 2005.38 738.939C2020.78 743.951 2036.45 748.336 2052.35 751.671C2069.61 746.918 2087.39 742.279 2105.38 743.597C2123.37 744.914 2132.21 751.654 2150.9 761.096C2157.95 764.696 2193.38 783.703 2199.74 790.452C2202.74 793.718 2206.41 797.681 2205.64 802.461C2203.83 812.648 2191.18 812.636 2183.24 811.864C2164.42 809.953 2145.86 808.099 2127.03 806.187C2108.47 804.333 2089.64 803.106 2070.98 800.407C2035.57 795.149 1999.76 791.727 1964.24 786.993C1941.01 783.845 1917.68 780.537 1894.41 776.967C1848.49 770.101 1802.58 762.551 1756.95 754.373C1760.5 756.385 1764.8 757.461 1769.76 756.759C1771.03 756.623 1771.16 758.574 1769.89 758.71C1762.97 759.536 1757.27 757.329 1752.6 753.559C1750.08 753.146 1747.55 752.733 1745.19 752.218C1743.5 752.399 1743.96 750.3 1745.27 750.586Z" fill="#FFA67D"/>
<path d="M1806.96 729.285C1808.67 722.099 1811.06 714.924 1813.39 708.012C1815.57 701.203 1817.74 694.393 1821.43 688.19C1821.87 687.46 1822.46 686.628 1823.06 685.795C1844.56 688.017 1865.81 692.658 1886.62 698.713C1868.93 719.314 1858.61 745.786 1845.12 769.779C1831.31 767.587 1817.49 765.395 1803.74 762.941C1802.78 751.599 1804.25 739.825 1806.96 729.285Z" fill="#373249"/>
<path d="M1705.33 844.12C1694.74 826.551 1685.9 807.853 1677.49 789.111C1668.36 769.25 1660.02 748.876 1652.75 728.046C1637.1 683.26 1625.22 640.121 1621.42 592.699C1624.53 586.643 1667.86 522.299 1672.15 517.739C1723.07 551.4 1758.45 606.541 1769.08 666.725C1771.61 681.572 1772.72 696.656 1772.29 711.819C1794.09 682.494 1813.29 651.227 1829.41 618.325C1829.37 617.218 1829.34 616.111 1829.57 615.062C1830.44 607.281 1835.04 600.725 1840.35 595.288C1847.15 588.665 1855 582.956 1862.48 577.03C1871.29 570.021 1880.27 562.91 1889.08 555.901C1893.25 552.551 1897.41 549.2 1901.69 546.01C1904.04 544.049 1907.25 541.314 1910.77 541.534C1918.35 542.089 1919.69 549.803 1916.95 555.391C1909.25 571.163 1878.5 621.348 1871.97 632.98C1859.36 676.268 1852.71 701.066 1841.19 736.209C1834.62 756.215 1828.57 782.657 1819.96 801.943C1811.62 820.601 1802.9 840.411 1788.89 855.493C1777.56 867.725 1761.34 876.553 1744.25 874.882C1726.31 873.302 1714.08 858.812 1705.33 844.12Z" fill="#FFA67D"/>
<path d="M1692.63 814.819C1696.1 785.066 1717.38 749.305 1727.94 721.099C1732.91 707.755 1739.4 695.016 1747.82 683.523C1756.46 671.665 1767.43 661.692 1778.45 652.141C1782.9 648.163 1787.6 644.242 1792.04 640.265C1794.18 644.306 1806.86 651.061 1803.19 665.376C1799.41 679.532 1774.2 735.188 1747.31 772.746C1737.37 786.793 1711.63 809.623 1696.38 820.311C1695.68 820.983 1692.5 816.029 1692.63 814.819Z" fill="#373249"/>
<path d="M1820.24 636.389C1823.45 630.493 1826.4 624.54 1829.35 618.587C1829.32 617.48 1829.44 616.271 1829.51 615.324C1830.39 607.543 1834.98 600.987 1840.29 595.549C1847.1 588.927 1854.94 583.218 1862.42 577.292C1871.23 570.283 1880.21 563.172 1889.02 556.163C1893.19 552.813 1897.36 549.462 1901.63 546.271C1903.98 544.311 1907.19 541.576 1910.55 541.898C1918.13 542.453 1919.47 550.167 1916.74 555.755C1909.03 571.528 1878.28 621.713 1871.76 633.345C1870.81 636.436 1870.02 639.424 1869.12 642.253C1863.95 640.16 1860.13 635.616 1859.17 629.91C1846.05 630.206 1832.79 632.396 1820.24 636.389Z" fill="#F5E3D9"/>
<path d="M1733.01 765.225C1740.05 744.911 1749.34 726.322 1763.68 710.35C1778.72 693.706 1796.51 679.586 1809.74 661.172C1823.19 642.393 1831.64 620.049 1830.78 596.91C1822.41 593.707 1814.26 590.14 1806.32 586.208C1788.72 577.417 1772.53 566.597 1756.34 555.777C1727.14 535.931 1700.52 509.916 1664.07 510.064C1652.88 532.36 1628.79 560.222 1611.57 578.039C1610.1 643.278 1620.29 731.952 1663.9 836.859C1706.66 819.807 1719.74 803.971 1733.01 765.225Z" fill="#EB5D19"/>
<path d="M1664.33 510.121C1672.44 510.106 1680.01 511.345 1687.24 513.474C1682.27 526.134 1671.86 537.329 1661.33 545.888C1647.43 557.284 1631.89 566.808 1615.59 574.107C1632.39 556.335 1654.06 530.695 1664.33 510.121Z" fill="#373249"/>
<path d="M1702.6 556.412C1702.94 554.838 1705.12 553.664 1709.55 553.532C1728.57 553.287 1746.85 562.089 1765.17 565.678C1767.69 566.091 1770.22 566.504 1772.95 566.552C1778.84 570.448 1784.78 574.082 1790.88 577.613C1779.85 579.052 1769.53 581.61 1757.17 580.286C1742.4 578.709 1726.49 576.059 1713.23 568.767C1708.54 566.367 1701.64 560.187 1702.6 556.412Z" fill="#373249"/>
<path d="M1916.85 546.434C1887.85 569.101 1858.38 591.39 1829.68 614.537C1828.99 615.209 1828.17 613.93 1828.86 613.258C1857.45 589.952 1886.92 567.662 1916.03 545.155C1916.83 544.643 1917.65 545.921 1916.85 546.434Z" fill="#2B244A"/>
<path d="M1892.46 597.047C1885.13 591.598 1875.01 607.117 1871.13 612.316C1866.86 617.983 1863.39 623.821 1859.86 629.922C1859.27 630.755 1858.01 630.206 1858.5 629.214C1863.23 620.764 1868.43 612.69 1874.73 605.269C1878.98 600.287 1885.94 590.401 1893.38 596.01C1894.21 596.604 1893.3 597.641 1892.46 597.047Z" fill="#2B244A"/>
<path d="M1903.01 578.323C1897 575.636 1892.89 585.045 1886.68 584.514C1882.37 584.122 1879.11 580.799 1876.69 577.386C1876.18 576.586 1877.46 575.766 1877.97 576.565C1879.67 578.86 1881.79 581.11 1884.56 582.265C1888.85 584.026 1891.79 581.233 1894.95 578.76C1897.46 576.697 1900.48 575.434 1903.62 576.806C1904.61 577.297 1903.9 578.654 1903.01 578.323Z" fill="#2B244A"/>
<path d="M1618.24 471.331C1614.21 460.831 1634.55 460.188 1640.25 459.92C1647.31 459.675 1654.4 460.538 1661.33 462.187C1662.71 464.687 1663.82 467.13 1665.04 469.732C1665.7 471.113 1666.2 472.597 1666.76 473.818C1659.32 474.53 1651.68 477.398 1644.39 478.692C1636.58 479.872 1621.71 480.611 1618.24 471.331Z" fill="#373249"/>
<path d="M1532.39 506.325C1528.18 497.296 1524.41 486.853 1523.85 476.834C1523.83 475.043 1523.92 472.727 1526.3 472.558C1528.67 472.389 1529.89 474.992 1530.59 476.795C1534.2 484.18 1538.45 491.156 1543.56 497.356C1540.38 501.198 1536.8 504.401 1532.44 506.747C1532.49 506.485 1532.39 506.325 1532.39 506.325Z" fill="#2B244A"/>
<path d="M1516.52 372.566L1531.93 388.851L1560.5 372.55L1534.57 346.546L1516.52 372.566Z" fill="#FFA67D"/>
<path d="M1560.51 372.55C1560.51 372.55 1551.21 376.706 1544.68 394.659C1540.2 407.011 1542.54 441.608 1542.54 441.608C1542.54 441.608 1517.96 416.312 1531.77 388.953C1539.46 373.866 1560.51 372.55 1560.51 372.55Z" fill="#FFA67D"/>
<path d="M1542.74 322.354C1541.79 316.648 1534.22 306.612 1521.19 307.752C1509.43 308.757 1498.07 313.561 1494.53 329.143C1490.99 344.725 1490.97 351.731 1492.68 362.138C1494.07 370.274 1497.13 378.914 1507.09 378.616C1518.42 378.341 1528.85 369.622 1532.8 363.476C1536.75 357.33 1546.42 343.91 1542.74 322.354Z" fill="#FFA67D"/>
<path d="M1498.82 318.948C1504.35 309.985 1514.47 306.423 1523.28 305.735C1536.41 304.755 1547.87 318.389 1550.62 323.389C1561.17 343.696 1560.77 372.608 1560.77 372.608C1560.77 372.608 1550.64 376.17 1545.92 375.138C1533.33 372.388 1529.04 361.83 1526.63 348.935C1514.43 341.873 1504.86 331.538 1498.82 318.948Z" fill="#373249"/>
<path d="M1532.41 343.874C1535.48 348.669 1533.95 355.068 1529.15 358.144C1524.36 361.22 1517.96 359.686 1514.88 354.891C1511.81 350.096 1513.34 343.696 1518.14 340.62C1523.03 337.704 1529.33 339.079 1532.41 343.874Z" fill="#FFA67D"/>
<path d="M1493.68 335.555C1493.68 335.555 1487.07 343.182 1486.66 345.018C1486 346.798 1487.67 347.986 1492 350.169C1496.33 352.352 1493.68 335.555 1493.68 335.555Z" fill="#FFA67D"/>
<path d="M1525.69 369.619C1525.99 373.259 1525.25 376.67 1523.55 380.011L1519.11 375.193C1521.14 373.437 1522.97 371.362 1524.53 369.23C1524.75 368.865 1525.64 369.197 1525.69 369.619Z" fill="#373249"/>
<path d="M1527.06 351.365C1528.39 347.807 1525.81 344.495 1522.07 344.64C1521.12 344.571 1521.04 343.042 1521.99 343.111C1526.84 342.933 1529.97 347.466 1528.42 352.074C1528.09 352.963 1526.73 352.255 1527.06 351.365Z" fill="#373249"/>
<path d="M1492.72 333.01C1493.2 335.863 1496.18 334.177 1499.32 335.549C1502.35 336.761 1504.4 336.797 1504.64 335.063C1504.94 333.067 1502.35 330.44 1497.94 329.889C1493.95 329.292 1492.5 330.899 1492.72 333.01Z" fill="#373249"/>
<path d="M1497.11 338.091C1499.48 337.922 1499.42 341.345 1499.14 342.657C1498.97 343.444 1498.58 344.596 1497.47 344.629C1495.94 344.707 1495.55 342.699 1495.52 341.592C1495.55 340.223 1495.58 338.169 1497.11 338.091Z" fill="#373249"/>
<path d="M1500.92 355.277C1498.94 356.77 1496.66 357.783 1494.02 357.895C1492.92 357.928 1493.1 356.457 1493.94 356.366C1496.32 356.197 1498.28 355.389 1500.1 353.999C1500.79 353.326 1501.61 354.605 1500.92 355.277Z" fill="#373249"/>
<path d="M1530.63 355.168C1536 355.105 1541.27 354.882 1546.49 354.921C1547.43 354.99 1547.51 356.519 1546.57 356.45C1541.19 356.513 1535.92 356.736 1530.71 356.697C1529.6 356.73 1529.52 355.202 1530.63 355.168Z" fill="#FFBE63"/>
<path d="M1531.36 355.603C1534.07 360.18 1536.94 364.656 1539.65 369.233C1540.16 370.032 1538.89 370.853 1538.37 370.054C1535.66 365.476 1532.79 361.001 1530.08 356.423C1529.46 355.464 1530.74 354.644 1531.36 355.603Z" fill="#FFBE63"/>
<path d="M1547.21 356.039C1544.7 360.578 1542.14 365.379 1539.64 369.918C1539.05 370.75 1537.79 370.201 1538.28 369.209C1540.79 364.671 1543.35 359.87 1545.85 355.331C1546.18 354.441 1547.54 355.15 1547.21 356.039Z" fill="#FFBE63"/>
<path d="M1530.63 355.168C1536 355.105 1541.27 354.882 1546.49 354.921C1547.43 354.99 1547.51 356.519 1546.57 356.45C1541.19 356.513 1535.92 356.736 1530.71 356.697C1529.6 356.73 1529.52 355.202 1530.63 355.168Z" fill="#FFBE63"/>
<path d="M1531.36 355.603C1534.07 360.18 1536.94 364.656 1539.65 369.233C1540.16 370.032 1538.89 370.853 1538.37 370.054C1535.66 365.476 1532.79 361.001 1530.08 356.423C1529.46 355.464 1530.74 354.644 1531.36 355.603Z" fill="#FFBE63"/>
<path d="M1547.21 356.039C1544.7 360.578 1542.14 365.379 1539.64 369.918C1539.05 370.75 1537.79 370.201 1538.28 369.209C1540.79 364.671 1543.35 359.87 1545.85 355.331C1546.18 354.441 1547.54 355.15 1547.21 356.039Z" fill="#FFBE63"/>
<path d="M1494.57 617.225C1496.36 605.247 1508.84 599.725 1520.17 601.926C1537.29 605.388 1546.34 620.559 1559.28 630.532C1571.29 639.751 1585.43 638.577 1599.67 637.564C1625.19 635.853 1651.61 646.432 1670.33 663.301C1674.48 666.956 1678.45 671.398 1680.05 676.694C1682.43 684.637 1678.9 693.899 1671.66 698.091C1665.38 701.667 1657.33 701.42 1650.47 698.824C1637.03 693.688 1626.68 683.182 1614.97 675.127C1605.29 668.478 1592.48 668.569 1582.09 663.276C1560.38 651.938 1535.31 651.549 1512.05 647.295C1500.19 644.979 1492.65 630.413 1494.57 617.225Z" fill="#587EE0"/>
<path d="M1837.47 830.643C1837.5 822.953 1843.65 817.425 1850.73 816.496C1860.66 815.09 1869.46 820.723 1877.49 825.5C1883.33 828.974 1889.23 831.501 1895.95 832.831C1904.77 834.619 1964.48 841.886 1952.2 860.369C1947.27 867.815 1937.14 868.901 1927.33 866.621C1914.37 863.654 1904.5 856 1891.6 852.771C1878.96 849.599 1868.37 849.623 1855.89 846.348C1848.81 844.801 1837.52 839.862 1837.47 830.643Z" fill="#587EE0"/>
<path d="M1840.24 493.833C1852.9 483.678 1870 484.664 1884.39 489.869C1893.35 492.924 1901.86 497.393 1910.65 500.55C1921.22 504.371 1931.95 505.613 1943.07 505.019C1985.2 502.81 2021.06 509.13 2040.87 551.25C2044.52 559.058 2046.71 569.157 2040.81 575.427C2036.3 580.352 2028.92 580.802 2022.39 580.476C1979.64 579.25 1937.28 549.796 1891.45 555.732C1872.92 558.145 1853.2 544.629 1840.06 530.492C1830.03 519.78 1827.89 503.782 1840.24 493.833Z" fill="#587EE0"/>
<path d="M1705.5 472.656C1710.68 465.268 1720.61 463.862 1728.86 465.114C1740.05 466.733 1748.1 473.301 1757.92 478.056C1772.33 485.052 1793.6 482.688 1806.12 492.706C1811.53 496.909 1813.39 504.738 1807.77 509.696C1800.44 516.204 1788.88 511.892 1780.74 510.116L1741.81 501.477C1735.77 500.159 1729.58 498.944 1723.44 497.466C1718.46 496.378 1713.11 495.072 1708.84 491.942C1702.45 487.246 1700.9 479.213 1705.5 472.656Z" fill="#FFBE63"/>
<path d="M1650.94 663.329C1651.17 659.119 1654.53 656.966 1658.52 657.563C1662.15 657.943 1665.81 659.429 1669.64 660.129C1674.26 661 1678.84 661.449 1682.97 663.313C1688.09 665.668 1694.82 669.474 1696.88 675.147C1698.08 678.434 1697.49 682.426 1694.29 684.477C1689.55 687.291 1682.33 684.477 1677.56 683.024C1671.02 680.907 1664.64 678.003 1658.76 674.107C1655.33 671.571 1650.7 668.223 1650.94 663.329Z" fill="#FFBE63"/>
<path d="M1804.05 847.121C1804.54 827.85 1842.83 846.381 1846.71 856.3C1850.94 867.12 1831.12 865.401 1825.97 864.415C1816.94 862.992 1803.74 858.599 1804.05 847.121Z" fill="#FFBE63"/>
<path fill-rule="evenodd" clip-rule="evenodd" d="M74.2564 1107.97C-12.8482 1107.92 -118.641 1157.21 -180.527 1098.99C-242.802 1040.41 -180.467 938.773 -192.885 856.682C-204.339 780.963 -280.759 709.947 -250.056 639.36C-219.368 568.808 -115.998 564.998 -48.1098 523.839C27.0487 478.271 79.7442 374.305 168.454 385.623C257.279 396.955 282.039 508.947 340.441 573.409C390.253 628.391 463.28 665.873 485.147 735.18C508.145 808.071 497.778 888.76 461.238 956.272C425.437 1022.42 360.701 1070.81 288.088 1099.28C220.624 1125.72 147.403 1108.02 74.2564 1107.97Z" fill="#262234"/>
<path opacity="0.4" d="M125.775 1087.07C104.637 1087.06 82.3755 1090.04 59.9547 1093.63C54.0549 1094.57 48.1448 1095.56 42.2409 1096.54C25.6973 1099.31 9.20266 1102.06 -6.88159 1103.86C-50.5357 1108.74 -90.9837 1106.55 -120.821 1078.48C-150.826 1050.25 -150.848 1011.64 -144.795 969.981C-143.327 959.879 -141.504 949.607 -139.669 939.269L-139.502 938.329C-137.611 927.675 -135.718 916.955 -134.203 906.291C-131.173 884.967 -129.647 863.846 -132.664 843.895C-135.447 825.494 -142.174 807.392 -150.218 789.538C-154.241 780.61 -158.595 771.739 -162.953 762.921C-163.346 762.125 -163.74 761.329 -164.133 760.533C-168.096 752.518 -172.038 744.547 -175.715 736.609C-191.894 701.685 -202.886 667.534 -188.091 633.516C-173.297 599.501 -140.973 581.538 -104.003 567.086C-92.9579 562.768 -81.5238 558.773 -70.0283 554.756C-62.2789 552.049 -54.5016 549.331 -46.7966 546.499C-27.6825 539.471 -9.05598 531.75 7.42667 521.755C25.6745 510.69 42.5485 496.087 58.927 480.596C65.3644 474.507 71.7204 468.286 78.0536 462.088C87.8501 452.5 97.5921 442.965 107.496 434.056C140.094 404.732 174.223 382.403 217.003 387.861C259.844 393.326 287.268 423.064 311.085 459.358C319.029 471.464 326.559 484.279 334.124 497.154C337.901 503.581 341.687 510.024 345.538 516.401C357.093 535.538 369.22 554.064 383.397 569.713C399.378 587.356 417.841 603.157 436.133 618.811C445.481 626.811 454.784 634.773 463.689 642.923C490.047 667.047 512.966 692.858 523.526 726.333C545.772 796.854 535.745 874.933 500.387 940.269C465.756 1004.26 403.119 1051.1 332.823 1078.66C300.216 1091.45 266.203 1093.57 231.456 1092.48C216.689 1092.02 201.799 1090.97 186.829 1089.93C184.185 1089.74 181.538 1089.56 178.89 1089.37C161.248 1088.16 143.511 1087.08 125.775 1087.07Z" stroke="white" stroke-width="0.857863"/>
<path d="M129.755 922.64C134.377 914.461 142.522 908.111 149.895 902.667C161.436 893.934 175.629 886.678 186.65 876.721C197.286 867.216 204.231 853.787 213.264 842.722C226.139 826.918 248.794 796.192 271.56 795.847C284.838 795.628 293.344 806.977 288.446 819.61C285.469 827.234 278.901 832.192 272.25 836.101C264.197 840.967 256.094 845.203 248.545 851.084C232.851 863.314 221.218 878.808 212.075 896.423C203.847 912.277 196.769 929.305 183.399 941.561C172.587 951.502 156.91 958.666 142.322 953.08C129.899 948.165 122.743 935.231 129.755 922.64Z" fill="#F576A6"/>
<path d="M149.008 986.523C153.856 978.537 167.906 961.584 178.618 971.49C191.159 983.149 161.709 1008.09 151.702 1012.27C147.206 1014.1 142.618 1012.15 142.005 1007.13C141.468 1000.42 145.846 991.841 149.008 986.523Z" fill="#FFBE63"/>
<path d="M-144.103 1084.48C-144.103 1084.48 -104.16 1061.45 -96.9292 1056.86C5.48726 991.68 -9.15126 964.36 19.5084 903.184C38.2457 863.063 48.9393 819.998 66.1416 779.155C73.6063 761.674 58.9911 710.926 70.2222 695.676C93.7262 704.558 149.283 731.557 174.95 730.557C170.572 739.139 161.312 755.286 156.934 763.868C154.587 808.375 138.403 927.857 128.649 961.561C119.709 992.245 106.265 1027.3 81.3193 1047.87C50.821 1072.89 16.6068 1096.31 -13.6737 1113.51C-50.1864 1134.58 -86.7165 1155.45 -123.229 1176.52C-128.934 1163.26 -134.218 1149.96 -137.667 1135.89C-141.769 1118.91 -142.936 1101.7 -144.103 1084.48Z" fill="#587EE0"/>
<path d="M19.7014 902.958C21.3201 899.451 22.9225 895.735 24.5413 892.229C30.1191 885.451 35.9402 879.076 41.971 872.684C50.5433 863.767 59.6355 856.074 69.3906 848.751C60.1483 880.937 55.0076 914.272 43.1649 945.61C28.7138 983.911 3.12336 1020.15 -38.4227 1031.07C-47.1127 1033.25 -55.8701 1034.58 -64.7112 1034.86C2.80284 984.508 -5.7543 956.702 19.7014 902.958Z" fill="#2B244A"/>
<path d="M-308.356 975.647C-304.314 962.872 -299.449 949.819 -294.115 937.363C-293.393 935.828 -292.688 934.083 -291.967 932.548C-260.965 924.368 -229.653 917.43 -198.239 911.75C-180.968 908.679 -163.471 905.801 -146.149 903.359C-130.698 901.278 -114.828 899.164 -100.065 893.761C-70.9584 882.989 -56.3222 857.547 -47.1803 829.38C-38.1978 801.858 -32.2349 773.522 -18.6975 747.535C-4.61502 720.449 16.6731 696.374 44.7896 683.782C45.9556 685.166 47.1384 686.76 48.3044 688.144C56.0471 697.866 63.7892 707.587 72.1274 716.839C85.7756 731.786 109.389 734.117 123.423 748.611C83.1286 809.452 64.4441 897.688 17.9762 955.224C7.03027 968.763 -5.92092 980.985 -20.8179 989.986C-37.3253 999.961 -55.8625 1005.67 -74.828 1008.66C-96.1002 1011.84 -117.624 1011.88 -138.938 1011.89C-161.93 1012.05 -184.696 1012.39 -207.621 1013.38C-245.066 1014.9 -282.2 1017.66 -319.444 1021.7C-316.911 1005.88 -313.263 990.813 -308.356 975.647Z" fill="#587EE0"/>
<path d="M535.174 624.692C533.488 622.083 531.785 619.265 530.309 616.639C521.241 600.904 515.285 584.497 509.924 567.62C522.414 562.821 534.384 556.798 543.577 550.364C547.779 547.495 548.198 547.461 553.029 544.542C574.142 531.456 597.981 523.427 622.693 521.027C626.258 520.742 647.706 517.125 644.057 526.915C642.665 530.614 637.682 531.646 634.377 532.543C630.46 533.701 626.753 534.842 622.819 535.79C628.137 538.952 633.665 542.098 638.966 545.05C642.07 546.912 649.502 550.116 646.516 554.998C643.74 559.863 634.874 557.196 630.612 556.693C628.272 556.458 625.915 556.014 623.767 555.553C625.16 557.13 625.923 558.757 625.269 561.131C624.917 562.003 624.548 562.666 623.97 563.345C624.733 564.972 625.269 566.407 626.033 568.034C627.35 571.305 629.657 576.397 625.614 578.62C621.571 580.843 618.089 576.901 615.774 574.342C613.442 571.574 611.32 568.79 609.391 565.778C606.212 565.611 602.999 565.024 599.787 564.437C582.692 577.624 569.766 592.798 554.534 608.158C548.21 613.518 541.918 619.298 535.174 624.692Z" fill="#E0785E"/>
<path d="M164.348 735.205C161.185 735.247 158.023 735.289 155.07 735.314C144.292 735.122 133.111 735.173 122.617 733.269C113.189 731.491 103.6 730.359 94.1216 727.952C83.5608 725.21 73.529 721.159 63.3205 717.544C54.6134 714.231 45.8722 710.498 38.4652 704.971C30.3787 698.865 25.5301 691.022 21.8388 681.82C23.7427 676.603 27.6015 672.073 32.9027 669.749C33.0699 656.018 40.7103 643.377 50.4737 633.52C64.3219 619.327 80.4694 607.482 95.7101 594.866C111.739 581.553 127.718 567.611 144.2 554.684C151.154 549.273 158.351 544.265 166.277 540.465C159.239 528.999 156.126 519.118 165.32 517.96C188.32 515.275 220.673 521.338 259.133 535.143C277.386 541.702 296.655 547.757 296.655 547.757C317.29 552.437 337.924 557.117 358.543 561.587C379.178 566.266 400.073 571.558 421.027 574.946C440.706 578.225 460.426 579.39 480.163 575.489C498.03 571.948 526.826 559.935 543.577 550.363C552.175 565.504 560.774 580.644 569.582 595.767C565.288 600.121 560.75 604.072 555.759 607.637C540.149 626.192 522.308 643.238 501.808 656.064C480.922 669.344 456.689 675.082 432.548 668.784C426.944 667.333 421.534 665.656 415.822 665.48C410.319 665.287 404.917 666.353 399.515 667.418C387.26 669.876 374.728 671.513 362.079 671.681C337.846 672.143 313.243 667.992 290.402 659.479C282.357 656.535 272.115 652.501 263.014 646.898C243.822 665.529 222.483 667.87 203.292 686.501C200.114 696.886 197.573 709.963 194.31 719.299C189.605 731.706 176.544 734.651 164.348 735.205Z" fill="#F5E3D9"/>
<path d="M259.713 550.292C249.372 571.381 233.418 588.275 214.453 601.823C196.696 614.641 176.783 624.254 157.809 635.059C156.794 635.562 155.838 634.162 156.853 633.658C175.022 623.34 193.709 614.247 210.905 602.318C230.692 588.493 247.467 571.322 258.178 549.571C258.723 548.472 260.258 549.194 259.713 550.292Z" fill="#2B244A"/>
<path d="M134.51 718.388C118.548 721.987 102.065 724.362 85.658 725.042C78.2931 722.677 70.8942 719.892 63.4958 717.108C54.7887 713.795 46.0485 710.062 38.6415 704.535C30.5551 698.429 25.7064 690.586 22.0152 681.384C22.3674 680.512 22.7033 679.43 23.2653 678.541C31.6366 677.66 40.1083 678.037 48.1106 677.818C69.1816 677.398 90.2694 677.187 111.34 676.767C130.105 676.531 150.571 673.838 169.109 678.685C179.234 681.252 189.016 687.433 194.561 696.064C192.992 700.2 191.406 704.126 189.595 707.858C166.469 716.885 145.087 716.064 134.51 718.388Z" fill="#373249"/>
<path d="M35.2229 590.633C55.6221 571.272 78.0084 553.018 102.023 539.277C129.871 523.33 162.576 512.693 194.804 519.821C192.85 540.238 186.586 559.523 176.621 577.415C155.425 594.729 131.671 614.358 110.282 631.899C111.557 632.008 55.0033 616.274 35.2229 590.633Z" fill="#F5E3D9"/>
<path d="M128.4 636.78C128.174 636.587 127.963 636.604 127.737 636.411C121.84 633.928 115.256 633.4 109.023 632C115.255 622.848 122.149 614.065 129.497 605.668C135.109 599.31 140.963 593.354 147.254 587.574C149.603 585.276 153.285 581.182 155.567 583.321C159.887 587.196 154.846 595.408 152.615 599.175C149.084 605.156 144.714 611.204 143.38 618.275C142.064 625.556 148.07 626.764 153.321 629.087C158.556 631.2 163.579 633.331 168.814 635.444C177.101 638.791 185.616 642.33 193.182 647.212C198.517 650.584 203.484 654.618 207.485 659.785C208.425 660.976 206.637 662.386 205.698 661.194C205.245 660.809 204.985 660.196 204.532 659.81C204.792 660.423 204.457 661.505 203.392 661.379C182.765 659.442 162.709 654.083 144.062 645.234C140.102 643.23 135.933 641.242 131.747 639.045C130.825 638.063 129.709 637.308 128.4 636.78Z" fill="#373249"/>
<path d="M152.645 691.822C159.866 679.214 168.446 667.764 177.899 656.666C180.214 653.948 182.337 651.457 184.652 648.739C201.252 653.108 218.516 657.847 237.07 662.904C246.13 665.345 257.504 670.343 266.051 674.302C269.994 676.097 274.129 677.666 277.879 679.687C279.431 680.618 280.966 681.339 281.73 682.967C283.307 686.85 279.591 690.524 276.32 691.841C274.273 692.638 272.403 692.999 270.272 692.748C274.659 697.462 279.482 702.352 282.645 707.586C284.574 710.597 285.799 715.353 282.662 718.348C281.681 719.27 280.666 719.774 279.618 719.858C280.347 721.066 281.094 722.483 281.614 723.708C286.421 733.664 277.361 736.5 269.426 732.281C269.443 732.491 269.46 732.7 269.669 732.684C270.55 735.779 269.678 740.703 266.13 741.198C259.889 742.331 250.746 733.565 242.491 725.362C238.347 721.051 233.072 715.775 228.215 710.465C200.055 709.343 173.247 706.634 146.388 703.297C148.426 699.757 150.43 695.798 152.645 691.822Z" fill="#E0785E"/>
<path d="M304.435 647.593C313.553 653.406 322.88 659.202 331.629 665.677C333.86 667.187 335.9 668.923 338.148 670.642C321.766 668.999 305.634 665.225 290.192 659.497C281.501 656.393 271.746 653.164 262.804 646.916C269.388 642.168 275.428 638.518 283.934 639.315C290.955 640.019 297.321 643.097 303.319 646.838C303.772 647.224 304.208 647.4 304.435 647.593Z" fill="#373249"/>
<path d="M17.6421 608.29C18.0448 608.047 18.2209 607.611 18.6235 607.367C24.0924 601.864 29.5444 596.152 35.2397 590.842C59.0463 614.051 89.8145 624.04 113.511 632.695C143.524 638.524 176.238 646.458 205.37 654.467C193.636 673.978 183.991 690.579 172.257 710.09C163.961 709.277 146.824 708.749 136.431 708.104C122.935 710.873 100.932 712.845 88.635 712.141C68.9312 711.185 49.6217 701.968 34.4637 689.252C25.1777 681.342 12.3773 679.623 5.43987 669.415C-8.93838 647.984 2.04088 624.312 17.6421 608.29Z" fill="#F5E3D9"/>
<path d="M181.665 648.345C167.674 668.67 154.347 689.364 141.665 710.218C141.103 711.107 139.567 710.386 140.129 709.496C153.004 688.416 166.315 667.513 180.306 647.187C181.077 646.281 182.227 647.456 181.665 648.345Z" fill="#2B244A"/>
<path d="M550.399 611.865C541.037 595.098 533.268 577.147 524.921 559.877C524.418 558.862 526.063 558.308 526.566 559.323C534.913 576.594 542.455 594.351 551.8 610.909C552.303 611.924 551.112 612.863 550.399 611.865Z" fill="#2B244A"/>
<path d="M271.273 568.15C267.204 562.144 263.135 556.139 259.067 550.133C258.354 549.135 259.755 548.178 260.468 549.177C264.537 555.182 268.605 561.188 272.674 567.194C273.16 567.999 271.759 568.955 271.273 568.15Z" fill="#2B244A"/>
<path d="M259.436 549.47C254.445 553.036 249.437 556.391 244.237 559.973C243.448 560.669 242.282 559.285 243.281 558.572C248.271 555.007 253.279 551.651 258.48 548.07C259.285 547.583 260.241 548.984 259.436 549.47Z" fill="#2B244A"/>
<path d="M242.911 559.235C242.173 550.008 241.242 541.007 240.504 531.78C240.42 530.732 242.097 530.598 242.181 531.646C242.919 540.873 243.851 549.874 244.59 559.101C244.69 560.359 243.012 560.493 242.911 559.235Z" fill="#2B244A"/>
<path d="M274.082 542.6C273.915 551.055 273.328 559.544 272.724 567.823C272.598 568.888 270.887 568.603 271.012 567.538C271.616 559.259 272.22 550.98 272.404 542.734C272.513 541.459 274.191 541.325 274.082 542.6Z" fill="#2B244A"/>
<path d="M288.34 520.354L271.625 551.449C271.625 551.449 250.386 555.049 240.26 531.378L256.296 499.704L288.34 520.354Z" fill="#E0785E"/>
<path d="M235.334 488.296C235.04 481.989 240.567 469.305 254.953 467.099C267.887 465.219 282.969 469.077 290.796 485.123C298.606 500.96 298.464 507.092 299.404 518.835C299.916 527.869 298.868 538.505 287.871 540.863C275.406 543.338 265.567 533.784 259.628 528.139C253.672 522.284 236.845 512.446 235.334 488.296Z" fill="#E0785E"/>
<path d="M295.444 495.726C295.444 495.726 303.07 503.979 303.85 505.816C304.63 507.653 303.052 509.046 298.204 511.756C293.356 514.465 295.444 495.726 295.444 495.726Z" fill="#E0785E"/>
<path d="M287.442 485.392C291.376 484.444 293.187 485.987 293.162 488.311C292.994 491.49 290.117 489.821 287.089 491.541C284.254 493.034 282.157 493.202 281.813 491.541C281.016 489.494 283.088 486.374 287.442 485.392Z" fill="#373249"/>
<path d="M290.335 492.547C287.836 492.958 288.751 496.473 289.497 497.89C289.984 498.695 290.713 499.903 291.954 499.593C293.615 499.249 293.431 496.942 293.121 495.701C292.601 494.476 291.996 492.203 290.335 492.547Z" fill="#373249"/>
<path d="M623.474 565.073C619.641 567.279 613.895 566.684 609.667 566.6C608.619 566.684 608.485 565.007 609.533 564.923C611.647 564.965 613.761 565.006 615.858 564.839C617.955 564.671 620.715 564.872 622.518 563.672C623.533 563.169 624.489 564.57 623.474 565.073Z" fill="#2B244A"/>
<path d="M621.427 555.318C613.819 552.55 606.035 550.218 597.881 548.55C596.799 548.214 597.102 546.713 598.167 546.838C606.337 548.717 614.331 551.032 621.939 553.799C623.231 554.118 622.509 555.653 621.427 555.318Z" fill="#2B244A"/>
<path d="M622.256 536.679C617.886 537.451 613.743 538.416 609.406 539.607C607.536 539.968 605.682 540.538 603.828 541.109C602.394 541.646 594.962 543.718 599.894 547.333C600.783 547.895 599.625 549.254 598.736 548.692C595.599 546.411 596.589 542.955 599.6 541.025C602.612 539.096 607.208 538.517 610.513 537.619C614.237 536.688 617.978 535.966 621.929 535.228C623.154 534.708 623.288 536.385 622.256 536.679Z" fill="#2B244A"/>
<path d="M268.881 733.38C262.464 724.397 256.063 715.623 249.436 706.656C248.739 705.868 250.141 704.911 250.837 705.7C257.254 714.683 263.655 723.457 270.282 732.424C270.978 733.212 269.577 734.169 268.881 733.38Z" fill="#2B244A"/>
<path d="M279.475 720.714C271.992 711.604 264.719 702.478 257.253 693.579C256.557 692.79 257.958 691.834 258.654 692.622C266.137 701.732 273.41 710.858 280.876 719.757C281.572 720.546 280.171 721.502 279.475 720.714Z" fill="#2B244A"/>
<path d="M270.406 694.425C267.168 690.886 263.93 687.346 260.692 683.806C259.996 683.018 261.397 682.062 262.093 682.85C265.331 686.39 268.568 689.929 271.806 693.469C272.503 694.258 271.102 695.214 270.406 694.425Z" fill="#2B244A"/>
<path d="M256.322 497.38C256.481 496.734 258.109 495.971 258.755 496.13C272.386 500.315 268.746 523.399 282.1 526.762C287.057 528.054 289.356 525.126 293.676 523.725C295.53 523.155 297.207 523.021 298.792 524.371C301.93 526.652 302.332 531.685 301.359 535.351C298.298 547.204 284.634 547.875 276.531 541.559C265.953 533.331 263.503 518.543 258.512 506.28C258.109 506.523 257.673 506.347 257.413 505.734C256.306 502.446 255.928 500.366 256.322 497.38Z" fill="#373249"/>
<path d="M223.145 475.765C224.815 472.888 227.683 471.814 230.828 471.562C228.177 464.81 231.046 458.46 239.577 456.933C243.947 456.161 250.515 456.48 255.942 458.367C261.243 456.043 268.281 456.957 273.499 458.861C279.153 460.941 286.878 465.176 287.608 471.66C291.617 474.294 294.855 477.834 290.653 480.703C287.239 482.875 281.041 481.894 277.232 481.777C272.132 481.341 267.225 480.679 262.108 480.033C264.138 484.302 265.959 488.589 267.167 493.135C267.754 495.198 267.687 499.636 264.701 499.242C264.298 499.485 264.072 499.292 263.636 499.116C261.841 497.782 261.07 509.24 260.265 515.003C260.944 515.582 258.31 524.868 248.756 524.155C246.206 523.937 243.505 521.832 242.289 519.819C240.846 517.613 241.098 515.482 242.205 513.494C237.055 512.429 232.223 510.072 229.723 505.207C227.987 501.969 228.297 497.935 230.176 495.041C224.883 489.555 219.614 481.746 223.145 475.765Z" fill="#373249"/>
<path d="M259.409 504.309L256.423 493.362C250.425 494.897 246.91 501.088 248.446 507.086C249.981 513.083 256.205 517.017 262.203 515.481L259.409 504.309Z" fill="#E0785E"/>
<path d="M298.834 511.705C299.002 513.802 299.186 516.109 299.388 518.625C293.768 516.965 290.706 512.989 289.003 510.17C292.022 510.984 295.881 511.73 298.834 511.705Z" fill="white"/>
<path d="M255.559 501.029C254.158 501.985 253.889 503.906 254.443 505.55C254.98 506.984 256.096 507.739 257.388 508.058C258.47 508.393 257.749 509.929 256.667 509.593C254.503 508.922 253.11 507.345 252.522 505.282C252.145 503.202 252.59 500.844 254.393 499.645C255.408 499.142 256.347 500.333 255.559 501.029Z" fill="#2B244A"/>
<path d="M156.782 761.98C131.081 762.56 105.128 759.995 81.314 749.871C57.0466 739.362 36.6624 721.999 18.2916 703.42C17.5953 702.632 18.5433 701.29 19.4493 702.061C37.5769 720.238 57.298 737.231 80.9195 747.581C104.767 758.124 130.947 760.883 156.841 760.076C157.906 760.202 158.041 761.88 156.782 761.98Z" fill="#2B244A"/>
<path d="M54.8993 733.624C43.6018 763.864 32.2875 793.894 20.99 824.134C10.7157 851.337 1.36391 879.522 -15.0506 903.84C-30.9032 927.269 -53.0722 942.972 -79.57 952.058C-108.744 961.991 -139.973 964.702 -170.522 967.991C-208.621 971.885 -246.644 974.084 -284.836 974.187C-285.884 974.27 -286.019 972.593 -284.97 972.509C-252.055 972.407 -219.257 970.837 -186.368 967.782C-155.155 964.862 -123.071 962.293 -92.4881 954.147C-63.759 946.571 -38.2932 932.503 -20.1674 908.47C-2.79655 885.553 6.81505 857.981 16.9132 831.214C29.2675 798.357 41.4125 765.517 53.7668 732.66C53.9262 732.014 55.4612 732.735 54.8993 733.624Z" fill="#2B244A"/>
<path d="M124.991 760.304C117.871 779.446 111.128 805.945 89.806 813.772C88.7742 814.065 88.2369 812.631 89.2519 812.128C110.172 804.544 116.722 778.272 123.667 759.566C124.002 758.484 125.536 759.205 124.991 760.304Z" fill="#2B244A"/>
<path d="M110.883 758.056C92.9598 805.71 74.8267 853.381 56.8866 900.825C56.5511 901.907 55.0156 901.186 55.3511 900.104C73.2745 852.45 91.4076 804.779 109.348 757.335C109.7 756.463 111.235 757.184 110.883 758.056Z" fill="#2B244A"/>
<path d="M0.439922 664.961C8.53418 657.982 20.228 661.689 20.7151 673.047C21.3278 683.339 0.803166 709.041 -9.9593 698.506C-19.1028 689.741 -6.44648 671.211 0.439922 664.961Z" fill="#FFBE63"/>
<path d="M326.746 812.956C334.161 805.398 336.434 794.242 344.109 787.296C349.997 781.759 358.98 780.618 364.181 787.589C371.018 796.538 365.65 808.576 359.51 816.243C355.299 821.645 349.419 824.648 344.739 829.455C332.048 842.289 323.082 859.468 304.511 864.754C297.079 866.826 291.627 861.986 291.249 854.63C290.544 835.27 315.213 824.431 326.746 812.956Z" fill="#FFBE63"/>
</svg>
