<svg width="334" height="334" viewBox="0 0 334 334" fill="none" xmlns="http://www.w3.org/2000/svg">
<path d="M334 158C334 244.433 272.933 307 186.5 307C100.067 307 21 244.433 21 158C21 71.5674 75.0674 0 161.5 0C247.933 0 334 71.5674 334 158Z" fill="#EB5D19"/>
<path opacity="0.4" d="M321.5 163C321.5 207.504 308.325 250.017 284.052 281.392C259.787 312.757 224.428 333 180 333C135.533 333 90.6467 314.973 56.879 285.819C23.1124 256.666 0.5 216.421 0.5 172C0.5 83.0482 64.6149 11 153.5 11C242.485 11 321.5 74.1448 321.5 163Z" stroke="white"/>
</svg>
