<svg width="1920" height="595" viewBox="0 0 1920 595" fill="none" xmlns="http://www.w3.org/2000/svg">
<path d="M1775.81 581.298C1813.16 602.542 1862.74 597.392 1900.08 577.435C1959.32 545.247 1994.73 482.801 2037.87 433.874C2081.01 384.947 2137.02 350.184 2192.4 316.707C2238.11 289.025 2315.38 260.056 2317.95 196.322C2319.88 145.464 2262.58 144.177 2227.81 156.408C2200.12 166.065 2175.01 181.515 2149.9 195.678C2117.07 213.704 2084.23 231.086 2051.39 249.111C1987 283.875 1923.26 317.995 1858.87 352.759C1811.87 378.51 1761 409.411 1741.04 461.556C1724.3 504.045 1732.67 556.834 1775.81 581.298Z" fill="#FFBE63"/>
<path d="M-427.188 431.298C-389.844 452.542 -340.265 447.392 -302.92 427.435C-243.684 395.247 -208.272 332.801 -165.132 283.874C-121.993 234.947 -65.9758 200.184 -10.6028 166.707C35.1122 139.025 112.377 110.056 114.952 46.3222C116.884 -4.53574 59.5793 -5.82333 24.8102 6.40833C-2.87631 16.0649 -27.9864 31.5154 -53.0974 45.6784C-85.935 63.704 -118.773 81.0858 -151.61 99.1114C-215.998 133.875 -279.742 167.995 -344.129 202.759C-391.132 228.51 -441.997 259.411 -461.957 311.556C-478.697 354.045 -470.328 406.834 -427.188 431.298Z" fill="#F576A6"/>
</svg>
