<svg width="256" height="256" viewBox="0 0 256 256" fill="none" xmlns="http://www.w3.org/2000/svg">
<circle cx="128" cy="128" r="7" fill="#F576A6"/>
<path fill-rule="evenodd" clip-rule="evenodd" d="M128.765 11.901L123.997 0H121.512V14.5858H123.436V8.90574L123.245 2.80496L128.024 14.5858H129.497L134.285 2.77491L134.105 8.90574V14.5858H136.028V0H133.534L128.765 11.901ZM151.809 8.34667L148.262 7.5927L149.499 1.77221L147.618 1.37231L144.585 15.6394L150.043 16.7995C151.506 17.083 152.739 16.9322 153.745 16.347C154.75 15.7618 155.389 14.8257 155.663 13.5388C155.935 12.2585 155.732 11.157 155.054 10.2346C154.376 9.31216 153.295 8.68285 151.809 8.34667ZM146.794 14.5008L147.933 9.14091L151.451 9.88863C152.369 10.0975 153.027 10.4866 153.425 11.0559C153.83 11.6266 153.946 12.3138 153.776 13.1173C153.598 13.9534 153.195 14.5642 152.567 14.9496C151.945 15.3364 151.167 15.4305 150.233 15.2319L146.794 14.5008ZM156.481 18.1679L158.363 18.5678L161.395 4.30073L159.514 3.90083L156.481 18.1679ZM196.3 30.4755L192.943 35.095L191.387 33.9645L199.961 22.1643L204.313 25.3263C205.604 26.2645 206.375 27.3282 206.626 28.5173C206.881 29.7103 206.615 30.8498 205.826 31.9358C204.994 33.0813 203.992 33.7036 202.822 33.8029C201.662 33.9007 200.414 33.4647 199.08 32.4951L196.3 30.4755ZM197.224 29.2031L200.02 31.2345C200.852 31.839 201.631 32.1077 202.357 32.0406C203.086 31.9681 203.72 31.5617 204.258 30.8215C204.768 30.1191 204.955 29.3963 204.818 28.6529C204.681 27.9096 204.232 27.2492 203.472 26.6716L200.586 24.5754L197.224 29.2031ZM213.531 47.9402L217.62 52.4814L215.722 56.0634L217.043 57.53L224.149 43.6236L223.023 42.3729L208.456 47.9935L209.783 49.4675L213.531 47.9402ZM218.414 50.998L215.096 47.3129L221.821 44.5869L218.414 50.998ZM232.996 73.9673C231.57 74.5825 230.252 74.6841 229.042 74.2719C227.842 73.8623 226.844 72.9692 226.05 71.5926C225.188 70.1004 225.032 68.5943 225.581 67.0743C226.133 65.5601 227.306 64.2854 229.099 63.2502L230.314 62.549C231.488 61.8711 232.64 61.4833 233.771 61.3855C234.906 61.2934 235.932 61.4951 236.851 61.9905C237.775 62.4826 238.529 63.2347 239.113 64.2469C239.888 65.5887 240.133 66.8815 239.849 68.1254C239.57 69.3658 238.807 70.4349 237.559 71.3326L236.593 69.6583C237.516 68.9326 238.062 68.1967 238.233 67.4504C238.407 66.7099 238.244 65.9058 237.743 65.0383C237.128 63.9741 236.252 63.3654 235.115 63.2122C233.981 63.0649 232.689 63.4103 231.237 64.2484L230.014 64.9547C228.643 65.7461 227.718 66.6618 227.239 67.7019C226.76 68.742 226.817 69.7768 227.412 70.8063C227.946 71.7317 228.563 72.3199 229.263 72.5711C229.973 72.8248 230.895 72.732 232.029 72.2929L232.996 73.9673ZM238.001 96.4625C239.098 97.1171 240.408 97.2918 241.931 96.9865L241.334 95.1477C240.133 95.3414 239.212 95.2404 238.57 94.8448C237.938 94.4535 237.456 93.7497 237.126 92.7335C236.759 91.6029 236.917 90.5787 237.602 89.661C238.287 88.7433 239.382 88.0398 240.888 87.5507L242.231 87.1142C243.825 86.5962 245.162 86.5272 246.24 86.9071C247.321 87.2933 248.051 88.0708 248.43 89.2395C248.74 90.1922 248.733 91.0127 248.409 91.7008C248.087 92.3953 247.399 93.0015 246.345 93.5194L246.943 95.3582C248.35 94.7395 249.318 93.8525 249.849 92.697C250.386 91.5395 250.415 90.2239 249.936 88.7504C249.575 87.6388 248.993 86.7463 248.192 86.0729C247.396 85.3973 246.434 84.9866 245.305 84.8408C244.179 84.7013 242.971 84.841 241.681 85.26L240.347 85.6934C238.378 86.3331 236.966 87.3362 236.111 88.7024C235.258 90.0751 235.098 91.5808 235.63 93.2195C236.121 94.7312 236.911 95.8122 238.001 96.4625ZM247.169 115.172L246.983 113.409L240.468 114.093L240.267 112.181L254.773 110.656L254.974 112.569L248.577 113.241L248.735 114.735L255.664 119.134L255.914 121.515L248.298 116.715L241.451 123.449L241.205 121.107L247.169 115.172ZM244.701 138.018L244.062 144.095L240.131 145.082L239.924 147.045L255.013 143.02L255.189 141.346L241.266 134.282L241.058 136.255L244.701 138.018ZM245.696 143.693L246.214 138.761L252.74 141.935L245.696 143.693ZM241.014 168.352L241.497 166.866L235.171 164.81L235.765 162.981L242.091 165.037L242.602 163.465L237.551 157.484L238.294 155.197L244.094 162.243L252.048 160.066L251.346 162.229L244.126 163.96L243.616 165.532L249.637 167.488L249.043 169.318L243.021 167.361L242.532 168.866L247.355 174.51L246.656 176.663L241.51 170.23L232.666 172.518L233.406 170.241L241.014 168.352ZM233.064 186.11L229.903 191.585L231.265 192.371L234.426 186.897L238.486 189.241L234.864 195.513L236.235 196.305L240.818 188.366L228.187 181.074L223.553 189.099L224.915 189.885L228.587 183.526L233.064 186.11ZM225.67 210.654L213.635 206.234L219.289 217.741L217.62 219.595L206.78 209.835L208.067 208.406L212.288 212.206L216.724 216.443L211.151 204.981L212.136 203.887L224.088 208.219L219.427 204.278L215.206 200.477L216.493 199.048L227.332 208.808L225.67 210.654ZM177.763 235.836L173.297 237.824L173.912 239.206L178.378 237.218L177.763 235.836ZM132.186 255.219L127.418 243.318L122.649 255.219H120.155V240.633H122.078V246.313L121.898 252.444L126.686 240.633H128.159L132.937 252.414L132.747 246.313V240.633H134.67V255.219H132.186ZM104.105 247.62L107.652 248.374L106.415 254.195L108.296 254.595L111.329 240.328L105.871 239.167C104.408 238.884 103.175 239.035 102.169 239.62C101.164 240.205 100.525 241.141 100.251 242.428C99.9792 243.708 100.182 244.81 100.86 245.732C101.538 246.655 102.619 247.284 104.105 247.62ZM109.12 241.466L107.981 246.826L104.463 246.078C103.545 245.869 102.887 245.48 102.489 244.911C102.084 244.34 101.968 243.653 102.138 242.85C102.316 242.014 102.719 241.403 103.347 241.017C103.969 240.631 104.747 240.536 105.681 240.735L109.12 241.466ZM99.4328 237.799L97.5514 237.399L94.5189 251.666L96.4002 252.066L99.4328 237.799ZM59.6143 225.491L62.9706 220.872L64.5267 222.002L55.9534 233.803L51.6012 230.641C50.3099 229.702 49.539 228.639 49.2885 227.45C49.0326 226.257 49.2992 225.117 50.0882 224.031C50.9204 222.886 51.9216 222.263 53.0916 222.164C54.2523 222.066 55.4999 222.502 56.8344 223.472L59.6143 225.491ZM58.6898 226.764L55.8938 224.732C55.0617 224.128 54.2829 223.859 53.5572 223.926C52.8276 223.999 52.1939 224.405 51.6561 225.145C51.1457 225.848 50.959 226.571 51.0959 227.314C51.2327 228.057 51.6816 228.718 52.4424 229.295L55.3276 231.392L58.6898 226.764ZM42.3832 208.027L38.2943 203.485L40.1915 199.903L38.871 198.437L31.7653 212.343L32.8914 213.594L47.4577 207.973L46.1305 206.499L42.3832 208.027ZM37.5001 204.969L40.8182 208.654L34.0927 211.38L37.5001 204.969ZM22.918 182C24.3442 181.384 25.6621 181.283 26.8717 181.695C28.0721 182.105 29.0698 182.998 29.8645 184.374C30.726 185.866 30.8822 187.373 30.3332 188.893C29.7808 190.407 28.6081 191.682 26.8151 192.717L25.6005 193.418C24.4264 194.096 23.2738 194.484 22.1427 194.581C21.0083 194.674 19.9818 194.472 19.0635 193.976C18.1393 193.484 17.385 192.732 16.8007 191.72C16.026 190.378 15.7808 189.085 16.0652 187.842C16.3438 186.601 17.1069 185.532 18.3546 184.634L19.3213 186.309C18.3984 187.034 17.8517 187.77 17.681 188.517C17.5071 189.257 17.6705 190.061 18.1714 190.929C18.7858 191.993 19.6616 192.602 20.7988 192.755C21.9327 192.902 23.2255 192.557 24.6772 191.719L25.9005 191.012C27.2712 190.221 28.1962 189.305 28.6753 188.265C29.1544 187.225 29.0968 186.19 28.5024 185.161C27.9681 184.235 27.3509 183.647 26.6506 183.396C25.9412 183.142 25.0192 183.235 23.8847 183.674L22.918 182ZM17.9134 159.504C16.8159 158.85 15.5057 158.675 13.9828 158.98L14.5802 160.819C15.7813 160.626 16.7024 160.727 17.3436 161.122C17.9763 161.513 18.4578 162.217 18.788 163.233C19.1553 164.364 18.9965 165.388 18.3116 166.306C17.6267 167.224 16.5316 167.927 15.0263 168.416L13.6829 168.853C12.0886 169.371 10.7523 169.44 9.67385 169.06C8.59333 168.674 7.86321 167.896 7.48348 166.727C7.17391 165.775 7.1812 164.954 7.50533 164.266C7.8274 163.572 8.51523 162.965 9.56881 162.447L8.97135 160.609C7.5643 161.227 6.59556 162.114 6.06513 163.27C5.52835 164.427 5.49935 165.743 5.97815 167.217C6.33931 168.328 6.92072 169.221 7.72238 169.894C8.51769 170.57 9.47975 170.98 10.6086 171.126C11.7353 171.266 12.9433 171.126 14.2327 170.707L15.5666 170.274C17.5356 169.634 18.9476 168.631 19.8028 167.264C20.6559 165.892 20.8162 164.386 20.2838 162.747C19.7926 161.236 19.0025 160.155 17.9134 159.504ZM8.74518 140.795L8.93052 142.558L15.4462 141.873L15.6473 143.786L1.14138 145.311L0.940328 143.398L7.33647 142.726L7.1794 141.231L0.250265 136.833L0 134.451L7.61597 139.252L14.4629 132.518L14.709 134.86L8.74518 140.795ZM11.2133 117.949L11.852 111.872L15.7834 110.885L15.9897 108.922L0.900586 112.947L0.724667 114.621L14.6483 121.685L14.8557 119.712L11.2133 117.949ZM10.2182 112.274L9.69986 117.206L3.17382 114.032L10.2182 112.274ZM14.9001 87.6148L14.4172 89.1011L20.7434 91.1566L20.149 92.9858L13.8228 90.9303L13.312 92.5024L18.3628 98.4832L17.6199 100.77L11.8197 93.7238L3.8656 95.9004L4.56831 93.7377L11.7876 92.007L12.2984 90.435L6.2771 88.4786L6.87146 86.6493L12.8928 88.6058L13.3819 87.1004L8.55859 81.4569L9.2582 79.3037L14.4043 85.7368L23.2477 83.4489L22.5079 85.726L14.9001 87.6148ZM22.8505 69.8566L26.0111 64.3823L24.6491 63.5959L21.4885 69.0702L17.4283 66.7261L21.0497 60.4536L19.6789 59.6622L15.0958 67.6004L27.7275 74.8933L32.3607 66.8684L30.9986 66.082L27.3271 72.4412L22.8505 69.8566ZM30.244 45.3131L42.2789 49.7328L36.6254 38.2258L38.2945 36.3721L49.1339 46.1319L47.8468 47.5613L43.6258 43.7606L39.1903 39.5243L44.7634 50.9858L43.778 52.0802L31.8258 47.7483L36.4869 51.6891L40.708 55.4898L39.421 56.9192L28.5816 47.1594L30.244 45.3131ZM78.1509 20.1311L82.6169 18.1427L82.0017 16.7608L77.5357 18.7492L78.1509 20.1311Z" fill="white"/>
</svg>
