<svg width="1003" height="972" preserveAspectRatio="none" viewBox="0 0 1003 972" fill="none" xmlns="http://www.w3.org/2000/svg">
<path opacity="0.4" d="M752.114 117.362C846.685 188.861 922.341 282.147 949.892 398.637C979.957 525.755 979.056 664.955 907.281 773.267C833.405 884.75 706.787 951.47 575.19 964.127C450.637 976.107 337.997 911.74 235.972 837.781C184.199 800.25 130.791 760.124 87.9398 713.407C45.0928 666.694 12.8217 613.414 3.2963 549.58C-15.7025 422.259 63.0227 306.585 141.594 205.331C216.325 109.026 307.899 20.5654 427.148 3.38422C545.017 -13.5981 656.438 45.0261 752.114 117.362Z" stroke="white" stroke-width="0.857863"/>
<path opacity="0.4" d="M250.883 856.575C156.312 786.259 80.6578 694.519 53.1076 579.962C23.0433 454.952 23.9448 318.062 95.7169 211.548C169.592 101.913 296.21 36.2962 427.81 23.8488C552.365 12.0676 665.007 75.3694 767.031 148.103C818.804 185.012 872.212 224.474 915.063 270.417C957.909 316.355 990.179 368.752 999.704 431.525C1018.7 556.73 939.981 670.484 861.409 770.063C786.679 864.772 695.104 951.768 575.853 968.665C457.981 985.366 346.559 927.711 250.883 856.575Z" stroke="white" stroke-width="0.857863"/>
</svg>
