<svg width="27" height="28" viewBox="0 0 27 28" fill="none" xmlns="http://www.w3.org/2000/svg">
<path fill-rule="evenodd" clip-rule="evenodd" d="M13.5 27.5C20.9558 27.5 27 21.4558 27 14C27 6.54416 20.9558 0.5 13.5 0.5C6.04416 0.5 0 6.54416 0 14C0 21.4558 6.04416 27.5 13.5 27.5ZM19.2332 9.83407C19.8556 9.76 20.448 9.5941 21 9.34946C20.5886 9.96623 20.0655 10.508 19.461 10.9392L19.4713 11.3375C19.4713 15.4036 16.3772 20.0921 10.7167 20.0921C8.97889 20.0921 7.36201 19.5822 6.00007 18.7077C6.24095 18.7349 6.48561 18.7499 6.73399 18.7499C8.17559 18.7499 9.50284 18.2597 10.5555 17.4348C9.20946 17.4104 8.0734 16.5209 7.68162 15.2977C7.87002 15.3352 8.06218 15.3549 8.26088 15.3549C8.54208 15.3549 8.8139 15.3165 9.07166 15.2471C7.66475 14.964 6.6037 13.7202 6.6037 12.2299V12.1914C7.01892 12.422 7.49321 12.5607 7.9975 12.5776C7.17265 12.0265 6.62899 11.0845 6.62899 10.0168C6.62899 9.45255 6.7799 8.92393 7.04517 8.47025C8.56269 10.3318 10.8301 11.5569 13.3871 11.6853C13.3346 11.4603 13.3074 11.225 13.3074 10.9842C13.3074 9.28574 14.6853 7.90787 16.3846 7.90787C17.2704 7.90787 18.069 8.28094 18.6305 8.87988C19.3316 8.74116 19.9896 8.48525 20.5857 8.13282C20.3552 8.84988 19.8687 9.45351 19.2332 9.83407Z" fill="white"/>
</svg>
