<svg width="1920" height="381" viewBox="0 0 1920 381" fill="none" xmlns="http://www.w3.org/2000/svg">
<path opacity="0.4" d="M12.4758 233.525C-13.3047 224.341 -36.6029 207.978 -46.288 182.571C-56.0649 156.923 -51.6689 127.87 -36.5981 104.874C-22.2213 82.9374 2.6657 71.8437 28.7831 68.0923C55.3918 64.2704 83.9432 66.4068 103.286 84.7612C122.734 103.216 125.863 131.587 124.059 158.515C122.175 186.646 116.621 216.765 93.4141 232.363C69.9549 248.131 39.3386 243.093 12.4758 233.525Z" stroke="white"/>
<path opacity="0.4" d="M1755.74 180.852C1759.2 208.46 1768.78 236.279 1789.41 254.801C1809.7 273.023 1838.16 280.97 1865.46 279.409C1877.63 278.713 1887.88 272.846 1898 265.963C1900.01 264.598 1902.01 263.192 1904.03 261.78C1912.14 256.092 1920.39 250.3 1929.64 246.659C1936.62 243.912 1944.54 242.642 1952.65 241.855C1956.58 241.474 1960.56 241.205 1964.5 240.939L1964.91 240.912C1969 240.636 1973.04 240.358 1976.97 239.957C1992.72 238.347 2006.34 234.761 2012.6 221.623C2018.86 208.469 2011.81 195.901 2002.47 182.733C2001.1 180.801 1999.68 178.856 1998.25 176.898C1994.84 172.224 1991.38 167.473 1988.38 162.628C1984.12 155.746 1980.78 148.613 1979.84 141.123C1978.81 132.91 1980.37 124.35 1982.9 115.783C1984.62 109.979 1986.8 104.137 1988.95 98.385C1989.96 95.6571 1990.97 92.9496 1991.92 90.2761C1997.86 73.5588 2001.43 58.1829 1990.69 46.2836C1980.23 34.6911 1965.14 36.1584 1948.45 40.3515C1944.61 41.3161 1940.7 42.4205 1936.76 43.5351C1936.43 43.6284 1936.1 43.7218 1935.77 43.8152C1931.49 45.0231 1927.17 46.2298 1922.88 47.2647C1914.29 49.3333 1905.76 50.7249 1897.73 50.0621C1890.44 49.4595 1883.26 47.2987 1876.19 44.5907C1871.97 42.9723 1867.76 41.1455 1863.59 39.3356C1860.8 38.126 1858.03 36.924 1855.29 35.7967C1841.51 30.1388 1828.18 26.2764 1815.03 31.8574C1801.81 37.4682 1793.39 48.6797 1786.93 61.9254C1783.69 68.5467 1780.96 75.6606 1778.36 82.8166C1777.63 84.8149 1776.91 86.8174 1776.2 88.8132C1774.36 93.9561 1772.53 99.0546 1770.59 103.922C1760.65 128.868 1752.43 154.343 1755.74 180.852Z" stroke="white"/>
<path d="M71.3252 91.4957C95.7169 100.184 117.845 115.695 127.052 139.847C136.336 164.202 132.156 191.771 117.863 213.581C104.197 234.433 80.5652 244.943 55.848 248.493C30.6996 252.105 3.57317 250.111 -14.8371 232.641C-33.3492 215.074 -36.2864 188.113 -34.5832 162.681C-32.8064 136.149 -27.5664 107.501 -5.4618 92.6441C16.8743 77.6312 45.9612 82.4608 71.3252 91.4957Z" fill="#FFBE63"/>
<path fill-rule="evenodd" clip-rule="evenodd" d="M1755.25 141.247C1758.71 113.582 1768.32 85.6247 1789.08 66.9881C1809.49 48.661 1838.08 40.686 1865.49 42.2532C1890.12 43.662 1906.87 66.0008 1929.83 75.037C1957.48 85.92 2000.28 73.511 2013.05 100.323C2025.86 127.219 1984.03 151.553 1980.34 181.101C1976.28 213.55 2012.98 251.925 1991.06 276.212C1969.71 299.876 1929.56 269.972 1897.77 272.597C1868.86 274.985 1841.54 302.1 1814.83 290.764C1788.07 279.405 1780.88 245.412 1770.13 218.424C1760.18 193.471 1751.91 167.892 1755.25 141.247Z" fill="#F576A6"/>
<path d="M738.265 343.614C728.465 354.569 718.239 365.945 705.031 373.107C685.857 384.062 653.902 385.747 641.12 364.259C636.433 356.676 635.58 347.406 639.415 338.98C646.658 322.969 665.406 317.492 676.058 304.431C687.562 290.948 699.918 275.359 719.092 274.095C737.839 272.831 760.42 284.207 759.994 305.273C759.568 320.863 747.639 333.081 738.265 343.614Z" fill="#373249"/>
</svg>
