<svg width="320" height="588" viewBox="0 0 320 588" fill="none" xmlns="http://www.w3.org/2000/svg">
<path d="M12.1107 9.20498C21.3124 12.4827 29.6601 18.3339 33.1332 27.4452C36.6356 36.6332 35.0588 47.0335 29.6668 55.2609C24.5114 63.1274 15.5964 67.0921 6.27201 68.4314C-3.21511 69.7941 -13.4484 69.0418 -20.3936 62.4514C-27.3772 55.8245 -28.4853 45.6535 -27.8428 36.0592C-27.1725 26.0501 -25.1957 15.2431 -16.8568 9.6382C-8.43064 3.97464 2.54227 5.7966 12.1107 9.20498Z" fill="#FFBE63"/>
<path opacity="0.4" d="M-9.85295 62.1714C-19.421 58.7631 -28.0114 52.7097 -31.5771 43.3555C-35.1831 33.8957 -33.5653 23.1673 -27.9947 14.6674C-22.7012 6.59042 -13.5215 2.4822 -3.83293 1.09057C6.0604 -0.330467 16.5817 0.480522 23.6873 7.22313C30.8311 14.0021 32.0076 24.4531 31.3364 34.476C30.6335 44.9724 28.5619 56.0506 20.0473 61.7736C11.4343 67.5627 0.151211 65.735 -9.85295 62.1714Z" stroke="white"/>
<path fill-rule="evenodd" clip-rule="evenodd" d="M274.809 283.84C275.638 277.212 277.942 270.514 282.914 266.049C287.804 261.658 294.655 259.748 301.22 260.123C307.123 260.461 311.134 265.813 316.635 267.977C323.261 270.585 333.514 267.612 336.573 274.036C339.642 280.479 329.621 286.309 328.736 293.388C327.764 301.163 336.556 310.356 331.305 316.175C326.19 321.845 316.572 314.68 308.956 315.309C302.028 315.881 295.484 322.377 289.085 319.661C282.672 316.94 280.951 308.796 278.374 302.33C275.992 296.352 274.01 290.224 274.809 283.84Z" fill="#F576A6"/>
<path opacity="0.4" d="M275.305 293.281C276.127 299.852 278.403 306.412 283.248 310.763C288.02 315.048 294.733 316.931 301.192 316.561C303.997 316.401 306.379 315.049 308.797 313.405C309.267 313.085 309.74 312.753 310.218 312.418C312.164 311.053 314.189 309.632 316.452 308.741C318.174 308.063 320.112 307.755 322.067 307.565C323.013 307.474 323.971 307.409 324.915 307.345L325.015 307.338C325.994 307.272 326.957 307.206 327.891 307.111C331.665 306.725 334.72 305.877 336.122 302.933C337.516 300.005 335.982 297.176 333.729 293.999C333.407 293.546 333.071 293.085 332.731 292.619C331.911 291.494 331.066 290.336 330.34 289.163C329.308 287.494 328.474 285.731 328.24 283.857C327.984 281.814 328.373 279.704 328.986 277.632C329.401 276.228 329.932 274.807 330.449 273.422C330.691 272.772 330.931 272.13 331.154 271.501C332.585 267.472 333.339 264.009 330.934 261.343C328.592 258.748 325.199 259.029 321.19 260.036C320.276 260.266 319.344 260.529 318.398 260.796C318.319 260.819 318.24 260.841 318.161 260.863C317.136 261.153 316.096 261.444 315.059 261.693C312.989 262.192 310.899 262.537 308.915 262.373C307.115 262.224 305.356 261.693 303.649 261.038C302.634 260.649 301.607 260.204 300.599 259.766C299.932 259.477 299.273 259.191 298.632 258.928C295.335 257.574 292.275 256.711 289.28 257.982C286.235 259.275 284.272 261.864 282.74 265.003C281.975 266.571 281.326 268.259 280.703 269.971C280.53 270.446 280.36 270.923 280.189 271.4C279.747 272.634 279.306 273.866 278.839 275.038C276.459 281.009 274.523 287.034 275.305 293.281Z" stroke="white"/>
<path d="M54.0441 569.482C49.1044 574.908 43.9498 580.543 37.292 584.091C27.6273 589.517 11.5196 590.351 5.07656 579.708C2.7141 575.951 2.28425 571.36 4.21717 567.186C7.86825 559.256 17.3183 556.543 22.6875 550.073C28.4863 543.395 34.7148 535.673 44.3795 535.047C53.8293 534.421 65.2118 540.056 64.997 550.491C64.7822 558.212 58.769 564.265 54.0441 569.482Z" fill="#373249"/>
</svg>
