<svg width="27" height="28" viewBox="0 0 27 28" fill="none" xmlns="http://www.w3.org/2000/svg">
<path d="M19.4553 16.2089C18.3436 15.1454 18.2642 15.1454 19.2171 13.9182C20.4082 12.3637 21.9964 10.4002 20.567 10.4002H17.9465C17.4701 10.4002 17.3907 10.7275 17.2318 11.1365C16.5966 12.691 15.326 14.7363 14.8496 14.4091C14.3731 14.0818 14.6113 12.8546 14.6113 10.8911C14.6907 10.6456 14.6113 10.4002 14.4525 10.2366C14.2937 10.073 14.0555 9.90933 13.8172 9.90933C13.4202 9.82752 13.0231 9.74571 12.6261 9.74571C11.1173 9.74571 10.085 10.4002 10.6409 10.482C11.6732 10.6456 11.5938 12.9364 11.3555 13.9182C10.9585 15.6363 9.37031 12.6092 8.65563 11.0547C8.57622 10.6456 8.25858 10.4002 7.86153 10.4002H5.79689C5.47925 10.4002 5.24102 10.482 5.24102 10.7275C5.24102 11.1365 7.22626 15.1454 9.05267 17.1907C10.8791 19.1542 12.7055 18.9906 13.9761 18.9906C14.1349 18.9906 14.2937 18.9088 14.3731 18.827C14.4525 18.7452 14.5319 18.5815 14.5319 18.4179C14.5319 17.1089 15.0084 16.4544 15.8819 17.3543C16.8348 18.3361 17.073 18.9906 18.2642 18.9906H20.4082C20.9641 18.9906 21.1229 18.827 21.1229 18.5815C21.2023 18.0088 20.2494 16.9453 19.4553 16.2089ZM13.8172 0.50082C21.2023 0.664446 27.0786 6.80043 26.9992 14.2454C26.9198 21.6904 20.8053 27.581 13.4202 27.4992C5.95571 27.4173 0 21.445 0 14C0.0794094 6.47318 6.27334 0.419006 13.8172 0.50082Z" fill="white"/>
</svg>
